<?xml version="1.0" standalone="no"?>
<!DOCTYPE svg PUBLIC "-//W3C//DTD SVG 20010904//EN"
 "http://www.w3.org/TR/2001/REC-SVG-20010904/DTD/svg10.dtd">
<svg version="1.0" xmlns="http://www.w3.org/2000/svg"
 width="1000.000000pt" height="1000.000000pt" viewBox="0 0 1000.000000 1000.000000"
 preserveAspectRatio="xMidYMid meet">
<metadata>
Created by potrace 1.14, written by Peter Selinger 2001-2017
</metadata>
<g transform="translate(0.000000,1000.000000) scale(0.100000,-0.100000)"
fill="#000000" stroke="none">
<path d="M4229 9266 c-2 -3 -27 -8 -54 -11 -28 -4 -55 -11 -61 -16 -6 -5 -13
-7 -16 -4 -4 5 -66 -14 -108 -32 -8 -3 -17 -7 -20 -8 -24 -6 -125 -61 -185
-100 -80 -53 -241 -215 -228 -229 4 -3 2 -6 -4 -6 -14 0 -111 -167 -119 -205
-1 -5 -11 -35 -22 -65 -10 -30 -20 -58 -21 -62 0 -5 -1 -9 -2 -10 -30 -101
-30 -319 0 -453 61 -267 246 -510 491 -643 64 -35 207 -86 267 -97 24 -4 46
-12 50 -18 8 -13 11 -557 3 -562 -3 -2 -33 -7 -65 -10 -33 -4 -69 -9 -80 -11
-11 -3 -36 -7 -55 -10 -38 -6 -99 -20 -145 -35 -148 -45 -184 -59 -300 -115
-108 -52 -243 -135 -334 -206 -77 -61 -254 -235 -296 -293 -17 -22 -33 -42
-36 -45 -17 -13 -140 -214 -172 -280 -50 -104 -82 -180 -92 -215 -9 -34 -10
-34 -17 -55 -13 -34 -20 -58 -38 -139 -19 -86 -23 -114 -36 -206 -3 -27 -10
-52 -14 -55 -5 -3 -133 -5 -286 -5 -270 1 -279 1 -282 20 -5 38 -25 111 -45
170 -23 67 -95 208 -108 213 -5 2 -9 10 -9 17 0 7 -3 15 -7 17 -5 2 -26 26
-48 53 -21 28 -42 52 -46 55 -3 3 -34 29 -67 59 -34 30 -70 59 -81 65 -10 6
-48 28 -83 48 -178 103 -436 149 -630 112 -110 -21 -109 -21 -171 -43 -252
-88 -469 -289 -574 -531 -28 -65 -42 -110 -70 -222 -10 -43 -12 -263 -2 -318
5 -30 12 -66 14 -80 6 -39 53 -171 70 -196 8 -13 15 -28 15 -34 0 -6 5 -16 10
-23 6 -7 29 -41 52 -77 39 -59 149 -178 207 -223 100 -79 271 -159 391 -184
88 -18 288 -24 360 -11 19 4 51 10 70 13 190 35 421 181 555 350 69 87 156
256 169 327 3 12 5 23 6 23 2 0 10 35 15 62 10 62 -13 58 295 57 155 -1 283
-3 285 -5 2 -3 6 -29 10 -59 3 -30 8 -67 10 -82 3 -16 7 -43 10 -60 3 -18 11
-51 17 -73 5 -22 12 -50 14 -62 7 -39 65 -195 100 -273 43 -93 141 -265 160
-281 8 -6 14 -15 14 -20 0 -10 8 -21 91 -118 279 -330 655 -548 1074 -622 172
-30 473 -32 618 -4 49 9 72 14 97 20 14 3 38 8 54 11 16 2 34 8 40 12 6 4 13
7 16 7 69 10 348 126 405 168 29 21 167 107 172 107 11 0 433 -427 433 -439 0
-6 -4 -11 -9 -11 -5 0 -20 -17 -32 -37 -13 -21 -26 -40 -29 -43 -4 -3 -26 -37
-49 -76 -77 -130 -142 -305 -167 -449 -3 -16 -9 -49 -14 -73 -8 -45 -6 -333 3
-392 3 -19 11 -57 17 -85 6 -27 13 -57 15 -65 10 -47 61 -184 97 -259 104
-214 276 -413 476 -548 42 -29 179 -104 189 -105 4 0 13 -3 18 -8 10 -9 137
-59 168 -66 9 -2 25 -6 35 -9 74 -20 103 -26 142 -31 52 -8 75 -12 75 -14 0
-4 271 -6 279 -2 5 3 27 6 50 8 89 8 135 19 326 79 40 13 154 69 158 78 2 4
10 7 18 7 15 0 189 115 221 146 10 11 40 38 65 60 66 60 159 171 210 251 60
92 139 257 164 343 4 14 9 30 11 35 13 41 43 198 48 257 12 115 5 303 -12 361
-3 11 -6 29 -8 40 -10 76 -52 213 -86 279 -5 10 -9 22 -9 27 0 15 -91 172
-132 228 -21 29 -38 56 -38 62 0 5 -7 11 -15 15 -8 3 -15 10 -15 15 0 5 90 99
201 210 130 130 205 198 215 194 7 -3 14 -9 14 -13 0 -13 197 -107 270 -129
101 -31 125 -34 275 -35 143 -1 198 4 250 24 17 6 31 11 33 11 7 -3 59 13 70
22 6 5 12 6 12 2 0 -9 181 86 221 117 124 93 259 258 319 392 61 135 84 250
83 416 -1 108 -3 139 -18 200 -3 14 -8 36 -11 50 -3 14 -14 44 -24 68 -10 23
-17 42 -14 42 6 0 -75 150 -109 200 -45 66 -173 191 -242 236 -33 21 -63 43
-66 47 -3 5 -9 8 -13 7 -3 0 -34 12 -69 29 -213 101 -503 115 -727 35 -72 -26
-152 -64 -198 -95 -24 -16 -45 -29 -48 -29 -5 0 -40 -30 -116 -100 -60 -54
-143 -164 -185 -245 -34 -64 -85 -195 -77 -195 2 0 0 -9 -5 -19 -6 -10 -14
-43 -17 -73 -3 -29 -8 -56 -10 -59 -6 -11 -5 -180 1 -229 7 -53 18 -112 25
-130 1 -3 3 -9 4 -15 8 -53 67 -187 122 -272 l33 -52 -201 -202 -201 -202 -33
18 c-18 10 -41 25 -52 35 -61 57 -342 184 -452 204 -14 2 -32 7 -40 10 -8 2
-35 8 -60 11 -25 3 -61 9 -80 12 -64 10 -355 4 -355 -7 0 -1 -11 -3 -25 -4
-38 -4 -102 -17 -130 -27 -14 -5 -34 -10 -45 -12 -11 -2 -27 -7 -35 -10 -8 -3
-28 -10 -45 -15 -93 -32 -301 -140 -337 -176 -7 -6 -27 -21 -44 -33 l-30 -22
-207 207 c-114 114 -207 212 -207 217 0 6 8 18 18 26 63 58 181 214 248 329
49 83 56 98 107 210 27 59 75 198 83 240 3 14 10 43 16 65 7 22 12 42 13 45 0
3 5 31 9 64 4 32 10 70 14 85 7 34 6 381 -2 446 -17 143 -75 354 -130 477 -43
96 -80 173 -86 178 -3 3 -14 21 -23 40 -19 39 -39 72 -47 80 -3 3 -23 30 -45
60 -109 154 -269 313 -426 423 -95 66 -159 104 -266 156 -71 34 -257 104 -311
116 -42 9 -169 37 -187 41 -11 2 -47 6 -79 9 -33 4 -62 8 -64 10 -5 5 -5 565
0 570 2 2 21 6 43 9 50 6 183 49 238 78 23 11 42 19 42 17 0 -2 7 2 15 9 8 7
41 30 74 51 168 112 304 293 371 496 42 125 46 151 50 300 4 170 -35 337 -111
472 -15 26 -32 57 -38 68 -62 115 -243 278 -391 351 -73 37 -197 79 -263 91
-39 6 -288 14 -293 9z m242 -291 c9 -3 26 -7 36 -9 59 -12 152 -51 212 -89
203 -132 314 -330 325 -580 2 -32 0 -60 -5 -62 -4 -3 -5 -13 -2 -24 5 -19 -24
-149 -37 -166 -5 -5 -9 -14 -10 -20 -16 -88 -152 -252 -275 -330 -57 -36 -161
-79 -220 -91 -51 -10 -249 -11 -295 -1 -82 18 -213 77 -269 122 -149 120 -244
274 -276 450 -7 39 -7 183 0 215 3 14 8 41 11 60 10 52 73 200 86 200 4 0 8 6
8 13 0 36 175 204 233 223 9 4 17 10 17 15 0 5 5 9 11 9 6 0 25 6 42 14 55 25
130 48 177 53 25 3 46 6 48 8 5 5 163 -4 183 -10z m39 -2520 c41 -5 77 -9 80
-10 3 -1 23 -5 45 -9 198 -38 398 -120 568 -234 106 -71 153 -111 250 -210 70
-71 207 -250 207 -269 0 -7 4 -13 9 -13 5 0 12 -11 15 -25 4 -14 11 -25 16
-25 6 0 10 -7 10 -15 0 -9 6 -26 14 -38 40 -60 114 -282 135 -402 26 -144 33
-341 16 -465 -11 -87 -46 -244 -57 -257 -6 -7 -8 -13 -4 -13 7 0 -28 -95 -67
-183 -15 -31 -27 -61 -27 -65 -1 -4 -7 -14 -13 -22 -7 -8 -18 -25 -24 -37 -7
-13 -19 -33 -25 -45 -34 -61 -155 -211 -224 -280 -135 -133 -227 -200 -388
-283 -97 -50 -278 -116 -361 -132 -50 -9 -54 -10 -57 -13 -3 -2 -12 -3 -123
-16 -118 -13 -313 -8 -405 11 -14 2 -50 10 -80 16 -56 11 -102 23 -155 43 -16
6 -35 11 -41 12 -47 7 -319 148 -354 184 -3 3 -25 19 -50 35 -60 41 -236 216
-294 292 -91 122 -172 266 -222 399 -24 66 -62 199 -70 247 -2 15 -6 42 -9 60
-12 76 -15 118 -16 227 -1 63 2 135 6 160 3 25 8 61 10 80 5 42 8 57 30 146
51 205 160 421 297 589 226 278 562 479 908 541 14 3 32 7 40 9 8 2 47 7 85
11 39 3 71 7 72 8 5 4 190 -2 253 -9z m-3480 -835 c0 -3 17 -5 38 -6 197 -5
429 -167 535 -373 26 -50 45 -91 42 -91 -2 0 2 -18 10 -39 7 -22 16 -64 19
-95 2 -31 8 -60 11 -66 3 -5 2 -10 -4 -10 -6 0 -6 -11 -1 -29 4 -16 6 -32 3
-35 -4 -3 -7 -24 -9 -47 -4 -48 -48 -189 -71 -228 -52 -84 -74 -112 -134 -171
-77 -76 -78 -77 -144 -114 -150 -85 -337 -111 -500 -70 -79 19 -148 45 -177
65 -14 11 -29 19 -33 19 -11 0 -87 62 -134 109 -43 43 -131 170 -131 189 0 5
-7 23 -15 40 -18 35 -22 51 -40 145 -40 216 39 456 204 613 56 53 142 114 161
114 6 0 10 5 10 12 0 6 3 9 6 6 3 -4 29 4 57 16 57 25 94 34 177 42 30 4 56 7
58 9 5 4 62 0 62 -5z m8080 -700 c3 -1 9 -2 13 -1 15 2 126 -29 173 -49 110
-48 254 -170 304 -258 8 -15 17 -29 20 -32 25 -25 61 -119 82 -215 25 -110 10
-287 -34 -393 -6 -15 -12 -33 -14 -41 -1 -8 -6 -17 -11 -20 -4 -3 -17 -24 -28
-46 -11 -22 -58 -78 -105 -126 -68 -69 -102 -94 -170 -128 -47 -23 -95 -43
-108 -46 -12 -2 -26 -6 -30 -9 -36 -22 -237 -29 -317 -12 -139 31 -259 94
-351 184 -52 52 -111 128 -112 146 0 5 -4 12 -9 15 -16 12 -53 102 -73 177 -9
36 -23 160 -21 189 1 30 12 96 21 135 6 25 11 50 12 55 1 6 22 50 47 100 35
70 63 108 125 171 71 71 183 149 229 158 6 2 21 7 32 11 49 22 167 41 240 39
44 -1 82 -3 85 -4z m-2090 -1671 c68 -3 223 -31 275 -50 17 -6 39 -14 50 -18
82 -31 226 -110 280 -153 6 -5 19 -16 31 -26 153 -126 275 -294 336 -462 11
-30 22 -62 25 -70 30 -79 50 -217 48 -340 -3 -170 -11 -220 -55 -352 -94 -280
-282 -498 -552 -641 -38 -20 -68 -34 -68 -30 0 3 -6 1 -12 -4 -13 -10 -102
-42 -136 -48 -9 -2 -17 -4 -17 -5 0 -1 -9 -3 -20 -5 -11 -2 -36 -7 -55 -10
-19 -4 -46 -9 -60 -12 -14 -2 -65 -6 -115 -7 -81 -2 -124 2 -229 20 -17 3 -41
6 -53 7 -13 1 -23 5 -23 8 0 3 -7 6 -15 7 -8 1 -22 3 -30 4 -8 1 -15 4 -15 8
0 3 -10 6 -22 7 -28 3 -239 108 -267 134 -11 10 -25 19 -30 19 -20 0 -218 207
-263 275 -170 258 -227 531 -173 840 7 45 10 55 28 117 10 32 18 60 18 63 0 7
87 176 101 200 114 176 302 345 474 421 55 25 196 76 202 73 1 0 15 2 30 5 15
4 38 9 52 12 14 3 59 8 100 11 41 3 77 7 79 9 2 2 7 2 10 0 4 -3 36 -6 71 -7z"/>
</g>
</svg>
