<?xml version="1.0" standalone="no"?>
<!DOCTYPE svg PUBLIC "-//W3C//DTD SVG 20010904//EN"
 "http://www.w3.org/TR/2001/REC-SVG-20010904/DTD/svg10.dtd">
<svg version="1.0" xmlns="http://www.w3.org/2000/svg"
 width="251.000000pt" height="251.000000pt" viewBox="0 0 251.000000 251.000000"
 preserveAspectRatio="xMidYMid meet">
<metadata>
Created by potrace 1.14, written by Peter Selinger 2001-2017
</metadata>
<g transform="translate(0.000000,251.000000) scale(0.100000,-0.100000)"
fill="#000000" stroke="none">
<path d="M1010 2308 c-120 -34 -196 -189 -153 -312 26 -75 104 -150 165 -160
25 -3 36 -41 30 -107 -4 -35 -6 -37 -58 -48 -174 -39 -329 -196 -351 -356 -7
-51 -13 -55 -99 -53 -51 2 -51 2 -63 43 -40 134 -204 203 -337 141 -183 -85
-187 -350 -5 -440 133 -66 286 -6 342 136 l17 43 65 3 c65 3 66 3 73 -25 37
-168 114 -277 244 -343 133 -68 317 -65 433 7 21 13 42 23 47 21 4 -2 29 -23
55 -47 l47 -44 -33 -66 c-101 -202 2 -442 215 -501 218 -60 429 89 444 315 5
78 -20 176 -57 224 l-18 24 47 49 48 49 41 -21 c160 -81 351 39 351 222 0 166
-154 280 -314 234 -144 -42 -216 -205 -151 -340 l22 -45 -48 -47 -48 -47 -63
33 c-58 31 -70 34 -153 34 -83 1 -96 -2 -158 -32 -76 -37 -74 -38 -134 28 -29
32 -31 37 -17 55 95 131 125 247 101 393 -25 160 -184 318 -352 353 l-61 12 1
66 0 66 49 19 c176 67 217 304 73 420 -68 54 -149 69 -237 44z"/>
</g>
</svg>
