<?xml version="1.0" encoding="utf-8"?>
<!-- Generator: Adobe Illustrator 26.0.2, SVG Export Plug-In . SVG Version: 6.00 Build 0)  -->
<svg version="1.1" id="レイヤー_1" xmlns="http://www.w3.org/2000/svg" xmlns:xlink="http://www.w3.org/1999/xlink" x="0px"
	 y="0px" viewBox="0 0 120 120" style="enable-background:new 0 0 120 120;" xml:space="preserve">
<style type="text/css">
	.st0{fill:#BBDEF2;}
	.st1{fill:#C88BC4;}
	.st2{fill:#7B8FDD;}
	.st3{fill:#D1AAD7;}
	.st4{fill:#86BFF2;}
</style>
<g>
	<polygon class="st0" points="80.9,58.8 77.9,55.8 60.2,73.5 60.2,51.3 76.6,34.9 73.6,31.9 60.2,45.3 60.2,16.4 54.5,16.4 
		54.5,41.4 38,24.9 36,26.9 54.5,45.4 54.5,58.7 44.3,48.5 41.3,51.5 54.5,64.7 54.5,86.9 28.4,60.8 25.4,63.8 54.5,93 54.5,111.7 
		60.2,111.7 60.2,79.5 	"/>
	<circle class="st1" cx="75.1" cy="35.3" r="9.1"/>
	<circle class="st2" cx="41.6" cy="47.9" r="8.2"/>
	<circle class="st3" cx="57.4" cy="19.7" r="11.4"/>
	<circle class="st1" cx="10.3" cy="51.2" r="9.5"/>
	<circle class="st3" cx="96.4" cy="46.3" r="8.3"/>
	<circle class="st4" cx="36.8" cy="25.8" r="7.6"/>
	<circle class="st2" cx="88.1" cy="19.7" r="6.1"/>
	<circle class="st3" cx="79.1" cy="80.4" r="6.1"/>
	<circle class="st3" cx="21.5" cy="89.1" r="8.7"/>
	<circle class="st2" cx="8" cy="72.7" r="6.1"/>
	<circle class="st3" cx="16.3" cy="31.1" r="4.9"/>
	<circle class="st2" cx="111.8" cy="60.8" r="7.4"/>
	<circle class="st4" cx="102.1" cy="30.5" r="4.9"/>
	<circle class="st4" cx="70.1" cy="96.3" r="4.9"/>
	<circle class="st4" cx="93.5" cy="64.5" r="4"/>
	<circle class="st0" cx="86" cy="94.2" r="4"/>
	<circle class="st4" cx="26.9" cy="40.1" r="4"/>
	<circle class="st2" cx="41.6" cy="96.3" r="4.9"/>
	<circle class="st1" cx="104.1" cy="83.4" r="11.3"/>
	<circle class="st4" cx="29.6" cy="66.5" r="9.7"/>
	<circle class="st2" cx="76.3" cy="58.4" r="9.7"/>
</g>
</svg>
