<?xml version="1.0" encoding="utf-8"?>
<!-- Generator: Adobe Illustrator 26.0.2, SVG Export Plug-In . SVG Version: 6.00 Build 0)  -->
<svg version="1.1" id="レイヤー_1" xmlns="http://www.w3.org/2000/svg" xmlns:xlink="http://www.w3.org/1999/xlink" x="0px"
	 y="0px" viewBox="0 0 310.5 109.6" style="enable-background:new 0 0 310.5 109.6;" xml:space="preserve">
<style type="text/css">
	.st0{fill:#FFFFFF;}
</style>
<g>
	<path class="st0" d="M64.7,3.5v73.7c0,17.8-14.5,32.4-32.4,32.4S0,95.1,0,77.2s14.5-32.4,32.4-32.4c3.5,0,6.9,0.6,10.2,1.6
		c1.9,0.6,2.9,2.6,2.2,4.5c-0.6,1.9-2.6,2.9-4.5,2.2c-2.6-0.8-5.2-1.3-8-1.3c-13.9,0-25.3,11.3-25.3,25.3s11.3,25.3,25.3,25.3
		s25.3-11.3,25.3-25.3V3.5c0-2,1.6-3.5,3.5-3.5S64.7,1.6,64.7,3.5z M111,44.8c-17.8,0-32.4,14.5-32.4,32.4s14.5,32.4,32.4,32.4
		c2,0,3.5-1.6,3.5-3.5s-1.6-3.5-3.5-3.5c-13.9,0-25.3-11.3-25.3-25.3S97.1,51.9,111,51.9c13.9,0,25.3,11.3,25.3,25.3V106
		c0,2,1.6,3.5,3.5,3.5s3.5-1.6,3.5-3.5V77.2C143.4,59.4,128.9,44.8,111,44.8z M224.4,44.8c-17.8,0-32.4,14.5-32.4,32.4
		s14.5,32.4,32.4,32.4c2,0,3.5-1.6,3.5-3.5s-1.6-3.5-3.5-3.5c-13.9,0-25.3-11.3-25.3-25.3s11.3-25.3,25.3-25.3s25.3,11.3,25.3,25.3
		V106c0,2,1.6,3.5,3.5,3.5s3.5-1.6,3.5-3.5V77.2C256.8,59.4,242.3,44.8,224.4,44.8z M186.4,39.7c2,0,3.5-1.6,3.5-3.5
		s-1.6-3.5-3.5-3.5h-22V3.5c0-2-1.6-3.5-3.5-3.5s-3.5,1.6-3.5,3.5v82.6c0,12.9,10.5,23.4,23.4,23.4h5.7c2,0,3.5-1.6,3.5-3.5
		s-1.6-3.5-3.5-3.5h-5.7c-9,0-16.3-7.3-16.3-16.3V39.7H186.4z"/>
	<path class="st0" d="M309.5,103.6l-29.6-31L302.6,51c1.4-1.4,1.5-3.6,0.1-5c-1.3-1.4-3.6-1.5-5-0.1l-19.9,18.9V3.5
		c0-2-1.6-3.5-3.5-3.5s-3.5,1.6-3.5,3.5V106c0,2,1.6,3.5,3.5,3.5s3.5-1.6,3.5-3.5V80.7l26.5,27.7c0.7,0.7,1.6,1.1,2.6,1.1
		c0.9,0,1.8-0.3,2.4-1C310.8,107.2,310.8,105,309.5,103.6z"/>
</g>
</svg>
