<svg xmlns="http://www.w3.org/2000/svg" xmlns:xlink="http://www.w3.org/1999/xlink" viewBox="0 0 310.46 109.57"><defs><style>.cls-1{fill:url(#新規グラデーションスウォッチ_4);}.cls-2{fill:#fff;}</style><linearGradient id="新規グラデーションスウォッチ_4" y1="54.79" x2="256.79" y2="54.79" gradientUnits="userSpaceOnUse"><stop offset="0" stop-color="#d1aad7"/><stop offset="0.25" stop-color="#c88bc4"/><stop offset="0.5" stop-color="#7b8fdd"/><stop offset="0.75" stop-color="#86bff2"/><stop offset="1" stop-color="#bbdef2"/></linearGradient></defs><g id="レイヤー_2" data-name="レイヤー 2"><g id="レイヤー_1-2" data-name="レイヤー 1"><path class="cls-1" d="M64.73,3.54V77.21A32.34,32.34,0,1,1,42.56,46.49a3.54,3.54,0,1,1-2.23,6.72,25.29,25.29,0,1,0,17.31,24V3.54a3.55,3.55,0,0,1,7.09,0ZM111,44.85a32.36,32.36,0,1,0,0,64.72,3.54,3.54,0,0,0,0-7.08,25.28,25.28,0,1,1,25.27-25.28V106a3.55,3.55,0,0,0,7.09,0V77.21A32.39,32.39,0,0,0,111,44.85Zm113.41,0a32.36,32.36,0,0,0,0,64.72,3.54,3.54,0,0,0,0-7.08,25.28,25.28,0,1,1,25.28-25.28V106a3.54,3.54,0,0,0,7.08,0V77.21A32.39,32.39,0,0,0,224.43,44.85Zm-38-5.11a3.55,3.55,0,0,0,0-7.09h-22V3.54a3.55,3.55,0,0,0-7.09,0v82.6a23.46,23.46,0,0,0,23.43,23.43h5.67a3.54,3.54,0,0,0,0-7.08h-5.67a16.36,16.36,0,0,1-16.34-16.35V39.74Z"/><path class="cls-2" d="M309.48,103.58l-29.56-31L302.63,51a3.54,3.54,0,1,0-4.89-5.12L277.88,64.75V3.54a3.54,3.54,0,0,0-7.08,0V106a3.54,3.54,0,0,0,7.08,0V80.74l26.48,27.74a3.55,3.55,0,0,0,5,.11A3.55,3.55,0,0,0,309.48,103.58Z"/></g></g></svg>