<?xml version="1.0" encoding="utf-8"?>
<!-- Generator: Adobe Illustrator 26.0.2, SVG Export Plug-In . SVG Version: 6.00 Build 0)  -->
<svg version="1.1" id="レイヤー_1" xmlns="http://www.w3.org/2000/svg" xmlns:xlink="http://www.w3.org/1999/xlink" x="0px"
	 y="0px" viewBox="0 0 249.8 213.3" style="enable-background:new 0 0 249.8 213.3;" xml:space="preserve">
<style type="text/css">
	.st0{fill:url(#SVGID_1_);}
</style>
<linearGradient id="SVGID_1_" gradientUnits="userSpaceOnUse" x1="53.0225" y1="45.3708" x2="204.5353" y2="196.8836">
	<stop  offset="0" style="stop-color:#D1AAD7"/>
	<stop  offset="0.25" style="stop-color:#C88BC4"/>
	<stop  offset="0.5" style="stop-color:#7B8FDD"/>
	<stop  offset="0.75" style="stop-color:#86BFF2"/>
	<stop  offset="1" style="stop-color:#BBDEF2"/>
</linearGradient>
<path class="st0" d="M242.6,108.6c-9.6-9.6-25.1-9.6-34.7,0c-8.7,8.7-9.5,22.4-2.3,32l-10.2,10.2c-12.8-10.2-31.2-10.1-43.9,0.3
	l-10.5-10.5c8.1-8.2,13.2-19.5,13.2-32c0-23.9-18.5-43.6-42-45.4V48.8c11.9-1.7,21-12,21-24.3c0-13.5-11-24.5-24.5-24.5
	S84,11,84,24.5c0,12.3,9.1,22.6,21,24.3v14.3C82.7,64.9,64.9,82.7,63.2,105H48.8c-1.7-11.9-12-21-24.3-21C11,84,0,95,0,108.5
	s11,24.5,24.5,24.5c12.3,0,22.6-9.1,24.3-21h14.3c1.8,23.5,21.5,42,45.4,42c10.1,0,19.4-3.3,27-8.9l10.9,10.9
	c-11.2,13.8-10.4,34.1,2.4,46.9c6.8,6.8,15.8,10.2,24.8,10.2c9,0,17.9-3.4,24.8-10.2c12.9-12.9,13.6-33.6,2.1-47.3l10.1-10.1
	c4.3,3.2,9.5,4.9,14.6,4.9c6.3,0,12.6-2.4,17.4-7.2C252.1,133.7,252.1,118.1,242.6,108.6z M91.1,24.5c0-9.6,7.8-17.5,17.5-17.5
	S126,14.9,126,24.5S118.2,42,108.5,42S91.1,34.2,91.1,24.5z M24.5,126c-9.6,0-17.5-7.8-17.5-17.5s7.8-17.5,17.5-17.5
	S42,98.9,42,108.5S34.2,126,24.5,126z M70.1,108.5c0-21.2,17.3-38.5,38.5-38.5c21.2,0,38.5,17.3,38.5,38.5S129.7,147,108.5,147
	C87.3,147,70.1,129.7,70.1,108.5z M193.4,198c-10.9,10.9-28.6,10.9-39.5,0c-10.9-10.9-10.9-28.6,0-39.5c5.5-5.5,12.6-8.2,19.8-8.2
	c7.2,0,14.3,2.7,19.8,8.2C204.3,169.4,204.3,187.1,193.4,198z M237.6,138.3c-3.3,3.3-7.7,5.1-12.3,5.1c-4.7,0-9-1.8-12.3-5.1
	c-3.3-3.3-5.1-7.7-5.1-12.3c0-4.7,1.8-9,5.1-12.3c3.3-3.3,7.7-5.1,12.3-5.1c4.7,0,9,1.8,12.3,5.1c3.3,3.3,5.1,7.7,5.1,12.3
	C242.7,130.6,240.9,135,237.6,138.3z"/>
</svg>
