<svg id="Layer_1" data-name="Layer 1" xmlns="http://www.w3.org/2000/svg" xmlns:xlink="http://www.w3.org/1999/xlink" viewBox="0 0 249.751 213.286"><defs><style>.cls-1{fill:url(#新規グラデーションスウォッチ_4);}</style><linearGradient id="新規グラデーションスウォッチ_4" x1="77.427" y1="88.331" x2="228.94" y2="239.844" gradientUnits="userSpaceOnUse"><stop offset="0" stop-color="#d0abd0"/><stop offset="0.25" stop-color="#c68bbd"/><stop offset="0.5" stop-color="#7f8fc7"/><stop offset="0.75" stop-color="#8abee7"/><stop offset="1" stop-color="#bcdef2"/></linearGradient></defs><path class="cls-1" d="M266.979,151.539a24.528,24.528,0,0,0-37.014,32l-10.21,10.21a35.108,35.108,0,0,0-43.9.31l-10.549-10.549a45.505,45.505,0,0,0-28.817-77.4V91.787a24.543,24.543,0,1,0-7.086,0v14.325A45.6,45.6,0,0,0,87.556,147.96H73.232a24.543,24.543,0,1,0,0,7.086H87.556a45.5,45.5,0,0,0,72.379,33.115l10.911,10.911a35.043,35.043,0,1,0,53.991-.38l10.14-10.14a24.528,24.528,0,0,0,32-37.013Z" transform="translate(-24.405 -42.96)"/></svg>