<?xml version="1.0" encoding="utf-8"?>
<!-- Generator: Adobe Illustrator 26.0.2, SVG Export Plug-In . SVG Version: 6.00 Build 0)  -->
<svg version="1.1" id="レイヤー_1" xmlns="http://www.w3.org/2000/svg" xmlns:xlink="http://www.w3.org/1999/xlink" x="0px"
	 y="0px" viewBox="0 0 130 120" style="enable-background:new 0 0 130 120;" xml:space="preserve">
<style type="text/css">
	.st0{fill:#BBDEF2;}
	.st1{fill:#7B8FDD;}
	.st2{fill:#D1AAD7;}
	.st3{fill:none;}
	.st4{fill:#86BFF2;}
	.st5{fill:#C88BC4;}
</style>
<g>
	<g>
		<g>
			<path class="st0" d="M28.3,92.1c0,0,0.1,0.1,0.1,0.1L114,75.8c0.4-1.8,0.7-3.5,0.9-5.4c0.1-0.5,0.1-1,0.1-1.6
				c0.1-1.1,0.1-2.2,0.1-3.3L23.5,83.2C24.8,86.3,26.4,89.3,28.3,92.1z"/>
			<path class="st0" d="M22.1,79.3l92.8-17.9c-0.3-3.3-0.9-6.6-1.9-9.7L20.3,69.6C20.5,72.9,21.2,76.2,22.1,79.3z"/>
			<path class="st0" d="M55.6,111.4c1.5,0.4,3.1,0.7,4.7,1c1.3,0.2,2.7,0.4,4,0.5C80,114,94.5,107.3,104,96l-58.8,11.3
				C48.4,109.1,51.9,110.5,55.6,111.4z"/>
			<path class="st0" d="M20.2,62.1c0,0.2,0,0.5,0,0.7c-0.1,0.9-0.1,1.8-0.1,2.7l91.6-17.7c-0.6-1.6-1.3-3.1-2.1-4.6
				c-0.6-1.1-1.2-2.2-1.9-3.3c-0.3-0.4-0.5-0.8-0.8-1.2L21.2,55.2C20.7,57.5,20.3,59.8,20.2,62.1z"/>
			<path class="st0" d="M31.4,96.3c2.5,3,5.5,5.6,8.7,7.9l67.5-13c2.2-3.4,4-7.1,5.2-11.1L31.1,95.9C31.2,96,31.3,96.2,31.4,96.3z"
				/>
			<path class="st0" d="M27.6,39.8c-2.2,3.4-3.9,7.1-5.2,11l81.8-15.8c-2.6-3.1-5.6-5.9-8.9-8.3L27.6,39.8z"/>
			<path class="st0" d="M86.9,18.4c-0.8-0.7-1.7-1.4-2.6-2c-2.3-1.7-4.7-3.2-7.3-4.5c-14.2-7-30.3-6.2-43.3,0.7l59,11.7
				C91,22.2,89.1,20.2,86.9,18.4z"/>
		</g>
		<g>
			<path class="st1" d="M66.1,83.2c-1,0.9-1.9,1.8-2.9,2.7c4.4,1.1,8.8,2.1,13,2.9c-2.3-1.6-4.4-3.2-6.4-4.7
				C68.6,83.8,67.4,83.5,66.1,83.2z"/>
			<path class="st2" d="M17.9,28.4c1.3-0.6,6.2,1.1,14.1,5.5c0.8-0.9,1.6-1.7,2.4-2.5c0,0-8.6-3.6-12.7-4S17.9,28.4,17.9,28.4z"/>
			<path class="st3" d="M107.8,23.7c0,0-0.1-0.1-0.2-0.1C107.7,23.6,107.7,23.6,107.8,23.7z"/>
			<path class="st3" d="M93.6,25.7c0.4-0.3,0.8-0.5,1.2-0.7C94.1,25.4,93.6,25.7,93.6,25.7z"/>
			<path class="st4" d="M107.8,23.7C107.8,23.7,107.8,23.7,107.8,23.7C107.8,23.7,107.8,23.7,107.8,23.7z"/>
			<path class="st1" d="M101.4,23c-3,0.3-5.3,1.3-6.6,1.9c-0.4,0.2-0.8,0.5-1.2,0.7c1,0.7,2,1.4,2.9,2.1c6.7-4.1,9.8-4.6,10.9-4.3
				c0.1,0,0.1,0,0.1,0.1C107.1,23.3,105.4,22.6,101.4,23z"/>
			<path class="st4" d="M110.1,21.3c-0.9-0.9-3.5-3.5-15.3,3.7c1.3-0.7,3.5-1.6,6.6-1.9c3.9-0.4,5.6,0.2,6.2,0.5
				c0.1,0,0.1,0.1,0.2,0.1c0,0,0,0,0,0c1,1-0.2,4.8-4,11c-1.8,2.9-4.1,6.4-7.1,10.3c-5.8,7.7-14.1,17.3-25,28.2
				c-1.6,1.6-3.2,3.1-4.7,4.6c0.9,0.7,1.8,1.4,2.7,2c1.5-1.4,2.9-2.8,4.4-4.3c9.5-9.5,18-19.1,24.5-27.6c1.6-2.1,3.1-4.1,4.5-6.1
				c1.1-1.6,2.1-3.1,2.9-4.4C113.8,25,111.1,22.3,110.1,21.3z"/>
			<path class="st1" d="M112.1,99.8c-0.9-4-4.4-8.4-4.4-8.4c-0.1,0-0.2,0-0.3,0c-0.6,0.9-1.2,1.8-1.8,2.6c4.8,5.7,7,9.4,6.6,10.5
				C112.1,104.5,113,103.8,112.1,99.8z"/>
			<path class="st5" d="M107.7,91.4c0,0,3.5,4.4,4.4,8.4c0.9,4,0,4.7,0,4.7c-1.1,0.7-5.3-0.7-12.1-4.4c-3.1-1.7-6.7-3.8-10.8-6.5
				c-1.8-1.1-3.6-2.4-5.5-3.7c-2-1.4-4.1-2.8-6.3-4.4c-2.5-1.8-5.1-3.7-7.8-5.8c-0.9-0.7-1.8-1.4-2.7-2c-2.2-1.7-4.5-3.5-6.8-5.4
				c-10.2-8.2-18.5-15.7-24.9-22c0,0,0,0,0,0c-2-2-3.9-3.9-5.5-5.6c0,0,0,0,0,0c0,0,0,0,0,0c-1.1-1.2-2.2-2.3-3.1-3.4
				c0,0-0.1,0-0.1,0c0,0,0,0,0-0.1c-6.2-7-9-11.6-8.7-12.9c0,0-0.4-1.4,3.7-1s12.7,4,12.7,4c-8.9-5.1-16.6-8.1-19.1-5.1
				c-1.4,1.7-1.7,5,7,15.2c0.8,0.9,1.7,1.9,2.6,2.9c0.1,0.1,0.2,0.2,0.3,0.3c0.1,0.1,0.2,0.2,0.2,0.3c2.5,2.7,5.4,5.7,8.5,8.7
				c0,0,0,0,0,0c6.9,6.7,15.2,14,24.1,21.2c0.4,0.3,2.9,2.3,6.5,5.1c0.8,0.6,1.7,1.3,2.7,2c0.8,0.6,1.7,1.3,2.6,1.9
				c2,1.5,4.1,3.1,6.4,4.7c3.2,2.3,6.6,4.7,10,6.9c3.8,2.5,7.5,4.8,11.1,6.8c4.1,2.3,7.9,4,11,4.9c3,0.8,5.2,0.7,6.4-0.7
				C116.1,104.9,116.4,101.6,107.7,91.4z"/>
			<path class="st4" d="M123.8,77.7c-0.8-4.5-8.7-11-8.7-11c0,1.3-0.1,2.6-0.2,3.9c6.3,4.5,9.4,8.6,8.7,11.6
				C123.5,82.1,124.4,81,123.8,77.7z"/>
			<path class="st1" d="M115.1,66.6c0,0,7.9,6.5,8.7,11c0.6,3.4-0.3,4.5-0.3,4.5c-0.1,0.3-0.2,0.5-0.3,0.8c0,0.1-0.1,0.2-0.1,0.2
				c-0.1,0.2-0.2,0.3-0.3,0.5c-0.1,0.1-0.1,0.2-0.2,0.3c-0.1,0.1-0.3,0.3-0.5,0.4c-0.1,0.1-0.2,0.2-0.3,0.2
				c-0.3,0.2-0.5,0.4-0.8,0.6c-0.1,0.1-0.3,0.2-0.4,0.2c-0.2,0.1-0.4,0.2-0.6,0.3c-0.2,0.1-0.4,0.2-0.6,0.3
				c-0.2,0.1-0.4,0.1-0.5,0.2c-0.2,0.1-0.5,0.2-0.8,0.3c-0.1,0-0.3,0.1-0.5,0.1c-1.1,0.3-2.3,0.6-3.6,0.9c-0.1,0-0.1,0-0.2,0
				c-0.5,0.1-1,0.2-1.4,0.2c-0.1,0-0.1,0-0.2,0c-0.7,0.1-1.4,0.2-2.1,0.2c-0.2,0-0.3,0-0.5,0c-1.5,0.1-3,0.2-4.7,0.2
				c-0.7,0-1.4,0-2.2,0c-0.1,0-0.1,0-0.2,0c-0.7,0-1.5,0-2.2,0c-0.8,0-1.6,0-2.4-0.1c-0.9,0-1.7-0.1-2.6-0.2
				c-5.4-0.4-11.3-1.1-17.8-2.3c2.2,1.6,4.3,3,6.3,4.4c3,0.4,5.8,0.8,8.6,1c3.9,0.3,7.6,0.5,11,0.5c0.3,0,0.6,0,1,0
				c1.1,0,2.1-0.1,3.1-0.1c0-0.1,0.1-0.1,0.1-0.2c0.1,0.1,0.1,0.1,0.2,0.2c11.2-0.6,17.7-3.5,19-8.4C128,78.2,124,72.6,115.1,66.6z"
				/>
			<path class="st3" d="M6.6,53.1C6.6,53.1,6.6,53.1,6.6,53.1C6.6,53.1,6.6,53.1,6.6,53.1z"/>
			<path class="st2" d="M6.6,53.1c-0.2-0.8-0.2-1.5-0.1-2.2c0.1-0.3,0.2-0.5,0.3-0.8c0-0.1,0.1-0.2,0.1-0.2c0.1-0.2,0.3-0.4,0.4-0.5
				c0.1-0.1,0.1-0.1,0.2-0.2c0.2-0.2,0.5-0.4,0.7-0.7c0.1,0,0.1-0.1,0.2-0.1C8.8,48.1,9,48,9.3,47.8c0.1-0.1,0.3-0.2,0.4-0.2
				c0.2-0.1,0.5-0.2,0.7-0.3c0.2-0.1,0.3-0.1,0.5-0.2c0.4-0.2,0.8-0.3,1.2-0.4c0.2-0.1,0.5-0.1,0.7-0.2c0.2-0.1,0.5-0.1,0.8-0.2
				c0.3-0.1,0.6-0.1,0.9-0.2c0.2-0.1,0.5-0.1,0.7-0.1c1.2-0.2,2.5-0.4,3.9-0.6c0.2,0,0.4,0,0.6-0.1c0.5,0,0.9-0.1,1.4-0.1
				c0.2,0,0.4,0,0.5,0c1-0.1,2-0.1,3-0.1c0.1-0.1,0.1-0.2,0.2-0.3c-0.5-0.5-0.9-1-1.4-1.5c0,0-12,0.9-14.9,3.3
				C5.6,48.8,6.3,52.3,6.6,53.1z"/>
			<path class="st1" d="M60.9,81.9c-10.8-2.9-20.3-6.3-28.3-9.8c-4.8-2.1-9-4.3-12.5-6.4c-7.7-4.6-12.4-9-13.5-12.5c0,0,0,0.1,0,0.1
				s0,0,0-0.1c0,0,0-0.1,0-0.1c-0.2-0.8-1-4.2,2.1-6.7c2.9-2.4,14.9-3.3,14.9-3.3c-0.4-0.5-0.8-1-1.2-1.4c-11.2,0.6-17.7,3.5-19,8.4
				c-1.4,5.4,3.8,11.8,15.1,18.6c0.6,0.3,1.2,0.7,1.8,1c4,2.3,8.5,4.5,13.4,6.5c7.8,3.3,16.5,6.3,25.8,8.8c1-0.9,1.9-1.8,2.9-2.7
				C61.8,82.2,61.4,82,60.9,81.9z"/>
			<path class="st3" d="M22.2,109.3c0,0-0.2-0.4-0.3-1.1C21.9,108.7,22,109.1,22.2,109.3z"/>
			<path class="st4" d="M64.6,80.1c-0.8,0.7-1.5,1.4-2.3,2.1c-1,0.9-2,1.8-2.9,2.7c-4.2,3.8-8.1,7.1-11.7,10c-3.7,2.9-7,5.4-10,7.4
				c-8.8,6-14.3,8.1-15.5,6.9c-0.2-0.2-0.3-0.6-0.3-1.1c-0.2-1-0.4-2.8-0.1-5.3c0.5-4.3,5.5-12.3,5.5-12.3c-0.1,0.1-0.2,0.3-0.3,0.4
				c-11.4,16.3-8.2,19.5-7.1,20.6c0.3,0.3,0.8,0.8,1.8,1.1c2.3,0.6,7.3-0.1,18.8-8.2c0,0,0,0,0,0c3.2-2.2,6.6-4.8,10.2-7.7
				c4-3.3,8.2-6.9,12.5-10.9c1-0.9,1.9-1.8,2.9-2.7c0.4-0.3,0.7-0.7,1.1-1.1C66.3,81.5,65.4,80.8,64.6,80.1z"/>
			<path class="st5" d="M21.9,108.2c0.1-2.3,2.4-7.3,7.4-14.6c-0.7-1-1.4-1.9-2-2.9c0,0-5,8-5.5,12.3
				C21.5,105.4,21.7,107.2,21.9,108.2z"/>
		</g>
	</g>
	<path class="st4" d="M40,35.9c-0.7-3.7,1.8-7.3,5.5-8s7.3,1.8,8,5.5"/>
	<path class="st5" d="M64.3,31.2c-0.4-2.2,1-4.4,3.3-4.8c2.2-0.4,4.4,1,4.8,3.3"/>
	<circle class="st2" cx="57.8" cy="24" r="4.1"/>
	<circle class="st1" cx="45.1" cy="21.3" r="2.7"/>
</g>
</svg>
