<?xml version="1.0" encoding="utf-8"?>
<!-- Generator: Adobe Illustrator 26.0.2, SVG Export Plug-In . SVG Version: 6.00 Build 0)  -->
<svg version="1.1" id="レイヤー_1" xmlns="http://www.w3.org/2000/svg" xmlns:xlink="http://www.w3.org/1999/xlink" x="0px"
	 y="0px" viewBox="0 0 120 120" style="enable-background:new 0 0 120 120;" xml:space="preserve">
<style type="text/css">
	.st0{fill:#C88BC4;}
	.st1{fill:#D1AAD7;}
	.st2{fill:#7B8FDD;}
	.st3{fill:#86BFF2;}
	.st4{fill:#BBDEF2;}
</style>
<g>
	<g>
		<polygon class="st0" points="63.9,26.8 70.6,8.1 70.6,8.1 53.6,13.7 53.6,14.8 62.7,27.3 		"/>
		<polygon class="st0" points="63.9,26.8 62.7,27.3 63.4,28.2 63.5,27.9 		"/>
		<polygon class="st0" points="52.9,13.9 53.6,14.8 53.6,13.7 		"/>
		<polygon class="st1" points="62.7,27.3 53.6,14.8 52.3,58.8 63.4,28.2 		"/>
		<path class="st0" d="M7,60h17.2L8.7,46.6C7.6,50.9,7,55.4,7,60z"/>
		<path class="st2" d="M53.8,7.4c-1.7,0.2-3.4,0.5-5,0.8l4.2,5.7l0.6-0.2L53.8,7.4z"/>
		<path class="st1" d="M8.7,46.6L24.2,60l-3.8-35.3C15,30.9,10.9,38.4,8.7,46.6z"/>
		<path class="st3" d="M70.6,8.1C67.2,7.4,63.6,7,60,7c-2.1,0-4.2,0.1-6.2,0.4l-0.2,6.3L70.6,8.1z"/>
		<polygon class="st0" points="73.8,60 86.6,60 82.6,54.5 		"/>
		<polygon class="st3" points="82.6,54.5 86.6,60 92.4,60 91.4,49.1 		"/>
		<polygon class="st4" points="63.4,28.2 52.3,58.8 52.2,60 73.8,60 82.6,54.5 		"/>
		<path class="st1" d="M92.4,60H113c0-7.7-1.6-14.9-4.6-21.5L91.4,49.1L92.4,60z"/>
		<path class="st0" d="M89.7,16.1l-0.2-0.2c-0.3-0.2-0.5-0.3-0.8-0.5l-0.4,0.2l3.2,33.5l17.1-10.6C104.4,29.4,97.8,21.6,89.7,16.1z"
			/>
		<path class="st1" d="M70.6,8.1l-6.8,18.7l24.3-11.2l0-0.5C82.9,11.8,77,9.4,70.6,8.1z"/>
		<polygon class="st3" points="53.6,14.8 52.9,13.9 20.5,24.7 51.8,60 52.3,58.8 		"/>
		<path class="st0" d="M52.9,13.9l-4.2-5.7c-11.1,2.4-21,8.3-28.3,16.5l0,0L52.9,13.9z"/>
		<polygon class="st2" points="63.5,27.9 63.4,28.2 82.6,54.5 91.4,49.1 88.2,15.6 63.9,26.8 		"/>
		<polygon class="st4" points="20.5,24.7 20.5,24.7 24.2,60 51.8,60 20.5,24.7 		"/>
	</g>
	<g>
		<path class="st1" d="M60,95.6H42.6c0,0,5.4,1.6,12.6,3.9L60,95.6z"/>
		<path class="st2" d="M74.2,105.6c2-2.8,3.2-6.3,3.2-10H60l2.4,6.2C66.3,103,70.4,104.3,74.2,105.6z"/>
		<path class="st0" d="M42.6,95.6c0,4.2,1.5,8,3.9,11l8.7-7.1C47.9,97.2,42.6,95.6,42.6,95.6z"/>
		<path class="st1" d="M74.2,105.6c-3.9-1.3-7.9-2.6-11.8-3.8l3.9,10C69.5,110.6,72.3,108.4,74.2,105.6z"/>
		<path class="st3" d="M62.4,101.8L60,95.6l-4.8,3.9C57.4,100.2,59.9,101,62.4,101.8z"/>
		<path class="st4" d="M55.2,99.5l-8.7,7.1c3.2,3.9,8,6.4,13.5,6.4c2.2,0,4.3-0.4,6.3-1.2l-3.9-10C59.9,101,57.4,100.2,55.2,99.5z"
			/>
	</g>
	<g>
		<rect x="76" y="64.3" class="st0" width="34" height="2.8"/>
		<rect x="56.8" y="64.3" class="st2" width="13.8" height="2.8"/>
		<rect x="10" y="64" class="st4" width="23.2" height="2.8"/>
		<rect x="38.2" y="64.3" class="st3" width="13.8" height="2.8"/>
	</g>
	<g>
		<rect x="38.4" y="88.1" class="st1" width="15.8" height="2.8"/>
		<rect x="75.7" y="88.1" class="st4" width="5.8" height="2.8"/>
		<rect x="56.7" y="88.1" class="st3" width="15.8" height="2.8"/>
	</g>
	<g>
		<rect x="34" y="72.1" class="st4" width="34.8" height="2.8"/>
		<rect x="17.7" y="72.1" class="st1" width="12.6" height="2.8"/>
		<rect x="89.7" y="72.1" class="st0" width="12.6" height="2.8"/>
		<rect x="73.8" y="72.1" class="st3" width="12.6" height="2.8"/>
	</g>
	<g>
		<rect x="27.6" y="80.1" class="st3" width="27.5" height="2.8"/>
		<rect x="58.5" y="80.1" class="st2" width="15.6" height="2.8"/>
		<rect x="76.8" y="80.1" class="st0" width="15.6" height="2.8"/>
	</g>
</g>
</svg>
