<?xml version="1.0" encoding="utf-8"?>
<!-- Generator: Adobe Illustrator 26.0.2, SVG Export Plug-In . SVG Version: 6.00 Build 0)  -->
<svg version="1.1" xmlns="http://www.w3.org/2000/svg" xmlns:xlink="http://www.w3.org/1999/xlink" x="0px" y="0px"
	 viewBox="0 0 2475 1650" style="enable-background:new 0 0 2475 1650;" xml:space="preserve">
<style type="text/css">
	.st0{opacity:0.3;fill:#BBDEF2;}
	.st1{fill:#7B8FDD;}
	.st2{fill:#FFFFFF;}
	.st3{opacity:0.2;fill:#BBDEF2;}
	.st4{fill:#86BFF2;}
	.st5{fill:#BBDEF2;}
	.st6{fill:#F0F0F0;}
	.st7{fill:#D1AAD7;}
	.st8{fill:#C88BC4;}
	.st9{fill:url(#SVGID_1_);}
	.st10{fill:url(#SVGID_00000012464283188299373090000010454829178944919480_);}
	.st11{fill:url(#SVGID_00000036972082886185200520000018325344704024790148_);}
	.st12{fill:url(#SVGID_00000055670838473485321340000017876050958972439693_);}
	.st13{fill:url(#SVGID_00000176023835626157216730000010620900100921000098_);}
	.st14{fill:url(#SVGID_00000064331251729213813980000010026212204751234469_);}
	.st15{fill:url(#SVGID_00000150804549722800233460000004570538220188750772_);}
	.st16{fill:url(#SVGID_00000088118307159276942410000002618229303831491200_);}
	.st17{fill:url(#SVGID_00000181078699726514715350000017572406110733581698_);}
	.st18{fill:url(#SVGID_00000145050499915732969910000017669884034502801310_);}
	.st19{opacity:0.71;fill:#FFFFFF;}
	.st20{opacity:0.71;}
	.st21{fill:url(#SVGID_00000060725533419533744040000007462586103463303592_);}
	.st22{fill:url(#SVGID_00000158748099356486264540000004044149162113116047_);}
	.st23{fill:url(#SVGID_00000116947076833338557980000002277947932933237127_);}
	.st24{fill:url(#SVGID_00000062172557376439885250000013930740082932300988_);}
	.st25{fill:url(#SVGID_00000122001465455156426440000015191942197647756982_);}
</style>
<g id="Background">
</g>
<g id="Illustration">
	<g>
		<path class="st0" d="M2272.9,400.8c-55.3-102.7-176.8-179.9-295-156.2c-70.8,14.2-141.1,61.8-209,37.9
			c-48.9-17.2-76.5-66.1-117.6-96.7c-63.3-47.2-153.1-46.6-230.2-25.5c-77.1,21.1-147.7,60-223.9,84
			c-129.9,40.9-274.8,36.5-401.6-12.3c-55.7-21.4-107.8-51-164.5-69.9c-56.7-18.9-121-26.2-175.7-2.6c-54.7,23.6-94,85.3-75,139.8
			c3.8,10.9,9.7,21.6,8.9,33c-1.2,18.3-19.7,31.7-38.5,35.8c-18.7,4.1-38.2,1.4-57.4,1.9c-86.1,2.1-163,77.2-163.4,159.6
			c-0.3,68.3,43.7,128.3,81.4,186.4c37.7,58,71.5,127.7,49.1,192.5c-13.3,38.5-44.5,68.5-64.9,104c-53,92-24.7,213.7,49.3,291.3
			c74,77.6,184.8,115.5,294.2,124.6c109.4,9,219.1-7.9,327.5-24.7c108.4-16.8,218.2-33.4,327.5-23.8l-5.9-3.1
			c213.6,50.5,437,62.6,655.2,35.5c45.7-5.7,98.1-17.8,117.4-57.8c16.3-33.8,1.7-73.4,5-110.4c4.8-53.4,46.7-97.2,92.4-128.2
			c45.7-31,97.5-54.2,138.7-90.5c80.5-71.2,107.8-181.3,119.8-285.6C2329.9,624.9,2328.2,503.5,2272.9,400.8z"/>
		<g>
			<path class="st1" d="M2094.4,1375.1c0,16.8-13.8,30.5-30.6,30.5H410.5c-16.8,0-30.6-13.7-30.6-30.5L366.2,425
				c0-16.8,19.8-49.6,56.1-47.1L2038,336c21.1-0.5,41.5,7.6,56.4,22.5c14.9,14.9,23.1,35.3,22.6,56.3L2094.4,1375.1z"/>
			<path class="st2" d="M2064.2,1345.8c0,15.9-13,28.9-28.9,28.9H450.4c-15.9,0-28.9-13-28.9-28.9l-13-862.5
				c1.5-51.9,47-70.6,74.6-69.5l1548.6-41.5c14.8-0.4,29.2,5.3,39.7,15.8c10.5,10.5,16.3,24.8,15.9,39.6L2064.2,1345.8z"/>
			<g>
				<path class="st2" d="M438.6,933.7c-1.1,0-1.9-0.9-2-1.9l-1-69.9c0-1.1,0.8-2,1.9-2c1,0.1,2,0.8,2,1.9l1,69.9
					C440.5,932.8,439.7,933.7,438.6,933.7C438.6,933.7,438.6,933.7,438.6,933.7z"/>
				<path class="st2" d="M436,762.3c-1.1,0-1.9-0.9-2-1.9l-3.9-267.9c0.1-17.8,5.6-32,16.3-42.2c19.5-18.7,50.1-17.8,51.4-17.7
					l494.6-13.3c1.1,0,2,0.8,2,1.9c0,1.1-0.8,2-1.9,2l-494.7,13.3c-1.4,0-30.3-0.9-48.7,16.6c-9.9,9.5-15,22.8-15.1,39.4l3.9,267.9
					C438,761.4,437.2,762.3,436,762.3C436.1,762.3,436.1,762.3,436,762.3z"/>
			</g>
			<path class="st3" d="M491.3,1297.9c1.7-71.3,1-702.6-3-757.1c-4.1-54.5,80.8-64.7,211.2-70.9c130.4-6.1,1230.3-30.4,1258.6-32.7
				c63.7-5.2,76.8,90,70.5,296.6c-4.8,155.2-12.7,410.8-16.4,528.4c-1.1,35-29.7,62.8-64.7,62.9c-264.7,0.7-1279.2,3.6-1346.7,5.6
				C523,1333,490.6,1326.2,491.3,1297.9z"/>
		</g>
		<path class="st1" d="M2221,1484.5H286.8c-4.1,0-7.5-3.4-7.5-7.5v-68.5c0-4.1,3.4-7.5,7.5-7.5H2221c4.1,0,7.5,3.4,7.5,7.5v68.5
			C2228.5,1481.1,2225.1,1484.5,2221,1484.5z"/>
		<g>
			<path class="st4" d="M1987.8,1463.3c52.4,10.5,119.3-46.7,140.9-109.1c22.2-64.2-18.5-91.2-18.2-180.3
				c0.4-101.3,53-116.5,87.9-253c7.9-30.8,53.4-209-3-242.4c-52.1-30.9-198.6,57.8-224.2,171.2c-18.3,80.9,38.3,114.9,16.7,209.1
				c-19,82.7-68.8,83.9-87.9,163.6C1876.7,1319.5,1919,1449.6,1987.8,1463.3z"/>
			<path class="st1" d="M1991.6,1487.9c-14.1-109.1,13.4-277.4,39-399.4c27.7-132.1,59.2-239.8,59.5-240.9l4.4,1.3
				c-0.3,1.1-31.7,108.7-59.4,240.6c-25.5,121.6-53,289.4-39,397.9L1991.6,1487.9z"/>
		</g>
		<g>
			<path class="st5" d="M2048.2,1451.2c-68.8-35.8-92.3-158.8-53.2-198.8c26.4-27,64.3,1.4,100.8-26.6
				c46.6-35.8,12.3-103.1,49-190.4c31.2-74.3,106.1-144.6,149.8-130.2c45.8,15.1,69.9,127.2,30.8,194.6
				c-25.4,43.9-64.4,46-72.8,86.8c-9.8,47.3,37.5,68.9,37.8,114.8C2290.9,1383.8,2139.1,1498.5,2048.2,1451.2z"/>
			<path class="st1" d="M2085.3,1482.7c-0.4,0-0.8-0.1-1.2-0.3c-1.4-0.7-2-2.4-1.3-3.7c91.1-187.8,117.9-405.7,118.1-407.9
				c0.2-1.5,1.6-2.6,3.1-2.4c1.5,0.2,2.6,1.6,2.4,3.1c-0.3,2.2-27.1,221-118.7,409.7C2087.3,1482.1,2086.3,1482.7,2085.3,1482.7z"/>
			<path class="st6" d="M2272.3,1127.2c-0.3,0-0.6-0.1-0.8-0.3c-0.6-0.5-0.7-1.3-0.2-1.9c28.8-36.9,60.7-92.4,49.2-147
				c-6.8-32.5-26.1-49.5-26.3-49.6c-0.6-0.5-0.6-1.3-0.1-1.9c0.5-0.6,1.3-0.6,1.9-0.1c0.8,0.7,20.1,17.7,27.1,51.1
				c6.5,30.7,3.1,81.5-49.7,149.2C2273.1,1127,2272.7,1127.2,2272.3,1127.2z"/>
			<path class="st6" d="M2042,1434.7c-0.4,0-0.8-0.2-1.1-0.6c-44.2-64.5-59.3-114.4-44.8-148.2c12.9-30.1,45.4-35.6,45.7-35.7
				c0.7-0.1,1.4,0.4,1.5,1.1c0.1,0.7-0.4,1.4-1.1,1.5c-0.3,0.1-31.4,5.4-43.7,34.1c-14.1,32.9,0.9,81.9,44.6,145.6
				c0.4,0.6,0.3,1.4-0.3,1.9C2042.5,1434.7,2042.2,1434.7,2042,1434.7z"/>
		</g>
		<g>
			<g>
				<path class="st1" d="M517.6,539.6c-1.2,0-2.1,1-2.1,2.1v402.7c0,1.2,1,2.1,2.1,2.1c1.2,0,2.1-1,2.1-2.1V541.8
					C519.7,540.6,518.8,539.6,517.6,539.6z"/>
				<path class="st1" d="M528.5,613.1h-21.8c-4,0-7.2,3.2-7.2,7.2v260.3c0,4,3.2,7.2,7.2,7.2h21.8c4,0,7.2-3.2,7.2-7.2V620.3
					C535.7,616.3,532.4,613.1,528.5,613.1z"/>
				<path class="st1" d="M583.1,825.7c-1.2,0-2.1,1-2.1,2.1v279.5c0,1.2,1,2.1,2.1,2.1c1.2,0,2.1-1,2.1-2.1V827.9
					C585.2,826.7,584.2,825.7,583.1,825.7z"/>
				<path class="st1" d="M594,877.4h-21.8c-4,0-7.2,3.2-7.2,7.2v176.3c0,4,3.2,7.2,7.2,7.2H594c4,0,7.2-3.2,7.2-7.2V884.6
					C601.1,880.6,597.9,877.4,594,877.4z"/>
				<path class="st1" d="M648.5,950.5c-1.2,0-2.1,1-2.1,2.1v283.8c0,1.2,1,2.1,2.1,2.1c1.2,0,2.1-1,2.1-2.1V952.6
					C650.7,951.4,649.7,950.5,648.5,950.5z"/>
				<path class="st1" d="M659.5,1111.5h-21.8c-4,0-7.2,3.2-7.2,7.2v70.6c0,4,3.2,7.2,7.2,7.2h21.8c4,0,7.2-3.2,7.2-7.2v-70.6
					C666.6,1114.8,663.4,1111.5,659.5,1111.5z"/>
				<path class="st1" d="M714,907.8c-1.2,0-2.1,1-2.1,2.1v210.1c0,1.2,1,2.1,2.1,2.1s2.1-1,2.1-2.1V910
					C716.2,908.8,715.2,907.8,714,907.8z"/>
				<path class="st1" d="M724.9,947.2h-21.8c-4,0-7.2,3.2-7.2,7.2v129c0,4,3.2,7.2,7.2,7.2h21.8c4,0,7.2-3.2,7.2-7.2v-129
					C732.1,950.4,728.9,947.2,724.9,947.2z"/>
				<path class="st1" d="M779.5,768.1c-1.2,0-2.1,1-2.1,2.1v219.9c0,1.2,1,2.1,2.1,2.1c1.2,0,2.1-1,2.1-2.1V770.2
					C781.6,769,780.7,768.1,779.5,768.1z"/>
				<path class="st1" d="M790.4,809.2h-21.8c-4,0-7.2,3.2-7.2,7.2V952c0,4,3.2,7.2,7.2,7.2h21.8c4,0,7.2-3.2,7.2-7.2V816.4
					C797.6,812.4,794.4,809.2,790.4,809.2z"/>
				<path class="st1" d="M1303.3,811.5c-1.2,0-2.1,1-2.1,2.1v252.8c0,1.2,1,2.1,2.1,2.1s2.1-1,2.1-2.1V813.7
					C1305.4,812.5,1304.5,811.5,1303.3,811.5z"/>
				<path class="st1" d="M1314.2,858.5h-21.8c-4,0-7.2,3.2-7.2,7.2v158.1c0,4,3.2,7.2,7.2,7.2h21.8c4,0,7.2-3.2,7.2-7.2V865.6
					C1321.4,861.7,1318.2,858.5,1314.2,858.5z"/>
				<path class="st1" d="M1368.8,655.8c-1.2,0-2.1,1-2.1,2.1v279.5c0,1.2,1,2.1,2.1,2.1s2.1-1,2.1-2.1V658
					C1370.9,656.8,1370,655.8,1368.8,655.8z"/>
				<path class="st1" d="M1379.7,707.5h-21.8c-4,0-7.2,3.2-7.2,7.2V891c0,4,3.2,7.2,7.2,7.2h21.8c4,0,7.2-3.2,7.2-7.2V714.7
					C1386.9,710.7,1383.7,707.5,1379.7,707.5z"/>
				<path class="st1" d="M1434.3,594.3c-1.2,0-2.1,1-2.1,2.1v122.2c0,1.2,1,2.1,2.1,2.1c1.2,0,2.1-1,2.1-2.1V596.5
					C1436.4,595.3,1435.5,594.3,1434.3,594.3z"/>
				<path class="st1" d="M1445.2,664.9h-21.8c-4,0-7.2,3.2-7.2,7.2v22.2c0,4,3.2,7.2,7.2,7.2h21.8c4,0,7.2-3.2,7.2-7.2V672
					C1452.3,668.1,1449.1,664.9,1445.2,664.9z"/>
				<path class="st1" d="M1499.8,478.3c-1.2,0-2.1,1-2.1,2.1v210.1c0,1.2,1,2.1,2.1,2.1c1.2,0,2.1-1,2.1-2.1V480.4
					C1501.9,479.2,1500.9,478.3,1499.8,478.3z"/>
				<path class="st1" d="M1510.7,517.6h-21.8c-4,0-7.2,3.2-7.2,7.2v129c0,4,3.2,7.2,7.2,7.2h21.8c4,0,7.2-3.2,7.2-7.2v-129
					C1517.8,520.9,1514.6,517.6,1510.7,517.6z"/>
				<path class="st1" d="M1565.2,618.5c-1.2,0-2.1,1-2.1,2.1v219.9c0,1.2,1,2.1,2.1,2.1s2.1-1,2.1-2.1V620.7
					C1567.4,619.5,1566.4,618.5,1565.2,618.5z"/>
				<path class="st1" d="M1576.1,659.7h-21.8c-4,0-7.2,3.2-7.2,7.2v135.6c0,4,3.2,7.2,7.2,7.2h21.8c4,0,7.2-3.2,7.2-7.2V666.8
					C1583.3,662.9,1580.1,659.7,1576.1,659.7z"/>
				<path class="st1" d="M845,766.1c-1.2,0-2.1,1-2.1,2.1v82.1c0,1.2,1,2.1,2.1,2.1s2.1-1,2.1-2.1v-82.1
					C847.1,767.1,846.2,766.1,845,766.1z"/>
				<path class="st1" d="M856.5,782.8h-23c-3.6,0-6.6,2.9-6.6,6.6v15.3c0,3.6,2.9,6.6,6.6,6.6h23c3.6,0,6.6-2.9,6.6-6.6v-15.3
					C863.1,785.8,860.1,782.8,856.5,782.8z"/>
				<path class="st1" d="M910.5,668.4c-1.2,0-2.1,1-2.1,2.1v144.6c0,1.2,1,2.1,2.1,2.1s2.1-1,2.1-2.1V670.5
					C912.6,669.4,911.6,668.4,910.5,668.4z"/>
				<path class="st1" d="M919.7,696.2h-18.5c-4,0-7.2,3.2-7.2,7.2v75.4c0,4,3.2,7.2,7.2,7.2h18.5c4,0,7.2-3.2,7.2-7.2v-75.4
					C926.9,699.4,923.7,696.2,919.7,696.2z"/>
				<path class="st1" d="M975.9,716.3c-1.2,0-2.1,1-2.1,2.1v353.8c0,1.2,1,2.1,2.1,2.1c1.2,0,2.1-1,2.1-2.1V718.4
					C978.1,717.2,977.1,716.3,975.9,716.3z"/>
				<path class="st1" d="M986.9,781.1H965c-4,0-7.2,3.2-7.2,7.2v177.1c0,4,3.2,7.2,7.2,7.2h21.8c4,0,7.2-3.2,7.2-7.2V788.3
					C994,784.3,990.8,781.1,986.9,781.1z"/>
				<path class="st1" d="M1041.4,902c-1.2,0-2.1,1-2.1,2.1v216c0,1.2,1,2.1,2.1,2.1s2.1-1,2.1-2.1v-216
					C1043.6,902.9,1042.6,902,1041.4,902z"/>
				<path class="st1" d="M1052.3,969.8h-21.8c-4,0-7.2,3.2-7.2,7.2v105.7c0,4,3.2,7.2,7.2,7.2h21.8c4,0,7.2-3.2,7.2-7.2V976.9
					C1059.5,973,1056.3,969.8,1052.3,969.8z"/>
				<path class="st1" d="M1106.9,809.1c-1.2,0-2.1,1-2.1,2.1v402.7c0,1.2,1,2.1,2.1,2.1s2.1-1,2.1-2.1V811.3
					C1109.1,810.1,1108.1,809.1,1106.9,809.1z"/>
				<path class="st1" d="M1117.8,882.6H1096c-4,0-7.2,3.2-7.2,7.2v260.3c0,4,3.2,7.2,7.2,7.2h21.8c4,0,7.2-3.2,7.2-7.2V889.8
					C1125,885.8,1121.8,882.6,1117.8,882.6z"/>
				<path class="st1" d="M1172.4,1092.6c-1.2,0-2.1,1-2.1,2.1v174.9c0,1.2,1,2.1,2.1,2.1s2.1-1,2.1-2.1v-174.9
					C1174.5,1093.5,1173.6,1092.6,1172.4,1092.6z"/>
				<path class="st1" d="M1183.1,1162.2h-21.8c-4,0-7.2,3.2-7.2,7.2v75.6c0,4,3.2,7.2,7.2,7.2h21.8c4,0,7.2-3.2,7.2-7.2v-75.6
					C1190.2,1165.4,1187,1162.2,1183.1,1162.2z"/>
				<path class="st1" d="M1633.2,768.1c-1.2,0-2.1,1-2.1,2.1v219.9c0,1.2,1,2.1,2.1,2.1c1.2,0,2.1-1,2.1-2.1V770.2
					C1635.3,769,1634.4,768.1,1633.2,768.1z"/>
				<path class="st1" d="M1644.1,809.2h-21.8c-4,0-7.2,3.2-7.2,7.2V952c0,4,3.2,7.2,7.2,7.2h21.8c4,0,7.2-3.2,7.2-7.2V816.4
					C1651.3,812.4,1648.1,809.2,1644.1,809.2z"/>
				<path class="st1" d="M1698.7,766.1c-1.2,0-2.1,1-2.1,2.1v82.1c0,1.2,1,2.1,2.1,2.1s2.1-1,2.1-2.1v-82.1
					C1700.8,767.1,1699.9,766.1,1698.7,766.1z"/>
				<path class="st1" d="M1710.2,782.8h-23c-3.6,0-6.6,2.9-6.6,6.6v15.3c0,3.6,2.9,6.6,6.6,6.6h23c3.6,0,6.6-2.9,6.6-6.6v-15.3
					C1716.8,785.8,1713.8,782.8,1710.2,782.8z"/>
				<path class="st1" d="M1764.2,668.4c-1.2,0-2.1,1-2.1,2.1v144.6c0,1.2,1,2.1,2.1,2.1s2.1-1,2.1-2.1V670.5
					C1766.3,669.4,1765.3,668.4,1764.2,668.4z"/>
				<path class="st1" d="M1773.4,696.2h-18.5c-4,0-7.2,3.2-7.2,7.2v75.4c0,4,3.2,7.2,7.2,7.2h18.5c4,0,7.2-3.2,7.2-7.2v-75.4
					C1780.6,699.4,1777.4,696.2,1773.4,696.2z"/>
				<path class="st1" d="M1829.6,716.3c-1.2,0-2.1,1-2.1,2.1v353.8c0,1.2,1,2.1,2.1,2.1s2.1-1,2.1-2.1V718.4
					C1831.8,717.2,1830.8,716.3,1829.6,716.3z"/>
				<path class="st1" d="M1840.6,781.1h-21.8c-4,0-7.2,3.2-7.2,7.2v177.1c0,4,3.2,7.2,7.2,7.2h21.8c4,0,7.2-3.2,7.2-7.2V788.3
					C1847.7,784.3,1844.5,781.1,1840.6,781.1z"/>
				<path class="st1" d="M1895.1,902c-1.2,0-2.1,1-2.1,2.1v216c0,1.2,1,2.1,2.1,2.1c1.2,0,2.1-1,2.1-2.1v-216
					C1897.3,902.9,1896.3,902,1895.1,902z"/>
				<path class="st1" d="M1906,969.8h-21.8c-4,0-7.2,3.2-7.2,7.2v105.7c0,4,3.2,7.2,7.2,7.2h21.8c4,0,7.2-3.2,7.2-7.2V976.9
					C1913.2,973,1910,969.8,1906,969.8z"/>
				<path class="st1" d="M1960.6,809.1c-1.2,0-2.1,1-2.1,2.1v402.7c0,1.2,1,2.1,2.1,2.1c1.2,0,2.1-1,2.1-2.1V811.3
					C1962.8,810.1,1961.8,809.1,1960.6,809.1z"/>
				<path class="st1" d="M1971.5,882.6h-21.8c-4,0-7.2,3.2-7.2,7.2v260.3c0,4,3.2,7.2,7.2,7.2h21.8c4,0,7.2-3.2,7.2-7.2V889.8
					C1978.7,885.8,1975.5,882.6,1971.5,882.6z"/>
				<path class="st1" d="M2026.1,1092.6c-1.2,0-2.1,1-2.1,2.1v174.9c0,1.2,1,2.1,2.1,2.1c1.2,0,2.1-1,2.1-2.1v-174.9
					C2028.2,1093.5,2027.3,1092.6,2026.1,1092.6z"/>
				<path class="st1" d="M2036.8,1162.2h-21.8c-4,0-7.2,3.2-7.2,7.2v75.6c0,4,3.2,7.2,7.2,7.2h21.8c4,0,7.2-3.2,7.2-7.2v-75.6
					C2043.9,1165.4,2040.7,1162.2,2036.8,1162.2z"/>
				<path class="st1" d="M1237.9,973.1c-1.2,0-2.1,1-2.1,2.1v263.9c0,1.2,1,2.1,2.1,2.1c1.2,0,2.1-1,2.1-2.1V975.3
					C1240,974.1,1239.1,973.1,1237.9,973.1z"/>
				<path class="st1" d="M1248.8,1022H1227c-4,0-7.2,3.2-7.2,7.2v165.6c0,4,3.2,7.2,7.2,7.2h21.8c4,0,7.2-3.2,7.2-7.2v-165.6
					C1256,1025.2,1252.7,1022,1248.8,1022z"/>
			</g>
		</g>
		<g>
			<path class="st7" d="M253.7,1348c-1.5,0-2.7-1.2-2.7-2.7v-514c0-1.5,1.2-2.7,2.7-2.7c1.5,0,2.7,1.2,2.7,2.7v514
				C256.5,1346.8,255.2,1348,253.7,1348z"/>
			<path class="st7" d="M269.7,1254.2h-31.8c-4,0-7.2-3.2-7.2-7.2V910.8c0-4,3.2-7.2,7.2-7.2h31.8c4,0,7.2,3.2,7.2,7.2V1247
				C276.8,1251,273.6,1254.2,269.7,1254.2z"/>
			<path class="st7" d="M337.3,982.8c-1.5,0-2.7-1.2-2.7-2.7V623.2c0-1.5,1.2-2.7,2.7-2.7c1.5,0,2.7,1.2,2.7,2.7V980
				C340.1,981.5,338.8,982.8,337.3,982.8z"/>
			<path class="st7" d="M353.3,916.8h-31.8c-4,0-7.2-3.2-7.2-7.2v-229c0-4,3.2-7.2,7.2-7.2h31.8c4,0,7.2,3.2,7.2,7.2v229
				C360.4,913.6,357.2,916.8,353.3,916.8z"/>
			<path class="st7" d="M420.9,823.5c-1.5,0-2.7-1.2-2.7-2.7V458.5c0-1.5,1.2-2.7,2.7-2.7c1.5,0,2.7,1.2,2.7,2.7v362.3
				C423.7,822.3,422.4,823.5,420.9,823.5z"/>
			<path class="st7" d="M436.8,617.9H405c-4,0-7.2-3.2-7.2-7.2v-94.1c0-4,3.2-7.2,7.2-7.2h31.8c4,0,7.2,3.2,7.2,7.2v94.1
				C444,614.7,440.8,617.9,436.8,617.9z"/>
			<path class="st7" d="M504.5,878c-1.5,0-2.7-1.2-2.7-2.7V607c0-1.5,1.2-2.7,2.7-2.7c1.5,0,2.7,1.2,2.7,2.7v268.3
				C507.3,876.7,506,878,504.5,878z"/>
			<path class="st7" d="M520.4,827.7h-31.8c-4,0-7.2-3.2-7.2-7.2V651.9c0-4,3.2-7.2,7.2-7.2h31.8c4,0,7.2,3.2,7.2,7.2v168.6
				C527.6,824.5,524.4,827.7,520.4,827.7z"/>
			<path class="st7" d="M588.1,1056.4c-1.5,0-2.7-1.2-2.7-2.7V772.9c0-1.5,1.2-2.7,2.7-2.7c1.5,0,2.7,1.2,2.7,2.7v280.7
				C590.9,1055.1,589.6,1056.4,588.1,1056.4z"/>
			<path class="st7" d="M604,1003.9h-31.8c-4,0-7.2-3.2-7.2-7.2V819.6c0-4,3.2-7.2,7.2-7.2H604c4,0,7.2,3.2,7.2,7.2v177.1
				C611.2,1000.7,608,1003.9,604,1003.9z"/>
			<path class="st7" d="M1256.8,1000.9c-1.5,0-2.7-1.2-2.7-2.7V675.4c0-1.5,1.2-2.7,2.7-2.7c1.5,0,2.7,1.2,2.7,2.7v322.8
				C1259.5,999.7,1258.3,1000.9,1256.8,1000.9z"/>
			<path class="st7" d="M1272.7,941h-31.8c-4,0-7.2-3.2-7.2-7.2V728c0-4,3.2-7.2,7.2-7.2h31.8c4,0,7.2,3.2,7.2,7.2v205.8
				C1279.9,937.8,1276.7,941,1272.7,941z"/>
			<path class="st7" d="M1340.4,1199.7c-1.5,0-2.7-1.2-2.7-2.7V840.1c0-1.5,1.2-2.7,2.7-2.7c1.5,0,2.7,1.2,2.7,2.7V1197
				C1343.1,1198.5,1341.9,1199.7,1340.4,1199.7z"/>
			<path class="st7" d="M1356.3,1133.7h-31.8c-4,0-7.2-3.2-7.2-7.2v-229c0-4,3.2-7.2,7.2-7.2h31.8c4,0,7.2,3.2,7.2,7.2v229
				C1363.5,1130.5,1360.3,1133.7,1356.3,1133.7z"/>
			<path class="st7" d="M1424,1278.2c-1.5,0-2.7-1.2-2.7-2.7v-156c0-1.5,1.2-2.7,2.7-2.7c1.5,0,2.7,1.2,2.7,2.7v156
				C1426.7,1277,1425.5,1278.2,1424,1278.2z"/>
			<path class="st7" d="M1439.9,1188.1h-31.8c-4,0-7.2-3.2-7.2-7.2v-32.3c0-4,3.2-7.2,7.2-7.2h31.8c4,0,7.2,3.2,7.2,7.2v32.3
				C1447.1,1184.9,1443.9,1188.1,1439.9,1188.1z"/>
			<path class="st7" d="M1507.6,1426.3c-1.5,0-2.7-1.2-2.7-2.7v-268.3c0-1.5,1.2-2.7,2.7-2.7c1.5,0,2.7,1.2,2.7,2.7v268.3
				C1510.3,1425.1,1509.1,1426.3,1507.6,1426.3z"/>
			<path class="st7" d="M1523.5,1376.1h-31.8c-4,0-7.2-3.2-7.2-7.2v-168.6c0-4,3.2-7.2,7.2-7.2h31.8c4,0,7.2,3.2,7.2,7.2v168.6
				C1530.7,1372.9,1527.5,1376.1,1523.5,1376.1z"/>
			<path class="st7" d="M1591.2,1247.3c-1.5,0-2.7-1.2-2.7-2.7V963.8c0-1.5,1.2-2.7,2.7-2.7c1.5,0,2.7,1.2,2.7,2.7v280.7
				C1593.9,1246,1592.7,1247.3,1591.2,1247.3z"/>
			<path class="st7" d="M1607.1,1194.8h-31.8c-4,0-7.2-3.2-7.2-7.2v-177.1c0-4,3.2-7.2,7.2-7.2h31.8c4,0,7.2,3.2,7.2,7.2v177.1
				C1614.3,1191.6,1611.1,1194.8,1607.1,1194.8z"/>
			<path class="st7" d="M671.7,1058.9c-1.5,0-2.7-1.2-2.7-2.7V951.3c0-1.5,1.2-2.7,2.7-2.7c1.5,0,2.7,1.2,2.7,2.7v104.8
				C674.4,1057.6,673.2,1058.9,671.7,1058.9z"/>
			<path class="st7" d="M687.6,1037.6h-31.8c-4,0-7.2-3.2-7.2-7.2v-22c0-4,3.2-7.2,7.2-7.2h31.8c4,0,7.2,3.2,7.2,7.2v22
				C694.8,1034.4,691.6,1037.6,687.6,1037.6z"/>
			<path class="st7" d="M755.3,1183.6c-1.5,0-2.7-1.2-2.7-2.7V996.2c0-1.5,1.2-2.7,2.7-2.7c1.5,0,2.7,1.2,2.7,2.7v184.7
				C758,1182.4,756.8,1183.6,755.3,1183.6z"/>
			<path class="st7" d="M769.1,1148.2h-27.6c-4,0-7.2-3.2-7.2-7.2v-100.2c0-4,3.2-7.2,7.2-7.2h27.6c4,0,7.2,3.2,7.2,7.2V1141
				C776.3,1145,773.1,1148.2,769.1,1148.2z"/>
			<path class="st7" d="M838.9,1122.5c-1.5,0-2.7-1.2-2.7-2.7V668.1c0-1.5,1.2-2.7,2.7-2.7c1.5,0,2.7,1.2,2.7,2.7v451.7
				C841.6,1121.3,840.4,1122.5,838.9,1122.5z"/>
			<path class="st7" d="M854.8,1039.7H823c-4,0-7.2-3.2-7.2-7.2v-230c0-4,3.2-7.2,7.2-7.2h31.8c4,0,7.2,3.2,7.2,7.2v230
				C862,1036.5,858.8,1039.7,854.8,1039.7z"/>
			<path class="st7" d="M922.5,885.4c-1.5,0-2.7-1.2-2.7-2.7V607c0-1.5,1.2-2.7,2.7-2.7c1.5,0,2.7,1.2,2.7,2.7v275.7
				C925.2,884.2,924,885.4,922.5,885.4z"/>
			<path class="st7" d="M938.4,798.9h-31.8c-4,0-7.2-3.2-7.2-7.2V652.8c0-4,3.2-7.2,7.2-7.2h31.8c4,0,7.2,3.2,7.2,7.2v138.9
				C945.6,795.7,942.4,798.9,938.4,798.9z"/>
			<path class="st7" d="M1006.1,1004c-1.5,0-2.7-1.2-2.7-2.7v-514c0-1.5,1.2-2.7,2.7-2.7c1.5,0,2.7,1.2,2.7,2.7v514
				C1008.8,1002.7,1007.6,1004,1006.1,1004z"/>
			<path class="st7" d="M1022,910.2h-31.8c-4,0-7.2-3.2-7.2-7.2V566.7c0-4,3.2-7.2,7.2-7.2h31.8c4,0,7.2,3.2,7.2,7.2V903
				C1029.2,906.9,1026,910.2,1022,910.2z"/>
			<path class="st7" d="M1089.7,642.1c-1.5,0-2.7-1.2-2.7-2.7V416.1c0-1.5,1.2-2.7,2.7-2.7s2.7,1.2,2.7,2.7v223.3
				C1092.4,640.9,1091.2,642.1,1089.7,642.1z"/>
			<path class="st7" d="M1105.3,553.3h-31.8c-4,0-7.2-3.2-7.2-7.2V445.7c0-4,3.2-7.2,7.2-7.2h31.8c4,0,7.2,3.2,7.2,7.2v100.4
				C1112.5,550.1,1109.3,553.3,1105.3,553.3z"/>
			<path class="st7" d="M1678,1056.4c-1.5,0-2.7-1.2-2.7-2.7V772.9c0-1.5,1.2-2.7,2.7-2.7c1.5,0,2.7,1.2,2.7,2.7v280.7
				C1680.7,1055.1,1679.5,1056.4,1678,1056.4z"/>
			<path class="st7" d="M1693.9,1003.9h-31.8c-4,0-7.2-3.2-7.2-7.2V819.6c0-4,3.2-7.2,7.2-7.2h31.8c4,0,7.2,3.2,7.2,7.2v177.1
				C1701.1,1000.7,1697.8,1003.9,1693.9,1003.9z"/>
			<path class="st7" d="M1761.6,1058.9c-1.5,0-2.7-1.2-2.7-2.7V951.3c0-1.5,1.2-2.7,2.7-2.7c1.5,0,2.7,1.2,2.7,2.7v104.8
				C1764.3,1057.6,1763.1,1058.9,1761.6,1058.9z"/>
			<path class="st7" d="M1777.5,1037.6h-31.8c-4,0-7.2-3.2-7.2-7.2v-22c0-4,3.2-7.2,7.2-7.2h31.8c4,0,7.2,3.2,7.2,7.2v22
				C1784.6,1034.4,1781.4,1037.6,1777.5,1037.6z"/>
			<path class="st7" d="M1845.2,1183.6c-1.5,0-2.7-1.2-2.7-2.7V996.2c0-1.5,1.2-2.7,2.7-2.7c1.5,0,2.7,1.2,2.7,2.7v184.7
				C1847.9,1182.4,1846.7,1183.6,1845.2,1183.6z"/>
			<path class="st7" d="M1859,1148.2h-27.6c-4,0-7.2-3.2-7.2-7.2v-100.2c0-4,3.2-7.2,7.2-7.2h27.6c4,0,7.2,3.2,7.2,7.2V1141
				C1866.1,1145,1862.9,1148.2,1859,1148.2z"/>
			<path class="st7" d="M1928.8,1122.5c-1.5,0-2.7-1.2-2.7-2.7V668.1c0-1.5,1.2-2.7,2.7-2.7c1.5,0,2.7,1.2,2.7,2.7v451.7
				C1931.5,1121.3,1930.3,1122.5,1928.8,1122.5z"/>
			<path class="st7" d="M1944.7,1039.7h-31.8c-4,0-7.2-3.2-7.2-7.2v-230c0-4,3.2-7.2,7.2-7.2h31.8c4,0,7.2,3.2,7.2,7.2v230
				C1951.8,1036.5,1948.6,1039.7,1944.7,1039.7z"/>
			<path class="st7" d="M2012.3,885.4c-1.5,0-2.7-1.2-2.7-2.7V607c0-1.5,1.2-2.7,2.7-2.7c1.5,0,2.7,1.2,2.7,2.7v275.7
				C2015.1,884.2,2013.9,885.4,2012.3,885.4z"/>
			<path class="st7" d="M2028.3,798.9h-31.8c-4,0-7.2-3.2-7.2-7.2V652.8c0-4,3.2-7.2,7.2-7.2h31.8c4,0,7.2,3.2,7.2,7.2v138.9
				C2035.4,795.7,2032.2,798.9,2028.3,798.9z"/>
			<path class="st7" d="M2095.9,1004c-1.5,0-2.7-1.2-2.7-2.7v-514c0-1.5,1.2-2.7,2.7-2.7c1.5,0,2.7,1.2,2.7,2.7v514
				C2098.7,1002.7,2097.5,1004,2095.9,1004z"/>
			<path class="st7" d="M2111.9,910.2H2080c-4,0-7.2-3.2-7.2-7.2V566.7c0-4,3.2-7.2,7.2-7.2h31.8c4,0,7.2,3.2,7.2,7.2V903
				C2119,906.9,2115.8,910.2,2111.9,910.2z"/>
			<path class="st7" d="M2179.5,642.1c-1.5,0-2.7-1.2-2.7-2.7V416.1c0-1.5,1.2-2.7,2.7-2.7c1.5,0,2.7,1.2,2.7,2.7v223.3
				C2182.3,640.9,2181,642.1,2179.5,642.1z"/>
			<path class="st7" d="M2195.1,553.3h-31.8c-4,0-7.2-3.2-7.2-7.2V445.7c0-4,3.2-7.2,7.2-7.2h31.8c4,0,7.2,3.2,7.2,7.2v100.4
				C2202.3,550.1,2199.1,553.3,2195.1,553.3z"/>
			<path class="st7" d="M1173.3,794.6c-1.5,0-2.7-1.2-2.7-2.7V455c0-1.5,1.2-2.7,2.7-2.7c1.5,0,2.7,1.2,2.7,2.7v336.9
				C1176,793.4,1174.8,794.6,1173.3,794.6z"/>
			<path class="st7" d="M1189.2,732.2h-31.8c-4,0-7.2-3.2-7.2-7.2V509.6c0-4,3.2-7.2,7.2-7.2h31.8c4,0,7.2,3.2,7.2,7.2V725
				C1196.4,729,1193.2,732.2,1189.2,732.2z"/>
		</g>
		<g>
			<path class="st8" d="M1904.2,410.1l-182.3-250.9c-4.9-6.7-20.1-6.7-25,0l-182.3,250.9c-4.2,5.7,2.5,12.2,12.5,12.2h59.1
				c7.6,0,13.8,3.9,13.8,8.6v269.7c0,4.8,6.2,8.6,13.8,8.6H1805c7.6,0,13.8-3.9,13.8-8.6V431c0-4.8,6.2-8.6,13.8-8.6h59.1
				C1901.7,422.4,1908.4,415.9,1904.2,410.1z"/>
			<g>
				<path class="st2" d="M1619,629.2c0-2.6,1.9-4.8,4.5-5.1c4.3-0.5,10-0.8,15.5-0.8c9.4,0,15.2,0.9,20.2,3.9
					c4.8,2.5,8.2,7.2,8.2,13.4c0,6.1-3.6,11.8-11.3,14.6v0.2c7.8,2.1,13.6,8,13.6,16.9c0,6.2-2.8,11.1-7.1,14.5
					c-5,4-13.3,6.2-26.9,6.2c-4.9,0-9-0.2-12.2-0.5c-2.6-0.2-4.6-2.4-4.6-5.1V629.2z M1634.3,646c0,2.8,2.3,5.1,5.1,5.1l0,0
					c8.1,0,12.5-3.4,12.5-8.4c0-5.2-4-7.9-11-7.9c-0.6,0-1.2,0-1.7,0c-2.7,0.1-4.9,2.3-4.9,5.1V646z M1634.3,676.5
					c0,2.8,2.2,5.1,5.1,5.1c0.3,0,0.6,0,0.9,0c7,0,13.2-2.6,13.2-9.9c0-6.9-6.2-9.6-13.9-9.6h-0.2c-2.8,0-5.1,2.3-5.1,5.1V676.5z"/>
				<path class="st2" d="M1690.7,623.9c2.8,0,5.1,2.3,5.1,5.1v34.3c0,11.8,4.5,17.8,12.4,17.8c8.1,0,12.6-5.7,12.6-17.8V629
					c0-2.8,2.3-5.1,5.1-5.1h5.3c2.8,0,5.1,2.3,5.1,5.1v33.3c0,21.1-10.7,31.2-28.5,31.2c-17.3,0-27.4-9.5-27.4-31.4V629
					c0-2.8,2.3-5.1,5.1-5.1H1690.7z"/>
				<path class="st2" d="M1765.4,687.3v-21.7c0-0.8-0.2-1.7-0.6-2.4l-17-31.8c-1.8-3.4,0.6-7.5,4.5-7.5h5.8c2,0,3.9,1.2,4.7,3.1
					l5.7,13.4c2.1,5,3.6,8.6,5.3,13.1h0.2c1.5-4.3,3.1-8.2,5.2-13.1l5.6-13.3c0.8-1.9,2.6-3.1,4.7-3.1h5.3c3.9,0,6.3,4.2,4.4,7.6
					l-17.6,31.2c-0.4,0.8-0.7,1.6-0.7,2.5v22.1c0,2.8-2.3,5.1-5.1,5.1h-5.3C1767.7,692.4,1765.4,690.1,1765.4,687.3z"/>
			</g>
		</g>
		<g>
			
				<linearGradient id="SVGID_1_" gradientUnits="userSpaceOnUse" x1="5642.832" y1="1231.9662" x2="5752.5708" y2="1231.9662" gradientTransform="matrix(-1 0 0 1 7565.397 0)">
				<stop  offset="0" style="stop-color:#DAE3FE"/>
				<stop  offset="1" style="stop-color:#E9EFFD"/>
			</linearGradient>
			<path class="st9" d="M1819.1,1494.9c3,0,5.6-1.9,6.2-4.7l97.2-514.7c0.6-3-1.7-5.9-5.1-6.4c-3.4-0.5-6.6,1.5-7.2,4.6l-97.2,514.7
				c-0.6,3,1.7,5.9,5.1,6.4C1818.4,1494.9,1818.7,1494.9,1819.1,1494.9z"/>
			
				<linearGradient id="SVGID_00000130644065585318147430000006262118202505014437_" gradientUnits="userSpaceOnUse" x1="5412.0186" y1="1235.3127" x2="5539.147" y2="1235.3127" gradientTransform="matrix(-1 0 0 1 7565.397 0)">
				<stop  offset="0" style="stop-color:#DAE3FE"/>
				<stop  offset="1" style="stop-color:#E9EFFD"/>
			</linearGradient>
			<path style="fill:url(#SVGID_00000130644065585318147430000006262118202505014437_);" d="M2147.1,1494.9c0.4,0,0.8,0,1.2-0.1
				c3.4-0.6,5.6-3.6,4.9-6.6l-114.6-508c-0.7-3-4-5-7.4-4.4c-3.4,0.6-5.6,3.6-4.9,6.6l114.6,508
				C2141.6,1493.1,2144.2,1494.9,2147.1,1494.9z"/>
			
				<linearGradient id="SVGID_00000178900763650908335930000004786660121808955568_" gradientUnits="userSpaceOnUse" x1="5499.7046" y1="1097.1544" x2="5678.3691" y2="1097.1544" gradientTransform="matrix(-1 0 0 1 7565.397 0)">
				<stop  offset="0" style="stop-color:#DAE3FE"/>
				<stop  offset="1" style="stop-color:#E9EFFD"/>
			</linearGradient>
			<path style="fill:url(#SVGID_00000178900763650908335930000004786660121808955568_);" d="M1893.3,1102.7h166.2
				c3.5,0,6.3-2.5,6.3-5.6c0-3.1-2.8-5.6-6.3-5.6h-166.2c-3.5,0-6.3,2.5-6.3,5.6C1887,1100.2,1889.8,1102.7,1893.3,1102.7z"/>
			
				<linearGradient id="SVGID_00000034049498806504313990000016415146447307015840_" gradientUnits="userSpaceOnUse" x1="5502.9482" y1="1097.1544" x2="5675.1294" y2="1097.1544" gradientTransform="matrix(-1 0 0 1 7565.397 0)">
				<stop  offset="0" style="stop-color:#DAE3FE"/>
				<stop  offset="1" style="stop-color:#E9EFFD"/>
			</linearGradient>
			<path style="fill:url(#SVGID_00000034049498806504313990000016415146447307015840_);" d="M1896.3,1102.7h160.1c3.3,0,6-2.5,6-5.6
				c0-3.1-2.7-5.6-6-5.6h-160.1c-3.3,0-6,2.5-6,5.6C1890.3,1100.2,1893,1102.7,1896.3,1102.7z"/>
			
				<linearGradient id="SVGID_00000058586174550080982540000011785130571296505534_" gradientUnits="userSpaceOnUse" x1="5499.7046" y1="1190.2219" x2="5678.3691" y2="1190.2219" gradientTransform="matrix(-1 0 0 1 7565.397 0)">
				<stop  offset="0" style="stop-color:#DAE3FE"/>
				<stop  offset="1" style="stop-color:#E9EFFD"/>
			</linearGradient>
			<path style="fill:url(#SVGID_00000058586174550080982540000011785130571296505534_);" d="M1893.3,1195.8h166.2
				c3.5,0,6.3-2.5,6.3-5.6c0-3.1-2.8-5.6-6.3-5.6h-166.2c-3.5,0-6.3,2.5-6.3,5.6C1887,1193.3,1889.8,1195.8,1893.3,1195.8z"/>
			
				<linearGradient id="SVGID_00000020387103160061811170000015807857072066757559_" gradientUnits="userSpaceOnUse" x1="5479.5054" y1="1190.2219" x2="5693.4565" y2="1190.2219" gradientTransform="matrix(-1 0 0 1 7565.397 0)">
				<stop  offset="0" style="stop-color:#DAE3FE"/>
				<stop  offset="1" style="stop-color:#E9EFFD"/>
			</linearGradient>
			<path style="fill:url(#SVGID_00000020387103160061811170000015807857072066757559_);" d="M1878.2,1195.8h201.4
				c3.5,0,6.3-2.5,6.3-5.6c0-3.1-2.8-5.6-6.3-5.6h-201.4c-3.5,0-6.3,2.5-6.3,5.6C1871.9,1193.3,1874.7,1195.8,1878.2,1195.8z"/>
			
				<linearGradient id="SVGID_00000042719661034967265780000016827037602826196400_" gradientUnits="userSpaceOnUse" x1="5499.7046" y1="1283.2894" x2="5678.3691" y2="1283.2894" gradientTransform="matrix(-1 0 0 1 7565.397 0)">
				<stop  offset="0" style="stop-color:#DAE3FE"/>
				<stop  offset="1" style="stop-color:#E9EFFD"/>
			</linearGradient>
			<path style="fill:url(#SVGID_00000042719661034967265780000016827037602826196400_);" d="M1893.3,1288.9h166.2
				c3.5,0,6.3-2.5,6.3-5.6c0-3.1-2.8-5.6-6.3-5.6h-166.2c-3.5,0-6.3,2.5-6.3,5.6C1887,1286.4,1889.8,1288.9,1893.3,1288.9z"/>
			
				<linearGradient id="SVGID_00000088114938533158603920000003542753108888078009_" gradientUnits="userSpaceOnUse" x1="5459.063" y1="1283.2894" x2="5712.6982" y2="1283.2894" gradientTransform="matrix(-1 0 0 1 7565.397 0)">
				<stop  offset="0" style="stop-color:#DAE3FE"/>
				<stop  offset="1" style="stop-color:#E9EFFD"/>
			</linearGradient>
			<path style="fill:url(#SVGID_00000088114938533158603920000003542753108888078009_);" d="M1858.9,1288.9h241.1
				c3.5,0,6.3-2.5,6.3-5.6c0-3.1-2.8-5.6-6.3-5.6h-241.1c-3.5,0-6.3,2.5-6.3,5.6C1852.7,1286.4,1855.5,1288.9,1858.9,1288.9z"/>
			
				<linearGradient id="SVGID_00000011716959533573156620000017360523844204690311_" gradientUnits="userSpaceOnUse" x1="5439.6777" y1="1376.3572" x2="5678.3691" y2="1376.3572" gradientTransform="matrix(-1 0 0 1 7565.397 0)">
				<stop  offset="0" style="stop-color:#DAE3FE"/>
				<stop  offset="1" style="stop-color:#E9EFFD"/>
			</linearGradient>
			<path style="fill:url(#SVGID_00000011716959533573156620000017360523844204690311_);" d="M1893.3,1381.9h226.2
				c3.5,0,6.3-2.5,6.3-5.6s-2.8-5.6-6.3-5.6h-226.2c-3.5,0-6.3,2.5-6.3,5.6S1889.8,1381.9,1893.3,1381.9z"/>
			
				<linearGradient id="SVGID_00000005980655224009938370000007182340141748842937_" gradientUnits="userSpaceOnUse" x1="5439.6777" y1="1376.3572" x2="5728.2627" y2="1376.3572" gradientTransform="matrix(-1 0 0 1 7565.397 0)">
				<stop  offset="0" style="stop-color:#DAE3FE"/>
				<stop  offset="1" style="stop-color:#E9EFFD"/>
			</linearGradient>
			<path style="fill:url(#SVGID_00000005980655224009938370000007182340141748842937_);" d="M1843.4,1381.9h276.1
				c3.5,0,6.3-2.5,6.3-5.6s-2.8-5.6-6.3-5.6h-276.1c-3.5,0-6.3,2.5-6.3,5.6S1839.9,1381.9,1843.4,1381.9z"/>
		</g>
		<g>
			<path class="st1" d="M2042.8,1069.5c0,0,4.1,6.4,5.1,24.3c0.1,1.7-1.2,3.1-2.9,3.1h-31.7c-1.3,0-2.2-1.3-1.8-2.5
				c1.9-5.5,7.5-18.9,20-26.6L2042.8,1069.5z"/>
			<path class="st2" d="M2044.1,1057.4l-1.8,15c-0.2,1.3-1.2,2.3-2.5,2.5c-1.7,0.2-4.3,0.3-6.7-0.1c-2.2-0.4-3.8-2.4-3.8-4.6v-14.5
				L2044.1,1057.4z"/>
			<path class="st1" d="M1964.3,1067.8c0,0,6.1,9.4,5.9,22.4c0,3.1-2.6,5.5-5.6,5.5h-49.3c-2.3,0-3.2-3-1.4-4.3
				c9.3-6.5,27.6-18.8,40.9-23.6H1964.3z"/>
			<path class="st2" d="M1969.4,1051.6l-3.8,18.6c-0.4,2.1-2.5,3.5-4.5,3c-1.3-0.3-2.7-0.8-4.3-1.8c-1.5-0.9-2.3-2.7-2-4.5l4-22.5
				L1969.4,1051.6z"/>
			<path class="st5" d="M2037.1,793.3c0,0,13.3,11.7,15.8,25.8s-7.1,243.5-7.1,243.5s-13.3,2.2-20.2-1.9c0,0-8.1-148.8-14.3-183.2
				c0,0-32.4,154.2-41.4,182c0,0-12.8,1.6-16.9-0.9c0,0,8.5-199.9,19.2-235.4L2037.1,793.3z"/>
			<path class="st2" d="M1905.8,660.8c56-4.6,70.6,6.9,70.6,6.9l-26.9,42.5c0,0-55-1.1-94.5-31.5c7.4-7.9,12.5-16.7,15.8-23.6
				C1881.1,659.4,1892.8,661.9,1905.8,660.8z"/>
			<path class="st2" d="M1818.1,578.6c0.1-1.8,2.5-2.3,3.3-0.7l7.1,15.2c1.4,2.9,1.8,6.2,1.3,9.5l-2.5,8.9
				c-0.8,4.3,0.4,8.8,3.1,12.2c6.6,8.2,20.6,23.2,40.5,31.5c-3.3,6.8-8.4,15.6-15.8,23.6c-14.5-11.2-26.8-26.2-33.6-46.7
				c-3.2-1-5.4-4.1-5.3-7.4L1818.1,578.6z"/>
			<path class="st1" d="M1887.4,685.4c19.7-21.2,57.3-30.8,79-34.8c9.5-1.7,18.9,3.6,22.3,12.6c9.8,26.3,36.4,94.7,41.6,106.5
				c4.2,9.6,8.7,19.1,11.5,25c1.7,3.5,0.2,7.7-3.3,9.4c-18.3,8.8-51.2,18.8-64.6,22.7c-2.9,0.9-5.9-1.3-5.9-4.4c0-2.6-0.7-5.1-2-7.4
				l-50.5-84.2c-31.5,34.9-59.1,38.1-80.3,30.5c3.6-11,5.9-22,7-33.1C1873.5,722.9,1887.4,685.4,1887.4,685.4z"/>
			<path class="st2" d="M1790.4,722.4l5.6-7.5c18.3,12.6,33.6,15.5,46.1,13.4c-1.1,11.1-3.5,22.1-7,33.1
				C1807.2,751.3,1790.4,722.4,1790.4,722.4z"/>
			<path class="st2" d="M1794.4,722.5l-31.8,1.2l-29.3-16.4c4.2-2.6,28,2.8,28,2.8s24.9-3.8,31.6-3.8c5.6,0,4.8,8,4.4,10.8
				c-0.1,0.6-0.2,0.9-0.2,0.9L1794.4,722.5z"/>
			<path class="st2" d="M1936.5,611.6l16.8,41c0,0-19.3,13.4-34.8,12.1l-8.4-36.8L1936.5,611.6z"/>
			<g>
				<path class="st2" d="M1908.1,583.7c-0.4,0.5-12.1,43-12.1,43l24.4,6.2l17.1-38.6C1937.5,594.3,1914.6,574.6,1908.1,583.7z"/>
				<path class="st1" d="M1928.3,600.2l-7.4,21c-0.1,0.3-0.2,0.5-0.4,0.8c-1,1.4-4.8,6.1-9.4,1.9c-4.1-3.8-7.9-7.2-11.5-7.9
					c-1.6-0.3-3.1,0.7-3.5,2.2c-1.1,3.9-3.3,12.6-4.1,20.5c-0.2,1.6,0.9,3.1,2.5,3.4c4.8,0.9,14.9,2.5,23.3,1.9
					c1.1-0.1,2.1-0.8,2.6-1.8c2.3-5.1,9.5-20.5,12.1-24.5c2.5-3.7,8.6-3.6,11.1-3.4c0.8,0.1,1.7-0.2,2.3-0.8c2.2-2,6.5-7,0.5-13
					c-1.3-1.3-1.2-3.3,0.1-4.5c2.6-2.4,5.3-6.7,1-12c-4.4-5.4-10.1-4.5-13.6-3.3c-1.4,0.5-3-0.1-3.8-1.4c-0.4-0.7-1.2-1.3-2.5-1.2
					c-1.8,0.2-3.3-1.3-3.3-3.1c0.1-3.5-1.2-7.8-7.2-9.7c-10.7-3.3-17.3,7-18,14.7c-0.7,7.7,11.1,10.6,18,10.1
					c5.3-0.4,9.2,4.8,10.7,7.3C1928.6,598.3,1928.7,599.3,1928.3,600.2z"/>
				<path class="st2" d="M1929.8,625.4c0,0,1.7-13.3,7.3-14c5.6-0.7,11,3.9,5.4,11.4C1935.7,632.1,1929.8,625.4,1929.8,625.4z"/>
			</g>
		</g>
		<g>
			<path class="st5" d="M1252.9,1448.7H832.5c-13.4,0-24.3-8-24.3-17.9v-299.9c0-9.9,10.8-17.9,24.2-17.9l423.8-0.8
				c13.5,0,24.4,8.1,24.3,18l-3.4,300.8C1277.1,1440.8,1266.3,1448.7,1252.9,1448.7z"/>
			<path class="st19" d="M982.7,1212.7H866.3c-4,0-7.2-3.2-7.2-7.2v-46.6c0-4,3.2-7.2,7.2-7.2h116.5c4,0,7.2,3.2,7.2,7.2v46.6
				C990,1209.4,986.8,1212.7,982.7,1212.7z"/>
			<path class="st19" d="M1238,1195.2h-218.3c-2.9,0-5.2-2.4-5.2-5.2v-19.2c0-2.9,2.4-5.2,5.2-5.2H1238c2.9,0,5.2,2.4,5.2,5.2v19.2
				C1243.2,1192.8,1240.9,1195.2,1238,1195.2z"/>
			<g class="st20">
				<path class="st2" d="M1035.4,1307.6v-3.9c0-0.8,0.4-1.6,1-2.2l3.8-3.4c8-7.2,11.9-11.3,12-15.5c0-3-1.8-5.3-6-5.3
					c-3.2,0-5.9,1.6-7.8,3l-1.5-3.9c-0.5-1.4,0-3,1.3-3.7c2.6-1.4,6-2.4,9.8-2.4c8.3,0,12.8,4.8,12.8,11.5c0,6.1-4.4,11-9.7,15.8
					l-3.4,2.8v0.1h10.9c1.6,0,2.9,1.3,2.9,2.9v1.2c0,1.6-1.3,2.9-2.9,2.9H1035.4z"/>
				<path class="st2" d="M1081.8,1304.7v-2.9c0-1.6-1.3-2.9-2.9-2.9h-13.3v-4.7c0-0.5,0.2-1.1,0.4-1.5l12.6-20.2
					c0.5-0.9,1.5-1.4,2.5-1.4h5.9c1.6,0,2.9,1.3,2.9,2.9v18.5h4.4v6.4h-4.4v5.8c0,1.6-1.3,2.9-2.9,2.9h-2.3
					C1083.1,1307.6,1081.8,1306.3,1081.8,1304.7z M1078.9,1292.5c1.6,0,2.9-1.3,2.9-2.9v-5.2c0-2.2,0.1-4.4,0.3-6.8h-0.2
					c-1.2,2.3-2.1,4.4-3.3,6.7c0,0.1-0.1,0.1-0.1,0.2l-4.8,7.9v0.1H1078.9z"/>
				<path class="st2" d="M1097.9,1307.6v-3.9c0-0.8,0.4-1.6,1-2.2l3.8-3.4c8-7.2,11.9-11.3,12-15.5c0-3-1.8-5.3-6-5.3
					c-3.2,0-5.9,1.6-7.8,3l-1.5-3.9c-0.5-1.4,0-3,1.3-3.7c2.6-1.4,6-2.4,9.8-2.4c8.3,0,12.8,4.8,12.8,11.5c0,6.1-4.4,11-9.7,15.8
					l-3.4,2.8v0.1h10.9c1.6,0,2.9,1.3,2.9,2.9v1.2c0,1.6-1.3,2.9-2.9,2.9H1097.9z"/>
				<path class="st2" d="M1140.1,1278.6h-0.1l-7,3.3l-0.9-4.1c-0.3-1.3,0.4-2.7,1.6-3.3l7-3.2c0.4-0.2,0.8-0.3,1.2-0.3h3.5
					c1.6,0,2.9,1.3,2.9,2.9v30.7c0,1.6-1.3,2.9-2.9,2.9h-2.4c-1.6,0-2.9-1.3-2.9-2.9V1278.6z"/>
				<path class="st2" d="M1160.9,1303.1c0-3,2.1-5.2,5.1-5.2c3,0,5,2.1,5,5.2c0,3-2,5.2-5.1,5.2
					C1163,1308.3,1160.9,1306.1,1160.9,1303.1z"/>
				<path class="st2" d="M1199.6,1275.1c0,1.6-1.3,2.9-2.9,2.9h-11.3l-0.8,5.6c0.8-0.1,1.5-0.1,2.4-0.1c3.5,0,7,0.8,9.6,2.6
					c2.8,1.9,4.4,4.9,4.4,9.2c0,6.8-5.9,12.8-15.7,12.8c-3,0-5.7-0.5-7.7-1.1c-1.4-0.4-2.2-2-1.9-3.4l0.9-4c1.6,0.8,5,1.8,8.3,1.8
					c3.5,0,7.3-1.7,7.3-5.6c0-3.8-3-6.1-10.3-6.1c-2,0-3.4,0.1-5,0.3l2.1-16.6c0.2-1.5,1.4-2.6,2.9-2.6h14.6c1.6,0,2.9,1.3,2.9,2.9
					V1275.1z"/>
				<path class="st2" d="M1221.5,1304.7v-2.9c0-1.6-1.3-2.9-2.9-2.9h-13.3v-4.7c0-0.5,0.2-1.1,0.4-1.5l12.6-20.2
					c0.5-0.9,1.5-1.4,2.5-1.4h5.9c1.6,0,2.9,1.3,2.9,2.9v18.5h4.4v6.4h-4.4v5.8c0,1.6-1.3,2.9-2.9,2.9h-2.3
					C1222.8,1307.6,1221.5,1306.3,1221.5,1304.7z M1218.6,1292.5c1.6,0,2.9-1.3,2.9-2.9v-5.2c0-2.2,0.1-4.4,0.3-6.8h-0.2
					c-1.2,2.3-2.1,4.4-3.3,6.7c0,0.1-0.1,0.1-0.1,0.2l-4.8,7.9v0.1H1218.6z"/>
				<path class="st2" d="M1125.1,1357.6v5.7h-14.8v-5.7H1125.1z"/>
				<path class="st2" d="M1144.4,1372.3v-2.9c0-1.6-1.3-2.9-2.9-2.9h-13.3v-4.7c0-0.5,0.2-1.1,0.4-1.5l12.6-20.2
					c0.5-0.9,1.5-1.4,2.5-1.4h5.9c1.6,0,2.9,1.3,2.9,2.9v18.5h4.4v6.4h-4.4v5.8c0,1.6-1.3,2.9-2.9,2.9h-2.3
					C1145.7,1375.2,1144.4,1373.9,1144.4,1372.3z M1141.4,1360.1c1.6,0,2.9-1.3,2.9-2.9v-5.2c0-2.2,0.1-4.4,0.3-6.8h-0.2
					c-1.2,2.3-2.1,4.4-3.3,6.7c0,0.1-0.1,0.1-0.1,0.2l-4.8,7.9v0.1H1141.4z"/>
				<path class="st2" d="M1160.9,1370.7c0-3,2.1-5.2,5.1-5.2s5,2.1,5,5.2c0,3-2,5.2-5.1,5.2
					C1163,1375.9,1160.9,1373.7,1160.9,1370.7z"/>
				<path class="st2" d="M1186,1346.2h-0.1l-7,3.3l-0.9-4.1c-0.3-1.3,0.4-2.7,1.6-3.3l7-3.2c0.4-0.2,0.8-0.3,1.2-0.3h3.5
					c1.6,0,2.9,1.3,2.9,2.9v30.7c0,1.6-1.3,2.9-2.9,2.9h-2.4c-1.6,0-2.9-1.3-2.9-2.9V1346.2z"/>
				<path class="st2" d="M1232.6,1338.6v4.7c0,0.4-0.1,0.9-0.3,1.3l-14,28.9c-0.5,1-1.5,1.7-2.6,1.7h-2.4c-2.2,0-3.6-2.3-2.6-4.3
					l12.9-25.2v-0.1h-13.8c-1.6,0-2.9-1.3-2.9-2.9v-1.2c0-1.6,1.3-2.9,2.9-2.9H1232.6z"/>
			</g>
			<g class="st20">
				<rect x="894.4" y="1275.7" class="st2" width="23.7" height="72.4"/>
				<g>
					<polygon class="st2" points="866.1,1300.9 906.2,1341 946.3,1300.9 946.3,1334.9 906.2,1375.1 866.1,1334.9 					"/>
				</g>
			</g>
		</g>
		<g>
			<g>
				
					<rect x="573.9" y="1371.3" transform="matrix(-1 -1.224647e-16 1.224647e-16 -1 1158.1219 2853.5759)" class="st4" width="10.3" height="111"/>
				<path class="st4" d="M534.1,1484.4H624v-3.3c0-1.9-1.5-3.4-3.4-3.4h-83.2c-1.9,0-3.4,1.5-3.4,3.4V1484.4z"/>
				<path class="st4" d="M520.8,1367.4c0,6.1,5,11,11,11h91c6.1,0,11-5,11-11v-10c0-6.1-5-11-11-11h-91c-6.1,0-11,5-11,11V1367.4z"
					/>
			</g>
			<g>
				<path class="st2" d="M654.8,1297.3c0,0,15.3,2.4,32.4,13.8c2.7,1.8,4.2,4.9,3.8,8.2c-2.1,16.3-10.5,68.9-38.3,120.3
					c-1.5,2.7-1.9,5.9-1.2,8.9l4.8,22.5l9,8.4h-23.1l-15.4-41.6l6.6-2.1c5.1-1.6,8.6-6.3,8.7-11.7l0.8-44.7
					c-0.7-19.9,12.2-33.6,12.2-33.6l-36.9-1.8L654.8,1297.3z"/>
				<path class="st8" d="M674.3,1483.5c2.1,2.8-22.6,6.4-35.2,0.4c0,0-17.3-30.2-17.3-45.7c0,0,1.4-3.2,11.6-2.4
					c0,0,5.8,35.7,12,39.7c6.1,4,17.2,0.4,17.2,0.4S671.2,1479.4,674.3,1483.5z"/>
				<path class="st2" d="M622.8,1346.4c0.2-0.3,39.7-4.8,39.7-4.8s-1.3,12,2.7,28.6c4,16.5,62.1,88.2,62.1,88.2l-6.1,19.3
					c18.8,6.6,37.3,7.6,55.5,3.3l-37.7-22.6c0,0-35.3-120.3-56.9-141.7l-39.6-13.7L622.8,1346.4z"/>
				<path class="st8" d="M534.1,1276.4c0,0-22.8,33.9-24.6,49.3c-1.9,15.5,6.2,21.7,30.1,22.8c23.9,1,87.7,1,87.7,1l54.4-46.5
					c0,0-39.7-14.2-50-18.2C621.4,1280.8,534.1,1276.4,534.1,1276.4z"/>
				<path class="st8" d="M723.5,1471.3c0,0-6.6,6.3-2.1,13.4c0,0,51.9,9.2,66,5c0,0-2.9-6.7-18.8-14.3l1.2,0.9
					c1.5,1.1,0.6,3.5-1.3,3.4C758.1,1479.1,736.4,1477.2,723.5,1471.3z"/>
			</g>
			<g>
				<path class="st4" d="M623.4,1104c10.8-11.5,15.2-21.2,13-32.6c-3.2-16.7-30.9-31.2-55.4-19.6c-25.6,12-18.3,44.3-45.1,57.8
					c-20.9,10.5-34.4-4.7-59.6-0.3c-41.8,7.2-82.5,62.3-75.6,104c11.2,68.1,149.6,101.5,188,63.4
					C622.7,1242.8,572.6,1158.1,623.4,1104z"/>
				<path class="st7" d="M595.7,1271.9c0,0,26.5-25.3,39.6-42c7.1-9,9.3-20.9,6-31.9c-6-20.1-16.6-40.9-17.5-44.1
					c-1.5-5-31.2-4.8-31.2-4.8s-58.5,38-81.5,102.3l25.8,8c0,0,15.3-25.6,30.4-41.9c0,0-26.1,34.5-27,48.6L595.7,1271.9z"/>
				<path class="st2" d="M627.4,1126.2c-0.3,1-8.1,26.8-8.7,27.3c-0.6,0.5-17,1.4-24.7-3.9l13.1-27.4L627.4,1126.2z"/>
				<path class="st2" d="M614.6,1072.1c0,0,14,5.9,23.5,26.2c9.5,20.2,2.4,29.6-6.5,30.9c-8.9,1.3-22.3,1.1-36.4-12
					C581.1,1104.1,596.4,1065.1,614.6,1072.1z"/>
				<path class="st4" d="M604.7,1106.4c0,0-10.6-29.6,15.7-30l6.2,4.3c0,0,9.6-16.4-6.2-24.3c-15.8-7.8-39.4-0.9-46.1,20.5
					c-6.7,21.3-2.8,35.1,8.4,45.3c11.2,10.2,15.8-1.4,15.8-1.4s-6.1-9.5-3.6-14.6c2.5-5.1,8.2,1.1,8.2,1.1L604.7,1106.4z"/>
				<path class="st2" d="M602.8,1113.1c0,0-5.3-15.3-12.5-9.2c-7.1,6.1,5.8,14.1,10.9,16.7L602.8,1113.1z"/>
				<path class="st2" d="M649.7,1273.8l-19.5-18.8l-27,11.4c0,0-26.8,4.2-42.2,0c-15.4-4.2-15.4-4.2-15.4-4.2l-34.7-10.8l-5.5,15.4
					c-1.4,3.9,0,8.3,3.4,10.7c3,2.1,6.5,4.5,8.8,5.5c4.6,2,112.7-1.4,112.7-1.4L649.7,1273.8z"/>
			</g>
			<g>
				<path class="st4" d="M576,1282.7c0.1,0,0.2,0,0.3,0l113-0.1c2.8,0,5.1-2.3,5.1-5.1c0-2.8-2.3-5.1-5.1-5.1l-113,0.1
					c-2.8,0-5.1,2.3-5.1,5.1C571.2,1280.3,573.3,1282.5,576,1282.7z"/>
				<path class="st4" d="M790.9,1180h-94.1c-6.9,0-13.3,4-16.2,10.3l-43.5,92.3h117c4.5,0,8.5-2.7,10.1-6.9l33.7-85.4
					C799.8,1185.4,796.2,1180,790.9,1180z"/>
				<path class="st5" d="M724.6,1227.4c-2,6.3-0.5,12.5,3.4,13.7c3.9,1.3,8.7-2.9,10.8-9.2s0.5-12.5-3.4-13.7
					C731.4,1216.9,726.6,1221,724.6,1227.4z"/>
			</g>
			<g>
				
					<linearGradient id="SVGID_00000075141017535359188470000001776017623289537170_" gradientUnits="userSpaceOnUse" x1="417.9201" y1="1292.2998" x2="899.6495" y2="1292.2998">
					<stop  offset="0" style="stop-color:#DAE3FE"/>
					<stop  offset="1" style="stop-color:#E9EFFD"/>
				</linearGradient>
				<path style="fill:url(#SVGID_00000075141017535359188470000001776017623289537170_);" d="M418,1286.8c-0.3-1.3,0.1-2.6,1-3.6
					c0.9-1,2.2-1.6,3.6-1.6h471.7c1.8,0,3.5,0.9,4.5,2.3c1,1.4,1.1,3.3,0.4,4.8l-5.1,10.4c-1.2,2.4-3.7,3.9-6.5,3.9H425.8
					c-2.6,0-4.8-1.7-5.3-4.1L418,1286.8z"/>
				<g>
					
						<linearGradient id="SVGID_00000026123501624017164000000014227801299664985239_" gradientUnits="userSpaceOnUse" x1="776.8851" y1="1397.8876" x2="871.9814" y2="1397.8876">
						<stop  offset="0" style="stop-color:#DAE3FE"/>
						<stop  offset="1" style="stop-color:#E9EFFD"/>
					</linearGradient>
					<path style="fill:url(#SVGID_00000026123501624017164000000014227801299664985239_);" d="M867.8,1505.4c0.5,0,1.1-0.1,1.6-0.3
						c2.1-0.9,3.1-3.4,2.2-5.6L784.8,1293c-0.9-2.1-3.3-3.1-5.4-2.2c-2.1,0.9-3.1,3.4-2.2,5.6l86.8,206.5
						C864.7,1504.4,866.2,1505.4,867.8,1505.4z"/>
					
						<linearGradient id="SVGID_00000080908981714522263870000013791007170657422762_" gradientUnits="userSpaceOnUse" x1="765.9031" y1="1397.8872" x2="860.9996" y2="1397.8872">
						<stop  offset="0" style="stop-color:#DAE3FE"/>
						<stop  offset="1" style="stop-color:#E9EFFD"/>
					</linearGradient>
					<path style="fill:url(#SVGID_00000080908981714522263870000013791007170657422762_);" d="M770,1505.4c1.6,0,3.1-1,3.8-2.6
						l86.8-206.5c0.9-2.1-0.1-4.6-2.2-5.6c-2.1-0.9-4.5,0.1-5.4,2.2l-86.8,206.5c-0.9,2.1,0.1,4.6,2.2,5.6
						C768.9,1505.3,769.5,1505.4,770,1505.4z"/>
					
						<linearGradient id="SVGID_00000070818515810378649710000009626445580426009754_" gradientUnits="userSpaceOnUse" x1="435.0167" y1="1397.8876" x2="530.113" y2="1397.8876">
						<stop  offset="0" style="stop-color:#DAE3FE"/>
						<stop  offset="1" style="stop-color:#E9EFFD"/>
					</linearGradient>
					<path style="fill:url(#SVGID_00000070818515810378649710000009626445580426009754_);" d="M526,1505.4c0.5,0,1.1-0.1,1.6-0.3
						c2.1-0.9,3.1-3.4,2.2-5.6L443,1293c-0.9-2.1-3.3-3.1-5.4-2.2c-2.1,0.9-3.1,3.4-2.2,5.6l86.8,206.5
						C522.8,1504.4,524.4,1505.4,526,1505.4z"/>
					
						<linearGradient id="SVGID_00000181083847762664385100000011741232457779667345_" gradientUnits="userSpaceOnUse" x1="424.0355" y1="1397.8872" x2="519.1318" y2="1397.8872">
						<stop  offset="0" style="stop-color:#DAE3FE"/>
						<stop  offset="1" style="stop-color:#E9EFFD"/>
					</linearGradient>
					<path style="fill:url(#SVGID_00000181083847762664385100000011741232457779667345_);" d="M428.2,1505.4c1.6,0,3.1-1,3.8-2.6
						l86.8-206.5c0.9-2.1-0.1-4.6-2.2-5.6c-2.1-0.9-4.5,0.1-5.4,2.2l-86.8,206.5c-0.9,2.1,0.1,4.6,2.2,5.6
						C427.1,1505.3,427.6,1505.4,428.2,1505.4z"/>
				</g>
			</g>
		</g>
		<g>
			<g>
				<path class="st7" d="M906.3,506.2L724,757.1c-4.9,6.7-20.1,6.7-25,0L516.6,506.2c-4.2-5.7,2.5-12.2,12.5-12.2h59.1
					c7.6,0,13.8-3.9,13.8-8.6V215.6c0-4.8,6.2-8.6,13.8-8.6h191.4c7.6,0,13.8,3.9,13.8,8.6v269.7c0,4.8,6.2,8.6,13.8,8.6h59.1
					C903.8,494,910.4,500.5,906.3,506.2z"/>
			</g>
			<g>
				<path class="st2" d="M621.6,284.7c0.4-1.6,2.1-2.5,3.6-1.9c3.5,1.5,7.9,2.7,12.4,2.7c6.3,0,9.7-2.8,9.7-7.1
					c0-4.1-2.9-6.4-10.2-9.2c-10.1-3.8-16.7-9.8-16.7-19.2c0-11.1,8.7-19.6,23.1-19.6c5.6,0,10,1,13.4,2.4c1.2,0.5,1.9,1.8,1.6,3.1
					l-1.7,6.6c-0.4,1.5-2,2.4-3.5,1.8c-2.5-1-5.9-1.9-10.1-1.9c-6,0-8.9,2.9-8.9,6.3c0,4.2,3.4,6,11.3,9.2
					c10.8,4.3,15.8,10.2,15.8,19.4c0,10.9-7.9,20.2-24.6,20.2c-5.8,0-11.6-1.4-15.3-3c-1.2-0.5-1.7-1.8-1.5-3L621.6,284.7z"/>
				<path class="st2" d="M704.4,269.1h-17.1c-1.5,0-2.7,1.2-2.7,2.7v10.1c0,1.5,1.2,2.7,2.7,2.7H707c1.5,0,2.7,1.2,2.7,2.7v6.8
					c0,1.5-1.2,2.7-2.7,2.7h-33.6c-1.5,0-2.7-1.2-2.7-2.7v-59.8c0-1.5,1.2-2.7,2.7-2.7h32.3c1.5,0,2.7,1.2,2.7,2.7v6.8
					c0,1.5-1.2,2.7-2.7,2.7h-18.5c-1.5,0-2.7,1.2-2.7,2.7v8.2c0,1.5,1.2,2.7,2.7,2.7h17.1c1.5,0,2.7,1.2,2.7,2.7v6.7
					C707,267.9,705.8,269.1,704.4,269.1z"/>
				<path class="st2" d="M721.7,231.5h8.5c1.5,0,2.7,1.2,2.7,2.7v50.1h21.6c1.5,0,2.7,1.2,2.7,2.7v7.1c0,1.5-1.2,2.7-2.7,2.7h-32.8
					c-1.5,0-2.7-1.2-2.7-2.7v-59.8C719.1,232.7,720.2,231.5,721.7,231.5z"/>
				<path class="st2" d="M768,231.5h8.5c1.5,0,2.7,1.2,2.7,2.7v50.1h21.6c1.5,0,2.7,1.2,2.7,2.7v7.1c0,1.5-1.2,2.7-2.7,2.7H768
					c-1.5,0-2.7-1.2-2.7-2.7v-59.8C765.3,232.7,766.5,231.5,768,231.5z"/>
			</g>
		</g>
	</g>
</g>
</svg>
