<?xml version="1.0" encoding="utf-8"?>
<!-- Generator: Adobe Illustrator 26.0.2, SVG Export Plug-In . SVG Version: 6.00 Build 0)  -->
<svg version="1.1" xmlns="http://www.w3.org/2000/svg" xmlns:xlink="http://www.w3.org/1999/xlink" x="0px" y="0px"
	 viewBox="0 0 2475 1650" style="enable-background:new 0 0 2475 1650;" xml:space="preserve">
<style type="text/css">
	.st0{fill:#FFFFFF;}
	.st1{opacity:0.3;fill:#BBDEF2;}
	.st2{opacity:0.59;}
	.st3{fill:#D1AAD7;}
	.st4{fill:#7B8FDD;}
	.st5{fill:url(#SVGID_1_);}
	.st6{fill:url(#SVGID_00000087392197867805182100000007896567241055982464_);}
	.st7{fill:url(#SVGID_00000133486909182347786260000002696679899612515460_);}
	.st8{fill:#86BFF2;}
	.st9{opacity:0.75;}
	.st10{opacity:0.3;}
	.st11{opacity:0.68;}
	.st12{fill:url(#SVGID_00000089563304711670662810000018418707040568514229_);}
	.st13{opacity:0.3;fill:#D8DEE8;}
	.st14{fill:#BBDEF2;}
	.st15{opacity:0.6;fill:#FFFFFF;}
	.st16{opacity:0.72;fill:#86BFF2;}
	.st17{fill:#C88BC4;}
	.st18{fill:#EBEFF2;}
	.st19{fill:url(#SVGID_00000012431823479761112400000016080532040686864545_);}
	.st20{opacity:0.72;fill:#BBDEF2;}
	.st21{opacity:0.3;fill:#86BFF2;}
	.st22{fill:#B7C0CE;}
	.st23{opacity:0.81;fill:#F4F7FA;}
</style>
<g id="Background">
</g>
<g id="Illustration">
	<g>
		<path class="st0" d="M1027,1140.8c-283.8,12.3-746.3,32.3-759.8,137.4c-5.8,44.9,72.3,89.3,111.6,111.6
			c166.9,94.9,335.9,63.1,485.1,51.5c313.7-24.3,304.1,59.3,613.9,51.5c409.3-10.4,803-165.9,794.2-240.4
			c-5.5-46.2-169.7-60.9-498-90.2C1377.2,1126.9,1095.5,1137.8,1027,1140.8z"/>
		<path class="st1" d="M962.6,1160.1c-112.6,0.3-139.7,6.6-141.7,17.2c-4.9,25.9,137.7,98,291.9,100.9c64,1.2,122.3-9.7,124.5,0
			c3.6,15.6-146.8,44.6-146,79.4c0.9,38,181.3,71.9,347.7,79.4c283.7,12.8,593.4-48.3,592.4-103c-0.4-23.9-117.6-48.5-352-96.6
			C1537.8,1208.3,1281.8,1159.2,962.6,1160.1z"/>
		<path class="st1" d="M741.5,1355.5c73.8,6.9,132.2,12.7,133.1,25.8c1.2,18.3-110.8,49.2-221.1,49.4c-142.5,0.2-280-50.8-276.9-73
			C380.8,1327.3,648.7,1346.7,741.5,1355.5z"/>
		<path class="st1" d="M2027.3,1200.9c-80.6-8.1-185.6-6.4-186.7,6.4c-1.2,13.2,107.7,39.7,216.8,36.5c35.6-1,94-5.9,94.4-15
			C2152.2,1218.5,2079.1,1206.1,2027.3,1200.9z"/>
		<g class="st2">
			<g>
				<path class="st3" d="M1742.7,449.2l-601.2-5.6c-32.4-0.3-58.8-22.2-58.8-48.9V391c0-26.7,26.5-47.7,58.8-46.9l601.2,14.4
					c26.7,0.6,48.1,20.6,48.1,44.5v3.3C1790.8,430.2,1769.3,449.4,1742.7,449.2z"/>
				<path class="st3" d="M1938.1,407c0,24.3-21.2,43.8-47.6,43.5c-26.6-0.2-48.4-20.4-48.4-45.1c0-24.7,21.8-44.1,48.4-43.5
					C1916.9,362.6,1938.1,382.8,1938.1,407z"/>
				<path class="st3" d="M2040.7,408.7c0,20.3-17.4,36.6-39.1,36.4c-21.8-0.2-39.6-17.1-39.6-37.7c0-20.6,17.8-36.8,39.6-36.3
					C2023.3,371.6,2040.7,388.4,2040.7,408.7z"/>
				<path class="st3" d="M2139.9,410.4c0,16.5-13.9,29.7-31.2,29.5c-17.3-0.2-31.5-13.9-31.5-30.5c0-16.6,14.1-29.8,31.5-29.5
					C2126,380.3,2139.9,393.9,2139.9,410.4z"/>
				<path class="st3" d="M2235.8,412c0,12.8-10.6,23-23.7,22.8c-13.2-0.2-23.9-10.7-23.9-23.6c0-12.9,10.7-23.1,23.9-22.8
					C2225.2,388.7,2235.8,399.2,2235.8,412z"/>
			</g>
			<g>
				<path class="st4" d="M1982.8,580.1l-443.4,5.3c-23.3,0.3-42.4-16.1-42.4-36.5v-2.8c0-20.4,19.1-37,42.4-37l443.4-0.1
					c20.1,0,36.3,15.2,36.3,34v2.6C2019.1,564.5,2002.9,579.9,1982.8,580.1z"/>
				<path class="st4" d="M2131,543.7c0,19.1-16.2,34.8-36.3,35.1c-20.2,0.2-36.7-15.3-36.7-34.6c0-19.4,16.5-35.1,36.7-35.1
					C2114.8,509.1,2131,524.6,2131,543.7z"/>
				<path class="st4" d="M2209.6,543.2c0,16.1-13.4,29.2-30,29.4c-16.7,0.2-30.3-12.8-30.3-29.1c0-16.2,13.6-29.4,30.3-29.4
					C2196.2,514.1,2209.6,527.1,2209.6,543.2z"/>
				<path class="st4" d="M2286.1,542.7c0,13.1-10.8,23.8-24.1,23.9c-13.4,0.1-24.3-10.4-24.3-23.6c0-13.2,10.9-23.9,24.3-23.9
					C2275.3,519.1,2286.1,529.7,2286.1,542.7z"/>
				<path class="st4" d="M2360.6,542.3c0,10.2-8.3,18.5-18.5,18.6c-10.2,0.1-18.6-8.1-18.6-18.4c0-10.2,8.3-18.5,18.6-18.6
					C2352.3,523.9,2360.6,532.1,2360.6,542.3z"/>
			</g>
			<g>
				<path class="st4" d="M1895.5,760.6l-646.4,26.8c-36.7,1.5-66.7,27.7-66.7,58.5l0,0c0,30.8,30,54,66.7,51.9l646.4-37.4
					c29.7-1.7,53.5-25.2,53.5-52.6l0,0C1949.1,780.5,1925.2,759.4,1895.5,760.6z"/>
				<path class="st4" d="M2055.6,754c-28.4,1.2-51.7,24.1-51.7,51.2c0,27.1,23.2,47.7,51.7,46c28.2-1.6,50.8-24.5,50.8-51.1
					C2106.4,773.4,2083.8,752.8,2055.6,754z"/>
			</g>
			<g>
				<path class="st4" d="M1460.5,256l-406.3-15.7c-22.1-0.9-40.1,13-40.1,31s18,33.1,40.1,33.7l406.3,11.9
					c19.5,0.6,35.2-12.5,35.2-29.3S1480,256.7,1460.5,256z"/>
				<path class="st4" d="M1566.4,260.1c-19-0.7-34.4,12.2-34.4,28.8c0,16.6,15.4,30.6,34.4,31.1c18.8,0.6,34-12.4,34-28.8
					C1600.4,274.7,1585.2,260.8,1566.4,260.1z"/>
				<path class="st4" d="M1646.1,267.6c-15.7-0.6-28.5,10.3-28.5,24.2c0,14,12.8,25.7,28.5,26.2c15.6,0.5,28.3-10.4,28.3-24.2
					C1674.3,279.9,1661.7,268.2,1646.1,267.6z"/>
				<path class="st4" d="M1723.8,274.9c-12.6-0.5-22.9,8.4-22.9,19.8c0,11.4,10.3,20.9,22.9,21.3c12.6,0.4,22.8-8.5,22.8-19.8
					C1746.6,284.9,1736.4,275.3,1723.8,274.9z"/>
				<path class="st4" d="M1799.6,282c-9.7-0.4-17.6,6.5-17.6,15.4c0,8.8,7.9,16.3,17.6,16.6c9.7,0.3,17.5-6.6,17.5-15.4
					C1817.1,289.8,1809.3,282.3,1799.6,282z"/>
			</g>
			<g>
				<linearGradient id="SVGID_1_" gradientUnits="userSpaceOnUse" x1="1991.1182" y1="469.0176" x2="-85.7945" y2="1875.0928">
					<stop  offset="0" style="stop-color:#AA80F9"/>
					<stop  offset="0.9964" style="stop-color:#6165D7"/>
				</linearGradient>
				<path class="st5" d="M1860.1,646.5l-356.7,8.1c-19.3,0.4-35.1,14.4-35.1,31.2l0,0c0,16.8,15.8,29.9,35.1,29.3l356.7-11.4
					c17.2-0.5,31-13.7,31-29.5l0,0C1891.1,658.5,1877.2,646.1,1860.1,646.5z"/>
				
					<linearGradient id="SVGID_00000170274874793384392740000013739931183806149045_" gradientUnits="userSpaceOnUse" x1="2004.4225" y1="637.9704" x2="1663.7754" y2="868.5893">
					<stop  offset="0" style="stop-color:#AA80F9"/>
					<stop  offset="0.9964" style="stop-color:#6165D7"/>
				</linearGradient>
				<path style="fill:url(#SVGID_00000170274874793384392740000013739931183806149045_);" d="M1953.5,644.4
					c-16.7,0.4-30.4,13.4-30.4,29c0,15.6,13.6,27.9,30.4,27.3c16.6-0.5,30.1-13.5,30.1-29C1983.5,656.3,1970.1,644,1953.5,644.4z"/>
				
					<linearGradient id="SVGID_00000025432500687832084490000012016348900456044931_" gradientUnits="userSpaceOnUse" x1="2066.3884" y1="641.7917" x2="1782.3137" y2="834.1111">
					<stop  offset="0" style="stop-color:#AA80F9"/>
					<stop  offset="0.9964" style="stop-color:#6165D7"/>
				</linearGradient>
				<path style="fill:url(#SVGID_00000025432500687832084490000012016348900456044931_);" d="M2023.9,646.9
					c-13.9,0.3-25.2,11.2-25.2,24.4c0,13.1,11.3,23.4,25.2,23c13.8-0.4,25-11.3,25-24.4C2048.9,656.9,2037.7,646.6,2023.9,646.9z"/>
				<path class="st8" d="M2092.7,649.4c-11.2,0.3-20.3,9.2-20.3,19.9c0,10.7,9.1,19.1,20.3,18.8c11.2-0.3,20.2-9.2,20.2-19.9
					C2112.8,657.6,2103.8,649.2,2092.7,649.4z"/>
				<path class="st8" d="M2159.9,651.9c-8.6,0.2-15.6,7.1-15.6,15.5s7,14.9,15.6,14.6c8.6-0.3,15.5-7.2,15.5-15.5
					S2168.5,651.7,2159.9,651.9z"/>
			</g>
		</g>
		<g class="st9">
			<path class="st3" d="M522.8,665.8l-373.5-18c-9-0.4-16.3,6.5-16.3,15.6v304.2c0,9,7.3,16,16.3,15.5l373.5-19.9
				c7-0.4,12.7-7.1,12.7-15.1V680.8C535.5,672.9,529.8,666.2,522.8,665.8z"/>
			<g class="st10">
				<path class="st0" d="M443.9,866.3c-46-19.2-80.1,20-122.2-4.5c-56.5-33-28.6-120.7-87.1-184.3c-8.6-9.4-19.5-18.7-33.5-27.1
					l-51.9-2.5c-9-0.4-16.3,6.5-16.3,15.6v304.2c0,9,7.3,16,16.3,15.5l362.5-19.3C497.7,915.2,476.1,879.7,443.9,866.3z"/>
			</g>
			<g class="st11">
				<path class="st0" d="M384.3,782.3l-7.9-0.1c-0.9-8-2.8-15.7-5.7-22.9l6.8-4.1c3.9-2.3,5.2-7.6,3-11.9l-1-1.8
					c-2.2-4.2-7.2-5.8-11.1-3.4l-6.9,4.1c-4.5-6.5-9.8-12.3-15.7-17.2l4-7.3c2.3-4.1,0.9-9.6-3-12.1l-1.7-1.1c-4-2.6-9-1.3-11.3,2.9
					l-4.1,7.3c-6.8-3.3-14.2-5.7-22-6.9v-8.7c0-4.9-3.8-9.1-8.5-9.2l-2.1-0.1c-4.7-0.2-8.5,3.7-8.5,8.7v8.8
					c-7.9,0.7-15.4,2.7-22.5,5.6l-4.2-7.7c-2.4-4.4-7.7-6.1-11.9-3.7l-1.8,1c-4.2,2.4-5.6,7.9-3.2,12.3l4.3,7.8
					c-6.4,4.8-12.1,10.5-16.9,17.1l-7.5-4.6c-4.3-2.6-9.7-1.2-12.2,3.1l-1.1,1.9c-2.5,4.3-1,10,3.3,12.6l7.5,4.6
					c-3.1,7.5-5.3,15.5-6.2,23.9l-8.7-0.1c-5,0-9,4.1-9,9.2v2.2c0,5.1,4,9.2,9,9.2l8.8,0c1,8.4,3.1,16.5,6.3,24l-7.5,4.5
					c-4.3,2.6-5.8,8.2-3.3,12.6l1.1,1.9c2.5,4.4,7.9,5.8,12.2,3.2l7.5-4.6c4.8,6.6,10.5,12.4,16.9,17.2l-4.3,7.7
					c-2.4,4.4-1,9.9,3.2,12.4l1.8,1.1c4.2,2.4,9.5,0.8,11.9-3.6l4.2-7.7c7.1,3,14.7,5,22.5,5.8v8.7c0,5,3.8,8.9,8.5,8.7l2.1-0.1
					c4.7-0.1,8.5-4.2,8.5-9.2v-8.7c7.7-1.1,15.1-3.4,22-6.7l4,7.4c2.3,4.2,7.4,5.5,11.3,3l1.7-1.1c3.9-2.5,5.3-7.9,3-12.1l-4-7.4
					c6-4.9,11.3-10.6,15.7-17.1l6.9,4.2c3.9,2.4,8.8,0.9,11.1-3.3l1-1.8c2.2-4.2,0.9-9.5-3-11.9l-6.8-4.2c2.8-7.2,4.8-14.9,5.6-22.9
					l7.9,0c4.4,0,8-3.9,8-8.7v-2.1C392.3,786.3,388.7,782.3,384.3,782.3z M298.4,854.1c-33.1,0.5-60.4-27.5-60.4-62.6
					s27.3-62.9,60.4-62c32.4,0.8,58.1,28.8,58.1,62.6S330.8,853.6,298.4,854.1z"/>
				<path class="st0" d="M478.4,874.1l-4.1,0.1c-0.5-4.3-1.5-8.4-3-12.2l3.5-2.3c2-1.3,2.7-4.2,1.5-6.4l-0.5-1
					c-1.2-2.2-3.7-3-5.8-1.6l-3.6,2.3c-2.3-3.4-5-6.4-8.1-8.9l2.1-4c1.2-2.3,0.5-5.1-1.6-6.4l-0.9-0.6c-2-1.3-4.6-0.5-5.8,1.8
					l-2.1,4c-3.5-1.6-7.3-2.7-11.2-3.2V831c0-2.6-1.9-4.7-4.3-4.7l-1,0c-2.4,0-4.3,2.2-4.3,4.8v4.6c-4,0.6-7.8,1.7-11.4,3.5l-2.1-4
					c-1.2-2.3-3.9-3-6-1.7l-0.9,0.6c-2.1,1.3-2.8,4.3-1.6,6.6l2.1,4c-3.2,2.7-6,5.8-8.4,9.3l-3.7-2.3c-2.1-1.3-4.8-0.5-6.1,1.9
					l-0.5,1c-1.2,2.3-0.5,5.3,1.6,6.6l3.7,2.3c-1.6,4-2.6,8.2-3.1,12.7l-4.3,0.1c-2.5,0.1-4.5,2.3-4.5,4.9v1.2c0,2.7,2,4.8,4.5,4.7
					l4.3-0.1c0.5,4.4,1.6,8.6,3.1,12.5l-3.7,2.5c-2.1,1.4-2.9,4.4-1.6,6.6l0.5,1c1.2,2.3,3.9,3,6.1,1.6l3.7-2.5
					c2.4,3.4,5.3,6.4,8.4,8.9l-2.1,4.1c-1.2,2.3-0.5,5.2,1.6,6.5l0.9,0.5c2.1,1.2,4.8,0.3,6-2l2.1-4.1c3.6,1.5,7.4,2.5,11.4,2.9v4.6
					c0,2.6,1.9,4.7,4.3,4.6l1,0c2.4-0.1,4.3-2.3,4.3-4.9V925c4-0.7,7.7-2,11.2-3.8l2.1,3.9c1.2,2.2,3.8,2.9,5.8,1.5l0.9-0.6
					c2-1.4,2.7-4.3,1.6-6.5l-2.1-3.9c3.1-2.7,5.8-5.8,8.1-9.3l3.6,2.2c2,1.2,4.6,0.4,5.8-1.9l0.5-1c1.2-2.3,0.5-5.1-1.5-6.4
					l-3.6-2.2c1.5-3.9,2.5-8,2.9-12.4l4.1-0.1c2.3-0.1,4.2-2.2,4.2-4.8v-1.1C482.6,876.1,480.8,874,478.4,874.1z M434.2,913.6
					c-16.7,0.6-30.4-13.9-30.4-32.4s13.7-33.6,30.4-33.8c16.5-0.2,29.8,14.3,29.8,32.4C464,897.8,450.7,913,434.2,913.6z"/>
			</g>
		</g>
		<g>
			<g>
				<path class="st3" d="M1232.5,1182.9c-18.4-6.1-32.2-21.7-36.1-41l-26.8-132.7l-229.3,8.1l-28.2,138.2
					c-4,19.4,11.9,38.8,30.1,45.9l95.9,37.5c17.8,7,37,9.8,56.1,8.1l202.8-17.3c5.9-0.5,10.7-5.2,11.4-11.1c0.7-6,4.8-12.7-0.8-14.6
					L1232.5,1182.9z"/>
				
					<linearGradient id="SVGID_00000182518332208843627750000013804423778696763798_" gradientUnits="userSpaceOnUse" x1="1114.8893" y1="1057.8483" x2="1114.8893" y2="1185.7172">
					<stop  offset="0.494" style="stop-color:#EBEFF2"/>
					<stop  offset="1" style="stop-color:#FFFFFF"/>
				</linearGradient>
				<path style="fill:url(#SVGID_00000182518332208843627750000013804423778696763798_);" d="M1234.7,1171.6
					c-18.4-6-32.2-21.5-36-40.4l-26.8-131l-223.7,8L920,1144.7c-3.9,19.1,6.5,38.3,24.7,45.3l95.8,37.1c17.8,6.9,37,9.6,56,8
					l202.6-17.1c5.9-0.5,10.7-5.1,11.4-11s-2.9-11.5-8.5-13.3L1234.7,1171.6z"/>
			</g>
			<g>
				<g>
					<path class="st8" d="M471.7,1097.5c-24.9,1.5-45.2-14.7-45.2-36V293.1c0-21.3,20.3-37.8,45.2-36.7l1150.1,49.8
						c18.3,0.8,33,16.2,33,34.3v653.6c0,18.1-14.8,33.8-33,34.9L471.7,1097.5z"/>
					<path class="st0" d="M482,1097.5c-24.9,1.5-45.2-14.7-45.2-36V293.1c0-21.3,20.3-37.8,45.2-36.7l1150.1,49.8
						c18.3,0.8,33,16.2,33,34.3v653.6c0,18.1-14.8,33.8-33,34.9L482,1097.5z"/>
					<path class="st13" d="M1632.1,321.6L482,274.3c-13.3-0.5-24.1,8.2-24.1,19.6v597.6v168.8c0,11.4,10.8,20,24.1,19.2l1150.1-66
						c9.8-0.6,17.7-8.9,17.7-18.6V845.5V339.9C1649.8,330.2,1641.9,322,1632.1,321.6z"/>
					<path class="st14" d="M482,1014.3c-5.2,0.3-9.4-3.1-9.4-7.6V294.5c0-4.4,4.2-7.9,9.4-7.7l1150.1,45.5c3.8,0.2,6.9,3.4,6.9,7.2
						v610.7c0,3.8-3.1,7-6.9,7.2L482,1014.3z"/>
				</g>
				<path class="st15" d="M1512,981.4c-96.8-59.9-29.2-230-137.8-315.5c-109.5-86.2-263.7,19.5-340.4-69.7
					c-57.1-66.5,9.7-146.7-44.8-209.2c-85.6-98-304.6,36.8-405.2-59.8c-14.3-13.7-28.7-34.5-36.9-67.9l-64.8-2.8
					c-24.9-1.1-45.2,15.4-45.2,36.7v768.4c0,21.3,20.3,37.5,45.2,36l1150.1-68.6c18.3-1.1,33-16.7,33-34.9v-11.6
					C1588.8,1008.4,1542.1,999.9,1512,981.4z"/>
			</g>
		</g>
		<g>
			<g>
				<path class="st16" d="M707.2,369.9v636.3c0,9,8.5,15.8,19.1,15.3l1018.3-48.8c8.2-0.4,14.9-7.1,14.9-15V397.1L707.2,369.9z"/>
				<path class="st17" d="M1744.5,366.4L726.2,336.1c-10.5-0.3-19.1,6.7-19.1,15.7v27.7l1052.2,26.1v-24.4
					C1759.4,373.3,1752.8,366.7,1744.5,366.4z"/>
				<path class="st0" d="M751.3,357.8c0,4-3.8,7.1-8.4,7c-4.7-0.1-8.4-3.4-8.4-7.4c0-4,3.8-7.1,8.4-7
					C747.5,350.6,751.3,353.9,751.3,357.8z"/>
			</g>
			<g>
				<g>
					<path class="st0" d="M787.3,549.4c-9.2,4.8-18.1,15.3-16.1,26.8c2.1,11.7,14.4,19.1,24.1,21.5c13.7,3.4,18.2-4.1,32.9-3
						c22.2,1.6,39.4,20.8,46.6,34.9c7.1,13.9,1.6,17.3,6.1,33.3c8,28.1,32.8,45.2,56.4,61.4c19.6,13.5,49.5,29.6,54.9,24.7
						c1.9-1.8,0.2-5.8-0.9-8.2c-4.1-9.6-13.6-11.7-26.5-20.6c-9.2-6.3-20.8-14.3-18.9-20.8c1.9-6.4,16.5-10.5,27.5-7.8
						c10.9,2.7,16.8,11.8,19.6,16.3c2.4,3.8,2,8.7,4.3,8.9c1.5,0.1,3.3-1.9,4-3.6c2-4.5-1.5-8.7-2.8-12.1c-2.9-7.9,4-16.5,10.9-25
						c11.5-14.3,18.3-14.5,36-31.1c11.9-11.1,17.8-16.8,18.5-24.8c1.1-13.8-12.3-24-14.5-25.7c-10.9-8.3-29.3-14-37.1-8
						c-7.1,5.4,0.4,15.6-7.9,23.4c-5.8,5.5-15.9,6.6-23.8,4.5c-11.2-2.9-17.6-12.1-18.3-20.5c-0.1-1.6-0.7-9.3,5.1-14.5
						c1.7-1.5,5.7-4.5,19.4-5c19.1-0.7,23.1,4.8,34.5,2.6c9.5-1.8,21-8.4,20.8-14.8c-0.2-7.6-16.1-8.4-34.4-25.6
						c-7.1-6.7-12.9-12.3-12.5-19.5c0.6-10.2,13.3-18.2,15.9-19.8c9.9-6.2,18.6-11.2,18.6-11.2c2.5-1.4,6-3.4,5.6-5.4
						c-0.3-1.3-2.2-2.2-5.6-3.1c-10.9-2.8-19.2-1.3-19.2-1.3c-12.9,2.3-17.1,7.8-32.9,15c-6.4,2.9-17.2,7.9-32,10.6
						c-16.9,3.1-22.7,0.4-31.1,5.7c-8.1,5.1-5.6,9.5-13.9,17.5c-8.7,8.4-19.5,11.1-36.1,15.4c-6.4,1.6-19.3,4.6-37,5.9
						C802.3,548.1,797,544.4,787.3,549.4z"/>
					<path class="st0" d="M1062.9,484.3c-17.5,3.8-32.7,7.2-35.9,16.4c-1.7,4.8-0.1,11.4,4.5,15c9.2,7,23-3.8,33.1,2.3
						c5.4,3.3,3.3,7.5,9.5,31.2c4.1,15.8,7.5,23.4,13.9,30.2c3.7,3.9,8.8,9.3,13.9,8.4c7.5-1.3,4.7-14.6,16.6-24.1
						c4.2-3.3,4.9-2,24.7-10.2c11.5-4.8,17.3-7.2,18.6-9.2c6.5-10.3-10.8-23-3.8-35.3c1.3-2.3,1.5-1.1,10.4-10.6
						c10.2-11,10.1-12.7,9.8-13.6c-1.1-3.6-8.7-4-28.4-6.3c-32.7-3.8-35.4-5.5-45.1-3.6c-6.5,1.3-8.2,2.6-22.2,5.6
						C1071.5,483,1070.3,482.7,1062.9,484.3z"/>
					<path class="st0" d="M1018.6,748.4c-9.7,6.4-11.6,17.2-12.4,21.6c-1.9,10.9,1.7,17.9,8.5,35.7c8.2,21.6,12.4,32.3,13,38.5
						c1,9.5-1,11.2-9,49c-5.9,28.1-6.6,35.4-1.1,40.3c8,7.3,25.2,5.9,25.9,3.9c0.3-0.9-3.4-1.6-6.2-4.7c-6.2-6.9-1.7-18.7-0.6-21.8
						c4.7-12.3,13.6-17.8,28-30.2c17-14.7,28-24.2,36.1-38.2c4-6.9,12.6-22.2,10-41.6c-0.5-3.9-2.8-17.2-13.8-30.2
						c-14.4-17-33.8-22.1-39.5-23.5C1046.2,744.5,1030.4,740.6,1018.6,748.4z"/>
					<path class="st0" d="M1182.9,677.7c-6.2,10.5-13.1,22.2-15.8,32.9c-2.4,9.6-4.7,31.3,7.6,39.5c11.1,7.4,24-3.1,39.5,5.1
						c7.9,4.2,11.4,10.5,15.6,18.1c9,16.4,4.7,25.6,8.6,46.8c1.8,10,7.6,41.6,21.9,43.4c11.9,1.5,24.9-18.3,27.1-21.6
						c5.8-8.8,8-17.8,12.2-35.5c5.6-23.8,3.5-27.1,9.5-33.9c7.6-8.7,16.9-9.9,18.9-18.1c1.5-6.1-2.1-11.5-4.2-14.8
						c-7.9-12.3-18.9-10.8-26.3-22.6c-4.3-6.8-5.4-15-3.7-15.8c1.5-0.7,5.8,4.2,7.9,6.6c6.4,7.4,5.6,10.1,9.5,13.8
						c7.8,7.5,21.1,6,22,5.9c6.1-0.8,16.9-4,18.3-10.3c1-4.9-3.9-10-9.9-16.1c-4.8-5-8.4-7.1-7.8-8c0.6-1,4.9,0.2,16.2,3.6
						c12.3,3.7,18.4,5.5,19.2,6c4.1,2.1,7.6,4.9,19.2,22.1c11.7,17.4,15.9,26.1,18.5,25.4c1.3-0.4,1.1-2.8,2.1-11
						c1.4-12.2,2.2-18.4,5.6-22.9c2.9-3.8,9-8.9,15.4-8.3c3.8,0.4,8.4,5.7,17.3,16.3c8.8,10.4,11.8,14,17.8,16.7
						c3.1,1.4,8.7,4,13.2,1.7c4.9-2.6,6.6-10.2,4.5-15.6c-2.5-6.6-9.3-7.1-9.1-11.2c0.3-5.8,14.4-9.8,15.6-10.1
						c9.1-2.5,11.4,0.2,16.1-2.6c6.9-4,9.8-14.5,8-22.6c-1.8-8.3-7.9-11.3-6-14.9c1.5-3,6.4-2,16-4.3c7.1-1.7,17.7-4.3,23.4-11.9
						c3.4-4.5,4-9.3,5-16.8c0.2-1.2,0.8-7,0-14.9c-1.2-11-3.7-11.7-2.5-14.9c2.7-7,15.6-5.1,40-11.6c13.9-3.7,24-8.2,25-6.5
						c1.2,2.2-15,8.4-16.1,19.9c-0.8,8.7,7.3,17.5,10.8,16.7c2.8-0.7,0.8-7.6,5.9-17.6c1.9-3.7,4.7-9.3,10.7-12.9
						c7.2-4.4,11.5-1.3,18-6c5.2-3.7,3.9-6.7,8.2-10.6c9.8-8.9,26.4-2.6,27.5-5.9c1-3-11.8-12.6-28.4-14.8c-14.8-2-17.1,4-34,4
						c-9.6,0-21.3-3.6-44.7-10.9c-13.2-4.1-20.2-6.9-32.2-7.7c-8.4-0.5-8.7,0.6-17.4-0.1c-10-0.9-22.4-1.9-32.1-9.6
						c-7.6-6.1-5.3-9.6-11.6-13.3c-10.2-5.9-24.1-1.2-36,2.9c-12.6,4.4-21.6,9.9-36.9,19.1c-17.8,10.8-23.7,16.1-33.6,15
						c-7.4-0.8-8.9-4.4-17.1-4.4c-6.7,0-8.8,2.3-22.4,7.5c-13.2,5.1-20,7.6-25.7,6.6c-8.9-1.5-9.3-7.2-19-10.7
						c-10.4-3.8-20.3-1.1-32.4,2.2c-15,4.1-29.8,8.1-37,19.7c-7.6,12.3-0.6,23.2-9.2,28.7c-7.1,4.6-14.5-1.3-21.1,3.4
						c-8,5.7-5.6,20.2-4.3,27.8c2.5,15,8.6,18.7,6.5,29.2C1189.6,667.7,1188,669.1,1182.9,677.7z"/>
					<path class="st0" d="M1328,801c-3.7-0.3-9.9,13.4-8.4,26.1c0.1,0.8,1.3,10.6,4.7,10.9c3.2,0.2,6.5-8,6.8-8.8
						c0.6-1.4,2.2-6,1.6-13.5C1332.5,813.6,1331.5,801.2,1328,801z"/>
					<path class="st0" d="M1459.5,767.1c-0.3,0.6,0.8,1.6,3.6,3.6c7.6,5.4,11.4,8.2,17.6,10c5.4,1.6,18.8,4.5,21.6,0
						c1.8-2.9-0.8-8.6-5-11.2c-4.5-2.8-7.9-0.2-18.6-0.5C1467.6,768.7,1460.2,765.6,1459.5,767.1z"/>
					<path class="st0" d="M1497.4,741.9c-2.2,0.4-1.7,4.4-6,13.3c-2,4.1-3.2,5.2-2.5,6.6c1.4,3.1,9.9,4.4,14.1,0.7
						c3.9-3.5,2.1-9.6,1.5-11.8C1503.2,746.6,1500,741.4,1497.4,741.9z"/>
					<path class="st0" d="M1542.4,775.2c1.7,2.2,4.5,5,11.4,7.7c2.4,0.9,20.2,7.9,24.7,2.2c1.8-2.3,0.9-6.1-0.5-8.4
						c-2.2-3.5-6.2-4.3-12.8-5.8c-19.7-4.5-24.2-6.7-25.8-4.6C1537.6,768.8,1541.5,773.9,1542.4,775.2z"/>
					<path class="st0" d="M1509,725.3c-2.4,0.7-2.2,10.8,2,18.7c2.2,4.1,6.2,9,8,8.3c2-0.8,1-7.9-0.5-12.6
						C1516.3,732.5,1511.2,724.6,1509,725.3z"/>
					<path class="st0" d="M1528,677.7c0-2.4,6.3-1.8,14.4-6.7c5.7-3.4,14-10.3,18.4-19.7c0.9-1.9,1.8-4.3,2.5-4.2
						c1,0.2,1.1,6.1,0,11.2c-2.1,9.5-8.8,18-17.3,22.1c-3.4,1.6-5.9,2-8,2C1533.3,682.2,1527.9,679.9,1528,677.7z"/>
					<path class="st0" d="M1511,815.2c-11,9.1-17,7.7-18.6,12.7c-1.8,5.7,5.7,8.1,7,19.5c0.8,7.1-1.5,11.2,0.5,12.2
						c3,1.5,7.9-8.1,19.5-11.9c0.9-0.3,13-4.1,22.9,1.2c5.7,3.1,5,6.1,14.4,13.5c6,4.7,9.1,7.1,12.9,6.6c6.2-0.9,9.7-9.2,11.8-14.3
						c1.8-4.2,5.8-13.9,3-25.2c-1.3-4.9-2.2-3.7-19.2-26c-4.7-6.2-6.6-8.8-10.9-10.4c-8.7-3.3-18.3,1.2-19.9,1.9
						c-3.4,1.6-6.4,4.3-12.5,9.7C1514.8,811,1515.3,811.6,1511,815.2z"/>
				</g>
				<path class="st3" d="M1064.4,709.5c-22.3,0.3-40.4,16.6-40.4,36.3c0,12.8,17,42.3,29,61.3c5,7.9,17.9,7.6,22.9-0.6
					c11.8-19.6,28.6-49.5,28.6-62.2C1104.5,724.8,1086.6,709.2,1064.4,709.5z M1064.4,764.3c-11.9,0.2-21.6-8.2-21.6-18.8
					s9.7-19.3,21.6-19.5c11.9-0.2,21.5,8.2,21.5,18.8C1086,755.3,1076.3,764,1064.4,764.3z"/>
				<path class="st3" d="M943.3,467.6c-35.1-0.5-63.7,24-63.7,54.7c0,19.9,26.9,66.3,45.7,96.3c7.8,12.4,28.2,12.4,36-0.1
					c18.6-29.8,44.8-75.5,44.8-95.1C1006.1,493.1,978.1,468.1,943.3,467.6z M943.3,552.5c-18.8-0.1-34.1-13.5-34.1-30
					c0-16.4,15.3-29.6,34.1-29.4c18.7,0.2,33.8,13.6,33.8,30C977.1,539.4,962,552.6,943.3,552.5z"/>
			</g>
		</g>
		<g>
			<path class="st18" d="M1710.3,576v155.9c0,5.2,4.4,9.4,9.8,9.4l320.7,1.8c5,0,9-4,9-8.9V585.1L1710.3,576z"/>
			<path class="st3" d="M2040.8,565.9l-320.7-9.4c-5.4-0.2-9.8,3.9-9.8,9.1v16l339.5,8.8v-15.3
				C2049.8,570.2,2045.8,566,2040.8,565.9z"/>
			<g>
				<g>
					<g>
						<path class="st3" d="M1790.1,660.2l17.9-60c27,9.1,46.4,33.9,46.6,62.7L1790.1,660.2z"/>
					</g>
					<g>
						<path class="st0" d="M1838,666.5c-1,13.7-7.8,25.8-18.1,34l-28-36L1838,666.5z"/>
						<path class="st0" d="M1786.1,658.1c-10.9-10.2-24-22.6-34.4-32.5c9.3-8.3,21.8-13.2,35.5-12.9c4.2,0.1,8.2,0.7,12,1.6
							L1786.1,658.1z"/>
						<path class="st0" d="M1783.9,661.8l-39.5,27.4c-5.5-8-8.8-17.6-8.8-27.9c0-12.7,4.9-24.1,13-32.8c2.9,2.7,6.1,5.8,9.6,9.1
							C1768.9,647.8,1779.6,657.9,1783.9,661.8z"/>
						<path class="st0" d="M1785,666.3l-0.8,45.3c-15-1-28.3-8.1-37.2-18.9L1785,666.3z"/>
						<path class="st0" d="M1789.4,668.3l27.1,34.8c-7.9,5.3-17.5,8.4-27.8,8.6L1789.4,668.3z"/>
					</g>
				</g>
				<polygon class="st0" points="2026.5,633 1863.7,629.7 1863.7,614.5 2026.5,618.1 				"/>
				<polygon class="st0" points="2026.5,660 1863.7,657.3 1863.7,642.1 2026.5,645.1 				"/>
				<polygon class="st0" points="2026.5,687 1863.7,684.9 1863.7,669.7 2026.5,672.1 				"/>
				<polygon class="st0" points="2026.5,714.1 1863.7,712.5 1863.7,697.2 2026.5,699.1 				"/>
			</g>
			<path class="st0" d="M1732.8,569.3c0,2.3-1.9,4.1-4.3,4c-2.4-0.1-4.3-2-4.3-4.3c0-2.3,1.9-4.1,4.3-4
				C1730.8,565.1,1732.8,567,1732.8,569.3z"/>
		</g>
		<g>
			<g>
				<path class="st18" d="M1710.3,787.3v155.9c0,5.2,4.4,9.3,9.8,9.2l320.7-6.8c5-0.1,9-4.2,9-9.2V787.2L1710.3,787.3z"/>
				<path class="st3" d="M2040.8,768.3l-320.7-0.8c-5.4,0-9.8,4.2-9.8,9.3v16l339.5-0.3v-15.3
					C2049.8,772.3,2045.8,768.3,2040.8,768.3z"/>
				<path class="st0" d="M1732.8,780c0,2.3-1.9,4.2-4.3,4.2c-2.4,0-4.3-1.9-4.3-4.2s1.9-4.2,4.3-4.2
					C1730.8,775.8,1732.8,777.7,1732.8,780z"/>
			</g>
			<g>
				<polygon class="st0" points="1777.8,930.7 1753.1,931.2 1753.1,814.9 1777.8,814.8 				"/>
				<polygon class="st3" points="1777.8,930.7 1753.1,931.2 1753.1,876 1777.8,875.7 				"/>
				<polygon class="st0" points="1811.8,930.1 1787.4,930.6 1787.4,814.7 1811.8,814.7 				"/>
				<polygon class="st3" points="1811.8,930.1 1787.4,930.6 1787.4,903.1 1811.8,902.7 				"/>
				<polygon class="st0" points="1845.6,929.5 1821.4,929.9 1821.4,814.6 1845.6,814.5 				"/>
				<polygon class="st3" points="1845.6,929.5 1821.4,929.9 1821.4,915.6 1845.6,915.2 				"/>
				<polygon class="st0" points="1879.1,928.9 1855.1,929.3 1855.1,814.5 1879.1,814.4 				"/>
				<polygon class="st3" points="1879.1,928.9 1855.1,929.3 1855.1,839.4 1879.1,839.2 				"/>
				<polygon class="st0" points="1912.3,928.3 1888.5,928.7 1888.5,814.4 1912.3,814.3 				"/>
				<polygon class="st3" points="1912.3,928.3 1888.5,928.7 1888.5,849.3 1912.3,849.1 				"/>
				<polygon class="st0" points="1945.2,927.6 1921.6,928.1 1921.6,814.3 1945.2,814.2 				"/>
				<polygon class="st3" points="1945.2,927.6 1921.6,928.1 1921.6,830.8 1945.2,830.7 				"/>
				<polygon class="st0" points="1977.9,927 1954.4,927.5 1954.4,814.1 1977.9,814 				"/>
				<polygon class="st3" points="1977.9,927 1954.4,927.5 1954.4,857.9 1977.9,857.6 				"/>
				<polygon class="st0" points="2010.2,926.4 1987,926.9 1987,814 2010.2,813.9 				"/>
				
					<linearGradient id="SVGID_00000166635864898210819930000011155214203182977187_" gradientUnits="userSpaceOnUse" x1="2008.0645" y1="877.5798" x2="1985.6432" y2="947.5498">
					<stop  offset="0" style="stop-color:#FF9085"/>
					<stop  offset="1" style="stop-color:#FB6FBB"/>
				</linearGradient>
				<polygon style="fill:url(#SVGID_00000166635864898210819930000011155214203182977187_);" points="2010.2,926.4 1987,926.9 
					1987,887.7 2010.2,887.4 				"/>
			</g>
		</g>
		<g>
			<path class="st0" d="M703,1381.5c0.4,0.3,7.4,9.7,10.5,15.9l8.7-4.7c0,0-4.9-1.7-7.4-11.2C712.4,1372,703,1381.5,703,1381.5z"/>
			<path class="st4" d="M725.9,1403c0,0-5.4,1.8-7.7,2l-0.2,0c-1.3,0.1-2.5-0.5-3.3-1.5c-1.3-1.8-3.3-4.5-3.3-5.3
				c-0.1-1.2,3.1-3.6,5.9-4.6c2.8-1,3.5-2.4,8.7-6.6c5.2-4.2,14-9.1,18.1-5.3C748,1385.6,744.2,1395,725.9,1403z"/>
			<path class="st4" d="M740.9,1382.4c-4.5,1.8-5.9,6.9-13.7,12c-4.4,2.9-9.9,5.6-13.8,7.4c-1.1-1.5-2-3-2.1-3.6
				c-0.1-1.2,3.1-3.6,5.9-4.6c2.8-1,3.5-2.4,8.7-6.6c5.2-4.1,14-9.1,18.1-5.3c1,1,1.6,2.3,1.5,3.9
				C744.6,1383.5,743.2,1381.5,740.9,1382.4z"/>
			<path class="st8" d="M651.3,1126.1c14,28.1,28.2,61.8,39.9,100.9c17.5,58.2,24.2,110.6,26.4,152.2c-5,2.1-10,4.1-15,6.2
				c-9.8-6.2-24.2-17.2-34.8-35.1c-17.4-29.2-5.1-44.1-19.2-79.2c-13.7-34.1-31-34.7-46-71.7c-9-22.1-11-42.2-11.4-55.3
				C611.3,1138.1,631.3,1132.1,651.3,1126.1z"/>
			<path class="st4" d="M432,1331.9c0,0-3.7,1.4-5.3,6.5c-1.6,5.2,1,26.6,3.4,31.8c2.3,5.3,9.2,4,11.2,0c2-4-0.8-32.4-0.8-32.4
				L432,1331.9z"/>
			<path class="st8" d="M649.1,1138.8c-16.2,22-27.4,41.1-34.7,54.4c-15.3,28.2-18.8,41.7-36.8,67.9c-16.7,24.2-27.7,32.9-32.1,36.3
				c-10.8,8.1-19.8,11.7-42.8,20.4c-20.1,7.6-41.4,15.5-63.8,23.5c-4,0.4-5.6-1.3-6.7-4.9c0.4-17.1,5.5-27.6,9.8-33.8
				c9.1-13.2,18.6-13.3,46.8-33.3c15.1-10.7,22.7-16.2,29.1-24.9c3.1-4.2,8.1-12,16-41.4c3.2-12.1,7.1-28.4,10.4-48.1
				C579.3,1149.6,614.2,1144.2,649.1,1138.8z"/>
			<path class="st0" d="M674.7,928.1c0,0-5.4-3.4-2.6-11.2c2.8-7.8,9.7-20.4,3.6-28.3c0,0,0.3,13.2-3.9,14.6
				c-4.2,1.4-5.4,5.1-5.4,5.1s-5.6,10.3,0.6,19.6c6.1,9.3,6.1,9.3,6.1,9.3L674.7,928.1z"/>
			<path class="st0" d="M546.2,888.1c0,0,4.9-2.7,6.3-6.1c1.4-3.4,1.4-8.8-3.4-11.6c-4.9-2.8-5.9-5.7-7.7-7.9
				c-1.8-2.3-5.8-3.1-5.8-3.1s7.2,13.3,8.1,15.5c0.9,2.2,4.4,2.5,0,8.7L546.2,888.1z"/>
			<path class="st4" d="M670,986.6c-12.1,2.4-28.8,4.2-48.4,1.9c-34.1-4-58.8-18.4-71.5-27.3c-14,30.5-14.3,53-11.8,68.2
				c1.8,11.2,4.6,14.9,4.8,27.4c0.4,21.1-7.1,24.3-10.7,51.6c-2.9,22.5,1.3,27.5-5.3,36.8c-4.7,6.7-11,10.1-14.7,20.6
				c-1.2,3.5-4.3,12.2-1,15c5.2,4.5,18.2-13.4,42.4-15.8c12.9-1.3,14.9,3.2,28.3,0.7c14.6-2.8,13.6-8.4,27.3-11.2
				c13.6-2.7,17.7,2.2,38.5-0.3c8.7-1,13.1-1.6,15.9-4c8.8-7.8,1.5-23.5-0.1-48c-1.6-24.2,4.4-25.8,6.9-61.9
				C671.5,1027.7,672,1009.3,670,986.6z"/>
			<path class="st4" d="M552.5,887.4c-2.7-3.1-5.5-6.1-8.2-9.2c-11.5,6.2-29.2,17.6-45.2,37c-12,14.5-22.5,27.3-23.7,46
				c-1.6,26.7,17.3,46.6,26,55.9c17.3,18.3,37.3,26,48.7,29.3c22.1-49.1,18.8-68.3,11-76.5c-4.4-4.6-10.2-5.8-15.6-14.3
				c-7.5-11.8-6.2-25.1-5.3-33.5C541.8,906.5,547.9,894.6,552.5,887.4z"/>
			<g>
				<path class="st0" d="M619,962.9c0.6,3.3,1,10.6-3.4,16.3c-3.9,5-9.8,6.5-12.2,7.2c-5.7,1.5-8.8,0.3-9.1,1.3
					c-0.7,2.2,13.4,11.9,29.7,11.3c9.6-0.4,19.2-4.2,19.1-7.3c-0.1-3.4-12.4-3.1-15.4-10.2c-1.9-4.6,0.7-10.2,3.6-14.6
					C628.6,963.8,621.6,966,619,962.9z"/>
				<g>
					<path class="st4" d="M635.6,963.5c1.8-2.3,2-6.2-0.1-8.6c-1.8-2-4.6-2.2-6.3-2.3c-4.9-0.3-11.1,1.8-13.3,6.1
						c-1.3,2.5,1.4,7.6,1.8,8.5c0.5,1,1.4,1.4,2.2,2.1c1.1,1.1,2.9,2.7,5.8,5.5c0.2-0.9,0.6-2,1.2-3.1c0.2-0.5,1.1-2.2,2.4-3.7
						C631.8,964.9,633.8,965.7,635.6,963.5z"/>
					<path class="st0" d="M621.5,972.5c0,0,3.2,4.8,9.6,4.1c5.7-0.6,6.7-12.6,3.1-14.9c-1.2-0.8-3.7-1-5.7-0.4
						c-1.2,0.4-1.6,0.8-3.5,1.4c-1.8,0.5-2.3,0.3-2.8,0.8c-0.7,0.6-1.2,1.9-0.1,5.3c-1.1-1-2.4-1.3-3.3-0.9
						c-0.2,0.1-0.5,0.3-0.8,0.7C617.1,969.9,618.5,971.6,621.5,972.5z"/>
				</g>
			</g>
			<g>
				<path class="st3" d="M510.7,667.8c-46.4,29.3-60.3,90.6-31,137c19,30.1,98.4,77.8,151.9,107.6c22.3,12.4,49.4-4.7,47.8-30.2
					c-3.9-61.2-12.7-153.4-31.7-183.5C618.4,652.4,557.1,638.5,510.7,667.8z M592.1,797c-24.9,15.7-57.9,8.3-73.6-16.7
					c-15.7-24.9-8.3-57.9,16.7-73.6c24.9-15.7,57.9-8.3,73.6,16.7C624.5,748.3,617,781.2,592.1,797z"/>
			</g>
			<path class="st4" d="M664.8,937.7c3.9-4.3,7.8-8.6,11.7-12.9c7.5-0.3,50.6-1.3,81.9,31.6c16.2,17,37.3,50.2,25.8,70.2
				c-3.3,5.7-8.5,9-70.2,19.9c-44.6,7.8-52.3,7.9-58.5,2.3c-16.5-14.9-2.7-53.2-1.2-57.4c3.5-1.5,8.7-3.3,15.2-4.7
				c28.2-5.9,47.9,5.1,50.3,1.2C721.7,984.9,711.9,973.2,664.8,937.7z"/>
		</g>
		<g>
			<g>
				<path class="st20" d="M247.9,263.3v212.2c0,7,5.7,12.8,12.7,12.8H660c5.9,0,10.7-5.2,10.7-11.7V282.5L247.9,263.3z"/>
				<path class="st3" d="M660,257.3l-399.4-20.3c-7-0.4-12.7,5.1-12.7,12.1v21.7l422.8,18.5v-19.9
					C670.7,263.1,665.9,257.6,660,257.3z"/>
				<path class="st0" d="M277.4,254.4c0,3.1-2.5,5.5-5.6,5.4c-3.1-0.1-5.6-2.8-5.6-5.9c0-3.1,2.5-5.5,5.6-5.4
					C274.9,248.6,277.4,251.2,277.4,254.4z"/>
			</g>
			<g>
				<path class="st4" d="M314.5,368.8c3.8-7.2,11-12.2,19.3-12.9l0.6-35.9c-23.9,0.1-44.4,14.4-53.6,35.4L314.5,368.8z"/>
				<path class="st0" d="M340.5,356.2c11.3,2,20.1,11.7,21.1,23.4l34.7,2.2c-0.4-31.6-24.5-58.2-55.2-61.5L340.5,356.2z"/>
				<path class="st0" d="M361.4,386.3c-2,11.9-12.3,20.8-24.6,20.6c-3.6-0.1-7.1-0.9-10.3-2.4L307.8,435c8.6,4.9,18.5,7.7,29,7.8
					c31.1,0.3,56.4-23.5,59.3-54.2L361.4,386.3z"/>
				<path class="st0" d="M302.1,431.3l18.7-30.5c-5.7-4.8-9.3-12-9.3-20c0-1.9,0.2-3.8,0.6-5.6l-33.7-13.4
					c-1.8,5.7-2.7,11.9-2.7,18.2C275.8,401.1,286.2,419.9,302.1,431.3z"/>
			</g>
			<g>
				<path class="st0" d="M443.5,372c3.6-7,10.4-11.9,18.3-12.6l0.6-35c-22.6,0.1-42.1,14.1-50.8,34.5L443.5,372z"/>
				<path class="st8" d="M468.2,359.6c10.7,2,19,11.3,20,22.8l32.9,2.2c-0.4-30.8-23.2-56.7-52.4-59.8L468.2,359.6z"/>
				<path class="st0" d="M488,389c-1.9,11.6-11.6,20.3-23.3,20.1c-3.5-0.1-6.8-0.9-9.7-2.3l-17.7,29.6c8.2,4.7,17.5,7.5,27.5,7.5
					c29.5,0.3,53.5-22.9,56.2-52.8L488,389z"/>
				<path class="st0" d="M431.7,432.8l17.8-29.7c-5.4-4.7-8.8-11.7-8.8-19.5c0-1.9,0.2-3.7,0.6-5.5l-31.9-13
					c-1.7,5.6-2.6,11.6-2.6,17.8C406.8,403.4,416.6,421.7,431.7,432.8z"/>
			</g>
			<g>
				<path class="st0" d="M565.8,374.9c3.4-6.8,9.9-11.6,17.4-12.3l0.5-34.1c-21.5,0.1-40,13.8-48.2,33.7L565.8,374.9z"/>
				<path class="st0" d="M589.3,362.9c10.2,1.9,18.1,11,19,22.2l31.2,2.1c-0.4-30-22.1-55.2-49.7-58.3L589.3,362.9z"/>
				<path class="st0" d="M608.1,391.5c-1.8,11.3-11,19.8-22.2,19.6c-3.3-0.1-6.4-0.9-9.2-2.3l-16.8,28.9c7.8,4.6,16.7,7.3,26.1,7.3
					c28,0.3,50.8-22.4,53.4-51.5L608.1,391.5z"/>
				<path class="st4" d="M554.6,434.2l16.9-28.9c-5.1-4.6-8.3-11.4-8.3-19c0-1.8,0.2-3.6,0.6-5.3l-30.3-12.7
					c-1.6,5.4-2.5,11.3-2.5,17.3C531,405.6,540.4,423.4,554.6,434.2z"/>
			</g>
		</g>
		<g>
			<g>
				<ellipse class="st8" cx="1352.6" cy="1265.2" rx="68.5" ry="27.9"/>
				<path class="st14" d="M1284.1,1262c0,14.6,30.7,26.4,68.5,26.4c37.8,0,68.5-11.8,68.5-26.4c0-14.6-30.7-38.4-68.5-38.4
					C1314.8,1223.6,1284.1,1247.4,1284.1,1262z"/>
				<path class="st21" d="M1284.1,1262c0-14.6,30.7-38.4,68.5-38.4c17.5,0,33.4,5.1,45.5,12c0.8,1.8,1.2,3.5,1.1,5.2
					c-0.8,8.2-14.2,13.2-21.8,14.9c-19.3,4.2-28.8-7.4-44.7-6.9c-9.8,0.3-23.5,5.2-39.7,26.2
					C1287.4,1271.1,1284.1,1266.7,1284.1,1262z"/>
				<path class="st14" d="M1348.9,1241.8c2.7,0.7,5.3,0.7,7.7,0c2.2-0.6,3.7-2.6,3.7-4.8v-65.7H1345v65.6
					C1345,1239.3,1346.6,1241.2,1348.9,1241.8z"/>
				<g>
					<path class="st3" d="M1433,1152.2l-23.3-14.7c-1-5.5-1.3-199.2-45.8-217.2c-18.1-7.3-65.4,1.5-76.1,2
						c-21.3,1-36.6,1.6-43.9,11.8c-9.4,13.1,23.5,153.2,20.3,190.6c-1.3,15.2-4.7,22-0.5,32.1c5.1,12.1,16.8,18.8,25.9,22.6
						c10.9,6.3,29.8,15.3,54.9,17.5c42.2,3.7,73.7-14.4,84.5-21.3c4.8-1.5,8.4-5.5,9.5-10.5C1439.6,1160,1437.4,1154.9,1433,1152.2z
						"/>
					<path class="st17" d="M1283.2,925.3c-15.8,0.5-25.6,0.3-31,7.3c-5.7,7.4,17.2,142,18.3,168.3c1,24-3.3,33.5,4.5,46.8
						c0,0,3.9,6.8,10.2,11.8c22,17.9,78.7,17.7,102.6-19.7c19.1-29.9-6-202.2-28.4-216.8C1348.4,915.9,1345.9,923.4,1283.2,925.3z"
						/>
					<path class="st17" d="M1434.7,1139l-23.3-14.7c0,0-62.3-20.5-119.9,8.4c-6.5,3.2-10.5,9.9-10.5,17.1c0,5.5,3.3,10.5,8.4,12.7
						c10.1,6.9,29.7,18.2,56.7,21.2c43,4.7,75-15,84.5-21.3c4.8-1.5,8.4-5.5,9.5-10.5C1441.2,1146.8,1439.1,1141.7,1434.7,1139z"/>
				</g>
				<g>
					<g>
						<path class="st17" d="M1536.1,1321.5l-19.9-11.9h-9c0,0-3.1,11.4-2.7,11.9c4,6.5,22.6,11.5,34.2,11.9c1.9,0.1,4.6,0.1,5.3-1.3
							C1545.3,1329.7,1540,1324.8,1536.1,1321.5z"/>
						<path class="st0" d="M1515.9,1296.5c0,7,0.3,11.9,2,14c1.2,1.5-10.6,4.9-10.6-1c0-3.9-0.7-10.6-1.3-12.6
							C1509.3,1296.8,1512.6,1296.7,1515.9,1296.5z"/>
					</g>
					<g>
						<path class="st17" d="M1462.3,1338.2l-19.9-11.9h-9c0,0-3.1,11.4-2.7,11.9c4,6.5,22.6,11.5,34.2,11.9c1.9,0.1,4.6,0.1,5.3-1.3
							C1471.4,1346.5,1466.2,1341.5,1462.3,1338.2z"/>
						<path class="st0" d="M1442.1,1313.3c0,7,0.3,11.9,2,14c1.2,1.5-10.6,4.9-10.6-1c0-3.9-0.7-10.6-1.3-12.6
							C1435.5,1313.6,1438.8,1313.4,1442.1,1313.3z"/>
					</g>
					<path class="st4" d="M1516.7,1302.3c5.6-33.9,0.1-70.1-1.1-89.6c-2-31-3.1-46.5-12-59.5c-11.7-17-35.8-34.1-56.1-48.5
						c-1.8-1.2-5.3-3.7-9.7-7.6c-10.9-9.7-17.9-20-22-27.2c-46-13.5-88.3-8-107,16.6c-2.2,2.8-7.6,9-8.6,18.1
						c-2.4,20.6,17.8,45.3,40.5,50.5c28.8,6.6,45.5-23,71-13.2c2.5,1,10.1,8.5,25.3,23.2c11.1,10.7,16.6,16,18.4,18.1
						c16.3,19.6,26,49.7,27.2,73.1c0.2,4.1,0.4,12.8,5.4,22.1c3.8,7.1,14.3,20,18.2,23C1509.6,1301.8,1513.1,1302,1516.7,1302.3z"/>
					<path class="st4" d="M1430.7,1319c0,0,9.8,4.6,17.1,0c-0.2-12.3-0.3-31.5,1.3-55.1c3.4-51.5,10.7-67.1,4.3-89.1
						c-4.7-15.9-17.2-37.5-54.2-57.7l-94-9.2c0,0-4.4,7.2-3.4,17.2c2,18.3,23,29.5,40.6,38.6c34.7,18.1,42,9.8,53.3,22
						c15.3,16.5,5.8,35.9,14.1,76.6C1414.9,1287,1423.8,1306.3,1430.7,1319z"/>
					<g>
						<g>
							<path class="st14" d="M1442.9,1079.5c12.9-1.1,32.4-62,5.3-101.4c-19.9-29-61.4-40.9-68.6-32.1c-4.2,5.1,4.4,15.6,20.4,45.7
								C1432.9,1053.5,1434.2,1080.3,1442.9,1079.5z"/>
							<path class="st14" d="M1300,948.8c11.6-3.7,29.3-8.1,51-8.3c24.3-0.3,43.7-0.5,57.1,9.7c32.3,24.7-3.9,85.8,14.7,130.1
								c2,4.8,7.9,20.2,2.8,37.1c-0.9,3.1-2.9,5.9-6.2,10.5c-19.6,27.3-75.2,31.4-100.8,9c-13.6-11.9-25.9-9.3-26.2-23.3
								C1290.9,1058,1300.5,1002.3,1300,948.8z"/>
							<g>
								<path class="st0" d="M1353.2,910.2c0.1,8.2-0.9,14.7-1.9,19.2c-1.1,5.1-1.9,6.4-2.9,7.5c-1.5,1.6-3.8,3-16.8,6.1
									c-7.1,1.7-8,1.6-8.1,2.3c-0.8,3.1,18.5,13.4,38.4,10.6c12.1-1.7,23.1-8.1,22.4-11.4c-0.7-3.3-12.7-1.4-16.3-7.3
									c-2.5-4.2,0.3-10.1,3.6-15.1C1368.4,916.7,1356.4,915.7,1353.2,910.2z"/>
								<g>
									<path class="st4" d="M1378.6,920.4c3.7-2.7,5.5-8.5,3.4-12.9c-1.8-3.8-6-5.2-8.5-6.1c-7.3-2.5-17.5-1.8-22.6,3.7
										c-3,3.3-1,12-0.7,13.5c0.3,1.7,1.5,2.6,2.4,4.1c1.3,2,3.2,5.3,6.4,10.7c0.7-1.2,1.7-2.7,3-4.3c0.5-0.6,2.5-2.9,5.1-4.6
										C1372.3,921,1375.1,923,1378.6,920.4z"/>
									<path class="st0" d="M1353.7,928.3c0,0,2.8,8.5,12.8,10.1c8.9,1.5,15.3-16.2,10.8-21.3c-1.5-1.7-5.1-3.1-8.4-3
										c-1.9,0.1-2.7,0.6-5.9,0.6c-2.9,0-3.6-0.4-4.6,0c-1.3,0.6-2.6,2.3-2.3,8c-1.2-1.9-3.1-3-4.7-2.7c-0.3,0-1,0.3-1.5,0.8
										C1348.2,922.6,1349.5,925.7,1353.7,928.3z"/>
								</g>
							</g>
						</g>
					</g>
				</g>
			</g>
			<g>
				<path class="st22" d="M1609.9,1323.5C1609.9,1323.5,1609.8,1323.5,1609.9,1323.5c-0.7-0.1-1.2-0.6-1.2-1.2v-254.5
					c0-0.7,0.6-1.2,1.2-1.2c0.7,0,1.2,0.6,1.2,1.2v238.5l36.1-233.2c0.1-0.7,0.7-1.1,1.4-1c0.7,0.1,1.1,0.7,1,1.4l-38.6,249
					C1611,1323.1,1610.5,1323.5,1609.9,1323.5z"/>
				<g>
					<polygon class="st23" points="1179.8,1099.8 1603,1067.2 1939.3,1093.2 1513.4,1129 					"/>
					<polygon class="st22" points="1513.4,1129 1179.8,1099.8 1179.8,1113.9 1513.4,1143.1 1939.3,1107.3 1939.3,1093.2 					"/>
				</g>
				<path class="st22" d="M1510.6,1410.3c-0.6,0-1.1-0.5-1.2-1.1l-36.7-270.8c-0.1-0.7,0.4-1.3,1.1-1.4c0.7-0.1,1.3,0.4,1.4,1.1
					l34.2,252.7v-252.5c0-0.7,0.6-1.2,1.2-1.2c0.7,0,1.2,0.6,1.2,1.2v270.8C1511.8,1409.8,1511.3,1410.3,1510.6,1410.3
					C1510.6,1410.3,1510.6,1410.3,1510.6,1410.3z"/>
				<path class="st22" d="M1934.6,1360.6c-0.6,0-1.1-0.5-1.2-1.1l-34-248.8c-0.1-0.7,0.4-1.3,1.1-1.4c0.7-0.1,1.3,0.4,1.4,1.1
					l31.5,230.9v-240.5c0-0.7,0.6-1.2,1.2-1.2c0.7,0,1.2,0.6,1.2,1.2v258.7C1935.8,1360,1935.3,1360.5,1934.6,1360.6
					C1934.7,1360.6,1934.6,1360.6,1934.6,1360.6z"/>
				<path class="st22" d="M1183.8,1360.6C1183.7,1360.6,1183.7,1360.6,1183.8,1360.6c-0.7-0.1-1.2-0.6-1.2-1.2v-245.4
					c0-0.7,0.6-1.2,1.2-1.2s1.2,0.6,1.2,1.2v228.6l33.6-228.8c0.1-0.7,0.7-1.1,1.4-1c0.7,0.1,1.1,0.7,1,1.4l-36.1,245.4
					C1184.9,1360.1,1184.4,1360.6,1183.8,1360.6z"/>
			</g>
			<g>
				<path class="st14" d="M1334.6,1095c2.6-2.9,5.2-5.9,7.9-8.8c-20.4-26.8-36.6-38.4-48-43.9c-7.9-3.8-7.5-6.2-7.9-7.2
					c-1.9-5.6,19.4-30,25-37.4c10.3-13.6,20-36.9,12.4-46.3c-7.9-9.7-33-2.5-46.3,4c-11.8,5.7-19.5,13.3-23.6,17.9
					c-12.5,14.1-36.6,52-21.2,86.1C1247.2,1091.1,1291.1,1109.6,1334.6,1095z"/>
			</g>
			<polygon class="st4" points="1392.1,1094.7 1392.1,1091.1 1548,1082.7 1548,1086.3 1437.8,1097.1 			"/>
			<polygon class="st4" points="1392.1,1091.1 1440.5,1091.7 1548,1082.7 1517.9,1080.9 			"/>
			<g>
				<path class="st8" d="M1412.8,1078.6l43.8-137.2c0.7-2.2,3.2-3.7,6-3.8l191.9-3.5c1.6,0,4.5,1.2,5.5,2.2c1,1,2.4,1.2,2,2.6
					l-35.8,120.7c-0.6,2-2.7,3.6-5.2,3.8l-204.7,18.8L1412.8,1078.6z"/>
				<path class="st4" d="M1416.3,1082.2l44.5-138.1c0.7-2.2,3.2-3.7,5.9-3.8l191.5-3.6c1.6,0,3.2,0.5,4.1,1.6c1,1,1.4,2.4,1,3.7
					l-33.5,119.9c-0.6,2.1-2.8,3.7-5.3,3.9L1416.3,1082.2z"/>
				<path class="st8" d="M1538.7,1105.3l-7.9,2.7c0,0-41.5-7.8-43.3-9.1c-0.3-0.2-1.3-2.1,0.6-2.5c9.8-1.7,45.6-2.9,45.6-2.9
					l3.3,0.2L1538.7,1105.3z"/>
				<path class="st4" d="M1539.3,1102.8l-7.9,2.7c0,0-41.5-7.8-43.3-9.1c-1.8-1.3,46.2-5.4,46.2-5.4l3.3,0.2L1539.3,1102.8z"/>
				<path class="st8" d="M1573.6,1007.4c0,0,20.2,86.7,20.8,91.8c0.5,4.7-49,9.3-60.9,9.7c-1,0-2.3-0.6-2.7-0.9
					c-3.3-0.4,12.1-99.3,12.1-99.3l1.1,0L1573.6,1007.4z"/>
				<path class="st4" d="M1573.6,1007.4c0,0,22.9,87.6,23.5,92.7c0.6,5.1-58.3,8.9-63.5,8.8c-3.3-0.4,10.4-100.1,10.4-100.1
					L1573.6,1007.4z"/>
			</g>
			<path class="st4" d="M1342.4,1091.1c0,0,13.1-6,20.6-5.4c7.5,0.5,18.2,7.4,20,11.5c1.8,4.1-25.5,3.6-25.5,3.6
				S1324.9,1099.5,1342.4,1091.1z"/>
			<path class="st0" d="M1335.7,1084.1c7.3-9.3,24.7-3.6,25.7-3.3c4.2,1.4,9.7,4.3,9.3,6.1c-0.4,1.8-6,0.8-15.2,2.4
				c-13.5,2.3-19.5,7.3-21.9,4.8C1331.7,1092.2,1333.3,1087.2,1335.7,1084.1z"/>
		</g>
		<g>
			<path class="st4" d="M1972.5,1205c0,0-25.2,11.5-25.6,13.3c-0.4,1.8,16.2-0.6,23-0.3c6.8,0.3,12.4-1.7,11.8-4.6
				c-0.6-2.9-3-10.1-3-10.1L1972.5,1205z"/>
			<path class="st0" d="M1971.5,1195.7l1.5,11.4c0,0,4,1.4,6.7-0.3l1.1-12.5L1971.5,1195.7z"/>
			<path class="st4" d="M2090.3,1196l2.9,4.7c0.8,1.3,1.1,2.9,0.7,4.4c-1,3.9-3.1,11.5-4,13.5c-1.2,2.7-17.5,4.3-17.5,4.3
				s-1.5-2,1.9-4.5c3.4-2.5,5.6-2.9,6.8-6.5c1.2-3.6,2-14,2-14L2090.3,1196z"/>
			<path class="st0" d="M2078.1,1184c1.1,0.9,6.3,16.8,6.3,16.8s1.7,2.2,4.9-1c3.2-3.2,1.5-1.4,1.5-1.4l-0.6-15.6L2078.1,1184z"/>
			<path class="st14" d="M1957.7,967.7c-1.3,33.9-1.4,70.6,0.6,110c2.2,44.3,6.6,85.2,12.2,122.2c2.1,0.1,4.2,0.1,6.5,0
				c1.5,0,3-0.1,4.4-0.2c2.9-7.7,6.3-17.8,9.3-29.9c3.2-12.7,5.1-24.1,6.5-35c4.9-38.4-0.8-41.7,3.1-70.1
				c3.5-25.2,8.5-26.2,14.3-61.9c6.3-38.8,1.6-44.6-0.7-46.7C2004.2,947.1,1981.3,953.2,1957.7,967.7z"/>
			<path class="st14" d="M1973.7,967.1c22.2,32.5,46.2,73,67.6,121.5c16.2,36.6,28,71,36.6,101.6c1.2,0.5,3.9,1.6,7.4,1.2
				c4.8-0.6,7.7-3.7,8.4-4.6c3.5-22,3.1-40.6,1.9-54c-0.8-8.6-2.1-22.9-7.6-40.6c-6.1-19.8-10.4-20.9-18.4-41.8
				c-8.3-21.7-6.3-27.2-14.3-54.4c-3.3-11.2-8.7-27.8-17.8-47.7C2016.4,954.6,1995,960.8,1973.7,967.1z"/>
			<path class="st0" d="M1868.5,735.6c0,0-4.3-5.2-7.1-9c-2.7-3.8-15.4-14.5-15.4-14.5s-0.9,1.8,1.8,4.5c2.7,2.7,8.5,7.4,7.2,9.4
				c-1.3,2-4.9,3.9-2.1,7.7c2.7,3.8,7.2,1.1,9.6,4.1c2.4,3,4.9,6.3,4.9,6.3L1868.5,735.6z"/>
			<path class="st8" d="M1869.1,730.1c-2.9,3.6-5.8,7.2-8.6,10.8c3.7,15.9,11.5,39.9,29.8,63.2c19.3,24.7,60.6,61.7,86.2,49.6
				c15.6-7.4,36.8-32.8,29.2-45c-7.3-11.8-38.9-6.2-60.6-11.1C1923.8,792.9,1896.3,777.4,1869.1,730.1z"/>
			<path class="st8" d="M2067.3,824c0,0,16.8,57.3,6.4,79.3c-10.4,22-43.7-2.2-43.7-2.2L2067.3,824z"/>
			<path class="st8" d="M2015,802.9c-21.6-0.4-38.2,0.3-47.4,9.9c-9.7,10.1,0.6,21.1-1,47.1c-2.4,39.8-27.6,50.1-28.6,90.5
				c-0.3,13.6,2.2,24.7,4.1,31.3c5.7,6.8,15,16.4,28.6,24.3c19.8,11.5,31.1,9.1,59.3,16.2c46.2,11.6,50.6,26.4,73.3,22.1
				c22.9-4.4,42.7-24.2,40-34.7c-1.6-6.3-10.8-4.3-21.7-13.8c-14-12.2-9-24.3-19.7-37.5c-15.4-19-36.1-6.7-49.3-23.2
				c-13.3-16.7-8.9-50.1,1.6-68.6c6.9-12,9.6-26,15.4-38.6c0.5-1,1-2.8,0.7-4.9c-1.2-8.1-14.8-12.2-25.1-15.2
				C2029.5,803.2,2016.8,802.9,2015,802.9z"/>
			<path class="st14" d="M1994,802.4l4.2-1.4c0,0,1.2,5.7,14.9,6.2c7.6-0.2,12.4-4.5,12.4-4.5l3,2.1c0,0-6.2,8.1-16.4,8.1
				C1999.1,812.9,1994,802.4,1994,802.4z"/>
			<g>
				<path class="st0" d="M1997.5,783.9c-1.2-6.3,2.4-11.7,3.1-12.8c3.2-4.9,4-5.5,5.4-6.3l1.9-1c0,0,0.1,0,0.2-0.1
					c1.2-0.3,5.3-0.1,6.1,0.2c2.6,0.8,4.4,11.7,2.2,26.6c0.1,1.2,0.2,2.3,0.3,3.5c5.8-0.8,7.5-0.2,7.8,0.5
					c0.6,1.7-3.4,11.5-8.9,13.5c-6.9,2.4-16.6-3.9-17.2-6.2c-0.2-0.9-0.2-0.1,4.5-2.9c0.4-1.4,1.8-5.1,2.2-6.5
					C2004.2,791.9,1998.3,788.5,1997.5,783.9z"/>
				<path class="st0" d="M2005.4,778.9c1.3-1.5,3.1,0.2,3,2.2c-0.2,2-2.3,4-4.2,3.4C2002.3,783.9,2003.6,780.8,2005.4,778.9z"/>
				<path class="st4" d="M2211.1,712.6c-28.2-15.9-74.8,5.9-95.9,32.8c-9.8,12.5-13,24.6-27.6,30.2c-11,4.3-30.3,5.8-43.7-3.4
					c-1.7-1.2-8.5-6.1-18.3-11.9c-4.3-2.6-8.5-4.9-13.6-4.1c-1.3,0.2-5.6,0.9-7.5,4.4c-1.5,2.9-0.8,6.8,0.7,9.2
					c0.9,1.5,1.5,1.5,1.7,2.6c0.8,3-4.2,6-3.4,7.4c0.6,1,3.2-0.3,4.1,0.9c1,1.3-1.7,3.5-1.8,7.6c-1.9,2.5-2.2,7.1-0.9,12.8
					c1.8,8.4,4.8,14.7,7.9,19.2c15.1,21.5,25.9,36.9,41.8,42.4c21,7.2,32.6-9.4,75.1-25.1c58.3-21.5,79.5-6.3,96.3-26.8
					C2247.1,785,2240.3,729.2,2211.1,712.6z"/>
			</g>
		</g>
	</g>
</g>
</svg>
