<?xml version="1.0" encoding="utf-8"?>
<!-- Generator: Adobe Illustrator 26.0.2, SVG Export Plug-In . SVG Version: 6.00 Build 0)  -->
<svg version="1.1" xmlns="http://www.w3.org/2000/svg" xmlns:xlink="http://www.w3.org/1999/xlink" x="0px" y="0px"
	 viewBox="0 0 2475 1650" style="enable-background:new 0 0 2475 1650;" xml:space="preserve">
<style type="text/css">
	.st0{opacity:0.8;fill:#BBDEF2;}
	.st1{fill:url(#SVGID_1_);}
	.st2{fill:#86BFF2;}
	.st3{fill:#7B8FDD;}
	.st4{fill:#FFFFFF;}
	.st5{fill:#BBDEF2;}
	.st6{fill:#91B3FA;}
	.st7{fill:#DCE5FE;}
	.st8{fill:#C88BC4;}
	.st9{fill:#D1AAD7;}
	.st10{opacity:0.57;fill:#D1AAD7;}
	.st11{opacity:0.59;fill:#FFFFFF;}
	.st12{fill:url(#SVGID_00000057138094258074258300000016858321601759107761_);}
	.st13{fill:url(#SVGID_00000011732023541335619760000009768651404640368535_);}
	.st14{fill:url(#SVGID_00000115500440592587514780000004268411306466129559_);}
	.st15{opacity:0.57;fill:#FFFFFF;}
	.st16{fill:url(#SVGID_00000150081913292597289230000012777986389669256109_);}
	.st17{fill:url(#SVGID_00000039842348009400679750000017003974283680841614_);}
	.st18{fill:url(#SVGID_00000029010246182450877590000002096947246546381485_);}
	.st19{opacity:0.32;fill:url(#SVGID_00000018219088660080642990000009773055775822675131_);}
	.st20{fill:url(#SVGID_00000116193900193907206710000013228487084154204571_);}
</style>
<g id="Background">
</g>
<g id="Illustration">
	<g>
		<path class="st0" d="M569.4,159.9c-160.4,132.6,54,302.7-57.1,377c-111.1,74.3-571.1,219.1-107.8,506.5s494.8,618.3,825.5,436.4
			c330.7-182,427.8-160.1,699.9-37.1s500.9-254.1,404.2-481.3c-96.7-227.2-242.2-233.6-131.8-378.7s-62.3-546.5-442.4-236.3
			s-618.1,78.6-659.8-37.4S822.9-49.6,569.4,159.9z"/>
		<g>
			
				<linearGradient id="SVGID_1_" gradientUnits="userSpaceOnUse" x1="2368.0989" y1="447.7803" x2="1046.5692" y2="2182.7119" gradientTransform="matrix(0.9999 -1.050000e-02 1.050000e-02 0.9999 -22.683 -37.8145)">
				<stop  offset="0" style="stop-color:#4042E2"/>
				<stop  offset="1" style="stop-color:#4F52FF"/>
			</linearGradient>
			<path class="st1" d="M1866.8,448.7l42.6,2.2c21.1,1.1,37.6,18.6,37.5,39.7l-4.3,1011.8c-0.1,23-18.9,41.6-42,41.3l-292.8-3.2
				L1866.8,448.7z"/>
			<path class="st2" d="M1355.6,454.9l540.1-31.8c11.2-0.7,20.5,8.4,20.3,19.5l-22.4,1042.8c-0.5,22.3-19,39.9-41.3,39.2l-380-11.3
				L1355.6,454.9z"/>
			<path class="st3" d="M1384.6,476.5l474.7-65.6c12.2-1.7,23,7.9,22.9,20.2l-12.1,1051.7c-0.2,14.8-11.9,26.9-26.7,27.5
				l-349.6,13.9L1384.6,476.5z"/>
			<path class="st2" d="M1259.2,425.6l520.8-37.9c26-1.9,48.1,18.5,48.4,44.5l11.2,1073.7c0.2,21.8-17.2,39.6-39,39.8l-480.4,5
				c-22.7,0.2-41.6-17.3-43-39.9L1210.8,481C1209,452.4,1230.6,427.7,1259.2,425.6z"/>
			<path class="st2" d="M1853.6,809.8l-42.7,0.4c-10.6,0.1-19.3-8.4-19.4-19l-3-282c-0.1-10.6,8.4-19.3,19-19.4l42.7-0.4
				c10.6-0.1,19.3,8.4,19.4,19l3,282C1872.7,801,1864.2,809.7,1853.6,809.8z"/>
		</g>
		<g>
			<path class="st4" d="M2136.5,339.9c-62.8,20.7-424.3,159.2-377,589.5c0,0,257.5-17.7,383.8-581.4
				C2144.4,343.1,2140.6,338.6,2136.5,339.9z"/>
			<path class="st5" d="M2097.9,403.9c0,0-25,23.8-61,61.1c-9,9.3-18.7,19.5-28.8,30.3c-10.2,10.8-20.8,22.3-31.7,34.3
				c-10.9,12-22,24.5-33.2,37.2c-11.2,12.8-22.4,25.9-33.5,39.2c-5.5,6.6-11.1,13.3-16.5,19.9c-5.5,6.6-10.8,13.3-16.1,20
				c-10.6,13.3-20.7,26.6-30.4,39.5c-4.9,6.5-9.5,12.9-14.1,19.2c-4.6,6.3-8.9,12.6-13.1,18.6c-4.2,6.1-8.2,12.1-12.1,17.9
				c-3.9,5.8-7.4,11.5-11,16.9c-3.6,5.4-6.6,10.8-9.7,15.8c-1.5,2.5-3,4.9-4.4,7.3c-1.4,2.4-2.7,4.8-4,7c-5.3,9-9.5,17.1-13.1,23.8
				c-1.8,3.3-3.3,6.3-4.5,8.9c-1.3,2.6-2.4,4.8-3.3,6.6c-1.8,3.6-2.7,5.5-2.7,5.5l-0.1,0.1c-1,2-3.4,2.8-5.4,1.8
				c-2-1-2.8-3.4-1.8-5.4l0,0c0,0,1-1.9,2.8-5.6c0.9-1.8,2-4.1,3.4-6.7c1.3-2.6,2.8-5.7,4.7-9c3.6-6.7,8-14.8,13.4-23.9
				c1.3-2.3,2.7-4.6,4.1-7.1c1.4-2.4,3-4.9,4.5-7.4c3.2-5,6.3-10.4,10-15.8c3.6-5.4,7.2-11.1,11.2-16.9c4-5.8,8-11.8,12.3-17.9
				c4.3-6,8.7-12.3,13.4-18.6c4.7-6.3,9.4-12.7,14.3-19.2c9.8-12.9,20.1-26.2,30.9-39.4c5.4-6.6,10.8-13.3,16.3-19.9
				c5.5-6.7,11.1-13.3,16.7-19.9c11.2-13.2,22.6-26.2,33.9-39c11.3-12.7,22.6-25.1,33.6-37c11-11.9,21.7-23.3,32-34.1
				c10.3-10.8,20-20.8,29.1-30.1c36.4-37,61.6-60.7,61.6-60.7c0.7-0.6,1.8-0.6,2.4,0.1C2098.6,402.2,2098.6,403.2,2097.9,403.9z"/>
		</g>
		<g>
			<path class="st6" d="M2253.6,382.9c-88.6,28.5-597.3,215.1-507.9,723.9c0,0,366.5-36.7,518-714.7
				C2265,386.2,2259.3,381.1,2253.6,382.9z"/>
			<path class="st7" d="M2201.1,461.2c0,0-33.7,29.2-82.4,74.9c-12.2,11.4-25.3,23.9-39.1,37.2c-13.8,13.3-28.2,27.4-43,42.1
				c-14.8,14.7-29.9,30.1-45.2,45.8c-7.6,7.9-15.2,15.9-22.9,23.9c-7.6,8.1-15.3,16.1-22.8,24.3c-7.5,8.2-15.1,16.3-22.5,24.6
				c-7.4,8.2-14.8,16.4-22,24.7c-3.6,4.1-7.2,8.2-10.8,12.3c-3.5,4.1-7,8.2-10.5,12.3c-7,8.1-13.8,16.3-20.4,24.3
				c-13.3,16.1-25.8,31.8-37.4,47c-11.6,15.2-22.3,29.7-31.8,43.4c-4.9,6.8-9.3,13.4-13.5,19.7c-2.1,3.2-4.2,6.2-6.2,9.2
				c-2,3-3.8,6-5.6,8.8c-3.6,5.7-7,11-10,16.1c-2.9,5-5.6,9.7-8.1,13.9c-1.2,2.1-2.4,4.1-3.5,5.9c-1,1.9-2,3.7-2.8,5.3
				c-1.8,3.3-3.3,6.1-4.5,8.4c-2.4,4.6-3.7,7-3.7,7l-0.1,0.2c-1,2-3.5,2.7-5.5,1.7c-2-1-2.7-3.5-1.7-5.5l0,0c0,0,1.3-2.5,3.8-7.1
				c1.3-2.3,2.8-5.2,4.6-8.5c0.9-1.7,1.9-3.5,2.9-5.4c1.1-1.9,2.3-3.9,3.5-6c2.5-4.2,5.3-8.9,8.3-14c3-5.1,6.6-10.4,10.2-16.2
				c1.8-2.9,3.7-5.9,5.7-8.9c2-3,4.1-6.1,6.3-9.2c4.3-6.3,8.8-13,13.7-19.8c9.7-13.7,20.5-28.2,32.3-43.4
				c11.8-15.2,24.5-30.9,37.9-47c6.7-8,13.5-16.2,20.6-24.3c3.5-4.1,7.1-8.2,10.6-12.3c3.6-4.1,7.2-8.2,10.9-12.3
				c7.3-8.2,14.7-16.4,22.2-24.6c7.4-8.2,15.1-16.3,22.7-24.5c7.6-8.2,15.4-16.2,23-24.2c7.7-8,15.4-15.9,23.1-23.8
				c15.4-15.6,30.6-31,45.6-45.6c14.9-14.7,29.5-28.7,43.3-41.9c13.9-13.2,27.1-25.6,39.4-36.9c49.1-45.4,83-74.4,83-74.4
				c0.7-0.6,1.8-0.5,2.4,0.2C2201.9,459.6,2201.8,460.6,2201.1,461.2z"/>
		</g>
		<g>
			<path class="st8" d="M2121.2,659.7l34.5,1.8c17.1,0.9,30.4,15,30.3,32.1l-3.5,818.2c-0.1,18.6-15.3,33.6-33.9,33.4l-236.8-2.6
				L2121.2,659.7z"/>
			<path class="st9" d="M1707.7,664.7l436.8-25.7c9-0.5,16.6,6.8,16.4,15.8l-18.1,843.3c-0.4,18-15.4,32.2-33.4,31.7l-307.3-9.1
				L1707.7,664.7z"/>
			<path class="st2" d="M1731.2,682.2l383.9-53.1c9.9-1.4,18.6,6.4,18.5,16.3l-9.8,850.5c-0.1,12-9.6,21.8-21.6,22.2l-282.7,11.2
				L1731.2,682.2z"/>
			<path class="st3" d="M1629.8,641l421.1-30.6c21-1.5,38.9,15,39.1,36l9.1,868.3c0.2,17.6-13.9,32-31.5,32.2l-388.5,4.1
				c-18.3,0.2-33.6-14-34.8-32.3l-53.6-832.8C1589.2,662.7,1606.6,642.7,1629.8,641z"/>
			<path class="st3" d="M2116.5,951.7l-46.5,0.5c-5.3,0.1-9.6-4.2-9.6-9.4l-2.5-240.1c-0.1-5.3,4.2-9.6,9.4-9.6l46.5-0.5
				c5.3-0.1,9.6,4.2,9.6,9.4l2.5,240.1C2126,947.3,2121.7,951.6,2116.5,951.7z"/>
		</g>
		<g>
			<path class="st8" d="M1731.6,1115.2l4,157.5c0.3,12.2,15.5,22,34.1,22h469.6c18.8,0,34.1-10,34.1-22.4v-147.4
				c0-12.1-14.6-22-33-22.4l-473.6-10.1C1747.3,1092,1731.2,1102.4,1731.6,1115.2z"/>
			<path class="st10" d="M1770.4,1130.6l10.2,144.8c0.4,5.6,7.4,9.9,15.9,9.8l427.6-5c8.5-0.1,15.4-4.7,15.4-10.3v-125.6
				c0-5.5-6.5-10-14.9-10.3l-437.8-14.3C1777.6,1119.5,1770,1124.5,1770.4,1130.6z"/>
			<path class="st4" d="M1804.5,1144.1v10.4c0,3.7,4.6,6.6,10.2,6.6l368.8-4c5.5-0.1,9.8-3,9.8-6.6l0,0c0-3.6-4.3-6.5-9.7-6.6
				l-368.8-6.5C1809.2,1137.5,1804.5,1140.4,1804.5,1144.1z"/>
			<path class="st4" d="M1810,1183.6v9.6c0,3.7,4.7,6.7,10.3,6.6l351.3-8.1c5.4-0.1,9.7-3,9.7-6.6v-3c0-3.7-4.5-6.6-10.1-6.6
				L1820,1177C1814.5,1177,1810,1179.9,1810,1183.6z"/>
		</g>
		<g>
			<path class="st4" d="M859.9,1567.8c0,0-48.8-313.9-242.4-366.9c-185.8-50.8-211.8,40.7-316.3-61.5c-4.8-4.7-12.8-0.8-12,5.8
				c7.9,71.2,49.7,308.5,258.5,306.8C788.9,1450,859.9,1567.8,859.9,1567.8z"/>
			<path class="st5" d="M336,1205.3c0,0,0.3,0.6,0.9,1.5c0.6,1,1.5,2.4,2.9,4.2c2.5,3.7,6.8,8.9,12.5,15.1c1.4,1.5,3.1,3.1,4.7,4.7
				c1.7,1.6,3.3,3.5,5.3,5.1c3.9,3.3,7.9,7.2,12.7,10.7c2.3,1.8,4.8,3.7,7.2,5.6c2.5,1.8,5.3,3.6,8,5.4c1.4,0.9,2.8,1.9,4.2,2.8
				c1.4,0.9,2.8,1.9,4.4,2.8c3,1.7,6.1,3.5,9.2,5.4c1.6,0.9,3.2,1.8,4.8,2.8c1.6,0.9,3.3,1.7,5,2.5c3.4,1.7,6.9,3.4,10.4,5.1
				c1.8,0.8,3.5,1.8,5.4,2.6c1.8,0.8,3.7,1.5,5.6,2.3c3.7,1.6,7.5,3.1,11.4,4.7l2.9,1.2c1,0.4,2,0.7,3,1c2,0.7,4,1.4,6,2.1
				c4.1,1.4,8.2,2.8,12.3,4.2l3.1,1.1l3.2,0.9c2.1,0.6,4.3,1.2,6.4,1.8c4.3,1.2,8.7,2.4,13.1,3.6c4.4,1.3,8.9,2,13.4,3
				c4.5,0.9,9.1,1.9,13.7,2.8c2.3,0.5,4.6,1,6.9,1.4c2.3,0.3,4.7,0.7,7,1c4.7,0.7,9.4,1.4,14.1,2.1c4.8,0.7,9.4,1.4,14.3,2
				c4.8,0.6,9.6,1.3,14.5,1.9c4.9,0.8,9.7,1.6,14.6,2.4l14.5,2.9c19.3,4.1,38.4,9.5,56.7,16.3c18.3,6.9,35.7,15.3,51.7,25
				c8,4.8,15.6,10.1,22.9,15.4c7.1,5.5,14,11,20.3,16.9c12.7,11.6,23.7,23.6,33,35.3c9.3,11.7,17.1,22.9,23.7,33
				c6.6,10.1,12,19.1,16.4,26.5c8.7,14.8,13.6,23.3,13.6,23.3c1.9,3.3,0.8,7.6-2.5,9.5c-3.3,1.9-7.6,0.8-9.5-2.5c0,0,0,0,0-0.1l0,0
				c0,0-4.8-8.5-13.2-23.4c-4.2-7.4-9.4-16.3-15.7-26.3c-6.3-10-13.6-21-22.4-32.4c-8.8-11.4-19.1-23.2-31.1-34.5
				c-5.9-5.7-12.5-11.1-19.2-16.5c-6.9-5.2-14.1-10.4-21.7-15.1c-15.2-9.6-31.9-18-49.6-25c-17.7-7-36.3-12.5-55.2-16.9l-14.2-3.1
				c-4.8-0.9-9.5-1.7-14.2-2.6c-4.8-0.7-9.6-1.5-14.4-2.2c-4.7-0.7-9.6-1.5-14.3-2.3c-4.8-0.8-9.6-1.6-14.3-2.3
				c-2.4-0.4-4.7-0.8-7.1-1.2c-2.3-0.5-4.7-1-7-1.5c-4.6-1-9.2-2.1-13.8-3.1c-4.6-1.1-9.2-1.9-13.6-3.3c-4.4-1.3-8.8-2.6-13.2-3.8
				c-2.2-0.6-4.3-1.3-6.5-1.9l-3.2-0.9l-3.2-1.1c-4.2-1.5-8.3-3-12.4-4.5c-2-0.7-4.1-1.5-6.1-2.2c-1-0.4-2-0.7-3-1.1l-2.9-1.3
				c-3.9-1.7-7.7-3.4-11.5-5c-1.9-0.8-3.8-1.6-5.6-2.4c-1.9-0.8-3.6-1.8-5.4-2.7c-3.5-1.8-7-3.6-10.4-5.4c-1.7-0.9-3.4-1.7-5.1-2.7
				c-1.6-1-3.2-1.9-4.8-2.9c-3.2-1.9-6.3-3.8-9.3-5.6c-1.5-0.9-3-1.9-4.4-2.9c-1.4-1-2.8-2-4.2-2.9c-2.8-1.9-5.5-3.8-8.1-5.7
				c-2.5-2-4.9-3.9-7.3-5.8c-4.8-3.6-8.8-7.6-12.7-11.1c-2-1.7-3.6-3.6-5.3-5.3c-1.7-1.7-3.3-3.3-4.7-4.9
				c-5.7-6.5-10-11.8-12.5-15.7c-1.3-1.9-2.3-3.5-2.9-4.5c-0.6-1-0.9-1.6-0.9-1.6l-0.1-0.1c-0.4-0.8-0.1-1.7,0.7-2.1
				C334.7,1204.2,335.6,1204.6,336,1205.3z"/>
		</g>
		<g>
			<path class="st2" d="M870.4,1479.4l-21.6-6.6c-26.3-149.2-119-412.4-283.7-450c-111.6-25.5-162.1-72-183.7-192.3
				c-14.4-80.3-54-128.6-78.7-151.8c-5-4.7-0.6-13.1,6.1-11.6C376.6,682.2,556.1,732,662.7,855
				C796.1,1008.8,870.4,1479.4,870.4,1479.4z"/>
			<path class="st4" d="M426.5,742.1c0,0,0.2,0.1,0.6,0.2c0.4,0.1,1,0.3,1.8,0.5c0.8,0.2,1.8,0.5,3,0.9c1.1,0.4,2.4,0.9,3.9,1.4
				c3,1,6.5,2.5,10.7,4.2c2.1,0.8,4.3,1.9,6.6,3c2.3,1.1,4.9,2.2,7.4,3.5c5.1,2.7,10.9,5.5,16.8,9.1c3,1.8,6.1,3.6,9.4,5.5
				c3.2,2,6.4,4.2,9.8,6.3c13.5,8.7,28,19.6,43.3,32.1c2,1.5,3.8,3.2,5.7,4.8c1.9,1.7,3.8,3.4,5.7,5.1c3.9,3.4,7.8,6.9,11.8,10.4
				c7.6,7.4,15.6,15,23.5,23.1c3.9,4.1,7.8,8.3,11.7,12.6c2,2.1,4,4.3,6,6.4c2,2.2,4.1,4.3,5.9,6.6c3.8,4.5,7.7,9.1,11.6,13.7
				c2,2.3,3.9,4.6,5.9,7c2,2.3,4,4.6,5.9,7.1c7.5,9.8,15.2,19.7,23,29.7c7.3,10.4,14.7,20.9,22.1,31.4c1,1.4,1.8,2.5,2.8,4.1
				l2.6,4.1c1.7,2.7,3.5,5.5,5.2,8.2c3.5,5.5,7,11,10.5,16.5l5.2,8.3c1.7,2.8,3.3,5.7,4.9,8.5c3.3,5.7,6.5,11.4,9.8,17.2l4.9,8.6
				c1.6,2.9,3.3,5.7,4.8,8.6c3,5.8,6,11.7,9,17.5c3,5.8,6,11.6,9,17.4c2.8,5.9,5.6,11.8,8.3,17.6c5.5,11.7,11.1,23.2,16,34.9
				c2.5,5.8,5,11.6,7.5,17.3c1.2,2.9,2.5,5.7,3.7,8.6c1.1,2.9,2.3,5.8,3.4,8.6c4.5,11.5,9.1,22.7,13.3,33.8
				c4.1,11.1,8.1,22,11.9,32.6c3.6,10.7,7.1,21.1,10.6,31.1c3.3,10.1,6.3,19.9,9.3,29.3c5.8,18.8,10.8,36.2,14.9,51.6
				c2.2,7.7,4,15,5.7,21.7c1.7,6.7,3.3,12.9,4.6,18.5c2.7,11.2,4.7,20,6,26.1c1.3,6.1,1.9,9.3,1.9,9.3c0.8,3.8-1.6,7.5-5.4,8.2
				c-3.8,0.8-7.5-1.6-8.2-5.4l0-0.1l0-0.2c0,0-0.6-3.2-1.8-9.1c-1.2-5.9-3.1-14.7-5.7-25.8c-1.2-5.6-2.7-11.7-4.4-18.3
				c-1.6-6.7-3.4-13.9-5.5-21.5c-4-15.4-8.8-32.6-14.4-51.3c-2.9-9.3-5.8-19.1-9-29.1c-3.3-10-6.7-20.3-10.2-31
				c-3.8-10.5-7.6-21.4-11.5-32.5c-4-11-8.5-22.2-12.9-33.6c-1.1-2.8-2.2-5.7-3.3-8.6c-1.2-2.8-2.4-5.7-3.6-8.5
				c-2.4-5.7-4.8-11.5-7.3-17.3c-4.7-11.7-10.2-23.1-15.5-34.8c-2.7-5.8-5.3-11.7-8.1-17.5c-2.9-5.8-5.8-11.5-8.8-17.3
				c-2.9-5.8-5.9-11.6-8.8-17.4c-1.4-2.9-3-5.7-4.6-8.6l-4.8-8.5c-3.2-5.7-6.3-11.3-9.5-17c-1.6-2.8-3.1-5.7-4.8-8.5l-5.2-8.3
				c-3.4-5.5-6.9-11-10.3-16.5c-1.7-2.8-3.4-5.5-5.1-8.2l-2.6-4.1l-2.7-3.9c-7.3-10.5-14.5-21-21.6-31.3
				c-7.6-10-15.1-19.9-22.5-29.6c-1.8-2.5-3.8-4.7-5.7-7.1c-1.9-2.3-3.9-4.6-5.8-6.9c-3.8-4.6-7.6-9.2-11.4-13.7
				c-1.8-2.3-3.8-4.4-5.8-6.5c-2-2.1-3.9-4.3-5.8-6.4c-3.9-4.2-7.7-8.4-11.5-12.5c-7.8-8-15.6-15.5-23-23c-3.9-3.5-7.7-7-11.5-10.3
				c-1.9-1.7-3.8-3.4-5.6-5c-1.8-1.7-3.7-3.3-5.6-4.8c-15-12.4-29.1-23.4-42.4-32c-3.3-2.2-6.5-4.3-9.6-6.3
				c-3.2-1.9-6.2-3.7-9.2-5.5c-5.8-3.6-11.4-6.3-16.4-9.1c-2.5-1.4-4.9-2.4-7.2-3.5c-2.3-1-4.4-2.1-6.4-3c-4-1.7-7.4-3.2-10.3-4.1
				c-1.4-0.5-2.6-1-3.7-1.4c-1.1-0.3-1.9-0.6-2.7-0.8c-0.7-0.2-1.3-0.4-1.7-0.5c-0.4-0.1-0.6-0.2-0.6-0.2l0,0
				c-1.8-0.5-2.8-2.3-2.3-4C423,742.6,424.8,741.6,426.5,742.1z"/>
		</g>
		<g>
			<path class="st4" d="M883.6,1456.1c-1.3,4.4-7.7,3.9-8.2-0.7c-9.3-81.5-55.3-437.1-162.4-601.9C592.9,669,405.9,500,710.5,283.1
				c3.8-2.7,8.9,0.5,8.1,5.1c-4.4,25.8-7.7,86.9,40.4,148.6C822.2,518,859.7,673.5,787.4,856C787.4,856,920.7,1324.9,883.6,1456.1z"
				/>
			<path class="st5" d="M680.5,351.8c0,0-0.4,0.3-1.2,1c-0.7,0.6-1.8,1.7-3.2,3.1c-2.8,2.8-6.8,7.1-11.4,13
				c-4.6,5.8-9.8,13.4-14.9,22.4c-2.7,4.5-5.1,9.5-7.7,14.7c-2.3,5.4-4.9,10.9-7,17c-0.6,1.5-1.1,3-1.7,4.5c-0.6,1.5-1,3.1-1.5,4.7
				c-1,3.2-2.1,6.4-3,9.7c-0.8,3.3-1.7,6.8-2.6,10.2c-0.5,1.7-0.8,3.5-1.1,5.3c-0.3,1.8-0.7,3.6-1,5.4c-0.3,1.8-0.7,3.6-1,5.4
				c-0.3,1.8-0.5,3.7-0.8,5.6c-0.5,3.7-1,7.5-1.4,11.3c-0.5,7.7-1.3,15.5-1.2,23.5c-0.5,16,1,32.5,2.9,49.2c0.7,4.2,1.4,8.3,2,12.5
				c0.7,4.2,1.3,8.4,2.3,12.5c0.9,4.2,1.8,8.3,2.7,12.5c0.5,2.1,0.8,4.2,1.4,6.2l1.7,6.2c2.3,8.2,4.4,16.5,7.2,24.6
				c2.7,8.1,5.2,16.2,8.4,24c5.8,15.8,12.6,31,19.2,45.7c3.5,7.2,7,14.3,10.4,21.3c0.9,1.7,1.7,3.5,2.6,5.2c0.9,1.7,1.8,3.4,2.7,5
				c1.8,3.3,3.6,6.6,5.4,9.8c6.8,13.1,14.2,24.9,20.8,36c1.7,2.8,3.3,5.5,4.9,8.1c1.7,2.6,3.3,5.1,4.9,7.6c3.2,4.9,6.2,9.6,9.1,14
				c5.6,8.9,10.9,16.3,15.2,22.4c8.6,12.3,13.5,19.4,13.5,19.4l0.1,0.2c2.2,3.2,1.4,7.5-1.7,9.7c-3.2,2.2-7.5,1.4-9.7-1.7
				c0,0-0.1-0.1-0.1-0.1c0,0-4.9-7.2-13.4-19.8c-4.2-6.3-9.5-13.9-15-23c-2.8-4.5-5.8-9.3-8.9-14.3c-1.6-2.5-3.2-5.1-4.8-7.8
				c-1.6-2.7-3.2-5.5-4.8-8.3c-6.5-11.3-13.7-23.5-20.4-36.9c-1.7-3.3-3.5-6.7-5.3-10.1c-0.9-1.7-1.8-3.4-2.7-5.1
				c-0.9-1.7-1.7-3.5-2.5-5.3c-3.3-7.1-6.8-14.4-10.2-21.8c-6.5-15-13.1-30.5-18.7-46.8c-3.1-8-5.5-16.3-8.1-24.6
				c-2.7-8.2-4.8-16.7-6.9-25.2l-1.6-6.3c-0.6-2.1-0.9-4.3-1.3-6.4c-0.9-4.3-1.7-8.5-2.6-12.8c-1-4.2-1.5-8.6-2.1-12.8
				c-0.6-4.3-1.2-8.6-1.8-12.8c-1.7-17.1-2.9-34-2.1-50.4c0-8.2,1-16.2,1.7-24.1c0.5-3.9,1.1-7.8,1.7-11.6c0.3-1.9,0.5-3.8,0.9-5.7
				c0.4-1.9,0.8-3.7,1.2-5.6c0.4-1.8,0.8-3.7,1.1-5.5c0.4-1.8,0.7-3.6,1.2-5.4c0.9-3.5,1.9-7,2.8-10.4c1-3.4,2.2-6.7,3.2-9.9
				c0.6-1.6,1-3.2,1.6-4.8c0.6-1.6,1.2-3.1,1.8-4.6c2.3-6.2,5-11.8,7.5-17.3c2.8-5.3,5.3-10.4,8.1-14.9c5.5-9.2,10.8-16.8,15.7-22.7
				c4.8-5.9,9-10.3,12-13.2c1.5-1.4,2.6-2.5,3.5-3.2c0.8-0.7,1.2-1.1,1.2-1.1c0.9-0.7,2.2-0.6,2.9,0.2
				C681.5,349.7,681.4,351,680.5,351.8L680.5,351.8z"/>
		</g>
		<g>
			<path class="st3" d="M1528.6,1567.8H972.8c-17.7,0-32.1-14.4-32.1-32.1V999.1c0-17.7,14.3-32,32-32.1l560.2-1.5
				c17.8,0,32.3,14.4,32.2,32.3l-4.4,538.2C1560.6,1553.6,1546.2,1567.8,1528.6,1567.8z"/>
			<path class="st5" d="M1501.3,1006.6l-497,3.1c-18,0.1-32.4,14.7-32.4,32.7l3.5,451.4c0.1,17.7,14.3,32.1,32,32.4l482.9,8.8
				c18,0.3,32.9-14.1,33.2-32.1l10.6-463.2C1534.3,1021.4,1519.6,1006.5,1501.3,1006.6z"/>
			<path class="st4" d="M1481.1,1048.4v3.4c0,5.4-4.4,9.7-9.7,9.7h-382.9c-5.4,0-9.7-4.4-9.7-9.7v-3.4c0-5.4,4.4-9.7,9.7-9.7h382.9
				C1476.8,1038.7,1481.1,1043.1,1481.1,1048.4z"/>
			<path class="st4" d="M1438.4,1091.5L1438.4,1091.5c-0.3,5.1-4.4,9.1-9.5,9.2l-334.9,6.1c-5.4,0.1-9.9-4.3-9.9-9.7v-0.8
				c0-5.3,4.3-9.7,9.6-9.7l334.9-5.3C1434.2,1081.2,1438.7,1085.9,1438.4,1091.5z"/>
			<path class="st4" d="M1472.6,1508.8c-0.1,0-0.2,0-0.3,0l-452.9-5.4c-7.3-0.1-14.1-3-19.2-8.3c-5.1-5.2-7.8-12.1-7.7-19.4
				l11.7-318.7c0.1-7.2,3.1-14,8.3-19c5.2-5,12.1-7.7,19.4-7.6l452.2,8.8c15,0.3,26.9,12.7,26.6,27.6c0,0,0,0,0,0.1l-10.9,315.3
				C1499.5,1496.9,1487.3,1508.8,1472.6,1508.8z M1031.3,1138.4c-5,0-9.7,1.9-13.2,5.3c-3.7,3.5-5.8,8.3-5.9,13.4l-11.7,318.7
				c-0.1,5.1,1.8,9.9,5.4,13.6c3.6,3.7,8.4,5.7,13.5,5.8l452.9,5.4c0.1,0,0.2,0,0.2,0c10.4,0,18.9-8.4,19.1-18.8l10.9-315.3
				c0.2-10.5-8.2-19.2-18.7-19.4l-452.2-8.8C1031.5,1138.4,1031.4,1138.4,1031.3,1138.4z"/>
			<path class="st4" d="M1500.7,1199.9h-493.3c-2.2,0-4-1.8-4-4s1.8-4,4-4h493.3c2.2,0,4,1.8,4,4S1502.9,1199.9,1500.7,1199.9z"/>
		</g>
		<g>
			<path class="st2" d="M1041.5,1567.8h-427c-13.6,0-24.7-11-24.7-24.7v-412.3c0-13.6,11-24.6,24.6-24.7l430.4-1.2
				c13.7,0,24.8,11.1,24.7,24.8l-3.4,413.4C1066,1556.9,1055,1567.8,1041.5,1567.8z"/>
			<path class="st4" d="M1020.5,1136.6l-381.8,2.4c-13.8,0.1-24.9,11.3-24.9,25.1l2.7,346.7c0.1,13.6,11,24.6,24.6,24.9l371,6.8
				c13.9,0.3,25.3-10.8,25.5-24.7l8.2-355.9C1045.9,1148,1034.6,1136.6,1020.5,1136.6z"/>
			<path class="st5" d="M1005,1168.8v2.6c0,4.1-3.4,7.5-7.5,7.5H703.4c-4.1,0-7.5-3.4-7.5-7.5v-2.6c0-4.1,3.4-7.5,7.5-7.5h294.2
				C1001.7,1161.3,1005,1164.7,1005,1168.8z"/>
			<path class="st5" d="M972.2,1201.9L972.2,1201.9c-0.2,3.9-3.4,7-7.3,7.1l-257.3,4.7c-4.2,0.1-7.6-3.3-7.6-7.5v-0.6
				c0-4.1,3.3-7.4,7.4-7.5l257.3-4.1C968.9,1194,972.4,1197.6,972.2,1201.9z"/>
			<path class="st5" d="M998.5,1523.4c-0.1,0-0.2,0-0.3,0l-348-4.2c-5.9-0.1-11.3-2.4-15.4-6.6c-4.1-4.2-6.3-9.7-6.1-15.6l9-244.9
				c0.1-5.8,2.5-11.2,6.7-15.2c4.2-4,9.7-6.2,15.5-6.1l347.4,6.8c12,0.2,21.6,10.2,21.4,22.2c0,0,0,0,0,0.1l-8.3,242.2
				C1020,1513.9,1010.3,1523.4,998.5,1523.4z M659.4,1238.9c-3.6,0-6.9,1.4-9.5,3.8c-2.6,2.5-4.1,6-4.2,9.6l-9,244.9
				c-0.1,3.6,1.3,7.1,3.9,9.8c2.6,2.6,6,4.1,9.7,4.2l348,4.2c0.1,0,0.1,0,0.2,0c7.5,0,13.6-6,13.7-13.5l8.3-242.2
				c0.1-7.6-5.9-13.8-13.5-14l-347.4-6.8C659.6,1238.9,659.5,1238.9,659.4,1238.9z"/>
			<path class="st5" d="M1020.1,1286.1h-379c-2.2,0-4-1.8-4-4s1.8-4,4-4h379c2.2,0,4,1.8,4,4S1022.3,1286.1,1020.1,1286.1z"/>
		</g>
		<g>
			
				<ellipse transform="matrix(0.7071 -0.7071 0.7071 0.7071 -435.869 962.8615)" class="st8" cx="944.3" cy="1007.6" rx="153.4" ry="153.4"/>
			<path class="st4" d="M802.9,1002.1c0,0-0.1,0-0.1,0c-1.1-0.1-2-1-1.9-2.1c0.3-6,1-12.1,2.1-18c0.2-1.1,1.2-1.8,2.3-1.6
				c1.1,0.2,1.8,1.2,1.6,2.3c-1,5.8-1.7,11.7-2,17.5C804.9,1001.2,804,1002.1,802.9,1002.1z"/>
			<path class="st4" d="M817.8,945.9c-0.3,0-0.6-0.1-0.9-0.2c-1-0.5-1.4-1.7-0.9-2.7c24.6-48.7,73.8-79,128.3-79
				c8.7,0,17.4,0.8,25.9,2.3c1.1,0.2,1.8,1.2,1.6,2.3c-0.2,1.1-1.2,1.8-2.3,1.6c-8.3-1.5-16.7-2.3-25.2-2.3
				c-53,0-100.8,29.4-124.7,76.8C819.3,945.4,818.6,945.9,817.8,945.9z"/>
			
				<ellipse transform="matrix(0.7071 -0.7071 0.7071 0.7071 -437.2537 966.2044)" class="st9" cx="947.7" cy="1010.9" rx="129.9" ry="129.9"/>
			<path class="st11" d="M987.4,961.8c0,22-17.8,45.7-39.8,45.7c-22,0-39.8-23.7-39.8-45.7c0-22,17.8-37.6,39.8-37.6
				C969.6,924.3,987.4,939.9,987.4,961.8z"/>
			<path class="st4" d="M898.2,1092.2h97.2c10.2,0,19.3-6.6,22.4-16.4l5.2-16.3c3.8-12-2.4-24.9-14.2-29.2
				c-39.6-14.5-80.5-12.6-122.3,1.3c-11.7,3.9-18.2,16.5-15,28.4l4,14.8C878.3,1085.1,887.6,1092.2,898.2,1092.2z"/>
		</g>
		<g>
			
				<ellipse transform="matrix(0.7071 -0.7071 0.7071 0.7071 -230.7136 1458.1505)" class="st8" cx="1644.8" cy="1007.6" rx="153.4" ry="153.4"/>
			
				<linearGradient id="SVGID_00000129908657225340364940000010725463149083332785_" gradientUnits="userSpaceOnUse" x1="1501.3408" y1="991.1612" x2="1507.4277" y2="991.1612">
				<stop  offset="0" style="stop-color:#DAE3FE"/>
				<stop  offset="1" style="stop-color:#E9EFFD"/>
			</linearGradient>
			<path style="fill:url(#SVGID_00000129908657225340364940000010725463149083332785_);" d="M1503.4,1002.1c0,0-0.1,0-0.1,0
				c-1.1-0.1-2-1-1.9-2.1c0.3-6,1-12.1,2.1-18c0.2-1.1,1.2-1.8,2.3-1.6c1.1,0.2,1.8,1.2,1.6,2.3c-1,5.8-1.7,11.7-2,17.5
				C1505.3,1001.2,1504.4,1002.1,1503.4,1002.1z"/>
			
				<linearGradient id="SVGID_00000181781602497579827730000001616883611435756944_" gradientUnits="userSpaceOnUse" x1="1516.26" y1="904.8911" x2="1672.3521" y2="904.8911">
				<stop  offset="0" style="stop-color:#DAE3FE"/>
				<stop  offset="1" style="stop-color:#E9EFFD"/>
			</linearGradient>
			<path style="fill:url(#SVGID_00000181781602497579827730000001616883611435756944_);" d="M1518.3,945.9c-0.3,0-0.6-0.1-0.9-0.2
				c-1-0.5-1.4-1.7-0.9-2.7c24.6-48.7,73.8-79,128.3-79c8.7,0,17.4,0.8,25.9,2.3c1.1,0.2,1.8,1.2,1.6,2.3c-0.2,1.1-1.2,1.8-2.3,1.6
				c-8.3-1.5-16.7-2.3-25.2-2.3c-53,0-100.8,29.4-124.7,76.8C1519.7,945.4,1519,945.9,1518.3,945.9z"/>
			
				<ellipse transform="matrix(0.7071 -0.7071 0.7071 0.7071 -232.0983 1461.4934)" class="st5" cx="1648.1" cy="1010.9" rx="129.9" ry="129.9"/>
			<path class="st11" d="M1687.9,961.8c0,22-17.8,45.7-39.8,45.7c-22,0-39.8-23.7-39.8-45.7c0-22,17.8-37.6,39.8-37.6
				C1670.1,924.3,1687.9,939.9,1687.9,961.8z"/>
			<path class="st11" d="M1598.7,1092.2h97.2c10.2,0,19.3-6.6,22.4-16.4l5.2-16.3c3.8-12-2.4-24.9-14.2-29.2
				c-39.6-14.5-80.5-12.6-122.3,1.3c-11.7,3.9-18.2,16.5-15,28.4l4,14.8C1578.7,1085.1,1588,1092.2,1598.7,1092.2z"/>
		</g>
		<g>
			<circle class="st8" cx="944.3" cy="626.8" r="153.4"/>
			<path class="st4" d="M802.9,621.3c0,0-0.1,0-0.1,0c-1.1-0.1-2-1-1.9-2.1c0.3-6,1-12.1,2.1-18c0.2-1.1,1.2-1.8,2.3-1.6
				c1.1,0.2,1.8,1.2,1.6,2.3c-1,5.8-1.7,11.7-2,17.5C804.9,620.4,804,621.3,802.9,621.3z"/>
			<path class="st4" d="M817.8,565c-0.3,0-0.6-0.1-0.9-0.2c-1-0.5-1.4-1.7-0.9-2.7c24.6-48.7,73.8-79,128.3-79
				c8.7,0,17.4,0.8,25.9,2.3c1.1,0.2,1.8,1.2,1.6,2.3c-0.2,1.1-1.3,1.8-2.3,1.6c-8.3-1.5-16.7-2.3-25.2-2.3
				c-53,0-100.8,29.4-124.7,76.8C819.3,564.6,818.6,565,817.8,565z"/>
			
				<ellipse transform="matrix(0.7071 -0.7071 0.7071 0.7071 -167.9838 854.6692)" class="st9" cx="947.7" cy="630.1" rx="129.9" ry="129.9"/>
			<path class="st4" d="M987.4,581c0,22-17.8,45.7-39.8,45.7c-22,0-39.8-23.7-39.8-45.7c0-22,17.8-37.6,39.8-37.6
				C969.6,543.5,987.4,559.1,987.4,581z"/>
			<path class="st4" d="M898.2,711.4h97.2c10.2,0,19.3-6.6,22.4-16.4l5.2-16.3c3.8-12-2.4-24.9-14.2-29.2
				c-39.6-14.5-80.5-12.6-122.3,1.3c-11.7,3.9-18.2,16.5-15,28.4l4,14.8C878.3,704.3,887.6,711.4,898.2,711.4z"/>
		</g>
		<g>
			<circle class="st8" cx="1644.8" cy="626.8" r="153.4"/>
			<path class="st4" d="M1503.4,621.3c0,0-0.1,0-0.1,0c-1.1-0.1-2-1-1.9-2.1c0.3-6,1-12.1,2.1-18c0.2-1.1,1.2-1.8,2.3-1.6
				c1.1,0.2,1.8,1.2,1.6,2.3c-1,5.8-1.7,11.7-2,17.5C1505.3,620.4,1504.4,621.3,1503.4,621.3z"/>
			<path class="st4" d="M1518.3,565c-0.3,0-0.6-0.1-0.9-0.2c-1-0.5-1.4-1.7-0.9-2.7c24.6-48.7,73.8-79,128.3-79
				c8.7,0,17.4,0.8,25.9,2.3c1.1,0.2,1.8,1.2,1.6,2.3c-0.2,1.1-1.3,1.8-2.3,1.6c-8.3-1.5-16.7-2.3-25.2-2.3
				c-53,0-100.8,29.4-124.7,76.8C1519.7,564.6,1519,565,1518.3,565z"/>
			
				<ellipse transform="matrix(0.7071 -0.7071 0.7071 0.7071 37.1716 1349.9581)" class="st9" cx="1648.1" cy="630.1" rx="129.9" ry="129.9"/>
			<path class="st4" d="M1687.9,581c0,22-17.8,45.7-39.8,45.7c-22,0-39.8-23.7-39.8-45.7c0-22,17.8-37.6,39.8-37.6
				C1670.1,543.5,1687.9,559.1,1687.9,581z"/>
			<path class="st4" d="M1598.7,711.4h97.2c10.2,0,19.3-6.6,22.4-16.4l5.2-16.3c3.8-12-2.4-24.9-14.2-29.2
				c-39.6-14.5-80.5-12.6-122.3,1.3c-11.7,3.9-18.2,16.5-15,28.4l4,14.8C1578.7,704.3,1588,711.4,1598.7,711.4z"/>
		</g>
		<g>
			
				<ellipse transform="matrix(0.7071 -0.7071 0.7071 0.7071 -489.3616 1267.797)" class="st8" cx="1285.7" cy="1224.6" rx="153.4" ry="153.4"/>
			<path class="st4" d="M1144.3,1219.1c0,0-0.1,0-0.1,0c-1.1-0.1-2-1-1.9-2.1c0.3-6,1-12.1,2.1-18c0.2-1.1,1.2-1.8,2.3-1.6
				c1.1,0.2,1.8,1.2,1.6,2.3c-1,5.8-1.7,11.7-2,17.5C1146.2,1218.3,1145.3,1219.1,1144.3,1219.1z"/>
			<path class="st4" d="M1159.2,1162.9c-0.3,0-0.6-0.1-0.9-0.2c-1-0.5-1.4-1.7-0.9-2.7c24.6-48.7,73.8-79,128.3-79
				c8.7,0,17.4,0.8,25.9,2.3c1.1,0.2,1.8,1.2,1.6,2.3c-0.2,1.1-1.2,1.8-2.3,1.6c-8.3-1.5-16.7-2.3-25.2-2.3
				c-53,0-100.8,29.4-124.7,76.8C1160.6,1162.5,1159.9,1162.9,1159.2,1162.9z"/>
			
				<ellipse transform="matrix(0.7071 -0.7071 0.7071 0.7071 -490.7463 1271.1399)" class="st9" cx="1289" cy="1228" rx="129.9" ry="129.9"/>
			<path class="st4" d="M1328.8,1178.9c0,22-17.8,45.7-39.8,45.7c-22,0-39.8-23.7-39.8-45.7c0-22,17.8-37.6,39.8-37.6
				C1311,1141.3,1328.8,1156.9,1328.8,1178.9z"/>
			<path class="st4" d="M1239.6,1309.3h97.2c10.2,0,19.3-6.6,22.4-16.4l5.2-16.3c3.8-12-2.4-24.9-14.2-29.2
				c-39.6-14.5-80.5-12.6-122.3,1.3c-11.7,3.9-18.2,16.5-15,28.4l4,14.8C1219.6,1302.1,1228.9,1309.3,1239.6,1309.3z"/>
		</g>
		<g>
			
				<ellipse transform="matrix(0.7071 -0.7071 0.7071 0.7071 86.8478 1029.1232)" class="st8" cx="1285.7" cy="409.7" rx="153.4" ry="153.4"/>
			<path class="st4" d="M1144.3,404.2c0,0-0.1,0-0.1,0c-1.1-0.1-2-1-1.9-2.1c0.3-6,1-12.1,2.1-18c0.2-1.1,1.2-1.8,2.3-1.6
				c1.1,0.2,1.8,1.2,1.6,2.3c-1,5.8-1.7,11.7-2,17.5C1146.2,403.4,1145.3,404.2,1144.3,404.2z"/>
			<path class="st4" d="M1159.2,348c-0.3,0-0.6-0.1-0.9-0.2c-1-0.5-1.4-1.7-0.9-2.7c24.6-48.7,73.8-79,128.3-79
				c8.7,0,17.4,0.8,25.9,2.3c1.1,0.2,1.8,1.2,1.6,2.3c-0.2,1.1-1.3,1.8-2.3,1.6c-8.2-1.5-16.7-2.3-25.2-2.3
				c-53,0-100.8,29.4-124.7,76.8C1160.6,347.6,1159.9,348,1159.2,348z"/>
			
				<ellipse transform="matrix(0.7071 -0.7071 0.7071 0.7071 85.4631 1032.4661)" class="st9" cx="1289" cy="413.1" rx="129.9" ry="129.9"/>
			<path class="st4" d="M1328.8,364c0,22-17.8,45.7-39.8,45.7c-22,0-39.8-23.7-39.8-45.7c0-22,17.8-37.6,39.8-37.6
				C1311,326.4,1328.8,342,1328.8,364z"/>
			<path class="st4" d="M1239.6,494.4h97.2c10.2,0,19.3-6.6,22.4-16.4l5.2-16.3c3.8-12-2.4-24.9-14.2-29.2
				c-39.6-14.5-80.5-12.6-122.3,1.3c-11.7,3.9-18.2,16.5-15,28.4l4,14.8C1219.6,487.3,1228.9,494.4,1239.6,494.4z"/>
		</g>
		<g>
			<path class="st8" d="M309.3,1388.3l4,157.5c0.3,12.2,15.5,22,34.1,22h469.6c18.8,0,34.1-10,34.1-22.4V1398
				c0-12.1-14.6-22-33-22.4l-473.6-10.1C325,1365.1,308.9,1375.5,309.3,1388.3z"/>
			<path class="st10" d="M348.1,1403.7l10.2,144.8c0.4,5.6,7.4,9.9,15.9,9.8l427.6-5c8.5-0.1,15.4-4.7,15.4-10.3v-125.6
				c0-5.5-6.5-10-14.9-10.3l-437.8-14.3C355.3,1392.6,347.7,1397.6,348.1,1403.7z"/>
			<path class="st4" d="M382.2,1417.2v10.4c0,3.7,4.6,6.6,10.2,6.6l368.8-4c5.5-0.1,9.8-3,9.8-6.6l0,0c0-3.6-4.3-6.5-9.7-6.6
				l-368.8-6.5C386.9,1410.6,382.2,1413.5,382.2,1417.2z"/>
			<path class="st4" d="M387.7,1456.6v9.6c0,3.7,4.7,6.7,10.3,6.6l351.3-8.1c5.4-0.1,9.7-3,9.7-6.6v-3c0-3.7-4.5-6.6-10.1-6.6
				l-351.3,1.5C392.2,1450.1,387.7,1453,387.7,1456.6z"/>
		</g>
		<g>
			<path class="st4" d="M774.3,856.5l-5.8-1.6c-1.1-0.3-1.7-1.4-1.4-2.5c0.3-1.1,1.4-1.7,2.5-1.4l0,0l5.8,1.6
				c1.1,0.3,1.7,1.4,1.4,2.5C776.5,856.2,775.4,856.8,774.3,856.5z"/>
			<path class="st4" d="M754.9,851.6l-5.9-1.3c-1.1-0.2-1.8-1.3-1.6-2.5c0.2-1.1,1.3-1.8,2.5-1.6l0,0l5.9,1.3
				c1.1,0.2,1.8,1.3,1.6,2.5C757.1,851.2,756,851.9,754.9,851.6z"/>
			<path class="st4" d="M735.2,847.7l-6-1c-1.2-0.2-1.9-1.3-1.7-2.4c0.2-1.2,1.3-1.9,2.4-1.7l0,0l6,1c1.1,0.2,1.9,1.3,1.7,2.4
				C737.4,847.1,736.3,847.9,735.2,847.7z"/>
			<path class="st4" d="M715.4,844.7l-6-0.7c-1.2-0.1-2-1.2-1.9-2.4c0.1-1.2,1.2-2,2.4-1.9l0,0l6,0.7c1.2,0.1,2,1.2,1.9,2.4
				C717.6,844,716.6,844.9,715.4,844.7z"/>
			<path class="st4" d="M695.4,842.7l-6-0.4c-1.2-0.1-2.1-1.1-2.1-2.3c0.1-1.2,1.1-2.1,2.3-2.1l0,0l6,0.4c1.2,0.1,2.1,1.1,2,2.3
				C697.7,841.9,696.7,842.8,695.4,842.7z"/>
			<path class="st4" d="M675.4,841.7l-6-0.1c-1.2,0-2.2-1-2.2-2.3c0-1.2,1-2.2,2.3-2.2l0,0l6,0.1c1.2,0,2.2,1.1,2.2,2.3
				C677.7,840.8,676.7,841.8,675.4,841.7z"/>
			<path class="st4" d="M655.4,841.7l-6,0.2c-1.3,0-2.3-1-2.4-2.2c0-1.3,1-2.3,2.2-2.4l0,0l6-0.2c1.3,0,2.3,1,2.3,2.2
				C657.6,840.6,656.7,841.7,655.4,841.7z"/>
			<path class="st4" d="M635.4,842.7l-6,0.5c-1.3,0.1-2.4-0.9-2.5-2.1c-0.1-1.3,0.9-2.4,2.1-2.5l0,0l6-0.4c1.3-0.1,2.4,0.9,2.5,2.1
				C637.6,841.4,636.7,842.6,635.4,842.7z"/>
			<path class="st4" d="M615.4,844.6l-6,0.8c-1.3,0.2-2.5-0.8-2.7-2.1c-0.2-1.3,0.8-2.5,2.1-2.7l0,0l6-0.7c1.3-0.2,2.5,0.8,2.6,2.1
				C617.6,843.2,616.7,844.4,615.4,844.6z"/>
			<path class="st4" d="M595.6,847.4l-6,1c-1.3,0.2-2.6-0.7-2.8-2c-0.2-1.3,0.6-2.6,2-2.8l0,0l6-1c1.3-0.2,2.6,0.7,2.8,2
				C597.8,845.9,596.9,847.2,595.6,847.4z"/>
			<path class="st4" d="M575.9,851.2l-5.9,1.3c-1.3,0.3-2.7-0.5-3-1.9c-0.3-1.3,0.5-2.7,1.9-3l0,0l5.9-1.3c1.3-0.3,2.6,0.5,2.9,1.9
				C578.1,849.6,577.3,850.9,575.9,851.2z"/>
			<path class="st4" d="M556.5,856l-5.8,1.6c-1.3,0.4-2.7-0.4-3.1-1.8c-0.4-1.3,0.4-2.7,1.8-3.1l0,0l5.8-1.6
				c1.3-0.4,2.7,0.4,3.1,1.8C558.6,854.2,557.8,855.6,556.5,856z"/>
			<path class="st4" d="M537.3,861.6l-5.7,1.9c-1.3,0.4-2.8-0.3-3.2-1.6c-0.4-1.3,0.3-2.8,1.6-3.2l0,0l5.7-1.9
				c1.3-0.4,2.8,0.3,3.2,1.6C539.3,859.8,538.6,861.2,537.3,861.6z"/>
			<path class="st4" d="M518.4,868.3l-5.6,2.2c-1.3,0.5-2.8-0.1-3.4-1.5c-0.5-1.3,0.1-2.8,1.5-3.4l0,0l5.6-2.2
				c1.3-0.5,2.8,0.2,3.3,1.5C520.4,866.2,519.7,867.7,518.4,868.3z"/>
			<path class="st4" d="M499.9,875.8l-5.5,2.5c-1.3,0.6-2.9,0-3.5-1.3c-0.6-1.3,0-2.9,1.3-3.5l0,0l5.5-2.4c1.3-0.6,2.9,0,3.5,1.3
				C501.8,873.7,501.2,875.2,499.9,875.8z"/>
			<path class="st4" d="M481.7,884.3l-5.4,2.7c-1.3,0.7-2.9,0.1-3.6-1.2c-0.7-1.3-0.1-2.9,1.2-3.6l0,0l5.4-2.7
				c1.3-0.7,2.9-0.1,3.6,1.2C483.6,882,483,883.6,481.7,884.3z"/>
			<path class="st4" d="M464,893.6l-5.2,3c-1.3,0.8-3,0.3-3.7-1c-0.8-1.3-0.3-3,1-3.7l0,0l5.3-3c1.3-0.7,3-0.3,3.7,1
				C465.8,891.2,465.4,892.9,464,893.6z"/>
			<path class="st4" d="M446.9,903.9l-5.1,3.3c-1.3,0.8-3,0.5-3.8-0.8c-0.8-1.3-0.5-3,0.8-3.8l0,0l5.1-3.2c1.3-0.8,3-0.4,3.8,0.8
				C448.5,901.4,448.2,903.1,446.9,903.9z"/>
			<path class="st4" d="M430.2,915l-4.9,3.5c-1.3,0.9-3,0.6-3.9-0.7c-0.9-1.3-0.6-3,0.7-3.9l0,0l4.9-3.5c1.3-0.9,3-0.6,3.9,0.7
				C431.8,912.4,431.5,914.1,430.2,915z"/>
			<path class="st4" d="M414.2,926.9l-4.7,3.8c-1.2,1-3,0.8-4-0.5c-1-1.2-0.8-3,0.5-4l0,0l4.8-3.7c1.2-1,3-0.8,4,0.5
				C415.6,924.2,415.4,926,414.2,926.9z"/>
			<path class="st4" d="M398.7,939.6l-4.5,4c-1.2,1.1-3.1,0.9-4.1-0.3c-1.1-1.2-0.9-3.1,0.3-4.1l0,0l4.6-4c1.2-1,3-0.9,4.1,0.3
				C400.1,936.8,399.9,938.6,398.7,939.6z"/>
			<path class="st4" d="M383.9,953.1l-4.4,4.2c-1.2,1.1-3,1.1-4.2-0.1c-1.1-1.2-1.1-3,0.1-4.2l0,0l4.4-4.2c1.2-1.1,3-1.1,4.2,0.1
				C385.1,950.1,385.1,951.9,383.9,953.1z"/>
			<path class="st4" d="M369.7,967.2l-4.1,4.4c-1.1,1.2-3,1.3-4.2,0.1c-1.2-1.1-1.3-3-0.1-4.2l0,0l4.2-4.4c1.1-1.2,3-1.2,4.2-0.1
				C370.8,964.1,370.9,966,369.7,967.2z"/>
			<path class="st4" d="M356.3,982l-3.9,4.6c-1.1,1.3-3,1.4-4.3,0.3c-1.3-1.1-1.4-3-0.3-4.3l0,0l3.9-4.6c1.1-1.3,3-1.4,4.3-0.3
				C357.2,978.8,357.4,980.7,356.3,982z"/>
			<path class="st4" d="M343.5,997.4l-3.7,4.8c-1,1.3-3,1.6-4.3,0.5c-1.3-1-1.6-3-0.5-4.3l0,0l3.7-4.8c1-1.3,3-1.6,4.3-0.5
				C344.3,994.1,344.6,996.1,343.5,997.4z"/>
			<path class="st4" d="M331.5,1013.4l-3.5,5c-1,1.4-2.9,1.8-4.4,0.8c-1.4-1-1.8-2.9-0.8-4.4l0,0l3.5-4.9c1-1.4,2.9-1.7,4.4-0.7
				C332.2,1010.1,332.5,1012,331.5,1013.4z"/>
			<path class="st4" d="M320.3,1030l-3.2,5.1c-0.9,1.5-2.9,1.9-4.4,1c-1.5-0.9-1.9-2.9-1-4.4l0,0l3.2-5.1c0.9-1.5,2.9-1.9,4.4-1
				C320.8,1026.6,321.3,1028.5,320.3,1030z"/>
			<path class="st4" d="M310,1047.1l-3,5.3c-0.9,1.6-2.8,2.1-4.4,1.2s-2.1-2.8-1.2-4.4l0,0l3-5.2c0.9-1.5,2.8-2.1,4.4-1.2
				C310.3,1043.6,310.8,1045.5,310,1047.1z"/>
			<path class="st4" d="M300.4,1064.6l-2.7,5.4c-0.8,1.6-2.8,2.3-4.4,1.5c-1.6-0.8-2.3-2.8-1.5-4.4l0,0l2.7-5.4
				c0.8-1.6,2.8-2.2,4.4-1.4C300.6,1061.1,301.2,1063,300.4,1064.6z"/>
			<path class="st4" d="M291.8,1082.6l-2.4,5.5c-0.7,1.7-2.7,2.4-4.4,1.7c-1.7-0.7-2.4-2.7-1.7-4.4l0,0l2.5-5.5
				c0.7-1.7,2.7-2.4,4.4-1.7C291.8,1079,292.5,1081,291.8,1082.6z"/>
			<path class="st4" d="M284,1101.1l-2.2,5.6c-0.7,1.7-2.6,2.6-4.3,1.9c-1.7-0.7-2.6-2.6-1.9-4.3l0,0l2.2-5.6
				c0.7-1.7,2.6-2.6,4.3-1.9C283.8,1097.4,284.7,1099.3,284,1101.1z"/>
			<path class="st4" d="M277.2,1119.8l-1.9,5.8c-0.6,1.8-2.5,2.7-4.2,2.2c-1.8-0.6-2.7-2.5-2.2-4.2l0,0l1.9-5.7
				c0.6-1.8,2.5-2.7,4.2-2.2C276.8,1116.2,277.8,1118.1,277.2,1119.8z"/>
			<path class="st4" d="M271.5,1138.9l-1.5,5.8c-0.5,1.8-2.3,2.9-4.1,2.4c-1.8-0.5-2.9-2.3-2.4-4.1l0,0l1.5-5.8
				c0.5-1.8,2.3-2.9,4.1-2.4C270.9,1135.3,271.9,1137.1,271.5,1138.9z"/>
			<path class="st4" d="M266.8,1158.3l-1.2,5.9c-0.4,1.9-2.2,3-4,2.7c-1.8-0.4-3-2.2-2.7-4l0,0l1.2-5.9c0.4-1.8,2.2-3,4-2.7
				C266,1154.7,267.2,1156.5,266.8,1158.3z"/>
			<path class="st4" d="M263.3,1178l-0.8,6c-0.3,1.9-2,3.2-3.9,2.9c-1.9-0.3-3.2-2-2.9-3.9l0,0l0.8-6c0.3-1.9,2-3.2,3.9-2.9
				C262.3,1174.3,263.6,1176.1,263.3,1178z"/>
			<path class="st4" d="M261.1,1197.7l-0.4,6c-0.1,1.9-1.8,3.3-3.7,3.2c-1.9-0.1-3.3-1.8-3.2-3.7l0,0l0.4-6c0.1-1.9,1.8-3.3,3.7-3.2
				C259.8,1194.2,261.2,1195.8,261.1,1197.7z"/>
			<path class="st4" d="M260.1,1217.6l0,6c0,1.9-1.6,3.5-3.5,3.5c-1.9,0-3.5-1.6-3.5-3.5v0l0-6c0-1.9,1.6-3.5,3.5-3.5
				C258.6,1214.1,260.1,1215.7,260.1,1217.6z"/>
			<path class="st4" d="M260.7,1237.5l0.5,6c0.1,1.9-1.3,3.6-3.2,3.8c-1.9,0.1-3.6-1.3-3.8-3.2l0,0l-0.4-6c-0.1-1.9,1.3-3.6,3.2-3.8
				C258.8,1234.1,260.5,1235.6,260.7,1237.5z"/>
			<path class="st4" d="M262.7,1257.2l1,6c0.3,1.9-1,3.7-2.9,4.1c-1.9,0.3-3.7-1-4.1-2.9l0,0l-0.9-6c-0.3-1.9,1-3.7,2.9-4
				C260.6,1254,262.4,1255.3,262.7,1257.2z"/>
			<path class="st4" d="M266.4,1276.7l1.5,5.9c0.5,1.9-0.7,3.8-2.6,4.3c-1.9,0.5-3.8-0.7-4.3-2.6l0,0l-1.5-5.9
				c-0.5-1.9,0.7-3.8,2.6-4.3C264,1273.7,266,1274.8,266.4,1276.7z"/>
			<path class="st4" d="M271.9,1295.7l2,5.7c0.7,1.9-0.3,3.9-2.2,4.6c-1.9,0.7-3.9-0.3-4.6-2.2l0,0l-2-5.7c-0.7-1.9,0.3-3.9,2.2-4.6
				C269.2,1292.9,271.2,1293.9,271.9,1295.7z"/>
			<path class="st4" d="M279.2,1314.1l2.6,5.5c0.9,1.8,0.1,4-1.7,4.8c-1.8,0.9-4,0.1-4.8-1.7l0,0l-2.6-5.5c-0.8-1.8-0.1-4,1.7-4.8
				C276.2,1311.6,278.3,1312.3,279.2,1314.1z"/>
			<path class="st4" d="M288.2,1331.7l3.1,5.2c1,1.7,0.5,4-1.2,5c-1.7,1-4,0.5-5-1.2l0,0l-3.1-5.2c-1-1.7-0.5-4,1.3-5
				C285,1329.4,287.2,1330,288.2,1331.7z"/>
			<path class="st4" d="M299,1348.3l3.6,4.9c1.2,1.6,0.9,3.9-0.8,5.1c-1.6,1.2-3.9,0.9-5.1-0.8l0,0l-3.6-4.9
				c-1.2-1.6-0.8-3.9,0.8-5.1C295.5,1346.4,297.8,1346.7,299,1348.3z"/>
			<path class="st4" d="M311.2,1363.9l4,4.5c1.4,1.5,1.2,3.9-0.3,5.2c-1.5,1.4-3.9,1.2-5.2-0.3l0,0l-4-4.5c-1.3-1.5-1.2-3.9,0.3-5.2
				C307.6,1362.2,309.9,1362.4,311.2,1363.9z"/>
			<path class="st4" d="M324.8,1378.4l4.4,4.2c1.5,1.4,1.5,3.8,0.1,5.3c-1.4,1.5-3.8,1.5-5.3,0.1l0,0l-4.3-4.2
				c-1.5-1.4-1.5-3.8-0.1-5.2C321,1377,323.3,1377,324.8,1378.4z"/>
			<path class="st4" d="M339.5,1391.8l4.6,3.9c1.6,1.3,1.8,3.7,0.5,5.3c-1.3,1.6-3.7,1.8-5.3,0.5l0,0l-4.6-3.9
				c-1.6-1.3-1.8-3.7-0.5-5.3S337.9,1390.5,339.5,1391.8z"/>
			<path class="st4" d="M355.1,1404.1l4.9,3.6c1.7,1.2,2.1,3.6,0.8,5.3c-1.2,1.7-3.6,2.1-5.3,0.8l0,0l-4.9-3.6
				c-1.7-1.2-2-3.6-0.8-5.2C351.1,1403.3,353.4,1402.9,355.1,1404.1z"/>
			<path class="st4" d="M371.4,1415.5l5.1,3.3c1.8,1.1,2.3,3.5,1.1,5.2c-1.1,1.8-3.5,2.3-5.2,1.1l0,0l-5.1-3.3
				c-1.8-1.1-2.3-3.5-1.1-5.2C367.3,1414.9,369.7,1414.4,371.4,1415.5z"/>
			<path class="st4" d="M388.4,1426l5.2,3c1.8,1,2.5,3.4,1.4,5.2c-1,1.8-3.4,2.5-5.2,1.4l0,0l-5.2-3c-1.8-1.1-2.4-3.4-1.4-5.2
				C384.3,1425.6,386.6,1425,388.4,1426z"/>
			<path class="st4" d="M405.9,1435.7l5.4,2.8c1.9,1,2.6,3.3,1.7,5.2c-1,1.9-3.3,2.6-5.2,1.7l0,0l-5.4-2.8c-1.9-1-2.6-3.3-1.6-5.2
				C401.7,1435.4,404,1434.7,405.9,1435.7z"/>
			<path class="st4" d="M423.8,1444.6l5.5,2.6c1.9,0.9,2.8,3.2,1.9,5.1c-0.9,1.9-3.2,2.8-5.1,1.9l0,0l-5.5-2.6
				c-1.9-0.9-2.8-3.2-1.9-5.1C419.6,1444.5,421.8,1443.7,423.8,1444.6z"/>
			<path class="st4" d="M442,1452.8l5.6,2.4c2,0.8,2.9,3.1,2.1,5.1c-0.8,2-3.1,2.9-5.1,2.1l0,0l-5.6-2.4c-2-0.8-2.9-3.1-2-5.1
				C437.8,1452.9,440,1452,442,1452.8z"/>
			<path class="st4" d="M460.6,1460.4l5.6,2.2c2,0.8,3,3.1,2.2,5.1c-0.8,2-3.1,3-5.1,2.2l0,0l-5.6-2.2c-2-0.8-3-3.1-2.2-5.1
				C456.3,1460.6,458.5,1459.6,460.6,1460.4z"/>
			<path class="st4" d="M479.3,1467.5l5.7,2c2,0.7,3.1,3,2.4,5c-0.7,2-3,3.1-5,2.4l0,0l-5.7-2.1c-2-0.7-3.1-3-2.4-5
				C475,1467.8,477.3,1466.8,479.3,1467.5z"/>
			<path class="st4" d="M498.2,1474.1l5.7,1.9c2.1,0.7,3.2,2.9,2.5,5c-0.7,2.1-2.9,3.2-5,2.5l0,0l-5.7-1.9c-2.1-0.7-3.2-2.9-2.5-5
				C493.9,1474.5,496.2,1473.4,498.2,1474.1z"/>
			<path class="st4" d="M517.3,1480.1l5.8,1.7c2.1,0.6,3.3,2.8,2.7,5c-0.6,2.1-2.8,3.3-5,2.7l0,0l-5.8-1.7c-2.1-0.6-3.3-2.8-2.7-5
				C513,1480.7,515.2,1479.5,517.3,1480.1z"/>
			<path class="st4" d="M536.6,1485.7l5.8,1.6c2.1,0.6,3.4,2.8,2.8,4.9c-0.6,2.1-2.8,3.4-4.9,2.8l0,0l-5.8-1.6
				c-2.1-0.6-3.4-2.8-2.8-4.9C532.3,1486.3,534.5,1485.1,536.6,1485.7z"/>
			<path class="st4" d="M556,1490.6l5.9,1.4c2.2,0.5,3.5,2.7,3,4.9c-0.5,2.2-2.7,3.5-4.9,3l0,0l-5.9-1.4c-2.2-0.5-3.5-2.7-3-4.9
				C551.7,1491.5,553.8,1490.1,556,1490.6z"/>
			<path class="st4" d="M575.5,1495.1l5.9,1.2c2.2,0.5,3.6,2.6,3.1,4.8c-0.5,2.2-2.6,3.6-4.8,3.1l0,0l-5.9-1.3
				c-2.2-0.5-3.6-2.6-3.1-4.8C571.2,1496.1,573.3,1494.7,575.5,1495.1z"/>
			<path class="st4" d="M595.2,1499.1l5.9,1.1c2.2,0.4,3.7,2.5,3.3,4.8c-0.4,2.2-2.5,3.7-4.8,3.3l0,0l-5.9-1.1
				c-2.2-0.4-3.7-2.5-3.3-4.8C590.8,1500.1,592.9,1498.7,595.2,1499.1z"/>
			<path class="st4" d="M614.9,1502.5l6,0.9c2.2,0.4,3.8,2.5,3.4,4.7c-0.3,2.2-2.5,3.8-4.7,3.4l0,0l-6-0.9c-2.2-0.4-3.8-2.5-3.4-4.7
				C610.6,1503.7,612.7,1502.1,614.9,1502.5z"/>
			<path class="st4" d="M634.7,1505.4l6,0.8c2.3,0.3,3.9,2.4,3.6,4.6c-0.3,2.3-2.4,3.9-4.6,3.6l0,0l-6-0.8c-2.3-0.3-3.9-2.4-3.6-4.6
				C630.4,1506.7,632.5,1505.1,634.7,1505.4z"/>
			<path class="st4" d="M654.6,1507.8l6,0.6c2.3,0.2,4,2.3,3.7,4.6c-0.2,2.3-2.3,4-4.6,3.7l0,0l-6-0.6c-2.3-0.2-3.9-2.3-3.7-4.6
				C650.3,1509.2,652.3,1507.5,654.6,1507.8z"/>
			<path class="st4" d="M674.6,1509.6l6,0.5c2.3,0.2,4,2.2,3.9,4.5c-0.2,2.3-2.2,4-4.5,3.9h0l-6-0.5c-2.3-0.2-4-2.2-3.8-4.5
				C670.3,1511.2,672.3,1509.5,674.6,1509.6z"/>
			<path class="st4" d="M694.6,1511l6,0.3c2.3,0.1,4.1,2.1,4,4.4c-0.1,2.3-2.1,4.1-4.4,4h0l-6-0.3c-2.3-0.1-4.1-2.1-4-4.4
				C690.3,1512.6,692.2,1510.9,694.6,1511z"/>
			<path class="st4" d="M714.6,1511.8l6,0.1c2.3,0.1,4.2,2,4.1,4.3c-0.1,2.3-2,4.2-4.3,4.1h0l-6-0.2c-2.3-0.1-4.2-2-4.1-4.3
				C710.3,1513.6,712.3,1511.7,714.6,1511.8z"/>
			<path class="st4" d="M734.6,1512.1l6,0c2.3,0,4.2,1.9,4.2,4.2c0,2.3-1.9,4.2-4.2,4.2h0l-6,0c-2.3,0-4.2-1.9-4.2-4.2
				C730.4,1514,732.3,1512.1,734.6,1512.1z"/>
			<path class="st4" d="M754.7,1511.9l6-0.2c2.3-0.1,4.3,1.8,4.4,4.1c0.1,2.3-1.8,4.3-4.1,4.4l0,0l-6,0.2c-2.3,0.1-4.3-1.8-4.3-4.1
				C750.5,1513.9,752.3,1511.9,754.7,1511.9z"/>
			<path class="st4" d="M774.7,1511.1l6-0.3c2.3-0.1,4.3,1.7,4.5,4c0.1,2.3-1.7,4.3-4,4.5h0l-6,0.3c-2.3,0.1-4.3-1.7-4.5-4
				C770.6,1513.3,772.4,1511.3,774.7,1511.1z"/>
			<path class="st4" d="M794.7,1509.9l6-0.5c2.3-0.2,4.4,1.6,4.6,3.9c0.2,2.3-1.6,4.4-3.9,4.6h0l-6,0.5c-2.3,0.2-4.4-1.6-4.6-3.9
				C790.6,1512.1,792.4,1510,794.7,1509.9z"/>
			<path class="st4" d="M814.7,1508.1l6-0.6c2.3-0.3,4.4,1.4,4.7,3.8c0.3,2.3-1.4,4.4-3.8,4.7h0l-6,0.6c-2.3,0.2-4.4-1.4-4.7-3.8
				C810.6,1510.4,812.3,1508.3,814.7,1508.1z"/>
			<path class="st4" d="M834.6,1505.7l6-0.8c2.3-0.3,4.5,1.3,4.8,3.7c0.3,2.3-1.3,4.5-3.7,4.8h0l-6,0.8c-2.3,0.3-4.5-1.3-4.8-3.7
				C830.6,1508.2,832.2,1506.1,834.6,1505.7z"/>
			<path class="st4" d="M854.4,1502.9l6-1c2.3-0.4,4.5,1.2,4.9,3.5c0.4,2.3-1.2,4.5-3.5,4.9h0l-6,1c-2.3,0.4-4.5-1.2-4.9-3.5
				C850.5,1505.5,852.1,1503.3,854.4,1502.9z"/>
			<path class="st4" d="M874.1,1499.5l5.9-1.1c2.3-0.4,4.6,1.1,5,3.4c0.4,2.3-1.1,4.6-3.4,5l0,0l-5.9,1.1c-2.3,0.4-4.6-1.1-5-3.4
				C870.3,1502.2,871.8,1500,874.1,1499.5z"/>
			<path class="st4" d="M893.8,1495.6l5.9-1.3c2.3-0.5,4.6,1,5.1,3.3c0.5,2.3-1,4.6-3.3,5.1l0,0l-5.9,1.3c-2.3,0.5-4.6-1-5.1-3.3
				C890,1498.4,891.5,1496.1,893.8,1495.6z"/>
			<path class="st4" d="M913.3,1491.2l5.9-1.4c2.3-0.6,4.6,0.8,5.2,3.2c0.6,2.3-0.8,4.6-3.2,5.2l0,0l-5.9,1.4
				c-2.3,0.6-4.6-0.9-5.2-3.2C909.6,1494.1,911,1491.8,913.3,1491.2z"/>
			<path class="st4" d="M932.7,1486.3l5.8-1.6c2.3-0.6,4.7,0.7,5.3,3c0.6,2.3-0.7,4.7-3,5.3l0,0l-5.8,1.6c-2.3,0.6-4.7-0.7-5.3-3
				C929.1,1489.3,930.4,1486.9,932.7,1486.3z"/>
			<path class="st4" d="M952,1480.8l5.8-1.8c2.3-0.7,4.7,0.6,5.4,2.9c0.7,2.3-0.6,4.7-2.9,5.4l0,0l-5.8,1.7
				c-2.3,0.7-4.7-0.6-5.4-2.9C948.4,1483.9,949.7,1481.5,952,1480.8z"/>
			<path class="st4" d="M971.1,1474.8l5.7-1.9c2.3-0.8,4.7,0.5,5.5,2.7c0.8,2.3-0.5,4.7-2.7,5.5l0,0l-5.7,1.9
				c-2.3,0.8-4.7-0.5-5.5-2.7C967.6,1478,968.8,1475.6,971.1,1474.8z"/>
			<path class="st4" d="M990,1468.3l5.7-2.1c2.3-0.8,4.7,0.3,5.6,2.6c0.8,2.3-0.3,4.7-2.6,5.6l0,0l-5.7,2.1
				c-2.3,0.8-4.7-0.3-5.6-2.6C986.6,1471.6,987.8,1469.1,990,1468.3z"/>
			<path class="st4" d="M1008.8,1461.3l5.6-2.2c2.2-0.9,4.8,0.2,5.6,2.4c0.9,2.2-0.2,4.8-2.4,5.6l0,0l-5.6,2.2
				c-2.2,0.9-4.8-0.2-5.6-2.4C1005.5,1464.7,1006.5,1462.2,1008.8,1461.3L1008.8,1461.3z"/>
			<path class="st4" d="M1027.3,1453.7l5.6-2.4c2.2-0.9,4.8,0.1,5.7,2.3c0.9,2.2-0.1,4.8-2.3,5.7l0,0l-5.6,2.4
				c-2.2,0.9-4.8-0.1-5.7-2.3C1024.1,1457.2,1025.1,1454.7,1027.3,1453.7z"/>
			<path class="st4" d="M1045.7,1445.6l5.5-2.5c2.2-1,4.8-0.1,5.8,2.1c1,2.2,0.1,4.8-2.1,5.8l0,0l-5.5,2.5c-2.2,1-4.8,0.1-5.8-2.1
				C1042.5,1449.2,1043.5,1446.6,1045.7,1445.6z"/>
			<path class="st4" d="M1063.8,1437.1l5.4-2.7c2.2-1.1,4.8-0.2,5.9,2c1.1,2.2,0.2,4.8-2,5.9l0,0l-5.4,2.7c-2.2,1.1-4.8,0.2-5.9-2
				C1060.7,1440.8,1061.6,1438.1,1063.8,1437.1z"/>
			<path class="st4" d="M1081.6,1428l5.3-2.8c2.1-1.1,4.8-0.3,5.9,1.8s0.3,4.8-1.8,5.9l0,0l-5.3,2.8c-2.1,1.1-4.8,0.3-5.9-1.8
				C1078.7,1431.8,1079.5,1429.1,1081.6,1428z"/>
			<path class="st4" d="M1099.2,1418.5l5.3-3c2.1-1.2,4.8-0.4,6,1.7c1.2,2.1,0.4,4.8-1.7,6l0,0l-5.3,3c-2.1,1.2-4.8,0.4-6-1.7
				C1096.4,1422.3,1097.1,1419.6,1099.2,1418.5z"/>
			<path class="st4" d="M1116.6,1408.4l5.2-3.1c2.1-1.3,4.8-0.6,6,1.5c1.3,2.1,0.6,4.8-1.5,6l0,0l-5.2,3.1c-2.1,1.2-4.8,0.6-6-1.5
				C1113.8,1412.4,1114.5,1409.7,1116.6,1408.4z"/>
			<path class="st4" d="M1133.6,1398l5.1-3.3c2.1-1.3,4.8-0.7,6.1,1.3c1.3,2.1,0.7,4.8-1.3,6.1l0,0l-5.1,3.2c-2,1.3-4.8,0.7-6.1-1.3
				C1131,1402,1131.6,1399.3,1133.6,1398z"/>
			<path class="st4" d="M1150.4,1387l5-3.4c2-1.4,4.8-0.8,6.1,1.2c1.4,2,0.8,4.8-1.2,6.1l0,0l-5,3.4c-2,1.4-4.8,0.8-6.1-1.2
				C1147.9,1391.1,1148.4,1388.4,1150.4,1387z"/>
			<path class="st4" d="M1166.9,1375.7l4.9-3.5c2-1.4,4.7-1,6.2,1s1,4.7-1,6.2l0,0l-4.9,3.5c-2,1.4-4.7,1-6.2-1
				C1164.4,1379.8,1164.9,1377.1,1166.9,1375.7z"/>
			<path class="st4" d="M1183.1,1363.9l4.8-3.6c2-1.5,4.7-1.1,6.2,0.9c1.5,2,1.1,4.7-0.9,6.2l0,0l-4.8,3.6c-2,1.5-4.7,1.1-6.2-0.9
				C1180.7,1368.1,1181.1,1365.3,1183.1,1363.9z"/>
			<path class="st4" d="M1198.9,1351.6l4.7-3.8c1.9-1.5,4.7-1.2,6.2,0.7c1.5,1.9,1.2,4.7-0.7,6.2l0,0l-4.7,3.8
				c-1.9,1.5-4.7,1.2-6.2-0.7C1196.7,1355.9,1197,1353.2,1198.9,1351.6z"/>
			<path class="st4" d="M1214.5,1339l4.6-3.9c1.9-1.6,4.7-1.3,6.3,0.5c1.6,1.9,1.3,4.7-0.5,6.3l0,0l-4.6,3.9
				c-1.9,1.6-4.7,1.3-6.3-0.5C1212.4,1343.4,1212.6,1340.6,1214.5,1339z"/>
			<path class="st4" d="M1229.7,1325.9l4.5-4c1.8-1.6,4.7-1.5,6.3,0.4c1.6,1.8,1.5,4.7-0.4,6.3l0,0l-4.5,4c-1.8,1.6-4.7,1.5-6.3-0.4
				S1227.8,1327.6,1229.7,1325.9z"/>
			<path class="st4" d="M1244.5,1312.5l4.4-4.1c1.8-1.7,4.6-1.6,6.3,0.2s1.6,4.6-0.2,6.3l0,0l-4.4,4.1c-1.8,1.7-4.6,1.6-6.3-0.2
				S1242.7,1314.2,1244.5,1312.5z"/>
			<path class="st4" d="M1259,1298.7l4.3-4.2c1.8-1.7,4.6-1.7,6.3,0c1.7,1.8,1.7,4.6,0,6.3l0,0l-4.3,4.2c-1.8,1.7-4.6,1.7-6.3,0
				C1257.3,1303.2,1257.3,1300.4,1259,1298.7z"/>
			<path class="st4" d="M1273.2,1284.5l4.2-4.4c1.7-1.8,4.5-1.8,6.3-0.1c1.8,1.7,1.8,4.5,0.1,6.3l0,0l-4.2,4.4
				c-1.7,1.8-4.5,1.8-6.3,0.1C1271.5,1289.1,1271.5,1286.3,1273.2,1284.5z"/>
			<path class="st4" d="M1286.9,1269.9l4.1-4.5c1.7-1.8,4.5-2,6.3-0.3c1.8,1.7,2,4.5,0.3,6.3l0,0l-4.1,4.5c-1.7,1.8-4.5,2-6.3,0.3
				C1285.4,1274.6,1285.3,1271.7,1286.9,1269.9z"/>
			<path class="st4" d="M1300.3,1255l4-4.6c1.6-1.9,4.5-2.1,6.3-0.5c1.9,1.6,2.1,4.5,0.5,6.3l0,0l-4,4.6c-1.6,1.9-4.5,2.1-6.3,0.4
				S1298.7,1256.9,1300.3,1255z"/>
			<path class="st4" d="M1313.3,1239.7l3.8-4.7c1.6-1.9,4.4-2.2,6.3-0.6c1.9,1.6,2.2,4.4,0.6,6.3l0,0l-3.8,4.7
				c-1.6,1.9-4.4,2.2-6.3,0.6C1312,1244.5,1311.7,1241.7,1313.3,1239.7z"/>
			<path class="st4" d="M1325.9,1224.1l3.7-4.8c1.5-2,4.4-2.3,6.3-0.8c2,1.5,2.3,4.4,0.8,6.3l0,0l-3.7,4.8c-1.5,2-4.4,2.3-6.3,0.8
				C1324.7,1228.9,1324.3,1226.1,1325.9,1224.1z"/>
			<path class="st4" d="M1338,1208.2l3.6-4.9c1.5-2,4.3-2.4,6.3-1c2,1.5,2.4,4.3,1,6.3l0,0l-3.6,4.9c-1.5,2-4.3,2.4-6.3,1
				C1337,1213,1336.5,1210.2,1338,1208.2z"/>
			<path class="st4" d="M1349.7,1192l3.5-5c1.4-2.1,4.2-2.6,6.3-1.1c2.1,1.4,2.6,4.2,1.1,6.3l0,0l-3.5,5c-1.4,2.1-4.2,2.6-6.3,1.1
				C1348.8,1196.8,1348.3,1194,1349.7,1192z"/>
			<path class="st4" d="M1361,1175.4l3.3-5.1c1.4-2.1,4.2-2.7,6.3-1.3c2.1,1.4,2.7,4.2,1.3,6.3l0,0l-3.3,5c-1.4,2.1-4.2,2.7-6.3,1.3
				C1360.2,1180.3,1359.6,1177.5,1361,1175.4z"/>
			<path class="st4" d="M1371.8,1158.6l3.2-5.1c1.3-2.1,4.1-2.8,6.3-1.5c2.1,1.3,2.8,4.1,1.5,6.3l0,0l-3.2,5.1
				c-1.3,2.1-4.1,2.8-6.3,1.5C1371.2,1163.5,1370.5,1160.7,1371.8,1158.6z"/>
			<path class="st4" d="M1382.2,1141.5l3-5.2c1.3-2.2,4.1-2.9,6.2-1.6c2.2,1.3,2.9,4.1,1.6,6.2l0,0l-3,5.2c-1.3,2.2-4.1,2.9-6.2,1.6
				C1381.7,1146.4,1380.9,1143.6,1382.2,1141.5z"/>
			<path class="st4" d="M1392.1,1124.1l2.9-5.3c1.2-2.2,4-3,6.2-1.8c2.2,1.2,3,4,1.8,6.2l0,0l-2.9,5.3c-1.2,2.2-4,3-6.2,1.8
				C1391.7,1129.1,1390.9,1126.3,1392.1,1124.1z"/>
			<path class="st4" d="M1401.5,1106.4l2.7-5.4c1.1-2.2,3.9-3.1,6.1-2c2.2,1.1,3.1,3.9,2,6.1l0,0l-2.8,5.4c-1.1,2.2-3.9,3.1-6.1,2
				C1401.3,1111.4,1400.4,1108.7,1401.5,1106.4z"/>
			<path class="st4" d="M1410.5,1088.5l2.6-5.5c1.1-2.3,3.8-3.3,6.1-2.2c2.3,1.1,3.3,3.8,2.2,6.1l0,0l-2.6,5.5
				c-1.1,2.3-3.8,3.2-6.1,2.2C1410.3,1093.5,1409.4,1090.8,1410.5,1088.5z"/>
			<path class="st4" d="M1418.9,1070.3l2.4-5.5c1-2.3,3.7-3.4,6-2.3s3.4,3.7,2.3,6l0,0l-2.5,5.5c-1,2.3-3.7,3.4-6,2.3
				C1418.9,1075.4,1417.9,1072.7,1418.9,1070.3z"/>
			<path class="st4" d="M1426.8,1052l2.3-5.6c1-2.3,3.7-3.5,6-2.5c2.3,1,3.5,3.7,2.5,6l0,0l-2.3,5.6c-1,2.3-3.7,3.4-6,2.5
				C1427,1057,1425.9,1054.3,1426.8,1052z"/>
			<path class="st4" d="M1434.4,1033.4l2.2-5.6c0.9-2.4,3.6-3.5,6-2.6c2.4,0.9,3.5,3.6,2.6,6l0,0l-2.2,5.6c-0.9,2.4-3.6,3.5-6,2.6
				C1434.6,1038.4,1433.5,1035.8,1434.4,1033.4z"/>
			<path class="st4" d="M1441.5,1014.7l2.1-5.7c0.9-2.4,3.5-3.6,5.9-2.7c2.4,0.9,3.6,3.5,2.7,5.9l0,0l-2.1,5.7
				c-0.9,2.4-3.5,3.6-5.9,2.7C1441.9,1019.7,1440.7,1017,1441.5,1014.7z"/>
			<path class="st4" d="M1448.4,995.8l2-5.7c0.8-2.4,3.5-3.7,5.9-2.8c2.4,0.8,3.7,3.5,2.8,5.9l0,0l-2,5.7c-0.8,2.4-3.5,3.7-5.9,2.8
				C1448.8,1000.8,1447.5,998.2,1448.4,995.8z"/>
			<path class="st4" d="M1454.9,976.8l1.9-5.7c0.8-2.4,3.4-3.7,5.8-2.9c2.4,0.8,3.7,3.4,2.9,5.8l-1.9,5.7c-0.8,2.4-3.4,3.7-5.8,2.9
				C1455.4,981.9,1454.1,979.3,1454.9,976.8L1454.9,976.8z"/>
			<path class="st4" d="M1461.3,957.8l1.9-5.7c0.8-2.4,3.4-3.7,5.8-2.9c2.4,0.8,3.7,3.4,2.9,5.8l-1.9,5.8c-0.8,2.4-3.4,3.7-5.8,3
				C1461.8,962.8,1460.5,960.2,1461.3,957.8L1461.3,957.8z"/>
			<path class="st4" d="M1467.4,938.6l1.8-5.8c0.8-2.4,3.3-3.7,5.7-3c2.4,0.8,3.7,3.3,3,5.7l-1.8,5.8c-0.8,2.4-3.3,3.7-5.7,3
				C1468,943.6,1466.7,941,1467.4,938.6L1467.4,938.6z"/>
			<path class="st4" d="M1473.5,919.4l1.8-5.8c0.7-2.4,3.3-3.7,5.7-3c2.4,0.7,3.7,3.3,3,5.7l-1.8,5.8c-0.7,2.4-3.3,3.7-5.7,3
				C1474.1,924.4,1472.7,921.8,1473.5,919.4L1473.5,919.4z"/>
			<path class="st4" d="M1479.4,900.2l1.8-5.8c0.7-2.4,3.2-3.7,5.6-3c2.4,0.7,3.7,3.2,3,5.6l-1.8,5.8c-0.7,2.4-3.2,3.7-5.6,3
				C1480,905.1,1478.7,902.6,1479.4,900.2L1479.4,900.2z"/>
			<path class="st4" d="M1485.3,880.9l1.8-5.8c0.7-2.4,3.2-3.7,5.6-3c2.4,0.7,3.7,3.2,3,5.6l-1.8,5.8c-0.7,2.4-3.2,3.7-5.6,3
				C1485.9,885.8,1484.6,883.3,1485.3,880.9L1485.3,880.9z"/>
			<path class="st4" d="M1491.3,861.6l1.8-5.8c0.7-2.3,3.2-3.7,5.6-2.9c2.3,0.7,3.7,3.2,2.9,5.5l-1.8,5.8c-0.7,2.4-3.2,3.7-5.6,3
				C1491.8,866.5,1490.5,864,1491.3,861.6L1491.3,861.6z"/>
			<path class="st4" d="M1497.2,842.4l1.8-5.8c0.7-2.3,3.2-3.6,5.5-2.9c2.3,0.7,3.6,3.2,2.9,5.5l-1.8,5.8c-0.7,2.3-3.2,3.6-5.5,2.9
				C1497.8,847.2,1496.5,844.7,1497.2,842.4L1497.2,842.4z"/>
			<path class="st4" d="M1503.3,823.2l1.9-5.8c0.7-2.3,3.2-3.6,5.5-2.8c2.3,0.7,3.6,3.2,2.8,5.5l-1.8,5.8c-0.7,2.3-3.2,3.6-5.5,2.8
				C1503.9,828,1502.6,825.5,1503.3,823.2L1503.3,823.2z"/>
			<path class="st4" d="M1509.6,804l1.9-5.7c0.8-2.3,3.2-3.5,5.5-2.8c2.3,0.8,3.5,3.2,2.8,5.5l-1.9,5.7c-0.8,2.3-3.2,3.5-5.5,2.8
				C1510.1,808.7,1508.9,806.3,1509.6,804L1509.6,804z"/>
			<path class="st4" d="M1516.1,784.8l2-5.7c0.8-2.3,3.3-3.5,5.5-2.7c2.3,0.8,3.5,3.3,2.7,5.5l-2,5.7c-0.8,2.3-3.3,3.5-5.5,2.7
				S1515.3,787.1,1516.1,784.8L1516.1,784.8z"/>
			<path class="st4" d="M1522.9,765.8l2.1-5.7c0.8-2.2,3.3-3.4,5.5-2.6c2.2,0.8,3.4,3.3,2.6,5.5l-2.1,5.7c-0.8,2.2-3.3,3.4-5.5,2.6
				C1523.2,770.5,1522,768,1522.9,765.8L1522.9,765.8z"/>
			<path class="st4" d="M1529.9,746.8l2.2-5.6c0.9-2.2,3.3-3.3,5.5-2.5c2.2,0.9,3.3,3.3,2.5,5.5l-2.2,5.6c-0.8,2.2-3.3,3.3-5.5,2.5
				C1530.2,751.5,1529.1,749,1529.9,746.8L1529.9,746.8z"/>
			<path class="st4" d="M1537.3,728l2.3-5.6c0.9-2.2,3.4-3.2,5.6-2.3c2.2,0.9,3.2,3.4,2.3,5.5l-2.3,5.6c-0.9,2.2-3.4,3.2-5.6,2.3
				C1537.5,732.7,1536.4,730.2,1537.3,728L1537.3,728z"/>
			<path class="st4" d="M1545.2,709.3l2.4-5.5c0.9-2.1,3.4-3.1,5.6-2.2c2.1,0.9,3.1,3.4,2.2,5.6l-2.4,5.5c-0.9,2.1-3.4,3.1-5.6,2.2
				C1545.2,714,1544.2,711.5,1545.2,709.3L1545.2,709.3z"/>
			<path class="st4" d="M1553.5,690.8l2.6-5.5c1-2.1,3.5-3,5.6-2c2.1,1,3,3.5,2,5.6l-2.5,5.5c-1,2.1-3.5,3-5.6,2
				C1553.4,695.5,1552.5,693,1553.5,690.8L1553.5,690.8z"/>
			<path class="st4" d="M1562.4,672.6l2.8-5.4c1-2,3.5-2.8,5.5-1.8c2,1,2.8,3.5,1.8,5.5l-2.7,5.4c-1,2-3.5,2.8-5.6,1.8
				S1561.4,674.7,1562.4,672.6L1562.4,672.6z"/>
			<path class="st4" d="M1572,654.7l3-5.3c1.1-1.9,3.6-2.6,5.5-1.5c1.9,1.1,2.6,3.5,1.5,5.5l-2.9,5.3c-1.1,2-3.6,2.7-5.5,1.6
				C1571.6,659.2,1570.9,656.7,1572,654.7L1572,654.7z"/>
			<path class="st4" d="M1582.2,637.2l3.2-5.2c1.1-1.9,3.6-2.4,5.4-1.3c1.8,1.1,2.4,3.5,1.3,5.4l-3.1,5.2c-1.1,1.9-3.6,2.5-5.5,1.4
				C1581.6,641.5,1581,639.1,1582.2,637.2L1582.2,637.2z"/>
			<path class="st4" d="M1593,620l3.3-5c1.2-1.8,3.6-2.3,5.4-1.1c1.8,1.2,2.3,3.6,1.1,5.3l-3.3,5.1c-1.2,1.8-3.6,2.3-5.4,1.1
				C1592.3,624.3,1591.8,621.8,1593,620L1593,620z"/>
			<path class="st4" d="M1604.4,603.3l3.5-4.9c1.2-1.7,3.6-2.1,5.3-0.9c1.7,1.2,2.1,3.6,0.9,5.3l-3.5,4.9c-1.2,1.7-3.6,2.1-5.3,0.9
				C1603.6,607.4,1603.2,605,1604.4,603.3L1604.4,603.3z"/>
			<path class="st4" d="M1616.5,587l3.7-4.8c1.3-1.6,3.6-1.9,5.2-0.6c1.6,1.3,1.9,3.6,0.7,5.2l-3.7,4.8c-1.3,1.6-3.6,1.9-5.2,0.7
				C1615.5,591,1615.2,588.6,1616.5,587L1616.5,587z"/>
			<path class="st4" d="M1629.2,571.1l3.9-4.6c1.3-1.5,3.6-1.7,5.1-0.4c1.5,1.3,1.7,3.6,0.4,5.1l-3.9,4.6c-1.3,1.5-3.6,1.8-5.1,0.5
				C1628.1,575,1627.9,572.7,1629.2,571.1L1629.2,571.1z"/>
			<path class="st4" d="M1642.6,555.9l4.1-4.4c1.3-1.4,3.6-1.5,5-0.2c1.4,1.3,1.5,3.6,0.2,5l-4.1,4.5c-1.3,1.5-3.6,1.6-5,0.2
				C1641.4,559.6,1641.2,557.3,1642.6,555.9L1642.6,555.9z"/>
			<path class="st4" d="M1656.6,541.2l4.3-4.2c1.4-1.3,3.6-1.3,4.9,0c1.3,1.4,1.3,3.5,0,4.9l-4.3,4.3c-1.4,1.4-3.6,1.4-4.9,0
				C1655.3,544.8,1655.3,542.6,1656.6,541.2L1656.6,541.2z"/>
			<path class="st4" d="M1671.4,527.2l4.5-4c1.4-1.2,3.5-1.1,4.8,0.3c1.2,1.4,1.1,3.5-0.2,4.8l-4.5,4.1c-1.4,1.3-3.5,1.2-4.8-0.2
				C1669.8,530.6,1669.9,528.5,1671.4,527.2L1671.4,527.2z"/>
			<path class="st4" d="M1686.7,513.9l4.7-3.8c1.4-1.1,3.5-0.9,4.6,0.5c1.1,1.4,0.9,3.5-0.5,4.6l-4.7,3.8c-1.4,1.2-3.5,1-4.7-0.5
				C1685.1,517.2,1685.3,515.1,1686.7,513.9C1686.7,513.9,1686.7,513.9,1686.7,513.9z"/>
			<path class="st4" d="M1702.8,501.5l4.9-3.5c1.4-1,3.4-0.7,4.4,0.7c1,1.4,0.7,3.4-0.7,4.4l-4.9,3.6c-1.4,1-3.4,0.7-4.5-0.7
				C1701.1,504.6,1701.4,502.6,1702.8,501.5C1702.8,501.5,1702.8,501.5,1702.8,501.5z"/>
			<path class="st4" d="M1719.6,490.1l5.1-3.2c1.4-0.9,3.3-0.5,4.2,1c0.9,1.4,0.5,3.3-0.9,4.2l-5.1,3.3c-1.4,0.9-3.3,0.5-4.2-0.9
				C1717.8,492.9,1718.2,491,1719.6,490.1C1719.6,490.1,1719.6,490.1,1719.6,490.1z"/>
			<path class="st4" d="M1737.1,479.6l5.3-2.9c1.4-0.8,3.2-0.2,3.9,1.2c0.8,1.4,0.3,3.1-1.1,3.9l-5.3,3c-1.4,0.8-3.2,0.3-4-1.1
				C1735.1,482.2,1735.6,480.4,1737.1,479.6C1737,479.6,1737.1,479.6,1737.1,479.6z"/>
			<path class="st4" d="M1755.1,470.3l5.5-2.5c1.4-0.6,3,0,3.7,1.4c0.6,1.4,0,3-1.3,3.7l-5.5,2.6c-1.4,0.7-3.1,0.1-3.7-1.3
				C1753.1,472.7,1753.7,471,1755.1,470.3C1755.1,470.3,1755.1,470.3,1755.1,470.3z"/>
			<path class="st4" d="M1773.8,462.3l5.7-2.1c1.4-0.5,2.9,0.2,3.4,1.5c0.5,1.4-0.2,2.9-1.5,3.4l-5.6,2.2c-1.4,0.5-2.9-0.1-3.5-1.5
				C1771.7,464.4,1772.4,462.8,1773.8,462.3C1773.8,462.3,1773.8,462.3,1773.8,462.3z"/>
			<path class="st4" d="M1793,455.6l5.8-1.7c1.3-0.4,2.7,0.4,3.1,1.7c0.4,1.3-0.4,2.7-1.7,3.1l-5.8,1.8c-1.3,0.4-2.8-0.3-3.2-1.7
				C1790.9,457.4,1791.6,456,1793,455.6C1793,455.6,1793,455.6,1793,455.6z"/>
			<path class="st4" d="M1812.7,450.3l5.9-1.3c1.3-0.3,2.5,0.5,2.8,1.8c0.3,1.3-0.5,2.5-1.8,2.8l-5.9,1.4c-1.3,0.3-2.6-0.5-2.9-1.8
				C1810.5,451.9,1811.3,450.6,1812.7,450.3C1812.6,450.3,1812.7,450.3,1812.7,450.3z"/>
			<path class="st4" d="M1832.7,446.7l6-0.8c1.2-0.2,2.3,0.7,2.4,1.9c0.2,1.2-0.7,2.3-1.8,2.4l-6,0.9c-1.2,0.2-2.4-0.7-2.5-1.9
				C1830.6,448,1831.4,446.8,1832.7,446.7C1832.6,446.7,1832.6,446.7,1832.7,446.7z"/>
			<path class="st4" d="M1852.9,444.6l4.7-0.3c1.1-0.1,2.1,0.8,2.1,1.9c0.1,1.1-0.8,2-1.9,2.1l-4.7,0.3c-1.1,0.1-2.1-0.8-2.2-1.9
				C1850.8,445.7,1851.7,444.7,1852.9,444.6C1852.8,444.6,1852.8,444.6,1852.9,444.6z"/>
		</g>
		<g>
			<path class="st4" d="M992.8,1522l6-0.6c1.1-0.1,2.2,0.7,2.3,1.9c0.1,1.1-0.7,2.2-1.9,2.3c0,0,0,0,0,0l-6,0.4
				c-1.1,0.1-2.1-0.8-2.2-1.9C990.9,1523.1,991.7,1522.1,992.8,1522z"/>
			<path class="st4" d="M1012.9,1520.1l6-0.6c1.3-0.1,2.4,0.8,2.5,2c0.1,1.3-0.8,2.4-2,2.5c0,0,0,0,0,0l-6,0.5
				c-1.2,0.1-2.3-0.8-2.4-2C1010.8,1521.3,1011.7,1520.2,1012.9,1520.1z"/>
			<path class="st4" d="M1032.9,1517.8l6-0.7c1.4-0.2,2.6,0.8,2.7,2.2c0.2,1.4-0.8,2.6-2.2,2.7c0,0,0,0,0,0l-6,0.6
				c-1.3,0.1-2.5-0.8-2.7-2.2C1030.6,1519.2,1031.5,1518,1032.9,1517.8z"/>
			<path class="st4" d="M1052.8,1515.3l6-0.8c1.4-0.2,2.8,0.8,2.9,2.3c0.2,1.4-0.8,2.8-2.3,2.9c0,0,0,0,0,0l-6,0.7
				c-1.4,0.2-2.7-0.8-2.9-2.3C1050.4,1516.8,1051.4,1515.5,1052.8,1515.3z"/>
			<path class="st4" d="M1072.7,1512.6l6-0.9c1.5-0.2,2.9,0.8,3.2,2.3c0.2,1.5-0.8,2.9-2.3,3.1c0,0,0,0,0,0l-6,0.8
				c-1.5,0.2-2.9-0.8-3.1-2.3C1070.2,1514.2,1071.3,1512.8,1072.7,1512.6z"/>
			<path class="st4" d="M1092.6,1509.5l6-1c1.6-0.3,3.1,0.8,3.4,2.4c0.3,1.6-0.8,3.1-2.4,3.4c0,0,0,0,0,0l-6,0.9
				c-1.6,0.2-3-0.9-3.3-2.4C1090,1511.2,1091.1,1509.8,1092.6,1509.5z"/>
			<path class="st4" d="M1112.4,1506.2l5.9-1.1c1.7-0.3,3.3,0.8,3.6,2.5c0.3,1.7-0.8,3.3-2.5,3.6c0,0,0,0,0,0l-6,1
				c-1.7,0.3-3.2-0.8-3.5-2.5C1109.7,1508,1110.8,1506.5,1112.4,1506.2z"/>
			<path class="st4" d="M1132.2,1502.5l5.9-1.2c1.7-0.3,3.4,0.8,3.8,2.5c0.3,1.8-0.8,3.4-2.5,3.8c0,0,0,0,0,0l-5.9,1.1
				c-1.7,0.3-3.4-0.8-3.7-2.6C1129.4,1504.5,1130.5,1502.9,1132.2,1502.5z"/>
			<path class="st4" d="M1151.9,1498.6l5.9-1.2c1.8-0.4,3.6,0.8,4,2.6c0.4,1.8-0.8,3.6-2.6,4l0,0l-5.9,1.2c-1.8,0.4-3.6-0.8-3.9-2.6
				C1149,1500.7,1150.1,1498.9,1151.9,1498.6z"/>
			<path class="st4" d="M1171.5,1494.3l5.9-1.3c1.9-0.4,3.7,0.8,4.1,2.6c0.4,1.9-0.8,3.7-2.6,4.1l0,0l-5.9,1.3
				c-1.9,0.4-3.7-0.8-4.1-2.6C1168.6,1496.6,1169.7,1494.8,1171.5,1494.3z"/>
			<path class="st4" d="M1191.1,1489.8l5.9-1.4c1.9-0.5,3.8,0.7,4.3,2.6c0.5,1.9-0.7,3.8-2.6,4.3l0,0l-5.9,1.4
				c-1.9,0.4-3.8-0.7-4.2-2.6C1188.1,1492.2,1189.2,1490.3,1191.1,1489.8z"/>
			<path class="st4" d="M1210.6,1485l5.9-1.5c1.9-0.5,3.9,0.7,4.4,2.6c0.5,1.9-0.7,3.9-2.6,4.4l0,0l-5.9,1.5
				c-1.9,0.5-3.9-0.7-4.4-2.6C1207.5,1487.4,1208.7,1485.5,1210.6,1485z"/>
			<path class="st4" d="M1230,1479.8l5.8-1.6c2-0.6,4,0.6,4.6,2.6c0.6,2-0.6,4-2.6,4.6l0,0l-5.8,1.6c-2,0.5-4-0.6-4.5-2.6
				C1226.9,1482.4,1228.1,1480.4,1230,1479.8z"/>
			<path class="st4" d="M1249.4,1474.3l5.8-1.7c2-0.6,4.2,0.6,4.8,2.6c0.6,2-0.6,4.2-2.6,4.8l0,0l-5.8,1.7c-2,0.6-4.1-0.6-4.7-2.6
				C1246.2,1477,1247.4,1474.9,1249.4,1474.3z"/>
			<path class="st4" d="M1268.6,1468.5l5.8-1.8c2.1-0.7,4.3,0.5,4.9,2.6c0.7,2.1-0.5,4.3-2.6,4.9l0,0l-5.8,1.8
				c-2.1,0.6-4.2-0.5-4.9-2.6C1265.4,1471.3,1266.5,1469.1,1268.6,1468.5z"/>
			<path class="st4" d="M1287.7,1462.3l5.7-1.9c2.1-0.7,4.4,0.4,5.1,2.5c0.7,2.1-0.4,4.4-2.5,5.1l0,0l-5.8,1.9
				c-2.1,0.7-4.3-0.5-5-2.6C1284.5,1465.3,1285.6,1463,1287.7,1462.3z"/>
			<path class="st4" d="M1306.7,1455.8l5.7-2c2.1-0.8,4.5,0.4,5.2,2.5c0.8,2.1-0.4,4.5-2.5,5.2l0,0l-5.7,2c-2.1,0.7-4.5-0.4-5.2-2.5
				C1303.5,1458.9,1304.6,1456.6,1306.7,1455.8z"/>
			<path class="st4" d="M1325.6,1449l5.7-2.1c2.2-0.8,4.6,0.3,5.4,2.5c0.8,2.2-0.3,4.6-2.5,5.4l0,0l-5.7,2.1
				c-2.2,0.8-4.6-0.3-5.3-2.5C1322.3,1452.2,1323.4,1449.8,1325.6,1449z"/>
			<path class="st4" d="M1344.3,1441.8l5.6-2.2c2.2-0.9,4.7,0.2,5.5,2.4c0.9,2.2-0.2,4.7-2.4,5.5l0,0l-5.6,2.2
				c-2.2,0.9-4.7-0.2-5.5-2.4C1341.1,1445.2,1342.1,1442.7,1344.3,1441.8z"/>
			<path class="st4" d="M1362.9,1434.4l5.6-2.3c2.2-0.9,4.7,0.1,5.6,2.3c0.9,2.2-0.1,4.7-2.3,5.6l0,0l-5.6,2.3
				c-2.2,0.9-4.7-0.1-5.6-2.3C1359.7,1437.8,1360.8,1435.3,1362.9,1434.4z"/>
			<path class="st4" d="M1381.4,1426.6l5.5-2.4c2.2-1,4.7,0,5.7,2.2c1,2.2,0,4.7-2.2,5.7l0,0l-5.5,2.4c-2.2,0.9-4.7-0.1-5.7-2.2
				C1378.2,1430.1,1379.2,1427.5,1381.4,1426.6z"/>
			<path class="st4" d="M1399.7,1418.4l5.5-2.5c2.2-1,4.8-0.1,5.8,2.1c1,2.2,0.1,4.8-2.1,5.8l0,0l-5.5,2.5c-2.2,1-4.8,0-5.8-2.1
				C1396.6,1422,1397.5,1419.4,1399.7,1418.4z"/>
			<path class="st4" d="M1417.9,1409.9l5.4-2.6c2.2-1.1,4.8-0.2,5.9,2c1.1,2.2,0.2,4.8-2,5.9l0,0l-5.4,2.6c-2.2,1-4.8,0.1-5.8-2
				C1414.8,1413.5,1415.7,1410.9,1417.9,1409.9z"/>
			<path class="st4" d="M1435.8,1401l5.4-2.7c2.2-1.1,4.8-0.2,5.9,1.9c1.1,2.2,0.2,4.8-1.9,5.9l0,0l-5.4,2.7
				c-2.2,1.1-4.8,0.2-5.9-1.9C1432.8,1404.7,1433.7,1402.1,1435.8,1401z"/>
			<path class="st4" d="M1453.6,1391.7l5.3-2.9c2.2-1.2,4.9-0.4,6,1.8s0.3,4.9-1.8,6l0,0l-5.3,2.8c-2.2,1.2-4.9,0.3-6-1.8
				C1450.7,1395.6,1451.5,1392.9,1453.6,1391.7z"/>
			<path class="st4" d="M1471.2,1382.1l5.3-3c2.2-1.2,4.9-0.5,6.1,1.7c1.2,2.2,0.5,4.9-1.7,6.1l0,0l-5.3,3c-2.2,1.2-4.9,0.4-6.1-1.7
				C1468.3,1386,1469.1,1383.3,1471.2,1382.1z"/>
			<path class="st4" d="M1488.6,1372.1l5.2-3.1c2.1-1.3,4.9-0.6,6.2,1.6c1.3,2.1,0.6,4.9-1.6,6.2l0,0l-5.2,3.1
				c-2.1,1.3-4.9,0.5-6.2-1.6C1485.8,1376.1,1486.5,1373.4,1488.6,1372.1z"/>
			<path class="st4" d="M1505.8,1361.8l5.1-3.2c2.1-1.3,4.9-0.7,6.3,1.5c1.3,2.1,0.7,4.9-1.5,6.3l0,0l-5.1,3.2
				c-2.1,1.3-4.9,0.7-6.2-1.5C1503,1365.9,1503.7,1363.1,1505.8,1361.8z"/>
			<path class="st4" d="M1522.7,1351l5.1-3.3c2.1-1.4,4.9-0.8,6.3,1.3c1.4,2.1,0.8,4.9-1.3,6.3l0,0l-5.1,3.3
				c-2.1,1.4-4.9,0.8-6.3-1.3C1520,1355.2,1520.6,1352.4,1522.7,1351z"/>
			<path class="st4" d="M1539.4,1340l5-3.4c2.1-1.4,5-0.9,6.4,1.2c1.4,2.1,0.9,5-1.2,6.4l0,0l-5,3.4c-2.1,1.4-5,0.9-6.4-1.2
				C1536.8,1344.2,1537.3,1341.4,1539.4,1340z"/>
			<path class="st4" d="M1555.9,1328.5l4.9-3.5c2.1-1.5,5-1,6.5,1.1c1.5,2.1,1,5-1.1,6.5l0,0l-4.9,3.5c-2.1,1.5-5,1-6.4-1.1
				C1553.3,1332.9,1553.8,1330,1555.9,1328.5z"/>
			<path class="st4" d="M1572.1,1316.7l4.8-3.6c2.1-1.5,5-1.1,6.5,0.9c1.5,2.1,1.1,5-0.9,6.5l0,0l-4.8,3.6c-2.1,1.5-5,1.1-6.5-0.9
				C1569.6,1321.1,1570,1318.2,1572.1,1316.7z"/>
			<path class="st4" d="M1588,1304.5l4.8-3.7c2-1.6,4.9-1.2,6.5,0.8c1.6,2,1.2,4.9-0.8,6.5l-4.7,3.7c-2,1.6-4.9,1.2-6.5-0.8
				C1585.6,1309.1,1586,1306.1,1588,1304.5L1588,1304.5z"/>
			<path class="st4" d="M1603.7,1292.1l4.7-3.8c2-1.6,4.9-1.3,6.5,0.6c1.6,2,1.3,4.9-0.6,6.5l-4.7,3.8c-2,1.6-4.9,1.3-6.5-0.6
				C1601.4,1296.6,1601.7,1293.7,1603.7,1292.1L1603.7,1292.1z"/>
			<path class="st4" d="M1619.1,1279.2l4.6-3.9c1.9-1.7,4.8-1.4,6.5,0.5c1.7,1.9,1.4,4.8-0.5,6.5l-4.6,3.9c-1.9,1.7-4.8,1.4-6.5-0.5
				C1616.9,1283.8,1617.1,1280.9,1619.1,1279.2L1619.1,1279.2z"/>
			<path class="st4" d="M1634.2,1266l4.5-4c1.9-1.7,4.8-1.5,6.5,0.3c1.7,1.9,1.5,4.8-0.3,6.5l-4.5,4.1c-1.9,1.7-4.8,1.6-6.5-0.3
				S1632.3,1267.7,1634.2,1266L1634.2,1266z"/>
			<path class="st4" d="M1648.9,1252.5l4.4-4.1c1.8-1.7,4.7-1.6,6.4,0.2c1.7,1.8,1.7,4.7-0.2,6.4l-4.4,4.2c-1.8,1.7-4.7,1.7-6.5-0.2
				C1647,1257.1,1647.1,1254.2,1648.9,1252.5L1648.9,1252.5z"/>
			<path class="st4" d="M1663.4,1238.6l4.3-4.3c1.8-1.8,4.7-1.7,6.4,0c1.8,1.8,1.8,4.6,0,6.4l-4.3,4.3c-1.8,1.8-4.7,1.8-6.4,0
				C1661.6,1243.3,1661.6,1240.4,1663.4,1238.6L1663.4,1238.6z"/>
			<path class="st4" d="M1677.5,1224.4l4.2-4.4c1.7-1.8,4.6-1.8,6.4-0.1c1.8,1.7,1.9,4.6,0.1,6.4l-4.2,4.4c-1.7,1.8-4.6,1.9-6.4,0.1
				C1675.8,1229.1,1675.8,1226.2,1677.5,1224.4L1677.5,1224.4z"/>
			<path class="st4" d="M1691.3,1209.9l4.1-4.5c1.7-1.8,4.5-2,6.4-0.3c1.8,1.7,2,4.5,0.3,6.3l-4.1,4.5c-1.7,1.8-4.5,2-6.4,0.3
				C1689.8,1214.6,1689.6,1211.7,1691.3,1209.9L1691.3,1209.9z"/>
			<path class="st4" d="M1704.7,1195l4-4.6c1.6-1.9,4.5-2.1,6.3-0.4c1.9,1.6,2.1,4.4,0.4,6.3l-4,4.6c-1.6,1.9-4.5,2.1-6.3,0.4
				C1703.3,1199.7,1703.1,1196.9,1704.7,1195L1704.7,1195z"/>
			<path class="st4" d="M1717.8,1179.8l3.9-4.7c1.6-1.9,4.4-2.2,6.3-0.6c1.9,1.6,2.2,4.4,0.6,6.3l-3.9,4.7c-1.6,1.9-4.4,2.2-6.3,0.6
				C1716.5,1184.5,1716.2,1181.7,1717.8,1179.8L1717.8,1179.8z"/>
			<path class="st4" d="M1730.5,1164.2l3.7-4.7c1.5-1.9,4.3-2.3,6.2-0.7c1.9,1.5,2.3,4.3,0.7,6.2l-3.7,4.8c-1.5,1.9-4.3,2.3-6.2,0.7
				C1729.3,1169,1728.9,1166.2,1730.5,1164.2L1730.5,1164.2z"/>
			<path class="st4" d="M1742.7,1148.4l3.6-4.8c1.5-2,4.2-2.3,6.2-0.9c2,1.5,2.4,4.2,0.9,6.2l-3.6,4.8c-1.5,2-4.2,2.4-6.2,0.9
				C1741.7,1153.1,1741.3,1150.4,1742.7,1148.4L1742.7,1148.4z"/>
			<path class="st4" d="M1754.6,1132.3l3.5-4.9c1.4-2,4.1-2.4,6.1-1c2,1.4,2.5,4.1,1.1,6.1l-3.5,4.9c-1.4,2-4.1,2.5-6.1,1.1
				C1753.6,1137,1753.2,1134.3,1754.6,1132.3L1754.6,1132.3z"/>
			<path class="st4" d="M1766,1115.8l3.4-5c1.3-2,4.1-2.5,6.1-1.2c2,1.3,2.5,4,1.2,6.1l-3.3,5c-1.3,2-4.1,2.6-6.1,1.2
				C1765.2,1120.6,1764.6,1117.8,1766,1115.8L1766,1115.8z"/>
			<path class="st4" d="M1777,1099.1l3.2-5.1c1.3-2,4-2.6,6-1.4c2,1.3,2.6,4,1.4,6l-3.2,5.1c-1.3,2-4,2.6-6,1.4
				C1776.3,1103.8,1775.7,1101.1,1777,1099.1L1777,1099.1z"/>
			<path class="st4" d="M1787.5,1082l3.1-5.2c1.2-2.1,3.9-2.7,5.9-1.5c2.1,1.2,2.7,3.9,1.5,5.9l-3.1,5.2c-1.2,2.1-3.9,2.7-5.9,1.5
				C1786.9,1086.8,1786.3,1084.1,1787.5,1082L1787.5,1082z"/>
			<path class="st4" d="M1797.5,1064.7l2.9-5.3c1.2-2.1,3.8-2.8,5.9-1.7c2.1,1.2,2.8,3.8,1.7,5.8l-2.9,5.3c-1.2,2.1-3.8,2.8-5.9,1.7
				C1797.1,1069.5,1796.4,1066.8,1797.5,1064.7L1797.5,1064.7z"/>
			<path class="st4" d="M1807.1,1047.2l2.8-5.4c1.1-2.1,3.7-2.9,5.8-1.8c2.1,1.1,2.9,3.7,1.8,5.8l-2.8,5.4c-1.1,2.1-3.7,2.9-5.8,1.8
				C1806.8,1051.9,1806,1049.3,1807.1,1047.2L1807.1,1047.2z"/>
			<path class="st4" d="M1816.2,1029.3l2.6-5.4c1-2.1,3.6-3,5.7-2c2.1,1,3,3.6,2,5.7l-2.6,5.4c-1,2.1-3.6,3-5.7,2
				S1815.2,1031.4,1816.2,1029.3L1816.2,1029.3z"/>
			<path class="st4" d="M1824.8,1011.2l2.5-5.5c1-2.1,3.5-3,5.6-2.1c2.1,1,3,3.5,2.1,5.6l-2.5,5.5c-1,2.1-3.5,3.1-5.6,2.1
				C1824.8,1015.9,1823.8,1013.4,1824.8,1011.2L1824.8,1011.2z"/>
			<path class="st4" d="M1833,992.9l2.4-5.5c0.9-2.1,3.4-3.1,5.5-2.2c2.1,0.9,3.1,3.3,2.2,5.4l-2.4,5.6c-0.9,2.1-3.4,3.1-5.5,2.2
				C1833.1,997.5,1832.1,995.1,1833,992.9L1833,992.9z"/>
			<path class="st4" d="M1840.9,974.5l2.3-5.6c0.9-2.1,3.3-3.1,5.3-2.2c2.1,0.9,3.1,3.2,2.2,5.3l-2.3,5.6c-0.9,2.1-3.3,3.1-5.4,2.3
				C1841,979,1840,976.6,1840.9,974.5L1840.9,974.5z"/>
			<path class="st4" d="M1848.5,955.9l2.2-5.6c0.8-2.1,3.2-3.1,5.2-2.3c2.1,0.8,3.1,3.1,2.3,5.2l-2.2,5.6c-0.8,2.1-3.2,3.1-5.2,2.3
				S1847.6,958,1848.5,955.9L1848.5,955.9z"/>
			<path class="st4" d="M1855.8,937.2l2.2-5.6c0.8-2,3.1-3.1,5.1-2.3c2,0.8,3.1,3.1,2.3,5.1l-2.1,5.7c-0.8,2.1-3.1,3.1-5.1,2.3
				C1856,941.6,1855,939.3,1855.8,937.2L1855.8,937.2z"/>
			<path class="st4" d="M1862.9,918.4l2.1-5.7c0.8-2,3-3,5-2.3c2,0.8,3,3,2.3,5l-2.1,5.7c-0.7,2-3,3.1-5,2.3
				C1863.2,922.7,1862.2,920.4,1862.9,918.4L1862.9,918.4z"/>
			<path class="st4" d="M1870,899.5l2.1-5.7c0.7-2,2.9-3,4.9-2.3c2,0.7,3,2.9,2.3,4.9l-2.1,5.7c-0.7,2-2.9,3-4.9,2.3
				C1870.3,903.8,1869.3,901.5,1870,899.5L1870,899.5z"/>
			<path class="st4" d="M1877,880.6l2.1-5.7c0.7-2,2.9-3,4.9-2.2c1.9,0.7,2.9,2.9,2.2,4.8l-2.1,5.7c-0.7,2-2.9,3-4.9,2.3
				C1877.3,884.8,1876.3,882.6,1877,880.6L1877,880.6z"/>
			<path class="st4" d="M1884,861.7l2.1-5.7c0.7-1.9,2.9-2.9,4.8-2.2c1.9,0.7,2.9,2.8,2.2,4.8l-2.1,5.7c-0.7,1.9-2.9,2.9-4.8,2.2
				C1884.3,865.8,1883.3,863.7,1884,861.7L1884,861.7z"/>
			<path class="st4" d="M1891.1,842.8l2.2-5.6c0.7-1.9,2.8-2.8,4.7-2.1c1.9,0.7,2.8,2.8,2.1,4.7l-2.1,5.7c-0.7,1.9-2.8,2.9-4.7,2.1
				C1891.4,846.9,1890.4,844.8,1891.1,842.8L1891.1,842.8z"/>
			<path class="st4" d="M1898.4,824l2.2-5.6c0.7-1.8,2.8-2.7,4.6-2c1.8,0.7,2.7,2.8,2,4.6l-2.2,5.6c-0.7,1.9-2.8,2.8-4.7,2.1
				C1898.6,828,1897.7,825.9,1898.4,824L1898.4,824z"/>
			<path class="st4" d="M1905.9,805.2l2.3-5.6c0.7-1.8,2.8-2.7,4.6-1.9c1.8,0.7,2.7,2.8,1.9,4.6l-2.3,5.6c-0.7,1.8-2.8,2.7-4.6,2
				S1905.2,807.1,1905.9,805.2L1905.9,805.2z"/>
			<path class="st4" d="M1913.6,786.6l2.4-5.6c0.8-1.8,2.8-2.6,4.5-1.8c1.7,0.7,2.6,2.8,1.8,4.5l0,0l-2.3,5.6
				c-0.7,1.8-2.8,2.6-4.5,1.9C1913.7,790.4,1912.9,788.4,1913.6,786.6L1913.6,786.6z"/>
			<path class="st4" d="M1921.7,768l2.5-5.5c0.8-1.7,2.8-2.5,4.5-1.7c1.7,0.8,2.5,2.8,1.7,4.5l-2.5,5.5c-0.8,1.7-2.8,2.5-4.5,1.7
				C1921.7,771.8,1921,769.8,1921.7,768L1921.7,768z"/>
			<path class="st4" d="M1930.3,749.7l2.6-5.4c0.8-1.6,2.8-2.3,4.4-1.5c1.6,0.8,2.3,2.8,1.5,4.4l-2.6,5.5c-0.8,1.7-2.8,2.4-4.5,1.6
				C1930.2,753.4,1929.5,751.4,1930.3,749.7L1930.3,749.7z"/>
			<path class="st4" d="M1939.3,731.6l2.8-5.4c0.8-1.6,2.8-2.2,4.3-1.4c1.6,0.8,2.2,2.7,1.4,4.3l-2.7,5.4c-0.8,1.6-2.8,2.2-4.4,1.4
				C1939.1,735.2,1938.5,733.2,1939.3,731.6C1939.3,731.6,1939.3,731.6,1939.3,731.6z"/>
			<path class="st4" d="M1948.9,713.8l3-5.3c0.8-1.5,2.7-2,4.2-1.2c1.5,0.8,2,2.7,1.2,4.2l-2.9,5.3c-0.8,1.5-2.7,2.1-4.2,1.2
				C1948.6,717.2,1948,715.3,1948.9,713.8C1948.9,713.8,1948.9,713.8,1948.9,713.8z"/>
			<path class="st4" d="M1959,696.2l3.1-5.2c0.9-1.4,2.7-1.9,4.1-1c1.4,0.8,1.8,2.7,1,4.1l-3.1,5.2c-0.8,1.4-2.7,1.9-4.1,1.1
				C1958.6,699.5,1958.1,697.7,1959,696.2C1959,696.2,1959,696.2,1959,696.2z"/>
			<path class="st4" d="M1969.7,679l3.3-5.1c0.9-1.3,2.6-1.7,4-0.8c1.3,0.9,1.7,2.6,0.8,3.9l-3.3,5.1c-0.9,1.3-2.7,1.7-4,0.9
				C1969.2,682.2,1968.8,680.4,1969.7,679C1969.7,679,1969.7,679,1969.7,679z"/>
			<path class="st4" d="M1981.1,662.3l3.5-4.9c0.9-1.2,2.6-1.5,3.8-0.6c1.2,0.9,1.5,2.6,0.7,3.8l-3.5,5c-0.9,1.3-2.6,1.6-3.9,0.7
				C1980.5,665.3,1980.2,663.5,1981.1,662.3C1981,662.3,1981,662.3,1981.1,662.3z"/>
			<path class="st4" d="M1993.1,646l3.7-4.8c0.9-1.1,2.6-1.3,3.7-0.4c1.1,0.9,1.3,2.5,0.5,3.7l-3.7,4.8c-0.9,1.2-2.6,1.4-3.7,0.5
				C1992.4,648.8,1992.2,647.2,1993.1,646C1993.1,646,1993.1,646,1993.1,646z"/>
			<path class="st4" d="M2005.9,630.2l4-4.6c0.9-1.1,2.5-1.2,3.6-0.3c1,0.9,1.2,2.5,0.3,3.5l-3.9,4.6c-0.9,1.1-2.5,1.2-3.6,0.3
				C2005.1,632.9,2004.9,631.3,2005.9,630.2C2005.9,630.2,2005.9,630.2,2005.9,630.2z"/>
			<path class="st4" d="M2019.4,615.1l4.2-4.4c0.9-1,2.4-1,3.4-0.1c1,0.9,1,2.4,0.1,3.4l-4.1,4.4c-0.9,1-2.5,1-3.4,0.1
				C2018.5,617.7,2018.5,616.1,2019.4,615.1C2019.4,615.1,2019.4,615.1,2019.4,615.1z"/>
			<path class="st4" d="M2033.7,600.8l4.4-4.1c0.9-0.9,2.4-0.8,3.2,0.1c0.9,0.9,0.8,2.4-0.1,3.2l-4.4,4.2c-0.9,0.9-2.4,0.9-3.3-0.1
				C2032.7,603.1,2032.8,601.7,2033.7,600.8C2033.7,600.8,2033.7,600.8,2033.7,600.8z"/>
			<path class="st4" d="M2048.8,587.2l4.7-3.9c0.9-0.8,2.3-0.6,3.1,0.3c0.8,0.9,0.6,2.3-0.3,3.1l-4.6,3.9c-0.9,0.8-2.3,0.7-3.1-0.3
				C2047.8,589.4,2047.9,588.1,2048.8,587.2C2048.8,587.3,2048.8,587.2,2048.8,587.2z"/>
			<path class="st4" d="M2064.7,574.7l4.9-3.6c0.9-0.7,2.2-0.5,2.9,0.5c0.7,0.9,0.5,2.2-0.4,2.9l-4.8,3.6c-0.9,0.7-2.2,0.5-2.9-0.4
				C2063.6,576.7,2063.8,575.4,2064.7,574.7C2064.7,574.7,2064.7,574.7,2064.7,574.7z"/>
		</g>
		<g>
			
				<linearGradient id="SVGID_00000048470827725749004900000008424322696021291917_" gradientUnits="userSpaceOnUse" x1="1875.0741" y1="431.0596" x2="2024.6931" y2="431.0596">
				<stop  offset="0" style="stop-color:#DAE3FE"/>
				<stop  offset="1" style="stop-color:#E9EFFD"/>
			</linearGradient>
			<path style="fill:url(#SVGID_00000048470827725749004900000008424322696021291917_);" d="M1958.6,364.9l15.6,31.5
				c1.4,2.9,4.2,4.9,7.3,5.3l34.8,5.1c8,1.2,11.2,11,5.4,16.6l-25.2,24.5c-2.3,2.2-3.3,5.5-2.8,8.6l5.9,34.6c1.4,8-7,14.1-14.2,10.3
				l-31.1-16.4c-2.8-1.5-6.2-1.5-9.1,0l-31.1,16.4c-7.2,3.8-15.5-2.3-14.2-10.3l5.9-34.6c0.5-3.2-0.5-6.4-2.8-8.6l-25.2-24.5
				c-5.8-5.6-2.6-15.5,5.4-16.6l34.8-5.1c3.2-0.5,5.9-2.5,7.3-5.3l15.6-31.5C1944.7,357.6,1955.1,357.6,1958.6,364.9z"/>
			<path class="st9" d="M1990.1,496.8c-0.6,0-1.2-0.2-1.8-0.5l-31.1-16.4c-2.2-1.2-4.8-1.8-7.3-1.8c-2.5,0-5,0.6-7.3,1.8l-31.1,16.4
				c-0.6,0.3-1.2,0.5-1.8,0.5c-1.1,0-2.2-0.5-3-1.4c-0.5-0.6-1.1-1.6-0.8-3.1l5.9-34.6c0.9-5.1-0.8-10.3-4.5-13.9l-25.2-24.5
				c-1.6-1.5-1.2-3.3-1-4c0.2-0.7,1-2.3,3.1-2.6l34.8-5.1c5.1-0.7,9.5-3.9,11.8-8.6l15.6-31.5c1-1.9,2.7-2.2,3.5-2.2
				c0.7,0,2.5,0.2,3.5,2.2l15.6,31.5c2.3,4.6,6.7,7.8,11.8,8.6l34.8,5.1c2.1,0.3,2.9,1.9,3.1,2.6c0.2,0.7,0.6,2.4-1,4l-25.2,24.5
				c-3.7,3.6-5.4,8.8-4.5,13.9l5.9,34.6c0.3,1.5-0.3,2.5-0.8,3.1C1992.3,496.3,1991.2,496.8,1990.1,496.8z"/>
			<path class="st15" d="M1916.9,449.2c-0.4,0-0.7-0.2-0.8-0.6c-1-3.2-2.8-6.1-5.2-8.4l-9.6-9.3c-0.3-0.3-0.4-0.9,0-1.3
				c0.3-0.3,0.9-0.4,1.3,0l9.6,9.3c2.6,2.5,4.6,5.7,5.7,9.1c0.2,0.5-0.1,1-0.6,1.1C1917.1,449.2,1917,449.2,1916.9,449.2z"/>
			<path class="st15" d="M1935.7,477.8c-0.3,0-0.6-0.2-0.8-0.5c-0.2-0.4-0.1-1,0.4-1.2l4.2-2.2c3.2-1.7,6.8-2.6,10.4-2.6
				c3.6,0,7.2,0.9,10.4,2.6c0.4,0.2,0.6,0.8,0.4,1.2c-0.2,0.4-0.8,0.6-1.2,0.4c-3-1.6-6.3-2.4-9.6-2.4s-6.7,0.8-9.6,2.4l-4.2,2.2
				C1936,477.8,1935.8,477.8,1935.7,477.8z"/>
			<path class="st15" d="M1979,484.9c-0.7,0-1.4-0.1-2.1-0.3c-0.5-0.1-0.7-0.6-0.6-1.1c0.1-0.5,0.6-0.7,1.1-0.6
				c1.8,0.5,3.7,0.1,5.2-1.1c1.4-1.3,2.1-3.1,1.8-5l-3.1-18c-1.2-7.3,1.2-14.7,6.5-19.9l13-12.7c1.5-1.5,2-3.6,1.4-5.6
				c-0.7-2-2.3-3.4-4.4-3.7l-18-2.6c-7.3-1.1-13.6-5.6-16.9-12.3l-8.1-16.3c-0.9-1.9-2.8-3-4.9-3c-2.1,0-3.9,1.1-4.9,3l-8.1,16.3
				c-3.3,6.6-9.6,11.2-16.9,12.3l-18,2.6c-1.1,0.2-2.1,0.6-2.8,1.3c-0.4,0.3-0.9,0.3-1.2-0.1c-0.3-0.4-0.3-0.9,0.1-1.2
				c1-0.9,2.3-1.5,3.8-1.7l18-2.6c6.7-1,12.5-5.2,15.6-11.3l8.1-16.3c1.2-2.5,3.7-4,6.5-4s5.2,1.5,6.5,4l8.1,16.3
				c3,6.1,8.8,10.3,15.6,11.3l18,2.6c2.7,0.4,5,2.3,5.8,4.9c0.9,2.6,0.2,5.5-1.8,7.4l-13,12.7c-4.9,4.7-7.1,11.6-5.9,18.3l3.1,18
				c0.4,2.5-0.4,5-2.3,6.6C1982.4,484.2,1980.7,484.9,1979,484.9z"/>
		</g>
		<g>
			
				<linearGradient id="SVGID_00000008135864120919045660000014773030158702047633_" gradientUnits="userSpaceOnUse" x1="2063.4084" y1="522.2848" x2="2174.9443" y2="522.2848">
				<stop  offset="0" style="stop-color:#DAE3FE"/>
				<stop  offset="1" style="stop-color:#E9EFFD"/>
			</linearGradient>
			<path style="fill:url(#SVGID_00000008135864120919045660000014773030158702047633_);" d="M2132.5,471.6l7.4,25.5
				c0.7,2.3,2.5,4.2,4.8,4.9l25.2,8.3c5.8,1.9,6.9,9.7,1.8,13.1l-21.9,15c-2,1.4-3.2,3.6-3.2,6.1l-0.1,26.6c0,6.1-7.1,9.5-11.9,5.8
				l-21-16.3c-1.9-1.5-4.4-1.9-6.8-1.2l-25.3,8.1c-5.8,1.9-11.2-3.8-9.2-9.5l9-25c0.8-2.3,0.5-4.8-1-6.8l-15.5-21.6
				c-3.6-5,0.1-11.9,6.2-11.7l26.5,0.8c2.4,0.1,4.7-1.1,6.2-3l15.7-21.4C2123.1,464.3,2130.7,465.7,2132.5,471.6z"/>
			<path class="st9" d="M2138.6,573.8c-0.5-0.1-0.9-0.3-1.3-0.6l-21-16.3c-1.5-1.2-3.3-2-5.2-2.3c-1.9-0.3-3.8-0.2-5.7,0.4
				l-25.3,8.1c-0.5,0.2-0.9,0.2-1.4,0.1c-0.8-0.1-1.6-0.7-2-1.5c-0.3-0.5-0.6-1.4-0.2-2.4l9-25c1.3-3.7,0.7-7.7-1.5-10.9l-15.5-21.6
				c-1-1.3-0.5-2.6-0.2-3.1c0.3-0.5,1-1.6,2.7-1.5l26.5,0.8c3.9,0.1,7.6-1.7,9.9-4.8l15.7-21.4c1-1.3,2.3-1.2,2.9-1.1
				c0.5,0.1,1.8,0.5,2.3,2.1l7.4,25.5c1.1,3.7,3.9,6.7,7.6,7.9l25.2,8.3c1.6,0.5,1.9,1.8,2,2.4c0.1,0.5,0.1,1.9-1.2,2.8l-21.9,15
				c-3.2,2.2-5.1,5.8-5.2,9.7l-0.1,26.6c0,1.1-0.6,1.8-1,2.2C2140.3,573.7,2139.4,574,2138.6,573.8z"/>
			<path class="st15" d="M2090.3,528.8c-0.3,0-0.5-0.3-0.5-0.6c-0.4-2.5-1.3-4.9-2.8-6.9l-5.9-8.2c-0.2-0.3-0.1-0.7,0.2-0.9
				c0.3-0.2,0.7-0.1,0.9,0.2l5.9,8.2c1.6,2.2,2.6,4.8,3,7.5c0.1,0.4-0.2,0.7-0.6,0.8C2090.5,528.8,2090.4,528.8,2090.3,528.8z"/>
			<path class="st15" d="M2100.6,552.6c-0.2,0-0.4-0.2-0.5-0.5c-0.1-0.4,0.1-0.7,0.4-0.8l3.4-1.1c2.6-0.8,5.4-1,8.1-0.5
				c2.7,0.5,5.3,1.6,7.4,3.3c0.3,0.2,0.3,0.6,0.1,0.9c-0.2,0.3-0.6,0.3-0.9,0.1c-2-1.5-4.4-2.6-6.8-3c-2.5-0.4-5.1-0.3-7.5,0.5
				l-3.4,1.1C2100.8,552.6,2100.7,552.6,2100.6,552.6z"/>
			<path class="st15" d="M2131.9,563.5c-0.5-0.1-1-0.3-1.5-0.5c-0.3-0.2-0.5-0.6-0.3-0.9s0.6-0.5,0.9-0.3c1.3,0.6,2.8,0.6,4-0.2
				c1.2-0.8,2-2,2-3.5l0.1-13.8c0-5.6,2.8-10.8,7.4-13.9l11.4-7.7c1.3-0.9,2-2.4,1.8-4c-0.2-1.6-1.3-2.8-2.8-3.3l-13.1-4.3
				c-5.3-1.7-9.4-6-11-11.3l-3.9-13.2c-0.4-1.5-1.7-2.6-3.2-2.9c-1.6-0.3-3.1,0.3-4,1.6l-8.1,11.1c-3.3,4.5-8.6,7.1-14.2,6.9
				l-13.8-0.4c-0.8,0-1.6,0.2-2.3,0.6c-0.3,0.2-0.7,0.1-0.9-0.2c-0.2-0.3-0.1-0.7,0.2-0.9c0.9-0.6,1.9-0.8,3-0.8l13.8,0.4
				c5.1,0.2,10-2.2,13.1-6.4l8.1-11.1c1.2-1.7,3.3-2.5,5.3-2.1c2.1,0.4,3.7,1.8,4.3,3.8l3.9,13.2c1.4,4.9,5.2,8.8,10.1,10.5
				l13.1,4.3c2,0.7,3.4,2.3,3.7,4.4c0.3,2.1-0.6,4.1-2.3,5.3l-11.4,7.7c-4.2,2.9-6.8,7.7-6.8,12.8l-0.1,13.8c0,1.9-1,3.6-2.6,4.6
				C2134.5,563.5,2133.1,563.7,2131.9,563.5z"/>
		</g>
		<g>
			<g>
				
					<ellipse transform="matrix(0.7071 -0.7071 0.7071 0.7071 -196.5015 1146.9854)" class="st8" cx="1286.3" cy="810.7" rx="220.1" ry="220.1"/>
				
					<ellipse transform="matrix(0.7071 -0.7071 0.7071 0.7071 -196.5015 1146.9854)" class="st9" cx="1286.3" cy="810.7" rx="212.8" ry="212.8"/>
				<path class="st4" d="M1090.1,802.3c0,0-0.1,0-0.1,0c-1.1-0.1-2-1-1.9-2.1c0.4-8.3,1.4-16.7,2.9-24.9c0.2-1.1,1.2-1.8,2.3-1.6
					c1.1,0.2,1.8,1.2,1.6,2.3c-1.4,8-2.4,16.2-2.8,24.4C1092.1,801.4,1091.2,802.3,1090.1,802.3z"/>
				<path class="st4" d="M1110.8,724.3c-0.3,0-0.6-0.1-0.9-0.2c-1-0.5-1.4-1.7-0.9-2.7c34-67.3,101.9-109.1,177.2-109.1
					c12,0,24.1,1.1,35.8,3.2c1.1,0.2,1.8,1.2,1.6,2.3c-0.2,1.1-1.2,1.8-2.3,1.6c-11.5-2.1-23.3-3.2-35.1-3.2
					c-73.8,0-140.4,41-173.7,106.9C1112.3,723.9,1111.6,724.3,1110.8,724.3z"/>
				<circle class="st15" cx="1290.9" cy="815.3" r="180.1"/>
				<path class="st4" d="M1346.1,747.3c0,30.5-24.7,63.4-55.2,63.4s-55.2-32.9-55.2-63.4c0-30.5,24.7-52.1,55.2-52.1
					S1346.1,716.8,1346.1,747.3z"/>
				<path class="st4" d="M1222.3,928.1h134.8c14.2,0,26.7-9.2,31.1-22.7l7.3-22.7c5.3-16.6-3.3-34.6-19.7-40.6
					c-54.9-20.1-111.6-17.5-169.7,1.9c-16.3,5.4-25.3,22.8-20.8,39.4l5.6,20.6C1194.7,918.2,1207.6,928.1,1222.3,928.1z"/>
			</g>
			<g>
				<path class="st4" d="M1498,883.4l-0.4-12.6l13.2-26.2c2.4-4.8,2.4-10.4,0.1-15.3l-15-30.2c0,0-8.6,65.5-10.9,71
					c-2.3,5.4,6.2,15.2,6.2,15.2L1498,883.4z"/>
				<path class="st3" d="M1644.5,921.8c0,0,14.1,6.9,16.7,14.8c2.1,6.3,17.7,7.1,19.2,19.6c0.8,6.4,5.6,11.6,12,12.6
					c15.9,2.4,40.5,10.7,44.4,38.4c3,21.1-7.8,29.1-19.1,31.9c-8.3,2-13.8,10.1-12.1,18.5c1.6,8-0.8,17.3-14.7,24.7
					c-31.2,16.5-62.4-39-62.4-39l-6.4-96.9L1644.5,921.8z"/>
				<path class="st4" d="M1497.6,870.8c0,0,40.2,109.5,108.6,143.7c0,0-22.8,37.2-34.7,39.4c0,0-73.1-93.6-80.5-170.2L1497.6,870.8z
					"/>
				<path class="st8" d="M1772.8,1529.3l2,16.6c2.1,7.9,12.3,27.8,25.3,26.5c8-0.8,9-24.2,7.9-27.7c-2-6.4-5.8-16-11.1-21.7h-18.4
					C1775,1522.9,1772.4,1525.9,1772.8,1529.3z"/>
				<path class="st4" d="M1628.5,1334.8l-3.1,18.3c0,0,10.4,105.4,12.3,147.6c0.3,6.6-1.4,13.1-4.9,18.8l-18.1,29.4l46-27.1l0.9-5.6
					l-7.5-10.4l9.9-118.1c0.6-6.9-0.9-13.9-4.1-20l-9.5-17.9L1628.5,1334.8z"/>
				<path class="st8" d="M1611.7,1553.1h14.7c2.7,0,5.3-1.3,7-3.4c4.6-5.9,14.1-17.5,18.6-17.9c6.1-0.4,5.3,21.3,5.3,21.3h3.4
					l4.3-27c1.1-6.8-2.3-13.5-8.4-16.7l0,0c0,0-1.4,10.3-9,14.9c-7.6,4.6-30.8,20.9-30.8,20.9s-2.8-0.4-6,0.2
					C1606.3,1546.3,1606.9,1553.1,1611.7,1553.1z"/>
				<path class="st4" d="M1691.5,1343.5c0,0,61,115.7,70.7,142.1c9.7,26.4,13.1,48.4,13.2,50.5c0.2,3.3,4.3,6.4,15.4,6.4
					c5.8,0,8.6-2.3,10-4.6c1.2-1.9,1.2-4.3,0.2-6.3c-3.5-7.1-14.7-30-18.9-40.3c-5-12.4-15.6-68.3-21.4-87.8
					c-5.8-19.5-12.4-40.6-37.9-60C1722.9,1343.5,1705.5,1326.4,1691.5,1343.5z"/>
				<path class="st3" d="M1653,1153.9c-8.9-37.8,0.1-66.4,9.5-83.9c7.5-14,2.2-31.4-11.9-38.7c-22.1-11.5-44.4-16.8-44.4-16.8
					s-43.7,32-38.5,57c3,14.7,30.7,87.8,30.7,87.8S1624,1171.4,1653,1153.9z"/>
				<path class="st9" d="M1687.9,1186.9c-6.4-19.3-34.9-33-34.9-33c-29,17.4-54.6,5.3-54.6,5.3s-5.7,21.9-1.8,42.3
					s28.8,151.5,28.8,151.5c39.2,7.9,99.4-8,99.4-8C1699.9,1300.8,1694.3,1206.2,1687.9,1186.9z"/>
				<path class="st4" d="M1634.7,970.4l12.8,57.4c1.2,5.1-3.4,4.2-8.5,3.3c-8.4-1.6-19.2-4.8-22.8-11.4c-0.4-0.7-0.6-1.4-0.7-2.2
					l-5.5-39.8c-0.4-3.2,1.3-6.2,4.2-7.5l10.6-4.7C1629,963.7,1633.7,966.1,1634.7,970.4z"/>
				<g>
					<path class="st4" d="M1619.7,915.7c0,0-15.1,6.4-25.4,28.3c-10.3,21.9-2.6,32,7.1,33.4c9.7,1.4,24.1,1.2,39.4-13
						C1656,950.3,1639.4,908.1,1619.7,915.7z"/>
					<path class="st3" d="M1630.5,952.7c0,0,11.4-32-17-32.4l-6.7,4.7c0,0-10.4-17.8,6.7-26.2c17.1-8.5,37.1-1.5,44.4,21.6
						c7.3,23,8.5,38.5-3.6,49.5c-12.1,11-17.1-1.5-17.1-1.5s6.6-10.3,3.9-15.8c-2.7-5.5-8.9,1.1-8.9,1.1L1630.5,952.7z"/>
					<path class="st4" d="M1633.7,956.3c0,0,5.8-16.5,13.5-9.9c7.7,6.6-6.3,15.2-11.7,18L1633.7,956.3z"/>
				</g>
				<path class="st4" d="M1474.9,932.5c0,0,33.7,116.9,169.4,105.9c8.7-0.7,16.3,5.7,17,14.4l0.4,4.7c1,12.6-9.3,23.2-21.9,22.6
					c-45.1-2.3-142.1-20-175.3-127.3L1474.9,932.5z"/>
				<path class="st4" d="M1464.4,952.8c0,0-6.5-19-8.1-30.9c-1.6-11.9,4.4-38.6,9.5-46.1c5.1-7.5,6,10.9,8.3,19.5
					c2.3,8.7-1.6,21-1.6,21l2.4,16.2L1464.4,952.8z"/>
			</g>
		</g>
		<g>
			<g>
				<g>
					<g>
						
							<linearGradient id="SVGID_00000022533724337356439970000014220835676037023658_" gradientUnits="userSpaceOnUse" x1="2836.4309" y1="1371.4561" x2="2901.3875" y2="1371.4561" gradientTransform="matrix(1 0 0 1 -2333 0)">
							<stop  offset="0" style="stop-color:#4042E2"/>
							<stop  offset="1" style="stop-color:#4F52FF"/>
						</linearGradient>
						<path style="fill:url(#SVGID_00000022533724337356439970000014220835676037023658_);" d="M566.6,1368.3
							c-11.1,1-30.4,2.5-45.7,3.2c-9.2,0.4-14.4-0.5-17.5-1.7c0,0.3,0,0.7,0,1c0.1,1.6,1.4,2.9,3,3c28.8,1.6,51.6,0.6,59.8,0.1
							c1.7-0.1,2.7-1.9,1.8-3.4C567.6,1369.7,567.1,1369,566.6,1368.3z"/>
						<path class="st3" d="M520.9,1371.5c15.2-0.7,34.5-2.2,45.7-3.2c-10.9-13.4-45.7-22.5-45.7-22.5h-9.8c-6.7,9.7-7.7,19-7.6,24
							C506.5,1371,511.7,1371.9,520.9,1371.5z"/>
						<path class="st4" d="M509.4,1329.8l0.9,18.2c0.1,2,1.6,3.6,3.5,3.9c2,0.3,4.6,0.3,7.4-0.6c1.7-0.6,3-2,3.3-3.8l3.2-17.7H509.4
							z"/>
					</g>
					<g>
						<g>
							
								<linearGradient id="SVGID_00000000182761423930399920000017560955832716794807_" gradientUnits="userSpaceOnUse" x1="2706.9353" y1="1370.0553" x2="2731.8276" y2="1370.0553" gradientTransform="matrix(1 0 0 1 -2333 0)">
								<stop  offset="0" style="stop-color:#4042E2"/>
								<stop  offset="1" style="stop-color:#4F52FF"/>
							</linearGradient>
							<path style="fill:url(#SVGID_00000000182761423930399920000017560955832716794807_);" d="M382,1371.4c-4.8-0.7-7-3.2-7.9-5.9
								c0,0,0,0,0,0.1c-0.7,2.8,0.9,5.8,4.2,7.2c4,1.7,8.3,2,11.7,1.8c3.6-0.1,6.9-1.6,8.8-4l0,0
								C395.2,1372.3,390.1,1372.5,382,1371.4z"/>
							<path class="st3" d="M404.8,1329.7h-8.1c-12.3-0.3-20.1,25.7-22.6,35.8c0.9,2.7,3.1,5.2,7.9,5.9c8,1.1,13.2,0.9,16.8-0.9
								c6.7-8.8,10-21.6,11.5-29.1C412.2,1332.9,404.8,1329.7,404.8,1329.7z"/>
						</g>
						<path class="st4" d="M397.7,1312.9l-4.5,17.9c-0.6,2.2,0.5,4.5,2.5,5.5c2.5,1.3,6.1,2.6,9.3,2.3c1.5-0.2,2.8-1.3,3.3-2.7
							l6.6-18.8L397.7,1312.9z"/>
					</g>
					<path class="st2" d="M392.4,1318c5.6,5,23.8,5.6,23.8,5.6c65.5-157.1,92.3-179.5,92.3-179.5c-9.5,59.3-1.5,190.6-1.5,190.6
						c10.8,4.8,24.7,0,24.7,0c0.9-97.1,15.8-181.8,33.4-248.5c-44.2-1-67.8-16.1-75.5-22.2C452.7,1123.5,392.4,1318,392.4,1318z"/>
					<path class="st3" d="M500.8,883.3c-8.4,41.8-5.4,116.5-3.4,150.7c0.6,9.6-6.1,22.9-11.5,31.9c-0.8,1.4-0.3,3.2,1.1,4
						c9.1,4.7,39.7,19.1,75.3,20.9c2.4,0.1,4.5-1.5,5.1-3.8c26.4-98.5,57-161.4,57-161.4C590.6,871.6,500.8,883.3,500.8,883.3z"/>
					<g>
						<path class="st4" d="M448.3,1003.2c2.7,19.5,10.6,40.7,26.5,63.2l6-4.9c0,0-7-28.3-3-60.4
							C468,999.2,456.5,1001.2,448.3,1003.2z"/>
						<path class="st3" d="M510.2,934.9l-9.4-51.5c0,0-62.5,47.8-52.5,119.9c8.2-2.1,19.8-4,29.6-2.1
							C480.7,978,489.2,952.8,510.2,934.9z"/>
					</g>
					<g>
						<path class="st3" d="M624.4,925.6l-24.1,52c3.9,31.4,20.8,44.9,38.9,50.1c1.1-14.3,4.7-25.8,8.1-33.8
							C624.1,969.9,624.4,925.6,624.4,925.6z"/>
						<path class="st4" d="M647.3,993.9c-3.4,8-7,19.5-8.1,33.8c48.5,18.8,61.3-17.7,61.3-17.7l-9-1.6
							C671.3,1010.6,657.2,1004.1,647.3,993.9z"/>
					</g>
					<path class="st4" d="M602.2,861.5l-11.6,42.8c-1.3,4.8-6.5,7.4-11.1,5.5c-5-2-11.3-4.7-16.8-7.7c-5.8-3.1-7.6-10.6-4-16.1
						l24.2-36.1L602.2,861.5z"/>
				</g>
				<path class="st8" d="M722.7,981.4L424.3,1090c-12.5,4.6-18.5,18.8-13,30.9l0.9,2c4.9,10.7,17.6,15.4,28.3,10.5l289.8-134.1
					L722.7,981.4z"/>
				
					<linearGradient id="SVGID_00000018923991230736588640000012712008111111134905_" gradientUnits="userSpaceOnUse" x1="712.5834" y1="916.047" x2="1007.2487" y2="916.047">
					<stop  offset="0" style="stop-color:#DAE3FE"/>
					<stop  offset="1" style="stop-color:#E9EFFD"/>
				</linearGradient>
				
					<ellipse style="opacity:0.32;fill:url(#SVGID_00000018923991230736588640000012712008111111134905_);" cx="859.9" cy="916" rx="147.3" ry="144.7"/>
				<path class="st8" d="M859.9,755.1c-90.5,0-163.9,72.1-163.9,161c0,88.9,73.4,161,163.9,161c90.5,0,163.9-72.1,163.9-161
					C1023.9,827.1,950.5,755.1,859.9,755.1z M859.9,1053.4c-77.2,0-139.9-61.5-139.9-137.3c0-75.8,62.6-137.3,139.9-137.3
					c77.2,0,139.9,61.5,139.9,137.3C999.8,991.9,937.2,1053.4,859.9,1053.4z"/>
				<path class="st4" d="M708.4,935.9c-0.5,0-0.9-0.4-1-0.9c-0.5-3.8-0.8-7.7-1-11.5c0-0.6,0.4-1,1-1.1c0.6-0.1,1,0.4,1.1,1
					c0.2,3.8,0.5,7.6,1,11.4c0.1,0.6-0.3,1.1-0.9,1.1C708.5,935.9,708.5,935.9,708.4,935.9z M709.6,890.9c-0.1,0-0.1,0-0.2,0
					c-0.5-0.1-0.9-0.6-0.8-1.2c1.9-10.3,4.8-20.5,8.8-30.2l0,0c23.6-57.3,79.6-94.3,142.5-94.3c29.4,0,57.9,8.2,82.5,23.6
					c0.5,0.3,0.6,0.9,0.3,1.4c-0.3,0.5-0.9,0.6-1.4,0.3c-24.3-15.2-52.5-23.3-81.5-23.3c-62.1,0-117.3,36.5-140.6,93.1c0,0,0,0,0,0
					c-4,9.6-6.9,19.6-8.7,29.8C710.5,890.5,710,890.9,709.6,890.9z"/>
				<path class="st4" d="M478.4,1060.7l28.2-2.3l12.2,11.3c0,0-2.9,4-11.9,1.7c-9-2.3-21.4-2.9-21.4-2.9s-12.5,5.6-12.6-4.9
					L478.4,1060.7z"/>
				<path class="st4" d="M696.9,1016.7c2.4,1.9,10.8-2.1,15.9-4.8c2.5-1.3,3.7-4.3,2.8-7c-1.2-3.9-3.3-8.9-5.8-9.5
					C705.7,994.4,686.9,1008.9,696.9,1016.7z"/>
				
					<linearGradient id="SVGID_00000146457717486055777360000015316843534416851895_" gradientUnits="userSpaceOnUse" x1="473.0619" y1="1077.9369" x2="479.7215" y2="1077.9369">
					<stop  offset="0" style="stop-color:#DAE3FE"/>
					<stop  offset="1" style="stop-color:#E9EFFD"/>
				</linearGradient>
				<path style="fill:url(#SVGID_00000146457717486055777360000015316843534416851895_);" d="M474.1,1079.9c-0.4,0-0.8-0.2-0.9-0.6
					c-0.2-0.5,0.1-1.1,0.6-1.3l4.6-1.8c0.5-0.2,1.1,0.1,1.3,0.6c0.2,0.5-0.1,1.1-0.6,1.3l-4.6,1.8
					C474.3,1079.8,474.2,1079.9,474.1,1079.9z"/>
				<g>
					<path class="st4" d="M604.7,819.4c0,0,9.6,22.1,10.3,33.8c0.6,11.6,3.2,19.2-10.3,21.5c-13.4,2.3-24.8-4.4-30.9-15.9
						c0,0-9.6-17.8-7.5-25.1C568.5,826.3,604.7,819.4,604.7,819.4z"/>
					<path class="st8" d="M578.4,850.5h1.7c0,0-7-14.4-0.8-16.9c6.2-2.5,30.5-7.5,35.8-16.1c5.1-8.3,0.5-19.1-6.2-22.1
						c-0.4-0.2-0.9,0-1.2,0.4l-0.6,1.1c-0.4,0.7-1.5,0.6-1.7-0.2l0,0c-0.2-0.7-1.2-0.9-1.6-0.3c-1.6,2.6-6,6.8-17.7,8.9
						c-16.6,3.1-27.5,9.8-27.8,21.2c0,0.7-0.8,1.1-1.4,0.7c-1.2-0.7-3.2-1.1-5.8,1.1c-4.6,3.8-2.7,13.8,7.3,21.9
						c0.5,0.4,0.5,1.1,0,1.5c-1.8,1.2-4.5,4,2.5,7.7c7.2,3.8,11.4,3.4,13,3c0.4-0.1,0.7-0.5,0.7-0.9l-0.6-10.2c0-0.5,0.4-1,0.9-1
						H578.4z"/>
					<path class="st4" d="M578.8,852.6c0,0-3.7-14.1-10-10.2c-6.3,4,3.3,15.9,8.4,16.4L578.8,852.6z"/>
				</g>
			</g>
		</g>
	</g>
</g>
</svg>
