<?xml version="1.0" encoding="utf-8"?>
<!-- Generator: Adobe Illustrator 26.0.2, SVG Export Plug-In . SVG Version: 6.00 Build 0)  -->
<svg version="1.1" id="レイヤー_1" xmlns="http://www.w3.org/2000/svg" xmlns:xlink="http://www.w3.org/1999/xlink" x="0px"
	 y="0px" viewBox="0 0 2475 1650" style="enable-background:new 0 0 2475 1650;" xml:space="preserve">
<style type="text/css">
	.st0{opacity:0.81;}
	.st1{fill:#86BFF2;}
	.st2{opacity:0.55;fill:#86BFF2;enable-background:new    ;}
	.st3{opacity:0.25;fill:#7B8FDD;enable-background:new    ;}
	.st4{fill:#7B8FDD;}
	.st5{fill:#FFFFFF;}
	.st6{fill:#D1AAD7;}
	.st7{fill:url(#SVGID_1_);}
	.st8{fill:url(#SVGID_00000036972408237225655460000018268751780426303935_);}
	.st9{fill:url(#SVGID_00000031167013811837594360000015449380426383876527_);}
	.st10{fill:url(#SVGID_00000176745601287720331980000002732974275574164126_);}
	.st11{opacity:0.22;fill:url(#SVGID_00000142863375845664495730000001223933259769766320_);enable-background:new    ;}
	.st12{opacity:0.3;fill:#7B8FDD;enable-background:new    ;}
	.st13{fill:url(#SVGID_00000132806601779570254710000015520092118926945921_);}
	.st14{fill:#C88BC4;}
	.st15{opacity:0.49;fill:#FFFFFF;enable-background:new    ;}
	.st16{fill:#BBDEF2;}
	.st17{fill:url(#SVGID_00000162353408688946890050000012891082008866538907_);}
	.st18{opacity:0.31;fill:#86BFF2;enable-background:new    ;}
	.st19{fill:#F2F2F2;}
	.st20{opacity:0.22;fill:#7B8FDD;enable-background:new    ;}
	.st21{fill:url(#SVGID_00000007424928830716246780000011659831287932979353_);}
	.st22{fill:#338DB0;}
	.st23{opacity:0.53;fill:#7B8FDD;enable-background:new    ;}
	.st24{fill:url(#SVGID_00000092438898895473829140000012208768703173009306_);}
	.st25{opacity:0.3;}
</style>
<g id="Bakground">
</g>
<g id="Illustration">
</g>
<g id="Lights">
	<g class="st0">
		<g>
			<g>
				<path class="st1" d="M1734.2,1586.4c-5,0-10-1.4-14.6-3.9l-321.6-185.6c-4.6-2.7-7.4-7.6-7.4-12.9c0-5.3,2.9-10.3,7.4-12.9
					l321.7-185.6c9-5.2,20.2-5.2,29.2,0l321.6,185.6c4.6,2.7,7.4,7.6,7.4,12.9c0,5.3-2.9,10.3-7.4,12.9l-321.7,185.6l-0.5-0.6
					l0.5,0.6C1744.2,1585,1739.2,1586.4,1734.2,1586.4z M1734.2,1182.7c-4.7,0-9.6,1.2-13.8,3.6l-321.6,185.8
					c-4.1,2.4-6.7,6.8-6.7,11.5c0,4.7,2.6,9.3,6.7,11.5l321.6,185.6c8.5,4.9,19.1,4.9,27.6,0l321.6-185.8c4.1-2.4,6.7-6.8,6.7-11.5
					c0-4.7-2.6-9.3-6.7-11.5L1748,1186.4C1743.8,1184,1739.1,1182.7,1734.2,1182.7z"/>
				<path class="st1" d="M229.1,856c-5,0-10-1.4-14.6-3.9L-107,666.4c-4.6-2.7-7.4-7.6-7.4-12.9s2.9-10.3,7.4-12.9l321.6-185.9
					c9-5.2,20.2-5.2,29.2,0l321.6,185.6c4.6,2.7,7.4,7.6,7.4,12.9s-2.9,10.3-7.4,12.9L243.7,852l-0.5-0.6l0.5,0.6
					C239.2,854.6,234.2,856,229.1,856z M229.1,452.4c-4.7,0-9.6,1.2-13.8,3.6l-321.7,185.6c-4.1,2.4-6.7,6.8-6.7,11.5
					c0,4.7,2.6,9.3,6.7,11.5l321.7,185.9c8.5,4.9,19.1,4.9,27.6,0l321.6-185.8c4.1-2.4,6.7-6.8,6.7-11.5s-2.6-9.3-6.7-11.5L243,456
					C238.7,453.6,234,452.4,229.1,452.4z"/>
				<path class="st1" d="M2308,1253.5c-5,0-10-1.4-14.6-3.9L1971.8,1064c-4.6-2.7-7.4-7.6-7.4-12.9c0-5.3,2.9-10.3,7.4-12.9
					l321.6-185.9c9-5.2,20.2-5.2,29.2,0l321.6,185.6c4.6,2.7,7.4,7.6,7.4,12.9c0,5.3-2.9,10.3-7.4,12.9l-321.6,185.9l-0.5-0.6
					l0.5,0.6C2318,1252.2,2313,1253.5,2308,1253.5z M2308,849.9c-4.7,0-9.6,1.2-13.8,3.6l-321.7,185.6c-4.1,2.4-6.7,6.8-6.7,11.5
					s2.6,9.3,6.7,11.5l321.7,185.9c8.5,4.9,19.1,4.9,27.6,0l321.6-185.8c4.1-2.4,6.7-6.8,6.7-11.5s-2.6-9.3-6.7-11.5l-321.6-185.8
					C2317.5,851.1,2312.8,849.9,2308,849.9z"/>
				<path class="st1" d="M1017.4,1354.7c-5,0-10-1.4-14.6-3.9l-565.5-326.6c-4.6-2.7-7.4-7.6-7.4-12.9c0-5.3,2.9-10.3,7.4-12.9
					l1004.1-578c9-5.2,20.2-5.2,29.2,0l565.4,326.6c4.6,2.7,7.4,7.6,7.4,12.9c0,5.3-2.9,10.3-7.4,12.9l-1004.1,578l-0.5-0.8l0.5,0.8
					C1027.4,1353.3,1022.4,1354.7,1017.4,1354.7z M1455.9,417.9c-4.7,0-9.6,1.2-13.8,3.6L438,999.5c-4.1,2.4-6.7,6.8-6.7,11.5
					s2.6,9.3,6.7,11.5l565.5,326.6c8.5,4.9,19.1,4.9,27.6,0l1004.1-578c4.1-2.4,6.7-6.8,6.7-11.5s-2.6-9.3-6.7-11.5l-565.4-326.6
					C1465.5,419.1,1460.8,417.9,1455.9,417.9z"/>
				<polygon class="st1" points="-36.6,1789.6 859.7,1267.7 858.9,1266.3 -36.6,1787.8 				"/>
				<polygon class="st1" points="-36.6,1770.7 843.3,1258.1 842.5,1256.7 -36.6,1768.8 				"/>
				<polygon class="st1" points="-36.6,1750.8 825.2,1248.5 824.5,1247.1 -36.6,1748.9 				"/>
				<polygon class="st1" points="-36.6,1731.6 808.8,1239.1 808.1,1237.7 -36.6,1729.8 				"/>
				<polygon class="st1" points="-36.6,1713.4 793.6,1229.5 792.9,1228.2 -36.6,1711.6 				"/>
				<polygon class="st1" points="-36.6,1694.4 777.2,1220 776.5,1218.6 -36.6,1692.6 				"/>
				<polygon class="st1" points="-36.6,1675.7 761.4,1210.4 760.7,1209 -36.6,1673.9 				"/>
				<polygon class="st1" points="-36.6,1656.7 745,1201 744.3,1199.6 -36.6,1654.9 				"/>
				<polygon class="st1" points="-36.6,1636.8 726.9,1191.4 726.2,1190 -36.6,1635 				"/>
				<polygon class="st1" points="-36.6,1617.8 710.5,1181.8 709.8,1180.5 -36.6,1616 				"/>
				<polygon class="st1" points="-36.6,1599.5 695.3,1172.3 694.6,1170.9 -36.6,1597.6 				"/>
				<polygon class="st1" points="-36.6,1580.5 678.9,1162.8 678.2,1161.5 -36.6,1578.6 				"/>
				<polygon class="st1" points="-36.6,1560.6 661.2,1153.3 660.4,1151.9 -36.6,1558.7 				"/>
				<polygon class="st1" points="-36.6,1541.6 644.8,1143.7 643.8,1142.3 -36.6,1539.8 				"/>
				<polygon class="st1" points="-36.6,1521.7 626.7,1134.1 625.9,1132.8 -36.6,1519.9 				"/>
				<polygon class="st1" points="-36.6,1502.7 610.3,1124.7 609.5,1123.3 -36.6,1500.9 				"/>
				<polygon class="st1" points="-36.6,1484.3 595.1,1115.1 594.3,1113.8 -36.6,1482.5 				"/>
				<polygon class="st1" points="-36.6,1465.3 578.7,1105.6 577.9,1104.2 -36.6,1463.5 				"/>
				<polygon class="st1" points="-36.6,1446.8 562.9,1096 562.1,1094.6 -36.6,1445 				"/>
				<polygon class="st1" points="2543.9,261.7 1905,671.1 1905.7,672.5 2543.9,263.6 				"/>
				<polygon class="st1" points="2543.9,241.8 1887,661.5 1887.8,662.9 2543.9,243.7 				"/>
				<polygon class="st1" points="2543.9,223 1870.6,652 1871.4,653.3 2543.9,224.8 				"/>
				<polygon class="st1" points="2543.9,204.8 1855.3,642.4 1856.2,643.8 2543.9,206.6 				"/>
				<polygon class="st1" points="2543.9,185.9 1838.9,633 1839.8,634.4 2543.9,187.8 				"/>
				<polygon class="st1" points="2543.9,167.4 1823.2,623.4 1824,624.8 2543.9,169.2 				"/>
				<polygon class="st1" points="2543.9,148.4 1806.8,613.9 1807.6,615.2 2543.9,150.2 				"/>
				<polygon class="st1" points="2543.9,128.7 1788.8,604.3 1789.5,605.6 2543.9,130.5 				"/>
				<polygon class="st1" points="2543.9,109.7 1772.3,594.9 1773.1,596.2 2543.9,111.5 				"/>
				<polygon class="st1" points="2543.9,91.6 1757.2,585.3 1757.9,586.7 2543.9,93.4 				"/>
				<polygon class="st1" points="2543.9,72.6 1740.8,575.7 1741.5,577.1 2543.9,74.4 				"/>
				<polygon class="st1" points="1722.8,566.1 2538.2,56.5 2538.9,57.9 1723.6,567.4 				"/>
				<polygon class="st1" points="1706.4,556.4 2521.6,46.8 2522.4,48.2 1707.2,557.7 				"/>
				<polygon class="st1" points="1688.3,547.1 2504.5,37 2505.2,38.3 1689.1,548.4 				"/>
				<polygon class="st1" points="2543.9,-4.3 1672.1,537.6 1672.9,539 2543.9,-2.4 				"/>
				<polygon class="st1" points="2543.9,-22.5 1656.7,528 1657.7,529.4 2543.9,-20.7 				"/>
				<polygon class="st1" points="1640.4,518.6 2530.6,-33.6 2531.3,-32.3 1641.1,519.9 				"/>
				<polygon class="st1" points="1624.8,509 2514.6,-43 2515.3,-41.7 1625.5,510.4 				"/>
				<path class="st1" d="M1285,1650c-5,0-10-1.4-14.6-3.9l-495.8-286.2c-4.6-2.7-7.4-7.6-7.4-12.9c0-5.3,2.9-10.3,7.4-12.9
					l100.9-58.2l0.8,1.4l-100.9,58c-4.1,2.4-6.7,6.8-6.7,11.5c0,4.7,2.6,9.3,6.7,11.5l495.8,286.2c8.5,4.9,19.1,4.9,27.6,0
					l265.5-153.3l0.8,1.4l-265.5,153.3C1295.1,1648.6,1290,1650,1285,1650z"/>
				<path class="st1" d="M860.8,1268c-0.9,0.6-2.6,0.6-3.5,0c-0.9-0.6-0.9-1.5,0-2c0.9-0.6,2.6-0.6,3.5,0
					C861.7,1266.6,861.7,1267.5,860.8,1268z"/>
				
					<ellipse transform="matrix(5.409456e-03 -1 1 5.409456e-03 -419.9143 2093.1001)" class="st1" cx="842.3" cy="1257.6" rx="1.5" ry="2.4"/>
				<path class="st1" d="M827.2,1248.7c-0.9,0.6-2.6,0.6-3.5,0c-0.9-0.6-0.9-1.5,0-2c0.9-0.6,2.6-0.6,3.5,0
					C828.1,1247.3,828.3,1248.1,827.2,1248.7z"/>
				<path class="st1" d="M810.9,1239.2c-0.9,0.6-2.6,0.6-3.5,0c-0.9-0.6-0.9-1.5,0-2c0.9-0.6,2.6-0.6,3.5,0
					C811.8,1237.7,811.8,1238.6,810.9,1239.2z"/>
				<path class="st1" d="M794.5,1229.8c-0.9,0.6-2.6,0.6-3.5,0c-0.9-0.6-0.9-1.5,0-2c0.9-0.6,2.6-0.6,3.5,0
					C795.4,1228.3,795.4,1229.4,794.5,1229.8z"/>
				<path class="st1" d="M778.1,1220.3c-0.9,0.6-2.6,0.6-3.5,0c-0.9-0.6-0.9-1.5,0-2c0.9-0.6,2.6-0.6,3.5,0
					C779,1218.9,779,1219.8,778.1,1220.3z"/>
				<path class="st1" d="M762.2,1210.8c-0.9,0.6-2.6,0.6-3.5,0s-0.9-1.5,0-2c0.9-0.6,2.6-0.6,3.5,0S763.2,1210.2,762.2,1210.8z"/>
				<path class="st1" d="M745.6,1201.6c-0.9,0.6-2.6,0.6-3.5,0c-0.9-0.6-0.9-1.5,0-2c0.9-0.6,2.6-0.6,3.5,0
					C746.5,1200.1,746.5,1201,745.6,1201.6z"/>
				<path class="st1" d="M728.8,1191.7c-0.9,0.6-2.6,0.6-3.5,0s-0.9-1.5,0-2c0.9-0.6,2.6-0.6,3.5,0
					C729.8,1190.3,729.8,1191.2,728.8,1191.7z"/>
				<path class="st1" d="M712,1182.4c-0.9,0.6-2.6,0.6-3.5,0c-0.9-0.6-0.9-1.5,0-2c0.9-0.6,2.6-0.6,3.5,0
					C713.1,1181.1,713.1,1182,712,1182.4z"/>
				<path class="st1" d="M695.6,1172.9c-0.9,0.6-2.6,0.6-3.5,0s-0.9-1.5,0-2c0.9-0.6,2.6-0.6,3.5,0
					C696.6,1171.3,696.6,1172.3,695.6,1172.9z"/>
				<path class="st1" d="M679.2,1163.4c-0.9,0.6-2.6,0.6-3.5,0s-0.9-1.5,0-2c0.9-0.6,2.6-0.6,3.5,0
					C680.3,1161.9,680.3,1162.8,679.2,1163.4z"/>
				<path class="st1" d="M662.7,1153.7c-0.9,0.6-2.6,0.6-3.5,0s-0.9-1.5,0-2c0.9-0.6,2.6-0.6,3.5,0
					C663.6,1152.2,663.6,1153.3,662.7,1153.7z"/>
				<path class="st1" d="M646,1144.3c-0.9,0.6-2.6,0.6-3.5,0s-0.9-1.5,0-2c0.9-0.6,2.6-0.6,3.5,0
					C646.9,1142.9,646.9,1143.9,646,1144.3z"/>
				
					<ellipse transform="matrix(5.409456e-03 -1 1 5.409456e-03 -509.5723 1754.2234)" class="st1" cx="627.1" cy="1133.3" rx="1.5" ry="2.4"/>
				<path class="st1" d="M612.4,1124.7c-0.9,0.6-2.6,0.6-3.5,0s-0.9-1.5,0-2c0.9-0.6,2.6-0.6,3.5,0
					C613.3,1123.3,613.3,1124.3,612.4,1124.7z"/>
				
					<ellipse transform="matrix(5.409442e-03 -1 1 5.409442e-03 -523.4371 1702.6256)" class="st1" cx="594.2" cy="1114.5" rx="1.5" ry="2.4"/>
				<path class="st1" d="M579.7,1105.9c-0.9,0.6-2.6,0.6-3.5,0s-0.9-1.5,0-2c0.9-0.6,2.6-0.6,3.5,0
					C580.6,1104.5,580.6,1105.4,579.7,1105.9z"/>
				<path class="st1" d="M563.6,1096.5c-0.9,0.6-2.6,0.6-3.5,0s-0.9-1.5,0-2c0.9-0.6,2.6-0.6,3.5,0
					C564.5,1094.9,564.5,1095.8,563.6,1096.5z"/>
				<g>
					<g>
						<path class="st2" d="M1395.9,1590.3c-0.3,0.2-0.8,0.2-0.9-0.3c-0.2-0.2-0.2-0.3,0-0.6c0-0.2,0.2-0.3,0.3-0.5l48.3-28
							c0.3-0.2,0.8-0.2,0.9,0.3c0.2,0.2,0.2,0.3,0,0.6c0,0.2-0.2,0.3-0.3,0.5L1395.9,1590.3z"/>
					</g>
				</g>
				<g>
					<g>
						<path class="st2" d="M1139.4,1570.4c0.3,0.2,0.8,0.2,0.9-0.3c0.2-0.2,0.2-0.3,0-0.6c0-0.2-0.2-0.3-0.3-0.5l-48.3-28
							c-0.3-0.2-0.8-0.2-0.9,0.3c-0.2,0.2-0.2,0.3,0,0.6c0,0.2,0.2,0.3,0.3,0.5L1139.4,1570.4z"/>
					</g>
				</g>
				<path class="st1" d="M2570.6,1521.3L1741.5,1027c-9-5.2-20.2-5.2-29.2,0.2l-275.9,160.4c-8.4,4.9-18.7,5-27,0.5l-50.6-27.5
					l-0.8,1.4l50.6,27.5c9,4.9,19.9,4.7,28.6-0.5l275.7-160.6c8.5-5,19.1-5,27.6-0.2l829.9,494.7v-1.7H2570.6z"/>
				<polygon class="st1" points="2543.9,277.5 1922.6,681.6 1923.3,683 2543.9,279.4 				"/>
				<path class="st1" d="M1924.4,682.4c-0.9,0.6-2.6,0.6-3.5,0c-0.9-0.6-0.9-1.5,0-2c0.9-0.6,2.6-0.6,3.5,0
					C1925.3,680.8,1925.3,681.8,1924.4,682.4z"/>
				<path class="st1" d="M1907.7,672.9c-0.9,0.6-2.6,0.6-3.5,0s-0.9-1.5,0-2c0.9-0.6,2.6-0.6,3.5,0
					C1908.6,671.6,1908.6,672.5,1907.7,672.9z"/>
				<path class="st1" d="M1890.8,662.9c-0.9,0.6-2.6,0.6-3.5,0c-0.9-0.6-0.9-1.5,0-2c0.9-0.6,2.6-0.6,3.5,0
					S1891.7,662.5,1890.8,662.9z"/>
				<path class="st1" d="M1874.4,653.5c-0.9,0.6-2.6,0.6-3.5,0c-0.9-0.6-0.9-1.5,0-2c0.9-0.6,2.6-0.6,3.5,0
					C1875.5,652.1,1875.5,653,1874.4,653.5z"/>
				<path class="st1" d="M1858.2,644.2c-0.9,0.6-2.6,0.6-3.5,0s-0.9-1.5,0-2c0.9-0.6,2.6-0.6,3.5,0
					C1859.1,642.7,1859.1,643.6,1858.2,644.2z"/>
				
					<ellipse transform="matrix(5.409805e-03 -1 1 5.409805e-03 1196.3685 2469.9358)" class="st1" cx="1839.9" cy="633.5" rx="1.5" ry="2.4"/>
				<path class="st1" d="M1825.8,625.2c-0.9,0.6-2.6,0.6-3.5,0c-0.9-0.6-0.9-1.5,0-2c0.9-0.6,2.6-0.6,3.5,0
					C1826.7,623.7,1826.9,624.6,1825.8,625.2z"/>
				<path class="st1" d="M1809.1,615.8c-0.9,0.6-2.6,0.6-3.5,0c-0.9-0.6-0.9-1.5,0-2c0.9-0.6,2.6-0.6,3.5,0
					C1810.2,614.5,1810.2,615.4,1809.1,615.8z"/>
				<path class="st1" d="M1792.4,606.1c-0.9,0.6-2.6,0.6-3.5,0s-0.9-1.5,0-2c0.9-0.6,2.6-0.6,3.5,0
					C1793.3,604.6,1793.3,605.5,1792.4,606.1z"/>
				<path class="st1" d="M1775.7,596.8c-0.9,0.6-2.6,0.6-3.5,0c-0.9-0.6-0.9-1.5,0-2c0.9-0.6,2.6-0.6,3.5,0
					C1776.6,595.3,1776.8,596.2,1775.7,596.8z"/>
				<path class="st1" d="M1759.3,587.1c-0.9,0.6-2.6,0.6-3.5,0c-0.9-0.6-0.9-1.5,0-2c0.9-0.6,2.6-0.6,3.5,0
					C1760.2,585.7,1760.2,586.7,1759.3,587.1z"/>
				<path class="st1" d="M1742.9,577.7c-0.9,0.6-2.6,0.6-3.5,0c-0.9-0.6-0.9-1.5,0-2c0.9-0.6,2.6-0.6,3.5,0
					C1743.8,576.3,1743.9,577.2,1742.9,577.7z"/>
				<path class="st1" d="M1726.3,568.1c-0.9,0.6-2.6,0.6-3.5,0s-0.9-1.5,0-2c0.9-0.6,2.6-0.6,3.5,0
					C1727.2,566.8,1727.2,567.5,1726.3,568.1z"/>
				<path class="st1" d="M1709.5,558.7c-0.9,0.6-2.6,0.6-3.5,0s-0.9-1.5,0-2c0.9-0.6,2.6-0.6,3.5,0
					C1710.5,557.2,1710.5,558.1,1709.5,558.7z"/>
				<path class="st1" d="M1692.4,548.7c-0.9,0.6-2.6,0.6-3.5,0s-0.9-1.5,0-2c0.9-0.6,2.6-0.6,3.5,0
					C1693.4,547.2,1693.4,548.1,1692.4,548.7z"/>
				<path class="st1" d="M1676,539.1c-0.9,0.6-2.6,0.6-3.5,0c-0.9-0.6-0.9-1.5,0-2c0.9-0.6,2.6-0.6,3.5,0
					C1677,537.6,1677,538.5,1676,539.1z"/>
				<path class="st1" d="M1659.6,529.7c-0.9,0.6-2.6,0.6-3.5,0s-0.9-1.5,0-2c0.9-0.6,2.6-0.6,3.5,0
					C1660.5,528.3,1660.5,529.2,1659.6,529.7z"/>
				<path class="st1" d="M1643.2,520.3c-0.9,0.6-2.6,0.6-3.5,0c-0.9-0.6-0.9-1.5,0-2c0.9-0.6,2.6-0.6,3.5,0
					S1644.3,519.7,1643.2,520.3z"/>
				<path class="st1" d="M1627.1,510.7c-0.9,0.6-2.6,0.6-3.5,0s-0.9-1.5,0-2c0.9-0.6,2.6-0.6,3.5,0
					C1628,509.3,1628.2,510.3,1627.1,510.7z"/>
			</g>
		</g>
	</g>
	<g>
		
			<ellipse transform="matrix(0.9088 -0.4172 0.4172 0.9088 -63.996 789.472)" class="st3" cx="1774" cy="541.1" rx="73.1" ry="26.6"/>
		<path class="st4" d="M1755,533.6c0,0-1.7,5.6-2.1,7.6c-0.3,1.2,0.3,4.7,0.9,7.1c0.3,1.7,1.7,2.9,3.2,3.3c2.9,0.8,6.1,0.2,8.5-1.5
			l22.8-15.3c1.2-0.8,1.7-2.4,0.9-3.6l-0.6-1.2c-0.9-1.8-3-2.7-5-2.3c-5.2,1.4-14.7,3.5-18.2,2.6
			C1760.7,529.1,1755,533.6,1755,533.6z"/>
		<path class="st5" d="M1754.3,517.1c0,0,0,16.3,0.8,18.7c0.6,2.3,8.1,2.3,10-2.7c1.7-4.1,2.6-17.8,2.6-17.8L1754.3,517.1z"/>
		<path class="st4" d="M1742.9,356.4l10.2,59.1c1.2,6.7,0.6,13.5-1.8,19.9c-2.9,7.6-3,20.4-3.2,37.5c-0.3,29.5,4.3,44.4,4.3,44.4
			c5.8,3.6,11.7,3.5,16.4,0c0,0,7.4-106.9,20.8-129.7v-36l-17.8-19.3l-19.1-3.3C1747,331.3,1741.8,350,1742.9,356.4z"/>
		<path class="st4" d="M1814.4,340.3c0,0,15.6,66.2,8.7,91c-7,24.8-36,71.5-41.2,87.2c0,0-12.3,0.5-14.1-7.3c0,0,6.5-51.3,26.4-74.1
			c2.4-2.7,3.6-6.2,3-9.9c-1.5-10-5.3-30.2-13.5-39.8c-11.2-13.1-22.9-26.1-22.6-38.9C1761.4,335.9,1814.4,340.3,1814.4,340.3z"/>
		<path class="st5" d="M1779.8,519.5l-2.6,11.2l-9.1-5l2.3-11.4C1770.4,514.5,1778.3,512.8,1779.8,519.5z"/>
		<path class="st4" d="M1781.9,554.3c0,0,2.3,4.6-1.1,6.8c-3.3,2.3-10.2-2.3-13.7-5c-3.5-2.7-2.1-15.5-3.2-18.5
			c-1.1-3-3-13.8-0.8-15.5c2.3-1.5,7.9-2,10.8-1.8c2.9,0.2,4.3,5.5,4.3,5.5S1776.9,544.3,1781.9,554.3z"/>
		<path class="st1" d="M1759,220.6c0,0,33.9,5,41.5,16.1c6.4,9.3,7.6,25.4,8.1,31.1s13.4,56.8,16.3,71.7c3.9,20.1-36,37.5-63.8,29.8
			c-27.8-7.9-18.5-25.2-18.2-45.4c0.3-20.2,1.4-66.4-1.7-79.3C1737.3,229.1,1750.6,218.1,1759,220.6z"/>
		<path class="st5" d="M1772.2,194.6c0,0-8.7,18.2-13.2,26c-1.1,1.7-0.6,4.3,0.9,5.6c5.2,4.6,6.2,4.7,17.3,5.8
			c2.7,0.3,5.2-1.7,5.6-4.4l3.5-26L1772.2,194.6z"/>
		<path class="st5" d="M1810,178.9c0,0,0,15.8-1.2,20.5c-1.2,4.7-7.3,19.7-14.3,18.4c-7-1.2-20.4-11.7-21.3-23.4
			S1786.9,159.8,1810,178.9z"/>
		<path class="st4" d="M1756.9,166.6c3.5,1.2,7.3-0.6,8.2-4.1c1.7-7,8.2-10.3,19.9-10.6c20.1-0.5,29.8,12.3,31,19.4
			c1.1,7.1-5.9,11.2-5.9,11.2s-20.5-3.9-24,12.8c-2.9,13.7-9.6,29.5-24.5,15.3c-13.1-12.5-19-9.6-28.4-5.3
			c-9.4,4.3-29-13.4-18.2-32.5c6.7-11.7,16.7-5.8,23.4,0.6c2.9,2.7,7.9,2,9.4-1.7C1749.3,168.2,1752.1,165.1,1756.9,166.6z"/>
		<g>
			<path class="st6" d="M1830.5,248.5l20.1-22.3c0.6-0.6,1.5-0.8,2.3-0.5l14.7,6.8v2.7l-20.8,24.9c-0.6,0.8-1.7,0.9-2.4,0.5
				l-14.7-7.7v-2.3C1829.8,249.9,1830.1,249.1,1830.5,248.5z"/>
			<path class="st5" d="M1846.6,263.1l-1.4-3.2c0,0,1.4-3.6,1.4-7.9s2.1-5.5,5.2-9.3c3.2-3.8,4.4,0,1.5,3.3s3,2.6,4.1,1.5
				c0.9-1.1,7-8.4,7-8.4s1.4,6.8,0,11.4s-12.2,12.8-12.2,12.8h-5.6V263.1z"/>
		</g>
		<path class="st5" d="M1793.8,235c5,0.3,8.8,5,8.7,10c-0.3,9.6,0.2,27.5,7.7,33c10.6,7.4,35.1-18.1,35.1-18.1l7.1,3.2
			c0,0-20.1,45.7-45.1,36c-19.4-7.6-24.3-34-25.4-45.7c-0.5-3.8,0.2-7.7,2-11.2C1786.6,237.3,1789.8,234.8,1793.8,235z"/>
	</g>
	<g>
		<g>
			
				<linearGradient id="SVGID_1_" gradientUnits="userSpaceOnUse" x1="-1363.8893" y1="941.5596" x2="-1382.1447" y2="907.7335" gradientTransform="matrix(1 0 0 -1 2232.4082 1650)">
				<stop  offset="0" style="stop-color:#49DCCC"/>
				<stop  offset="0.9964" style="stop-color:#3CA3BA"/>
			</linearGradient>
			<path class="st7" d="M842.5,719.1c0,0-3,2.9-3.9,6.5c-1.1,3.6-2,7.3,2,8.2c3.9,0.8,7.7,4.3,10.2,7.9s8.4,4.9,14.7,5
				c5.2,0.2,5.2-3.6,4.7-5.5s-5.9-6.5-9.9-10c-3.9-3.3-9.3-12-9.3-12h-8.5V719.1z"/>
			
				<linearGradient id="SVGID_00000004528906862566156930000009640831474525821880_" gradientUnits="userSpaceOnUse" x1="-1407.1346" y1="911.0302" x2="-1429.1484" y2="867.5395" gradientTransform="matrix(1 0 0 -1 2232.4082 1650)">
				<stop  offset="0" style="stop-color:#49DCCC"/>
				<stop  offset="0.9964" style="stop-color:#3CA3BA"/>
			</linearGradient>
			<path style="fill:url(#SVGID_00000004528906862566156930000009640831474525821880_);" d="M806.1,748.6l-2.6,6.8
				c-0.9,2.3-1.1,4.7-0.6,7.1c0.8,3.9,2,9.7,3.3,12.3c2,3.9,9.9,4.7,12.9,3.3c3-1.2,1.7-9.1,0-17.3c-0.8-3.8-3.8-12.3-3.8-12.3
				L806.1,748.6L806.1,748.6z"/>
			
				<linearGradient id="SVGID_00000009592361450646202520000013978710933901444786_" gradientUnits="userSpaceOnUse" x1="-1494.5895" y1="994.8266" x2="-1372.5095" y2="949.3241" gradientTransform="matrix(1 0 0 -1 2232.4082 1650)">
				<stop  offset="0" style="stop-color:#FDEF67"/>
				<stop  offset="0.538" style="stop-color:#F8AE52"/>
				<stop  offset="1" style="stop-color:#F67554"/>
			</linearGradient>
			<path style="fill:url(#SVGID_00000009592361450646202520000013978710933901444786_);" d="M806.2,750.3
				c-6.1-26.9-3.5-76.3,0-127.3l26.7-2.9c-4.3,48.2-10,92.7-18.2,131.1C814.7,751.2,809.7,754.7,806.2,750.3z"/>
			
				<linearGradient id="SVGID_00000106121605873468664060000003146139634870551971_" gradientUnits="userSpaceOnUse" x1="-1318.9309" y1="1044.3074" x2="-1384.6879" y2="986.8742" gradientTransform="matrix(1 0 0 -1 2232.4082 1650)">
				<stop  offset="0" style="stop-color:#FDEF67"/>
				<stop  offset="0.538" style="stop-color:#F8AE52"/>
				<stop  offset="1" style="stop-color:#F67554"/>
			</linearGradient>
			<path style="fill:url(#SVGID_00000106121605873468664060000003146139634870551971_);" d="M842.2,720.3c0.3-53.8-3-72.8-4.7-109.5
				l26.6-4.9c3.3,32.5-3.9,74.4-12.8,114.2c-0.5,1.8-2,3-3.8,3c-0.9,0-2-0.2-3.3-0.5C843.1,722.3,842.2,721.4,842.2,720.3z"/>
			<path class="st4" d="M833.3,699.4c4.9,4.4,9.4,9,15,9c5,0,10-2.4,14.6-7c2.6-2.6,7.3-12.8,7.4-18.8c3-95.9,0.3-177.1,0.3-177.1
				l-42.4,25.1c0,0-1.4,77.8,1.7,103.8C830.8,642,832.1,667.5,833.3,699.4z"/>
			<path class="st4" d="M821,725.2c3.3-1.1,8.1-2.4,12-4.4c2.7-1.4,4.9-6.2,5.3-12.2c4.1-58.6,10.8-177.3,10.8-177.3l-53,12.8
				c0,0,3.9,86.6,2.9,161.8c-0.2,9.1,2.9,17,7.1,18.5C811.1,726.3,816,726.9,821,725.2z"/>
			<path class="st5" d="M850.6,450.2c5.2,4.3,31.7,22.8,33.4,23.5c8.2,3.5,34.8,14.3,42.8,11.8c9.6-2.7-4.3,17.5-4.3,19.1
				c0,1.4-28.7-7.1-41.8-10.9c-4.6-1.4-31.9-12.6-31.4-17.6C849.7,472.3,847.7,447.8,850.6,450.2z"/>
			<path class="st6" d="M876.4,473.2c-5.3-37.1-6.5-71.9-21.3-77.5c-5.5-2.1-45.7,14.3-46.9,15.3l-1.5,0.6
				c-16.4,6.8-15.6,34.3-14.3,50.4c-4.4,42.8-0.3,96.5,3.3,100.9c6.4,7.6-3.8-12.8,12.2-18.8c10.5-4.1,47.1,19.3,62,10.9
				C884.8,546.6,881.7,510.3,876.4,473.2z"/>
			<path class="st5" d="M827.5,382.8l-4.6,22.5l-4.4,1.7c-2,0.8-2.4,3.3-0.9,4.9c6.7,6.1,22.2,18.4,31.3,12
				c6.2-4.4,4.7-14.7-0.9-26.4l-8.2-1.8l0.5-12.8H827.5z"/>
			<g>
				<path class="st5" d="M863.5,364.1c0,0-0.2,16.1-1.4,23.7c-1.2,7.6-2.6,15-10.8,14.7c-8.2-0.2-16.3-5.5-22.2-18.5
					c-5.9-13.2-3.2-23.5,2.4-28.3C837.2,350.9,862,352.4,863.5,364.1z"/>
				<path class="st4" d="M829.3,381.3c0,0-1.5,2.1-2.4,3.3c-0.9,1.2-2.7-2.9-6.7-9.9c-4.1-7-5-19.4,1.1-22c6.1-2.7,4.9-3.8,8.1-7.6
					c3.2-3.8,6.7-4.4,17.6-2.6c10.9,1.8,15.2,4.3,12.9,6.7c-2.3,2.4,2.4,2.1,6.5,3.2c4.1,1.1,4.9,9,0.6,12.2
					c-4.3,3.2-18.8,3-25.1,1.1c-6.2-2-5.3,2.4-5.2,8.4s-1.2,14.4,4.7,18.5c5.8,4.3,20.2-0.8,20.2-0.8s2.4,8.8-6.2,11.7
					c-8.7,2.9-17.5-2.6-21.9-8.8C829.2,388.3,829.3,381.3,829.3,381.3z"/>
				<path class="st5" d="M833.9,381c0,0-0.3-6.5-4.6-6.5c-4.4,0-3,7.4,1.7,10.8C835.8,388.6,833.9,381,833.9,381z"/>
			</g>
			<path class="st5" d="M885.7,518.6c-2.9-2.1-15-7.3-20.5-8.8c-4.6-1.4-29.2-12.6-37.2-16.3c-0.8-0.3-1.5-0.5-2.3-0.6l-7.7-35.5
				c-1.1-4.6-6.1-7.1-10.3-5c-11.8,5.9-11.8,21.9-11.8,21.9s9.4,28.7,11.8,33c2.4,4.3,10.6,6.2,10.6,6.2l0,0
				c1.1,0.5,2.1,0.8,3.2,0.8c10,0,27.8,0.3,32.2,2.4c6.2,3,12.9,12.3,16.9,10.6c3.9-1.7,5.2-5,5.2-5s3.8-1.8,8.8,1.1
				C889.3,525.7,888.6,520.7,885.7,518.6z"/>
			<path class="st4" d="M915.1,517.4c0.8-0.6,1.4-1.2,1.7-2.1l28.9-56.8l-2.1-2.3l-49.2,38.1c-1.1,0.8-2,2-2.4,3.2L870.2,542
				c-0.8,1.7-0.6,3.5,0.3,5l1.1,1.5c1.1,0.6,2.1,0.5,3-0.3L915.1,517.4z"/>
			<path class="st5" d="M921.1,507.1c0,0,4.6-2.4,9.3-6.8c4.6-4.6,7.7-14.4,7-17.6c-0.8-3.3-8.1-9-9.3-1.4
				C926.7,488.7,925.2,498.9,921.1,507.1z"/>
		</g>
	</g>
	<g>
		
			<linearGradient id="SVGID_00000175319288446975120530000000136400777371158702_" gradientUnits="userSpaceOnUse" x1="677.8822" y1="749.732" x2="1817.3516" y2="749.732" gradientTransform="matrix(1 0 0 -1 0 1650)">
			<stop  offset="0.3442" style="stop-color:#2A1D88"/>
			<stop  offset="1" style="stop-color:#180D5B"/>
		</linearGradient>
		<path style="opacity:0.22;fill:url(#SVGID_00000175319288446975120530000000136400777371158702_);enable-background:new    ;" d="
			M698.4,1056.8l285.7,164.1c23.7,13.5,62.3,13.5,85.7,0l730.4-424c23.1-13.4,22.9-35.2-0.5-48.6l-292.6-168.2
			c-23.4-13.5-55.9-16.7-95.2,6.1L699,1000.1C669.8,1017,672.1,1041,698.4,1056.8z"/>
		<path class="st4" d="M983,1122.3L697.3,958.2l0,0c-14-8.4-21.6-19.1-21.6-30.2c0-7.7,3.9-19.3,22-29.9l713-413.9
			c44.4-25.7,77.3-17.5,97.2-6.1l292.6,168c12,6.8,18.5,16.1,18.5,26.1c0,9.9-6.4,19.1-18.2,26l-730.2,424c-12,7-28,10.5-43.9,10.5
			C1011,1132.8,995.2,1129.3,983,1122.3z M1412.9,487.6l-713,413.9c-13.1,7.6-20.1,16.7-20.1,26.4c0,9.7,6.8,19.1,19.4,26.7
			l285.6,164.1c23.2,13.4,60.8,13.2,83.7,0l730.4-424c10.5-6.1,16.3-14,16.1-22.5c0-8.5-5.9-16.6-16.6-22.6l-292.4-168.2
			c-9.7-5.6-22.6-10.3-38.7-10.3C1452,471.2,1433.8,475.6,1412.9,487.6z"/>
		<path class="st4" d="M983,1165.4l-285.7-164.1l0,0c-14-8.4-21.6-19.1-21.6-30.2c0-7.7,3.9-19.3,22-29.9l713-413.9
			c44.4-25.7,77.3-17.5,97.2-6.1l292.6,168c12,6.8,18.5,16.1,18.5,26.1c0,9.9-6.4,19.1-18.2,26l-730.2,424.1
			c-12,7-28,10.5-43.9,10.5C1011,1175.9,995.2,1172.4,983,1165.4z M1412.9,530.8l-713,413.9c-13.1,7.6-20.1,16.7-20.1,26.4
			s6.8,19.1,19.4,26.7L985,1161.9c23.2,13.4,60.8,13.2,83.7,0l730.4-424c10.5-6.1,16.3-14,16.1-22.5c0-8.5-5.9-16.6-16.6-22.6
			l-292.6-168.2c-9.7-5.6-22.6-10.3-38.7-10.3C1452,514.4,1433.8,518.8,1412.9,530.8z"/>
		<g>
			<path class="st4" d="M697.5,824.7c-40.3,23.4-33.7,73.8,2,94.2L974.4,1077c33.4,19.1,78.7,14.7,112.4-4.9l702.1-407.6
				c39.3-22.9,41.8-71.9,2.1-94.5L1514,411.2c-36.9-21-67.1-21.6-113.6,5.3L697.5,824.7z"/>
			<path class="st4" d="M670,874.1c0.6,8.1,3.2,15.8,7.3,23.1c5,8.7,12.5,16.3,22,21.7L974.4,1077c33.4,19.3,78.7,14.7,112.4-4.9
				l702.1-407.6c28.9-16.9,37.8-47.7,24.9-71.9c0,0,20.7,41.6-26.6,69l-702.1,407.6c-34.9,20.4-78.8,22.2-109.1,4.9L701,916
				c-8.7-5-16.7-11.8-22-20.1C674.4,889.1,670.6,878.5,670,874.1z"/>
		</g>
		<path class="st5" d="M1722.2,659c10.5,6.4,14.3,36,7,40.1l-13.1,7.6c7.3-4.3,5.5-34.9-5.2-41.3L1722.2,659z"/>
		<path class="st12" d="M1111.7,1013.4c10.5,6.4,14.3,36,7,40.1l-13.1,7.6c7.3-4.3,5.5-34.9-5.2-41.3L1111.7,1013.4z"/>
		<g>
			
				<linearGradient id="SVGID_00000054958810044211119500000002231468006495427490_" gradientUnits="userSpaceOnUse" x1="9109.1094" y1="-4092.8801" x2="9180.7148" y2="-6247.5703" gradientTransform="matrix(-0.5021 -0.8648 -0.8648 0.5021 1904.4291 10895.9785)">
				<stop  offset="0" style="stop-color:#F43BDE"/>
				<stop  offset="1" style="stop-color:#4615A5"/>
			</linearGradient>
			<path style="fill:url(#SVGID_00000054958810044211119500000002231468006495427490_);" d="M1427.1,405.6c-0.3,0.2-0.6,0.3-0.9,0.5
				c-6.1,2.4-12.3,5.5-18.8,9.3l-707,410.3l0,0l-0.5,0.3c-18.5,10.8-22.6,21.4-22.6,29.5c-0.2,11.5,7.7,22.6,22,31.1l283.3,162.7
				c24.5,14,64.1,14,88.3,0L1795,628.7c12-7,18.1-16.4,18.1-26.7c0-4.4-1.5-8.2-3.8-12.2c-3-5.3-8.2-10.2-15.2-14.1l-290.1-166.5
				c-6.8-3.9-15.2-7.4-25.1-9.4c-14-2.7-31-2.1-51,5.6C1427.5,405.4,1427.2,405.6,1427.1,405.6z M683.8,855.5
				c0-9.1,6.7-17.8,19.3-25.1l707-410.4c41.8-24.3,72.6-16.7,91.1-6.1l290.1,166.5c10.2,5.8,15.8,13.4,15.8,21.3
				s-5.5,15.3-15.3,21.1l-724.3,420.6c-22.5,13.1-59.1,13.1-81.7,0L702.5,880.9C690.5,873.6,683.8,864.6,683.8,855.5z"/>
			<path class="st14" d="M701,883.6l283.3,162.7c23.5,13.5,61.7,13.5,84.9,0l724.1-420.5c22.8-13.2,22.6-34.9-0.3-48.2l-290.1-166.5
				c-23.2-13.4-55.4-16.6-94.3,6.1L701.4,827.6C672.6,844.3,674.8,868.1,701,883.6z"/>
		</g>
		<g>
			<g>
				<path class="st4" d="M1178.4,996c-2.7,1.5-5,4.9-5.2,7.6c-0.2,2.9,0.8,3.6,1.7,4.1l3.3,1.7l21.9-14.4l1.7-7.3c0,0-2.3-0.9-3-1.4
					c-1.4-0.8-3.5,0.2-5.3,1.2L1178.4,996z"/>
				<path class="st5" d="M1203.2,990.1v1.5c0,2.7-2.3,6.2-5,7.9l-16.3,9.4c-2.7,1.5-5,0.6-5-2.1v-1.5c0-2.7,2.3-6.2,5-7.9l16.3-9.4
					C1200.9,986.5,1203.2,987.4,1203.2,990.1z"/>
			</g>
			<g>
				<path class="st4" d="M1228.1,967.2c-2.7,1.5-5,4.9-5,7.6c-0.2,2.9,0.8,3.6,1.7,4.1l3.3,1.7l45-28l1.7-6.8c0,0-2.3-1.5-3-2
					c-1.4-0.8-3.5,0.2-5.3,1.2L1228.1,967.2z"/>
				<path class="st5" d="M1275.6,948.3v0.8c0,2.9-2.4,6.7-5.3,8.4l-38.6,22.3c-2.9,1.7-5.3,0.8-5.3-2.3v-0.8c0-2.9,2.4-6.7,5.3-8.4
					l38.6-22.3C1273.2,944.4,1275.6,945.3,1275.6,948.3z"/>
			</g>
			<g>
				<path class="st4" d="M1294.3,928.8c-2.7,1.5-5,4.9-5,7.6c-0.2,2.9,0.8,3.6,1.7,4.1l3.3,1.7l45-28l1.2-6.5c0,0-1.8-1.8-2.7-2.1
					c-1.4-0.8-3.5,0.2-5.3,1.2L1294.3,928.8z"/>
				<path class="st5" d="M1341.4,910.1v0.8c0,2.9-2.4,6.7-5.3,8.4l-38.1,22.2c-2.9,1.7-5.3,0.8-5.3-2.3v-0.8c0-2.9,2.4-6.7,5.3-8.4
					l38.1-22.2C1339,906.3,1341.4,907.2,1341.4,910.1z"/>
			</g>
		</g>
		<path class="st15" d="M1553.6,462.9l101.6,58.3c1.4,0.8,1.2,2.1-0.3,3s-3.9,1.1-5.2,0.3l-101.6-58.3c-1.4-0.8-1.2-2.1,0.3-3
			C1550,462.2,1552.2,462.1,1553.6,462.9z"/>
		<g>
			<path class="st16" d="M1417.6,421.5c2-1.2,4.4-1.2,6.5,0l348.2,199.9c1.7,1.1,1.7,3.5,0,4.4l-694.8,403.3c-2,1.2-4.4,1.2-6.5,0
				L723,829.3c-1.7-1.1-1.7-3.5,0-4.4L1417.6,421.5z"/>
			
				<linearGradient id="SVGID_00000005956821328835227750000012857646716769231535_" gradientUnits="userSpaceOnUse" x1="9103.0303" y1="-3742.3413" x2="9135.9912" y2="-4913.4194" gradientTransform="matrix(-0.5021 -0.8648 -0.8648 0.5021 1904.4291 10895.9785)">
				<stop  offset="0" style="stop-color:#42B2F1"/>
				<stop  offset="1" style="stop-color:#2A54D3"/>
			</linearGradient>
			<path style="fill:url(#SVGID_00000005956821328835227750000012857646716769231535_);" d="M1773.9,622.1c0.3,0.5,0.5,1.1,0.5,1.7
				c0,1.2-0.6,2.3-1.7,2.7L1078,1029.8c-2.1,1.2-4.9,1.2-7.1,0L722.5,829.9c-1.1-0.6-1.7-1.7-1.7-2.7c0-1.2,0.6-2.3,1.7-2.7
				l694.7-403.3c2.1-1.2,4.9-1.2,7.1,0L1772.5,621C1773.1,621.1,1773.6,621.4,1773.9,622.1z M722.8,827.7c0.2,0.3,0.5,0.6,0.8,0.8
				l348.2,199.9c1.8,1.1,4.1,1.1,5.8,0l693.9-402.7c0.6-0.3,0.9-0.6,1.2-0.9c0.2-0.3,0.3-0.8,0.3-1.1c0-0.8-0.3-1.4-0.9-1.7
				L1423.7,422L723.4,825c-0.6,0.3-0.9,0.9-0.9,1.7C722.5,827.1,722.7,827.4,722.8,827.7z"/>
		</g>
	</g>
	<g>
		<path class="st18" d="M782.2,797.7L1099.7,981c7.3,4.3,18.2,4.7,24.6,1.1l572.8-330.5c6.2-3.6,5.5-10-1.8-14.1L1377.8,454
			c-7.3-4.3-18.2-4.7-24.6-1.1L780.4,783.4C774.2,787,774.9,793.4,782.2,797.7z"/>
		<path class="st1" d="M782.2,750.3l317.5,183.4c7.3,4.3,18.2,4.7,24.6,1.1l572.8-330.5c6.2-3.6,5.5-10-1.8-14.1l-317.5-183.4
			c-7.3-4.3-18.2-4.7-24.6-1.1L780.4,736C774.2,739.6,774.9,746,782.2,750.3z"/>
		<path class="st4" d="M1636.1,639.1l60.9-35.2c6.2-3.6,5.5-10-1.8-14.1l-317.5-183.4c-7.3-4.3-18.2-4.7-24.6-1.1l-60.8,35.2
			L1636.1,639.1z"/>
		<g>
			<path class="st19" d="M1613.3,568.3l37.8,22c0.9,0.6,2.3,0.6,3.2,0.2l1.1-0.6c0.8-0.5,0.8-1.2-0.2-1.8l-37.8-22
				c-0.9-0.6-2.3-0.6-3.2-0.2l-1.1,0.6C1612.2,566.9,1612.4,567.7,1613.3,568.3z"/>
			<path class="st19" d="M1600.8,575.4l37.8,22c0.9,0.6,2.3,0.6,3.2,0.2l1.1-0.6c0.8-0.5,0.8-1.2-0.2-1.8l-37.8-22
				c-0.9-0.6-2.3-0.6-3.2-0.2l-1.1,0.6C1599.8,574.2,1599.8,575,1600.8,575.4z"/>
			<path class="st19" d="M1588.1,582.9l37.8,22c0.9,0.6,2.3,0.6,3.2,0.2l1.1-0.6c0.8-0.5,0.8-1.2-0.2-1.8l-37.8-22
				c-0.9-0.6-2.3-0.6-3.2-0.2l-1.1,0.6C1587,581.5,1587,582.3,1588.1,582.9z"/>
		</g>
	</g>
	<g>
		
			<ellipse transform="matrix(0.4172 -0.9088 0.9088 0.4172 -138.6017 2431.687)" class="st20" cx="1826.7" cy="1323.9" rx="31.9" ry="88"/>
		<path class="st5" d="M1743.5,946.1c0,0-9,0.3-10.9,2.3s3.5,10.6,7.4,16.9s12.3,2.9,12.3,2.9s4.6,53.9,46.9,26.3l-6.5-21.7
			c0,0-16.9,21.6-34.5-8.7L1743.5,946.1z"/>
		<path class="st14" d="M1797,896.9c0,0,7.4,19-2.3,21.4c-9.7,2.4-11.7,16-5.5,22.8c6.2,6.7,0.5,9.7-4.7,11.2
			c-5.2,1.7-8.5,14,8.2,21.1c16.9,7.3,27.3-11.7,32.5-32.4C1830.5,920.4,1816.9,885,1797,896.9z"/>
		<path class="st4" d="M1817,1290.3c0,0,4.7,3.8,4.1,10.5c-0.5,6.7-27.5,17.6-39.2,19.4c-13.2,2.1-2.6-8.8,2-13.8
			C1788.5,1301.4,1809,1285.6,1817,1290.3z"/>
		<path class="st5" d="M1797.3,1251.1l2.1,31.7c0.5,6.1-0.3,9.1-3.2,14.4l-8.1,7.7c-1.2,1.2-1.5,3-0.6,4.6c0.9,1.5,2.7,2.1,4.3,1.5
			c1.4-0.5,3-1.4,5-2.6c6.8-4.4,23.2-13.5,18.5-18.4c0,0-4.1-1.2-4.1-11.1s3.2-30.8,3.2-30.8L1797.3,1251.1z"/>
		<path class="st4" d="M1843.9,1314.4c0,0-7.3,29.5-2.7,37.1c4.6,7.6,13.5-2,16.7-12.3c6.8-22.8,2.7-28.6-0.8-31.7
			C1853.6,1304.1,1846,1304.3,1843.9,1314.4z"/>
		<path class="st5" d="M1836.8,1274.5c0,0.8,7,28.4,8.1,37.2c1.1,8.8-4.6,22.9-1.7,27.2c2.9,4.1,8.8,0.9,10.9-6.5s5.2-20.8,4.1-24.6
			c0,0-5-11.5-4.6-15.6s-0.2-17.5-0.2-17.5h-16.7V1274.5z"/>
		<path class="st14" d="M1788.3,1036.3c0,0-15,200.8-11.1,231c0,0,22,24.8,48.5,4.1l0.9-228.8L1788.3,1036.3z"/>
		<path class="st14" d="M1788.3,1036.3l-2.4,33.3c0,0,18.8,21.4,19,26.3c1.1,39.5,3,89.3,6.2,114.4c1.5,11.8,8.5,66.4,11.2,82.5
			c0.5,2.7,2.4,5,5,5.6c7.3,2,22.6,4.9,37.8-1.2c7.3-2.9,10.9-11.1,8.5-18.4l-7.7-23.4c-10.2-30.7-19.1-81-13.4-112.7
			c1.8-10,3.6-20.2,5.5-29c4.1-20.5,1.5-41.9-7.4-60.9l-3.2-7L1788.3,1036.3z"/>
		<path class="st1" d="M1797.1,941.8c0,0,30.2-21.4,63.2,11.1c6.5,6.5,9.3,16,7.4,25.1c-3.3,16.1-8.1,44.1-6.2,63.3
			c0.5,5-3,9.6-8.1,10.2c-14.9,1.7-44.1,3.6-63.8-3.6c-4.4-1.7-7.6-5.6-8.1-10.3C1779.8,1018.8,1781.5,965.4,1797.1,941.8z"/>
		<path class="st5" d="M1801.7,939.8l-6.4,17.8c-1.4,3.6,0.8,7.7,4.6,8.8c6.4,1.7,16.1,3.9,26.3,4.4c6.2,0.3,12-3,15-8.5l9.4-17.5
			l-9.9-6.2c-2.7-1.7-4.3-4.7-3.9-7.9l2.3-30.4l-19,6.4l-4.3,24c0,2.4-1.5,4.6-3.8,5.5L1801.7,939.8z"/>
		<path class="st4" d="M1756.7,973.4c0.3,0.5,0.8,0.9,1.2,1.2l10.8,5.9c1.4,0.8,3,0.5,4.1-0.6c1.2-1.2,1.4-3,0.5-4.4l-24.5-38.9
			c-0.5-0.8-1.1-1.2-2-1.5l-12.6-3.5c-0.9-0.3-1.8,0.2-2.4,0.9l-0.5,0.9c-0.3,0.9-0.3,2,0.3,2.7L1756.7,973.4z"/>
		<path class="st5" d="M1771,971.7c0,0,2,2.7-3.3,3.9c-5.3,1.2-12.8-4.9-12.8-4.9s0.9,10.8,10.8,17.2c10,6.2,16.7,3.8,21.1,7.6
			c3.9,3.2,28.4,24,41.2,31.3c12.8,7.3,28,8.2,33.3-2.9c4.9-10.2,16.6-52.1,1.8-68.8c-1.7-1.8-4.7-0.9-5,1.7
			c-1.5,13.7-6.1,48.9-14.7,48.9c-21.4,0-55.4-21.6-55.4-21.6s-8.2-18.2-19.9-16.9L1771,971.7z"/>
		<path class="st5" d="M1798.3,879.8c0,0-4.1,10.3-0.2,20.7c3.9,10.3,7.1,22.2,13.5,22.3c6.4,0,19.6-5.6,24.8-13.2
			C1841.6,902,1822.8,853.9,1798.3,879.8z"/>
		<path class="st14" d="M1816.1,860.8c-5.5,2.1-14.9,2.9-19.3,11.7c-4.4,8.7-1.2,16.6-1.2,16.6s5.3,0,7.6-5c2.3-5,8.8-6.4,10.9-0.5
			c2.1,5.9,4.1,10.8,10.6,10.8c6.4,0,8.1,3.9,6.8,8.5c-1.2,4.7,2,16,4.4,21.1c2.4,5.2,0.3,3.6-2.7,7.3c-3,3.6,0.9,6.7-0.5,9.6
			c-1.4,3-11.1,12-0.6,21.3c10.5,9.3,24.9,0,26.7-12.2s0.3-14.3,6.2-17.5c5.9-3.2,4.9-15-3.5-20.7c-8.4-5.6-1.2-8.5-7.9-10.9
			c-6.7-2.4-4.6-2.7-4.6-10C1849.2,884.1,1846,849,1816.1,860.8z"/>
	</g>
	<g>
		<path class="st4" d="M1377.7,1115c0,0-14.6-1.2-16,5.8c-1.2,7,30.4,38.1,33.7,37.1C1398.8,1156.6,1393.6,1120.5,1377.7,1115z"/>
		<path class="st4" d="M1348.7,1050.6c0,0,83.5-39.8,101.5-32.1c43.3,18.5-46.9,51.5-49.5,52.9c-5.3,2.9-72.5,46.2-83.5,54.2
			c-9.6,6.8-43.1-29.6-18.5-57.6C1302.2,1063.8,1341.8,1055,1348.7,1050.6z"/>
		<path class="st4" d="M1414.8,1107.4c0,0,10.2-2.6,14.1-1.8c3.9,0.9,20.4,8.8,26,15c5.6,6.4,0.5,10-12.3,9.1
			c-12.8-0.9-26-3.6-30.8-5.8S1414.8,1107.4,1414.8,1107.4z"/>
		<path class="st5" d="M1376.3,1117.9c0,0,32.4-58.6,33.9-63c1.4-4.4,21.3-40,38.1-36c16.9,4.1,19.7,19.4,3,38.6
			c-16.7,19.1-67,66.7-67,66.7S1379.1,1122.4,1376.3,1117.9z"/>
		<path class="st5" d="M1419.8,1114.8c-0.3-2.7-2.4-5-5.2-5.5c-12.6-2.4-53.5-10.6-64.4-12.8c-52-10.3-51.6,2.9-52.9,13.5
			c-1.4,11.8,14.7,17.6,20.8,17.2c5.5-0.5,78.4-3.9,96.2-4.7c2.9-0.2,5.3-2.4,5.5-5.5C1419.9,1116.5,1419.8,1115.6,1419.8,1114.8z"
			/>
		
			<linearGradient id="SVGID_00000000210589410110257210000014696118036994702770_" gradientUnits="userSpaceOnUse" x1="7061.0249" y1="617.4266" x2="7131.8311" y2="636.9236" gradientTransform="matrix(1 0 0 -1 -5715.1196 1650)">
			<stop  offset="0.3134" style="stop-color:#E8874E"/>
			<stop  offset="1" style="stop-color:#B10043"/>
		</linearGradient>
		<path style="fill:url(#SVGID_00000000210589410110257210000014696118036994702770_);" d="M1372.7,979.6c3-0.5,5.8,2,5.8,5.2
			c0.2,12.2,4.1,40.9,35.7,46.2c0,0,12.2,2.3,16.1,12c4.1,9.7,2,14.4,0,11.1c-2-3.3-3.2-5.8-8.5-3.3c-5.3,2.4-19.3-4.1-20.1-10.5
			c-0.8-6.2-44.1-1.5-44.8-51.6c0-2.9,1.8-5.3,4.4-6.2C1364.5,981.2,1368.6,980.1,1372.7,979.6z"/>
		<path class="st4" d="M1405.2,1028.4c0,0,0.3,6.1-5.5,9.6c-0.9,0.6-23.8-8.1-23.8-8.1l5.5-28
			C1381.2,1002,1387.6,1022.2,1405.2,1028.4z"/>
		<path class="st4" d="M1384.4,1055c0,0-8.7-28.6,5.6-73.8c4.6-14.6,6.8-30.8-6.7-35.7c-13.5-5-45-3.2-53.8,6.2
			c-27.8,30.4-37.4,93.1-39.2,116.8c-1.7,23.8,8.8,12.3,8.8,12.3l3.9-16c0,0,5.6,19,15.5,22.3S1373,1051.6,1384.4,1055z"/>
		<g>
			<path id="_x3C_Path_x3E__4_" class="st1" d="M1478,1062.4l-84.3,48.6c-0.3,0.2-0.9,0.2-1.2,0l-53.2-30.7
				c-0.3-0.2-0.5-0.6-0.2-0.8l84.3-48.6c0.3-0.2,0.9-0.2,1.2,0l53.2,30.7C1478.3,1061.8,1478.3,1062.1,1478,1062.4z"/>
			<g>
				<path class="st5" d="M1458.4,1071.5c-0.2,0-0.2,0-0.3-0.2c0-0.2,0-0.3,0.2-0.3l4.9-2.9c0.2,0,0.3,0,0.3,0.2s0,0.3-0.2,0.3
					L1458.4,1071.5L1458.4,1071.5z"/>
				<path class="st5" d="M1464.4,1068c-0.2,0-0.2,0-0.3-0.2c0-0.2,0-0.3,0.2-0.3l5.3-3c0.2,0,0.3,0,0.3,0.2s0,0.3-0.2,0.3
					L1464.4,1068C1464.4,1067.9,1464.4,1068,1464.4,1068z"/>
				<path class="st5" d="M1471.6,1063.8c-0.2,0-0.2,0-0.3-0.2c0-0.2,0-0.3,0.2-0.3l2.4-1.4l0,0c0,0,0-0.2-0.2-0.2l-8.7-5
					c-0.2,0-0.2-0.3-0.2-0.3c0-0.2,0.3-0.2,0.3-0.2l8.7,5c0.3,0.2,0.5,0.5,0.5,0.6c0,0.2-0.2,0.5-0.3,0.5L1471.6,1063.8
					C1471.7,1063.8,1471.7,1063.8,1471.6,1063.8z"/>
			</g>
			<path class="st22" d="M1381.2,1106.2C1381.2,1106.3,1381.2,1106.3,1381.2,1106.2c-0.2,0.2-0.2,0.2-0.2,0.2l-3.2-1.8
				c-0.2,0-0.2-0.2-0.2-0.3v-0.8c0,0,0-0.2,0.2-0.2h0.2l3.2,1.8c0.2,0,0.2,0.2,0.2,0.3v0.8H1381.2z"/>
			<path class="st22" d="M1386.2,1109.1C1386.2,1109.1,1386.1,1109.1,1386.2,1109.1c-0.2,0.2-0.2,0.2-0.2,0.2l-3.2-1.8
				c-0.2,0-0.2-0.2-0.2-0.3v-0.8c0,0,0-0.2,0.2-0.2h0.2l3.2,1.8c0.2,0,0.2,0.2,0.2,0.3v0.8H1386.2z"/>
		</g>
		<path class="st5" d="M1407,1030.7c0.3-0.5,0.6-1.1,0.8-1.5c2,0.6,4.3,1.2,6.5,1.5c0,0,12.2,2.3,16.1,12c4.1,9.7,2,14.4,0,11.1
			c-2-3.3-3.2-5.8-8.5-3.3c-4.9,2.3-17-3-19.6-8.8C1402.8,1037.5,1404.6,1034,1407,1030.7z"/>
		<g>
			<g>
				<g>
					<path class="st14" d="M1403.4,1056.7c0-0.8,0.5-1.5,1.2-2l84.6-48.9c0.3-0.2,0.8-0.2,1.1,0s0.5,0.6,0.5,0.9l-12.2,55.3
						c0,1.7-0.9,3-2.3,3.9l-82.3,47.5c-0.6,0.3-1.2,0.3-1.8,0s-0.9-0.9-0.9-1.5L1403.4,1056.7z"/>
					<path class="st14" d="M1393,1113.8c0.3,0,0.6-0.2,0.9-0.3l82.5-47.5c1.4-0.8,2.3-2.3,2.3-3.9l12.2-55.3c0-0.3-0.2-0.8-0.5-0.9
						c-0.2-0.2-0.3-0.2-0.5-0.2s-0.3,0-0.5,0.2l-84.6,48.9c-0.8,0.5-1.2,1.2-1.2,2l-12.2,55.3c0,0.6,0.3,1.2,0.9,1.5
						C1392.4,1113.6,1392.7,1113.8,1393,1113.8z"/>
				</g>
			</g>
		</g>
		<path class="st5" d="M1328.5,1013.2c3-0.5,5.8,2,5.8,5.2c0.2,12.2,4.1,40.9,35.7,46.2c0,0,12.2,2.3,16.1,12c4.1,9.7,2,14.4,0,11.1
			s-3.2-5.8-8.5-3.3c-5.3,2.4-19.3-4.1-20.1-10.5c-0.8-6.2-44.1-1.5-44.8-51.6c0-2.9,1.8-5.3,4.4-6.2
			C1320.3,1014.7,1324.2,1013.7,1328.5,1013.2z"/>
		<path class="st4" d="M1376.3,943.8c0,0,3,9.3,0,14.6s-22,0.9-27-2.6c-2.4-1.7-5-3.9-7-5.9c-2.3-2.1-5.8-2.6-8.5-0.8
			c-3.6,2.4-8.8,6.7-12.8,13.8c0,0,0-26.9,36-25.1C1385,938.9,1376.3,943.8,1376.3,943.8z"/>
		<path class="st5" d="M1361.1,920.9l-10.3,20.7c-1.1,2-0.5,4.6,1.2,5.9c3.9,3.3,11.7,8.2,20.1,6.2c1.8-0.5,3.2-2.1,3.5-4.1
			l2.6-21.4L1361.1,920.9z"/>
		<path class="st5" d="M1400.3,914.6c0,0-7.6,23.1-16.1,30.5c-8.5,7.4-12.5,0-17.6-5.3s-7.7-26.7-7.7-26.7
			S1391.4,880.7,1400.3,914.6z"/>
		<path class="st4" d="M1406.9,905.7c-0.9,0.8-1.2,2.1-0.5,3.2l-0.2,1.1c-0.3,2.3-1.8,4.3-3.9,5.2l-1.7,0.6c0,0-9.1-4.9-14-2.3
			c-5,2.7-10.5,5.3-16.1,4.6c-4.1-0.5-6.8,3-8.7,8.8c-2,6.5-4.7,1.2-4.7-1.4c0-2.4-0.8-16.9-2-20.1c-0.6-1.4-2-2.4-3.3-3.3
			c-1.5-0.9-1.7-2.9-0.3-3.9l2.4-2.1l-3.9-5.3c-2.6-3.6,0.5-8.5,4.9-7.9l4.6,0.8c1.1,0.2,2.3-0.5,2.6-1.5l1.5-3.9
			c1.5-3.9,6.8-4.7,9.6-1.4l0.5,0.6c1.1,1.4,3.2,1.2,4.1-0.3c0.9-1.7,3.2-1.8,4.3-0.2l0.8,1.1c0.9,1.4,2.9,1.5,3.9,0.2l1.4-1.7
			c1.5-2,4.7-0.6,4.4,1.8l-0.2,0.9c-0.3,2,1.8,3.5,3.6,2.4l0.9-0.5c2.1-1.2,4.4,1.1,3.3,3.2l-0.2,0.5c-0.8,1.7,0.6,3.6,2.4,3.5
			l2.1-0.2c2.1-0.3,3.5,2.3,2.1,3.9l-0.6,0.6c-1.4,1.5-0.3,3.9,1.7,3.9l3.2,0.2c2.1,0.2,3,2.9,1.4,4.3L1406.9,905.7z"/>
		<path class="st4" d="M1339,990.7c0,0-16.7,51.6,18.2,68.5c0,0-8.1,5-7.7,12c0,0-41.9-7.1-40.6-56.2c1.1-39,10-48.9,10-48.9
			s4.1-11.8,16-8.8C1344.4,959.9,1344.6,975.2,1339,990.7z"/>
	</g>
	<g>
		<path class="st4" d="M772.7,1038.4c0,0,3.3,3.9,4.1,8.7c0.8,4.6,1.4,9.3-3.8,9.6s-10.5,3.8-14.3,7.9c-3.8,4.1-11.4,4.4-19.6,3.6
			c-6.5-0.6-6.1-5.3-5.2-7.4s8.7-7,14.3-10.5c5.6-3.5,13.7-13.1,13.7-13.1L772.7,1038.4z"/>
		<path class="st4" d="M800.6,1058.9c0,0,3.3,3.9,4.1,8.7c0.8,4.6,1.4,9.3-3.8,9.6s-10.5,3.8-14.3,7.9c-3.8,4.1-11.4,4.4-19.6,3.6
			c-6.5-0.6-6.1-5.3-5.2-7.4s8.7-7,14.3-10.5c5.6-3.5,13.7-13.1,13.7-13.1L800.6,1058.9z"/>
		<path class="st5" d="M849.8,889c0,0-65.2,24.6-78.2,40.9c-13.1,16.3-9.7,107.1-9.7,107.1s3,3.9,10.8,1.4c0,0,11.8-72.2,20.8-82.3
			c9-10.2,52.6-22.3,52.6-22.3s-36.5,18.5-39.2,40.3c-2.7,21.7-16.6,88.3-16.6,88.3s2.4,5,10.8,1.4c0,0,27.2-52.3,33.1-78.4
			c2.6-11.1,72-30.1,79-35.8c8.1-6.7,12.6-26.1,13.5-37.4C927.4,901,849.8,889,849.8,889z"/>
		<path class="st5" d="M846.9,824.1c-3-0.3-5.6,2-5.8,5c-0.2,12-4.1,40.6-35.5,45.9c0,0-12,2.3-16.1,11.8c-3.9,9.6-2,14.3,0,10.9
			c2-3.3,3.2-5.8,8.5-3.3c5.2,2.4,19.1-3.9,19.9-10.3c0.8-6.1,43.7-1.5,44.5-51.3c0-2.9-1.8-5.3-4.4-6.2
			C855.1,825.8,851.2,824.7,846.9,824.1z"/>
		<path class="st1" d="M846,933.8c0,0-41,13.2-50,23.4c-0.9,1.1-1.8,2.6-2.7,4.6c-0.5,0.9-1.4,1.7-2.4,1.7c-12,0-24.2-8.4-26.9-19.6
			c1.4-6.1,5.3-11.2,7.4-13.8c13.1-16.3,78.2-40.9,78.2-40.9s77.8,12,76.9,23.1c-0.9,11.2-5.5,30.7-13.5,37.4
			c-7,5.8-69.1,28.1-74.6,38.1c-0.3,0.6-0.8,1.4-1.2,2.1c-0.5,0.9-1.4,1.5-2.4,1.5c-10.8-0.3-27.2-6.7-28.4-15.5
			c0.2-0.6,0.2-1.1,0.2-1.7C809.6,952.1,846,933.8,846,933.8z"/>
		<path class="st6" d="M835.4,899.1c0,0,8.5-28.4-5.6-73.4c-4.6-14.6-6.7-30.5,6.7-35.5c13.4-5,44.8-3.2,53.5,6.2
			c27.6,30.2,37.2,92.5,38.9,116.1c1.7,23.7-8.7,12.2-8.7,12.2l-3.9-16c0,0-5.6,18.8-15.5,22.2C891,934.4,846.8,895.8,835.4,899.1z"
			/>
		<g>
			<path class="st5" d="M858.5,765.8l10.3,20.5c1.1,2,0.5,4.6-1.2,5.9c-3.9,3.3-11.7,8.2-19.9,6.2c-1.8-0.5-3.2-2.1-3.3-3.9
				l-2.6-21.4L858.5,765.8z"/>
			<g>
				<path class="st5" d="M819.1,759.5c0,0-1.4,9.9,3.8,18.8c5.2,9,11.5,24,16.7,22.2c5-1.8,18.7-10.2,21.7-15.6
					c3-5.3-2.6-19.9-3.9-27C855.9,750.6,829.8,734.5,819.1,759.5z"/>
				<path class="st4" d="M846,762c2.3-1.8,5.8-0.9,7,1.8l9.1,15.8l2,3.6c1.2-0.8,1.8-2.1,1.7-3.5c-0.9-5-2.7-16.6-0.9-21.6
					c2.4-6.5,2.6-34.5-13.1-25.4c0,0-13.7-4.7-25.7,4.6c-23.5,18.2-16.3,22.3-10,24.3c6.4,2.1,9.9-1.1,12.5,3.2
					C830.4,768.3,839.6,767,846,762z"/>
			</g>
		</g>
		<g>
			<path id="_x3C_Path_x3E__5_" class="st16" d="M742.4,906.4l83.9,48.3c0.3,0.2,0.9,0.2,1.2,0l52.7-30.5c0.3-0.2,0.5-0.6,0.2-0.8
				l-83.9-48.3c-0.3-0.2-0.9-0.2-1.2,0l-52.7,30.5C742.3,905.8,742.1,906.3,742.4,906.4z"/>
			<path class="st1" d="M742.6,905.7l52.7-30.5c0.2-0.2,0.5-0.2,0.8-0.2l0,0l-0.8,0.5l-52.6,30.4l83.9,48.5c0,0,0.2,0,0.3,0
				s0.3,0,0.5-0.2c0,0,40.6-23.4,52.6-30.4c0.5-0.3,0.3-0.5,0.3-0.5s0.3,0.2,0.3,0.3c0.2,0.2,0,0.5-0.3,0.6l-52.7,30.5
				c-0.2,0.2-0.5,0.2-0.8,0.2c-0.2,0-0.5,0-0.6-0.2l-83.9-48.3C742.1,906.3,742.3,905.8,742.6,905.7z"/>
			<g>
				<path class="st5" d="M762,915.4c0.2,0,0.2,0,0.3-0.2c0-0.2,0-0.3-0.2-0.3l-4.9-2.9c-0.2,0-0.3,0-0.3,0.2s0,0.3,0.2,0.3
					L762,915.4C761.9,915.4,761.9,915.4,762,915.4z"/>
				<path class="st5" d="M755.9,912c0.2,0,0.2,0,0.3-0.2c0-0.2,0-0.3-0.2-0.3l-5.3-3c-0.2,0-0.3,0-0.3,0.2c0,0.2,0,0.3,0.2,0.3
					L755.9,912C755.8,911.9,755.9,912,755.9,912z"/>
				<path class="st5" d="M748.8,907.8c0.2,0,0.2,0,0.3-0.2c0-0.2,0-0.3-0.2-0.3l-2.4-1.4l0,0c0,0,0-0.2,0.2-0.2l8.7-5
					c0.2,0,0.2-0.3,0.2-0.3c0-0.2-0.3-0.2-0.3-0.2l-8.7,5c-0.3,0.2-0.5,0.5-0.5,0.6c0,0.2,0.2,0.5,0.3,0.5L748.8,907.8
					C748.7,907.8,748.7,907.8,748.8,907.8z"/>
			</g>
		</g>
		<path class="st5" d="M789.7,886.8c3.9-9.6,16.1-11.8,16.1-11.8c7.3-1.2,13.1-3.6,17.8-7c2.4,3.6,4.9,7.3,7.4,10.8
			c-7,2.3-12.5,3.2-12.8,5.3c-0.8,6.4-14.7,12.8-19.9,10.3c-5.2-2.4-6.4,0-8.5,3.3C787.7,901.3,785.7,896.5,789.7,886.8z"/>
		<g>
			<g>
				<g>
					<path class="st4" d="M816.6,900.8c0-0.8-0.5-1.5-1.1-2l-84.2-48.6c-0.3-0.2-0.8-0.2-1.1,0c-0.3,0.2-0.5,0.5-0.5,0.9l12,55
						c0,1.7,0.9,3,2.3,3.9l81.9,47.2c0.6,0.3,1.2,0.3,1.8,0c0.6-0.3,0.9-0.9,0.9-1.5L816.6,900.8z"/>
					<path class="st4" d="M826.9,957.5c0.3,0,0.6-0.2,0.9-0.3c0.6-0.3,0.9-0.9,0.9-1.5l-12-54.8c0-0.8-0.5-1.5-1.1-2l-84.2-48.6
						c-0.2-0.2-0.3-0.2-0.5-0.2s-0.3,0-0.5,0.2c-0.3,0.2-0.5,0.5-0.5,0.9l12,55c0,1.7,0.9,3,2.3,3.9l81.9,47.2
						C826.3,957.3,826.6,957.5,826.9,957.5z"/>
				</g>
			</g>
		</g>
		<path class="st5" d="M891,857.5c-3-0.3-5.6,2-5.8,5c-0.2,12-4.1,40.6-35.5,45.9c0,0-12,2.3-16.1,11.8c-3.9,9.6-2,14.3,0,10.9
			c2-3.3,3.2-5.8,8.5-3.3c5.2,2.4,19.1-3.9,19.9-10.3c0.8-6.1,43.7-1.5,44.5-51.3c0-2.9-1.8-5.3-4.4-6.2
			C899.2,859,895.1,858,891,857.5z"/>
		<path class="st4" d="M906.3,821.5c0,0-5.6-13.5-18.2-26.7c0,0-41.2,17.3-60.3,3.6c0,0-2.9,2.7-1.5,15.3c1.4,12.5,3.5,12,3.5,12
			S848.9,834.7,906.3,821.5z"/>
	</g>
	<g>
		<path class="st23" d="M1501.5,646.4l-226.9,131.1c-0.6,0.3-1.4,0.3-2,0l-227.4-130.6c-1.4-0.8-1.4-2.7,0-3.5L1273,511.8
			c0.6-0.3,1.4-0.3,2,0l226.5,131.1C1502.7,643.8,1502.7,645.6,1501.5,646.4z"/>
		<path class="st23" d="M1213.5,783.1l-94.9,54.8c-0.3,0.2-0.6,0.2-0.8,0l-167.7-96.8c-0.6-0.3-0.6-1.1,0-1.4l95.2-55
			c0.3-0.2,0.6-0.2,0.8,0l167.2,96.9C1213.9,781.9,1213.9,782.8,1213.5,783.1z"/>
		<g>
			<g>
				<polygon class="st1" points="1273,770 1273,518.2 1054.7,392.1 1052.8,392.8 1052.8,642.1 1054.3,644.5 1271.5,770 				"/>
				
					<linearGradient id="SVGID_00000033338010120416312810000013355824066865259148_" gradientUnits="userSpaceOnUse" x1="1458.7292" y1="1138.9689" x2="1105.9911" y2="1366.3365" gradientTransform="matrix(1 0 0 -1 0 1650)">
					<stop  offset="3.623190e-03" style="stop-color:#48CAFF"/>
					<stop  offset="1" style="stop-color:#C3F3FF"/>
				</linearGradient>
				<polygon style="fill:url(#SVGID_00000033338010120416312810000013355824066865259148_);" points="1491.8,391.2 1492.1,391.6 
					1273.5,518.3 1054.4,392.7 1054.6,390.1 1272,264.6 1274.9,264.6 1491.8,390.1 				"/>
				<polygon class="st16" points="1273,518.2 1273,770 1274.7,770 1491.9,644.5 1493.3,642.1 1493.3,392.8 1492.5,391.9 
					1492.2,391.6 				"/>
			</g>
		</g>
		<g>
			<g>
				<polygon class="st4" points="1273.5,573 1273.5,518.6 1046.5,388 1044.6,387.2 1044.6,440.1 1046.1,442.8 1271.8,573 				"/>
				<polygon class="st1" points="1273.5,518.6 1273.5,573 1274.7,573.1 1500.4,443 1502,440.4 1502,386.8 				"/>
				<path class="st19" d="M1501,388.4l-226.5,130.8c-0.6,0.3-1.4,0.3-2,0l-226.9-130.5c-1.4-0.8-1.4-2.7,0-3.5L1273,254
					c0.6-0.3,1.4-0.3,2,0l226,130.9C1502.3,385.7,1502.3,387.7,1501,388.4z"/>
			</g>
		</g>
		<polygon class="st6" points="1356.3,724.4 1411,693.1 1411.9,439.9 1357.2,471.7 		"/>
		<polygon class="st6" points="1186,720.9 1131.6,689.2 1131.6,438.2 1186.1,470 		"/>
		<polygon class="st6" points="1126.7,337.7 1181.6,306.2 1411.9,439.9 1357.5,471.5 1127.5,338.1 1126.7,338.6 		"/>
		<polygon class="st6" points="1422.5,337.4 1367.8,305.5 1131.6,438.2 1186.1,470 1420.5,338.4 1422.5,339.5 		"/>
		<g>
			<path class="st14" d="M1274.6,395c0,0-50.3,60.3-72,78.8c-30.2,25.7-64.9,34.8-64.9,34.8c0.2-0.2-0.2-2.6,0-2.7
				c18.2-16.7,24-31.6,24-31.6s-13.2,3.8-38,2.3c0.2-0.2-0.2-2.6,0-2.7c0.9-0.5,3.8-0.3,4.7-0.8c41.6-23.1,80.5-67.7,104.5-93.3
				L1274.6,395z"/>
			<path class="st14" d="M1262.9,392.5c0,0,19.7,17.6,38,40.3c14.7,18.4,23.1,45.1,34.5,54.8c29.5,24.9,58.8,28.6,58.8,28.6
				c-0.2-0.2,0.2-2.6,0-2.7c-19-22-23.4-36.8-23.4-36.8s15.2,2.4,44.2,4.3c-0.2-0.2,0.2-2.6,0-2.7c-18.7-12.9-31.7-15.8-45.7-29.2
				c-10.3-9.9-22.5-35.7-31-45.6c-8.7-10.2-24.5-22.6-24.5-22.6L1262.9,392.5z"/>
			<path class="st14" d="M1148.3,321.3c1.1-6.2,15.8-15.2,31.3-13.8c15.3,1.4,23.1,6.8,39.8,17c31.3,19,40.7,25.8,40.7,25.8
				l-11.2,42.4l-102.8-17C1143.6,365.5,1148.3,321.3,1148.3,321.3z"/>
			<path class="st6" d="M1152.1,365.5c9.9-5.3,29.9-1.5,46.9,5.6c17,7.1,49.7,21.4,49.7,21.4s-70.6,5.9-86.7-1.1
				C1145.9,384.3,1140.3,371.9,1152.1,365.5z"/>
			<path class="st14" d="M1411.4,321.3c-3.6-10.8-20.7-18.2-41.9-13.4c-21.4,4.9-70.8,45-70.8,45l-2.6,41.3l105.7-2.9
				C1401.7,391.3,1415.2,332.2,1411.4,321.3z"/>
			<path class="st6" d="M1294.5,394.7c0,0,13.7-5.6,59.4-24.3c26.7-10.9,48.2,2,48.5,16.7c0.3,14.9-16.6,19.4-64.7,13.4
				C1289.3,394.2,1294.5,394.7,1294.5,394.7z"/>
			<path class="st6" d="M1244.2,386.9c-4.3-5.8,1.2-36,5.6-44.1c4.3-8.2,49.1-2.7,55.3,2.9c7.4,14-9.9,33.4-6.8,48.9
				c0,0-2.4,4.6-29.6,1.8C1246.9,394.2,1248.4,392.7,1244.2,386.9z"/>
		</g>
		<g>
			<polygon class="st14" points="1173.5,590.9 1017.5,500.5 1020.6,552.9 1140.1,610.8 1172.6,591.5 			"/>
			<g>
				<path class="st4" d="M1094.2,472.7c26.7,15.3,41.2,71.9,44.8,113.3c0.2,1.7-1.8,3.5-0.2,4.4l1.5,2.7c2.6,0,4.9-2.1,4.7-3.9
					c-1.2-38-15.5-103.8-47.4-122.1c-31.9-18.4-46.2,30.8-47.4,67.4c0,1.7,0.6,5.2,2.4,6.2l-1.1,1.4c1.7,0.9,4.7-2.1,4.9-3.6
					C1060.4,501.3,1067.5,457.4,1094.2,472.7z"/>
				<path class="st1" d="M1090.6,474.9c26.7,15.3,41.2,71.9,44.8,113.3c0.2,1.7,1.5,3.6,3,4.6c1.8,1.1,3.2,0.3,3-1.4
					c-1.2-38-15.5-103.8-47.4-122.1c-31.9-18.4-46.2,30.8-47.4,67.4c0,1.7,1.4,3.9,3,5c1.7,0.9,2.9,0.5,3-1.1
					C1056.7,503.4,1063.9,459.4,1090.6,474.9z"/>
			</g>
			<polygon class="st1" points="1017.5,500.5 1012.2,517.5 1012.4,545.8 1020.6,552.9 			"/>
			<polygon class="st4" points="1012.2,517.5 982.9,520.1 984.1,521.3 1012.4,545.8 			"/>
			<polygon class="st4" points="1139.8,610.8 1119.8,832.1 1121.1,831.2 1200.7,784.7 1201.9,782.8 1173.5,590.9 1143.3,594.3 			
				"/>
			<polygon class="st4" points="1201.9,783.4 1128.7,789.9 1119.8,832.1 			"/>
			<g>
				<path class="st4" d="M1057.8,493.7c26.7,15.3,41.2,71.9,44.8,113.3c0.2,1.7-1.8,3.5-0.2,4.4l1.5,2.7c2.6,0,4.9-2.1,4.7-3.9
					c-1.2-38-15.5-103.8-47.4-122.1c-31.9-18.4-46.2,30.8-47.4,67.4c0,1.7,0.6,5.2,2.4,6.2l-1.1,1.4c1.7,0.9,4.7-2.1,4.9-3.6
					C1023.9,522.3,1031.2,478.4,1057.8,493.7z"/>
				<path class="st1" d="M1054.1,495.8c26.7,15.3,41.2,71.9,44.8,113.3c0.2,1.7,1.5,3.6,3,4.6c1.8,1.1,3.2,0.3,3-1.4
					c-1.2-38-15.5-103.8-47.4-122.1c-31.9-18.4-46.2,30.8-47.4,67.4c0,1.7,1.4,3.9,3,5c1.7,0.9,2.9,0.5,3-1.1
					C1020.4,524.4,1027.6,480.5,1054.1,495.8z"/>
			</g>
			<polygon class="st6" points="1119.8,832.1 1139.8,610.8 982.9,520.1 962.8,739.8 964.1,741.9 1118.5,831.2 			"/>
			<g>
				<path class="st1" d="M1108.1,614.6c0-3-2.4-6.8-5.3-8.5c-3-1.7-5.3-0.8-5.3,2.3c0,3,2.4,6.8,5.3,8.5
					C1105.6,618.6,1108.1,617.5,1108.1,614.6z"/>
				<path class="st1" d="M1017.1,562.1c0-3-2.4-6.8-5.3-8.5c-3-1.7-5.3-0.8-5.3,2.3c0,3,2.4,6.8,5.3,8.5
					C1014.8,566.2,1017.1,565.1,1017.1,562.1z"/>
			</g>
		</g>
	</g>
	<g>
		<g class="st25">
			<g>
				<polygon class="st5" points="412.9,1857.2 1.5,1619.9 0.9,1621.1 410.1,1857.2 				"/>
				
					<rect x="96.4" y="1422.5" transform="matrix(0.4997 -0.8662 0.8662 0.4997 -1279.4972 851.1837)" class="st5" width="1.4" height="221.5"/>
				<polygon class="st5" points="660.2,1857.2 408.2,1711.9 407.4,1713.1 657.3,1857.2 				"/>
				
					<rect x="220.2" y="1208.2" transform="matrix(0.4997 -0.8662 0.8662 0.4997 -1155.7274 922.7106)" class="st5" width="1.4" height="507.4"/>
				<polygon class="st5" points="907.6,1857.2 888.6,1846.3 887.8,1847.5 904.7,1857.2 				"/>
				<polygon class="st5" points="1155,1857.2 268.7,1346.1 268,1347.4 1152.1,1857.2 				"/>
				
					<rect x="356.1" y="843.4" transform="matrix(0.4997 -0.8662 0.8662 0.4997 -908.5043 936.8714)" class="st5" width="1.4" height="822.9"/>
				<polygon class="st5" points="1402.2,1857.2 1085.6,1674.6 1084.8,1675.9 1399.3,1857.2 				"/>
				
					<rect x="299.7" y="733.4" transform="matrix(0.4997 -0.8662 0.8662 0.4997 -785.0282 800.4584)" class="st5" width="1.4" height="692.8"/>
				<polygon class="st5" points="1649.6,1857.2 913.5,1432.8 912.9,1434 1646.7,1857.2 				"/>
			</g>
			<g>
				
					<rect x="177" y="644.7" transform="matrix(0.4997 -0.8662 0.8662 0.4997 -646.1193 578.4894)" class="st5" width="1.4" height="407.8"/>
				
					<rect x="1194.6" y="1074.4" transform="matrix(0.4997 -0.8662 0.8662 0.4997 -645.3934 1753.563)" class="st5" width="1.4" height="722.3"/>
				<polygon class="st5" points="1927.7,1857.2 1769.2,1765.8 1768.6,1767 1924.8,1857.2 				"/>
				
					<rect x="393.7" y="587.6" transform="matrix(0.4997 -0.8662 0.8662 0.4997 -522.4016 757.3295)" class="st5" width="1.4" height="486.6"/>
				
					<rect x="1386.9" y="979" transform="matrix(0.4997 -0.8662 0.8662 0.4997 -521.7021 1904.2734)" class="st5" width="1.4" height="849.5"/>
				<polygon class="st5" points="2175.1,1857.2 2077.5,1801 2076.7,1802.2 2172.2,1857.2 				"/>
				
					<rect x="257.9" y="312.6" transform="matrix(0.4997 -0.8662 0.8662 0.4997 -398.8514 529.148)" class="st5" width="1.4" height="594.4"/>
				
					<rect x="1560.8" y="594.4" transform="matrix(0.4997 -0.8662 0.8662 0.4997 -398.0656 2033.7188)" class="st5" width="1.4" height="1534.1"/>
				
					<rect x="96.4" y="263.3" transform="matrix(0.4997 -0.8662 0.8662 0.4997 -275.3852 271.1989)" class="st5" width="1.4" height="221.5"/>
				
					<rect x="816" y="317.2" transform="matrix(0.4997 -0.8662 0.8662 0.4997 -274.9501 1102.2228)" class="st5" width="1.4" height="943.9"/>
				<polygon class="st5" points="2474.2,1744.4 1547.5,1209.9 1546.7,1211.1 2474.2,1746.1 				"/>
				
					<rect x="220.3" y="49" transform="matrix(0.4997 -0.8662 0.8662 0.4997 -151.6174 342.9309)" class="st5" width="1.4" height="507.4"/>
				
					<rect x="1482.5" y="344.1" transform="matrix(0.4997 -0.8662 0.8662 0.4997 -150.9661 1800.5469)" class="st5" width="1.4" height="1373.7"/>
				<polygon class="st5" points="2474.2,1601.8 2283.8,1492.1 2283.1,1493.3 2474.2,1603.4 				"/>
				
					<rect x="929.2" y="-194.7" transform="matrix(0.4997 -0.8662 0.8662 0.4997 -27.772 1090.2465)" class="st5" width="1.4" height="1527.7"/>
				<polygon class="st5" points="2474.2,1459.1 2355.6,1390.8 2354.8,1392 2474.2,1460.8 				"/>
				
					<rect x="356.2" y="-315.7" transform="matrix(0.4997 -0.8662 0.8662 0.4997 95.6057 357.0917)" class="st5" width="1.4" height="822.9"/>
				
					<rect x="1365.2" y="353.8" transform="matrix(0.4997 -0.8662 0.8662 0.4997 96.0746 1522.3757)" class="st5" width="1.4" height="648.4"/>
				<polygon class="st5" points="2474.2,1316.5 1855.6,959.6 1854.8,960.8 2474.2,1318.1 				"/>
				<polygon class="st5" points="80.9,-205.2 600.3,94.2 600.9,93 83.8,-205.2 				"/>
				
					<rect x="1438" y="-29.4" transform="matrix(0.4997 -0.8662 0.8662 0.4997 219.8868 1534.9257)" class="st5" width="1.4" height="1213"/>
				<polygon class="st5" points="2474.2,1173.8 2114.6,966.4 2113.9,967.6 2474.2,1175.5 				"/>
			</g>
			<g>
				
					<rect x="1194.7" y="-87.4" transform="matrix(0.4997 -0.8662 0.8662 0.4997 360.9584 1172.4042)" class="st5" width="1.4" height="722.3"/>
				
					<rect x="2072.9" y="428.5" transform="matrix(0.4997 -0.8662 0.8662 0.4997 361.4686 2186.542)" class="st5" width="1.4" height="703.7"/>
				
					<rect x="1386.8" y="-182.8" transform="matrix(0.4997 -0.8662 0.8662 0.4997 484.6504 1322.9088)" class="st5" width="1.4" height="849.5"/>
				<polygon class="st5" points="2474.2,868 2077.5,639.3 2076.7,640.5 2474.2,869.6 				"/>
				
					<rect x="1560.9" y="-567.3" transform="matrix(0.4997 -0.8662 0.8662 0.4997 608.2875 1452.5576)" class="st5" width="1.4" height="1534.1"/>
				<polygon class="st5" points="1105.6,-205.2 1225.2,-136.3 1226,-137.5 1108.5,-205.2 				"/>
				<polygon class="st5" points="2474.2,582.7 1547.5,47.9 1546.7,49.4 2474.2,584.3 				"/>
				<polygon class="st5" points="1353,-205.2 2077.7,213 2078.5,211.8 1355.9,-205.2 				"/>
				<polygon class="st5" points="2474.2,440 2283.8,330.1 2283.1,331.4 2474.2,441.7 				"/>
				<polygon class="st5" points="2474.2,297.4 2355.6,228.9 2354.8,230.1 2474.2,299.1 				"/>
				<polygon class="st5" points="2474.2,154.6 1855.6,-202.1 1854.8,-200.9 2474.2,156.2 				"/>
				<polygon class="st5" points="2474.2,11.9 2114.6,-195.6 2113.9,-194.3 2474.2,13.6 				"/>
			</g>
		</g>
	</g>
</g>
</svg>
