<?xml version="1.0" encoding="utf-8"?>
<!-- Generator: Adobe Illustrator 26.0.2, SVG Export Plug-In . SVG Version: 6.00 Build 0)  -->
<svg version="1.1" xmlns="http://www.w3.org/2000/svg" xmlns:xlink="http://www.w3.org/1999/xlink" x="0px" y="0px"
	 viewBox="0 0 2475 1650" style="enable-background:new 0 0 2475 1650;" xml:space="preserve">
<style type="text/css">
	.st0{opacity:0.2;fill:#D1AAD7;}
	.st1{fill:#D1AAD7;}
	.st2{fill:#FFFFFF;}
	.st3{fill:#7B8FDD;}
	.st4{opacity:0.24;}
	.st5{fill:#C88BC4;}
	.st6{fill:#86BFF2;}
	.st7{opacity:0.58;}
	.st8{fill:#BBDEF2;}
	.st9{opacity:0.7;fill:#FFFFFF;}
	.st10{fill:url(#SVGID_1_);}
	.st11{fill-rule:evenodd;clip-rule:evenodd;fill:#C88BC4;}
	.st12{fill-rule:evenodd;clip-rule:evenodd;fill:#FFFFFF;}
</style>
<g id="Background">
</g>
<g id="Illustration">
	<g>
		<path class="st0" d="M2275.3,867.9c-38.9-38.2-85-75.5-97-127.3c-20.8-89.8,68.1-166.3,97.1-254c20.1-60.6,9.7-129.6-27.4-182.5
			c-37.2-52.9-100.4-88.6-167.2-94.4c-114.9-10-227.4,63.4-340.6,42.1c-90.6-17-162.3-92.1-254.3-100.1
			c-108.3-9.5-198.1,75.2-301.5,107.1c-123.7,38.1-257.7-1.7-379.3-45.5c-121.6-43.7-249.5-92.5-377.7-71.6
			C285,165,165.4,282.8,146.3,418.8C127.4,553.5,286,661.7,151,823.5c-42.2,50.6-70.2,121-51.6,182.9
			c18.1,60.2,95.2,98.3,95.8,160.9c0.4,49.4-48.7,88.8-52.7,138.1c-3.4,42.3,28.7,81.4,68.2,101.5c39.5,20.1,85.3,25,129.8,29.5
			l-13.1,13.4c224.3,19.1,449.9,14.8,675.1,10.6c355-6.7,710.1-13.4,1065.1-20.2c36.5-0.7,73.9-1.5,107.9-14.1s64.5-39.5,69.7-73.7
			c8.8-58.3-55.5-108.8-49.5-167.4c7.6-74.8,118.8-103.7,139.9-176.1C2350.4,957.7,2314.3,906.1,2275.3,867.9z"/>
		<g>
			<g>
				<path class="st1" d="M2336.4,636.6c-5.2,50.7-47.2,344.4-329.8,354.4c0,0-46.1-209.5,323.8-358.8
					C2333.4,631,2336.7,633.3,2336.4,636.6z"/>
				<path class="st2" d="M2302.1,674.6c-8.9,15.1-18.3,29.9-28,44.5c-9.7,14.6-19.6,29-29.9,43.3c-10.2,14.2-20.8,28.2-31.6,42
					c-10.9,13.8-22,27.3-33.5,40.6c-2.8,3.3-5.8,6.6-8.7,9.9l-4.4,4.9c-1.5,1.6-3,3.2-4.4,4.8c-3,3.2-5.9,6.5-8.9,9.6l-9.1,9.5
					c-1.5,1.6-3.1,3.1-4.6,4.7l-4.7,4.6l-4.7,4.6c-1.6,1.5-3.2,3-4.8,4.5c-3.2,3-6.3,6.1-9.6,9.1l-9.8,8.8l-2.4,2.2l-2.5,2.1l-5,4.3
					l-5,4.3c-1.7,1.4-3.4,2.8-5.1,4.1c-3.4,2.7-6.8,5.6-10.3,8.2l-10.5,7.9c-14.2,10.3-29,20-44.4,28.6c-1.1,0.6-2.5,0.2-3.1-0.9
					c-0.6-1.1-0.2-2.5,0.9-3.1l0,0l0,0c15.2-8.4,29.9-17.8,44.1-28l10.5-7.8c3.5-2.6,6.8-5.4,10.3-8.1c1.7-1.4,3.4-2.7,5.1-4.1
					l5-4.2l5-4.2l2.5-2.1l2.4-2.2l9.8-8.7c3.2-2.9,6.4-6,9.6-8.9c1.6-1.5,3.2-3,4.8-4.5l4.7-4.6l4.7-4.6c1.6-1.5,3.1-3.1,4.6-4.6
					l9.1-9.4c3-3.2,6-6.4,9-9.6c1.5-1.6,3-3.2,4.5-4.8l4.4-4.9c2.9-3.3,5.9-6.5,8.7-9.8c11.6-13.1,22.7-26.6,33.6-40.2
					c10.9-13.7,21.5-27.6,31.8-41.7c10.3-14.1,20.4-28.5,30.1-43c9.7-14.5,19.2-29.2,28.2-44.3l0,0c0.3-0.5,0.9-0.6,1.3-0.3
					C2302.2,673.5,2302.3,674.1,2302.1,674.6z"/>
			</g>
			<g>
				<path class="st3" d="M2087,940.7c-0.2-5.7-8-10.3-17.7-10.3h-364c-9.8,0-19.3,4.9-19.3,10.7v513.4c0,2.8,2.7,5.4,6,7.4
					c3.3,2,8.2,3,12.9,3l266.6,2.4c4.7,0,9.4-1.1,12.7-3.1c3.3-2,5.2-4.7,5.1-7.5L2087,940.7z"/>
				<g class="st4">
					<g>
						<polygon class="st2" points="1818.9,990.8 1715.2,990.8 1714.4,959.5 1818.2,959.5 						"/>
						<polygon class="st2" points="1935.1,990.8 1831.5,990.8 1830.8,959.5 1934.5,959.5 						"/>
						<polygon class="st2" points="2051.2,990.8 1947.7,990.7 1947.1,959.5 2050.7,959.5 						"/>
					</g>
					<g>
						<polygon class="st2" points="1820.2,1047 1716.7,1047 1715.8,1016 1819.5,1015.9 						"/>
						<polygon class="st2" points="1936.2,1047 1832.8,1047 1832.1,1015.9 1935.6,1015.9 						"/>
						<polygon class="st2" points="2052.1,1046.9 1948.8,1047 1948.2,1015.9 2051.6,1015.9 						"/>
					</g>
					<g>
						<polygon class="st2" points="1821.5,1102.8 1718.1,1102.8 1717.3,1071.9 1820.8,1071.8 						"/>
						<polygon class="st2" points="1937.3,1102.7 1834.1,1102.8 1833.4,1071.8 1936.7,1071.8 						"/>
						<polygon class="st2" points="2053,1102.6 1949.9,1102.7 1949.3,1071.8 2052.5,1071.7 						"/>
					</g>
					<g>
						<polygon class="st2" points="1822.8,1158.4 1719.6,1158.4 1718.8,1127.6 1822,1127.5 						"/>
						<polygon class="st2" points="1938.4,1158.3 1835.3,1158.3 1834.6,1127.5 1937.8,1127.4 						"/>
						<polygon class="st2" points="2053.9,1158.2 1950.9,1158.2 1950.4,1127.4 2053.4,1127.3 						"/>
					</g>
					<g>
						<polygon class="st2" points="1824,1213.7 1721.1,1213.9 1720.2,1183.1 1823.3,1183 						"/>
						<polygon class="st2" points="1939.5,1213.6 1836.6,1213.7 1835.9,1183 1938.9,1182.9 						"/>
						<polygon class="st2" points="2054.8,1213.5 1952,1213.6 1951.4,1182.9 2054.3,1182.8 						"/>
					</g>
					<g>
						<polygon class="st2" points="1825.3,1268.9 1722.5,1269.1 1721.7,1238.4 1824.6,1238.3 						"/>
						<polygon class="st2" points="1940.5,1268.8 1837.8,1268.9 1837.2,1238.3 1939.9,1238.2 						"/>
						<polygon class="st2" points="2055.7,1268.6 1953.1,1268.8 1952.5,1238.1 2055.2,1238 						"/>
					</g>
					<g>
						<polygon class="st2" points="1826.6,1323.9 1724,1324.1 1723.2,1293.5 1825.9,1293.4 						"/>
						<polygon class="st2" points="1941.6,1323.8 1839.1,1323.9 1838.4,1293.4 1941,1293.2 						"/>
						<polygon class="st2" points="2056.5,1323.6 1954.1,1323.7 1953.5,1293.2 2056.1,1293.1 						"/>
					</g>
					<g>
						<polygon class="st2" points="1827.9,1378.8 1725.4,1378.9 1724.6,1348.5 1827.2,1348.3 						"/>
						<polygon class="st2" points="1942.7,1378.5 1840.3,1378.7 1839.7,1348.3 1942.1,1348.1 						"/>
						<polygon class="st2" points="2057.4,1378.3 1955.2,1378.5 1954.6,1348.1 2056.9,1347.9 						"/>
					</g>
					<g>
						<polygon class="st2" points="1829.1,1433.4 1726.9,1433.6 1726.1,1403.2 1828.4,1403.1 						"/>
						<polygon class="st2" points="1943.8,1433.1 1841.6,1433.4 1840.9,1403 1943.2,1402.8 						"/>
					</g>
				</g>
			</g>
			<g>
				<path class="st1" d="M675.5,1307.3c-2.2,8.3-14.1,8.2-16-0.2c-18.9-80.8-74.9-291.1-170.5-405.7
					C333.4,715,237.4,419.1,348.9,273.1C348.9,273.1,912.7,402.9,675.5,1307.3z"/>
				<path class="st2" d="M662.3,1192.6l0-0.7l-0.1-0.8l-0.2-1.7l-0.4-3.4l-0.9-6.8c-0.6-4.5-1.3-9.1-2-13.6
					c-1.4-9.1-2.8-18.1-4.2-27.1c-3-18.1-6.1-36.1-9.5-54.1c-6.7-36-14-71.9-22.1-107.6c-4-17.9-8.3-35.7-12.6-53.5
					c-4.3-17.8-8.9-35.5-13.6-53.2c-4.7-17.7-9.6-35.3-14.7-52.9c-5.1-17.6-10.4-35.1-15.9-52.6c-11.1-34.9-22.8-69.6-35.6-103.9
					c-12.8-34.3-26.6-68.2-41.6-101.6c-7.5-16.7-15.2-33.3-23.4-49.6c-8.2-16.4-16.6-32.6-25.5-48.6c-8.9-16-18.1-31.8-27.8-47.3
					c-2.4-3.9-4.9-7.7-7.4-11.6l-3.7-5.8l-3.8-5.7l-3.8-5.7l-1.9-2.9l-2-2.8l-7.9-11.3l0,0c-0.3-0.4-0.2-1,0.2-1.3
					c0.4-0.3,1-0.2,1.3,0.2c22,29.4,41.9,60.3,60.2,92.2c9.2,15.9,17.8,32.1,26.1,48.5c8.4,16.3,16.3,32.9,24,49.6
					c7.7,16.7,14.9,33.6,22,50.5c7.1,17,13.7,34.1,20.2,51.2c6.5,17.2,12.7,34.5,18.7,51.8c6,17.3,11.7,34.8,17.2,52.3
					c5.5,17.5,10.7,35.1,15.8,52.7c5,17.6,9.9,35.3,14.6,53.1c4.7,17.7,9.1,35.5,13.4,53.4c4.3,17.8,8.3,35.7,12.2,53.7
					c7.7,35.9,14.9,71.9,21.1,108c3.1,18.1,6,36.2,8.7,54.3c1.3,9.1,2.6,18.2,3.8,27.2c0.6,4.5,1.2,9.1,1.7,13.7l0.8,6.8l0.3,3.4
					l0.2,1.7l0.1,0.9c0,0.3,0,0.7,0,1c0,0.5-0.4,1-0.9,1c-0.5,0-0.9-0.4-1-0.9L662.3,1192.6z"/>
			</g>
			<g>
				<path class="st1" d="M2371.2,849.8c-315.9-16.9-578.4,314.1-684.8,577.8h334.6C2200.8,1299.4,2433.3,1058.3,2371.2,849.8z"/>
				<path class="st2" d="M1857.1,1392.2c16.3-21.1,32.9-41.9,49.5-62.7c16.7-20.8,33.6-41.3,50.8-61.7c8.6-10.2,17.2-20.4,25.9-30.4
					c8.7-10.1,17.5-20.1,26.4-30c17.7-19.9,35.6-39.6,53.9-59.1c18.2-19.5,36.9-38.5,55.8-57.3c9.5-9.4,19.1-18.6,28.8-27.8
					c9.7-9.1,19.4-18.2,29.3-27.2c19.8-17.9,39.9-35.4,60.5-52.4c10.3-8.5,20.7-16.8,31.3-24.9c5.3-4.1,10.6-8.1,15.9-12.1
					c5.3-4,10.7-7.9,16.1-11.8c0.4-0.3,1.1-0.2,1.4,0.2c0.3,0.4,0.2,1.1-0.2,1.4l0,0c-10.5,8.2-20.9,16.4-31.2,24.8
					c-10.3,8.4-20.5,17-30.6,25.6c-20.2,17.3-40,35-59.5,53.1c-39,36.2-76.7,73.7-113.1,112.4c-18.2,19.4-36.1,39.1-54,58.8
					c-8.9,9.9-17.8,19.8-26.6,29.8c-8.8,10-17.6,20-26.3,30.1c-17.4,20.1-34.5,40.5-51.6,60.9c-17.1,20.4-34,41-51,61.5
					c-0.4,0.4-1,0.5-1.4,0.1C1856.8,1393.2,1856.8,1392.6,1857.1,1392.2z"/>
			</g>
			<g>
				<path class="st5" d="M1817.7,463.8c-0.1-6.9-6.4-12.5-14-12.5h-462.3c-7.7,0-15.9,5.7-15.9,12.8v981c0,5.2,3.3,10.3,7.3,14
					c4.1,3.7,10.1,5.8,15.9,5.8l467.3-1.2c5.8,0,11.5-2.2,15.6-5.9c4.1-3.8,6.4-8.9,6.2-14.2L1817.7,463.8z"/>
				<g>
					<polygon class="st2" points="1552.2,520.8 1401,520.3 1401.1,503.1 1552.1,503.6 					"/>
					<polygon class="st2" points="1552.7,584.2 1400.8,583.6 1400.9,566.2 1552.5,566.8 					"/>
					<polygon class="st2" points="1553.1,648.1 1400.6,647.3 1400.7,629.8 1553,630.6 					"/>
					<polygon class="st2" points="1553.5,712.5 1400.4,711.6 1400.5,693.9 1553.4,694.8 					"/>
					<polygon class="st2" points="1553.9,777.5 1400.2,776.4 1400.2,758.6 1553.8,759.7 					"/>
					<polygon class="st2" points="1554.8,909 1399.8,907.6 1399.8,889.5 1554.7,890.9 					"/>
					<polygon class="st2" points="1556.1,1110.6 1399.1,1108.6 1399.2,1090.1 1556,1092 					"/>
					<polygon class="st2" points="1554.4,843 1400,841.7 1400,823.8 1554.2,825 					"/>
					<polygon class="st2" points="1555.2,975.7 1399.5,974 1399.6,955.8 1555.1,957.4 					"/>
					<polygon class="st2" points="1555.7,1042.8 1399.3,1041.1 1399.4,1022.7 1555.5,1024.4 					"/>
					<polygon class="st2" points="1556.5,1178.9 1398.9,1176.8 1398.9,1158.1 1556.4,1160.2 					"/>
					<polygon class="st2" points="1557,1247.8 1398.7,1245.5 1398.7,1226.7 1556.9,1228.9 					"/>
					<polygon class="st2" points="1557.5,1317.3 1398.4,1314.8 1398.5,1295.8 1557.3,1298.3 					"/>
					<polygon class="st2" points="1557.9,1387.5 1398.2,1384.8 1398.3,1365.6 1557.8,1368.2 					"/>
					<polygon class="st2" points="1750.5,521.4 1598.3,521 1598.2,503.7 1750.2,504.1 					"/>
					<polygon class="st2" points="1751.7,585 1598.9,584.4 1598.8,567 1751.4,567.6 					"/>
					<polygon class="st2" points="1753,649.1 1599.5,648.3 1599.4,630.8 1752.6,631.5 					"/>
					<polygon class="st2" points="1754.2,713.8 1600.2,712.8 1600,695.1 1753.9,696 					"/>
					<polygon class="st2" points="1755.5,778.9 1600.8,777.8 1600.6,760 1755.1,761 					"/>
					<polygon class="st2" points="1758.1,910.9 1602,909.5 1601.9,891.3 1757.7,892.7 					"/>
					<polygon class="st2" points="1762,1113.2 1604,1111.2 1603.8,1092.6 1761.6,1094.5 					"/>
					<polygon class="st2" points="1756.8,844.7 1601.4,843.4 1601.2,825.4 1756.4,826.6 					"/>
					<polygon class="st2" points="1759.4,977.8 1602.7,976.1 1602.5,957.9 1759,959.4 					"/>
					<polygon class="st2" points="1760.7,1045.2 1603.3,1043.4 1603.1,1024.9 1760.3,1026.7 					"/>
					<polygon class="st2" points="1763.3,1181.7 1604.6,1179.6 1604.4,1160.8 1762.9,1162.9 					"/>
					<polygon class="st2" points="1764.7,1250.9 1605.3,1248.5 1605.1,1229.6 1764.3,1231.9 					"/>
					<polygon class="st2" points="1766,1320.6 1605.9,1318.1 1605.8,1299 1765.6,1301.5 					"/>
					<polygon class="st2" points="1767.4,1391 1606.6,1388.3 1606.4,1369 1767,1371.7 					"/>
				</g>
			</g>
			<g>
				<path class="st6" d="M698.1,740.4c-0.1-5.2-2.2-10.1-5.8-13.6c-3.6-3.6-8.5-5.5-13.6-5.3l-407.1,13.3
					c-10.4,0.3-18.5,9.2-18.2,19.8l20.1,691.4c0.3,10.5,8.7,18.8,19,18.7l401.6-1.3c5-0.1,7.1-4.8,10.6-8.5
					c3.5-3.7,5.4-8.6,5.3-13.8L698.1,740.4z"/>
				<g>
					<g>
						<g>
							<polygon class="st2" points="323.2,801.3 322.5,784.1 454.9,778 455.5,795.3 							"/>
						</g>
						<g>
							<polygon class="st2" points="325,849.8 324.3,832.5 456.6,826.6 457.2,843.9 							"/>
						</g>
						<g>
							<polygon class="st2" points="326.7,898.2 326.1,880.9 458.3,875.1 458.9,892.4 							"/>
						</g>
						<g>
							<polygon class="st2" points="328.5,946.5 327.9,929.3 459.9,923.5 460.5,940.8 							"/>
						</g>
						<g>
							<polygon class="st2" points="330.3,994.7 329.6,977.5 461.6,971.9 462.2,989.1 							"/>
						</g>
						<g>
							<polygon class="st2" points="333.8,1090.8 333.2,1073.7 464.9,1068.3 465.5,1085.4 							"/>
						</g>
						<g>
							<polygon class="st2" points="339.1,1234.3 338.5,1217.3 469.8,1212.2 470.4,1229.2 							"/>
						</g>
						<g>
							<polygon class="st2" points="332,1042.8 331.4,1025.6 463.2,1020.1 463.8,1037.3 							"/>
						</g>
						<g>
							<polygon class="st2" points="335.6,1138.7 334.9,1121.6 466.5,1116.3 467.1,1133.4 							"/>
						</g>
						<g>
							<polygon class="st2" points="337.3,1186.5 336.7,1169.5 468.2,1164.3 468.7,1181.4 							"/>
						</g>
						<g>
							<polygon class="st2" points="340.8,1281.9 340.2,1264.9 471.4,1260 472,1277 							"/>
						</g>
						<g>
							<polygon class="st2" points="342.6,1329.5 342,1312.6 473.1,1307.7 473.6,1324.7 							"/>
						</g>
						<g>
							<polygon class="st2" points="344.3,1377 343.7,1360.1 474.7,1355.3 475.3,1372.3 							"/>
						</g>
						<g>
							<polygon class="st2" points="346.1,1424.4 345.4,1407.5 476.3,1402.8 476.9,1419.8 							"/>
						</g>
						<g>
							<polygon class="st2" points="495.9,793.5 495.3,776.1 628.5,770 629,787.4 							"/>
						</g>
						<g>
							<polygon class="st2" points="497.5,842.1 496.9,824.8 630,818.8 630.5,836.1 							"/>
						</g>
						<g>
							<polygon class="st2" points="499.1,890.6 498.5,873.3 631.5,867.4 632,884.8 							"/>
						</g>
						<g>
							<polygon class="st2" points="500.7,939 500.2,921.8 633,916 633.5,933.3 							"/>
						</g>
						<g>
							<polygon class="st2" points="502.3,987.4 501.8,970.1 634.5,964.5 635,981.7 							"/>
						</g>
						<g>
							<polygon class="st2" points="505.6,1083.8 505,1066.6 637.4,1061.2 638,1078.4 							"/>
						</g>
						<g>
							<polygon class="st2" points="510.4,1227.7 509.8,1210.6 641.9,1205.5 642.4,1222.6 							"/>
						</g>
						<g>
							<polygon class="st2" points="504,1035.6 503.4,1018.4 635.9,1012.9 636.5,1030.1 							"/>
						</g>
						<g>
							<polygon class="st2" points="507.2,1131.8 506.6,1114.7 638.9,1109.4 639.5,1126.5 							"/>
						</g>
						<g>
							<polygon class="st2" points="508.8,1179.8 508.2,1162.7 640.4,1157.5 640.9,1174.6 							"/>
						</g>
						<g>
							<polygon class="st2" points="512,1275.5 511.4,1258.5 643.4,1253.5 643.9,1270.5 							"/>
						</g>
						<g>
							<polygon class="st2" points="513.6,1323.2 513,1306.2 644.8,1301.3 645.4,1318.3 							"/>
						</g>
						<g>
							<polygon class="st2" points="515.2,1370.8 514.6,1353.9 646.3,1349.1 646.8,1366.1 							"/>
						</g>
						<g>
							<polygon class="st2" points="516.8,1418.4 516.2,1401.4 647.8,1396.7 648.3,1413.7 							"/>
						</g>
					</g>
				</g>
			</g>
			<g>
				<path class="st1" d="M189.7,872c8.7,85.7,79.8,582.5,557.9,599.5c0,0,37.4-339.1-547.7-606.9C194.8,862.2,189.1,866.4,189.7,872
					z"/>
				<path class="st2" d="M250.5,934.5c15.1,25.4,31.2,50.3,47.6,74.9c16.5,24.6,33.5,48.8,50.9,72.7c17.4,23.9,35.4,47.4,53.8,70.5
					l6.9,8.7l7,8.6c4.7,5.7,9.3,11.5,14.1,17.1l14.3,17l14.6,16.7l3.6,4.2l3.7,4.1l7.4,8.2l7.4,8.2c2.5,2.7,5,5.4,7.6,8.1
					c5.1,5.4,10.1,10.8,15.2,16.2l15.5,15.9c1.3,1.3,2.6,2.7,3.9,4l3.9,3.9l7.9,7.8l7.9,7.8c2.7,2.6,5.4,5.1,8.1,7.6l8.1,7.6l4,3.8
					c1.3,1.3,2.7,2.5,4.1,3.7l16.5,14.8c1.4,1.2,2.7,2.5,4.1,3.7l4.2,3.6l8.5,7.1l8.5,7.1c2.8,2.3,5.8,4.6,8.6,6.9l8.7,6.9l4.3,3.4
					l2.2,1.7l2.2,1.6l17.8,13.2c24,17.2,48.8,33.1,74.6,47.3l0,0c1.9,1,2.5,3.4,1.5,5.2c-1,1.9-3.4,2.5-5.2,1.5l0,0
					c-26-14.5-51-30.8-75.1-48.3l-17.8-13.4l-2.2-1.7l-2.2-1.7l-4.3-3.5l-8.7-7c-2.9-2.3-5.8-4.6-8.7-7l-8.5-7.2l-8.5-7.2l-4.2-3.6
					c-1.4-1.2-2.8-2.5-4.1-3.7l-16.5-14.9c-1.4-1.2-2.7-2.5-4.1-3.8l-4-3.8l-8.1-7.7c-2.7-2.6-5.4-5.1-8-7.7l-7.9-7.9l-7.9-7.9
					l-3.9-3.9c-1.3-1.3-2.6-2.7-3.9-4l-15.4-16.1c-5.1-5.4-10.1-10.9-15.1-16.3c-2.5-2.7-5.1-5.4-7.5-8.2l-7.4-8.3l-7.4-8.3
					l-3.7-4.2l-3.6-4.2l-14.5-16.9l-14.2-17.1c-4.8-5.7-9.4-11.5-14-17.2l-7-8.7l-6.9-8.7c-18.4-23.3-36.2-47-53.5-71
					c-17.3-24.1-34.2-48.4-50.5-73.2c-16.3-24.8-32.3-49.7-47.3-75.3c-0.5-0.8-0.2-1.8,0.6-2.2C249.1,933.4,250,933.7,250.5,934.5
					L250.5,934.5z"/>
			</g>
			<g>
				<path class="st3" d="M1379.1,571c-0.1-5.5-3.9-10.7-10.6-14.5c-6.6-3.8-15.5-5.8-24.6-5.6l-692.6,16.7
					c-11.9,0.3-21.2,6.2-20.9,13.4l35.2,889.9l700.3-5.1c9-0.1,17.5-2.3,23.8-6.1c6.3-3.9,9.7-9.1,9.6-14.5L1379.1,571z"/>
				<g class="st7">
					<g>
						<g>
							<polygon class="st6" points="819.4,709.7 717.1,709.6 712,620.7 815,620.7 							"/>
							<polygon class="st6" points="978.9,709.4 881.5,709.4 877.5,620.7 975.5,620.7 							"/>
							<polygon class="st6" points="1141.9,709.2 1040.7,709.2 1037.6,620.7 1139.5,620.7 							"/>
							<polygon class="st6" points="1304,708.9 1203.3,708.9 1201.3,620.7 1302.7,620.7 							"/>
						</g>
						<g>
							<polygon class="st6" points="826.6,854.3 725.4,854.7 720.4,767.8 822.3,767.5 							"/>
							<polygon class="st6" points="984.4,853.7 888.1,854.1 884.2,767.4 981.1,767.1 							"/>
							<polygon class="st6" points="1145.8,853 1045.6,853.4 1042.6,767 1143.4,766.7 							"/>
							<polygon class="st6" points="1306.2,852.4 1206.6,852.8 1204.6,766.6 1304.9,766.3 							"/>
						</g>
						<g>
							<polygon class="st6" points="833.7,995.6 733.5,996.3 728.6,911.1 829.5,910.6 							"/>
							<polygon class="st6" points="989.9,994.7 894.6,995.3 890.7,910.3 986.6,909.9 							"/>
							<polygon class="st6" points="1149.6,993.7 1050.4,994.3 1047.5,909.6 1147.3,909.1 							"/>
							<polygon class="st6" points="1308.4,992.7 1209.8,993.3 1207.9,908.8 1307.1,908.3 							"/>
						</g>
						<g>
							<polygon class="st6" points="840.7,1134.1 741.5,1135 736.7,1051.6 836.5,1050.8 							"/>
							<polygon class="st6" points="995.2,1132.8 900.9,1133.6 897.1,1050.4 992,1049.7 							"/>
							<polygon class="st6" points="1153.3,1131.4 1055.1,1132.3 1052.3,1049.3 1151.1,1048.6 							"/>
							<polygon class="st6" points="1310.5,1130.1 1212.9,1130.9 1211,1048.1 1309.2,1047.4 							"/>
						</g>
						<g>
							<polygon class="st6" points="847.4,1269.8 749.3,1270.9 744.6,1189.2 843.4,1188.2 							"/>
							<polygon class="st6" points="1000.5,1268.2 907.1,1269.2 903.3,1187.7 997.3,1186.8 							"/>
							<polygon class="st6" points="1156.9,1266.5 1059.8,1267.5 1057,1186.2 1154.7,1185.3 							"/>
							<polygon class="st6" points="1312.6,1264.8 1215.9,1265.8 1214.1,1184.7 1311.3,1183.8 							"/>
						</g>
						<g>
							<polygon class="st6" points="854.1,1402.9 756.9,1404.1 752.3,1324 850.1,1322.9 							"/>
							<polygon class="st6" points="1005.6,1400.9 913.1,1402.1 909.5,1322.2 1002.5,1321.1 							"/>
							<polygon class="st6" points="1160.5,1398.8 1064.3,1400.1 1061.6,1320.4 1158.4,1319.2 							"/>
							<polygon class="st6" points="1314.6,1396.8 1218.9,1398.1 1217.1,1318.5 1313.4,1317.4 							"/>
						</g>
					</g>
				</g>
			</g>
		</g>
		<g>
			<path class="st6" d="M2017.1,1468.6H868.9c-2.5,0-4.5-2-4.5-4.5v-125.1c0-2.5,2-4.5,4.5-4.5h1148.2c2.5,0,4.5,2,4.5,4.5v125.1
				C2021.6,1466.6,2019.5,1468.6,2017.1,1468.6z"/>
			<path class="st6" d="M2061.6,1488.6H789.3c-8.8,0-15.9-7.1-15.9-15.9v-26.3c0-8.8,7.1-15.9,15.9-15.9h1272.2
				c8.8,0,15.9,7.1,15.9,15.9v26.3C2077.5,1481.5,2070.4,1488.6,2061.6,1488.6z"/>
			<path class="st8" d="M1987.9,822.8H891.7c-16.5,0-20.8-22.8-5.5-28.8l548.1-215.8c3.5-1.4,7.4-1.4,10.9,0l548.1,215.8
				C2008.7,800,2004.4,822.8,1987.9,822.8z"/>
			<g>
				<g>
					<g>
						<rect x="927.9" y="854.7" class="st8" width="23.5" height="432.5"/>
						<rect x="963.2" y="854.7" class="st8" width="23.5" height="432.5"/>
						<rect x="998.4" y="854.7" class="st8" width="23.5" height="432.5"/>
					</g>
					<polygon class="st8" points="1047.8,831.2 902.1,831.2 902.1,837.5 923.2,847.6 1026.6,847.6 1047.8,837.5 					"/>
					<polygon class="st8" points="1049,1324.8 903.2,1324.8 903.2,1302 924.4,1291.9 1027.8,1291.9 1049,1302 					"/>
				</g>
				<g>
					<g>
						<rect x="1113.6" y="854.7" class="st8" width="23.5" height="432.5"/>
						<rect x="1148.9" y="854.7" class="st8" width="23.5" height="432.5"/>
						<rect x="1184.2" y="854.7" class="st8" width="23.5" height="432.5"/>
					</g>
					<polygon class="st8" points="1233.5,831.2 1087.8,831.2 1087.8,837.5 1108.9,847.6 1212.4,847.6 1233.5,837.5 					"/>
					<polygon class="st8" points="1234.7,1324.8 1088.9,1324.8 1088.9,1302 1110.1,1291.9 1213.5,1291.9 1234.7,1302 					"/>
				</g>
				<g>
					<g>
						<rect x="1299.3" y="854.7" class="st8" width="23.5" height="432.5"/>
						<rect x="1334.6" y="854.7" class="st8" width="23.5" height="432.5"/>
						<rect x="1369.9" y="854.7" class="st8" width="23.5" height="432.5"/>
					</g>
					<polygon class="st8" points="1419.2,831.2 1273.5,831.2 1273.5,837.5 1294.6,847.6 1398.1,847.6 1419.2,837.5 					"/>
					<polygon class="st8" points="1420.4,1324.8 1274.7,1324.8 1274.7,1302 1295.8,1291.9 1399.3,1291.9 1420.4,1302 					"/>
				</g>
				<g>
					<g>
						<rect x="1485.1" y="854.7" class="st8" width="23.5" height="432.5"/>
						<rect x="1520.3" y="854.7" class="st8" width="23.5" height="432.5"/>
						<rect x="1555.6" y="854.7" class="st8" width="23.5" height="432.5"/>
					</g>
					<polygon class="st8" points="1604.9,831.2 1459.2,831.2 1459.2,837.5 1480.4,847.6 1583.8,847.6 1604.9,837.5 					"/>
					<polygon class="st8" points="1606.1,1324.8 1460.4,1324.8 1460.4,1302 1481.5,1291.9 1585,1291.9 1606.1,1302 					"/>
				</g>
				<g>
					<g>
						<rect x="1670.8" y="854.7" class="st8" width="23.5" height="432.5"/>
						<rect x="1706" y="854.7" class="st8" width="23.5" height="432.5"/>
						<rect x="1741.3" y="854.7" class="st8" width="23.5" height="432.5"/>
					</g>
					<polygon class="st8" points="1790.7,831.2 1644.9,831.2 1644.9,837.5 1666.1,847.6 1769.5,847.6 1790.7,837.5 					"/>
					<polygon class="st8" points="1791.8,1324.8 1646.1,1324.8 1646.1,1302 1667.2,1291.9 1770.7,1291.9 1791.8,1302 					"/>
				</g>
				<g>
					<g>
						<rect x="1856.5" y="854.7" class="st8" width="23.5" height="432.5"/>
						<rect x="1891.7" y="854.7" class="st8" width="23.5" height="432.5"/>
						<rect x="1927" y="854.7" class="st8" width="23.5" height="432.5"/>
					</g>
					<polygon class="st8" points="1976.4,831.2 1830.6,831.2 1830.6,837.5 1851.8,847.6 1955.2,847.6 1976.4,837.5 					"/>
					<polygon class="st8" points="1977.5,1324.8 1831.8,1324.8 1831.8,1302 1853,1291.9 1956.4,1291.9 1977.5,1302 					"/>
				</g>
			</g>
			<path class="st8" d="M2018.7,1359.8H868.3c-2.2,0-3.9-1.7-3.9-3.9v-17.4c0-2.2,1.7-3.9,3.9-3.9h1150.4c2.2,0,3.9,1.7,3.9,3.9
				v17.4C2022.6,1358,2020.8,1359.8,2018.7,1359.8z"/>
		</g>
		<g>
			<path class="st8" d="M566,1364.6c0-0.4,0-0.9,0.2-1.4c0.1-0.2,0.2-0.5,0.3-0.7c0.1-0.2,0.3-0.5,0.3-0.4l0.3-0.4l0.6-0.9l1.2-1.6
				l2.4-3l4.8-5.9l9.7-11.8l19.5-23.5l39.1-46.7c1.9-2.2,5.1-2.5,7.4-0.7c2.2,1.9,2.5,5.1,0.7,7.4c0,0-0.1,0.1-0.1,0.1l0,0
				l-40.8,45.2l-20.3,22.7l-10.1,11.4l-5,5.7l-2.4,2.9l-1.2,1.4l-0.5,0.7l-0.2,0.3c-0.1,0.1,0.1-0.1,0.1-0.2
				c0.1-0.1,0.1-0.3,0.2-0.5c0.1-0.3,0-0.7,0-1c0.2,1.6-0.9,3.1-2.5,3.4C567.8,1367.3,566.2,1366.2,566,1364.6z"/>
			<g>
				<g>
					<path class="st8" d="M824.1,1427.3c12.4,4.5,24.8,7.9,33.1,10c-5.8-7.6-19.3-24.4-32.2-33.4l-9.6-3.6c0,0-4.9,4-9.7,15.2
						C806.6,1418,810.5,1422.3,824.1,1427.3z"/>
					<path class="st6" d="M857.2,1437.4c0,0-0.1-0.1-0.1-0.1c-8.3-2.1-20.6-5.5-33.1-10c-13.6-4.9-17.5-9.2-18.5-11.8
						c-0.2,0.5-0.4,1-0.7,1.6c-1,2.5,0.2,5.3,2.7,6.3c10.1,4,35.2,13.7,47.7,16.9C857,1440.7,858.3,1438.8,857.2,1437.4z"/>
					<path class="st2" d="M817.5,1386.5c1.4,0.4-2.7,6.9-2.8,14.5c0,1.7,0.8,3.3,2.4,3.8c1.1,0.3,2.3,0.7,3.6,1c2,0.4,4-0.6,4.8-2.4
						l7.3-17.5L817.5,1386.5z"/>
				</g>
				<g>
					<path class="st8" d="M681.6,1500.3c13.2,0.7,26,0.4,34.5,0c-7.7-5.6-25.6-17.7-40.6-22.6l-7.1-0.5c-2-0.1-3.9,1-4.7,2.9
						c-1.1,2.8-2.6,7.4-3.3,14.3C662.1,1496.6,667.1,1499.6,681.6,1500.3z"/>
					<path class="st6" d="M716.2,1500.4c0,0-0.1-0.1-0.1-0.1c-8.5,0.4-21.3,0.7-34.5,0c-14.5-0.7-19.4-3.7-21.1-5.9
						c-0.1,0.6-0.1,1.1-0.2,1.7c-0.2,2.7,1.7,5,4.4,5.2c10.8,0.9,37.6,2.9,50.6,2.3C717,1503.6,717.6,1501.4,716.2,1500.4z"/>
					<path class="st2" d="M669.4,1463.4c1.4,0-2.4,8.6-2.5,16.1c0,1.7,1.7,2.9,3.4,3c1.1,0,2.4,0,3.8-0.1c2-0.2,3.6-1.7,3.8-3.7
						l7.1-17.2L669.4,1463.4z"/>
				</g>
				<path class="st6" d="M666.1,1468.7c5.4-22.2,43.4-175.4,69.2-209.1l35.4,5.2l4.2-5.2c0,0,86.6,25.3,96.5,34.9
					c8.1,7.8-38.4,102.4-38.4,102.4s-9.7,3.7-18.8-4.1l14.7-66c0.6-2.7-1.1-5.4-3.8-6l-65.7-14c-2.6-0.5-5.1,0.7-6.3,3.1
					c-13.9,29.5-61.6,132.1-69.9,163.8c-0.2,0.9-1,1.5-2,1.5c-2.7-0.1-8.4-0.6-13-2.3C666.6,1472.1,665.7,1470.4,666.1,1468.7z"/>
				<path class="st2" d="M679.8,1209.9c-11.3,16.9-21.6,34.4-29,51l10.6,4.5c0,0,14.8-19.1,34.5-41.2
					C691.2,1216.5,684.9,1212.2,679.8,1209.9z"/>
				<path class="st8" d="M761.2,1164.6l6.3-53c0,0-53.2,46.7-87.6,98.3c5,2.3,11.3,6.5,16.1,14.3
					C716.1,1201.7,741.3,1176.1,761.2,1164.6z"/>
				<path class="st2" d="M654.4,1260.9c0,0-17.2-0.4-19.4,4.5c-2.2,4.9,4.4,15,6.6,15.9c2.2,0.9,12.3-1.8,12.8-6.6
					c0.4-4.8,5.2-2.2,7-9.3S654.4,1260.9,654.4,1260.9z"/>
				<g>
					<path class="st2" d="M833.4,1075c0,0-34.2,22.5-47.3,34.6l28.9,14.4c0,0,14.4-18.3,28.6-26.3L833.4,1075z"/>
					<g>
						<path class="st8" d="M715.2,1271.6c10,15.4,45.4,6.8,80.3-5c0.7-0.2,1-8.4,1.1-9.1c1.7-8.8,13.6-59.2,23.1-80.9
							c0.5-1.2,2-1.6,3-0.8c8.7,6.1,45.7,28.8,97.7,17.2c0.9-0.2,1.5-0.9,1.6-1.8l0.4-5c0.1-1.1-0.7-2.1-1.8-2.2
							c-9.9-1.3-54.9-8.4-77.7-33.3c-25.7-28.1-8.8-36.6-23.3-44.6c-7.9-4.4-13.1-7.6-16.1-9.6c-0.8-0.5-3.5-0.5-7.4,0.2
							c-17.9,3.2-32.5,17.2-32.5,17.2c-37.3,35.5-47.6,122.4-50.4,145.8C712.9,1262.1,712.3,1267.1,715.2,1271.6z"/>
						<path class="st2" d="M915.9,1183.3l4.8,0.7l20.2-6.8c2.4-1.1,5.1-1.2,7.5-0.3l20.2,7.4l-49.8,8.5
							C918,1191.2,917.7,1185.1,915.9,1183.3z"/>
					</g>
					<g>
						<path class="st2" d="M867,1058.1c0.1,0.7-6.9,45.7-6.9,45.7l-25.6-4.6l0.3-43.7C834.8,1055.5,864.8,1046.7,867,1058.1z"/>
						<path class="st5" d="M841,1065l-2,23c0,0.3,0,0.6,0,0.9c0.3,1.8,2,7.8,8,5.8c5.5-1.8,10.6-3.4,14.2-2.5c1.6,0.4,2.6,2,2.4,3.6
							c-0.6,4.1-2.3,13.3-4.9,21.1c-0.5,1.6-2.2,2.5-3.8,2.1c-4.9-1.2-15.1-4-22.8-8.1c-1-0.6-1.7-1.6-1.7-2.8
							c0-5.8-0.2-23.3-1-28.2c-0.7-4.6-6.5-7.1-9-8c-0.8-0.3-1.5-0.9-1.8-1.7c-1.3-2.8-3.1-9.3,5.1-12.4c1.7-0.6,2.5-2.6,1.8-4.3
							c-1.4-3.4-2.2-8.6,4.2-11.8c6.4-3.2,11.5,0,14.2,2.7c1.1,1.1,2.8,1.2,4.1,0.3c0.7-0.5,1.7-0.7,2.9,0c1.6,0.9,3.7,0.1,4.4-1.6
							c1.4-3.3,4.5-6.9,10.9-6.1c11.5,1.4,13.3,14,10.7,21.5c-2.7,7.5-15,5.3-21.3,1.8c-4.8-2.6-10.7,0.6-13.2,2.3
							C841.5,1063.1,841,1064,841,1065z"/>
						<path class="st2" d="M830,1087.5c0,0,2.9-12.7-2.1-15.7c-4.9-3-12-1-10,8.4C820.5,1091.9,830,1087.5,830,1087.5z"/>
					</g>
				</g>
			</g>
			<g>
				<g>
					
						<ellipse transform="matrix(0.2298 -0.9732 0.9732 0.2298 -1126.347 1510.6959)" class="st3" cx="391.2" cy="1466.9" rx="45" ry="45"/>
					
						<ellipse transform="matrix(0.3827 -0.9239 0.9239 0.3827 -1115.8987 1268.4685)" class="st2" cx="391.2" cy="1469.3" rx="32.7" ry="32.7"/>
					<path class="st6" d="M401.7,1466.9c0,5.8-4.7,10.4-10.4,10.4c-5.8,0-10.4-4.7-10.4-10.4c0-5.8,4.7-10.4,10.4-10.4
						C397,1456.5,401.7,1461.2,401.7,1466.9z"/>
				</g>
				<g>
					
						<ellipse transform="matrix(0.3827 -0.9239 0.9239 0.3827 -1040.1968 1377.1327)" class="st3" cx="510.4" cy="1466.9" rx="45" ry="45"/>
					
						<ellipse transform="matrix(0.1602 -0.9871 0.9871 0.1602 -1021.6385 1737.7377)" class="st2" cx="510.4" cy="1469.3" rx="32.7" ry="32.7"/>
					<path class="st6" d="M520.8,1466.9c0,5.8-4.7,10.4-10.4,10.4c-5.8,0-10.4-4.7-10.4-10.4c0-5.8,4.7-10.4,10.4-10.4
						C516.2,1456.5,520.8,1461.2,520.8,1466.9z"/>
				</g>
				<path class="st8" d="M313.4,1385.2l9.2,28.9c1.7,5.2,7.1,8.7,13.3,8.7l228.3-2.9c6,0,11.2-3.5,12.9-8.5l10.8-31.6
					c2.6-7.7-4.1-15.4-13.3-15.3l-248.4,5.6C317.4,1370.3,311,1377.7,313.4,1385.2z"/>
				<path class="st6" d="M329.8,1396.8l241.6-11.6c2.5-0.1,4.2,2.4,3.3,4.7l-1.9,4.9c-0.5,1.3-1.7,2.2-3.1,2.2l-239.7,6.7
					c-1.6,0-2.9-1-3.4-2.5l0,0C326,1399.1,327.6,1396.9,329.8,1396.8z"/>
				<g>
					<g>
						
							<ellipse transform="matrix(0.7071 -0.7071 0.7071 0.7071 -625.3534 630.1757)" class="st5" cx="448" cy="1070" rx="89.3" ry="89.3"/>
						
							<ellipse transform="matrix(0.7071 -0.7071 0.7071 0.7071 -625.3534 630.1757)" class="st1" cx="448" cy="1070" rx="86.4" ry="86.4"/>
						<path class="st9" d="M376.8,1036.1c-0.3,0-0.6-0.1-0.9-0.2c-1-0.5-1.4-1.7-0.9-2.7c14-27.7,42-44.9,73-44.9
							c5,0,9.9,0.4,14.7,1.3c1.1,0.2,1.8,1.2,1.6,2.3c-0.2,1.1-1.2,1.8-2.3,1.6c-4.6-0.8-9.3-1.3-14-1.3
							c-29.5,0-56.1,16.4-69.4,42.8C378.2,1035.7,377.5,1036.1,376.8,1036.1z"/>
						
							<ellipse transform="matrix(0.2757 -0.9612 0.9612 0.2757 -704.4366 1208.8113)" class="st2" cx="449.9" cy="1071.8" rx="73.1" ry="73.1"/>
						<g>
							<path class="st5" d="M442.7,1126.2v-8c-8.3-0.3-16.5-2.3-22.3-4.8c-2.1-0.9-3.1-3.2-2.5-5.4l2-7.4c0.7-2.7,3.7-4.1,6.3-3
								c5.8,2.4,12.9,4.3,20.6,4.3c8,0,13.9-2.7,13.9-8.3c0-5-4.6-8-15.7-11c-15.8-4.3-27.2-11.2-27.2-25.2
								c0-12.6,9.2-22.2,25.2-24.8v-8c0-2.6,2.1-4.6,4.6-4.6h4.7c2.6,0,4.6,2.1,4.6,4.6v7.1c7.7,0.3,13.3,1.6,17.7,3.2
								c2.3,0.8,3.5,3.2,2.9,5.6l-1.9,6.9c-0.7,2.6-3.5,4.1-6.1,3.1c-4.1-1.5-9.8-3.1-17.3-3.1c-9.5,0-12.2,3.9-12.2,7.4
								c0,4.3,5.7,7.3,18,11.1c17.6,5.3,24.9,12.6,24.9,25.7c0,12-8.9,22.9-26.3,25.6v8.9c0,2.6-2.1,4.6-4.6,4.6h-4.7
								C444.8,1130.8,442.7,1128.7,442.7,1126.2z"/>
						</g>
					</g>
					<g>
						<path class="st3" d="M534.7,1202.8H361.3c-2.3,0-4.2-1.9-4.2-4.2v-22.8c0-2.3,1.9-4.2,4.2-4.2h173.3c2.3,0,4.2,1.9,4.2,4.2
							v22.8C538.9,1200.9,537,1202.8,534.7,1202.8z"/>
						<g>
							<path class="st6" d="M367.2,1197.2h-1.9c-0.5,0-0.9-0.4-0.9-0.9v-18.2c0-0.5,0.4-0.9,0.9-0.9h1.9c0.5,0,0.9,0.4,0.9,0.9v18.2
								C368.1,1196.7,367.7,1197.2,367.2,1197.2z"/>
							<path class="st6" d="M380.8,1197.2h-1.9c-0.5,0-0.9-0.4-0.9-0.9v-18.2c0-0.5,0.4-0.9,0.9-0.9h1.9c0.5,0,0.9,0.4,0.9,0.9v18.2
								C381.7,1196.7,381.3,1197.2,380.8,1197.2z"/>
							<path class="st6" d="M394.4,1197.2h-1.9c-0.5,0-0.9-0.4-0.9-0.9v-18.2c0-0.5,0.4-0.9,0.9-0.9h1.9c0.5,0,0.9,0.4,0.9,0.9v18.2
								C395.4,1196.7,395,1197.2,394.4,1197.2z"/>
							<path class="st6" d="M408.1,1197.2h-1.9c-0.5,0-0.9-0.4-0.9-0.9v-18.2c0-0.5,0.4-0.9,0.9-0.9h1.9c0.5,0,0.9,0.4,0.9,0.9v18.2
								C409,1196.7,408.6,1197.2,408.1,1197.2z"/>
							<path class="st6" d="M421.7,1197.2h-1.9c-0.5,0-0.9-0.4-0.9-0.9v-18.2c0-0.5,0.4-0.9,0.9-0.9h1.9c0.5,0,0.9,0.4,0.9,0.9v18.2
								C422.6,1196.7,422.2,1197.2,421.7,1197.2z"/>
							<path class="st6" d="M435.3,1197.2h-1.9c-0.5,0-0.9-0.4-0.9-0.9v-18.2c0-0.5,0.4-0.9,0.9-0.9h1.9c0.5,0,0.9,0.4,0.9,0.9v18.2
								C436.3,1196.7,435.9,1197.2,435.3,1197.2z"/>
							<path class="st6" d="M449,1197.2H447c-0.5,0-0.9-0.4-0.9-0.9v-18.2c0-0.5,0.4-0.9,0.9-0.9h1.9c0.5,0,0.9,0.4,0.9,0.9v18.2
								C449.9,1196.7,449.5,1197.2,449,1197.2z"/>
							<path class="st6" d="M462.6,1197.2h-1.9c-0.5,0-0.9-0.4-0.9-0.9v-18.2c0-0.5,0.4-0.9,0.9-0.9h1.9c0.5,0,0.9,0.4,0.9,0.9v18.2
								C463.5,1196.7,463.1,1197.2,462.6,1197.2z"/>
							<path class="st6" d="M476.2,1197.2h-1.9c-0.5,0-0.9-0.4-0.9-0.9v-18.2c0-0.5,0.4-0.9,0.9-0.9h1.9c0.5,0,0.9,0.4,0.9,0.9v18.2
								C477.2,1196.7,476.8,1197.2,476.2,1197.2z"/>
							<path class="st6" d="M489.9,1197.2H488c-0.5,0-0.9-0.4-0.9-0.9v-18.2c0-0.5,0.4-0.9,0.9-0.9h1.9c0.5,0,0.9,0.4,0.9,0.9v18.2
								C490.8,1196.7,490.4,1197.2,489.9,1197.2z"/>
							<path class="st6" d="M503.5,1197.2h-1.9c-0.5,0-0.9-0.4-0.9-0.9v-18.2c0-0.5,0.4-0.9,0.9-0.9h1.9c0.5,0,0.9,0.4,0.9,0.9v18.2
								C504.5,1196.7,504,1197.2,503.5,1197.2z"/>
							<path class="st6" d="M517.1,1197.2h-1.9c-0.5,0-0.9-0.4-0.9-0.9v-18.2c0-0.5,0.4-0.9,0.9-0.9h1.9c0.5,0,0.9,0.4,0.9,0.9v18.2
								C518.1,1196.7,517.7,1197.2,517.1,1197.2z"/>
							<path class="st6" d="M530.8,1197.2h-1.9c-0.5,0-0.9-0.4-0.9-0.9v-18.2c0-0.5,0.4-0.9,0.9-0.9h1.9c0.5,0,0.9,0.4,0.9,0.9v18.2
								C531.7,1196.7,531.3,1197.2,530.8,1197.2z"/>
						</g>
					</g>
					<g>
						<path class="st3" d="M534.7,1237.5H361.3c-2.3,0-4.2-1.9-4.2-4.2v-22.8c0-2.3,1.9-4.2,4.2-4.2h173.3c2.3,0,4.2,1.9,4.2,4.2
							v22.8C538.9,1235.6,537,1237.5,534.7,1237.5z"/>
						<g>
							<path class="st6" d="M367.2,1231.9h-1.9c-0.5,0-0.9-0.4-0.9-0.9v-18.2c0-0.5,0.4-0.9,0.9-0.9h1.9c0.5,0,0.9,0.4,0.9,0.9v18.2
								C368.1,1231.5,367.7,1231.9,367.2,1231.9z"/>
							<path class="st6" d="M380.8,1231.9h-1.9c-0.5,0-0.9-0.4-0.9-0.9v-18.2c0-0.5,0.4-0.9,0.9-0.9h1.9c0.5,0,0.9,0.4,0.9,0.9v18.2
								C381.7,1231.5,381.3,1231.9,380.8,1231.9z"/>
							<path class="st6" d="M394.4,1231.9h-1.9c-0.5,0-0.9-0.4-0.9-0.9v-18.2c0-0.5,0.4-0.9,0.9-0.9h1.9c0.5,0,0.9,0.4,0.9,0.9v18.2
								C395.4,1231.5,395,1231.9,394.4,1231.9z"/>
							<path class="st6" d="M408.1,1231.9h-1.9c-0.5,0-0.9-0.4-0.9-0.9v-18.2c0-0.5,0.4-0.9,0.9-0.9h1.9c0.5,0,0.9,0.4,0.9,0.9v18.2
								C409,1231.5,408.6,1231.9,408.1,1231.9z"/>
							<path class="st6" d="M421.7,1231.9h-1.9c-0.5,0-0.9-0.4-0.9-0.9v-18.2c0-0.5,0.4-0.9,0.9-0.9h1.9c0.5,0,0.9,0.4,0.9,0.9v18.2
								C422.6,1231.5,422.2,1231.9,421.7,1231.9z"/>
							<path class="st6" d="M435.3,1231.9h-1.9c-0.5,0-0.9-0.4-0.9-0.9v-18.2c0-0.5,0.4-0.9,0.9-0.9h1.9c0.5,0,0.9,0.4,0.9,0.9v18.2
								C436.3,1231.5,435.9,1231.9,435.3,1231.9z"/>
							<path class="st6" d="M449,1231.9H447c-0.5,0-0.9-0.4-0.9-0.9v-18.2c0-0.5,0.4-0.9,0.9-0.9h1.9c0.5,0,0.9,0.4,0.9,0.9v18.2
								C449.9,1231.5,449.5,1231.9,449,1231.9z"/>
							<path class="st6" d="M462.6,1231.9h-1.9c-0.5,0-0.9-0.4-0.9-0.9v-18.2c0-0.5,0.4-0.9,0.9-0.9h1.9c0.5,0,0.9,0.4,0.9,0.9v18.2
								C463.5,1231.5,463.1,1231.9,462.6,1231.9z"/>
							<path class="st6" d="M476.2,1231.9h-1.9c-0.5,0-0.9-0.4-0.9-0.9v-18.2c0-0.5,0.4-0.9,0.9-0.9h1.9c0.5,0,0.9,0.4,0.9,0.9v18.2
								C477.2,1231.5,476.8,1231.9,476.2,1231.9z"/>
							<path class="st6" d="M489.9,1231.9H488c-0.5,0-0.9-0.4-0.9-0.9v-18.2c0-0.5,0.4-0.9,0.9-0.9h1.9c0.5,0,0.9,0.4,0.9,0.9v18.2
								C490.8,1231.5,490.4,1231.9,489.9,1231.9z"/>
							<path class="st6" d="M503.5,1231.9h-1.9c-0.5,0-0.9-0.4-0.9-0.9v-18.2c0-0.5,0.4-0.9,0.9-0.9h1.9c0.5,0,0.9,0.4,0.9,0.9v18.2
								C504.5,1231.5,504,1231.9,503.5,1231.9z"/>
							<path class="st6" d="M517.1,1231.9h-1.9c-0.5,0-0.9-0.4-0.9-0.9v-18.2c0-0.5,0.4-0.9,0.9-0.9h1.9c0.5,0,0.9,0.4,0.9,0.9v18.2
								C518.1,1231.5,517.7,1231.9,517.1,1231.9z"/>
							<path class="st6" d="M530.8,1231.9h-1.9c-0.5,0-0.9-0.4-0.9-0.9v-18.2c0-0.5,0.4-0.9,0.9-0.9h1.9c0.5,0,0.9,0.4,0.9,0.9v18.2
								C531.7,1231.5,531.3,1231.9,530.8,1231.9z"/>
						</g>
					</g>
					<g>
						<path class="st3" d="M534.7,1272.2H361.3c-2.3,0-4.2-1.9-4.2-4.2v-22.8c0-2.3,1.9-4.2,4.2-4.2h173.3c2.3,0,4.2,1.9,4.2,4.2
							v22.8C538.9,1270.3,537,1272.2,534.7,1272.2z"/>
						<g>
							<path class="st6" d="M367.2,1266.6h-1.9c-0.5,0-0.9-0.4-0.9-0.9v-18.2c0-0.5,0.4-0.9,0.9-0.9h1.9c0.5,0,0.9,0.4,0.9,0.9v18.2
								C368.1,1266.2,367.7,1266.6,367.2,1266.6z"/>
							<path class="st6" d="M380.8,1266.6h-1.9c-0.5,0-0.9-0.4-0.9-0.9v-18.2c0-0.5,0.4-0.9,0.9-0.9h1.9c0.5,0,0.9,0.4,0.9,0.9v18.2
								C381.7,1266.2,381.3,1266.6,380.8,1266.6z"/>
							<path class="st6" d="M394.4,1266.6h-1.9c-0.5,0-0.9-0.4-0.9-0.9v-18.2c0-0.5,0.4-0.9,0.9-0.9h1.9c0.5,0,0.9,0.4,0.9,0.9v18.2
								C395.4,1266.2,395,1266.6,394.4,1266.6z"/>
							<path class="st6" d="M408.1,1266.6h-1.9c-0.5,0-0.9-0.4-0.9-0.9v-18.2c0-0.5,0.4-0.9,0.9-0.9h1.9c0.5,0,0.9,0.4,0.9,0.9v18.2
								C409,1266.2,408.6,1266.6,408.1,1266.6z"/>
							<path class="st6" d="M421.7,1266.6h-1.9c-0.5,0-0.9-0.4-0.9-0.9v-18.2c0-0.5,0.4-0.9,0.9-0.9h1.9c0.5,0,0.9,0.4,0.9,0.9v18.2
								C422.6,1266.2,422.2,1266.6,421.7,1266.6z"/>
							<path class="st6" d="M435.3,1266.6h-1.9c-0.5,0-0.9-0.4-0.9-0.9v-18.2c0-0.5,0.4-0.9,0.9-0.9h1.9c0.5,0,0.9,0.4,0.9,0.9v18.2
								C436.3,1266.2,435.9,1266.6,435.3,1266.6z"/>
							<path class="st6" d="M449,1266.6H447c-0.5,0-0.9-0.4-0.9-0.9v-18.2c0-0.5,0.4-0.9,0.9-0.9h1.9c0.5,0,0.9,0.4,0.9,0.9v18.2
								C449.9,1266.2,449.5,1266.6,449,1266.6z"/>
							<path class="st6" d="M462.6,1266.6h-1.9c-0.5,0-0.9-0.4-0.9-0.9v-18.2c0-0.5,0.4-0.9,0.9-0.9h1.9c0.5,0,0.9,0.4,0.9,0.9v18.2
								C463.5,1266.2,463.1,1266.6,462.6,1266.6z"/>
							<path class="st6" d="M476.2,1266.6h-1.9c-0.5,0-0.9-0.4-0.9-0.9v-18.2c0-0.5,0.4-0.9,0.9-0.9h1.9c0.5,0,0.9,0.4,0.9,0.9v18.2
								C477.2,1266.2,476.8,1266.6,476.2,1266.6z"/>
							<path class="st6" d="M489.9,1266.6H488c-0.5,0-0.9-0.4-0.9-0.9v-18.2c0-0.5,0.4-0.9,0.9-0.9h1.9c0.5,0,0.9,0.4,0.9,0.9v18.2
								C490.8,1266.2,490.4,1266.6,489.9,1266.6z"/>
							<path class="st6" d="M503.5,1266.6h-1.9c-0.5,0-0.9-0.4-0.9-0.9v-18.2c0-0.5,0.4-0.9,0.9-0.9h1.9c0.5,0,0.9,0.4,0.9,0.9v18.2
								C504.5,1266.2,504,1266.6,503.5,1266.6z"/>
							<path class="st6" d="M517.1,1266.6h-1.9c-0.5,0-0.9-0.4-0.9-0.9v-18.2c0-0.5,0.4-0.9,0.9-0.9h1.9c0.5,0,0.9,0.4,0.9,0.9v18.2
								C518.1,1266.2,517.7,1266.6,517.1,1266.6z"/>
							<path class="st6" d="M530.8,1266.6h-1.9c-0.5,0-0.9-0.4-0.9-0.9v-18.2c0-0.5,0.4-0.9,0.9-0.9h1.9c0.5,0,0.9,0.4,0.9,0.9v18.2
								C531.7,1266.2,531.3,1266.6,530.8,1266.6z"/>
						</g>
					</g>
					<g>
						<path class="st3" d="M534.7,1306.9H361.3c-2.3,0-4.2-1.9-4.2-4.2v-22.8c0-2.3,1.9-4.2,4.2-4.2h173.3c2.3,0,4.2,1.9,4.2,4.2
							v22.8C538.9,1305,537,1306.9,534.7,1306.9z"/>
						<g>
							<path class="st6" d="M367.2,1301.3h-1.9c-0.5,0-0.9-0.4-0.9-0.9v-18.2c0-0.5,0.4-0.9,0.9-0.9h1.9c0.5,0,0.9,0.4,0.9,0.9v18.2
								C368.1,1300.9,367.7,1301.3,367.2,1301.3z"/>
							<path class="st6" d="M380.8,1301.3h-1.9c-0.5,0-0.9-0.4-0.9-0.9v-18.2c0-0.5,0.4-0.9,0.9-0.9h1.9c0.5,0,0.9,0.4,0.9,0.9v18.2
								C381.7,1300.9,381.3,1301.3,380.8,1301.3z"/>
							<path class="st6" d="M394.4,1301.3h-1.9c-0.5,0-0.9-0.4-0.9-0.9v-18.2c0-0.5,0.4-0.9,0.9-0.9h1.9c0.5,0,0.9,0.4,0.9,0.9v18.2
								C395.4,1300.9,395,1301.3,394.4,1301.3z"/>
							<path class="st6" d="M408.1,1301.3h-1.9c-0.5,0-0.9-0.4-0.9-0.9v-18.2c0-0.5,0.4-0.9,0.9-0.9h1.9c0.5,0,0.9,0.4,0.9,0.9v18.2
								C409,1300.9,408.6,1301.3,408.1,1301.3z"/>
							<path class="st6" d="M421.7,1301.3h-1.9c-0.5,0-0.9-0.4-0.9-0.9v-18.2c0-0.5,0.4-0.9,0.9-0.9h1.9c0.5,0,0.9,0.4,0.9,0.9v18.2
								C422.6,1300.9,422.2,1301.3,421.7,1301.3z"/>
							<path class="st6" d="M435.3,1301.3h-1.9c-0.5,0-0.9-0.4-0.9-0.9v-18.2c0-0.5,0.4-0.9,0.9-0.9h1.9c0.5,0,0.9,0.4,0.9,0.9v18.2
								C436.3,1300.9,435.9,1301.3,435.3,1301.3z"/>
							<path class="st6" d="M449,1301.3H447c-0.5,0-0.9-0.4-0.9-0.9v-18.2c0-0.5,0.4-0.9,0.9-0.9h1.9c0.5,0,0.9,0.4,0.9,0.9v18.2
								C449.9,1300.9,449.5,1301.3,449,1301.3z"/>
							<path class="st6" d="M462.6,1301.3h-1.9c-0.5,0-0.9-0.4-0.9-0.9v-18.2c0-0.5,0.4-0.9,0.9-0.9h1.9c0.5,0,0.9,0.4,0.9,0.9v18.2
								C463.5,1300.9,463.1,1301.3,462.6,1301.3z"/>
							<path class="st6" d="M476.2,1301.3h-1.9c-0.5,0-0.9-0.4-0.9-0.9v-18.2c0-0.5,0.4-0.9,0.9-0.9h1.9c0.5,0,0.9,0.4,0.9,0.9v18.2
								C477.2,1300.9,476.8,1301.3,476.2,1301.3z"/>
							<path class="st6" d="M489.9,1301.3H488c-0.5,0-0.9-0.4-0.9-0.9v-18.2c0-0.5,0.4-0.9,0.9-0.9h1.9c0.5,0,0.9,0.4,0.9,0.9v18.2
								C490.8,1300.9,490.4,1301.3,489.9,1301.3z"/>
							<path class="st6" d="M503.5,1301.3h-1.9c-0.5,0-0.9-0.4-0.9-0.9v-18.2c0-0.5,0.4-0.9,0.9-0.9h1.9c0.5,0,0.9,0.4,0.9,0.9v18.2
								C504.5,1300.9,504,1301.3,503.5,1301.3z"/>
							<path class="st6" d="M517.1,1301.3h-1.9c-0.5,0-0.9-0.4-0.9-0.9v-18.2c0-0.5,0.4-0.9,0.9-0.9h1.9c0.5,0,0.9,0.4,0.9,0.9v18.2
								C518.1,1300.9,517.7,1301.3,517.1,1301.3z"/>
							<path class="st6" d="M530.8,1301.3h-1.9c-0.5,0-0.9-0.4-0.9-0.9v-18.2c0-0.5,0.4-0.9,0.9-0.9h1.9c0.5,0,0.9,0.4,0.9,0.9v18.2
								C531.7,1300.9,531.3,1301.3,530.8,1301.3z"/>
						</g>
					</g>
					<g>
						<path class="st3" d="M534.7,1341.6H361.3c-2.3,0-4.2-1.9-4.2-4.2v-22.8c0-2.3,1.9-4.2,4.2-4.2h173.3c2.3,0,4.2,1.9,4.2,4.2
							v22.8C538.9,1339.7,537,1341.6,534.7,1341.6z"/>
						<g>
							<path class="st6" d="M367.2,1336h-1.9c-0.5,0-0.9-0.4-0.9-0.9v-18.2c0-0.5,0.4-0.9,0.9-0.9h1.9c0.5,0,0.9,0.4,0.9,0.9v18.2
								C368.1,1335.6,367.7,1336,367.2,1336z"/>
							<path class="st6" d="M380.8,1336h-1.9c-0.5,0-0.9-0.4-0.9-0.9v-18.2c0-0.5,0.4-0.9,0.9-0.9h1.9c0.5,0,0.9,0.4,0.9,0.9v18.2
								C381.7,1335.6,381.3,1336,380.8,1336z"/>
							<path class="st6" d="M394.4,1336h-1.9c-0.5,0-0.9-0.4-0.9-0.9v-18.2c0-0.5,0.4-0.9,0.9-0.9h1.9c0.5,0,0.9,0.4,0.9,0.9v18.2
								C395.4,1335.6,395,1336,394.4,1336z"/>
							<path class="st6" d="M408.1,1336h-1.9c-0.5,0-0.9-0.4-0.9-0.9v-18.2c0-0.5,0.4-0.9,0.9-0.9h1.9c0.5,0,0.9,0.4,0.9,0.9v18.2
								C409,1335.6,408.6,1336,408.1,1336z"/>
							<path class="st6" d="M421.7,1336h-1.9c-0.5,0-0.9-0.4-0.9-0.9v-18.2c0-0.5,0.4-0.9,0.9-0.9h1.9c0.5,0,0.9,0.4,0.9,0.9v18.2
								C422.6,1335.6,422.2,1336,421.7,1336z"/>
							<path class="st6" d="M435.3,1336h-1.9c-0.5,0-0.9-0.4-0.9-0.9v-18.2c0-0.5,0.4-0.9,0.9-0.9h1.9c0.5,0,0.9,0.4,0.9,0.9v18.2
								C436.3,1335.6,435.9,1336,435.3,1336z"/>
							<path class="st6" d="M449,1336H447c-0.5,0-0.9-0.4-0.9-0.9v-18.2c0-0.5,0.4-0.9,0.9-0.9h1.9c0.5,0,0.9,0.4,0.9,0.9v18.2
								C449.9,1335.6,449.5,1336,449,1336z"/>
							<path class="st6" d="M462.6,1336h-1.9c-0.5,0-0.9-0.4-0.9-0.9v-18.2c0-0.5,0.4-0.9,0.9-0.9h1.9c0.5,0,0.9,0.4,0.9,0.9v18.2
								C463.5,1335.6,463.1,1336,462.6,1336z"/>
							<path class="st6" d="M476.2,1336h-1.9c-0.5,0-0.9-0.4-0.9-0.9v-18.2c0-0.5,0.4-0.9,0.9-0.9h1.9c0.5,0,0.9,0.4,0.9,0.9v18.2
								C477.2,1335.6,476.8,1336,476.2,1336z"/>
							<path class="st6" d="M489.9,1336H488c-0.5,0-0.9-0.4-0.9-0.9v-18.2c0-0.5,0.4-0.9,0.9-0.9h1.9c0.5,0,0.9,0.4,0.9,0.9v18.2
								C490.8,1335.6,490.4,1336,489.9,1336z"/>
							<path class="st6" d="M503.5,1336h-1.9c-0.5,0-0.9-0.4-0.9-0.9v-18.2c0-0.5,0.4-0.9,0.9-0.9h1.9c0.5,0,0.9,0.4,0.9,0.9v18.2
								C504.5,1335.6,504,1336,503.5,1336z"/>
							<path class="st6" d="M517.1,1336h-1.9c-0.5,0-0.9-0.4-0.9-0.9v-18.2c0-0.5,0.4-0.9,0.9-0.9h1.9c0.5,0,0.9,0.4,0.9,0.9v18.2
								C518.1,1335.6,517.7,1336,517.1,1336z"/>
							<path class="st6" d="M530.8,1336h-1.9c-0.5,0-0.9-0.4-0.9-0.9v-18.2c0-0.5,0.4-0.9,0.9-0.9h1.9c0.5,0,0.9,0.4,0.9,0.9v18.2
								C531.7,1335.6,531.3,1336,530.8,1336z"/>
						</g>
					</g>
					<g>
						<path class="st3" d="M534.7,1376.3H361.3c-2.3,0-4.2-1.9-4.2-4.2v-22.8c0-2.3,1.9-4.2,4.2-4.2h173.3c2.3,0,4.2,1.9,4.2,4.2
							v22.8C538.9,1374.4,537,1376.3,534.7,1376.3z"/>
						<g>
							<path class="st6" d="M367.2,1370.7h-1.9c-0.5,0-0.9-0.4-0.9-0.9v-18.2c0-0.5,0.4-0.9,0.9-0.9h1.9c0.5,0,0.9,0.4,0.9,0.9v18.2
								C368.1,1370.3,367.7,1370.7,367.2,1370.7z"/>
							<path class="st6" d="M380.8,1370.7h-1.9c-0.5,0-0.9-0.4-0.9-0.9v-18.2c0-0.5,0.4-0.9,0.9-0.9h1.9c0.5,0,0.9,0.4,0.9,0.9v18.2
								C381.7,1370.3,381.3,1370.7,380.8,1370.7z"/>
							<path class="st6" d="M394.4,1370.7h-1.9c-0.5,0-0.9-0.4-0.9-0.9v-18.2c0-0.5,0.4-0.9,0.9-0.9h1.9c0.5,0,0.9,0.4,0.9,0.9v18.2
								C395.4,1370.3,395,1370.7,394.4,1370.7z"/>
							<path class="st6" d="M408.1,1370.7h-1.9c-0.5,0-0.9-0.4-0.9-0.9v-18.2c0-0.5,0.4-0.9,0.9-0.9h1.9c0.5,0,0.9,0.4,0.9,0.9v18.2
								C409,1370.3,408.6,1370.7,408.1,1370.7z"/>
							<path class="st6" d="M421.7,1370.7h-1.9c-0.5,0-0.9-0.4-0.9-0.9v-18.2c0-0.5,0.4-0.9,0.9-0.9h1.9c0.5,0,0.9,0.4,0.9,0.9v18.2
								C422.6,1370.3,422.2,1370.7,421.7,1370.7z"/>
							<path class="st6" d="M435.3,1370.7h-1.9c-0.5,0-0.9-0.4-0.9-0.9v-18.2c0-0.5,0.4-0.9,0.9-0.9h1.9c0.5,0,0.9,0.4,0.9,0.9v18.2
								C436.3,1370.3,435.9,1370.7,435.3,1370.7z"/>
							<path class="st6" d="M449,1370.7H447c-0.5,0-0.9-0.4-0.9-0.9v-18.2c0-0.5,0.4-0.9,0.9-0.9h1.9c0.5,0,0.9,0.4,0.9,0.9v18.2
								C449.9,1370.3,449.5,1370.7,449,1370.7z"/>
							<path class="st6" d="M462.6,1370.7h-1.9c-0.5,0-0.9-0.4-0.9-0.9v-18.2c0-0.5,0.4-0.9,0.9-0.9h1.9c0.5,0,0.9,0.4,0.9,0.9v18.2
								C463.5,1370.3,463.1,1370.7,462.6,1370.7z"/>
							<path class="st6" d="M476.2,1370.7h-1.9c-0.5,0-0.9-0.4-0.9-0.9v-18.2c0-0.5,0.4-0.9,0.9-0.9h1.9c0.5,0,0.9,0.4,0.9,0.9v18.2
								C477.2,1370.3,476.8,1370.7,476.2,1370.7z"/>
							<path class="st6" d="M489.9,1370.7H488c-0.5,0-0.9-0.4-0.9-0.9v-18.2c0-0.5,0.4-0.9,0.9-0.9h1.9c0.5,0,0.9,0.4,0.9,0.9v18.2
								C490.8,1370.3,490.4,1370.7,489.9,1370.7z"/>
							<path class="st6" d="M503.5,1370.7h-1.9c-0.5,0-0.9-0.4-0.9-0.9v-18.2c0-0.5,0.4-0.9,0.9-0.9h1.9c0.5,0,0.9,0.4,0.9,0.9v18.2
								C504.5,1370.3,504,1370.7,503.5,1370.7z"/>
							<path class="st6" d="M517.1,1370.7h-1.9c-0.5,0-0.9-0.4-0.9-0.9v-18.2c0-0.5,0.4-0.9,0.9-0.9h1.9c0.5,0,0.9,0.4,0.9,0.9v18.2
								C518.1,1370.3,517.7,1370.7,517.1,1370.7z"/>
							<path class="st6" d="M530.8,1370.7h-1.9c-0.5,0-0.9-0.4-0.9-0.9v-18.2c0-0.5,0.4-0.9,0.9-0.9h1.9c0.5,0,0.9,0.4,0.9,0.9v18.2
								C531.7,1370.3,531.3,1370.7,530.8,1370.7z"/>
						</g>
					</g>
				</g>
			</g>
		</g>
		<g>
			<g>
				<path class="st3" d="M1961.3,1240.6c-1.4,0.3,10.4,200.8,19.5,246l18.8-1.4l4.2-202.9h6.9l10.4,199.4h15.3l14.6-243.2
					C2051,1238.6,1992.6,1234.4,1961.3,1240.6z"/>
				<path class="st5" d="M1980.8,1499.8c0,0,15.3,2.1,24.3,0c0,0,2.8-7.6-5.6-14.6s-18.8,1.4-18.8,1.4V1499.8z"/>
				<path class="st5" d="M2021.1,1481.8c0,0-0.7,11.1,0,16.7c0,0,29.2,1,45.2,0.9c2.9,0,3.8-4,1.1-5.2c-5.2-2.3-14.4-9.9-31-12.3
					H2021.1z"/>
				<path class="st8" d="M1967.6,1078.7c0,0,40.3-13.2,72.3-1.4l16,167.5c0,0-71.6-2.1-95.9,3.5L1967.6,1078.7z"/>
				<path class="st3" d="M1932.1,1092.6c0,0,23.6-13.2,45.9-16.7l-6.7,170c-0.2,4.2-3.2,7.8-7.4,8.6l-2.4,0.5
					c-2.3,0.5-4.4-1.3-4.3-3.6l2.1-71.7c0.4-12.9-2-25.8-6.9-37.7L1932.1,1092.6z"/>
				<path class="st3" d="M2028.7,1074.6c0,0,34.7,2.8,54.9,20.8l-15.7,44.2c-5.3,14.9-8,30.5-8,46.3l-3.3,63.7
					c-0.1,1.9-1.7,3.4-3.6,3.4l0,0c-4.7,0-8.7-3.6-9.1-8.3L2028.7,1074.6z"/>
				<path class="st2" d="M1989.8,1053.7l-0.6,19.8c-0.1,2,1.2,3.7,3,4.4c5.1,1.8,15.5,4.5,25.5,0.9c2-0.7,3.2-2.8,2.9-4.9l-3-20.2
					H1989.8z"/>
				<path class="st2" d="M1981.5,1017.6c0,0,3.5,35.4,11.1,44.5c0,0,22.9,2.1,31.3-2.8c0,0,5.9-17.7,5.2-41.3
					c0,0,1.1-21.5-22.6-23.3C1978.7,992.6,1981.5,1017.6,1981.5,1017.6z"/>
				<path class="st2" d="M2026.6,1028.7c0,0,2.1-6.3,5.6-6.3c3.5,0-0.7,16.7-5.6,16.7V1028.7z"/>
				<path class="st2" d="M1984.6,1030.4c0,0-2.9-5.9-6.4-5.4c-3.4,0.5,2.9,16.4,7.8,15.8L1984.6,1030.4z"/>
				<path class="st3" d="M1983.9,1036.3c0,0,0.8,21.2,10.1,31.9c0.9,1,2.1,1.6,3.4,1.6c4.8,0.2,16.9,0.6,23.8-0.7
					c1.7-0.3,3.1-1.5,3.7-3.2c1.7-4.9,4.6-12.7,3.6-30.6l-5.6,13.3c-4.1,11-6.4-2.4-8.3-2.2H2002c-1.3,0.1-2.8,8.3-7.7,5.9
					L1983.9,1036.3z"/>
				<path class="st3" d="M2019.7,1009.3c0,0-17.7,18.2-37,18.1c0,0-11-29.3,10.6-34.1c21.5-4.9,22.2,1.4,22.2,1.4s25.2-6.2,14,29.6
					L2019.7,1009.3z"/>
				<path class="st5" d="M2012.7,1504.7c-1.2,0-2.1-0.9-2.1-2.1v-295.3c0-1.2,0.9-2.1,2.1-2.1c1.2,0,2.1,0.9,2.1,2.1v295.3
					C2014.8,1503.8,2013.9,1504.7,2012.7,1504.7z"/>
				<path class="st3" d="M2021.8,1203.1c0,0,39.6,22.2,49.3-6.3c9.7-28.5-8.3-46.6-8.3-46.6l20.8-54.9c0,0,39.6,73,11.8,117.4
					c-26,41.7-72.3,3.5-72.3,3.5L2021.8,1203.1z"/>
				<path class="st3" d="M1932.1,1092.6c0,0-37.5,125.1,0,141.8c37.5,16.7,68.8-23.6,68.8-23.6l-4.2-11.8c0,0-34,19.5-45.2,9.7
					c-11.1-9.7,7.6-66.7,7.6-66.7L1932.1,1092.6z"/>
				<linearGradient id="SVGID_1_" gradientUnits="userSpaceOnUse" x1="2006.0858" y1="1208.3074" x2="2023.1722" y2="1208.3074">
					<stop  offset="0" style="stop-color:#FF928E"/>
					<stop  offset="1" style="stop-color:#FEB3B1"/>
				</linearGradient>
				<path class="st10" d="M2023.2,1216.3c0,0-7.6,0.7-11.8-3.5c-4.2-4.2-8.3-11.8-2.1-12.5c6.3-0.7,12.5,2.8,12.5,2.8L2023.2,1216.3
					z"/>
				<path class="st2" d="M2026,1203.1c0,0-18.1-11.1-29.2-4.2c0,0-2.1,8.3,4.2,11.8c0,0,11.1,7.6,20.2,3.5
					C2030.1,1210.1,2026,1203.1,2026,1203.1z"/>
			</g>
			<g>
				<path class="st2" d="M2084.9,1171.5c0,0,0.3-3.3-1.2-6.9c-1.5-3.6-9.9-4.3-12.2-6.9c-2.3-2.6-2.8,2.1-1.5,3.3
					c1.3,1.1-12.9-0.3-14.7-3.6c0,0-3.8-4.2-3.8,0.4c0,4.6,10.9,10.7,15.3,11.2c4.4,0.4,7.5,2.9,7.7,4.1
					C2076.7,1173.9,2084.9,1171.5,2084.9,1171.5z"/>
				<path class="st8" d="M2118.2,1130.6c0,0-15.7,20.8-14.7,53.9c1,33.1-5.3,19.2-12,2.8c-6.7-16.4-6.7-16.4-6.7-16.4l-10.5,2.1
					c0,0,13.2,63.2,31.5,59.3c18.4-3.9,20.1-51.4,20.1-60.7C2125.8,1162.3,2118.2,1130.6,2118.2,1130.6z"/>
				<g>
					<path class="st11" d="M2157.4,1492.6l1.3,3.1l-0.5,11.1c-0.1,1.6-1.3,2.9-3,3.1c-2.3,0.4-5.7,0.7-8.9,0.5
						c-2.5-0.2-4-2.5-3.1-4.6l3.7-8c0.6-1.2,1.6-2.1,2.8-2.6L2157.4,1492.6z"/>
					<path class="st12" d="M2161.3,1391.8c0,0,0,80.6-3.8,103.3c-0.2,1.2-1.1,2.1-2.2,2.3c-1.1,0.2-2.5,0.1-4.3-0.6
						c-0.9-0.4-1.5-1.2-1.6-2.2l-10.7-101.3L2161.3,1391.8z"/>
					<path class="st11" d="M2170.8,1492.6l-1.3,3.1l-0.9,11.1c0.1,1.6,1.3,2.9,3,3.1c2.3,0.4,7.1,0.7,10.3,0.5
						c2.5-0.2,4-2.5,3.1-4.6l-3.7-8c-0.6-1.2-1.6-2.1-2.8-2.6L2170.8,1492.6z"/>
					<path class="st12" d="M2166.9,1391.8c0,0,0,81.6,3.9,103.8c0.1,0.7,0.6,1.3,1.3,1.6c1.1,0.4,3,0.6,5.4-0.6
						c0.6-0.3,1.1-0.9,1.1-1.6l10.8-101.7L2166.9,1391.8z"/>
				</g>
				<path class="st3" d="M2128.8,1232.4c-11.2,25.8-10.2,98.6,5.6,171.7c0,0,39.1,3.5,57.9,0c0,0,25.8-150.7-1.4-171.7H2128.8z"/>
				<path class="st8" d="M2209.8,1135.4c0,0-14.7-24.4-45.4-31.4l-16.1-0.7c0,0-23,11.2-32.8,32.1l12.6,53.7l0.7,43.3
					c0,0,37,8.4,62.1,0l5.6-53L2209.8,1135.4z"/>
				<path class="st2" d="M2147,1083.8v26.4c0,2.1,1.6,4,3.7,4.3c3.5,0.5,8.9,0.9,13.6-0.5c2.1-0.6,3.5-2.8,3-5l-4.9-25.3H2147z"/>
				<path class="st2" d="M2120.7,1057.6c0,0-1.6,47.7,20.3,46c25.8-1.9,23.2-36,23.2-36S2123.2,1014.8,2120.7,1057.6z"/>
				<path class="st3" d="M2163.9,1045.7c0,0-14.1-13.6-9.5-22.8c4.6-9.1,18.5-10.5,24.9,2.5
					C2185.6,1038.4,2173,1059.1,2163.9,1045.7z"/>
				<path class="st3" d="M2113.1,1056.3c0.2,3.8,4.4,6,7.7,4c3.3-2,7.4-4.2,11.2-5.3c25.8-7.6,21.4,12.3,22.3,15
					c1.8,5.4,4.4-4.6,5.3-2.9c2,3.7,2.9,16.8,2.9,16.8s13.9-9.4,17.8-18.6c4.8-11.5-5.5-27.1-11.6-32.2c-5.6-4.7-23.7-8.7-30.7-5.6
					C2131.7,1030.2,2111.9,1035.3,2113.1,1056.3z"/>
				<path class="st2" d="M2157.8,1072.8c0,0-1.4-10.6,4.6-10.4c6,0.2,0.5,14.6-2.2,17.7L2157.8,1072.8z"/>
				<path class="st8" d="M2209.8,1135.4c0,0,50.9,78.9-7.7,115.1l-5.3-7.6c0,0,27.7-40.5,1.9-76.8L2209.8,1135.4z"/>
				<path class="st5" d="M2190.3,1513.3c-1.3,0-2.4-1.1-2.4-2.4v-255.4c0-1.3,1.1-2.4,2.4-2.4c1.3,0,2.4,1.1,2.4,2.4v255.4
					C2192.7,1512.2,2191.6,1513.3,2190.3,1513.3z"/>
				<path class="st2" d="M2196.5,1242.9c0,0-13.3,4.9-14,15.4c-0.7,10.5,0.7,13.3,2.8,9.8c2.1-3.5,4.2-7,8.4-9.8
					c4.2-2.8,8.4-7.7,8.4-7.7S2201.4,1242.9,2196.5,1242.9z"/>
			</g>
		</g>
		<g>
			<g>
				<g>
					<path class="st8" d="M979,610.3c-27.3,3.5-92,5.6-167.9-34.2c-5.1-2.7-11.4-1.5-15.1,3c-10.8,13.2-32.7,40.5-44.4,60.3
						c-3.4,5.8-1.2,13.3,4.9,16.1c30.6,14.2,121.7,49.9,202.2,13.1c3.9-1.8,7-4.9,8.8-8.7l18.9-39.2
						C989.1,615.6,984.8,609.6,979,610.3z"/>
					<path class="st6" d="M866.1,677.2c1.2,0.3,2.5-0.2,3.2-1.3l34.1-53.4c0.9-1.4,0.5-3.2-0.9-4.1c-1.4-0.9-3.2-0.5-4.1,0.9
						l-34.1,53.4c-0.9,1.4-0.5,3.2,0.9,4.1C865.5,677,865.8,677.1,866.1,677.2z"/>
					<path class="st6" d="M833.7,675.8c1.1,0.2,2.2-0.1,3-1l45.6-57.2c1-1.3,0.8-3.1-0.5-4.2c-1.3-1-3.1-0.8-4.2,0.5L832.1,671
						c-1,1.3-0.8,3.1,0.5,4.2C832.9,675.5,833.3,675.7,833.7,675.8z"/>
					<path class="st6" d="M812.6,670.4c1.1,0.2,2.3-0.1,3-1.1l46.5-60.4c1-1.3,0.8-3.2-0.5-4.2c-1.3-1-3.2-0.8-4.2,0.5l-46.5,60.4
						c-1,1.3-0.8,3.2,0.5,4.2C811.8,670.2,812.2,670.3,812.6,670.4z"/>
					<path class="st6" d="M796.8,663c1.2,0.3,2.5-0.2,3.2-1.3l38.2-62.2c0.9-1.4,0.4-3.2-1-4.1c-1.4-0.9-3.2-0.4-4.1,1l-38.2,62.2
						c-0.9,1.4-0.4,3.2,1,4.1C796.1,662.8,796.4,662.9,796.8,663z"/>
					<path class="st6" d="M773.6,656.2c1.2,0.3,2.4-0.2,3.1-1.3l44-66.3c0.9-1.4,0.5-3.2-0.8-4.1c-1.4-0.9-3.2-0.5-4.1,0.8l-44,66.3
						c-0.9,1.4-0.5,3.2,0.8,4.1C772.9,656,773.2,656.1,773.6,656.2z"/>
				</g>
				<g>
					<path class="st8" d="M725,575.4l-36.3,44.9c-2.7,3.4-7.3,4.7-11.4,3.2c-23.5-8.5-101.4-40.5-151.8-107.6
						c-3.3-4.5-3.6-10.5-0.8-15.3l51.4-86.9c3.5-5.8,11-7.9,16.8-4.4c16.9,9.8,49.6,33.8,71.4,82.1c13.3,29.4,42.8,54.6,58.5,66.5
						C728.4,562.1,729.4,570,725,575.4z"/>
					<path class="st6" d="M627.3,590.4c1,0.2,2.2-0.1,2.9-1l47.8-56.9c1.1-1.3,0.9-3.1-0.4-4.2c-1.3-1.1-3.1-0.9-4.2,0.4l-47.8,56.9
						c-1.1,1.3-0.9,3.1,0.4,4.2C626.4,590.1,626.9,590.3,627.3,590.4z"/>
					<path class="st6" d="M606.3,580.1c1,0.2,2.1-0.1,2.9-0.9l57.3-63.3c1.1-1.2,1-3.1-0.2-4.2c-1.2-1.1-3.1-1-4.2,0.2l-57.3,63.3
						c-1.1,1.2-1,3.1,0.2,4.2C605.4,579.7,605.9,580,606.3,580.1z"/>
					<path class="st6" d="M590.2,566c1.1,0.3,2.3-0.2,3.1-1.2l27.7-38.5c1-1.3,0.6-3.2-0.7-4.1c-1.3-0.9-3.2-0.7-4.1,0.7l-27.7,38.5
						c-1,1.3-0.6,3.2,0.7,4.1C589.5,565.8,589.9,565.9,590.2,566z"/>
					<path class="st6" d="M569.5,545.6c1.2,0.3,2.4-0.2,3.1-1.2l57.3-84.9c0.9-1.4,0.6-3.2-0.8-4.1c-1.4-0.9-3.2-0.6-4.1,0.8
						L567.7,541c-0.9,1.4-0.6,3.2,0.8,4.1C568.8,545.3,569.2,545.5,569.5,545.6z"/>
					<path class="st6" d="M557.3,532.4c1.3,0.3,2.6-0.3,3.2-1.5l52.5-94.9c0.8-1.4,0.3-3.2-1.2-4c-1.4-0.8-3.2-0.3-4,1.2l-52.5,94.9
						c-0.8,1.4-0.3,3.2,1.2,4C556.8,532.2,557.1,532.3,557.3,532.4z"/>
				</g>
				<g>
					<path class="st2" d="M610.9,531.1c-9.7,10.4-30.7,34.1-35.4,49.3c-0.8,2.6-3.4,4.2-6.1,3.8c-24.8-3.7-132-24.6-162.5-108.1
						c-0.6-1.5-0.4-3.2,0.4-4.6c7.5-13,46.9-79.9,81.1-113.4c2.8-2.7,7.4-1.7,8.9,1.8c11.9,28.4,57.8,131.1,112.3,162.6
						C612.7,524.4,613.3,528.5,610.9,531.1z"/>
					<path class="st8" d="M428.3,487.9c1.4,0.3,2.9-0.5,3.4-1.9c13.6-38,64.3-88.4,64.8-88.9c1.2-1.1,1.2-3,0-4.2
						c-1.2-1.2-3-1.2-4.2,0c-2.1,2.1-52.2,51.9-66.2,91.1c-0.6,1.5,0.2,3.2,1.8,3.8C428.1,487.8,428.2,487.9,428.3,487.9z"/>
					<path class="st8" d="M443.6,499.3c1.3,0.3,2.7-0.4,3.3-1.6c12.5-26.8,58.4-80.7,58.9-81.2c1.1-1.2,0.9-3.1-0.3-4.2
						c-1.2-1.1-3.1-0.9-4.2,0.3c-1.9,2.2-46.9,55-59.8,82.6c-0.7,1.5,0,3.2,1.4,3.9C443.2,499.2,443.4,499.2,443.6,499.3z"/>
					<path class="st8" d="M456.7,516.2c1.1,0.3,2.3-0.1,3-1.1l20.2-27c1-1.3,0.7-3.2-0.6-4.1c-1.3-1-3.2-0.7-4.1,0.6l-20.2,27
						c-1,1.3-0.7,3.2,0.6,4.1C455.9,516,456.3,516.2,456.7,516.2z"/>
					<path class="st8" d="M472.1,526.6c1.2,0.3,2.4-0.2,3.1-1.3l16.2-25.1c0.9-1.4,0.5-3.2-0.9-4.1c-1.4-0.9-3.2-0.5-4.1,0.9
						l-16.2,25.1c-0.9,1.4-0.5,3.2,0.9,4.1C471.4,526.4,471.7,526.5,472.1,526.6z"/>
				</g>
				<g>
					<path class="st6" d="M1112.6,554.8c-23.7,8.4-94.8,31.3-144.5,21.2c-1.9-0.4-3.9,0.5-4.9,2.2l-39.9,67.6
						c-1.8,3,0.2,6.9,3.7,7.1c28.5,1.7,129.6,4.8,177.9-35.9c0.8-0.7,1.3-1.6,1.5-2.6l12.3-54.2
						C1119.5,556.6,1116,553.5,1112.6,554.8z"/>
					<path class="st8" d="M944.3,643.7c1.3,0.3,2.6-0.3,3.2-1.5l30.5-55.4c0.8-1.4,0.3-3.2-1.2-4c-1.4-0.8-3.2-0.3-4,1.2l-30.5,55.4
						c-0.8,1.4-0.3,3.2,1.2,4C943.8,643.6,944.1,643.7,944.3,643.7z"/>
					<path class="st8" d="M963.6,645.9c1.3,0.3,2.7-0.3,3.3-1.6l27.2-57c0.7-1.5,0.1-3.2-1.4-3.9c-1.5-0.7-3.2-0.1-3.9,1.4l-27.2,57
						c-0.7,1.5-0.1,3.2,1.4,3.9C963.2,645.8,963.4,645.9,963.6,645.9z"/>
					<path class="st8" d="M995.2,616.3c1.3,0.3,2.7-0.3,3.3-1.6c4.7-9.5,12.7-25.7,13.1-28.5c0.2-1.6-0.9-3.1-2.5-3.3
						c-1.6-0.2-3.1,0.9-3.3,2.5c-0.5,2-6.7,15.2-12.5,26.7c-0.7,1.5-0.1,3.2,1.3,4C994.8,616.1,995,616.2,995.2,616.3z"/>
					<path class="st8" d="M1066.3,627.6c1.6,0.4,3.1-0.6,3.5-2.1c13.2-51.3,12.3-53.9,12-54.8c-0.5-1.5-2.2-2.4-3.7-1.9
						c-1.4,0.5-2.2,1.9-2,3.3c0,3.5-6.2,29.2-12,51.9C1063.7,625.6,1064.7,627.2,1066.3,627.6
						C1066.3,627.6,1066.3,627.6,1066.3,627.6z M1076.2,572.5C1076.2,572.5,1076.2,572.5,1076.2,572.5
						C1076.2,572.5,1076.2,572.5,1076.2,572.5z"/>
				</g>
			</g>
			<g>
				<g>
					
						<ellipse transform="matrix(0.932 -0.3626 0.3626 0.932 -79.9478 395.5671)" class="st5" cx="1013.9" cy="410.8" rx="63.7" ry="63.7"/>
					
						<ellipse transform="matrix(0.998 -6.253068e-02 6.253068e-02 0.998 -23.7023 64.2037)" class="st1" cx="1013.9" cy="410.8" rx="61.6" ry="61.6"/>
					<path class="st9" d="M966.2,382.4c-0.5,0-1-0.1-1.4-0.4c-1.2-0.8-1.5-2.4-0.8-3.6c12.3-18.9,33.9-29.2,56.4-26.7
						c3.6,0.4,7.1,1.1,10.6,2.1c1.4,0.4,2.1,1.9,1.7,3.2c-0.4,1.4-1.9,2.1-3.2,1.7c-3.1-0.9-6.4-1.6-9.6-1.9
						c-20.5-2.3-40.2,7.1-51.5,24.4C967.9,382,967,382.4,966.2,382.4z"/>
					
						<ellipse transform="matrix(0.9641 -0.2656 0.2656 0.9641 -73.0367 284.3998)" class="st2" cx="1015.1" cy="412.3" rx="52.1" ry="52.1"/>
					<g>
						<path class="st5" d="M1005.8,450.2l0.6-5.6c-5.9-0.9-11.5-2.9-15.4-5.2c-1.4-0.8-2-2.5-1.4-4.1l2-5.1c0.7-1.9,2.9-2.6,4.7-1.7
							c3.9,2.2,8.8,4.1,14.3,4.7c5.7,0.6,10.1-0.8,10.5-4.8c0.4-3.6-2.6-6-10.3-9c-10.9-4.3-18.4-10.1-17.3-20
							c1-8.9,8.3-15,19.8-15.6l0.6-5.6c0.2-1.8,1.8-3.1,3.6-2.9l3.3,0.4c1.8,0.2,3.1,1.8,2.9,3.6l-0.6,5.1c5.4,0.8,9.3,2.2,12.3,3.6
							c1.5,0.7,2.2,2.6,1.6,4.2l-1.9,4.7c-0.7,1.8-2.8,2.6-4.6,1.7c-2.8-1.4-6.7-3-12.1-3.6c-6.7-0.7-8.9,1.8-9.2,4.3
							c-0.3,3.1,3.5,5.6,11.9,9.3c12.1,5.1,16.7,10.9,15.7,20.2c-0.9,8.5-8.1,15.5-20.6,16.1l-0.7,6.3c-0.2,1.8-1.8,3.1-3.6,2.9
							l-3.3-0.4C1006.9,453.7,1005.6,452.1,1005.8,450.2z"/>
					</g>
				</g>
				<g>
					
						<ellipse transform="matrix(0.2486 -0.9686 0.9686 0.2486 563.6393 1417.5844)" class="st5" cx="1195.5" cy="345.5" rx="110.9" ry="110.9"/>
					
						<ellipse transform="matrix(0.7071 -0.7071 0.7071 0.7071 105.8378 946.5378)" class="st1" cx="1195.5" cy="345.5" rx="107.3" ry="107.3"/>
					<path class="st9" d="M1112.5,294.1c-0.5,0-1-0.1-1.4-0.4c-1.2-0.8-1.5-2.4-0.8-3.6c21.1-32.4,58-49.8,96.3-45.6
						c6.1,0.7,12.2,1.9,18,3.6c1.4,0.4,2.1,1.9,1.7,3.2c-0.4,1.4-1.9,2.1-3.2,1.7c-5.6-1.7-11.3-2.8-17.1-3.5
						c-36.4-4-71.4,12.6-91.4,43.3C1114.1,293.7,1113.3,294.1,1112.5,294.1z"/>
					
						<ellipse transform="matrix(0.243 -0.97 0.97 0.243 568.9404 1425.1935)" class="st2" cx="1197.6" cy="348.1" rx="90.8" ry="90.8"/>
					<g>
						<path class="st5" d="M1181.3,414.2l1.1-9.8c-10.2-1.5-20-5.1-26.9-9c-2.4-1.4-3.4-4.4-2.4-7.1l3.5-8.9
							c1.3-3.3,5.1-4.6,8.2-2.9c6.8,3.8,15.3,7.1,24.8,8.2c9.9,1.1,17.6-1.4,18.3-8.3c0.7-6.2-4.6-10.5-17.9-15.7
							c-19-7.5-32.1-17.6-30.2-34.8c1.7-15.5,14.4-26.1,34.4-27.2l1.1-9.8c0.3-3.2,3.2-5.4,6.3-5.1l5.8,0.6c3.2,0.3,5.4,3.2,5.1,6.3
							l-1,8.8c9.4,1.4,16.1,3.8,21.4,6.3c2.7,1.3,3.9,4.5,2.8,7.3l-3.2,8.2c-1.2,3.2-4.9,4.6-8,3c-4.8-2.5-11.7-5.2-21-6.2
							c-11.7-1.3-15.6,3.2-16,7.5c-0.6,5.3,6,9.8,20.7,16.1c21,8.9,29,18.9,27.2,35.1c-1.6,14.9-14.1,27-35.9,28l-1.2,11
							c-0.3,3.2-3.2,5.4-6.3,5.1l-5.8-0.6C1183.2,420.2,1181,417.4,1181.3,414.2z"/>
					</g>
				</g>
				<g>
					
						<ellipse transform="matrix(0.7071 -0.7071 0.7071 0.7071 -64.939 1063.6146)" class="st5" cx="1251.4" cy="610.2" rx="114.2" ry="114.2"/>
					
						<ellipse transform="matrix(0.7071 -0.7071 0.7071 0.7071 -64.939 1063.6146)" class="st1" cx="1251.4" cy="610.2" rx="110.4" ry="110.4"/>
					<path class="st9" d="M1166,557.3c-0.5,0-1-0.1-1.4-0.4c-1.2-0.8-1.5-2.4-0.8-3.6c21.7-33.3,59.6-51.2,99-46.9
						c6.3,0.7,12.5,2,18.5,3.7c1.4,0.4,2.1,1.9,1.7,3.2c-0.4,1.4-1.9,2.1-3.2,1.7c-5.7-1.7-11.6-2.9-17.6-3.6
						c-37.5-4.1-73.6,13-94.1,44.6C1167.7,556.8,1166.8,557.3,1166,557.3z"/>
					
						<ellipse transform="matrix(0.3209 -0.9471 0.9471 0.3209 270.9015 1603.4934)" class="st2" cx="1253.6" cy="612.8" rx="93.4" ry="93.4"/>
					<g>
						<path class="st5" d="M1236.8,680.9l1.1-10.1c-10.5-1.6-20.6-5.2-27.7-9.3c-2.5-1.4-3.5-4.6-2.5-7.3l3.6-9.1
							c1.3-3.3,5.3-4.7,8.4-3c7,3.9,15.8,7.3,25.6,8.4c10.1,1.1,18.1-1.5,18.9-8.5c0.7-6.4-4.7-10.8-18.4-16.1
							c-19.5-7.7-33-18.1-31-35.8c1.8-16,14.8-26.9,35.4-27.9l1.1-10.1c0.4-3.3,3.3-5.6,6.5-5.2l5.9,0.7c3.3,0.4,5.6,3.3,5.2,6.5
							l-1,9.1c9.7,1.5,16.6,3.9,22,6.5c2.8,1.3,4,4.6,2.9,7.5l-3.3,8.4c-1.3,3.3-5.1,4.7-8.2,3.1c-5-2.5-12.1-5.4-21.6-6.4
							c-12-1.3-16,3.3-16.5,7.8c-0.6,5.5,6.2,10.1,21.3,16.6c21.6,9.2,29.9,19.5,28,36.1c-1.7,15.3-14.5,27.8-36.9,28.8l-1.2,11.3
							c-0.4,3.3-3.3,5.6-6.5,5.2l-5.9-0.7C1238.8,687,1236.5,684.1,1236.8,680.9z"/>
					</g>
				</g>
				<g>
					
						<ellipse transform="matrix(0.272 -0.9623 0.9623 0.272 575.4808 1704.0264)" class="st5" cx="1414" cy="471.6" rx="83.6" ry="83.6"/>
					
						<ellipse transform="matrix(0.5038 -0.8638 0.8638 0.5038 294.2267 1455.502)" class="st1" cx="1414" cy="471.6" rx="80.9" ry="80.9"/>
					<path class="st9" d="M1351.4,433.6c-0.5,0-1-0.1-1.4-0.4c-1.2-0.8-1.5-2.4-0.8-3.6c16-24.6,44.1-37.9,73.2-34.7
						c4.7,0.5,9.3,1.4,13.7,2.8c1.4,0.4,2.1,1.9,1.7,3.2c-0.4,1.4-1.9,2.1-3.2,1.7c-4.1-1.2-8.5-2.1-12.8-2.6
						c-27.2-3-53.4,9.4-68.3,32.4C1353.1,433.1,1352.3,433.6,1351.4,433.6z"/>
					
						<ellipse transform="matrix(0.7071 -0.7071 0.7071 0.7071 79.7318 1139.6757)" class="st2" cx="1415.6" cy="473.6" rx="68.4" ry="68.4"/>
					<g>
						<path class="st5" d="M1403.3,523.4l0.8-7.4c-7.7-1.2-15.1-3.8-20.3-6.8c-1.8-1.1-2.6-3.3-1.8-5.3l2.6-6.7
							c1-2.5,3.9-3.5,6.2-2.2c5.1,2.8,11.6,5.4,18.7,6.1c7.4,0.8,13.3-1.1,13.8-6.3c0.5-4.7-3.5-7.9-13.5-11.8
							c-14.3-5.7-24.2-13.2-22.7-26.2c1.3-11.7,10.8-19.7,26-20.5l0.8-7.4c0.3-2.4,2.4-4.1,4.8-3.8l4.3,0.5c2.4,0.3,4.1,2.4,3.8,4.8
							l-0.7,6.6c7.1,1.1,12.2,2.9,16.1,4.8c2,1,2.9,3.4,2.1,5.5l-2.4,6.2c-0.9,2.4-3.7,3.4-6,2.3c-3.6-1.9-8.8-3.9-15.8-4.7
							c-8.8-1-11.7,2.4-12.1,5.7c-0.4,4,4.5,7.4,15.6,12.2c15.8,6.7,21.9,14.3,20.5,26.5c-1.2,11.2-10.7,20.4-27.1,21.1l-0.9,8.3
							c-0.3,2.4-2.4,4.1-4.8,3.8l-4.3-0.5C1404.8,528,1403.1,525.8,1403.3,523.4z"/>
					</g>
				</g>
			</g>
		</g>
		<g>
			<path class="st2" d="M818.7,431.7l-3.4-1.8c-0.3-0.2-0.5-0.6-0.3-0.9c0.2-0.3,0.6-0.5,0.9-0.3l0,0l3.4,1.9
				c0.3,0.2,0.4,0.6,0.3,0.9C819.4,431.7,819,431.8,818.7,431.7z"/>
			<path class="st2" d="M807.2,425.7l-3.5-1.8l0,0c-0.4-0.2-0.5-0.6-0.3-1c0.2-0.4,0.6-0.5,1-0.3l0,0l3.5,1.8c0.4,0.2,0.5,0.6,0.3,1
				C808,425.7,807.6,425.8,807.2,425.7L807.2,425.7z"/>
			<path class="st2" d="M795.6,419.9l-3.5-1.7l0,0c-0.4-0.2-0.6-0.7-0.4-1.1c0.2-0.4,0.7-0.6,1.1-0.4l0,0l3.5,1.7
				c0.4,0.2,0.6,0.7,0.4,1.1C796.5,420,796,420.1,795.6,419.9L795.6,419.9z"/>
			<path class="st2" d="M783.9,414.5l-3.5-1.6l0,0c-0.4-0.2-0.6-0.7-0.4-1.2c0.2-0.4,0.7-0.6,1.2-0.4l0,0l3.5,1.6
				c0.4,0.2,0.6,0.7,0.4,1.1C784.8,414.5,784.3,414.7,783.9,414.5L783.9,414.5z"/>
			<path class="st2" d="M772,409.3l-3.6-1.5l0,0c-0.5-0.2-0.7-0.8-0.5-1.2c0.2-0.5,0.8-0.7,1.2-0.5l0,0l3.6,1.5
				c0.5,0.2,0.7,0.7,0.5,1.2C773,409.3,772.5,409.5,772,409.3L772,409.3z"/>
			<path class="st2" d="M760,404.4l-3.6-1.4l0,0c-0.5-0.2-0.8-0.8-0.6-1.3c0.2-0.5,0.8-0.8,1.3-0.6l0,0l3.6,1.4
				c0.5,0.2,0.7,0.8,0.5,1.3C761.1,404.4,760.6,404.6,760,404.4L760,404.4z"/>
			<path class="st2" d="M748,399.8l-3.6-1.3l0,0c-0.5-0.2-0.8-0.8-0.6-1.3c0.2-0.5,0.8-0.8,1.3-0.6l0,0l3.7,1.4
				c0.5,0.2,0.8,0.8,0.6,1.3C749.1,399.7,748.5,400,748,399.8L748,399.8z"/>
			<path class="st2" d="M735.8,395.5l-3.7-1.2l0,0c-0.6-0.2-0.9-0.8-0.7-1.4c0.2-0.6,0.8-0.9,1.4-0.7l0,0l3.7,1.3
				c0.6,0.2,0.9,0.8,0.7,1.4C736.9,395.4,736.3,395.7,735.8,395.5L735.8,395.5z"/>
			<path class="st2" d="M723.5,391.5l-3.7-1.1l0,0c-0.6-0.2-1-0.8-0.8-1.4c0.2-0.6,0.8-1,1.4-0.8l0,0l3.7,1.2
				c0.6,0.2,0.9,0.8,0.7,1.4C724.7,391.4,724.1,391.7,723.5,391.5L723.5,391.5z"/>
			<path class="st2" d="M711.1,387.9l-3.7-1l0,0c-0.6-0.2-1-0.8-0.8-1.5c0.2-0.6,0.8-1,1.5-0.8l0,0l3.7,1.1c0.6,0.2,1,0.8,0.8,1.5
				C712.4,387.7,711.7,388,711.1,387.9L711.1,387.9z"/>
			<path class="st2" d="M698.6,384.5l-3.8-0.9l0,0c-0.7-0.2-1.1-0.8-0.9-1.5c0.2-0.7,0.8-1.1,1.5-0.9l0,0l3.8,1
				c0.7,0.2,1.1,0.8,0.9,1.5C699.9,384.3,699.2,384.7,698.6,384.5L698.6,384.5z"/>
			<path class="st2" d="M686,381.5l-3.8-0.8l0,0c-0.7-0.2-1.2-0.9-1-1.6c0.2-0.7,0.9-1.2,1.6-1l0,0l3.8,0.9c0.7,0.2,1.1,0.9,1,1.5
				C687.4,381.3,686.7,381.7,686,381.5L686,381.5z"/>
			<path class="st2" d="M673.4,378.9l-3.8-0.7l0,0c-0.7-0.1-1.2-0.9-1.1-1.6c0.1-0.7,0.9-1.2,1.6-1.1l0,0l3.8,0.8
				c0.7,0.1,1.2,0.9,1.1,1.6C674.8,378.5,674.1,379,673.4,378.9L673.4,378.9z"/>
			<path class="st2" d="M660.6,376.6l-3.8-0.6l0,0c-0.8-0.1-1.3-0.9-1.2-1.6c0.1-0.8,0.9-1.3,1.6-1.2l0,0l3.8,0.7
				c0.8,0.1,1.3,0.9,1.1,1.6C662.1,376.2,661.4,376.7,660.6,376.6L660.6,376.6z"/>
			<path class="st2" d="M647.9,374.6l-3.8-0.5l0,0c-0.8-0.1-1.4-0.8-1.3-1.6c0.1-0.8,0.8-1.4,1.6-1.3l0,0l3.9,0.5
				c0.8,0.1,1.3,0.8,1.2,1.6C649.4,374.2,648.7,374.7,647.9,374.6L647.9,374.6z"/>
			<path class="st2" d="M635.1,373l-3.9-0.4l0,0c-0.8-0.1-1.4-0.8-1.3-1.7c0.1-0.8,0.8-1.4,1.7-1.3l0,0l3.9,0.4
				c0.8,0.1,1.4,0.8,1.3,1.7C636.6,372.5,635.9,373.1,635.1,373L635.1,373z"/>
			<path class="st2" d="M622.2,371.8l-3.9-0.3l0,0c-0.9-0.1-1.5-0.8-1.4-1.7c0.1-0.9,0.8-1.5,1.7-1.4l0,0l3.9,0.3
				c0.9,0.1,1.5,0.8,1.4,1.7C623.8,371.3,623.1,371.9,622.2,371.8L622.2,371.8z"/>
			<path class="st2" d="M609.3,371l-3.9-0.2l0,0c-0.9,0-1.6-0.8-1.5-1.7c0-0.9,0.8-1.6,1.7-1.5l0,0l3.9,0.2c0.9,0,1.6,0.8,1.5,1.7
				C611,370.4,610.2,371,609.3,371L609.3,371z"/>
			<path class="st2" d="M596.4,370.6l-3.9-0.1l0,0c-0.9,0-1.6-0.8-1.6-1.7c0-0.9,0.8-1.6,1.7-1.6l0,0l3.9,0.1c0.9,0,1.6,0.8,1.6,1.7
				C598.1,369.9,597.3,370.6,596.4,370.6L596.4,370.6z"/>
			<path class="st2" d="M583.5,370.5l-3.9,0.1l0,0c-0.9,0-1.7-0.7-1.7-1.7c0-0.9,0.7-1.7,1.7-1.7l0,0l3.9,0c0.9,0,1.7,0.7,1.7,1.7
				C585.2,369.7,584.5,370.5,583.5,370.5L583.5,370.5z"/>
			<path class="st2" d="M570.6,370.9l-3.9,0.2l0,0c-0.9,0-1.8-0.7-1.8-1.6c0-0.9,0.7-1.8,1.6-1.8l0,0l3.9-0.2c0.9,0,1.7,0.7,1.8,1.6
				C572.3,370,571.6,370.8,570.6,370.9L570.6,370.9z"/>
			<path class="st2" d="M557.8,371.7l-3.9,0.3l0,0c-1,0.1-1.8-0.6-1.9-1.6c-0.1-1,0.6-1.8,1.6-1.9l0,0l3.9-0.3
				c1-0.1,1.8,0.6,1.9,1.6C559.4,370.8,558.7,371.6,557.8,371.7L557.8,371.7z"/>
			<path class="st2" d="M544.9,372.9l-3.8,0.4l0,0c-1,0.1-1.9-0.6-2-1.6c-0.1-1,0.6-1.9,1.6-2l0,0l3.9-0.4c1-0.1,1.8,0.6,2,1.6
				C546.6,371.9,545.9,372.8,544.9,372.9L544.9,372.9z"/>
			<path class="st2" d="M532.1,374.5l-3.8,0.6l0,0c-1,0.2-1.9-0.5-2.1-1.5c-0.2-1,0.5-1.9,1.5-2.1l0,0l3.9-0.6c1-0.1,1.9,0.5,2,1.5
				C533.8,373.5,533.1,374.4,532.1,374.5L532.1,374.5z"/>
			<path class="st2" d="M519.4,376.6l-3.8,0.7l0,0c-1,0.2-2-0.5-2.2-1.5c-0.2-1,0.5-2,1.5-2.2l0,0l3.8-0.7c1-0.2,2,0.5,2.1,1.5
				C521.1,375.5,520.4,376.5,519.4,376.6L519.4,376.6z"/>
			<path class="st2" d="M506.8,379.2l-3.8,0.9l0,0c-1,0.2-2-0.4-2.2-1.4c-0.2-1,0.4-2,1.4-2.2l0,0l3.8-0.9c1-0.2,2,0.4,2.2,1.4
				C508.4,378,507.8,379,506.8,379.2L506.8,379.2z"/>
			<path class="st2" d="M494.3,382.2l-3.7,1l0,0c-1,0.3-2.1-0.3-2.3-1.3c-0.3-1,0.3-2.1,1.3-2.3l0,0l3.8-1c1-0.3,2.1,0.3,2.3,1.4
				C495.9,380.9,495.3,382,494.3,382.2L494.3,382.2z"/>
			<path class="st2" d="M481.9,385.7l-3.7,1.1l0,0c-1,0.3-2.1-0.3-2.4-1.3c-0.3-1,0.3-2.1,1.3-2.4l0,0l3.7-1.1
				c1-0.3,2.1,0.3,2.4,1.3C483.5,384.3,482.9,385.4,481.9,385.7L481.9,385.7z"/>
			<path class="st2" d="M469.6,389.7L466,391l0,0c-1,0.4-2.2-0.2-2.5-1.2c-0.4-1,0.2-2.2,1.2-2.5l0,0l3.7-1.3c1-0.4,2.1,0.2,2.5,1.2
				C471.2,388.3,470.7,389.4,469.6,389.7L469.6,389.7z"/>
			<path class="st2" d="M457.6,394.2l-3.6,1.4l0,0c-1,0.4-2.2-0.1-2.6-1.1c-0.4-1,0.1-2.2,1.1-2.6l0,0l3.6-1.4
				c1-0.4,2.2,0.1,2.6,1.1C459.1,392.6,458.6,393.8,457.6,394.2L457.6,394.2z"/>
			<path class="st2" d="M445.7,399.2l-3.5,1.6l0,0c-1,0.5-2.2,0-2.7-1c-0.5-1,0-2.2,1-2.7l0,0l3.6-1.6c1-0.5,2.2,0,2.7,1
				C447.2,397.5,446.7,398.7,445.7,399.2L445.7,399.2z"/>
			<path class="st2" d="M434.1,404.7l-3.4,1.7l0,0c-1,0.5-2.3,0.1-2.8-0.9c-0.5-1-0.1-2.3,0.9-2.8l0,0l3.5-1.7
				c1-0.5,2.2-0.1,2.8,0.9C435.5,402.9,435.1,404.1,434.1,404.7L434.1,404.7z"/>
			<path class="st2" d="M422.7,410.6l-3.4,1.9l0,0c-1,0.6-2.3,0.2-2.9-0.8c-0.6-1-0.2-2.3,0.8-2.9l0,0l3.4-1.9
				c1-0.6,2.3-0.2,2.8,0.8C424.1,408.8,423.7,410.1,422.7,410.6L422.7,410.6z"/>
			<path class="st2" d="M411.6,417.1l-3.3,2l0,0c-1,0.6-2.3,0.3-2.9-0.7c-0.6-1-0.3-2.3,0.7-2.9l0,0l3.3-2.1c1-0.6,2.3-0.3,2.9,0.7
				S412.6,416.5,411.6,417.1L411.6,417.1z"/>
			<path class="st2" d="M400.8,424.1l-3.2,2.2l0,0c-1,0.7-2.3,0.4-3-0.6c-0.7-1-0.4-2.3,0.6-3l0,0l3.2-2.2c1-0.7,2.3-0.4,3,0.6
				C402,422.1,401.8,423.4,400.8,424.1L400.8,424.1z"/>
			<path class="st2" d="M390.3,431.6l-3.1,2.3l0,0c-1,0.7-2.3,0.5-3.1-0.4c-0.7-1-0.5-2.3,0.4-3.1l0,0l3.1-2.4
				c1-0.7,2.3-0.5,3.1,0.4C391.5,429.5,391.3,430.8,390.3,431.6L390.3,431.6z"/>
			<path class="st2" d="M380.2,439.5l-2.9,2.5l0,0c-0.9,0.8-2.3,0.7-3.1-0.3c-0.8-0.9-0.7-2.3,0.3-3.1l0,0l3-2.5
				c0.9-0.8,2.3-0.7,3.1,0.3C381.3,437.3,381.2,438.7,380.2,439.5L380.2,439.5z"/>
			<path class="st2" d="M370.5,448l-2.8,2.6l0,0c-0.9,0.8-2.3,0.8-3.2-0.1c-0.8-0.9-0.8-2.3,0.1-3.2l0,0l2.9-2.7
				c0.9-0.8,2.3-0.8,3.2,0.1C371.5,445.7,371.5,447.1,370.5,448L370.5,448z"/>
			<path class="st2" d="M361.4,456.9l-2.6,2.8l0,0c-0.9,0.9-2.3,1-3.2,0.1c-0.9-0.9-1-2.3-0.1-3.2l0,0l2.7-2.8
				c0.9-0.9,2.3-0.9,3.2-0.1C362.2,454.5,362.3,456,361.4,456.9L361.4,456.9z"/>
			<path class="st2" d="M352.7,466.4l-2.5,2.9l0,0c-0.8,1-2.3,1.1-3.3,0.2c-1-0.8-1.1-2.3-0.2-3.3l0,0l2.6-2.9
				c0.8-1,2.3-1.1,3.3-0.2C353.5,464,353.6,465.4,352.7,466.4L352.7,466.4z"/>
			<path class="st2" d="M344.4,476.2l-2.4,3l0,0c-0.8,1-2.3,1.2-3.3,0.4c-1-0.8-1.2-2.3-0.4-3.3l0,0l2.5-3c0.8-1,2.3-1.2,3.3-0.3
				C345.1,473.7,345.2,475.2,344.4,476.2L344.4,476.2z"/>
			<path class="st2" d="M336.5,486.3l-2.3,3.1l0,0c-0.8,1-2.2,1.2-3.3,0.5c-1-0.8-1.2-2.2-0.5-3.3l0,0l2.3-3.1
				c0.8-1,2.2-1.2,3.3-0.5C337.1,483.8,337.3,485.3,336.5,486.3L336.5,486.3z"/>
			<path class="st2" d="M328.9,496.7l-2.2,3.2l0,0c-0.7,1.1-2.2,1.3-3.3,0.6c-1.1-0.7-1.3-2.2-0.6-3.3l0,0l2.2-3.2
				c0.7-1.1,2.2-1.3,3.3-0.6C329.4,494.2,329.7,495.6,328.9,496.7L328.9,496.7z"/>
			<path class="st2" d="M321.8,507.4l-2.1,3.3l0,0c-0.7,1.1-2.2,1.4-3.2,0.7c-1.1-0.7-1.4-2.2-0.7-3.2l0,0l2.1-3.3
				c0.7-1.1,2.1-1.4,3.2-0.7C322.1,504.8,322.5,506.3,321.8,507.4L321.8,507.4z"/>
			<path class="st2" d="M315,518.3l-1.9,3.3l0,0c-0.7,1.1-2.1,1.5-3.2,0.8c-1.1-0.7-1.5-2.1-0.8-3.2l0,0l2-3.4
				c0.7-1.1,2.1-1.5,3.2-0.8C315.3,515.7,315.7,517.2,315,518.3L315,518.3z"/>
			<path class="st2" d="M308.7,529.5l-1.8,3.4l0,0c-0.6,1.2-2,1.6-3.2,1c-1.2-0.6-1.6-2-1-3.2l0,0l1.8-3.5c0.6-1.2,2-1.6,3.2-1
				C308.9,526.9,309.3,528.3,308.7,529.5L308.7,529.5z"/>
			<path class="st2" d="M302.8,541l-1.7,3.5l0,0c-0.6,1.2-2,1.7-3.2,1.1c-1.2-0.6-1.7-2-1.1-3.2l0,0l1.7-3.5c0.6-1.2,2-1.7,3.2-1.1
				C302.9,538.3,303.4,539.8,302.8,541L302.8,541z"/>
			<path class="st2" d="M297.4,552.6l-1.5,3.5l0,0c-0.5,1.2-1.9,1.8-3.1,1.3c-1.2-0.5-1.8-1.9-1.3-3.1l0,0l1.5-3.6
				c0.5-1.2,1.9-1.8,3.1-1.3C297.4,550,298,551.4,297.4,552.6L297.4,552.6z"/>
			<path class="st2" d="M292.6,564.5l-1.3,3.6l0,0c-0.5,1.2-1.8,1.9-3.1,1.4c-1.2-0.5-1.9-1.8-1.4-3.1l0,0l1.4-3.7
				c0.5-1.2,1.8-1.9,3.1-1.4C292.5,561.9,293.1,563.3,292.6,564.5L292.6,564.5z"/>
			<path class="st2" d="M288.4,576.6l-1.2,3.7l0,0c-0.4,1.3-1.8,2-3,1.6c-1.3-0.4-2-1.8-1.6-3l0,0l1.2-3.7c0.4-1.3,1.8-2,3-1.6
				C288.1,574,288.8,575.3,288.4,576.6L288.4,576.6z"/>
			<path class="st2" d="M284.8,588.9l-1,3.7l0,0c-0.3,1.3-1.7,2.1-2.9,1.7c-1.3-0.3-2.1-1.7-1.7-2.9l0,0l1-3.8
				c0.3-1.3,1.7-2.1,2.9-1.7C284.4,586.3,285.1,587.6,284.8,588.9L284.8,588.9z"/>
			<path class="st2" d="M281.8,601.4l-0.7,3.8l0,0c-0.3,1.3-1.5,2.2-2.9,1.9c-1.3-0.3-2.2-1.5-1.9-2.9l0,0l0.8-3.9
				c0.3-1.3,1.5-2.2,2.9-1.9C281.3,598.8,282.1,600.1,281.8,601.4L281.8,601.4z"/>
			<path class="st2" d="M279.6,614l-0.5,3.8l0,0c-0.2,1.3-1.4,2.3-2.8,2.1c-1.3-0.2-2.3-1.4-2.1-2.8l0,0l0.5-3.9
				c0.2-1.3,1.4-2.3,2.8-2.1C278.9,611.4,279.8,612.7,279.6,614L279.6,614z"/>
			<path class="st2" d="M278.1,626.7l-0.3,3.8l0,0c-0.1,1.4-1.3,2.4-2.6,2.3c-1.4-0.1-2.4-1.3-2.3-2.6l0,0l0.3-3.9
				c0.1-1.3,1.3-2.4,2.6-2.3C277.2,624.2,278.2,625.4,278.1,626.7L278.1,626.7z"/>
			<path class="st2" d="M277.4,639.5l-0.1,3.8l0,0c0,1.4-1.1,2.4-2.5,2.4c-1.4,0-2.4-1.1-2.4-2.5l0,0l0.1-3.9c0-1.4,1.1-2.4,2.5-2.4
				C276.3,637,277.4,638.1,277.4,639.5L277.4,639.5z"/>
			<path class="st2" d="M277.5,652.3l0.2,3.8l0,0c0.1,1.4-1,2.5-2.4,2.6c-1.4,0.1-2.5-1-2.6-2.4l0,0l-0.2-3.9
				c-0.1-1.4,1-2.5,2.4-2.6C276.3,649.9,277.4,650.9,277.5,652.3L277.5,652.3z"/>
			<path class="st2" d="M278.4,665.1l0.4,3.8l0,0c0.2,1.4-0.8,2.6-2.2,2.8c-1.4,0.2-2.6-0.8-2.8-2.2l0,0l-0.4-3.9
				c-0.2-1.4,0.8-2.6,2.2-2.7C277,662.7,278.2,663.7,278.4,665.1L278.4,665.1z"/>
			<path class="st2" d="M280.1,677.7l0.7,3.8l0,0c0.2,1.4-0.7,2.7-2,2.9c-1.4,0.2-2.7-0.7-2.9-2l0,0l-0.7-3.9
				c-0.2-1.4,0.7-2.7,2-2.9C278.6,675.4,279.9,676.3,280.1,677.7L280.1,677.7z"/>
			<path class="st2" d="M282.7,690.3l0.9,3.7l0,0c0.3,1.3-0.5,2.7-1.8,3c-1.3,0.3-2.7-0.5-3-1.8l0,0l-0.9-3.8
				c-0.3-1.3,0.5-2.7,1.8-3C281,688.1,282.3,688.9,282.7,690.3L282.7,690.3z"/>
			<path class="st2" d="M286,702.6l1.2,3.7l0,0c0.4,1.3-0.3,2.7-1.6,3.2c-1.3,0.4-2.7-0.3-3.2-1.6l0,0l-1.2-3.8
				c-0.4-1.3,0.3-2.7,1.6-3.2C284.2,700.5,285.6,701.3,286,702.6L286,702.6z"/>
			<path class="st2" d="M290.2,714.7l1.4,3.6l0,0c0.5,1.3-0.1,2.8-1.4,3.3c-1.3,0.5-2.8-0.1-3.3-1.4l0,0l-1.4-3.7
				c-0.5-1.3,0.1-2.8,1.4-3.3C288.2,712.7,289.6,713.4,290.2,714.7L290.2,714.7z"/>
			<path class="st2" d="M295.1,726.5l1.6,3.5l0,0c0.6,1.3,0,2.8-1.2,3.4c-1.3,0.6-2.8,0-3.4-1.2l0,0l-1.7-3.6
				c-0.6-1.3,0-2.8,1.2-3.4C293,724.7,294.5,725.2,295.1,726.5L295.1,726.5z"/>
			<path class="st2" d="M300.7,738l1.8,3.4l0,0c0.7,1.2,0.2,2.8-1,3.5c-1.2,0.7-2.8,0.2-3.5-1l0,0l-1.9-3.5c-0.7-1.2-0.2-2.8,1-3.5
				C298.5,736.3,300.1,736.7,300.7,738L300.7,738z"/>
			<path class="st2" d="M307.1,749.1l2,3.3l0,0c0.8,1.2,0.4,2.8-0.8,3.5c-1.2,0.8-2.8,0.4-3.5-0.8l0,0l-2.1-3.3
				c-0.7-1.2-0.4-2.8,0.8-3.5C304.8,747.5,306.3,747.9,307.1,749.1L307.1,749.1z"/>
			<path class="st2" d="M314.1,759.8l2.2,3.1l0,0c0.8,1.2,0.6,2.8-0.6,3.6c-1.2,0.8-2.8,0.6-3.6-0.6l0,0l-2.3-3.2
				c-0.8-1.2-0.6-2.8,0.6-3.6C311.7,758.3,313.3,758.6,314.1,759.8L314.1,759.8z"/>
			<path class="st2" d="M321.8,770.1l2.4,3l0,0c0.9,1.1,0.7,2.7-0.4,3.6c-1.1,0.9-2.7,0.7-3.6-0.4l0,0l-2.5-3.1
				c-0.9-1.1-0.7-2.7,0.4-3.6C319.3,768.7,320.9,768.9,321.8,770.1L321.8,770.1z"/>
			<path class="st2" d="M330,779.9l2.6,2.9l0,0c1,1.1,0.9,2.7-0.2,3.7c-1.1,1-2.7,0.9-3.7-0.2l0,0l-2.6-2.9c-1-1.1-0.9-2.7,0.2-3.7
				C327.4,778.7,329,778.8,330,779.9L330,779.9z"/>
			<path class="st2" d="M338.7,789.3l2.7,2.7l0,0c1,1,1,2.7,0,3.7c-1,1-2.7,1-3.7,0l0,0l-2.8-2.8c-1-1-1-2.7,0-3.7
				C336.1,788.2,337.7,788.2,338.7,789.3L338.7,789.3z"/>
			<path class="st2" d="M347.9,798.2l2.8,2.6l0,0c1.1,1,1.1,2.6,0.2,3.7c-1,1.1-2.6,1.1-3.7,0.2l0,0l-2.9-2.6
				c-1.1-1-1.1-2.6-0.2-3.7C345.2,797.3,346.8,797.2,347.9,798.2L347.9,798.2z"/>
			<path class="st2" d="M357.5,806.7l3,2.5l0,0c1.1,0.9,1.3,2.6,0.3,3.7c-0.9,1.1-2.6,1.3-3.7,0.3l-3-2.5c-1.1-0.9-1.3-2.6-0.3-3.7
				C354.8,805.9,356.4,805.8,357.5,806.7L357.5,806.7L357.5,806.7z"/>
			<path class="st2" d="M367.5,814.8l3.1,2.3l0,0c1.1,0.9,1.4,2.5,0.5,3.6c-0.9,1.1-2.5,1.4-3.6,0.5l-3.1-2.4
				c-1.1-0.9-1.4-2.5-0.5-3.6C364.7,814.1,366.4,813.9,367.5,814.8L367.5,814.8L367.5,814.8z"/>
			<path class="st2" d="M377.9,822.4l3.2,2.2l0,0c1.2,0.8,1.5,2.4,0.6,3.6c-0.8,1.2-2.4,1.5-3.6,0.6l-3.2-2.2
				c-1.2-0.8-1.5-2.4-0.6-3.6C375,821.9,376.7,821.6,377.9,822.4L377.9,822.4L377.9,822.4z"/>
			<path class="st2" d="M388.5,829.6l3.2,2.1l0,0c1.2,0.8,1.6,2.4,0.8,3.6c-0.8,1.2-2.4,1.6-3.6,0.8l-3.3-2.1
				c-1.2-0.8-1.6-2.4-0.8-3.6C385.7,829.2,387.3,828.8,388.5,829.6L388.5,829.6L388.5,829.6z"/>
			<path class="st2" d="M399.4,836.4l3.3,2l0,0c1.2,0.7,1.6,2.3,0.9,3.5c-0.7,1.2-2.3,1.6-3.5,0.9l-3.4-2c-1.2-0.7-1.6-2.3-0.9-3.5
				C396.6,836.1,398.2,835.7,399.4,836.4L399.4,836.4L399.4,836.4z"/>
			<path class="st2" d="M410.6,842.8l3.4,1.8l0,0c1.3,0.7,1.7,2.2,1,3.5c-0.7,1.3-2.2,1.7-3.5,1l-3.4-1.9c-1.3-0.7-1.7-2.2-1-3.5
				C407.7,842.6,409.3,842.1,410.6,842.8L410.6,842.8L410.6,842.8z"/>
			<path class="st2" d="M422,848.8l3.5,1.7l0,0c1.3,0.6,1.8,2.2,1.2,3.4c-0.6,1.3-2.2,1.8-3.4,1.2l-3.5-1.7
				c-1.3-0.6-1.8-2.2-1.2-3.4C419.1,848.7,420.7,848.1,422,848.8L422,848.8L422,848.8z"/>
			<path class="st2" d="M433.6,854.4l3.5,1.6l0,0c1.3,0.6,1.9,2.1,1.3,3.4c-0.6,1.3-2.1,1.9-3.4,1.3l-3.6-1.6
				c-1.3-0.6-1.9-2.1-1.3-3.4C430.7,854.3,432.2,853.8,433.6,854.4L433.6,854.4L433.6,854.4z"/>
			<path class="st2" d="M445.3,859.6l3.6,1.5l0,0c1.3,0.5,1.9,2,1.4,3.3c-0.5,1.3-2,1.9-3.3,1.4l-3.6-1.5c-1.3-0.5-1.9-2-1.4-3.3
				C442.5,859.6,444,859,445.3,859.6L445.3,859.6L445.3,859.6z"/>
			<path class="st2" d="M457.3,864.4l3.6,1.4l0,0c1.3,0.5,2,2,1.5,3.3c-0.5,1.3-2,2-3.3,1.5l-3.7-1.4c-1.3-0.5-2-2-1.5-3.3
				C454.5,864.5,455.9,863.8,457.3,864.4L457.3,864.4L457.3,864.4z"/>
			<path class="st2" d="M469.4,868.8l3.7,1.3l0,0c1.3,0.5,2,1.9,1.6,3.2c-0.5,1.3-1.9,2-3.2,1.6l-3.7-1.3c-1.3-0.5-2-1.9-1.6-3.2
				C466.6,869,468,868.3,469.4,868.8L469.4,868.8L469.4,868.8z"/>
			<path class="st2" d="M481.6,872.8l3.7,1.1l0,0c1.3,0.4,2.1,1.8,1.7,3.2c-0.4,1.3-1.8,2.1-3.2,1.7l-3.7-1.1
				c-1.3-0.4-2.1-1.8-1.7-3.2C478.8,873.1,480.2,872.4,481.6,872.8L481.6,872.8L481.6,872.8z"/>
			<path class="st2" d="M493.9,876.5l3.7,1l0,0c1.4,0.4,2.1,1.8,1.8,3.1c-0.4,1.4-1.8,2.1-3.1,1.8l-3.8-1c-1.4-0.4-2.2-1.8-1.8-3.1
				C491.2,876.9,492.6,876.1,493.9,876.5L493.9,876.5L493.9,876.5z"/>
			<path class="st2" d="M506.4,879.7l3.8,0.9l0,0c1.4,0.3,2.2,1.7,1.9,3c-0.3,1.4-1.7,2.2-3,1.9l-3.8-0.9c-1.4-0.3-2.2-1.7-1.9-3
				C503.7,880.2,505,879.4,506.4,879.7L506.4,879.7L506.4,879.7z"/>
			<path class="st2" d="M519,882.5l3.8,0.8l0,0c1.4,0.3,2.2,1.6,2,3c-0.3,1.4-1.6,2.2-3,2l-3.8-0.8c-1.4-0.3-2.3-1.6-2-3
				C516.2,883.1,517.6,882.3,519,882.5L519,882.5L519,882.5z"/>
			<path class="st2" d="M531.6,885l3.8,0.6l0,0c1.4,0.2,2.3,1.5,2.1,2.9c-0.2,1.4-1.5,2.3-2.9,2.1l-3.9-0.6
				c-1.4-0.2-2.3-1.5-2.1-2.9C528.9,885.7,530.2,884.7,531.6,885L531.6,885L531.6,885z"/>
			<path class="st2" d="M544.3,886.9l3.8,0.5l0,0c1.4,0.2,2.3,1.4,2.2,2.8c-0.2,1.4-1.4,2.3-2.8,2.2l-3.9-0.5
				c-1.4-0.2-2.3-1.4-2.2-2.8C541.6,887.7,542.9,886.7,544.3,886.9L544.3,886.9L544.3,886.9z"/>
			<path class="st2" d="M557.1,888.4l3.8,0.3l0,0c1.4,0.1,2.4,1.3,2.3,2.7c-0.1,1.4-1.3,2.4-2.7,2.3l-3.9-0.3
				c-1.4-0.1-2.4-1.3-2.3-2.7C554.5,889.3,555.7,888.3,557.1,888.4L557.1,888.4L557.1,888.4z"/>
			<path class="st2" d="M569.9,889.4l3.9,0.2l0,0c1.4,0.1,2.4,1.2,2.4,2.6c-0.1,1.4-1.2,2.4-2.6,2.4l-3.9-0.2
				c-1.4-0.1-2.4-1.2-2.4-2.6C567.3,890.4,568.5,889.3,569.9,889.4L569.9,889.4L569.9,889.4z"/>
			<path class="st2" d="M582.8,889.8l3.9,0l0,0c1.4,0,2.5,1.1,2.5,2.5c0,1.4-1.1,2.5-2.5,2.5l-3.9,0c-1.4,0-2.5-1.1-2.5-2.5
				C580.2,890.9,581.3,889.8,582.8,889.8L582.8,889.8L582.8,889.8z"/>
			<path class="st2" d="M595.6,889.8l3.9-0.1l0,0c1.4,0,2.5,1,2.6,2.4c0,1.4-1,2.5-2.4,2.6l-3.9,0.1c-1.4,0-2.5-1-2.6-2.4
				C593.1,891,594.2,889.9,595.6,889.8L595.6,889.8L595.6,889.8z"/>
			<path class="st2" d="M608.5,889.3l3.8-0.3l0,0c1.4-0.1,2.6,0.9,2.6,2.3c0.1,1.4-0.9,2.6-2.3,2.6l-3.9,0.3
				c-1.4,0.1-2.6-0.9-2.6-2.3C606,890.6,607.1,889.4,608.5,889.3L608.5,889.3L608.5,889.3z"/>
			<path class="st2" d="M621.3,888.2l3.8-0.4l0,0c1.4-0.1,2.6,0.8,2.7,2.2c0.1,1.4-0.8,2.6-2.2,2.7l-3.9,0.4
				c-1.4,0.1-2.6-0.8-2.7-2.2C618.9,889.6,619.9,888.4,621.3,888.2L621.3,888.2L621.3,888.2z"/>
			<path class="st2" d="M634,886.7l3.8-0.6l0,0c1.3-0.2,2.6,0.7,2.8,2.1c0.2,1.3-0.7,2.6-2.1,2.8l-3.9,0.6c-1.4,0.2-2.6-0.7-2.8-2.1
				C631.7,888.1,632.7,886.9,634,886.7L634,886.7L634,886.7z"/>
			<path class="st2" d="M646.7,884.6l3.8-0.7l0,0c1.3-0.3,2.6,0.6,2.9,2c0.3,1.3-0.6,2.6-2,2.9l-3.8,0.7c-1.3,0.3-2.6-0.6-2.9-2
				C644.5,886.2,645.4,884.9,646.7,884.6L646.7,884.6L646.7,884.6z"/>
			<path class="st2" d="M659.3,882.1l3.8-0.9l0,0c1.3-0.3,2.6,0.5,2.9,1.9c0.3,1.3-0.5,2.6-1.8,2.9l-3.8,0.9
				c-1.3,0.3-2.6-0.5-2.9-1.9C657.2,883.7,658,882.4,659.3,882.1L659.3,882.1L659.3,882.1z"/>
			<path class="st2" d="M671.8,879.1l3.7-1l0,0c1.3-0.3,2.7,0.4,3,1.7c0.3,1.3-0.4,2.7-1.7,3l-3.8,1c-1.3,0.4-2.7-0.4-3-1.7
				C669.7,880.8,670.5,879.4,671.8,879.1L671.8,879.1L671.8,879.1z"/>
			<path class="st2" d="M684.2,875.6l3.7-1.1l0,0c1.3-0.4,2.7,0.3,3.1,1.6c0.4,1.3-0.3,2.7-1.6,3.1l-3.7,1.1
				c-1.3,0.4-2.7-0.3-3.1-1.6C682.2,877.4,682.9,876,684.2,875.6L684.2,875.6L684.2,875.6z"/>
			<path class="st2" d="M696.5,871.7l3.7-1.3l0,0c1.3-0.4,2.7,0.2,3.1,1.5c0.4,1.3-0.2,2.7-1.5,3.1l-3.7,1.3
				c-1.3,0.4-2.7-0.2-3.1-1.5C694.5,873.5,695.2,872.2,696.5,871.7L696.5,871.7L696.5,871.7z"/>
			<path class="st2" d="M708.6,867.4l3.6-1.4l0,0c1.3-0.5,2.7,0.2,3.1,1.4c0.5,1.3-0.2,2.7-1.4,3.1l-3.7,1.4
				c-1.3,0.5-2.7-0.2-3.1-1.4C706.7,869.3,707.3,867.9,708.6,867.4L708.6,867.4L708.6,867.4z"/>
			<path class="st2" d="M720.6,862.7l3.6-1.5l0,0c1.2-0.5,2.7,0.1,3.2,1.3c0.5,1.2-0.1,2.7-1.3,3.2l-3.6,1.5
				c-1.2,0.5-2.7-0.1-3.2-1.3C718.8,864.6,719.4,863.2,720.6,862.7L720.6,862.7L720.6,862.7z"/>
			<path class="st2" d="M732.5,857.7l3.5-1.6l0,0c1.2-0.5,2.7,0,3.2,1.2c0.5,1.2,0,2.7-1.2,3.2l-3.6,1.6c-1.2,0.5-2.7,0-3.2-1.2
				C730.7,859.6,731.2,858.2,732.5,857.7L732.5,857.7L732.5,857.7z"/>
			<path class="st2" d="M744.2,852.3l3.5-1.7l0,0c1.2-0.6,2.6-0.1,3.2,1.1c0.6,1.2,0.1,2.6-1.1,3.2l-3.5,1.7
				c-1.2,0.6-2.6,0.1-3.2-1.1C742.5,854.3,743,852.9,744.2,852.3L744.2,852.3L744.2,852.3z"/>
			<path class="st2" d="M755.8,846.6l3.4-1.8l0,0c1.2-0.6,2.6-0.1,3.2,1.1c0.6,1.2,0.1,2.6-1,3.2l-3.5,1.8c-1.2,0.6-2.6,0.1-3.2-1
				C754.1,848.7,754.6,847.2,755.8,846.6L755.8,846.6L755.8,846.6z"/>
			<path class="st2" d="M767.2,840.6l3.4-1.8l0,0c1.2-0.6,2.6-0.2,3.3,1c0.6,1.2,0.2,2.6-1,3.3l-3.4,1.9c-1.2,0.6-2.6,0.2-3.3-1
				C765.6,842.7,766,841.3,767.2,840.6L767.2,840.6L767.2,840.6z"/>
			<path class="st2" d="M778.5,834.4l3.4-1.9l0,0c1.2-0.7,2.6-0.2,3.3,0.9c0.7,1.2,0.2,2.6-0.9,3.3l-3.4,1.9
				c-1.2,0.7-2.6,0.2-3.3-0.9C776.9,836.6,777.3,835.1,778.5,834.4L778.5,834.4L778.5,834.4z"/>
			<path class="st2" d="M789.7,828l3.3-2l0,0c1.1-0.7,2.6-0.3,3.3,0.8c0.7,1.1,0.3,2.6-0.8,3.3l-3.4,2c-1.1,0.7-2.6,0.3-3.3-0.8
				C788.2,830.2,788.6,828.7,789.7,828L789.7,828L789.7,828z"/>
			<path class="st2" d="M800.8,821.4l3.3-2l0,0c1.1-0.7,2.6-0.3,3.3,0.8s0.3,2.6-0.8,3.3l-3.3,2c-1.1,0.7-2.6,0.3-3.3-0.8
				C799.3,823.6,799.7,822.1,800.8,821.4L800.8,821.4L800.8,821.4z"/>
			<path class="st2" d="M811.8,814.6l3.3-2.1l0,0c1.1-0.7,2.6-0.4,3.3,0.7c0.7,1.1,0.4,2.6-0.7,3.3l-3.3,2.1
				c-1.1,0.7-2.6,0.4-3.3-0.7C810.3,816.8,810.7,815.3,811.8,814.6L811.8,814.6L811.8,814.6z"/>
			<path class="st2" d="M822.7,807.7l3.2-2.1l0,0c1.1-0.7,2.6-0.4,3.3,0.7c0.7,1.1,0.4,2.6-0.7,3.3l-3.3,2.1
				c-1.1,0.7-2.6,0.4-3.3-0.7C821.3,809.9,821.6,808.4,822.7,807.7L822.7,807.7L822.7,807.7z"/>
			<path class="st2" d="M833.5,800.6l3.2-2.2l0,0c1.1-0.7,2.6-0.4,3.3,0.6c0.7,1.1,0.4,2.6-0.6,3.3l-3.2,2.2
				c-1.1,0.7-2.6,0.4-3.3-0.6C832.1,802.8,832.4,801.3,833.5,800.6L833.5,800.6L833.5,800.6z"/>
			<path class="st2" d="M844.1,793.3l3.2-2.2l0,0c1.1-0.7,2.5-0.5,3.3,0.6c0.7,1.1,0.5,2.5-0.6,3.3l-3.2,2.2
				c-1.1,0.7-2.5,0.5-3.3-0.6C842.8,795.5,843.1,794,844.1,793.3L844.1,793.3L844.1,793.3z"/>
			<path class="st2" d="M854.7,785.9l3.2-2.3l0,0c1.1-0.8,2.5-0.5,3.3,0.5c0.8,1.1,0.5,2.5-0.5,3.3l-3.2,2.3
				c-1.1,0.8-2.5,0.5-3.3-0.5C853.4,788.1,853.7,786.6,854.7,785.9L854.7,785.9L854.7,785.9z"/>
			<path class="st2" d="M865.2,778.3l3.1-2.3l0,0c1-0.8,2.5-0.5,3.3,0.5c0.8,1,0.5,2.5-0.5,3.3l-3.1,2.3c-1,0.8-2.5,0.5-3.3-0.5
				C863.9,780.6,864.2,779.1,865.2,778.3L865.2,778.3L865.2,778.3z"/>
			<path class="st2" d="M875.6,770.6l3.1-2.3l0,0c1-0.8,2.5-0.6,3.3,0.5c0.8,1,0.6,2.5-0.5,3.3l-3.1,2.3c-1,0.8-2.5,0.6-3.3-0.5
				C874.3,772.9,874.5,771.4,875.6,770.6L875.6,770.6L875.6,770.6z"/>
			<path class="st2" d="M885.9,762.8l3.1-2.4l0,0c1-0.8,2.5-0.6,3.3,0.4c0.8,1,0.6,2.5-0.4,3.3l-3.1,2.4c-1,0.8-2.5,0.6-3.3-0.4
				C884.7,765.1,884.8,763.6,885.9,762.8L885.9,762.8L885.9,762.8z"/>
			<path class="st2" d="M896.1,754.8l3-2.4l0,0c1-0.8,2.5-0.6,3.3,0.4c0.8,1,0.6,2.5-0.4,3.3l-3.1,2.4c-1,0.8-2.5,0.6-3.3-0.4
				C894.9,757.1,895.1,755.7,896.1,754.8L896.1,754.8L896.1,754.8z"/>
			<path class="st2" d="M906.2,746.8l3-2.4l0,0c1-0.8,2.5-0.6,3.3,0.4c0.8,1,0.7,2.5-0.3,3.3l-3,2.4c-1,0.8-2.5,0.7-3.3-0.3
				C905,749.1,905.2,747.6,906.2,746.8L906.2,746.8L906.2,746.8z"/>
			<path class="st2" d="M916.2,738.6l3-2.5l0,0c1-0.8,2.5-0.7,3.3,0.3c0.8,1,0.7,2.5-0.3,3.3l-3,2.5c-1,0.8-2.5,0.7-3.3-0.3
				C915.1,740.9,915.2,739.5,916.2,738.6L916.2,738.6L916.2,738.6z"/>
			<path class="st2" d="M926.2,730.4l3-2.5l0,0c1-0.8,2.4-0.7,3.3,0.3c0.8,1,0.7,2.4-0.3,3.3l-3,2.5c-1,0.8-2.4,0.7-3.3-0.3
				C925.1,732.7,925.2,731.2,926.2,730.4L926.2,730.4L926.2,730.4z"/>
			<path class="st2" d="M936.1,722.1l3-2.5l0,0c1-0.8,2.4-0.7,3.3,0.3c0.8,1,0.7,2.4-0.3,3.3l-3,2.5c-1,0.8-2.4,0.7-3.3-0.3
				S935.1,722.9,936.1,722.1L936.1,722.1L936.1,722.1z"/>
			<path class="st2" d="M945.9,713.7l2.9-2.5c1-0.8,2.4-0.7,3.2,0.2c0.8,1,0.7,2.4-0.2,3.2l-2.9,2.5c-1,0.8-2.4,0.7-3.3-0.2
				C944.9,716,945,714.5,945.9,713.7L945.9,713.7z"/>
			<path class="st2" d="M955.7,705.2l2.9-2.6c0.9-0.8,2.4-0.7,3.2,0.2c0.8,0.9,0.7,2.4-0.2,3.2l-2.9,2.6c-1,0.8-2.4,0.7-3.2-0.2
				C954.7,707.5,954.8,706,955.7,705.2L955.7,705.2z"/>
			<path class="st2" d="M965.4,696.7l2.9-2.6c0.9-0.8,2.4-0.7,3.2,0.2c0.8,0.9,0.7,2.4-0.2,3.2l-2.9,2.6c-0.9,0.8-2.4,0.7-3.2-0.2
				C964.4,699,964.5,697.5,965.4,696.7L965.4,696.7z"/>
			<path class="st2" d="M975.1,688.1l2.9-2.6c0.9-0.8,2.3-0.7,3.2,0.2c0.8,0.9,0.8,2.3-0.2,3.2l-2.9,2.6c-0.9,0.8-2.4,0.8-3.2-0.2
				C974.1,690.4,974.2,688.9,975.1,688.1L975.1,688.1z"/>
			<path class="st2" d="M984.8,679.5l2.9-2.6c0.9-0.8,2.3-0.8,3.2,0.2c0.8,0.9,0.8,2.3-0.2,3.1l-2.9,2.6c-0.9,0.8-2.3,0.8-3.2-0.2
				C983.8,681.7,983.8,680.3,984.8,679.5L984.8,679.5z"/>
			<path class="st2" d="M994.4,670.8l2.9-2.6c0.9-0.8,2.3-0.8,3.1,0.2c0.8,0.9,0.8,2.3-0.1,3.1l-2.9,2.6c-0.9,0.8-2.3,0.8-3.1-0.1
				C993.4,673,993.5,671.6,994.4,670.8L994.4,670.8z"/>
			<path class="st2" d="M1004,662.1l2.9-2.6c0.9-0.8,2.3-0.8,3.1,0.1c0.8,0.9,0.8,2.3-0.1,3.1l-2.9,2.6c-0.9,0.8-2.3,0.8-3.1-0.1
				C1003,664.3,1003.1,662.9,1004,662.1L1004,662.1z"/>
			<path class="st2" d="M1013.5,653.4l2.9-2.6c0.9-0.8,2.3-0.8,3.1,0.1c0.8,0.9,0.8,2.3-0.1,3.1l-2.9,2.6c-0.9,0.8-2.3,0.8-3.1-0.1
				C1012.6,655.6,1012.6,654.2,1013.5,653.4L1013.5,653.4z"/>
			<path class="st2" d="M1023.1,644.6l2.9-2.6c0.9-0.8,2.2-0.7,3.1,0.1c0.8,0.9,0.8,2.2-0.1,3l-2.9,2.6c-0.9,0.8-2.2,0.8-3.1-0.1
				C1022.1,646.8,1022.2,645.4,1023.1,644.6L1023.1,644.6z"/>
			<path class="st2" d="M1032.6,635.8l2.9-2.6c0.9-0.8,2.2-0.7,3,0.1c0.8,0.9,0.7,2.2-0.1,3l-2.9,2.6c-0.9,0.8-2.2,0.8-3-0.1
				C1031.7,638,1031.7,636.6,1032.6,635.8L1032.6,635.8z"/>
			<path class="st2" d="M1042.1,627.1l2.9-2.6c0.9-0.8,2.2-0.7,3,0.1c0.8,0.9,0.7,2.2-0.1,3l-2.9,2.6c-0.9,0.8-2.2,0.7-3-0.1
				C1041.2,629.2,1041.3,627.9,1042.1,627.1L1042.1,627.1z"/>
			<path class="st2" d="M1051.7,618.3l2.9-2.6c0.9-0.8,2.2-0.7,3,0.1c0.8,0.9,0.7,2.2-0.1,3l-2.9,2.6c-0.9,0.8-2.2,0.7-3-0.1
				C1050.8,620.4,1050.8,619.1,1051.7,618.3L1051.7,618.3z"/>
			<path class="st2" d="M1061.2,609.5l2.9-2.6c0.8-0.8,2.2-0.7,2.9,0.1c0.8,0.8,0.7,2.2-0.1,2.9l-2.9,2.6c-0.8,0.8-2.2,0.7-3-0.1
				C1060.3,611.6,1060.4,610.3,1061.2,609.5L1061.2,609.5z"/>
			<path class="st2" d="M1070.8,600.8l2.9-2.6c0.8-0.8,2.2-0.7,2.9,0.1c0.8,0.8,0.7,2.1-0.1,2.9l-2.9,2.6c-0.8,0.8-2.2,0.7-2.9-0.1
				C1069.9,602.9,1069.9,601.5,1070.8,600.8L1070.8,600.8z"/>
			<path class="st2" d="M1080.4,592l2.9-2.6c0.8-0.8,2.1-0.7,2.9,0.1c0.8,0.8,0.7,2.1-0.1,2.9l-2.9,2.6c-0.8,0.8-2.1,0.7-2.9-0.1
				C1079.5,594.1,1079.5,592.8,1080.4,592L1080.4,592z"/>
			<path class="st2" d="M1090,583.3l2.9-2.6c0.8-0.8,2.1-0.7,2.9,0.1c0.8,0.8,0.7,2.1-0.1,2.9l-2.9,2.6c-0.8,0.8-2.1,0.7-2.9-0.1
				C1089.1,585.4,1089.1,584.1,1090,583.3L1090,583.3z"/>
			<path class="st2" d="M1099.6,574.6l2.9-2.6c0.8-0.7,2.1-0.7,2.8,0.2c0.7,0.8,0.7,2.1-0.2,2.8l-2.9,2.6c-0.8,0.7-2.1,0.7-2.9-0.1
				C1098.7,576.7,1098.8,575.4,1099.6,574.6L1099.6,574.6z"/>
			<path class="st2" d="M1109.2,566l2.9-2.6c0.8-0.7,2.1-0.7,2.8,0.2c0.7,0.8,0.7,2.1-0.2,2.8l-2.9,2.6c-0.8,0.7-2.1,0.7-2.8-0.2
				C1108.3,568,1108.4,566.7,1109.2,566L1109.2,566z"/>
			<path class="st2" d="M1118.9,557.4l2.9-2.6c0.8-0.7,2.1-0.6,2.8,0.2c0.7,0.8,0.6,2.1-0.2,2.8l-2.9,2.6c-0.8,0.7-2.1,0.7-2.8-0.2
				C1118,559.4,1118.1,558.1,1118.9,557.4L1118.9,557.4z"/>
			<path class="st2" d="M1128.7,548.8l2.9-2.6c0.8-0.7,2.1-0.6,2.8,0.2c0.7,0.8,0.6,2.1-0.2,2.8l-2.9,2.6c-0.8,0.7-2.1,0.6-2.8-0.2
				C1127.8,550.8,1127.8,549.5,1128.7,548.8L1128.7,548.8z"/>
			<path class="st2" d="M1138.4,540.3l2.9-2.5c0.8-0.7,2-0.6,2.7,0.2c0.7,0.8,0.6,2-0.2,2.7l-2.9,2.6c-0.8,0.7-2,0.6-2.8-0.2
				C1137.5,542.2,1137.6,541,1138.4,540.3L1138.4,540.3z"/>
			<path class="st2" d="M1148.2,531.8l3-2.5c0.8-0.7,2-0.6,2.7,0.2c0.7,0.8,0.6,2-0.2,2.7l-2.9,2.5c-0.8,0.7-2,0.6-2.7-0.2
				C1147.3,533.7,1147.4,532.5,1148.2,531.8L1148.2,531.8z"/>
			<path class="st2" d="M1158.1,523.4l3-2.5c0.8-0.7,2-0.6,2.7,0.2c0.7,0.8,0.6,2-0.2,2.7l-3,2.5c-0.8,0.7-2,0.6-2.7-0.2
				C1157.2,525.3,1157.3,524.1,1158.1,523.4L1158.1,523.4z"/>
			<path class="st2" d="M1168,515l3-2.5c0.8-0.7,2-0.6,2.7,0.2c0.7,0.8,0.6,2-0.2,2.7l-3,2.5c-0.8,0.7-2,0.6-2.7-0.2
				C1167.1,516.9,1167.2,515.7,1168,515L1168,515z"/>
			<path class="st2" d="M1178,506.8l3-2.5c0.8-0.7,2-0.5,2.6,0.3c0.7,0.8,0.5,2-0.3,2.6l-3,2.5c-0.8,0.7-2,0.6-2.6-0.2
				C1177.1,508.6,1177.2,507.4,1178,506.8L1178,506.8z"/>
			<path class="st2" d="M1188,498.6l3-2.4c0.8-0.6,2-0.5,2.6,0.3c0.6,0.8,0.5,2-0.3,2.6l0,0l-3,2.4l0,0c-0.8,0.6-2,0.5-2.6-0.3
				C1187.1,500.4,1187.2,499.2,1188,498.6L1188,498.6z"/>
			<path class="st2" d="M1198.2,490.5l3.1-2.4c0.8-0.6,2-0.5,2.6,0.3c0.6,0.8,0.5,1.9-0.3,2.6l0,0l-3,2.4l0,0
				c-0.8,0.6-2,0.5-2.6-0.3C1197.2,492.2,1197.4,491.1,1198.2,490.5L1198.2,490.5z"/>
			<path class="st2" d="M1208.4,482.4l3.1-2.4c0.8-0.6,1.9-0.5,2.6,0.3c0.6,0.8,0.5,1.9-0.3,2.5l0,0l-3.1,2.4l0,0
				c-0.8,0.6-1.9,0.5-2.6-0.3C1207.4,484.2,1207.6,483.1,1208.4,482.4L1208.4,482.4z"/>
			<path class="st2" d="M1218.7,474.6l3.1-2.3c0.8-0.6,1.9-0.4,2.5,0.4c0.6,0.8,0.4,1.9-0.4,2.5l0,0l-3.1,2.3l0,0
				c-0.8,0.6-1.9,0.4-2.5-0.4C1217.7,476.3,1217.9,475.2,1218.7,474.6L1218.7,474.6z"/>
			<path class="st2" d="M1229.1,466.8l3.1-2.3c0.8-0.6,1.9-0.4,2.5,0.4c0.6,0.8,0.4,1.9-0.4,2.5l0,0l-3.1,2.3l0,0
				c-0.8,0.6-1.9,0.4-2.5-0.4C1228.1,468.5,1228.3,467.4,1229.1,466.8L1229.1,466.8z"/>
			<path class="st2" d="M1239.6,459.2l3.2-2.2c0.8-0.6,1.9-0.4,2.5,0.4c0.6,0.8,0.4,1.9-0.4,2.5l0,0l-3.2,2.2l0,0
				c-0.8,0.6-1.9,0.4-2.5-0.4C1238.6,460.9,1238.8,459.8,1239.6,459.2L1239.6,459.2z"/>
			<path class="st2" d="M1250.3,451.8l3.2-2.2c0.8-0.5,1.9-0.3,2.4,0.5c0.5,0.8,0.3,1.9-0.5,2.4l0,0l-3.2,2.2l0,0
				c-0.8,0.5-1.9,0.3-2.4-0.5C1249.3,453.4,1249.5,452.3,1250.3,451.8L1250.3,451.8z"/>
			<path class="st2" d="M1261.1,444.5l3.3-2.1c0.8-0.5,1.9-0.3,2.4,0.5c0.5,0.8,0.3,1.9-0.5,2.4l0,0l-3.2,2.1l0,0
				c-0.8,0.5-1.9,0.3-2.4-0.5C1260,446.1,1260.2,445.1,1261.1,444.5L1261.1,444.5z"/>
			<path class="st2" d="M1272,437.5l3.3-2.1c0.8-0.5,1.9-0.3,2.4,0.5c0.5,0.8,0.3,1.9-0.5,2.4l0,0l-3.3,2.1l0,0
				c-0.8,0.5-1.9,0.3-2.4-0.5C1270.9,439.1,1271.2,438,1272,437.5L1272,437.5z"/>
			<path class="st2" d="M1283.1,430.7l3.4-2c0.8-0.5,1.8-0.2,2.3,0.6c0.5,0.8,0.2,1.8-0.6,2.3l0,0l-3.3,2l0,0
				c-0.8,0.5-1.8,0.2-2.3-0.6C1282,432.3,1282.3,431.2,1283.1,430.7L1283.1,430.7z"/>
			<path class="st2" d="M1294.3,424.2l3.4-1.9c0.8-0.5,1.8-0.2,2.3,0.6c0.5,0.8,0.2,1.8-0.6,2.3l0,0l-3.4,1.9l0,0
				c-0.8,0.5-1.8,0.2-2.3-0.6C1293.2,425.7,1293.5,424.7,1294.3,424.2L1294.3,424.2z"/>
			<path class="st2" d="M1305.7,418l3.5-1.8c0.8-0.4,1.8-0.1,2.2,0.7c0.4,0.8,0.1,1.8-0.7,2.2l0,0l-3.4,1.8l0,0
				c-0.8,0.4-1.8,0.1-2.2-0.7C1304.6,419.4,1304.9,418.4,1305.7,418L1305.7,418z"/>
			<path class="st2" d="M1317.3,412.1l3.5-1.7c0.8-0.4,1.8-0.1,2.2,0.8c0.4,0.8,0.1,1.8-0.8,2.2l0,0l-3.5,1.7l0,0
				c-0.8,0.4-1.8,0.1-2.2-0.8C1316.2,413.5,1316.5,412.5,1317.3,412.1L1317.3,412.1z"/>
			<path class="st2" d="M1329.1,406.5l3.6-1.6c0.8-0.4,1.8,0,2.1,0.8c0.4,0.8,0,1.8-0.8,2.1l0,0l-3.5,1.6l0,0
				c-0.8,0.4-1.8,0-2.2-0.8C1327.9,407.8,1328.2,406.9,1329.1,406.5L1329.1,406.5z"/>
			<path class="st2" d="M1341,401.3l3.6-1.5c0.8-0.3,1.7,0,2.1,0.9c0.3,0.8,0,1.7-0.9,2.1l0,0l-3.6,1.5l0,0c-0.8,0.3-1.7,0-2.1-0.9
				S1340.1,401.6,1341,401.3L1341,401.3z"/>
			<path class="st2" d="M1353,396.4l3.6-1.4c0.8-0.3,1.7,0.1,2,0.9c0.3,0.8-0.1,1.7-0.9,2l0,0l-3.6,1.4l0,0c-0.8,0.3-1.7-0.1-2-0.9
				C1351.8,397.6,1352.2,396.7,1353,396.4L1353,396.4z"/>
			<path class="st2" d="M1365.2,391.9l3.7-1.3c0.8-0.3,1.7,0.1,1.9,0.9c0.3,0.8-0.1,1.7-0.9,1.9l0,0l-3.7,1.3l0,0
				c-0.8,0.3-1.7-0.1-2-0.9C1364,393.1,1364.4,392.2,1365.2,391.9L1365.2,391.9z"/>
			<path class="st2" d="M1377.5,387.8l3.7-1.2c0.8-0.2,1.6,0.2,1.9,1c0.2,0.8-0.2,1.6-1,1.9l0,0l-3.7,1.2l0,0
				c-0.8,0.3-1.6-0.2-1.9-1C1376.3,388.9,1376.7,388.1,1377.5,387.8L1377.5,387.8z"/>
			<path class="st2" d="M1390,384l3.7-1.1c0.8-0.2,1.6,0.2,1.8,1c0.2,0.8-0.2,1.6-1,1.8l0,0l-3.7,1.1l0,0c-0.8,0.2-1.6-0.2-1.8-1
				C1388.7,385.1,1389.2,384.2,1390,384L1390,384z"/>
			<path class="st2" d="M1402.5,380.6l3.8-1c0.8-0.2,1.6,0.3,1.7,1c0.2,0.8-0.3,1.6-1,1.7l0,0l-3.7,1l0,0c-0.8,0.2-1.6-0.3-1.8-1
				C1401.2,381.6,1401.7,380.8,1402.5,380.6L1402.5,380.6z"/>
			<path class="st2" d="M1415.1,377.5l3.8-0.9c0.8-0.2,1.5,0.3,1.7,1.1c0.2,0.8-0.3,1.5-1.1,1.7l0,0l-3.8,0.9l0,0
				c-0.8,0.2-1.5-0.3-1.7-1.1C1413.9,378.4,1414.3,377.7,1415.1,377.5L1415.1,377.5z"/>
			<path class="st2" d="M1427.8,374.8l3.8-0.7c0.7-0.1,1.5,0.3,1.6,1.1c0.1,0.7-0.3,1.5-1.1,1.6l0,0l-3.8,0.8l0,0
				c-0.8,0.2-1.5-0.3-1.6-1.1C1426.6,375.7,1427,374.9,1427.8,374.8L1427.8,374.8z"/>
			<path class="st2" d="M1440.6,372.4l3.8-0.6c0.7-0.1,1.4,0.4,1.6,1.1c0.1,0.7-0.4,1.4-1.1,1.6l0,0l-3.8,0.7l0,0
				c-0.7,0.1-1.4-0.4-1.6-1.1C1439.3,373.2,1439.8,372.5,1440.6,372.4L1440.6,372.4z"/>
			<path class="st2" d="M1453.4,370.4l3.9-0.5c0.7-0.1,1.4,0.4,1.5,1.1c0.1,0.7-0.4,1.4-1.1,1.5l0,0l-3.8,0.6l0,0
				c-0.7,0.1-1.4-0.4-1.5-1.1C1452.2,371.2,1452.7,370.5,1453.4,370.4L1453.4,370.4z"/>
			<path class="st2" d="M1466.3,368.7l3.9-0.4c0.7-0.1,1.3,0.4,1.4,1.1c0.1,0.7-0.4,1.3-1.1,1.4l0,0l-3.8,0.5l0,0
				c-0.7,0.1-1.4-0.4-1.4-1.1C1465,369.4,1465.6,368.8,1466.3,368.7L1466.3,368.7z"/>
			<path class="st2" d="M1479.2,367.4l3.9-0.3c0.7-0.1,1.3,0.5,1.4,1.1c0.1,0.7-0.5,1.3-1.1,1.4l0,0l-3.9,0.3l0,0
				c-0.7,0.1-1.3-0.5-1.4-1.2C1478,368.1,1478.5,367.4,1479.2,367.4L1479.2,367.4z"/>
			<path class="st2" d="M1492.1,366.4l3.9-0.2c0.7,0,1.3,0.5,1.3,1.2c0,0.7-0.5,1.3-1.2,1.3l0,0l-3.9,0.3l0,0
				c-0.7,0-1.3-0.5-1.3-1.2C1490.9,367,1491.4,366.4,1492.1,366.4L1492.1,366.4z"/>
			<path class="st2" d="M1505.1,365.7l3.9-0.1c0.7,0,1.2,0.5,1.2,1.2c0,0.7-0.5,1.2-1.2,1.2l0,0l-3.9,0.2l0,0
				c-0.7,0-1.2-0.5-1.3-1.2C1503.9,366.3,1504.4,365.7,1505.1,365.7L1505.1,365.7z"/>
			<path class="st2" d="M1518.1,365.4l3.9,0c0.6,0,1.2,0.5,1.2,1.2c0,0.6-0.5,1.2-1.2,1.2h0l-3.9,0.1h0c-0.7,0-1.2-0.5-1.2-1.2
				C1516.9,365.9,1517.4,365.4,1518.1,365.4L1518.1,365.4z"/>
			<path class="st2" d="M1531,365.3l3.9,0.1c0.6,0,1.1,0.5,1.1,1.2c0,0.6-0.5,1.1-1.2,1.1h0l-3.9,0h0c-0.6,0-1.1-0.5-1.1-1.2
				C1529.9,365.8,1530.4,365.3,1531,365.3L1531,365.3z"/>
			<path class="st2" d="M1544,365.6l3.9,0.1c0.6,0,1.1,0.5,1.1,1.2c0,0.6-0.5,1.1-1.2,1.1h0l-3.9-0.1l0,0c-0.6,0-1.1-0.5-1.1-1.2
				C1542.9,366.1,1543.4,365.6,1544,365.6L1544,365.6z"/>
			<path class="st2" d="M1557,366.2l3.9,0.2c0.6,0,1.1,0.6,1,1.2c0,0.6-0.6,1.1-1.2,1l0,0l-3.9-0.2l0,0c-0.6,0-1.1-0.6-1-1.2
				C1555.8,366.6,1556.4,366.2,1557,366.2L1557,366.2z"/>
			<path class="st2" d="M1569.9,367.1l3.9,0.3c0.6,0,1,0.6,1,1.1c0,0.6-0.6,1-1.1,1h0l-3.9-0.3l0,0c-0.6,0-1-0.6-1-1.1
				C1568.8,367.5,1569.3,367,1569.9,367.1L1569.9,367.1z"/>
			<path class="st2" d="M1582.8,368.3l3.9,0.4c0.6,0.1,1,0.6,0.9,1.1c-0.1,0.6-0.6,1-1.1,0.9l0,0l-3.9-0.4l0,0
				c-0.6-0.1-1-0.6-0.9-1.1C1581.8,368.6,1582.3,368.2,1582.8,368.3L1582.8,368.3z"/>
			<path class="st2" d="M1595.7,369.7l3.9,0.5c0.5,0.1,0.9,0.6,0.9,1.1c-0.1,0.5-0.6,0.9-1.1,0.9l0,0l-3.8-0.5l0,0
				c-0.6-0.1-0.9-0.6-0.9-1.1C1594.7,370,1595.2,369.6,1595.7,369.7L1595.7,369.7z"/>
			<path class="st2" d="M1608.6,371.4l3.8,0.6c0.5,0.1,0.9,0.6,0.8,1.1c-0.1,0.5-0.6,0.9-1.1,0.8l0,0l-3.8-0.6l0,0
				c-0.5-0.1-0.9-0.6-0.8-1.1C1607.5,371.7,1608,371.4,1608.6,371.4L1608.6,371.4z"/>
			<path class="st2" d="M1621.4,373.4l3.8,0.7c0.5,0.1,0.9,0.6,0.8,1.1c-0.1,0.5-0.6,0.8-1.1,0.8l0,0l-3.8-0.6l0,0
				c-0.5-0.1-0.9-0.6-0.8-1.1C1620.4,373.7,1620.9,373.3,1621.4,373.4L1621.4,373.4z"/>
			<path class="st2" d="M1634.2,375.7l3.8,0.7c0.5,0.1,0.8,0.6,0.7,1c-0.1,0.5-0.6,0.8-1,0.7l0,0l-3.8-0.7l0,0
				c-0.5-0.1-0.8-0.6-0.7-1.1C1633.2,375.9,1633.7,375.6,1634.2,375.7L1634.2,375.7z"/>
			<path class="st2" d="M1646.9,378.2l3.8,0.8c0.5,0.1,0.8,0.6,0.7,1c-0.1,0.5-0.6,0.8-1,0.7l-3.8-0.8c-0.5-0.1-0.8-0.5-0.7-1
				C1645.9,378.4,1646.4,378.1,1646.9,378.2L1646.9,378.2z"/>
			<path class="st2" d="M1659.6,381l3.8,0.9c0.4,0.1,0.7,0.5,0.6,1c-0.1,0.4-0.5,0.7-1,0.6l-3.8-0.8c-0.4-0.1-0.7-0.5-0.6-1
				C1658.7,381.1,1659.1,380.9,1659.6,381L1659.6,381z"/>
			<path class="st2" d="M1672.2,383.9l3.8,0.9c0.4,0.1,0.7,0.5,0.6,0.9c-0.1,0.4-0.5,0.7-0.9,0.6l-3.8-0.9c-0.4-0.1-0.7-0.5-0.6-1
				C1671.3,384.1,1671.7,383.8,1672.2,383.9L1672.2,383.9z"/>
			<path class="st2" d="M1684.7,387.2l3.8,1c0.4,0.1,0.6,0.5,0.5,0.9c-0.1,0.4-0.5,0.6-0.9,0.5l-3.8-1c-0.4-0.1-0.6-0.5-0.5-0.9
				C1683.9,387.3,1684.3,387,1684.7,387.2L1684.7,387.2z"/>
			<path class="st2" d="M1697.2,390.6l3.7,1.1c0.4,0.1,0.6,0.5,0.5,0.9c-0.1,0.4-0.5,0.6-0.9,0.5l-3.7-1c-0.4-0.1-0.6-0.5-0.5-0.9
				C1696.5,390.7,1696.8,390.5,1697.2,390.6L1697.2,390.6z"/>
			<path class="st2" d="M1709.7,394.2l3.7,1.1c0.3,0.1,0.5,0.5,0.4,0.8c-0.1,0.3-0.5,0.5-0.8,0.4l-3.7-1.1c-0.4-0.1-0.6-0.5-0.5-0.8
				C1708.9,394.3,1709.3,394.1,1709.7,394.2L1709.7,394.2z"/>
		</g>
		<g>
			<g>
				<path class="st3" d="M2199.8,431.3c-1.5-22.9-15.3-43.2-36-53l-268.6-127.5c-17.2-8.2-37.2-8.2-54.4,0l-268.6,127.5
					c-20.7,9.8-34.6,30.1-36,53c-25.2,389.4,224.5,531.3,306.3,567.1c16.2,7.1,34.7,7.1,50.9,0
					C1975.3,962.6,2225,820.7,2199.8,431.3z"/>
				<path class="st6" d="M1786.8,303.9c-1.2,0-2.4-0.7-2.9-1.8c-0.8-1.6-0.1-3.5,1.5-4.3l63.5-30.1c1.6-0.8,3.5-0.1,4.3,1.5
					c0.8,1.6,0.1,3.5-1.5,4.3l-63.5,30.1C1787.7,303.8,1787.2,303.9,1786.8,303.9z"/>
				<path class="st6" d="M1556.8,514c-1.7,0-3.1-1.4-3.2-3.1c-0.8-25.3-0.4-51.7,1.3-78.4c1-16.1,10.8-30.4,25.4-37.3l180.7-85.8
					c1.6-0.8,3.5-0.1,4.3,1.5c0.8,1.6,0.1,3.5-1.5,4.3L1583.1,401c-12.5,5.9-20.9,18.2-21.8,32c-1.7,26.5-2.2,52.7-1.3,77.8
					c0.1,1.8-1.3,3.3-3.1,3.3C1556.9,514,1556.8,514,1556.8,514z"/>
				<path class="st8" d="M2134.9,446.5c-0.3-5.8-3.8-11-9-13.5l-251.1-119.2c-4.3-2-9.3-2-13.5,0L1610.2,433
					c-5.3,2.5-8.7,7.7-9,13.5c-7.4,145.3,26.1,266.4,99.8,360.4c56.2,71.6,121.9,110,160.4,127.9c4.2,2,9.1,2,13.4,0
					c38.5-17.9,104.2-56.3,160.4-127.9C2108.7,713,2142.3,591.8,2134.9,446.5z"/>
				<g>
					<path class="st6" d="M1793.8,602.6h-25v-99.7c0-39.2,29.3-72.3,68.2-77l51.2-6.2c22-2.7,44.2,4.2,60.8,18.9
						c16.6,14.7,26.1,35.9,26.1,58.1v87h-25v-87c0-15-6.5-29.4-17.7-39.3c-11.2-10-26.3-14.6-41.2-12.8l-51.2,6.2
						c-26.3,3.2-46.2,25.6-46.2,52.1V602.6z"/>
					<path class="st6" d="M1761.4,580.2l219.3-12.2c8.9-0.5,16.4,6.6,16.4,15.5v173.8c0,8.6-7,15.5-15.5,15.5h-214.1
						c-8.4,0-15.3-6.7-15.5-15l-5.3-161.6C1746.4,587.8,1752.9,580.7,1761.4,580.2z"/>
					<path class="st3" d="M1907.7,723.1l-13.3-38.2c-1.6-4.6-0.5-9.7,2.9-13.2c6.8-6.9,10.9-16.5,10.4-27.1
						c-0.8-18.6-16.1-33.7-34.7-34.4c-20.6-0.8-37.6,15.7-37.6,36.1c0,11.3,5.2,21.4,13.4,28.1c4.2,3.4,6,9.1,4.2,14.2l-12,34.4
						c-2.9,8.4,3.3,17.1,12.2,17.1h42.3C1904.4,740.2,1910.6,731.4,1907.7,723.1z"/>
				</g>
			</g>
		</g>
	</g>
</g>
</svg>
