<?xml version="1.0" encoding="utf-8"?>
<!-- Generator: Adobe Illustrator 26.0.2, SVG Export Plug-In . SVG Version: 6.00 Build 0)  -->
<svg version="1.1" xmlns="http://www.w3.org/2000/svg" xmlns:xlink="http://www.w3.org/1999/xlink" x="0px" y="0px"
	 viewBox="0 0 2475 1650" style="enable-background:new 0 0 2475 1650;" xml:space="preserve">
<style type="text/css">
	.st0{opacity:0.2;fill:#BBDEF2;}
	.st1{fill:#7B8FDD;}
	.st2{fill:#BBDEF2;}
	.st3{fill:#FFFFFF;}
	.st4{opacity:0.5;}
	.st5{fill:#BDD0FB;}
	.st6{fill:url(#SVGID_1_);}
	.st7{fill:url(#SVGID_00000033370125334631752390000013226317385072011917_);}
	.st8{fill:#86BFF2;}
	.st9{fill:#C88BC4;}
	.st10{fill:#D1AAD7;}
	.st11{opacity:0.3;fill:#C88BC4;}
	.st12{opacity:0.7;}
	.st13{fill:url(#SVGID_00000089572425144238694610000012925570819082744722_);}
	.st14{opacity:0.6;fill:url(#SVGID_00000031913184439772705400000016147461892537914501_);}
	.st15{opacity:0.1;fill:#D1AAD7;}
	.st16{opacity:0.75;fill:#D1AAD7;}
</style>
<g id="Background">
</g>
<g id="Illustration">
	<g>
		<path class="st0" d="M704.9,172.8c-34.9,10.4-87,57.5-132.7,132.7C516,398,482.5,406.1,403,360.6c-79.5-45.6-173-15-240.6,106.4
			C94.8,588.3,213.2,682.6,323,830.4C432.8,978.3,213.6,940,142.6,1112.7c-71,172.7,29.1,366.3,358.7,364
			c330-2.3,828.9,2.1,828.9,2.1s462.6,40.8,631.1-64.6c168.5-105.5-38.8-156.7,117.9-224.2s320.2-72,251.7-246.3
			s-165.5-138.2-228.1-184.8c-62.6-46.6-100.2-97.2-10.7-180.1c89.5-82.9,158-138.8,112.7-248.7c-64.9-157.7-222.4-178-395.4-111.2
			c-173,66.8-202.4,152.4-488,102.9C1162.3,294.2,1001.7,84.5,704.9,172.8z"/>
		<g>
			<g>
				<g>
					<g>
						<g>
							<g>
								<path class="st1" d="M1341.1,232.3h-7.3c-3.6,0-7.6,3.8-7.6,8.9v96.4c0,5.1,4,9.4,7.6,9.4h7.3c3.6,0,5.3-4.4,5.3-9.4v-96.4
									C1346.4,236.2,1344.6,232.3,1341.1,232.3z"/>
								<path class="st1" d="M1449,232.3h-7.3c-3.6,0-7.6,3.8-7.6,8.9v96.4c0,5.1,4,9.4,7.6,9.4h7.3c3.6,0,5.3-4.4,5.3-9.4v-96.4
									C1454.3,236.2,1452.6,232.3,1449,232.3z"/>
							</g>
							<path class="st1" d="M1479.1,277.3c0,5-4,9-9,9h-157.4c-5,0-9-4-9-9l0,0c0-5,4-9,9-9h157.4
								C1475,268.3,1479.1,272.4,1479.1,277.3L1479.1,277.3z"/>
						</g>
					</g>
					<path class="st1" d="M1468,324.5h-137.4c-14.2,0-26.8,11.3-26.8,25.5v860.4h181c5,0,7.9-4.3,7.9-9.2V350
						C1492.6,335.8,1482.2,324.5,1468,324.5z"/>
					<rect x="399.8" y="486.4" class="st1" width="991.5" height="65.2"/>
					<rect x="399.8" y="1145.2" class="st1" width="991.5" height="65.2"/>
					<rect x="399.8" y="830.4" class="st1" width="991.5" height="65.2"/>
					<rect x="413.3" y="1030.5" class="st1" width="966.8" height="20.2"/>
					<g>
						<path class="st1" d="M476.4,324.5H339c-14.2,0-26.8,11.3-26.8,25.5v851.2c0,5,5.2,9.2,10.1,9.2H501V350
							C501,335.8,490.6,324.5,476.4,324.5z"/>
						<g>
							<g>
								<path class="st1" d="M349.5,232.3h-7.3c-3.6,0-7.6,3.8-7.6,8.9v96.4c0,5.1,4,9.4,7.6,9.4h7.3c3.6,0,5.3-4.4,5.3-9.4v-96.4
									C354.9,236.2,353.1,232.3,349.5,232.3z"/>
								<path class="st1" d="M457.4,232.3h-7.3c-3.6,0-7.6,3.8-7.6,8.9v96.4c0,5.1,4,9.4,7.6,9.4h7.3c3.6,0,5.3-4.4,5.3-9.4v-96.4
									C462.8,236.2,461,232.3,457.4,232.3z"/>
							</g>
							<path class="st1" d="M487.5,277.3c0,5-4,9-9,9H321.1c-5,0-9-4-9-9l0,0c0-5,4-9,9-9h157.4
								C483.5,268.3,487.5,272.4,487.5,277.3L487.5,277.3z"/>
						</g>
					</g>
					<g>
						<path class="st1" d="M966.6,416.7H829.1c-14.2,0-26.8,9.6-26.8,21.8v731.3c0,4.3,5.2,9.1,10.1,9.1h178.7V438.6
							C991.2,426.4,980.8,416.7,966.6,416.7z"/>
						<g>
							<g>
								<path class="st1" d="M839.7,324.5h-7.3c-3.6,0-7.6,3.8-7.6,8.9v96.4c0,5.1,4,9.4,7.6,9.4h7.3c3.6,0,5.3-4.4,5.3-9.4v-96.4
									C845,328.4,843.2,324.5,839.7,324.5z"/>
								<path class="st1" d="M947.6,324.5h-7.3c-3.6,0-7.6,3.8-7.6,8.9v96.4c0,5.1,4,9.4,7.6,9.4h7.3c3.6,0,5.3-4.4,5.3-9.4v-96.4
									C952.9,328.4,951.2,324.5,947.6,324.5z"/>
							</g>
							<path class="st1" d="M977.7,369.5c0,5-4,9-9,9H811.3c-5,0-9-4-9-9l0,0c0-5,4-9,9-9h157.4
								C973.6,360.5,977.7,364.5,977.7,369.5L977.7,369.5z"/>
						</g>
					</g>
				</g>
			</g>
			<g>
				<g>
					<rect x="1645.4" y="585.3" class="st1" width="449.7" height="56.2"/>
					<path class="st1" d="M1645.4,1154.2v56.2h483.4c14.9,0,27-12.3,27-27.2v-29H1645.4z"/>
					<rect x="1645.4" y="882.1" class="st1" width="449.7" height="56.2"/>
					<rect x="1649.9" y="1055.3" class="st1" width="442.9" height="18"/>
					<rect x="1649.9" y="751.7" class="st1" width="442.9" height="18"/>
					<g>
						<path class="st1" d="M1711,443.7h-118.8c-12.3,0-23.2,10.7-23.2,23v735.7c0,4.3,4.5,8,8.7,8h155.4V466.7
							C1733.1,454.4,1723.3,443.7,1711,443.7z"/>
						<g>
							<g>
								<path class="st1" d="M1601.3,365h-6.3c-3.1,0-5.8,3.3-5.8,7.7V456c0,4.4,2.7,8,5.8,8h6.3c3.1,0,3.7-3.6,3.7-8v-83.3
									C1605,368.3,1604.4,365,1601.3,365z"/>
								<path class="st1" d="M1694.6,365h-6.3c-3.1,0-6.9,3.3-6.9,7.7V456c0,4.4,3.8,8,6.9,8h6.3c3.1,0,4.8-3.6,4.8-8v-83.3
									C1699.4,368.3,1697.7,365,1694.6,365z"/>
							</g>
							<path class="st1" d="M1719.6,404.4c0,4.3-3.5,7.8-7.8,7.8h-135.1c-4.3,0-7.8-3.5-7.8-7.8v-0.2c0-4.3,3.5-7.8,7.8-7.8h135.1
								c4.3,0,7.8,3.5,7.8,7.8V404.4z"/>
						</g>
					</g>
					<g>
						<path class="st1" d="M2134.7,524.6h-118.8c-12.3,0-24.2,8-24.2,18.6v632.1c0,3.7,5.4,8.1,9.7,8.1h154.4V543.2
							C2155.8,532.7,2146.9,524.6,2134.7,524.6z"/>
						<g>
							<g>
								<path class="st1" d="M2025,443.7h-6.3c-3.1,0-6.7,4.3-6.7,8.6v83.3c0,4.4,3.6,9.2,6.7,9.2h6.3c3.1,0,4.9-4.9,4.9-9.2v-83.3
									C2029.9,448,2028.1,443.7,2025,443.7z"/>
								<path class="st1" d="M2118.3,443.7h-6.3c-3.1,0-5.6,4.3-5.6,8.6v83.3c0,4.4,2.5,9.2,5.6,9.2h6.3c3.1,0,3.8-4.9,3.8-9.2
									v-83.3C2122.1,448,2121.3,443.7,2118.3,443.7z"/>
							</g>
							<path class="st1" d="M2142.3,483.1c0,4.3-3.5,7.8-7.8,7.8h-135.1c-4.3,0-7.8-3.5-7.8-7.8v-0.2c0-4.3,3.5-7.8,7.8-7.8h135.1
								c4.3,0,7.8,3.5,7.8,7.8V483.1z"/>
						</g>
					</g>
				</g>
			</g>
		</g>
		<g>
			<g>
				<g>
					<path class="st2" d="M1111,883c-20.7-98.4-71.6-180.4-136.4-232.2c-57.9-46.3-96.3-113-105.7-186.5c-1-7.7-2.3-15.5-3.9-23.3
						C840.2,322.7,747.5,242,658,260.7s-141.8,130-117,248.3c5.1,24.2,13,46.8,23.2,67.3c32.4,65.5,40.1,140.8,18.7,210.7
						c-19.1,62.5-22.8,134.6-7.3,208.4c23.1,110,84,199.5,159.9,249.2c28.7,18.8,53.9,42.7,74,70.5c33.3,46.2,84.3,71.6,134.5,61
						c54.2-11.4,92.3-61.4,100.9-123.4c4.9-35.1,16.6-68.8,33.3-100C1117.7,1079.1,1131.9,982.5,1111,883z"/>
					<path class="st3" d="M715.8,380.1c28.1,75.8,53.8,152.4,78.6,229.2c6.2,19.2,12.1,38.5,18.1,57.8l9,28.9l8.7,29
						c5.7,19.4,11.7,38.7,17.3,58.1l16.6,58.3c10.5,39,21.4,77.9,31.2,117.1c4.9,19.6,10.3,39.1,14.8,58.8l13.9,59
						c17.7,78.9,33.5,158.2,45.1,238.2l-3.4,0.5l-11-59.5l-2.7-14.9l-3.1-14.8l-6.2-29.6l-6.2-29.6c-2-9.9-4.5-19.7-6.7-29.5
						c-4.6-19.6-8.9-39.3-13.6-58.9c-19.2-78.4-39.5-156.5-61.4-234.1c-11.2-38.8-22.1-77.6-33.6-116.3l-8.5-29l-8.8-29
						c-5.8-19.3-11.7-38.6-17.7-57.9c-11.8-38.6-23.8-77.1-36.2-115.5c-12.2-38.5-24.7-76.9-37.3-115.2L715.8,380.1z"/>
					<g class="st4">
						<path class="st3" d="M612,599.1c-0.8-0.2-1.6-0.7-2-1.5c-52.8-95.7-44.3-167.7-27.8-211.3c17.8-47.3,47.8-71.5,49.1-72.5
							c1.3-1,3.1-0.8,4.1,0.5c1,1.3,0.8,3.1-0.5,4.1c-0.3,0.2-30.1,24.4-47.3,70.3c-15.9,42.3-24,112.5,27.6,206.1
							c0.8,1.4,0.3,3.2-1.2,4C613.4,599.1,612.7,599.2,612,599.1z"/>
					</g>
				</g>
				<g>
					<path class="st5" d="M733.4,1100.1c-33.6-45.5-78.7-75.5-123.9-86.8c-40.4-10.1-75.6-35.3-97.5-70.7c-2.3-3.7-4.8-7.4-7.5-11
						c-40.4-54.7-106.5-74.3-147.8-43.9c-41.2,30.4-41.9,99.5-1.5,154.1c8.3,11.2,17.6,20.9,27.6,29c31.8,25.9,53.4,62.6,58.9,103.3
						c4.9,36.4,19.9,74.1,45,108.2c37.5,50.8,89.5,82.4,139.9,90.1c19,2.9,37.5,9.3,54.2,18.8c27.8,15.8,59.7,16.9,82.9-0.2
						c25-18.4,32.7-52.9,22.6-86.6c-5.7-19.1-7.6-39-6.4-58.9C782.7,1198.7,767.3,1146.1,733.4,1100.1z"/>
					<linearGradient id="SVGID_1_" gradientUnits="userSpaceOnUse" x1="412.7215" y1="1144.9414" x2="762.0117" y2="1144.9414">
						<stop  offset="0" style="stop-color:#DAE3FE"/>
						<stop  offset="1" style="stop-color:#E9EFFD"/>
					</linearGradient>
					<path class="st6" d="M414.1,935.2c32.1,32.2,63.1,65.3,93.8,98.8c7.7,8.4,15.2,16.9,22.8,25.3L542,1072l11.2,12.8
						c7.5,8.6,15,17,22.4,25.7l22.1,25.9c14.5,17.5,29.2,34.8,43.3,52.6c7.1,8.9,14.4,17.6,21.3,26.6l20.9,26.9
						c27.5,36.2,54.1,73,78.8,111.2l-1.6,1.1l-19.6-27.8l-4.9-7l-5-6.8l-10.1-13.7l-10.1-13.7c-3.4-4.6-6.9-9-10.3-13.5
						c-6.9-9-13.8-18-20.7-26.9c-28.1-35.6-56.8-70.7-86.1-105.3c-14.8-17.2-29.5-34.5-44.4-51.6l-11.2-12.8l-11.3-12.7
						c-7.5-8.5-15-17-22.6-25.4c-15-17-30.2-33.9-45.5-50.6c-15.2-16.8-30.6-33.5-46-50.2L414.1,935.2z"/>
					<g class="st4">
						
							<linearGradient id="SVGID_00000142172250624904441150000000670612282745687994_" gradientUnits="userSpaceOnUse" x1="348.9191" y1="987.5753" x2="425.9362" y2="987.5753">
							<stop  offset="0" style="stop-color:#DAE3FE"/>
							<stop  offset="1" style="stop-color:#E9EFFD"/>
						</linearGradient>
						<path style="fill:url(#SVGID_00000142172250624904441150000000670612282745687994_);" d="M424.7,1066.5
							c-0.5,0.1-1,0.1-1.5-0.2c-54.6-36.2-70.1-76.8-73.4-104.4c-3.7-30.1,5.5-51.2,5.9-52.1c0.4-0.9,1.4-1.3,2.3-0.9
							c0.9,0.4,1.3,1.4,0.9,2.3c-0.1,0.2-9.2,21.3-5.6,50.5c3.3,26.9,18.5,66.4,71.9,101.8c0.8,0.5,1,1.6,0.5,2.4
							C425.4,1066.1,425.1,1066.3,424.7,1066.5z"/>
					</g>
				</g>
			</g>
			<g>
				<g>
					<path class="st2" d="M1438.9,946.2c17.1-81.3,59.1-148.9,112.6-191.7c47.8-38.2,79.5-93.3,87.2-154c0.8-6.4,1.9-12.8,3.2-19.3
						c20.5-97.7,97-164.4,170.9-148.8c73.9,15.5,117.1,107.3,96.6,205c-4.2,20-10.7,38.7-19.1,55.6c-26.7,54.1-33.1,116.3-15.5,174
						c15.8,51.6,18.9,111.1,6.1,172.1c-19.1,90.9-69.4,164.7-132,205.8c-23.7,15.5-44.5,35.3-61.1,58.2
						c-27.5,38.2-69.6,59.1-111.1,50.4c-44.7-9.4-76.2-50.7-83.3-101.9c-4-29-13.7-56.8-27.5-82.6
						C1433.3,1108,1421.6,1028.3,1438.9,946.2z"/>
					<path class="st3" d="M1765.2,530.9c-23.2,62.6-44.4,125.8-64.9,189.3c-5.1,15.9-10,31.8-15,47.7l-7.4,23.9l-7.2,24
						c-4.7,16-9.7,31.9-14.2,48l-13.7,48.1c-8.7,32.2-17.7,64.3-25.8,96.7c-4.1,16.2-8.5,32.3-12.2,48.5l-11.5,48.7
						c-14.6,65.1-27.6,130.6-37.3,196.6l2.8,0.4l9.1-49.1l2.2-12.3l2.6-12.2l5.2-24.4l5.1-24.4c1.7-8.2,3.7-16.2,5.5-24.4
						c3.8-16.2,7.4-32.5,11.3-48.7c15.9-64.7,32.6-129.2,50.7-193.3c9.3-32,18.3-64.1,27.8-96l7.1-24l7.3-23.9
						c4.8-15.9,9.7-31.9,14.7-47.8c9.7-31.9,19.7-63.7,29.8-95.4c10-31.8,20.4-63.5,30.8-95.1L1765.2,530.9z"/>
					<path class="st3" d="M1850.9,711.7c0.7-0.1,1.3-0.6,1.7-1.2c43.6-79,36.5-138.5,23-174.4c-14.7-39.1-39.5-59.1-40.5-59.9
						c-1-0.8-2.6-0.7-3.4,0.4c-0.8,1-0.7,2.6,0.4,3.4c0.2,0.2,24.9,20.1,39.1,58.1c13.1,35,19.8,92.9-22.8,170.1
						c-0.6,1.2-0.2,2.6,1,3.3C1849.8,711.7,1850.3,711.8,1850.9,711.7z"/>
				</g>
				<g>
					<path class="st8" d="M1757.4,1089.5c31.7-42.9,74.3-71.3,117-82c38.1-9.6,71.4-33.3,92.1-66.7c2.2-3.5,4.5-7,7-10.4
						c38.1-51.6,100.6-70.2,139.5-41.4c38.9,28.7,39.6,93.9,1.4,145.5c-7.8,10.6-16.6,19.7-26,27.4c-30.1,24.5-50.4,59.1-55.6,97.5
						c-4.6,34.3-18.7,70-42.5,102.1c-35.4,48-84.5,77.8-132.1,85c-18,2.8-35.4,8.7-51.2,17.7c-26.3,15-56.4,16-78.3-0.2
						c-23.6-17.4-30.9-49.9-21.3-81.7c5.4-18,7.2-36.8,6.1-55.6C1710.9,1182.5,1725.4,1132.9,1757.4,1089.5z"/>
					<path class="st3" d="M2058.8,933.8c-30.3,30.4-59.6,61.7-88.5,93.3c-7.2,7.9-14.4,15.9-21.5,23.9l-10.7,12l-10.6,12.1
						c-7,8.1-14.2,16.1-21.1,24.2l-20.9,24.5c-13.7,16.5-27.5,32.9-40.9,49.6c-6.7,8.4-13.6,16.6-20.1,25.1l-19.7,25.4
						c-25.9,34.1-51.1,68.9-74.4,104.9l1.5,1l18.5-26.3l4.6-6.6l4.8-6.5l9.5-12.9l9.5-12.9c3.2-4.3,6.5-8.5,9.7-12.8
						c6.5-8.5,13-17,19.6-25.4c26.6-33.6,53.6-66.8,81.3-99.4c14-16.2,27.8-32.6,41.9-48.7l10.5-12.1l10.6-12
						c7.1-8,14.2-16.1,21.3-24c14.2-16,28.5-32,42.9-47.8c14.4-15.9,28.9-31.7,43.4-47.4L2058.8,933.8z"/>
					<path class="st3" d="M2048.8,1057.7c0.5,0.1,1,0.1,1.4-0.2c51.5-34.2,66.1-72.5,69.3-98.6c3.5-28.4-5.2-48.4-5.6-49.2
						c-0.4-0.8-1.3-1.2-2.2-0.8c-0.8,0.4-1.2,1.4-0.8,2.2c0.1,0.2,8.7,20.1,5.3,47.6c-3.1,25.4-17.5,62.7-67.8,96.1
						c-0.8,0.5-1,1.5-0.5,2.3C2048.2,1057.4,2048.5,1057.6,2048.8,1057.7z"/>
				</g>
			</g>
		</g>
		<g>
			<path class="st8" d="M1009.4,816.3l-4.1-611.2c-0.2-34.3,17.3-60.9,36.9-55.7l95.6,25.1c15.7,4.1,27.3,27.5,27.3,55.1v557.3
				L1009.4,816.3z"/>
			<g>
				<path class="st9" d="M1605.7,288.3c-5.7-21.9-21.5-57.4-64.1-62.7c-56.7-7-496.8-11.3-575.8-12c-7.1-0.1-13.1,5.1-14.2,12.1
					c-2.9,19.2-7.6,57.8-4,90c0.8,7.4,7.2,13,14.7,12.7l630.3-22.3C1601.6,305.9,1608,297.2,1605.7,288.3z M1573.7,286.5l-592.9,21
					c-7.7,0.3-14.1-5.8-14.2-13.4c-0.2-16,1-32.3,2.5-45.8c0.9-8,7.7-14,15.7-13.9c234,2.2,512.5,6.5,554.2,11.7
					c21.2,2.6,33.6,16,40.7,30.6C1582,281,1578.8,286.3,1573.7,286.5z"/>
				<path class="st9" d="M981,212.3c0,28.7,0.5,98.2,3.7,134.5c0.6,6.7,6.2,11.8,13,11.8c33.2-0.2,128.6-1.3,173.2-7.5
					c5.8-0.8,10.3-5.4,11-11.2c3-24.5,9.9-89.6,1.7-124.6c-1.3-5.7-6.2-9.8-12-10.1c-30.3-1.4-129.2-5.8-177.6-5.9
					C986.8,199.3,981,205.1,981,212.3z"/>
				<path class="st10" d="M1021.4,222.6l3.2,100.5c0.2,7.6,6.5,13.5,14.1,13.3l86.2-2.2c7.5-0.2,13.4-6.3,13.4-13.8v-93.7
					c0-7.3-5.7-13.4-13.1-13.7l-89.4-4.6C1027.9,208.1,1021.2,214.6,1021.4,222.6z"/>
				<rect x="1527.2" y="279" class="st2" width="8.2" height="249.1"/>
				
					<rect x="1453.5" y="398.2" transform="matrix(3.417171e-03 -1 1 3.417171e-03 1171.6313 1980.1753)" class="st2" width="251.6" height="8.2"/>
				<g>
					
						<ellipse transform="matrix(0.2283 -0.9736 0.9736 0.2283 680.9634 1926.2457)" class="st1" cx="1555.6" cy="533.6" rx="29.2" ry="29.2"/>
					<path class="st8" d="M1573,533.6c0,9.6-7.8,17.3-17.3,17.3c-9.6,0-17.4-7.8-17.4-17.3c0-9.6,7.8-17.4,17.4-17.4
						C1565.2,516.2,1573,524,1573,533.6z"/>
					<path class="st8" d="M1535.5,639.8l-10-54.6c-2.1-11.4,6.7-21.9,18.3-21.9h24.9c12.6,0,22.5,10.7,21.6,23.3l-4.4,56.1
						c-0.6,7.4-4.4,14.2-10.3,18.7c-9,6.9-21.8,21.1-24.6,47.9c-4.4,42.4,35.4,56.6,59.9,52.1c19.1-3.6,29.5-26.6,25.4-43.9
						c-1.5-6.4,3.1-12.6,9.7-12.6h0c4.6,0,8.6,3.1,9.8,7.6c4.8,19.1,11,68.5-48.8,78.2c-70.9,11.5-139.7-64.1-79.1-125.2
						C1534.5,658.7,1537.2,649.1,1535.5,639.8z"/>
				</g>
				
					<ellipse transform="matrix(0.7071 -0.7071 0.7071 0.7071 261.3788 1180.4409)" class="st1" cx="1555.6" cy="274.7" rx="29.2" ry="29.2"/>
				<path class="st8" d="M1573,274.7c0,9.6-7.8,17.4-17.3,17.4c-9.6,0-17.4-7.8-17.4-17.4c0-9.6,7.8-17.4,17.4-17.4
					C1565.2,257.4,1573,265.1,1573,274.7z"/>
			</g>
		</g>
		<g>
			<path class="st1" d="M1780,1221.3c0-508.7-521.3-582.4-546.1-585v-0.1c0,0,0.2,0,0,0c-0.2,0,0,0,0,0v0.1
				c-15.7,2.6-545.6,76.3-545.6,585c31.6,31,12,47.6,12,47.6h525.5h17.2h525.5C1768.5,1268.9,1748.5,1252.3,1780,1221.3z"/>
			<path class="st3" d="M666.4,1286.2c0,0-15.2,202.7,532.4,202.7c592.5,0,602.5-202.7,602.5-202.7S1075.7,1180.1,666.4,1286.2z"/>
			<path class="st1" d="M666.4,1240.7c0,0-15.2,202.7,532.4,202.7c592.5,0,602.5-202.7,602.5-202.7S1075.7,1134.6,666.4,1240.7z"/>
			<path class="st3" d="M1804.1,1223.2c-1.1-12.6-12.2-22.2-24.9-22.2c-12.8,0-23.6,10.4-23.6,23.1v0.2c0,1.7-0.4,3.4-1.7,4.5
				c-1.3,1.1-3,1.6-4.7,1.4c-47.5-7.5-325.6-53.2-344.1-104.5c-5.1-134.4,34.8-434.4,17.8-453.4c-15.1-16.7-62.5-27-93-29.2
				c-3-0.2-5.8,0.8-8,2.8c-2.2,2-3.5,4.8-3.6,7.7c-2.5,66.6-9.9,398.7-11.2,461.3c-0.1,5.7-4.7,10.1-10.4,10.1h-6.8
				c-2.8,0-5.5-1.1-7.5-3.1c-2-2-3-4.7-2.9-7.5l16.2-493.6c0.5-15.2-9.6-28.7-24.4-32.2c-24.4-5.9-49.8-5.9-74.2-0.1l-0.3,0.1
				c-14.8,3.6-25,17-24.5,32.2l16.1,493.7c0.1,2.8-1,5.5-2.9,7.5c-2,2-4.7,3.1-7.5,3.1h-6.8c-5.7,0-10.3-4.4-10.4-10.1
				c-1.4-62.6-8.8-394.8-11.3-461.4c-0.1-3-1.4-5.7-3.6-7.7c-2.2-2-5.1-3-8.1-2.7c-30.5,2.2-78,12.5-93.1,29.2
				c-17.1,18.9,22.7,319,17.7,453.4c-18.5,51.3-296.7,97.1-344.3,104.5c-1.7,0.3-2.8-0.2-4.2-1.4c-1.3-1.1-1.4-2.8-1.4-4.5v-0.2
				c0-12.8-11-23.1-23.8-23.1c-12.6,0-23.5,9.6-24.7,22.2l-5.3,56.5c-0.3,2.9,0.7,5.7,2.7,7.8c2,2.1,4.8,3.1,7.6,3L1234,1254
				l564.8,36.4c2.9,0.2,5.7-0.9,7.7-3c2-2.1,3-4.9,2.7-7.8L1804.1,1223.2z"/>
			<g>
				<path class="st11" d="M971.1,789.9c-46.1-10.6-92.7,43.3-118.4,75.6c-30.2,37.8-77.6,89.4-51.4,142.2
					c17.9,36.1,63,46.8,97.8,32.7c39.4-16,37.7-59.9,53.2-94c17.8-39.3,64.8-92.2,41-138.4C987.8,797.4,980,791.9,971.1,789.9z"/>
			</g>
			<g class="st12">
				<g>
					<path class="st9" d="M910.8,1120.1c-157.5,0-201.2-49.4-203.4-52c-1.3-1.6-1.1-4,0.5-5.3c1.6-1.3,4-1.1,5.3,0.5
						c0.7,0.8,66.6,73.8,323.8,40.4c2.1-0.3,4,1.2,4.2,3.3c0.3,2.1-1.2,4-3.3,4.2C989,1117.6,946.9,1120.1,910.8,1120.1z"/>
				</g>
				<g>
					<path class="st9" d="M1557,1120.1c-36.1,0-78.2-2.6-127.1-9c-2.1-0.3-3.5-2.2-3.3-4.2c0.3-2.1,2.1-3.6,4.2-3.3
						c258.3,33.5,323.1-39.6,323.8-40.4c1.4-1.6,3.7-1.8,5.3-0.5c1.6,1.3,1.8,3.7,0.5,5.3C1758.2,1070.8,1714.5,1120.1,1557,1120.1z
						"/>
				</g>
			</g>
			<path class="st9" d="M1249.7,1162.7c0,5.8-10.1,10.6-20.2,10.6l0,0c-10.1,0-20.2-4.7-20.2-10.6V612.7c0-5.8,10.1-10.6,20.2-10.6
				l0,0c10.1,0,20.2,4.7,20.2,10.6V1162.7z"/>
			<g>
				<path class="st9" d="M1376.5,683.4l-5.7-1.8c-5.9-1.9-12.5-1-17.6,2.3c-5.2,3.3-8.4,8.8-8.7,14.7l-24.4,458.7
					c-0.5,9,6.5,16.8,16,17.8l0.4,0c4.9,0.5,9.8-0.9,13.6-3.8c3.8-3,6.1-7.3,6.5-11.9l33.6-456.7
					C1390.8,694,1385.2,686.1,1376.5,683.4z"/>
				<path class="st9" d="M1091.3,683.4l5.7-1.8c5.9-1.9,12.5-1,17.6,2.3c5.2,3.3,8.4,8.8,8.7,14.7l24.4,458.7
					c0.5,9-6.5,16.8-16,17.8l-0.4,0c-4.9,0.5-9.8-0.9-13.6-3.8c-3.8-3-6.1-7.3-6.5-11.9l-33.6-456.7
					C1077,694,1082.6,686.1,1091.3,683.4z"/>
			</g>
			<path class="st8" d="M1700.8,1304c-1.3-5-5.6-8.7-10.7-9.3c-102.7-11.6-468.7-45.3-925.5,0.3c-5.3,0.5-9.6,4.3-10.9,9.4
				c-1.3,5.1,0.8,10.5,5.1,13.5c52.2,35.1,191.7,104.8,475.3,102.9c283-1.9,413.7-69.4,461.8-103.4
				C1700.2,1314.3,1702.1,1309,1700.8,1304z"/>
		</g>
		<g>
			<path class="st3" d="M1819.8,982.3c-10.2,8.9-25.7,7.8-34.6-2.4c-8.9-10.2-7.8-25.7,2.4-34.6c10.2-8.9,25.7-7.8,34.6,2.4
				C1831.1,957.9,1830,973.4,1819.8,982.3z M1794,952.6c-6.2,5.4-6.8,14.7-1.4,20.9c5.4,6.2,14.7,6.8,20.9,1.4
				c6.2-5.4,6.8-14.7,1.4-20.9C1809.5,947.9,1800.2,947.2,1794,952.6z"/>
			<g>
				<path class="st3" d="M1769.4,924.3c21.8-18.9,54.9-16.6,73.8,5.1c1.2,1.3,2.3,2.7,3.3,4.2c1.4,1.9,4.1,2.1,5.7,0.3l5-5.9
					c1.1-1.3,1.1-3.1,0.1-4.5c-1-1.3-2-2.5-3-3.7c-24.2-27.8-66.6-30.8-94.5-6.6c-2.1,1.8-4.1,3.8-5.9,5.8c-1.4,1.5-1.2,3.9,0.4,5.2
					l5.8,4.8c1.5,1.2,3.6,1,4.9-0.4C1766.3,927.1,1767.8,925.6,1769.4,924.3z"/>
				<path class="st3" d="M1744.6,895.8c37.5-32.6,94.5-28.6,127.1,8.8c0,0,0,0,0,0c1.4,1.6,4,1.7,5.4,0l4.9-5.7c0-1.8,0-2.9,0-4.7
					c-38-42.8-103.7-47.1-147-9.4c-3.8,3.3-7.2,6.8-10.4,10.5c-1.3,1.5-1.1,3.8,0.5,5l5.8,4.7c1.5,1.2,3.7,1.1,4.9-0.4
					C1738.5,901.6,1741.4,898.6,1744.6,895.8z"/>
				<path class="st3" d="M1719.8,867.3c51.8-45.1,129.9-40.9,176.6,8.5c1.5,1.6,3.9,1.5,5.3-0.1l4.9-5.7c1.2-1.4,1.1-3.5-0.1-4.8
					c-52.2-54.5-138.8-59-196.3-8.9c-5.4,4.7-10.3,9.7-14.8,15c-1.3,1.5-1,3.8,0.5,5.1l5.8,4.7c1.5,1.2,3.7,1,5-0.5
					C1710.6,876,1715,871.5,1719.8,867.3z"/>
			</g>
		</g>
		<g>
			<g>
				<g>
					<path class="st2" d="M1868.1,450.4c-0.2,0-0.4,0-0.6-0.1l-9.7-3c-0.8-0.2-1.3-1-1.4-1.8l-0.2-7.7c-3.1-1.9-5.9-4.3-8.4-7
						l-7.6,1.2c-0.8,0.1-1.6-0.3-2-1l-4.7-8.9c-0.4-0.7-0.3-1.6,0.3-2.3l5.3-5.6c-0.9-3.6-1.2-7.2-1-10.9l-6.2-4.6
						c-0.7-0.5-1-1.4-0.7-2.2l3-9.7c0.2-0.8,1-1.3,1.8-1.4l7.7-0.2c1.9-3.1,4.3-5.9,7-8.4l-1.2-7.6c-0.1-0.8,0.3-1.6,1-2l8.9-4.7
						c0.7-0.4,1.6-0.3,2.3,0.3l5.6,5.3c3.6-0.9,7.2-1.2,10.9-1l4.6-6.2c0.5-0.7,1.4-1,2.2-0.7l9.6,3c0.8,0.3,1.3,1,1.4,1.8l0.2,7.7
						c3.1,1.9,5.9,4.3,8.4,7l7.6-1.2c0.8-0.1,1.6,0.3,2,1l4.7,8.9c0.4,0.7,0.3,1.6-0.3,2.3l-5.3,5.6c0.9,3.6,1.2,7.2,1,10.9l6.2,4.6
						c0.7,0.5,1,1.4,0.7,2.2l-3,9.7c-0.2,0.8-1,1.3-1.8,1.4l-7.7,0.2c-1.9,3.1-4.3,5.9-7,8.4l1.2,7.6c0.1,0.8-0.3,1.6-1,2l-8.9,4.7
						c-0.7,0.4-1.6,0.3-2.3-0.3l-5.6-5.3c-3.6,0.9-7.2,1.2-10.9,1l-4.6,6.2C1869.3,450.1,1868.8,450.4,1868.1,450.4z M1859.1,445
						l8.9,2.8l5.2-7l0.7,0c3.9,0.3,7.7-0.1,11.4-1.1l0.7-0.2l6.3,6l8.2-4.3l-1.3-8.6l0.5-0.5c2.9-2.5,5.4-5.5,7.3-8.8l0.4-0.6
						l8.7-0.3l2.8-8.9l-7-5.2l0-0.7c0.3-3.9-0.1-7.7-1.1-11.4l-0.2-0.7l6-6.3l-4.3-8.2l-8.6,1.3l-0.5-0.5c-2.5-2.9-5.5-5.4-8.8-7.3
						l-0.6-0.4l-0.3-8.7l-8.9-2.7l-5.2,7l-0.7,0c-3.9-0.3-7.7,0.1-11.4,1l-0.7,0.2l-6.3-6l-8.2,4.3l1.3,8.6l-0.5,0.5
						c-2.9,2.5-5.4,5.5-7.3,8.8l-0.4,0.6l-8.7,0.3l-2.7,8.9l7,5.2l0,0.7c-0.3,3.9,0.1,7.7,1.1,11.4l0.2,0.7l-6,6.4l4.3,8.2l8.6-1.3
						l0.5,0.5c2.5,2.9,5.5,5.4,8.8,7.3l0.6,0.4L1859.1,445z M1891.9,445.7L1891.9,445.7L1891.9,445.7z M1858.7,444.9L1858.7,444.9
						L1858.7,444.9z M1840.5,429.8L1840.5,429.8L1840.5,429.8z M1915.9,422.8C1915.9,422.8,1915.9,422.8,1915.9,422.8L1915.9,422.8z
						 M1919.1,413.8C1919.1,413.8,1919.1,413.8,1919.1,413.8L1919.1,413.8z M1916.7,389.6C1916.7,389.6,1916.7,389.6,1916.7,389.6
						L1916.7,389.6z M1912,380.7L1912,380.7L1912,380.7z M1851.7,369.5L1851.7,369.5C1851.7,369.5,1851.7,369.5,1851.7,369.5z
						 M1884.2,362.6C1884.2,362.6,1884.2,362.6,1884.2,362.6L1884.2,362.6z M1884.8,362.4L1884.8,362.4
						C1884.8,362.4,1884.8,362.4,1884.8,362.4z M1876.1,430.9c-2.6,0-5.1-0.4-7.6-1.2c-6.5-2-11.9-6.5-15.1-12.5
						c-6.6-12.5-1.8-28.1,10.7-34.6c12.5-6.6,28.1-1.8,34.6,10.7c0.9,1.6,1.5,3.3,2,5.1l-2.4,0.7c-0.4-1.6-1.1-3.1-1.8-4.6
						c-5.9-11.3-19.9-15.6-31.2-9.7c-11.3,5.9-15.6,19.9-9.7,31.2c2.9,5.5,7.7,9.5,13.6,11.3c5.9,1.8,12.2,1.3,17.6-1.6
						c3.7-2,6.8-4.9,9-8.4l2.2,1.3c-2.4,4-5.8,7.2-10,9.4C1884.3,429.9,1880.2,430.9,1876.1,430.9z"/>
					<path class="st2" d="M1876.3,415.5c-0.2,0-0.4,0-0.6,0c-2.7-0.1-5.2-1.3-7.1-3.4c-1.8-2-2.8-4.7-2.6-7.4
						c0.1-2.7,1.3-5.2,3.4-7.1c4.2-3.8,10.7-3.4,14.5,0.8l0,0c3.8,4.2,3.4,10.7-0.8,14.5C1881.2,414.6,1878.8,415.5,1876.3,415.5z
						 M1876.2,397.6c-1.8,0-3.7,0.7-5.1,2c-3.2,2.8-3.4,7.7-0.6,10.9c1.4,1.5,3.3,2.4,5.3,2.5c2,0.1,4-0.6,5.6-2
						c3.2-2.8,3.4-7.7,0.6-10.9C1880.5,398.4,1878.4,397.6,1876.2,397.6z"/>
				</g>
				<g>
					<path class="st10" d="M1997.9,404.8c-1.1,0-2-0.6-2.5-1.6l-6.2-15c-7.6-1.4-14.9-3.9-21.7-7.5l-14.2,8c-1,0.6-2.2,0.4-3.1-0.3
						l-15.2-13.5c-0.8-0.8-1.1-2-0.7-3l6.3-15c-4.4-6.4-7.8-13.3-10-20.7l-15.7-4.4c-1.1-0.3-1.9-1.3-1.9-2.4l-1.2-20.3
						c-0.1-1.1,0.6-2.2,1.6-2.6l15-6.2c1.4-7.6,3.9-14.9,7.5-21.7l-8-14.2c-0.6-1-0.4-2.2,0.3-3.1l13.5-15.2c0.8-0.9,2-1.1,3-0.7
						l15,6.3c6.4-4.4,13.3-7.8,20.7-10l4.4-15.7c0.3-1.1,1.3-1.9,2.4-1.9l20.3-1.2c1.1,0,2.2,0.6,2.6,1.6l6.2,15
						c7.6,1.4,14.9,3.9,21.7,7.5l14.2-8c1-0.6,2.2-0.4,3.1,0.3l15.2,13.5c0.8,0.7,1.1,2,0.7,3l-6.3,15c4.4,6.4,7.8,13.3,10,20.7
						l15.7,4.4h0c1.1,0.3,1.9,1.3,1.9,2.4l1.2,20.3c0.1,1.1-0.6,2.2-1.6,2.6l-15,6.2c-1.4,7.6-3.9,14.9-7.5,21.7l8,14.2
						c0.6,1,0.4,2.2-0.3,3.1l-13.5,15.2c-0.8,0.8-2,1.1-3,0.7l-15-6.3c-6.4,4.4-13.3,7.8-20.7,10l-4.4,15.7
						c-0.3,1.1-1.3,1.9-2.4,1.9l-20.3,1.2C1998,404.8,1998,404.8,1997.9,404.8z M1967.5,377.6l0.6,0.3c7,3.8,14.5,6.4,22.2,7.7
						l0.7,0.1l6.7,16.3l20.4-1.1l4.9-17.1l0.7-0.2c7.6-2.2,14.7-5.7,21.2-10.3l0.6-0.4l16.3,6.8l13.7-15.2l-8.6-15.6l0.3-0.6
						c3.8-7,6.4-14.5,7.7-22.2l0.1-0.7l16.3-6.7l-1.2-20.6l-17-4.8l-0.2-0.7c-2.2-7.6-5.7-14.7-10.3-21.2l-0.4-0.6l6.8-16.3
						l-15.2-13.7l-15.6,8.6l-0.6-0.3c-7-3.8-14.5-6.4-22.2-7.7l-0.7-0.1l-6.7-16.3l-20.5,1.1l-4.9,17.1l-0.7,0.2
						c-7.6,2.3-14.7,5.7-21.2,10.3l-0.6,0.4l-16.3-6.8l-13.7,15.2l8.6,15.6l-0.3,0.6c-3.8,7-6.4,14.5-7.7,22.2l-0.1,0.7l-16.3,6.7
						l1.1,20.5l17.1,4.9l0.2,0.7c2.2,7.6,5.7,14.7,10.3,21.2l0.4,0.6l-6.8,16.3l15.2,13.7L1967.5,377.6z M2002.6,363.8
						c-26.5,0-48.7-20.7-50.3-47.4c-1.6-27.7,19.6-51.6,47.4-53.3c27.8-1.7,51.6,19.6,53.3,47.4c0.2,3.6,0,7.2-0.5,10.7l-2.5-0.4
						c0.5-3.3,0.7-6.8,0.5-10.2c-1.5-26.3-24.3-46.5-50.6-45c-26.3,1.5-46.5,24.2-45,50.6c1.5,26.3,24.3,46.5,50.6,45
						c8.7-0.5,17-3.3,24.1-8.2l1.4,2.1c-7.5,5.1-16.3,8.1-25.4,8.6C2004.5,363.8,2003.6,363.8,2002.6,363.8z"/>
					<path class="st10" d="M2003,333c-8.2,0-15.9-5.3-18.5-13.5c-1.6-4.9-1.1-10.2,1.3-14.7c2.4-4.6,6.4-8,11.3-9.5
						c10.2-3.2,21.1,2.4,24.3,12.6c3.2,10.2-2.4,21.1-12.6,24.3C2006.8,332.7,2004.9,333,2003,333z M2002.9,296.8
						c-1.7,0-3.4,0.3-5.1,0.8c-4.3,1.4-7.8,4.3-9.9,8.3c-2.1,4-2.5,8.5-1.1,12.8c2.8,8.8,12.3,13.8,21.1,11
						c8.8-2.8,13.8-12.3,11-21.1C2016.7,301.4,2010.1,296.8,2002.9,296.8z"/>
				</g>
			</g>
		</g>
		<g>
			<g>
				<path class="st3" d="M1484,1221.7c-2,0-3.6-0.6-3.6-2.6c0-2,1.6-3.1,3.6-3.1c2.1,0,4.2,0.2,6.4,0.2c1.9-0.1,3.6,1.7,3.6,3.7
					c0,2-1.6,2.7-3.5,2.7C1488.3,1222.6,1486.2,1221.7,1484,1221.7C1484,1221.7,1484,1221.7,1484,1221.7z M1469.1,1221.7
					C1469.1,1221.7,1469.1,1221.7,1469.1,1221.7c-2.2,0-4.3,0.8-6.5,0.8c-2,0-3.5-1.2-3.5-3.2c0-2,1.7-3.3,3.6-3.3
					c2.1,0,4.2,0.2,6.4,0.2c2,0,3.5,0.8,3.5,2.8C1472.6,1221,1471.1,1221.7,1469.1,1221.7z M1505.3,1221.7c-1.9,0-3.5-0.7-3.6-2.7
					c0-2,1.5-3.2,3.5-3.2c2.1-0.1,4.2,0.1,6.4,0c2,0,3.6,1.6,3.7,3.6s-1.5,2.8-3.5,2.9C1509.7,1222.4,1507.5,1221.7,1505.3,1221.7
					C1505.4,1221.7,1505.3,1221.7,1505.3,1221.7z M1447.8,1223c0,0-0.1,0-0.1,0c-2.1-0.1-4.3-0.2-6.4-0.3c-2-0.1-3.5-1.8-3.4-3.7
					c0.1-2,1.8-3.5,3.7-3.4c2.1,0.1,4.2,0.2,6.4,0.3c2,0.1,3.5,1.7,3.4,3.7C1451.3,1221.5,1449.7,1223,1447.8,1223z M1526.6,1222.6
					c-1.9,0-3.5-1.5-3.6-3.4c-0.1-2,1.4-3.6,3.4-3.7c2.1-0.1,4.2-0.2,6.4-0.3c2-0.1,3.7,1.4,3.8,3.4c0.1,2-1.4,3.7-3.4,3.8
					c-2.1,0.1-4.3,0.2-6.4,0.3C1526.7,1222.6,1526.7,1222.6,1526.6,1222.6z M1426.5,1221.9c-0.1,0-0.2,0-0.2,0
					c-2.1-0.1-4.3-0.3-6.4-0.4c-2-0.1-3.5-1.8-3.3-3.8c0.1-2,1.8-3.4,3.8-3.3c2.1,0.1,4.2,0.3,6.4,0.4c2,0.1,3.5,1.8,3.3,3.8
					C1430,1220.5,1428.4,1221.9,1426.5,1221.9z M1547.9,1221.4c-1.9,0-3.4-1.4-3.6-3.3c-0.1-2,1.4-3.7,3.3-3.8
					c2.1-0.1,4.2-0.3,6.4-0.5c2-0.2,3.7,1.3,3.8,3.3c0.1,2-1.3,3.7-3.3,3.8c-2.1,0.2-4.3,0.3-6.4,0.5
					C1548,1221.4,1548,1221.4,1547.9,1221.4z M1405.3,1220.3c-0.1,0-0.2,0-0.3,0c-2.1-0.2-4.3-0.4-6.4-0.6c-2-0.2-3.4-1.9-3.2-3.9
					c0.2-2,1.9-3.4,3.9-3.2c2.1,0.2,4.2,0.4,6.3,0.6c2,0.2,3.4,1.9,3.2,3.9C1408.7,1218.9,1407.1,1220.3,1405.3,1220.3z
					 M1569.1,1219.7c-1.8,0-3.4-1.4-3.6-3.3c-0.2-2,1.3-3.7,3.2-3.9c2.1-0.2,4.2-0.4,6.3-0.6c2-0.2,3.7,1.2,3.9,3.2
					c0.2,2-1.2,3.7-3.2,3.9c-2.1,0.2-4.3,0.4-6.4,0.6C1569.3,1219.7,1569.2,1219.7,1569.1,1219.7z M1384.1,1218.2
					c-0.1,0-0.3,0-0.4,0c-2.1-0.2-4.3-0.5-6.4-0.7c-2-0.2-3.4-2-3.1-4c0.2-2,2-3.4,4-3.1c2.1,0.3,4.2,0.5,6.3,0.7
					c2,0.2,3.4,2,3.2,3.9C1387.4,1216.9,1385.9,1218.2,1384.1,1218.2z M1590.3,1217.6c-1.8,0-3.3-1.3-3.5-3.2
					c-0.2-2,1.2-3.7,3.2-3.9c2.1-0.2,4.2-0.5,6.3-0.7c2-0.2,3.7,1.2,4,3.1c0.2,2-1.2,3.7-3.1,4c-2.1,0.2-4.2,0.5-6.4,0.7
					C1590.6,1217.6,1590.4,1217.6,1590.3,1217.6z M1363,1215.6c-0.2,0-0.3,0-0.5,0c-2.1-0.3-4.2-0.6-6.4-0.9c-2-0.3-3.3-2.1-3-4
					c0.3-2,2.1-3.3,4-3c2.1,0.3,4.2,0.6,6.3,0.9c2,0.3,3.3,2.1,3.1,4C1366.3,1214.3,1364.7,1215.6,1363,1215.6z M1611.5,1215
					c-1.8,0-3.3-1.3-3.5-3.1c-0.3-2,1.1-3.7,3.1-4c2.1-0.3,4.2-0.6,6.3-0.8c1.9-0.3,3.8,1.1,4,3.1c0.3,2-1.1,3.8-3.1,4
					c-2.1,0.3-4.2,0.6-6.4,0.9C1611.8,1215,1611.6,1215,1611.5,1215z M1341.9,1212.4c-0.2,0-0.4,0-0.6,0c-2.1-0.3-4.2-0.7-6.3-1.1
					c-1.9-0.3-3.2-2.2-2.9-4.1c0.3-1.9,2.2-3.3,4.1-2.9c2.1,0.4,4.2,0.7,6.3,1.1c1.9,0.3,3.3,2.2,2.9,4.1
					C1345.1,1211.2,1343.6,1212.4,1341.9,1212.4z M1632.5,1212c-1.7,0-3.3-1.3-3.5-3c-0.3-1.9,1-3.8,3-4.1l6.3-1c2-0.3,3.8,1,4.1,3
					c0.3,1.9-1,3.8-3,4.1l-6.3,1C1632.9,1212,1632.7,1212,1632.5,1212z M1320.9,1208.7c-0.2,0-0.4,0-0.7-0.1
					c-2.1-0.4-4.2-0.8-6.3-1.2c-1.9-0.4-3.2-2.3-2.8-4.2c0.4-1.9,2.3-3.2,4.2-2.8c2.1,0.4,4.2,0.8,6.2,1.2c1.9,0.4,3.2,2.2,2.8,4.2
					C1324.1,1207.5,1322.6,1208.7,1320.9,1208.7z M1653.6,1208.6c-1.7,0-3.2-1.2-3.5-2.9c-0.3-1.9,0.9-3.8,2.9-4.1
					c2.1-0.4,4.2-0.8,6.3-1.2c1.9-0.4,3.8,0.9,4.2,2.8c0.4,1.9-0.9,3.8-2.8,4.2c-2.1,0.4-4.2,0.8-6.3,1.2
					C1654,1208.5,1653.8,1208.6,1653.6,1208.6z M1674.5,1204.5c-1.7,0-3.1-1.2-3.5-2.8c-0.4-1.9,0.8-3.8,2.8-4.2
					c2.1-0.4,4.1-0.9,6.2-1.3c1.9-0.4,3.8,0.8,4.2,2.7c0.4,1.9-0.8,3.8-2.7,4.2c-2.1,0.5-4.2,0.9-6.3,1.3
					C1675,1204.5,1674.7,1204.5,1674.5,1204.5z M1300.1,1204.4c-0.3,0-0.5,0-0.8-0.1c-2.1-0.5-4.2-0.9-6.3-1.4
					c-1.9-0.4-3.1-2.3-2.7-4.3c0.4-1.9,2.3-3.1,4.3-2.7c2.1,0.5,4.1,0.9,6.2,1.4c1.9,0.4,3.1,2.3,2.7,4.2
					C1303.2,1203.3,1301.7,1204.4,1300.1,1204.4z M1695.3,1199.8c-1.6,0-3.1-1.1-3.5-2.7c-0.5-1.9,0.7-3.8,2.6-4.3
					c2.1-0.5,4.1-1,6.2-1.5c1.9-0.5,3.8,0.7,4.3,2.6c0.5,1.9-0.7,3.8-2.6,4.3c-2.1,0.5-4.2,1-6.2,1.5
					C1695.8,1199.8,1695.6,1199.8,1695.3,1199.8z M1279.3,1199.6c-0.3,0-0.6,0-0.9-0.1c-2.1-0.5-4.1-1-6.2-1.6
					c-1.9-0.5-3.1-2.4-2.6-4.3c0.5-1.9,2.4-3.1,4.3-2.6c2.1,0.5,4.1,1,6.2,1.5c1.9,0.5,3.1,2.4,2.6,4.3
					C1282.4,1198.5,1281,1199.6,1279.3,1199.6z M1715.9,1194.6c-1.6,0-3-1.1-3.4-2.7c-0.5-1.9,0.6-3.9,2.5-4.4
					c2-0.5,4.1-1.1,6.1-1.7c1.9-0.5,3.9,0.6,4.4,2.5c0.5,1.9-0.6,3.9-2.5,4.4c-2.1,0.6-4.1,1.1-6.2,1.7
					C1716.6,1194.6,1716.2,1194.6,1715.9,1194.6z M1258.7,1194.3c-0.3,0-0.6,0-0.9-0.1c-2.1-0.6-4.1-1.1-6.2-1.7
					c-1.9-0.5-3-2.5-2.5-4.4c0.5-1.9,2.5-3,4.4-2.5c2,0.6,4.1,1.1,6.1,1.7c1.9,0.5,3,2.5,2.5,4.4
					C1261.7,1193.2,1260.3,1194.3,1258.7,1194.3z M1736.5,1188.9c-1.5,0-3-1-3.4-2.6c-0.6-1.9,0.5-3.9,2.4-4.4
					c2-0.6,4.1-1.2,6.1-1.8c1.9-0.6,3.9,0.5,4.5,2.4c0.6,1.9-0.5,3.9-2.4,4.5c-2,0.6-4.1,1.2-6.1,1.8
					C1737.1,1188.8,1736.8,1188.9,1736.5,1188.9z M1238.3,1188.4c-0.3,0-0.7,0-1-0.2c-2-0.6-4.1-1.2-6.1-1.9
					c-1.9-0.6-2.9-2.6-2.4-4.5c0.6-1.9,2.6-2.9,4.5-2.4c2,0.6,4.1,1.2,6.1,1.9c1.9,0.6,3,2.6,2.4,4.5
					C1241.2,1187.4,1239.8,1188.4,1238.3,1188.4z M1756.8,1182.6c-1.5,0-2.9-1-3.4-2.5c-0.6-1.9,0.4-3.9,2.3-4.5c2-0.7,4-1.3,6-2
					c1.9-0.6,3.9,0.4,4.5,2.3c0.6,1.9-0.4,3.9-2.3,4.5c-2,0.7-4.1,1.3-6.1,2C1757.5,1182.5,1757.2,1182.6,1756.8,1182.6z M1218,1182
					c-0.4,0-0.8-0.1-1.1-0.2c-2-0.7-4-1.3-6.1-2c-1.9-0.6-2.9-2.7-2.2-4.5c0.6-1.9,2.7-2.9,4.5-2.2c2,0.7,4,1.4,6,2
					c1.9,0.6,2.9,2.6,2.3,4.5C1220.9,1181,1219.5,1182,1218,1182z M1777,1175.7c-1.5,0-2.8-0.9-3.4-2.4c-0.7-1.9,0.3-3.9,2.2-4.6
					c2-0.7,4-1.4,6-2.1c1.9-0.7,3.9,0.3,4.6,2.1c0.7,1.9-0.3,3.9-2.1,4.6c-2,0.7-4,1.4-6,2.2
					C1777.8,1175.7,1777.4,1175.7,1777,1175.7z M1197.9,1175c-0.4,0-0.8-0.1-1.2-0.2c-2-0.7-4-1.5-6-2.2c-1.8-0.7-2.8-2.7-2.1-4.6
					c0.7-1.9,2.7-2.8,4.6-2.1c2,0.7,4,1.5,6,2.2c1.9,0.7,2.8,2.7,2.1,4.6C1200.7,1174.1,1199.3,1175,1197.9,1175z M1797,1168.4
					c-1.4,0-2.8-0.9-3.3-2.3c-0.7-1.8,0.2-3.9,2.1-4.6c2-0.8,4-1.5,5.9-2.3c1.8-0.7,3.9,0.2,4.6,2c0.7,1.8-0.2,3.9-2,4.6
					c-2,0.8-4,1.6-6,2.3C1797.9,1168.3,1797.4,1168.4,1797,1168.4z M1178,1167.6c-0.4,0-0.9-0.1-1.3-0.2c-1.5-0.6-3.1-1.2-4.6-1.8
					l-1.3-0.5c-1.8-0.7-2.7-2.8-2-4.6c0.7-1.8,2.8-2.7,4.6-2l1.3,0.5c1.5,0.6,3.1,1.2,4.6,1.8c1.8,0.7,2.7,2.8,2,4.6
					C1180.7,1166.7,1179.4,1167.6,1178,1167.6z M491.2,1163.8c-0.3,0-0.6,0-0.8-0.1c-0.6-0.1-1.2-0.3-1.9-0.5
					c-1.9-0.5-3.1-2.4-2.6-4.3c0.5-1.9,2.4-3.1,4.3-2.6c0.6,0.2,1.2,0.3,1.8,0.4c1.9,0.5,3.1,2.4,2.6,4.3
					C494.3,1162.7,492.8,1163.8,491.2,1163.8z M1816.8,1160.5c-1.4,0-2.7-0.8-3.3-2.2c-0.8-1.8,0.1-3.9,1.9-4.7
					c2-0.8,3.9-1.6,5.9-2.5c1.8-0.8,3.9,0.1,4.7,1.9c0.8,1.8-0.1,3.9-1.9,4.7c-2,0.8-3.9,1.7-5.9,2.5
					C1817.7,1160.4,1817.2,1160.5,1816.8,1160.5z M1158.2,1159.6c-0.5,0-0.9-0.1-1.4-0.3c-2-0.8-3.9-1.6-5.9-2.4
					c-1.8-0.8-2.7-2.8-1.9-4.7c0.8-1.8,2.8-2.7,4.7-1.9c2,0.8,3.9,1.6,5.9,2.4c1.8,0.7,2.7,2.8,2,4.7
					C1160.9,1158.8,1159.6,1159.6,1158.2,1159.6z M475.1,1159.1c-0.4,0-0.8-0.1-1.2-0.2c-2-0.7-4.1-1.4-6.1-2.2
					c-1.8-0.7-2.8-2.8-2.1-4.6c0.7-1.8,2.8-2.8,4.6-2.1c2,0.8,3.9,1.5,5.9,2.1c1.9,0.6,2.9,2.7,2.2,4.5
					C477.9,1158.2,476.5,1159.1,475.1,1159.1z M1836.4,1152.1c-1.4,0-2.7-0.8-3.3-2.1c-0.8-1.8,0-3.9,1.8-4.7
					c1.9-0.9,3.9-1.7,5.8-2.6c1.8-0.8,3.9,0,4.7,1.8c0.8,1.8,0,3.9-1.8,4.7c-2,0.9-3.9,1.8-5.9,2.6
					C1837.4,1152,1836.9,1152.1,1836.4,1152.1z M1138.5,1151.5c-0.5,0-0.9-0.1-1.4-0.3c-2-0.8-3.9-1.7-5.9-2.5
					c-1.8-0.8-2.7-2.9-1.9-4.7c0.8-1.8,2.9-2.7,4.7-1.9c2,0.8,3.9,1.7,5.9,2.5c1.8,0.8,2.7,2.9,1.9,4.7
					C1141.3,1150.6,1139.9,1151.5,1138.5,1151.5z M455.4,1151c-0.5,0-1.1-0.1-1.6-0.4c-2-1-3.9-2-5.8-3c-1.7-0.9-2.4-3.1-1.4-4.8
					c0.9-1.7,3.1-2.4,4.8-1.4c1.8,1,3.7,1.9,5.6,2.9c1.8,0.9,2.5,3,1.6,4.8C457.9,1150.3,456.7,1151,455.4,1151z M1855.8,1143.1
					c-1.3,0-2.6-0.7-3.2-2c-0.9-1.8-0.1-3.9,1.7-4.8c1.9-0.9,3.8-1.8,5.7-2.8c1.8-0.9,3.9-0.1,4.8,1.6c0.9,1.8,0.1,3.9-1.6,4.8
					c-1.9,0.9-3.9,1.9-5.8,2.8C1856.8,1143,1856.3,1143.1,1855.8,1143.1z M1119,1143.1c-0.5,0-1-0.1-1.4-0.3l-5.9-2.6
					c-1.8-0.8-2.6-2.9-1.8-4.7c0.8-1.8,2.9-2.6,4.7-1.8l5.8,2.5c1.8,0.8,2.6,2.9,1.9,4.7C1121.7,1142.3,1120.3,1143.1,1119,1143.1z
					 M437,1140.2c-0.7,0-1.4-0.2-2.1-0.7c-1.8-1.3-3.6-2.7-5.3-4c-1.5-1.3-1.7-3.5-0.5-5c1.3-1.5,3.5-1.7,5-0.5
					c1.5,1.3,3.2,2.5,4.9,3.7c1.6,1.1,2,3.4,0.8,5C439.2,1139.7,438.1,1140.2,437,1140.2z M1099.5,1134.5c-0.5,0-1-0.1-1.4-0.3
					l-5.8-2.6c-1.8-0.8-2.6-2.9-1.8-4.7c0.8-1.8,2.9-2.6,4.7-1.8l5.8,2.6c1.8,0.8,2.6,2.9,1.8,4.7
					C1102.1,1133.7,1100.8,1134.5,1099.5,1134.5z M1874.9,1133.6c-1.3,0-2.5-0.7-3.2-1.9c-0.9-1.8-0.2-3.9,1.5-4.8
					c1.9-1,3.8-2,5.6-2.9c1.7-0.9,3.9-0.3,4.8,1.5c0.9,1.7,0.2,3.9-1.5,4.8c-1.9,1-3.8,2-5.7,3
					C1876,1133.5,1875.4,1133.6,1874.9,1133.6z M1080,1125.8c-0.5,0-1-0.1-1.5-0.3l-5.8-2.6c-1.8-0.8-2.6-2.9-1.8-4.7
					c0.8-1.8,2.9-2.6,4.7-1.8l5.8,2.6c1.8,0.8,2.6,2.9,1.8,4.7C1082.7,1125.1,1081.4,1125.8,1080,1125.8z M421.4,1125.8
					c-1.1,0-2.1-0.5-2.8-1.4c-1.5-1.8-2.8-3.7-3.9-5.6c-1-1.7-0.5-3.9,1.2-4.9c1.7-1,3.9-0.5,4.9,1.2c1,1.6,2.1,3.3,3.4,4.9
					c1.2,1.5,1,3.8-0.6,5C423,1125.6,422.2,1125.8,421.4,1125.8z M1893.7,1123.6c-1.3,0-2.5-0.7-3.1-1.8c-1-1.7-0.3-3.9,1.4-4.9
					c1.9-1,3.7-2.1,5.5-3.1c1.7-1,3.9-0.4,4.9,1.4c1,1.7,0.4,3.9-1.4,4.9c-1.9,1.1-3.7,2.1-5.6,3.1
					C1894.9,1123.4,1894.3,1123.6,1893.7,1123.6z M1060.6,1117.1c-0.5,0-1-0.1-1.5-0.3l-5.8-2.6c-1.8-0.8-2.6-2.9-1.8-4.7
					c0.8-1.8,2.9-2.6,4.7-1.8l5.8,2.6c1.8,0.8,2.6,2.9,1.8,4.7C1063.2,1116.3,1061.9,1117.1,1060.6,1117.1z M1912.2,1113
					c-1.2,0-2.4-0.6-3.1-1.7c-1-1.7-0.5-3.9,1.2-4.9c1.8-1.1,3.6-2.2,5.4-3.3c1.7-1,3.9-0.5,4.9,1.2c1,1.7,0.5,3.9-1.2,4.9
					c-1.8,1.1-3.7,2.2-5.5,3.3C1913.4,1112.8,1912.8,1113,1912.2,1113z M1041.2,1108.3c-0.5,0-1-0.1-1.5-0.3l-5.8-2.6
					c-1.8-0.8-2.6-2.9-1.8-4.7c0.8-1.8,2.9-2.6,4.7-1.8l5.8,2.6c1.8,0.8,2.6,2.9,1.8,4.7C1043.8,1107.6,1042.5,1108.3,1041.2,1108.3
					z M412.6,1106.7c-1.7,0-3.3-1.3-3.5-3c-0.3-1.8-0.4-3.6-0.4-5.3c0-0.6,0-1.1,0-1.7c0.1-2,1.8-3.5,3.7-3.4c2,0.1,3.5,1.8,3.4,3.7
					c0,0.5,0,0.9,0,1.4c0,1.4,0.1,2.9,0.3,4.3c0.3,2-1.1,3.8-3,4.1C412.9,1106.7,412.8,1106.7,412.6,1106.7z M1930.3,1101.8
					c-1.2,0-2.3-0.6-3-1.6c-1.1-1.7-0.6-3.9,1.1-4.9c1.8-1.1,3.6-2.3,5.3-3.4c1.7-1.1,3.9-0.6,4.9,1c1.1,1.7,0.6,3.9-1,4.9
					c-1.8,1.2-3.6,2.3-5.4,3.5C1931.6,1101.7,1930.9,1101.8,1930.3,1101.8z M1021.7,1099.6c-0.5,0-1-0.1-1.5-0.3l-5.8-2.6
					c-1.8-0.8-2.6-2.9-1.8-4.7c0.8-1.8,2.9-2.6,4.7-1.8l5.8,2.6c1.8,0.8,2.6,2.9,1.8,4.7C1024.4,1098.8,1023.1,1099.6,1021.7,1099.6
					z M1002.3,1090.9c-0.5,0-1-0.1-1.4-0.3l-5.8-2.6c-1.8-0.8-2.6-2.9-1.8-4.7c0.8-1.8,2.9-2.6,4.7-1.8l5.8,2.6
					c1.8,0.8,2.6,2.9,1.8,4.7C1005,1090.1,1003.7,1090.9,1002.3,1090.9z M1948,1090.1c-1.1,0-2.3-0.5-2.9-1.5
					c-1.1-1.6-0.7-3.8,0.9-5c1.7-1.2,3.5-2.4,5.2-3.6c1.6-1.1,3.8-0.7,5,0.9c1.1,1.6,0.7,3.8-0.9,5c-1.7,1.2-3.5,2.4-5.3,3.7
					C1949.4,1089.9,1948.7,1090.1,1948,1090.1z M416,1086c-0.5,0-1-0.1-1.5-0.3c-1.8-0.8-2.6-3-1.7-4.7c0.9-2,2-4,3.3-6
					c1.1-1.7,3.3-2.2,4.9-1.1c1.7,1.1,2.2,3.3,1.1,4.9c-1.1,1.7-2.1,3.5-2.9,5.2C418.6,1085.3,417.3,1086,416,1086z M982.8,1082.3
					c-0.5,0-1-0.1-1.4-0.3l-5.9-2.6c-1.8-0.8-2.6-2.9-1.8-4.7c0.8-1.8,2.9-2.6,4.7-1.8l5.9,2.6c1.8,0.8,2.6,2.9,1.8,4.7
					C985.5,1081.5,984.2,1082.3,982.8,1082.3z M1965.3,1077.8c-1.1,0-2.2-0.5-2.9-1.4c-1.2-1.6-0.8-3.8,0.7-5
					c1.7-1.3,3.4-2.5,5.1-3.8c1.6-1.2,3.8-0.9,5,0.7c1.2,1.6,0.9,3.8-0.7,5c-1.7,1.3-3.4,2.6-5.1,3.8
					C1966.8,1077.6,1966.1,1077.8,1965.3,1077.8z M963.3,1073.8c-0.5,0-0.9-0.1-1.4-0.3l-5.9-2.5c-1.8-0.8-2.7-2.9-1.9-4.7
					c0.8-1.8,2.9-2.7,4.7-1.9l5.9,2.5c1.8,0.8,2.7,2.9,1.9,4.7C966,1073,964.6,1073.8,963.3,1073.8z M428.3,1068.8
					c-0.9,0-1.8-0.3-2.5-1c-1.4-1.4-1.5-3.6-0.1-5c1.1-1.2,2.3-2.3,3.5-3.5c0.4-0.4,0.8-0.8,1.2-1.1c1.5-1.3,3.7-1.2,5,0.2
					c1.3,1.5,1.2,3.7-0.2,5c-0.4,0.4-0.8,0.7-1.1,1.1c-1.1,1.1-2.2,2.2-3.3,3.2C430.2,1068.4,429.3,1068.8,428.3,1068.8z
					 M943.6,1065.6c-0.5,0-0.9-0.1-1.4-0.3c-2-0.8-3.9-1.6-5.9-2.4c-1.8-0.7-2.7-2.8-1.9-4.7c0.7-1.8,2.8-2.7,4.7-1.9
					c2,0.8,3.9,1.6,5.9,2.4c1.8,0.8,2.7,2.8,1.9,4.7C946.4,1064.7,945,1065.6,943.6,1065.6z M1982.2,1064.9c-1,0-2.1-0.5-2.8-1.3
					c-1.2-1.5-1-3.8,0.6-5c1.7-1.3,3.3-2.6,4.9-4c1.5-1.2,3.8-1,5,0.5c1.2,1.5,1,3.8-0.5,5c-1.7,1.3-3.3,2.7-5,4
					C1983.7,1064.6,1983,1064.9,1982.2,1064.9z M923.9,1057.5c-0.4,0-0.9-0.1-1.3-0.3c-2-0.8-3.9-1.6-5.9-2.4
					c-1.8-0.7-2.7-2.8-2-4.6c0.7-1.8,2.8-2.7,4.6-2c2,0.8,4,1.6,6,2.4c1.8,0.7,2.7,2.8,2,4.6
					C926.7,1056.7,925.3,1057.5,923.9,1057.5z M444.5,1055c-1.1,0-2.2-0.5-2.9-1.5c-1.1-1.6-0.7-3.8,0.9-5c1.8-1.2,3.6-2.5,5.5-3.6
					c1.7-1.1,3.9-0.6,4.9,1.1c1.1,1.7,0.6,3.9-1.1,4.9c-1.8,1.1-3.5,2.3-5.2,3.5C446,1054.8,445.2,1055,444.5,1055z M1998.5,1051.3
					c-1,0-2-0.4-2.7-1.2c-1.3-1.5-1.1-3.7,0.4-5c1.6-1.4,3.2-2.8,4.8-4.2c1.5-1.3,3.7-1.2,5,0.3c1.3,1.5,1.2,3.7-0.3,5
					c-1.6,1.4-3.2,2.8-4.8,4.2C2000.2,1051,1999.3,1051.3,1998.5,1051.3z M904.1,1049.8c-0.4,0-0.9-0.1-1.3-0.2c-2-0.8-4-1.5-6-2.3
					c-1.8-0.7-2.8-2.8-2.1-4.6c0.7-1.8,2.8-2.8,4.6-2.1c2,0.8,4,1.5,6,2.3c1.8,0.7,2.8,2.8,2.1,4.6
					C906.9,1048.9,905.5,1049.8,904.1,1049.8z M462.8,1044.1c-1.3,0-2.6-0.7-3.2-2c-0.9-1.8-0.2-3.9,1.6-4.8c1.9-1,3.9-1.9,5.9-2.8
					c1.8-0.8,3.9,0,4.7,1.7c0.8,1.8,0,3.9-1.7,4.7c-1.9,0.9-3.8,1.8-5.6,2.7C463.9,1044,463.4,1044.1,462.8,1044.1z M884.1,1042.3
					c-0.4,0-0.8-0.1-1.2-0.2c-2-0.7-4-1.4-6-2.2c-1.9-0.7-2.8-2.7-2.2-4.6c0.7-1.9,2.7-2.8,4.6-2.2c2,0.7,4,1.4,6,2.2
					c1.9,0.7,2.8,2.7,2.1,4.6C886.9,1041.4,885.6,1042.3,884.1,1042.3z M2014.3,1037.1c-1,0-1.9-0.4-2.6-1.1c-1.3-1.4-1.3-3.7,0.2-5
					c1.5-1.4,3.1-2.9,4.6-4.4c1.4-1.4,3.7-1.3,5,0.1c1.4,1.4,1.3,3.7-0.1,5c-1.5,1.5-3.1,3-4.7,4.4
					C2016.1,1036.8,2015.2,1037.1,2014.3,1037.1z M482.3,1035.5c-1.4,0-2.8-0.9-3.3-2.3c-0.7-1.8,0.2-3.9,2.1-4.6
					c2-0.8,4-1.5,6.1-2.2c1.9-0.7,3.9,0.3,4.6,2.2c0.7,1.9-0.3,3.9-2.2,4.6c-2,0.7-4,1.4-5.9,2.2
					C483.2,1035.5,482.8,1035.5,482.3,1035.5z M864,1035.2c-0.4,0-0.8-0.1-1.2-0.2c-2-0.7-4-1.4-6-2c-1.9-0.6-2.9-2.6-2.3-4.5
					c0.6-1.9,2.6-2.9,4.5-2.3c2,0.7,4.1,1.4,6.1,2c1.9,0.6,2.9,2.7,2.2,4.5C866.9,1034.3,865.5,1035.2,864,1035.2z M502.5,1028.7
					c-1.5,0-2.9-1-3.4-2.5c-0.6-1.9,0.5-3.9,2.4-4.5c2.1-0.6,4.1-1.2,6.2-1.8c1.9-0.5,3.9,0.6,4.4,2.4c0.5,1.9-0.6,3.9-2.4,4.4
					c-2,0.6-4.1,1.2-6.1,1.8C503.2,1028.6,502.9,1028.7,502.5,1028.7z M843.8,1028.6c-0.4,0-0.7-0.1-1.1-0.2c-2-0.6-4-1.3-6.1-1.9
					c-1.9-0.6-2.9-2.6-2.4-4.5c0.6-1.9,2.6-2.9,4.5-2.4c2,0.6,4.1,1.3,6.1,1.9c1.9,0.6,2.9,2.6,2.3,4.5
					C846.7,1027.6,845.3,1028.6,843.8,1028.6z M523,1023c-1.6,0-3-1.1-3.5-2.7c-0.5-1.9,0.7-3.9,2.6-4.3c2.1-0.5,4.2-1.1,6.2-1.6
					c1.9-0.5,3.9,0.7,4.3,2.6c0.5,1.9-0.7,3.9-2.6,4.3c-2,0.5-4.1,1-6.2,1.6C523.6,1022.9,523.3,1023,523,1023z M823.4,1022.4
					c-0.3,0-0.7,0-1-0.1c-2-0.6-4.1-1.2-6.1-1.7c-1.9-0.5-3-2.5-2.5-4.4c0.5-1.9,2.5-3,4.4-2.5c2.1,0.6,4.1,1.2,6.2,1.8
					c1.9,0.5,3,2.5,2.4,4.4C826.4,1021.4,825,1022.4,823.4,1022.4z M2029.6,1022.2c-0.9,0-1.8-0.3-2.5-1c-1.4-1.4-1.4-3.6-0.1-5
					c1.5-1.5,2.9-3,4.4-4.6c1.4-1.4,3.6-1.5,5-0.1c1.4,1.4,1.5,3.6,0.1,5c-1.5,1.6-3,3.1-4.5,4.6
					C2031.4,1021.8,2030.5,1022.2,2029.6,1022.2z M543.7,1017.9c-1.6,0-3.1-1.1-3.5-2.7c-0.5-1.9,0.7-3.8,2.6-4.3l6.2-1.5
					c1.9-0.5,3.8,0.7,4.3,2.6c0.5,1.9-0.7,3.8-2.6,4.3l-6.2,1.5C544.3,1017.9,544,1017.9,543.7,1017.9z M802.9,1016.9
					c-0.3,0-0.6,0-0.9-0.1c-2.1-0.5-4.1-1-6.2-1.5c-1.9-0.5-3.1-2.4-2.7-4.3c0.5-1.9,2.4-3.1,4.3-2.7c2.1,0.5,4.2,1,6.2,1.5
					c1.9,0.5,3.1,2.4,2.6,4.3C805.9,1015.8,804.5,1016.9,802.9,1016.9z M564.4,1012.9c-1.6,0-3.1-1.1-3.5-2.8
					c-0.4-1.9,0.7-3.8,2.7-4.3c2.1-0.5,4.2-1,6.3-1.4c1.9-0.4,3.8,0.8,4.3,2.7c0.4,1.9-0.8,3.8-2.7,4.3c-2.1,0.5-4.1,0.9-6.2,1.4
					C565,1012.9,564.7,1012.9,564.4,1012.9z M782.1,1012.1c-0.2,0-0.5,0-0.7-0.1c-2.1-0.4-4.1-0.9-6.2-1.3c-1.9-0.4-3.2-2.3-2.8-4.2
					c0.4-1.9,2.3-3.2,4.2-2.8c2.1,0.4,4.2,0.8,6.3,1.3c1.9,0.4,3.2,2.3,2.8,4.2C785.2,1010.9,783.8,1012.1,782.1,1012.1z
					 M585.3,1008.5c-1.7,0-3.2-1.2-3.5-2.9c-0.4-1.9,0.9-3.8,2.9-4.2c2.1-0.4,4.2-0.8,6.3-1.1c2-0.3,3.8,1,4.1,2.9
					c0.3,1.9-1,3.8-2.9,4.1c-2.1,0.4-4.2,0.7-6.2,1.1C585.7,1008.5,585.5,1008.5,585.3,1008.5z M761.2,1008.1c-0.2,0-0.4,0-0.6,0
					c-2.1-0.4-4.2-0.7-6.3-1c-1.9-0.3-3.3-2.1-3-4.1c0.3-1.9,2.1-3.3,4.1-3c2.1,0.3,4.2,0.7,6.3,1c1.9,0.3,3.3,2.2,2.9,4.1
					C764.4,1006.9,762.9,1008.1,761.2,1008.1z M2044.1,1006.6c-0.8,0-1.7-0.3-2.4-0.9c-1.5-1.3-1.6-3.6-0.3-5
					c1.4-1.6,2.8-3.2,4.2-4.8c1.3-1.5,3.5-1.7,5-0.4c1.5,1.3,1.6,3.5,0.4,5c-1.4,1.6-2.8,3.2-4.3,4.8
					C2046.1,1006.2,2045.1,1006.6,2044.1,1006.6z M606.3,1005.2c-1.8,0-3.3-1.3-3.5-3.1c-0.3-2,1.1-3.8,3.1-4
					c2.1-0.3,4.3-0.6,6.4-0.8c2-0.2,3.7,1.1,4,3.1c0.2,2-1.1,3.7-3.1,4c-2.1,0.3-4.2,0.5-6.3,0.8
					C606.6,1005.1,606.5,1005.2,606.3,1005.2z M740.1,1005c-0.2,0-0.3,0-0.5,0c-2.1-0.3-4.2-0.5-6.3-0.8c-2-0.2-3.4-2-3.1-4
					c0.2-2,2-3.4,4-3.1c2.1,0.2,4.3,0.5,6.4,0.8c2,0.3,3.3,2,3.1,4C743.4,1003.7,741.9,1005,740.1,1005z M627.5,1002.7
					c-1.8,0-3.4-1.4-3.6-3.2c-0.2-2,1.3-3.7,3.2-3.9c2.1-0.2,4.3-0.4,6.4-0.5c2-0.1,3.7,1.3,3.8,3.3c0.2,2-1.3,3.7-3.3,3.8
					c-2.1,0.2-4.2,0.3-6.3,0.5C627.7,1002.7,627.6,1002.7,627.5,1002.7z M718.9,1002.7c-0.1,0-0.2,0-0.3,0c-2.1-0.2-4.2-0.4-6.3-0.5
					c-2-0.2-3.4-1.9-3.3-3.8c0.2-2,1.9-3.4,3.8-3.3c2.1,0.2,4.3,0.3,6.4,0.5c2,0.2,3.4,1.9,3.2,3.9
					C722.3,1001.3,720.8,1002.7,718.9,1002.7z M697.7,1001.2c-0.1,0-0.1,0-0.2,0c-2.1-0.1-4.2-0.2-6.3-0.3c-2-0.1-3.5-1.7-3.4-3.7
					c0.1-2,1.7-3.5,3.7-3.4c2.1,0.1,4.3,0.2,6.4,0.3c2,0.1,3.5,1.8,3.4,3.7C701.2,999.8,699.6,1001.2,697.7,1001.2z M648.7,1001.2
					c-1.9,0-3.5-1.5-3.6-3.4c-0.1-2,1.4-3.6,3.4-3.7c2.1-0.1,4.3-0.2,6.4-0.3c2-0.1,3.6,1.5,3.7,3.4c0.1,2-1.5,3.6-3.4,3.7
					c-2.1,0.1-4.2,0.2-6.3,0.3C648.8,1001.2,648.8,1001.2,648.7,1001.2z M676.4,999.7C676.4,999.7,676.4,999.7,676.4,999.7
					c-1.2,0-2.3,0-3.4,0l-3,0c0,0,0,0,0,0c-2,0-3.6-1.1-3.6-3.1c0-2,1.6-3.4,3.6-3.4l3,0.1c1.1,0,2.3,0.1,3.4,0.1
					c2,0,3.6,1.2,3.5,3.2C680,998.6,678.4,999.7,676.4,999.7z M2057.9,990.5c-0.8,0-1.6-0.3-2.2-0.8c-1.5-1.2-1.8-3.5-0.5-5
					c1.3-1.6,2.6-3.3,3.9-4.9c1.2-1.6,3.5-1.8,5-0.6c1.6,1.2,1.8,3.5,0.6,5c-1.3,1.7-2.7,3.4-4,5
					C2060,990,2058.9,990.5,2057.9,990.5z M2070.8,973.6c-0.7,0-1.5-0.2-2.1-0.7c-1.6-1.2-1.9-3.4-0.8-5c1.2-1.7,2.5-3.4,3.7-5.1
					c1.1-1.6,3.4-2,5-0.9c1.6,1.1,2,3.4,0.9,5c-1.2,1.7-2.5,3.5-3.7,5.2C2073,973.1,2071.9,973.6,2070.8,973.6z M2082.9,956.1
					c-0.7,0-1.3-0.2-1.9-0.6c-1.7-1.1-2.1-3.3-1-4.9c1.1-1.8,2.3-3.5,3.4-5.3c1-1.7,3.2-2.2,4.9-1.1c1.7,1,2.2,3.2,1.1,4.9
					c-1.1,1.8-2.3,3.6-3.5,5.4C2085.2,955.6,2084,956.1,2082.9,956.1z M2093.9,938c-0.6,0-1.2-0.2-1.8-0.5c-1.7-1-2.3-3.2-1.3-4.9
					c1-1.8,2.1-3.7,3.1-5.5c0.9-1.7,3.1-2.4,4.8-1.4c1.7,0.9,2.4,3.1,1.4,4.8c-1,1.9-2.1,3.8-3.2,5.6
					C2096.4,937.3,2095.2,938,2093.9,938z M2104,919.2c-0.5,0-1.1-0.1-1.6-0.4c-1.8-0.9-2.5-3-1.6-4.8c0.9-1.9,1.9-3.8,2.8-5.7
					c0.8-1.8,3-2.5,4.8-1.7c1.8,0.8,2.5,3,1.7,4.8c-0.9,1.9-1.9,3.9-2.8,5.8C2106.6,918.5,2105.3,919.2,2104,919.2z M2112.9,899.9
					c-0.5,0-0.9-0.1-1.4-0.3c-1.8-0.8-2.7-2.9-1.9-4.7c0.8-1.9,1.6-3.9,2.4-5.9c0.7-1.8,2.8-2.7,4.6-2c1.8,0.7,2.7,2.8,2,4.6
					c-0.8,2-1.6,4-2.5,6C2115.6,899.1,2114.3,899.9,2112.9,899.9z M2120.6,880c-0.4,0-0.8-0.1-1.2-0.2c-1.9-0.7-2.8-2.7-2.2-4.6
					c0.7-2,1.4-4,2.1-6c0.6-1.9,2.6-2.9,4.5-2.3c1.9,0.6,2.9,2.6,2.3,4.5c-0.7,2.1-1.4,4.1-2.1,6.1
					C2123.5,879.1,2122.1,880,2120.6,880z M2127.1,859.7c-0.3,0-0.6,0-1-0.1c-1.9-0.5-3-2.5-2.5-4.4c0.6-2,1.1-4.1,1.7-6.1
					c0.5-1.9,2.5-3,4.4-2.5c1.9,0.5,3,2.5,2.5,4.4c-0.5,2.1-1.1,4.2-1.7,6.2C2130.1,858.7,2128.6,859.7,2127.1,859.7z M2132.2,839
					c-0.3,0-0.5,0-0.8-0.1c-1.9-0.4-3.1-2.3-2.7-4.2c0.4-2.1,0.9-4.1,1.3-6.2c0.4-1.9,2.3-3.2,4.2-2.8c1.9,0.4,3.2,2.3,2.8,4.2
					c-0.4,2.1-0.9,4.2-1.3,6.3C2135.3,837.9,2133.9,839,2132.2,839z M2136.1,818.1c-0.2,0-0.4,0-0.6,0c-1.9-0.3-3.3-2.1-3-4.1
					c0.3-2.1,0.6-4.2,0.9-6.3c0.3-2,2.1-3.3,4-3.1c2,0.3,3.3,2.1,3.1,4c-0.3,2.1-0.6,4.3-0.9,6.4
					C2139.4,816.8,2137.8,818.1,2136.1,818.1z M2138.7,797c-0.1,0-0.2,0-0.3,0c-2-0.2-3.4-1.9-3.2-3.9c0.2-2.1,0.4-4.2,0.5-6.3
					c0.1-2,1.8-3.5,3.8-3.3c2,0.1,3.4,1.9,3.3,3.8c-0.2,2.1-0.3,4.3-0.5,6.4C2142.1,795.6,2140.6,797,2138.7,797z M2140,775.8
					c0,0-0.1,0-0.1,0c-2,0-3.5-1.7-3.5-3.7c0.1-2.1,0.1-4.5,0.1-6.6c0-2,1.6-3.8,3.6-3.8c0,0,0,0,0,0c2,0,3.6,1.9,3.5,3.9
					c0,2.1-0.1,4.5-0.1,6.6C2143.5,774.1,2142,775.8,2140,775.8z M2140,753.6c-1.9,0-3.5-1.1-3.6-3c-0.1-2.1-0.2-4-0.3-6.1
					c-0.1-2,1.4-3.5,3.4-3.7c2-0.1,3.7,1.5,3.8,3.4c0.1,2.1,0.2,3.9,0.3,6c0.1,2-1.5,3.3-3.4,3.3C2140,753.6,2140,753.6,2140,753.6z
					 M2138.5,733.2c-1.8,0-3.4-1.4-3.5-3.2c-0.2-2.1-0.4-4.2-0.7-6.3c-0.2-2,1.2-3.7,3.1-4c2-0.2,3.7,1.2,4,3.1
					c0.3,2.1,0.5,4.3,0.7,6.4c0.2,2-1.2,3.7-3.2,3.9C2138.8,733.2,2138.7,733.2,2138.5,733.2z M2135.8,712.1c-1.7,0-3.2-1.2-3.5-3
					c-0.3-2.1-0.7-4.2-1.1-6.2c-0.4-1.9,0.9-3.8,2.9-4.2c1.9-0.4,3.8,0.9,4.2,2.9c0.4,2.1,0.8,4.2,1.1,6.4c0.3,1.9-1,3.8-2.9,4.1
					C2136.2,712.1,2136,712.1,2135.8,712.1z M2131.7,691.2c-1.6,0-3.1-1.1-3.5-2.8c-0.5-2.1-0.9-4.1-1.4-6.1
					c-0.5-1.9,0.7-3.8,2.6-4.3c1.9-0.5,3.8,0.7,4.3,2.6c0.5,2.1,1,4.2,1.5,6.3c0.4,1.9-0.8,3.8-2.7,4.3
					C2132.2,691.2,2132,691.2,2131.7,691.2z M2126.4,670.6c-1.5,0-3-1-3.4-2.6c-0.6-2-1.2-4-1.8-6.1c-0.6-1.9,0.5-3.9,2.4-4.5
					c1.9-0.6,3.9,0.5,4.5,2.4c0.6,2.1,1.2,4.1,1.8,6.2c0.5,1.9-0.5,3.9-2.4,4.4C2127.1,670.6,2126.7,670.6,2126.4,670.6z
					 M2119.9,650.4c-1.5,0-2.9-0.9-3.4-2.4c-0.7-2-1.4-4-2.1-6c-0.7-1.8,0.3-3.9,2.1-4.6c1.9-0.7,3.9,0.3,4.6,2.1
					c0.7,2,1.5,4,2.2,6.1c0.7,1.9-0.3,3.9-2.2,4.6C2120.7,650.3,2120.3,650.4,2119.9,650.4z M2112.3,630.4c-1.4,0-2.7-0.8-3.3-2.2
					c-0.8-2-1.6-3.9-2.5-5.9c-0.8-1.8,0.1-3.9,1.9-4.7c1.8-0.8,3.9,0.1,4.7,1.9c0.9,2,1.7,4,2.5,6c0.7,1.8-0.1,3.9-1.9,4.7
					C2113.2,630.4,2112.8,630.4,2112.3,630.4z M2103.7,610.9c-1.3,0-2.6-0.8-3.2-2c-0.9-1.9-1.8-3.8-2.8-5.7
					c-0.9-1.8-0.1-3.9,1.6-4.8c1.8-0.9,3.9-0.1,4.8,1.6c0.9,1.9,1.9,3.9,2.8,5.8c0.8,1.8,0.1,3.9-1.7,4.8
					C2104.7,610.8,2104.2,610.9,2103.7,610.9z M2094.1,591.8c-1.3,0-2.5-0.7-3.2-1.9c-1-1.9-2-3.7-3-5.6c-0.9-1.7-0.3-3.9,1.4-4.8
					c1.7-0.9,3.9-0.3,4.8,1.4c1,1.9,2,3.8,3.1,5.7c0.9,1.7,0.3,3.9-1.5,4.8C2095.3,591.7,2094.7,591.8,2094.1,591.8z M2083.8,573.2
					c-1.2,0-2.4-0.6-3.1-1.8c-1.1-1.8-2.2-3.6-3.2-5.5c-1-1.7-0.5-3.9,1.2-4.9c1.7-1,3.9-0.5,4.9,1.2c1.1,1.8,2.2,3.7,3.3,5.5
					c1,1.7,0.4,3.9-1.3,4.9C2085,573.1,2084.4,573.2,2083.8,573.2z M2072.6,555.1c-1.2,0-2.3-0.6-3-1.6c-1.1-1.8-2.3-3.6-3.5-5.3
					c-1.1-1.6-0.6-3.9,1-4.9c1.6-1.1,3.9-0.6,4.9,1c1.2,1.8,2.3,3.6,3.5,5.4c1.1,1.7,0.6,3.9-1.1,4.9
					C2074,554.9,2073.3,555.1,2072.6,555.1z M2060.8,537.4c-1.1,0-2.2-0.5-2.9-1.5c-1.2-1.7-2.4-3.5-3.7-5.2c-1.1-1.6-0.8-3.8,0.8-5
					c1.6-1.1,3.8-0.8,5,0.8c1.2,1.7,2.5,3.5,3.7,5.3c1.1,1.6,0.7,3.8-0.9,5C2062.2,537.2,2061.5,537.4,2060.8,537.4z M2048.3,520.1
					c-1.1,0-2.2-0.5-2.9-1.4c-1.3-1.7-2.5-3.4-3.8-5.1c-1.2-1.6-0.9-3.8,0.7-5c1.6-1.2,3.8-0.9,5,0.7c1.3,1.7,2.6,3.4,3.9,5.1
					c1.2,1.6,0.9,3.8-0.7,5C2049.8,519.9,2049.1,520.1,2048.3,520.1z M2035.3,503.2c-1,0-2.1-0.5-2.8-1.3c-1.3-1.7-2.6-3.3-4-5
					c-1.2-1.5-1-3.8,0.5-5c1.5-1.2,3.8-1,5,0.5c1.4,1.7,2.7,3.3,4,5c1.2,1.5,1,3.8-0.6,5C2036.9,503,2036.1,503.2,2035.3,503.2z
					 M2021.8,486.8c-1,0-2-0.4-2.7-1.3c-1.4-1.6-2.8-3.2-4.1-4.9c-1.3-1.5-1.1-3.7,0.4-5c1.5-1.3,3.7-1.1,5,0.4
					c1.4,1.6,2.8,3.3,4.2,4.9c1.3,1.5,1.1,3.8-0.4,5C2023.4,486.5,2022.6,486.8,2021.8,486.8z M2007.7,470.7c-1,0-2-0.4-2.7-1.2
					c-1.4-1.6-2.8-3.2-4.3-4.7c-1.3-1.5-1.2-3.7,0.2-5c1.5-1.3,3.7-1.2,5,0.2c1.4,1.6,2.9,3.2,4.3,4.8c1.3,1.5,1.2,3.7-0.3,5
					C2009.4,470.4,2008.6,470.7,2007.7,470.7z M1993.3,454.9c-1,0-1.9-0.4-2.6-1.1c-1.5-1.5-2.9-3.1-4.4-4.6c-1.4-1.4-1.3-3.7,0.1-5
					c1.4-1.4,3.7-1.3,5,0.1c1.5,1.6,3,3.1,4.4,4.7c1.4,1.4,1.3,3.7-0.2,5C1995.1,454.6,1994.2,454.9,1993.3,454.9z M1978.5,439.5
					c-0.9,0-1.8-0.4-2.5-1.1c-1.5-1.5-3-3-4.5-4.5c-1.4-1.4-1.4-3.7,0-5c1.4-1.4,3.7-1.4,5,0c1.5,1.5,3,3,4.5,4.6
					c1.4,1.4,1.4,3.7,0,5C1980.3,439.2,1979.4,439.5,1978.5,439.5z M1963.4,424.5c-0.9,0-1.8-0.3-2.5-1c-1.5-1.5-3-3-4.6-4.4
					c-1.4-1.4-1.5-3.6-0.1-5c1.4-1.4,3.6-1.5,5-0.1c1.5,1.5,3.1,3,4.6,4.5c1.4,1.4,1.4,3.6,0.1,5
					C1965.2,424.1,1964.3,424.5,1963.4,424.5z M1948,409.8c-0.9,0-1.8-0.3-2.4-1c-1.6-1.5-3.1-2.9-4.7-4.3c-1.4-1.3-1.5-3.6-0.2-5
					c1.3-1.4,3.6-1.5,5-0.2c1.6,1.5,3.1,2.9,4.7,4.4c1.4,1.3,1.5,3.6,0.2,5C1949.9,409.4,1948.9,409.8,1948,409.8z M1932.3,395.3
					c-0.9,0-1.7-0.3-2.4-0.9c-1.6-1.4-3.2-2.8-4.7-4.3c-1.5-1.3-1.6-3.6-0.3-5c1.3-1.5,3.6-1.6,5-0.3c1.6,1.4,3.2,2.8,4.8,4.3
					c1.5,1.3,1.6,3.6,0.3,5C1934.2,394.9,1933.3,395.3,1932.3,395.3z M1916.4,381.2c-0.8,0-1.7-0.3-2.3-0.9
					c-1.6-1.4-3.2-2.8-4.8-4.2c-1.5-1.3-1.7-3.5-0.4-5c1.3-1.5,3.5-1.6,5-0.4c1.6,1.4,3.2,2.8,4.8,4.2c1.5,1.3,1.6,3.6,0.3,5
					C1918.4,380.8,1917.4,381.2,1916.4,381.2z M1900.3,367.3c-0.8,0-1.6-0.3-2.3-0.8c-1.6-1.4-3.2-2.7-4.9-4.1
					c-1.5-1.3-1.7-3.5-0.4-5c1.3-1.5,3.5-1.7,5-0.4c1.6,1.4,3.2,2.7,4.9,4.1c1.5,1.3,1.7,3.5,0.4,5
					C1902.3,366.9,1901.3,367.3,1900.3,367.3z M1884,353.7c-0.8,0-1.6-0.3-2.3-0.8c-1.6-1.4-3.3-2.7-4.9-4.1c-1.5-1.3-1.7-3.5-0.5-5
					c1.3-1.5,3.5-1.7,5-0.5c1.6,1.4,3.3,2.7,4.9,4.1c1.5,1.3,1.7,3.5,0.5,5C1886,353.2,1885,353.7,1884,353.7z M1867.5,340.2
					c-0.8,0-1.6-0.3-2.2-0.8l-5-4c-1.5-1.2-1.8-3.5-0.6-5c1.2-1.5,3.5-1.8,5-0.6l5,4c1.5,1.2,1.8,3.5,0.5,5
					C1869.5,339.7,1868.5,340.2,1867.5,340.2z M1850.8,326.9c-0.8,0-1.6-0.2-2.2-0.8l-5-3.9c-1.6-1.2-1.8-3.5-0.6-5
					c1.2-1.6,3.5-1.8,5-0.6l5,4c1.5,1.2,1.8,3.5,0.6,5C1852.9,326.5,1851.9,326.9,1850.8,326.9z M1834,313.8c-0.8,0-1.5-0.2-2.2-0.7
					l-5.1-3.9c-1.6-1.2-1.9-3.4-0.7-5c1.2-1.6,3.4-1.9,5-0.7l5.1,3.9c1.6,1.2,1.9,3.4,0.6,5C1836.1,313.3,1835.1,313.8,1834,313.8z
					 M1817.1,300.9c-0.8,0-1.5-0.2-2.2-0.7l-5.1-3.9c-1.6-1.2-1.9-3.4-0.7-5c1.2-1.6,3.4-1.9,5-0.7l5.1,3.9c1.6,1.2,1.9,3.4,0.7,5
					C1819.2,300.4,1818.1,300.9,1817.1,300.9z M1800,288.1c-0.7,0-1.5-0.2-2.1-0.7l-5.1-3.8c-1.6-1.2-1.9-3.4-0.7-5
					c1.2-1.6,3.4-1.9,5-0.7l5.1,3.8c1.6,1.2,1.9,3.4,0.7,5C1802.2,287.6,1801.1,288.1,1800,288.1z M1782.9,275.3
					c-0.7,0-1.5-0.2-2.1-0.7l-5.1-3.8c-1.6-1.2-1.9-3.4-0.8-5c1.2-1.6,3.4-1.9,5-0.8l5.1,3.8c1.6,1.2,1.9,3.4,0.8,5
					C1785.1,274.8,1784,275.3,1782.9,275.3z"/>
			</g>
			<g>
				<polygon class="st9" points="1748.9,207.2 1733,247 1712.9,219.1 				"/>
				<path class="st10" d="M1579.3,113l69.7,137c1.3,2.6,3.7,4.6,6.5,5.4c2.8,0.9,5.9,0.5,8.4-0.9l134.9-75.1
					c1.5-0.9,2.4-2.6,2.2-4.3c-0.2-1.8-1.5-3.2-3.2-3.7L1579.3,113z"/>
				<polygon class="st9" points="1748.9,207.2 1579.3,113 1727.1,219.4 1723.2,230.6 				"/>
				<polygon class="st10" points="1714.2,226.6 1733,247 1727.1,219.4 				"/>
			</g>
		</g>
		<g>
			<g>
				<path class="st3" d="M453.8,738.1c-10.2,8.9-25.7,7.8-34.6-2.4c-8.9-10.2-7.8-25.7,2.4-34.6c10.2-8.9,25.7-7.8,34.6,2.4
					C465,713.7,464,729.2,453.8,738.1z M427.9,708.4c-6.2,5.4-6.8,14.7-1.4,20.9c5.4,6.2,14.7,6.8,20.9,1.4
					c6.2-5.4,6.8-14.7,1.4-20.9C443.5,703.7,434.1,703.1,427.9,708.4z"/>
				<g>
					<path class="st3" d="M403.3,680.1c21.8-18.9,54.9-16.6,73.8,5.1c1.2,1.3,2.3,2.7,3.3,4.2c1.4,1.9,4.1,2.1,5.7,0.3l5-5.9
						c1.1-1.3,1.1-3.1,0.1-4.5c-1-1.3-2-2.5-3-3.7c-24.2-27.8-66.6-30.8-94.5-6.6c-2.1,1.8-4.1,3.8-5.9,5.8
						c-1.4,1.5-1.2,3.9,0.4,5.2l5.8,4.8c1.5,1.2,3.6,1,4.9-0.4C400.3,682.9,401.7,681.5,403.3,680.1z"/>
					<path class="st3" d="M378.5,651.6C416,619,473,623,505.6,660.5c0,0,0,0,0,0c1.4,1.6,4,1.7,5.4,0l4.9-5.7c0-1.8,0-2.9,0-4.7
						c-38-42.8-103.7-47.1-147-9.4c-3.8,3.3-7.2,6.8-10.4,10.5c-1.3,1.5-1.1,3.8,0.5,5l5.8,4.7c1.5,1.2,3.7,1.1,4.9-0.4
						C372.4,657.4,375.3,654.4,378.5,651.6z"/>
					<path class="st3" d="M353.7,623.2c51.8-45.1,129.9-40.9,176.6,8.5c1.5,1.6,3.9,1.5,5.3-0.1l4.9-5.7c1.2-1.4,1.1-3.5-0.1-4.8
						c-52.2-54.5-138.8-59-196.3-8.9c-5.4,4.7-10.3,9.7-14.8,15c-1.3,1.5-1,3.8,0.5,5l5.8,4.7c1.5,1.2,3.7,1,5-0.5
						C344.6,631.8,348.9,627.3,353.7,623.2z"/>
				</g>
			</g>
			<g>
				<g>
					<g>
						<rect x="372.4" y="1156.5" class="st10" width="39.4" height="177.5"/>
						<rect x="468.6" y="1156.5" class="st10" width="37" height="177.5"/>
					</g>
					<g>
						
							<rect x="527.4" y="974.4" transform="matrix(0.9205 -0.3906 0.3906 0.9205 -356.5341 291.8198)" class="st10" width="23.3" height="96"/>
						
							<linearGradient id="SVGID_00000023265188432756328510000012240496468913034420_" gradientUnits="userSpaceOnUse" x1="683.5967" y1="1121.5618" x2="779.5701" y2="1121.5618" gradientTransform="matrix(0.9866 -0.1629 0.1629 0.9866 -295.1318 86.1522)">
							<stop  offset="0" style="stop-color:#09005D"/>
							<stop  offset="1" style="stop-color:#1A0F91"/>
						</linearGradient>
						<polygon style="fill:url(#SVGID_00000023265188432756328510000012240496468913034420_);" points="658.6,1077.2 563.9,1092.8 
							560.1,1069.8 654.8,1054.2 						"/>
						<path class="st10" d="M547.4,980.4c-7.1,16.3-26,23.7-42.2,16.7c-16.3-7.1-23.7-26-16.7-42.2c7.1-16.3,26-23.7,42.2-16.7
							S554.5,964.1,547.4,980.4z"/>
						<g>
							
								<ellipse transform="matrix(0.8416 -0.5401 0.5401 0.8416 -493.3641 476.0638)" class="st10" cx="565" cy="1079.2" rx="26.3" ry="26.3"/>
							
								<linearGradient id="SVGID_00000166669619012622719470000017176248834152820629_" gradientUnits="userSpaceOnUse" x1="251.6471" y1="872.9421" x2="292.9308" y2="872.9421" gradientTransform="matrix(0.9173 0.3982 -0.3982 0.9173 662.5759 169.431)">
								<stop  offset="0" style="stop-color:#9CFFFB"/>
								<stop  offset="1" style="stop-color:#9BFFFA"/>
							</linearGradient>
							<path style="opacity:0.6;fill:url(#SVGID_00000166669619012622719470000017176248834152820629_);" d="M583.7,1086.8
								c-4.5,10.5-16.7,15.3-27.2,10.7c-10.5-4.5-15.3-16.7-10.7-27.2c4.5-10.5,16.7-15.3,27.2-10.7
								C583.4,1064.2,588.2,1076.4,583.7,1086.8z"/>
						</g>
					</g>
					<rect x="411.9" y="1038.2" class="st9" width="56.7" height="118.3"/>
					<rect x="424.2" y="885.3" class="st10" width="39.4" height="59.2"/>
					<rect x="404.5" y="939.6" class="st10" width="74" height="22.2"/>
					<path class="st9" d="M505.4,939.6h-29.2l-2.6,22.2h-64.8l-2.6-22.2H377c-12.5,0-24.3,10.5-24.3,23.1v83.6l71.7,16.5h13h7.8h13
						l69.7-16.5v-83.6C527.8,950.1,518,939.6,505.4,939.6z"/>
					<g>
						<path class="st9" d="M469.1,801.6c-16.3-1.9-33.5-2-49.6-0.1c-26.5,3-47,25.2-47,51.8c0,16.2,0,32.4,0,48.6
							c0,4.2,3.3,8,7.3,9.3c40.4,13.1,86.9,13.1,128.5,0c4.1-1.3,7.2-5,7.2-9.3c0-16.1,0-32.3,0-48.4
							C515.4,826.9,495.4,804.6,469.1,801.6z"/>
						<path class="st10" d="M485,843.4h-81.2c-8.4,0-16.5,7.8-16.5,16.2v12.2c0,4.8,3.2,9,7.1,11.3c1.4,0.8,3.3,1.4,5,1.7l34.9,5.3
							c3.3,0.5,6.7,0.8,10,0.7c3.3,0.1,6.7-0.2,10-0.7l34.7-5.3c1.7-0.3,2.3-0.8,3.7-1.7c3.9-2.3,5.5-6.5,5.5-11.3v-12.2
							C498.2,851.2,493.3,843.4,485,843.4z"/>
						<path class="st15" d="M481.6,845.9h-74.8c-7.7,0-14.7,6.5-14.7,13.8v10.5c0,4.1,2.7,7.8,6.3,9.7c1.3,0.7,2.9,1.2,4.5,1.4
							l32.1,4.6c3,0.4,6.2,0.6,9.2,0.6c3.1,0.1,6.1-0.1,9.2-0.6l32-4.6c1.6-0.2,3.1-0.7,4.3-1.4c3.6-2,6-5.6,6-9.7v-10.5
							C495.7,852.4,489.4,845.9,481.6,845.9z"/>
						<g>
							<path class="st3" d="M466.1,896.6c0,0.6-0.5,1.1-1.1,1.1h-39.8c-0.6,0-1.1-0.5-1.1-1.1v-0.3c0-0.6,0.5-1.1,1.1-1.1h39.8
								c0.6,0,1.1,0.5,1.1,1.1V896.6z"/>
							<path class="st3" d="M466.1,904c0,0.6-0.5,1.1-1.1,1.1h-39.8c-0.6,0-1.1-0.5-1.1-1.1v-0.3c0-0.6,0.5-1.1,1.1-1.1h39.8
								c0.6,0,1.1,0.5,1.1,1.1V904z"/>
							<path class="st3" d="M466.1,911.4c0,0.6-0.5,1.1-1.1,1.1h-39.8c-0.6,0-1.1-0.5-1.1-1.1v-0.3c0-0.6,0.5-1.1,1.1-1.1h39.8
								c0.6,0,1.1,0.5,1.1,1.1V911.4z"/>
						</g>
						<path class="st3" d="M483.4,865.6c0,1.4-1.1,2.5-2.5,2.5h-76.4c-1.4,0-2.5-1.1-2.5-2.5l0,0c0-1.4,1.1-2.5,2.5-2.5h76.4
							C482.3,863.2,483.4,864.3,483.4,865.6L483.4,865.6z"/>
					</g>
					<polygon class="st10" points="353.7,1047.3 424.4,1018.5 455.5,1018.5 528.1,1047.3 458.1,1065 422.1,1064.6 					"/>
					<polygon class="st3" points="355,996.2 353.7,994.1 408.5,961.8 474,961.8 528.8,994 527.5,996.1 473.3,964.2 409.2,964.2 
											"/>
					<path class="st9" d="M515.4,1150.9c0-9.1-7.2-16.6-17.5-16.6H383.2c-10.2,0-18.2,7.5-18.2,16.6v27.7l49.3,27.3h52.5l48.6-27.3
						V1150.9z"/>
					<path class="st9" d="M403.1,1134.7l11.2,71.1h51.6l9.1-71.4C475,1134.4,398.8,1135,403.1,1134.7z"/>
					<g>
						
							<rect x="377" y="974.4" transform="matrix(0.9205 -0.3906 0.3906 0.9205 -368.4887 233.0546)" class="st10" width="23.3" height="96"/>
						
							<rect x="449.8" y="1054.1" transform="matrix(0.3747 -0.9271 0.9271 0.3747 -733.1732 1116.9921)" class="st10" width="23.3" height="96"/>
						<path class="st10" d="M397,980.4c-7.1,16.3-26,23.7-42.2,16.7c-16.3-7.1-23.7-26-16.7-42.2c7.1-16.3,26-23.7,42.2-16.7
							C396.6,945.2,404,964.1,397,980.4z"/>
						<g>
							
								<ellipse transform="matrix(0.5485 -0.8361 0.8361 0.5485 -715.1868 833.8245)" class="st10" cx="414.5" cy="1079.2" rx="26.3" ry="26.3"/>
							<path class="st9" d="M433.2,1086.8c-4.5,10.5-16.7,15.3-27.2,10.7c-10.5-4.5-15.3-16.7-10.7-27.2
								c4.5-10.5,16.7-15.3,27.2-10.7C433,1064.2,437.8,1076.4,433.2,1086.8z"/>
						</g>
					</g>
					<g>
						<path class="st10" d="M403.1,1478.7l-1.3-7.2l-23.7,4.1c0,0-14.3,14.6,14.1,15.9c0.1,0,0.3,0,0.7,0c3.1-0.2,6-1.7,7.9-4.1
							S403.7,1481.8,403.1,1478.7z"/>
						<path class="st9" d="M417.7,1317.8c0,0-20.6-30.1-32.3-20.2c-11.7,9.9-17.4,38.1-17.4,38.1l4.8,149l31.4-2.2L417.7,1317.8z"/>
					</g>
					<g>
						<path class="st10" d="M489.2,1491.4c-0.5,0-11-0.8-11-0.8l3.1-19.1l20,3.8C501.4,1475.3,513.4,1489.8,489.2,1491.4z"/>
						<path class="st9" d="M465.8,1317.8c0,0,20.6-30.1,32.3-20.2c11.7,9.9,17.4,38.1,17.4,38.1l-4.8,149l-31.4-2.2L465.8,1317.8z"
							/>
						<polygon class="st9" points="478,1489.8 511.1,1479.1 556.9,1496.9 557.8,1501 478.2,1495.5 						"/>
					</g>
					<path class="st9" d="M362.8,1504.5l13.3-17.6c0,0,9.9,3.2,15.9,3.1c6-0.1,11.3-5.3,11.3-5.3l4.7,24.8l-11.7,24.4l-23.8,1.7
						L362.8,1504.5z"/>
				</g>
				<g>
					<path class="st8" d="M365.2,1172.7l-13.2,8.7c-22.6,14.9-32.8,39.4-22.8,54.7l12,18.1c10.1,15.3,36.6,15.5,59.2,0.6l13.2-8.7
						c0.9-0.6,1.7-1.2,2.6-1.8l380-274.7l-26.1-39.5L367.9,1171C367,1171.6,366.1,1172.1,365.2,1172.7z M378.4,1190.4
						c17-11.2,36.3-12.1,43-2c6.7,10.1-1.7,27.4-18.8,38.7c-17,11.2-36.3,12.1-43,2C352.9,1219,361.3,1201.6,378.4,1190.4z"/>
					<path class="st8" d="M890.7,822.1l-76.6,50.5c-5.5,3.6-8.9,9.5-9.4,16l-2.5,33.4c-0.7,9.5,5.1,18.3,14.1,21.4l31.6,10.9
						c6.2,2.1,13,1.3,18.4-2.3l76.6-50.5c11.5-7.6,26.9,1.9,25,15.6c-4.6,32.8-23.2,63.9-53.7,83.9
						c-55.1,36.3-121.2,18.3-156.1-34.7c-34.9-53-25.3-120.8,29.7-157.1c30.5-20.1,66.4-24.9,98.3-16.2
						C899.6,796.7,902.3,814.5,890.7,822.1z"/>
					<path class="st3" d="M895.5,829.4l-76.6,50.5c-5.5,3.6-8.9,9.5-9.4,16l-2.5,33.4c-0.7,9.5,5.1,18.3,14.1,21.4l31.6,10.9
						c6.2,2.1,13,1.3,18.4-2.3l76.6-50.5c11.5-7.6,26.9,1.9,25,15.6c-4.6,32.8-23.2,63.9-53.7,83.9
						c-55.1,36.3-121.2,18.3-156.1-34.7c-34.9-53-25.3-120.8,29.7-157.1c30.5-20.1,66.4-24.9,98.3-16.2
						C904.4,803.9,907,821.8,895.5,829.4z"/>
					<path class="st3" d="M369,1178.5l-13.2,8.7c-22.6,14.9-32.8,39.4-22.8,54.7l12,18.1c10.1,15.3,36.6,15.5,59.2,0.6l13.2-8.7
						c0.9-0.6,1.7-1.2,2.6-1.8l380-274.7L774,935.9l-402.3,240.9C370.8,1177.3,369.9,1177.9,369,1178.5z M382.1,1196.2
						c17-11.2,36.3-12.1,43-2c6.7,10.1-1.7,27.4-18.8,38.7c-17,11.2-36.3,12.1-43,2C356.7,1224.7,365.1,1207.4,382.1,1196.2z"/>
				</g>
				<g>
					<path class="st10" d="M625.9,1107.2l-4.4-10.3c-0.4-0.9-1.1-1.5-1.9-1.9c-0.9-0.3-1.8-0.3-2.7,0.1l-4,1.9
						c-1.6,0.7-2.4,2.6-1.8,4.2l4.9,14.2c0.4,1.3,1.6,2.2,2.9,2.3c1.3,0.1,2.6-0.5,3.3-1.6l3.5-5.7
						C626.2,1109.4,626.3,1108.2,625.9,1107.2z"/>
					<path class="st10" d="M607.5,1106.6c-0.4-1.1-1.2-1.9-2.3-2.2c-1.1-0.3-2.2,0-3.1,0.7l-2.7,2.2c-1.1,0.9-1.5,2.3-1.1,3.6
						l4.3,14.9c0.3,1,0.9,1.7,1.8,2.2c0.9,0.4,1.9,0.4,2.8,0l3.8-1.7c1.7-0.7,2.5-2.6,1.9-4.3L607.5,1106.6z"/>
					<path class="st10" d="M506.2,1085c-1.1-1.5-3.1-1.9-4.7-0.9l-7.8,5.1c-1.6,1-2,3.1-1,4.7l11.1,18.1c0.5,0.8,1.3,1.4,2.2,1.6
						c0.9,0.2,1.9,0,2.6-0.5l8.8-5.8c0.8-0.5,1.3-1.3,1.5-2.2c0.2-0.9,0-1.9-0.6-2.6L506.2,1085z"/>
					<path class="st10" d="M488,1096.8c-0.4-0.9-1.1-1.6-2-1.9c-0.9-0.3-1.9-0.2-2.8,0.2l-6.4,3.4c-0.8,0.4-1.4,1.2-1.7,2
						c-0.3,0.9-0.2,1.8,0.3,2.6l9,16.9c0.5,0.9,1.3,1.5,2.3,1.7c1,0.2,2,0,2.8-0.6l4.6-3.4c1.3-0.9,1.7-2.6,1.1-4.1L488,1096.8z"/>
				</g>
			</g>
		</g>
		<g>
			
				<rect x="1959.2" y="1019.8" transform="matrix(0.8891 -0.4578 0.4578 0.8891 -298.0991 1035.9536)" class="st10" width="58.5" height="226.5"/>
			<rect x="1663.4" y="1030.5" class="st10" width="256.3" height="49.5"/>
			<g>
				
					<ellipse transform="matrix(0.535 -0.8449 0.8449 0.535 12.1123 2132.0217)" class="st1" cx="1942.8" cy="1055" rx="53.4" ry="53.4"/>
				
					<ellipse transform="matrix(0.7071 -0.7071 0.7071 0.7071 -176.9675 1682.7782)" class="st10" cx="1942.8" cy="1055" rx="31.7" ry="31.7"/>
			</g>
			<g>
				<g>
					<g>
						<path class="st10" d="M1665.8,988.8l-49.7-28.5c-3.6-2-7.7-2.9-11.8-2.3l-50.9,6.7c-3,0.4-5.7,2-7.5,4.4
							c-1.8,2.4-2.5,5.5-2,8.4l2,11.8c1,5.9,6.5,9.9,12.4,9.1l31.3-4.3c14.6-2,29.3,2.3,40.6,11.8l43.3,36.7l5.3-24.3
							C1681.5,1006.7,1676.2,994.8,1665.8,988.8z"/>
						<path class="st10" d="M1665.8,1115.1l-49.7,28.5c-3.6,2-7.7,2.9-11.8,2.3l-50.9-6.7c-3-0.4-5.7-2-7.5-4.4
							c-1.8-2.4-2.5-5.5-2-8.4l2-11.8c1-5.9,6.5-9.9,12.4-9.1l31.3,4.3c14.6,2,29.3-2.3,40.6-11.8l43.3-36.7l5.3,24.3
							C1681.5,1097.2,1676.2,1109.2,1665.8,1115.1z"/>
					</g>
				</g>
				<g>
					<circle class="st1" cx="1683.2" cy="1055" r="44.1"/>
					<circle class="st10" cx="1683.2" cy="1055" r="26.2"/>
				</g>
			</g>
			<rect x="1861.3" y="1259.9" class="st10" width="321.5" height="141.6"/>
			<g>
				<path class="st9" d="M2277.2,1442c0,42.2-34.2,76.4-76.4,76.4h-344c-42.2,0-76.4-34.2-76.4-76.4l0,0c0-42.2,34.2-76.4,76.4-76.4
					h344C2243,1365.5,2277.2,1399.8,2277.2,1442L2277.2,1442z"/>
				<path class="st10" d="M2252.5,1442.2c0,33.5-30.3,60.6-68.4,60.6H1874c-38.1,0-68.9-27.1-68.9-60.6v-1
					c0-33.5,30.9-60.6,68.9-60.6h310.1c38.1,0,68.4,27.1,68.4,60.6V1442.2z"/>
				<g>
					<g>
						<circle class="st3" cx="1896.9" cy="1442.1" r="41.6"/>
						<path class="st10" d="M1922.2,1443.6c-0.3,13.5-11.6,24.2-25.1,23.8c-13.5-0.3-24.2-11.6-23.8-25.1
							c0.3-13.5,11.6-24.2,25.1-23.8C1911.9,1418.8,1922.5,1430.1,1922.2,1443.6z"/>
					</g>
					<g>
						<circle class="st3" cx="2025" cy="1442.1" r="41.6"/>
						<path class="st10" d="M2050.3,1443.6c-0.3,13.5-11.6,24.2-25.1,23.8c-13.5-0.3-24.2-11.6-23.8-25.1
							c0.3-13.5,11.6-24.2,25.1-23.8C2040,1418.8,2050.7,1430.1,2050.3,1443.6z"/>
					</g>
					<g>
						<circle class="st3" cx="2153.2" cy="1442.1" r="41.6"/>
						<path class="st10" d="M2178.5,1443.6c-0.3,13.5-11.6,24.2-25.1,23.8c-13.5-0.3-24.2-11.6-23.8-25.1
							c0.3-13.5,11.6-24.2,25.1-23.8C2168.2,1418.8,2178.8,1430.1,2178.5,1443.6z"/>
					</g>
				</g>
			</g>
			<path class="st9" d="M2221,1310.3c0-14.2-11.5-25.7-25.7-25.7H1851c-14.2,0-25.7,11.5-25.7,25.7v13.9c0,14.2,11.5,25.7,25.7,25.7
				h344.4c14.2,0,25.7-11.5,25.7-25.7V1310.3z"/>
			<path class="st9" d="M2131.1,1214.9h-213.6c-34.8,0-63,27-63,63H2194C2194,1241.9,2165.9,1214.9,2131.1,1214.9z"/>
			<g>
				<path class="st10" d="M2221,1320.6h-395.7c-1.9,0-3.4-1.5-3.4-3.4s1.5-3.4,3.4-3.4H2221c1.9,0,3.4,1.5,3.4,3.4
					S2222.9,1320.6,2221,1320.6z"/>
			</g>
			<g>
				<g>
					
						<ellipse transform="matrix(0.9468 -0.3219 0.3219 0.9468 -290.4354 739.5278)" class="st16" cx="2091" cy="1248" rx="16.9" ry="16.9"/>
					
						<ellipse transform="matrix(0.161 -0.9869 0.9869 0.161 562.1942 3157.343)" class="st16" cx="2138.2" cy="1248" rx="16.9" ry="16.9"/>
				</g>
			</g>
		</g>
	</g>
</g>
</svg>
