<?xml version="1.0" encoding="utf-8"?>
<!-- Generator: Adobe Illustrator 26.0.2, SVG Export Plug-In . SVG Version: 6.00 Build 0)  -->
<svg version="1.1" xmlns="http://www.w3.org/2000/svg" xmlns:xlink="http://www.w3.org/1999/xlink" x="0px" y="0px"
	 viewBox="0 0 2475 1650" style="enable-background:new 0 0 2475 1650;" xml:space="preserve">
<style type="text/css">
	.st0{opacity:0.5;fill:#BBDEF2;}
	.st1{fill:#BBDEF2;}
	.st2{fill:#FFFFFF;}
	.st3{fill:#7B8FDD;}
	.st4{fill:#86BFF2;}
	.st5{opacity:0.37;fill:#7B8FDD;}
	.st6{opacity:0.5;fill:#7B8FDD;}
	.st7{opacity:0.37;fill:#86BFF2;}
	.st8{fill:#C88BC4;}
	.st9{fill:#D1AAD7;}
	.st10{opacity:0.28;fill:#FFFFFF;}
	.st11{fill:#7D97F4;}
</style>
<g id="Background">
</g>
<g id="Illustration">
	<g>
		<path class="st0" d="M748.1,256.4c-115.8,131.9-533.6,0-522.9,237.2c12.5,277.7,421.5,348.6,295,547.5s24.8,413.9,554,395.6
			c529.2-18.3,1374.2-286.1,1162-546.9c-212.3-260.7-75.9-278.1-69.1-396c6.9-117.9-103.8-373.2-508-147.1S1041.4-77.6,748.1,256.4z
			"/>
		<g>
			<path class="st1" d="M232.7,787.4c5,89.1,55.1,606.7,549.2,646.8c0,0,54.7-349.2-538.2-654C238.5,777.6,232.4,781.6,232.7,787.4z
				"/>
			<path class="st2" d="M292.8,855.1c12.2,27.7,25.8,55,39.8,81.9c14,26.9,28.8,53.5,44.1,79.7c15.4,26.2,31.4,51.9,48.1,77.3
				c16.7,25.3,34.1,50.2,52.4,74.4c36.5,48.4,76.2,94.6,120.2,136.2l4.1,3.9c1.4,1.3,2.8,2.5,4.2,3.8l8.5,7.6l8.5,7.6
				c2.8,2.5,5.8,4.9,8.7,7.3c5.9,4.8,11.6,9.7,17.5,14.4l18.1,13.7c24.5,17.7,50.1,33.8,77,47.5l0.1,0c1.9,1,2.6,3.3,1.7,5.2
				c-1,1.9-3.3,2.6-5.2,1.7l0,0c-27.2-14.1-53.1-30.6-77.7-48.6l-18.2-13.9c-6-4.8-11.7-9.8-17.6-14.6c-2.9-2.5-5.9-4.8-8.7-7.4
				l-8.5-7.7l-8.5-7.7c-1.4-1.3-2.8-2.5-4.2-3.9l-4.1-4c-44.1-42.2-83.7-88.8-120-137.7c-18.3-24.4-35.5-49.5-52.1-75
				c-16.6-25.5-32.6-51.4-47.8-77.8c-15.2-26.3-29.8-53-43.7-80.1c-13.9-27.1-27.2-54.4-39.4-82.4c-0.4-0.8,0-1.8,0.8-2.1
				C291.4,853.9,292.4,854.3,292.8,855.1L292.8,855.1z"/>
		</g>
		<path class="st1" d="M280.9,1372.2c30.2-33.1,161.8-150,372.3,44.6c0,0-267.1,31.1-370.4-31C278,1382.9,277.2,1376.3,280.9,1372.2
			z"/>
		<g>
			<path class="st1" d="M820.2,1370.1c0,0-503.9-249.6-471.2-1050.5c0.5-13.4,16.5-19.9,26.3-10.9
				C466.7,393.2,782.1,728.9,820.2,1370.1z"/>
			<path class="st2" d="M443.8,485.9c27.1,64.9,54.2,129.9,81,195c13.4,32.5,26.7,65.1,39.9,97.8l19.7,49l19.4,49.1
				c25.7,65.5,51.6,131,76.4,196.9c25,65.8,49.6,131.8,72.6,198.3c0.3,0.7-0.1,1.6-0.9,1.8c-0.7,0.3-1.5-0.1-1.8-0.9l-18.6-49.4
				l-18.9-49.3l-19-49.2c-6.3-16.4-12.7-32.8-19.2-49.2l-38.6-98.2l-38.9-98.1l-39-98.1l-38.9-98.1
				c-25.9-65.4-51.7-130.9-77.9-196.2c-0.3-0.8,0.1-1.7,0.8-2C442.6,484.8,443.5,485.2,443.8,485.9z"/>
		</g>
		<g>
			<path class="st1" d="M1693.2,156.4c40.6,87.8,255.9,608.7-196.5,898.5c0,0-230-306.4,182.4-899.7
				C1682.7,149.9,1690.6,150.6,1693.2,156.4z"/>
			<path class="st2" d="M1673.6,251.5c2.3,31.9,3.4,63.7,3.9,95.6c0.5,31.9,0.3,63.8-0.6,95.7c-0.8,31.9-2.5,63.7-4.8,95.5
				c-2.4,31.8-5.3,63.6-9.4,95.2c-8,63.3-19.6,126.2-36.5,187.9l-1.5,5.8l-1.7,5.7l-3.4,11.5l-3.4,11.5c-1.1,3.8-2.5,7.6-3.7,11.4
				c-2.6,7.6-5,15.2-7.7,22.7l-8.5,22.5c-11.8,29.7-25.3,58.9-41,86.9c-1,1.8-3.4,2.5-5.2,1.5c-1.8-1-2.5-3.4-1.5-5.2l0,0l0,0
				c15.6-27.5,29.1-56.3,41-85.7l8.5-22.2c2.7-7.4,5.2-15,7.8-22.5c1.3-3.8,2.6-7.5,3.8-11.3l3.5-11.4l3.5-11.4l1.7-5.7l1.6-5.7
				c17.2-61.2,29-123.8,37.4-186.8c4.3-31.5,7.4-63.2,10-94.9c2.5-31.7,4.3-63.5,5.4-95.3c1-31.8,1.4-63.6,1.1-95.5
				c-0.4-31.8-1.2-63.7-3.4-95.4l0,0c-0.1-0.9,0.6-1.7,1.5-1.7C1672.7,249.9,1673.5,250.6,1673.6,251.5z"/>
		</g>
		<g>
			<path class="st1" d="M1827.3,1147c38.5-96,198.5-474.6,400.1-669.8c14.4-13.9,41.8-6.8,42.2,13.1
				c2.8,115.6,23.3,478.7-428.4,670.7C1832.5,1164.7,1823.8,1155.8,1827.3,1147z"/>
			<path class="st2" d="M1842.5,1150.3c-1,0-2-0.4-2.7-1.1c-1.5-1.5-1.5-3.9,0-5.4c152.4-151.1,240.6-289.9,287.7-379.7
				c50.9-97.2,66.1-159.3,66.2-159.9c0.5-2.1,2.6-3.3,4.6-2.8c2.1,0.5,3.3,2.6,2.8,4.6c-0.1,0.6-15.5,63.7-66.9,161.7
				c-47.3,90.3-135.9,229.8-289.1,381.6C1844.4,1149.9,1843.5,1150.3,1842.5,1150.3z"/>
		</g>
		<g>
			<path class="st1" d="M1957.9,1369.7c-8.1,3.7-17.3-2.1-17.6-10.9c-1.8-48.9,5.6-187.6,132.7-299
				c107.3-94.1,156.6-155.3,177.1-184.6c4.3-6.2,14-3.3,14.3,4.3C2266.6,962.8,2250.6,1236.5,1957.9,1369.7z"/>
			<path class="st2" d="M1950.2,1361.7c-0.5,0-1-0.1-1.5-0.3c-1.9-0.8-2.8-3.1-2-5c0.9-2,86.9-201,230.3-338.6
				c1.5-1.5,4-1.4,5.4,0.1c1.5,1.5,1.4,4-0.1,5.4c-142.2,136.5-227.7,334.1-228.5,336.1C1953.1,1360.8,1951.7,1361.7,1950.2,1361.7z
				"/>
		</g>
		<g>
			<g>
				<path class="st3" d="M1071.9,569.5l-89.4-61.3c-8.6-5.9-18.8-9-29.2-8.8l-19.6,0.3c0,0-96.2,611-84.4,870.2
					c1,22.9,6.4,92,6.4,92s11.8,1.4,24.6,2.5c13.2,1.1,26.3-1.8,37.8-8.3l127.8-72L1071.9,569.5z"/>
				<path class="st4" d="M615.7,506.8l331.9-7.2c11.6-0.3,21,9.5,20.1,21.1l-64.2,916.4c-0.9,13.1-10.3,24.1-23.2,27.1l0,0
					L580,1451.3c-8.6-0.4-15.4-7.2-15.9-15.7c-5.1-95-29.4-616.3,30.3-910.9C596.5,514.5,605.3,507.1,615.7,506.8z"/>
				<path class="st1" d="M907.6,590.4l-0.4,7.7c-0.3,5.6-4.9,10.1-10.5,10.1l-257.5,4.3c-6,0.1-10.9-4.7-10.9-10.7v-14.2
					c0-5.9,4.8-10.7,10.8-10.7l257.8,2.3C903.1,579.3,907.9,584.4,907.6,590.4z"/>
				<path class="st1" d="M897.5,705.4l-1.8,16.6c-0.6,5.5-5.3,9.6-10.8,9.5l-249.6-4c-5.8-0.1-10.5-4.8-10.5-10.7V701
					c0-6,4.9-10.8,10.8-10.7l251.4,3.2C893.4,693.7,898.2,699.1,897.5,705.4z"/>
				<path class="st1" d="M893.1,824.2l-0.4,3.2c-0.7,5.4-5.4,9.4-10.8,9.2l-246.5-5.9c-6.5-0.2-11.3-6-10.3-12.4l1.8-11
					c0.9-5.4,5.7-9.2,11.1-8.9l245.2,13.6C889.4,812.4,894,818,893.1,824.2z"/>
				<path class="st1" d="M882.7,932.1L882.7,932.1c-0.6,5.4-5.2,9.4-10.6,9.4H626.6c-5.9,0-10.7-4.8-10.7-10.7v-5
					c0-6,4.9-10.8,10.9-10.7l245.5,5C878.6,920.3,883.5,925.8,882.7,932.1z"/>
				<path class="st1" d="M864.3,1045.4l-26.6,358.4c-0.4,5.9-5.5,10.3-11.4,9.9L620.8,1399c-5.6-0.4-10-5.1-9.9-10.8l4.9-343.7
					c0.1-5.8,4.8-10.5,10.7-10.5h227.2C859.8,1033.9,864.7,1039.2,864.3,1045.4z"/>
				<path class="st4" d="M643.6,1338c-1.6,0-2.9-1.3-2.9-2.9v-245.3c0-7.3,2.9-14.2,8-19.4c5.2-5.1,12-7.9,19.3-7.9c0,0,0.1,0,0.1,0
					c89.9,0.4,145.6,0.4,149-0.1c1.5-0.3,3,0.6,3.4,2.2c0.4,1.5-0.7,3.1-2.2,3.5c-2.5,0.6-53,0.6-150.2,0.2c0,0-0.1,0-0.1,0
					c-5.7,0-11.1,2.2-15.2,6.3c-4.1,4.1-6.3,9.5-6.3,15.3v245.3C646.5,1336.7,645.2,1338,643.6,1338z"/>
				<path class="st3" d="M861.6,1004.7H623.1c-5.2,0-10.2-2.1-13.8-5.8c-3.7-3.8-5.6-8.7-5.5-13.9l8.9-416.8
					c0.2-10.4,8.5-18.7,18.9-18.9l272.1-6.9c5.4-0.1,10.6,2,14.4,5.8c3.7,3.8,5.7,9.1,5.5,14.5C917.6,677,904,812.1,880.8,987.9
					C879.5,997.5,871.3,1004.7,861.6,1004.7z M903.8,548.1L631.7,555c-7.3,0.2-13.1,6-13.3,13.3l-8.9,416.8
					c-0.1,3.7,1.3,7.2,3.9,9.8c2.6,2.6,6,4.1,9.7,4.1h238.5c6.8,0,12.6-5.1,13.5-11.8c23.2-175.6,36.8-310.6,42.6-424.8
					c0.2-3.8-1.2-7.4-3.8-10.2C911.2,549.5,907.6,548,903.8,548.1L903.8,548.1z"/>
				<path class="st3" d="M628.4,652.9c-1.6,0-2.8-1.3-2.9-2.8c0-1.6,1.2-2.9,2.8-2.9l277.6-4.4c0,0,0,0,0,0c1.6,0,2.8,1.3,2.9,2.8
					c0,1.6-1.2,2.9-2.8,2.9L628.4,652.9C628.4,652.9,628.4,652.9,628.4,652.9z"/>
				<path class="st3" d="M882.8,775.5H628.4c-1.6,0-2.9-1.3-2.9-2.9c0-1.6,1.3-2.9,2.9-2.9h254.4c1.6,0,2.9,1.3,2.9,2.9
					C885.7,774.2,884.4,775.5,882.8,775.5z"/>
				<path class="st3" d="M802.8,885.3c-61.1,0-143.1-0.4-177.9-0.5c-1.6,0-2.9-1.3-2.9-2.9c0-1.6,1.3-2.9,2.9-2.9c0,0,0,0,0,0
					c67.3,0.3,243.1,1,250.5,0.1c1.5-0.3,2.9,0.5,3.4,2c0.5,1.5-0.4,3.1-1.9,3.6C875.2,885.1,843.7,885.3,802.8,885.3z"/>
			</g>
			<g>
				<path class="st3" d="M1518.2,569.5l89.4-61.3c8.6-5.9,18.8-9,29.2-8.8l19.6,0.3c0,0,96.2,611,84.4,870.2c-1,22.9-6.4,92-6.4,92
					s-11.8,1.4-24.6,2.5c-13.2,1.1-26.3-1.8-37.8-8.3l-127.8-72L1518.2,569.5z"/>
				<path class="st4" d="M1974.3,506.8l-331.9-7.2c-11.6-0.3-21,9.5-20.1,21.1l64.2,916.4c0.9,13.1,10.3,24.1,23.2,27.1l0,0
					l300.4-12.9c8.6-0.4,15.4-7.2,15.9-15.7c5.1-95,29.4-616.3-30.4-910.9C1993.6,514.5,1984.7,507.1,1974.3,506.8z"/>
				<path class="st1" d="M1682.5,590.4l0.4,7.7c0.3,5.6,4.9,10.1,10.5,10.1l257.5,4.3c6,0.1,10.9-4.7,10.9-10.7v-14.2
					c0-5.9-4.8-10.7-10.8-10.7l-257.8,2.3C1687,579.3,1682.2,584.4,1682.5,590.4z"/>
				<path class="st1" d="M1692.5,705.4l1.8,16.6c0.6,5.5,5.3,9.6,10.8,9.5l249.6-4c5.8-0.1,10.5-4.8,10.5-10.7V701
					c0-6-4.9-10.8-10.8-10.7l-251.4,3.2C1696.7,693.7,1691.8,699.1,1692.5,705.4z"/>
				<path class="st1" d="M1696.9,824.2l0.4,3.2c0.7,5.4,5.4,9.4,10.8,9.2l246.5-5.9c6.5-0.2,11.3-6,10.3-12.4l-1.8-11
					c-0.9-5.4-5.7-9.2-11.1-8.9l-245.2,13.6C1700.7,812.4,1696.1,818,1696.9,824.2z"/>
				<path class="st1" d="M1707.4,932.1L1707.4,932.1c0.6,5.4,5.2,9.4,10.6,9.4h245.5c5.9,0,10.7-4.8,10.7-10.7v-5
					c0-6-4.9-10.8-10.9-10.7l-245.5,5C1711.4,920.3,1706.6,925.8,1707.4,932.1z"/>
				<path class="st1" d="M1725.8,1045.4l26.6,358.4c0.4,5.9,5.5,10.3,11.4,9.9l205.5-14.7c5.6-0.4,10-5.1,9.9-10.8l-4.9-343.7
					c-0.1-5.8-4.8-10.5-10.7-10.5h-227.2C1730.2,1033.9,1725.3,1039.2,1725.8,1045.4z"/>
				<g>
					<g>
						<g>
							<path class="st1" d="M1946.5,1338c-1.6,0-2.9-1.3-2.9-2.9v-245.3c0-5.8-2.3-11.2-6.3-15.3c-4.1-4-9.5-6.3-15.2-6.3
								c0,0-0.1,0-0.1,0c-97.2,0.4-147.7,0.4-150.2-0.2c-1.5-0.4-2.5-1.9-2.2-3.4c0.3-1.5,1.8-2.5,3.3-2.2c3.7,0.4,59.3,0.5,149,0.1
								c7.2-0.1,14.2,2.8,19.4,7.9c5.2,5.2,8,12,8,19.4v245.3C1949.3,1336.7,1948.1,1338,1946.5,1338z"/>
						</g>
						<g>
							<g>
								<path class="st3" d="M1967,1004.7h-238.5c-9.7,0-17.9-7.2-19.2-16.8c-23.3-175.8-36.8-310.9-42.7-425.2
									c-0.3-5.4,1.7-10.6,5.5-14.5c3.7-3.8,8.9-6,14.4-5.8l272.1,6.9c10.3,0.3,18.6,8.6,18.9,18.9l8.9,416.8
									c0.1,5.2-1.8,10.2-5.5,13.9C1977.2,1002.7,1972.2,1004.7,1967,1004.7z M1685.9,548.1c-3.7,0-7.1,1.5-9.7,4.1
									c-2.7,2.7-4,6.4-3.8,10.2c5.8,114.2,19.4,249.1,42.6,424.8c0.9,6.7,6.7,11.8,13.5,11.8H1967c3.7,0,7.1-1.5,9.7-4.1
									c2.6-2.6,4-6.1,3.9-9.8l-8.9-416.8c-0.2-7.3-6-13.1-13.3-13.3l-272.1-6.9C1686.2,548.1,1686.1,548.1,1685.9,548.1z"/>
							</g>
						</g>
						<g>
							<path class="st3" d="M1961.7,652.9C1961.6,652.9,1961.6,652.9,1961.7,652.9l-277.6-4.4c-1.6,0-2.9-1.3-2.8-2.9
								c0-1.6,1.3-2.8,2.9-2.8c0,0,0,0,0,0l277.6,4.4c1.6,0,2.9,1.3,2.8,2.9C1964.5,651.6,1963.2,652.9,1961.7,652.9z"/>
						</g>
						<g>
							<path class="st3" d="M1961.6,775.5h-254.4c-1.6,0-2.9-1.3-2.9-2.9c0-1.6,1.3-2.9,2.9-2.9h254.4c1.6,0,2.9,1.3,2.9,2.9
								C1964.5,774.2,1963.2,775.5,1961.6,775.5z"/>
						</g>
						<g>
							<path class="st3" d="M1787.3,885.3c-40.9,0-72.5-0.2-74.1-0.7c-1.5-0.5-2.4-2.1-1.9-3.6c0.4-1.4,1.9-2.3,3.4-2
								c7.4,0.9,183.2,0.3,250.5-0.1c0,0,0,0,0,0c1.6,0,2.9,1.3,2.9,2.9c0,1.6-1.3,2.9-2.9,2.9
								C1930.4,884.9,1848.4,885.3,1787.3,885.3z"/>
						</g>
					</g>
				</g>
			</g>
			<g>
				<path class="st4" d="M1538,1481.4h-521.5c-29.3,0-52.8-24.4-51.6-53.7c6.7-172.8,29.6-714.3,60.1-903.6
					c1.6-10.1,10.5-17.4,20.7-17.1c65.5,2.1,298.6,7.5,456.2-16.9c17.1-2.6,32.6,10.1,33.4,27.3l43.4,921.4
					C1579.7,1462,1561.2,1481.4,1538,1481.4z"/>
				<g>
					<path class="st1" d="M1073.6,628.7v-32.4c0-15.9,12.9-28.9,28.8-29l339.4-2.4c0.1,0,0.1,0,0.2,0c7.7,0,15,3,20.4,8.4
						c5.5,5.5,8.6,12.8,8.6,20.6v34.7c0,16-13,29-29,29h-339.4C1086.7,657.7,1073.6,644.7,1073.6,628.7z M1441.9,568.9l-339.4,2.4
						c-13.7,0.1-24.9,11.3-24.9,25v32.4c0,13.8,11.2,25,25,25h339.4c13.8,0,25-11.2,25-25v-34.7c0-6.7-2.6-13-7.4-17.8
						c-4.7-4.7-11-7.3-17.6-7.3C1442,568.9,1442,568.9,1441.9,568.9z"/>
					<g>
						<g>
							<g>
								<path class="st3" d="M1379.7,606.4h50.4c2.6,0,4.6,1.1,4.6,2.5v25.5c0,1.4-2.1,2.5-4.6,2.5h-50.4c-2.6,0-4.6-1.1-4.6-2.5
									v-25.5C1375.1,607.5,1377.2,606.4,1379.7,606.4z"/>
								<path class="st3" d="M1419.8,588.1h13.7c0.7,0,1.3,1,1.3,2.3v11.6c0,1.3-0.6,2.3-1.3,2.3h-13.7c-0.7,0-1.3-1-1.3-2.3v-11.6
									C1418.5,589.1,1419.1,588.1,1419.8,588.1z"/>
								<path class="st3" d="M1398.1,588.1h13.7c0.7,0,1.3,1,1.3,2.3v11.6c0,1.3-0.6,2.3-1.3,2.3h-13.7c-0.7,0-1.3-1-1.3-2.3v-11.6
									C1396.8,589.1,1397.4,588.1,1398.1,588.1z"/>
								<path class="st3" d="M1376.4,588.1h13.7c0.7,0,1.3,1,1.3,2.3v11.6c0,1.3-0.6,2.3-1.3,2.3h-13.7c-0.7,0-1.3-1-1.3-2.3v-11.6
									C1375.1,589.1,1375.7,588.1,1376.4,588.1z"/>
							</g>
						</g>
						<g>
							<g>
								<rect x="1353.2" y="588.1" class="st5" width="5.3" height="48.8"/>
								<rect x="1340" y="588.1" class="st5" width="5.3" height="48.8"/>
								<rect x="1326.7" y="588.1" class="st5" width="5.3" height="48.8"/>
								<rect x="1313.4" y="588.1" class="st5" width="5.3" height="48.8"/>
								<rect x="1300.2" y="588.1" class="st5" width="5.3" height="48.8"/>
								<rect x="1286.9" y="588.1" class="st5" width="5.3" height="48.8"/>
								<rect x="1273.6" y="588.1" class="st5" width="5.3" height="48.8"/>
								<rect x="1260.4" y="588.1" class="st5" width="5.3" height="48.8"/>
								<rect x="1247.1" y="588.1" class="st5" width="5.3" height="48.8"/>
								<rect x="1233.8" y="588.1" class="st5" width="5.3" height="48.8"/>
								<rect x="1220.6" y="588.1" class="st5" width="5.3" height="48.8"/>
								<rect x="1207.3" y="588.1" class="st5" width="5.3" height="48.8"/>
								<rect x="1194" y="588.1" class="st5" width="5.3" height="48.8"/>
								<rect x="1180.8" y="588.1" class="st5" width="5.3" height="48.8"/>
								<rect x="1167.5" y="588.1" class="st5" width="5.3" height="48.8"/>
								<rect x="1154.2" y="588.1" class="st5" width="5.3" height="48.8"/>
								<rect x="1141" y="588.1" class="st5" width="5.3" height="48.8"/>
								<rect x="1127.7" y="588.1" class="st5" width="5.3" height="48.8"/>
								<rect x="1114.4" y="588.1" class="st5" width="5.3" height="48.8"/>
								<rect x="1101.2" y="588.1" class="st5" width="5.3" height="48.8"/>
							</g>
						</g>
						<g>
							<g>
								<rect x="1353.2" y="606.4" class="st5" width="5.3" height="18.8"/>
								<rect x="1340" y="601.9" class="st5" width="5.3" height="18.8"/>
								<rect x="1326.7" y="606.4" class="st5" width="5.3" height="18.8"/>
								<rect x="1313.4" y="601.9" class="st5" width="5.3" height="18.8"/>
								<rect x="1300.2" y="606.4" class="st5" width="5.3" height="18.8"/>
								<rect x="1286.9" y="606.4" class="st5" width="5.3" height="18.8"/>
								<rect x="1273.6" y="597" class="st5" width="5.3" height="18.8"/>
								<rect x="1260.4" y="606.4" class="st5" width="5.3" height="18.8"/>
								<rect x="1247.1" y="612.2" class="st5" width="5.3" height="18.8"/>
								<rect x="1233.8" y="606.4" class="st5" width="5.3" height="18.8"/>
								<rect x="1220.6" y="606.4" class="st5" width="5.3" height="18.8"/>
								<rect x="1207.3" y="597" class="st5" width="5.3" height="18.8"/>
								<rect x="1194" y="606.4" class="st5" width="5.3" height="18.8"/>
								<rect x="1180.8" y="612.2" class="st5" width="5.3" height="18.8"/>
								<rect x="1167.5" y="606.4" class="st5" width="5.3" height="18.8"/>
								<rect x="1154.2" y="606.4" class="st5" width="5.3" height="18.8"/>
								<rect x="1141" y="601.9" class="st5" width="5.3" height="18.8"/>
								<rect x="1127.7" y="606.4" class="st5" width="5.3" height="18.8"/>
								<rect x="1114.4" y="611.3" class="st5" width="5.3" height="18.8"/>
								<rect x="1101.2" y="606.4" class="st5" width="5.3" height="18.8"/>
							</g>
						</g>
					</g>
				</g>
				<g>
					<path class="st1" d="M1073.6,736.4V704c0-15.9,12.9-28.9,28.8-29l339.4-2.4c0.1,0,0.1,0,0.2,0c7.7,0,15,3,20.4,8.4
						c5.5,5.5,8.6,12.8,8.6,20.6v34.7c0,16-13,29-29,29h-339.4C1086.7,765.4,1073.6,752.4,1073.6,736.4z M1441.9,676.6l-339.4,2.4
						c-13.7,0.1-24.9,11.3-24.9,25v32.4c0,13.8,11.2,25,25,25h339.4c13.8,0,25-11.2,25-25v-34.7c0-6.7-2.6-13-7.4-17.8
						c-4.7-4.7-11-7.3-17.6-7.3C1442,676.6,1442,676.6,1441.9,676.6z"/>
					<g>
						<g>
							<g>
								<path class="st3" d="M1379.7,714.1h50.4c2.6,0,4.6,1.1,4.6,2.5v25.5c0,1.4-2.1,2.5-4.6,2.5h-50.4c-2.6,0-4.6-1.1-4.6-2.5
									v-25.5C1375.1,715.2,1377.2,714.1,1379.7,714.1z"/>
								<path class="st3" d="M1419.8,695.8h13.7c0.7,0,1.3,1,1.3,2.3v11.6c0,1.3-0.6,2.3-1.3,2.3h-13.7c-0.7,0-1.3-1-1.3-2.3v-11.6
									C1418.5,696.8,1419.1,695.8,1419.8,695.8z"/>
								<path class="st3" d="M1398.1,695.8h13.7c0.7,0,1.3,1,1.3,2.3v11.6c0,1.3-0.6,2.3-1.3,2.3h-13.7c-0.7,0-1.3-1-1.3-2.3v-11.6
									C1396.8,696.8,1397.4,695.8,1398.1,695.8z"/>
								<path class="st3" d="M1376.4,695.8h13.7c0.7,0,1.3,1,1.3,2.3v11.6c0,1.3-0.6,2.3-1.3,2.3h-13.7c-0.7,0-1.3-1-1.3-2.3v-11.6
									C1375.1,696.8,1375.7,695.8,1376.4,695.8z"/>
							</g>
						</g>
						<g>
							<g>
								<rect x="1353.2" y="695.8" class="st5" width="5.3" height="48.8"/>
								<rect x="1340" y="695.8" class="st5" width="5.3" height="48.8"/>
								<rect x="1326.7" y="695.8" class="st5" width="5.3" height="48.8"/>
								<rect x="1313.4" y="695.8" class="st5" width="5.3" height="48.8"/>
								<rect x="1300.2" y="695.8" class="st5" width="5.3" height="48.8"/>
								<rect x="1286.9" y="695.8" class="st5" width="5.3" height="48.8"/>
								<rect x="1273.6" y="695.8" class="st5" width="5.3" height="48.8"/>
								<rect x="1260.4" y="695.8" class="st5" width="5.3" height="48.8"/>
								<rect x="1247.1" y="695.8" class="st5" width="5.3" height="48.8"/>
								<rect x="1233.8" y="695.8" class="st5" width="5.3" height="48.8"/>
								<rect x="1220.6" y="695.8" class="st5" width="5.3" height="48.8"/>
								<rect x="1207.3" y="695.8" class="st5" width="5.3" height="48.8"/>
								<rect x="1194" y="695.8" class="st5" width="5.3" height="48.8"/>
								<rect x="1180.8" y="695.8" class="st5" width="5.3" height="48.8"/>
								<rect x="1167.5" y="695.8" class="st5" width="5.3" height="48.8"/>
								<rect x="1154.2" y="695.8" class="st5" width="5.3" height="48.8"/>
								<rect x="1141" y="695.8" class="st5" width="5.3" height="48.8"/>
								<rect x="1127.7" y="695.8" class="st5" width="5.3" height="48.8"/>
								<rect x="1114.4" y="695.8" class="st5" width="5.3" height="48.8"/>
								<rect x="1101.2" y="695.8" class="st5" width="5.3" height="48.8"/>
							</g>
						</g>
						<g>
							<g>
								<rect x="1353.2" y="714.1" class="st5" width="5.3" height="18.8"/>
								<rect x="1340" y="709.6" class="st5" width="5.3" height="18.8"/>
								<rect x="1326.7" y="714.1" class="st5" width="5.3" height="18.8"/>
								<rect x="1313.4" y="709.6" class="st5" width="5.3" height="18.8"/>
								<rect x="1300.2" y="714.1" class="st5" width="5.3" height="18.8"/>
								<rect x="1286.9" y="714.1" class="st5" width="5.3" height="18.8"/>
								<rect x="1273.6" y="704.7" class="st5" width="5.3" height="18.8"/>
								<rect x="1260.4" y="714.1" class="st5" width="5.3" height="18.8"/>
								<rect x="1247.1" y="719.9" class="st5" width="5.3" height="18.8"/>
								<rect x="1233.8" y="714.1" class="st5" width="5.3" height="18.8"/>
								<rect x="1220.6" y="714.1" class="st5" width="5.3" height="18.8"/>
								<rect x="1207.3" y="704.7" class="st5" width="5.3" height="18.8"/>
								<rect x="1194" y="714.1" class="st5" width="5.3" height="18.8"/>
								<rect x="1180.8" y="719.9" class="st5" width="5.3" height="18.8"/>
								<rect x="1167.5" y="714.1" class="st5" width="5.3" height="18.8"/>
								<rect x="1154.2" y="714.1" class="st5" width="5.3" height="18.8"/>
								<rect x="1141" y="709.6" class="st5" width="5.3" height="18.8"/>
								<rect x="1127.7" y="714.1" class="st5" width="5.3" height="18.8"/>
								<rect x="1114.4" y="719" class="st5" width="5.3" height="18.8"/>
								<rect x="1101.2" y="714.1" class="st5" width="5.3" height="18.8"/>
							</g>
						</g>
					</g>
				</g>
				<g>
					<path class="st1" d="M1073.6,844.1v-32.4c0-15.9,12.9-28.9,28.8-29l339.4-2.4c0.1,0,0.1,0,0.2,0c7.7,0,15,3,20.4,8.4
						c5.5,5.5,8.6,12.8,8.6,20.6v34.7c0,16-13,29-29,29h-339.4C1086.7,873.1,1073.6,860.1,1073.6,844.1z M1441.9,784.3l-339.4,2.4
						c-13.7,0.1-24.9,11.3-24.9,25v32.4c0,13.8,11.2,25,25,25h339.4c13.8,0,25-11.2,25-25v-34.7c0-6.7-2.6-13-7.4-17.8
						c-4.7-4.7-11-7.3-17.6-7.3C1442,784.3,1442,784.3,1441.9,784.3z"/>
					<g>
						<g>
							<g>
								<path class="st3" d="M1379.7,821.8h50.4c2.6,0,4.6,1.1,4.6,2.5v25.5c0,1.4-2.1,2.5-4.6,2.5h-50.4c-2.6,0-4.6-1.1-4.6-2.5
									v-25.5C1375.1,822.9,1377.2,821.8,1379.7,821.8z"/>
								<path class="st3" d="M1419.8,803.5h13.7c0.7,0,1.3,1,1.3,2.3v11.6c0,1.3-0.6,2.3-1.3,2.3h-13.7c-0.7,0-1.3-1-1.3-2.3v-11.6
									C1418.5,804.5,1419.1,803.5,1419.8,803.5z"/>
								<path class="st3" d="M1398.1,803.5h13.7c0.7,0,1.3,1,1.3,2.3v11.6c0,1.3-0.6,2.3-1.3,2.3h-13.7c-0.7,0-1.3-1-1.3-2.3v-11.6
									C1396.8,804.5,1397.4,803.5,1398.1,803.5z"/>
								<path class="st3" d="M1376.4,803.5h13.7c0.7,0,1.3,1,1.3,2.3v11.6c0,1.3-0.6,2.3-1.3,2.3h-13.7c-0.7,0-1.3-1-1.3-2.3v-11.6
									C1375.1,804.5,1375.7,803.5,1376.4,803.5z"/>
							</g>
						</g>
						<g>
							<g>
								<rect x="1353.2" y="803.5" class="st5" width="5.3" height="48.8"/>
								<rect x="1340" y="803.5" class="st5" width="5.3" height="48.8"/>
								<rect x="1326.7" y="803.5" class="st5" width="5.3" height="48.8"/>
								<rect x="1313.4" y="803.5" class="st5" width="5.3" height="48.8"/>
								<rect x="1300.2" y="803.5" class="st5" width="5.3" height="48.8"/>
								<rect x="1286.9" y="803.5" class="st5" width="5.3" height="48.8"/>
								<rect x="1273.6" y="803.5" class="st5" width="5.3" height="48.8"/>
								<rect x="1260.4" y="803.5" class="st5" width="5.3" height="48.8"/>
								<rect x="1247.1" y="803.5" class="st5" width="5.3" height="48.8"/>
								<rect x="1233.8" y="803.5" class="st5" width="5.3" height="48.8"/>
								<rect x="1220.6" y="803.5" class="st5" width="5.3" height="48.8"/>
								<rect x="1207.3" y="803.5" class="st5" width="5.3" height="48.8"/>
								<rect x="1194" y="803.5" class="st5" width="5.3" height="48.8"/>
								<rect x="1180.8" y="803.5" class="st5" width="5.3" height="48.8"/>
								<rect x="1167.5" y="803.5" class="st5" width="5.3" height="48.8"/>
								<rect x="1154.2" y="803.5" class="st5" width="5.3" height="48.8"/>
								<rect x="1141" y="803.5" class="st5" width="5.3" height="48.8"/>
								<rect x="1127.7" y="803.5" class="st5" width="5.3" height="48.8"/>
								<rect x="1114.4" y="803.5" class="st5" width="5.3" height="48.8"/>
								<rect x="1101.2" y="803.5" class="st5" width="5.3" height="48.8"/>
							</g>
						</g>
						<g>
							<g>
								<rect x="1353.2" y="821.8" class="st5" width="5.3" height="18.8"/>
								<rect x="1340" y="817.3" class="st5" width="5.3" height="18.8"/>
								<rect x="1326.7" y="821.8" class="st5" width="5.3" height="18.8"/>
								<rect x="1313.4" y="817.3" class="st5" width="5.3" height="18.8"/>
								<rect x="1300.2" y="821.8" class="st5" width="5.3" height="18.8"/>
								<rect x="1286.9" y="821.8" class="st5" width="5.3" height="18.8"/>
								<rect x="1273.6" y="812.4" class="st5" width="5.3" height="18.8"/>
								<rect x="1260.4" y="821.8" class="st5" width="5.3" height="18.8"/>
								<rect x="1247.1" y="827.6" class="st5" width="5.3" height="18.8"/>
								<rect x="1233.8" y="821.8" class="st5" width="5.3" height="18.8"/>
								<rect x="1220.6" y="821.8" class="st5" width="5.3" height="18.8"/>
								<rect x="1207.3" y="812.4" class="st5" width="5.3" height="18.8"/>
								<rect x="1194" y="821.8" class="st5" width="5.3" height="18.8"/>
								<rect x="1180.8" y="827.6" class="st5" width="5.3" height="18.8"/>
								<rect x="1167.5" y="821.8" class="st5" width="5.3" height="18.8"/>
								<rect x="1154.2" y="821.8" class="st5" width="5.3" height="18.8"/>
								<rect x="1141" y="817.3" class="st5" width="5.3" height="18.8"/>
								<rect x="1127.7" y="821.8" class="st5" width="5.3" height="18.8"/>
								<rect x="1114.4" y="826.7" class="st5" width="5.3" height="18.8"/>
								<rect x="1101.2" y="821.8" class="st5" width="5.3" height="18.8"/>
							</g>
						</g>
					</g>
				</g>
				<g>
					<path class="st1" d="M1073.6,951.8v-32.4c0-15.9,12.9-28.9,28.8-29l339.4-2.4c0.1,0,0.1,0,0.2,0c7.7,0,15,3,20.4,8.4
						c5.5,5.5,8.6,12.8,8.6,20.6v34.7c0,16-13,29-29,29h-339.4C1086.7,980.8,1073.6,967.8,1073.6,951.8z M1441.9,892l-339.4,2.4
						c-13.7,0.1-24.9,11.3-24.9,25v32.4c0,13.8,11.2,25,25,25h339.4c13.8,0,25-11.2,25-25V917c0-6.7-2.6-13-7.4-17.8
						c-4.7-4.7-11-7.3-17.6-7.3C1442,892,1442,892,1441.9,892z"/>
					<g>
						<g>
							<g>
								<path class="st3" d="M1379.7,929.5h50.4c2.6,0,4.6,1.1,4.6,2.5v25.5c0,1.4-2.1,2.5-4.6,2.5h-50.4c-2.6,0-4.6-1.1-4.6-2.5
									V932C1375.1,930.6,1377.2,929.5,1379.7,929.5z"/>
								<path class="st3" d="M1419.8,911.2h13.7c0.7,0,1.3,1,1.3,2.3v11.6c0,1.3-0.6,2.3-1.3,2.3h-13.7c-0.7,0-1.3-1-1.3-2.3v-11.6
									C1418.5,912.2,1419.1,911.2,1419.8,911.2z"/>
								<path class="st3" d="M1398.1,911.2h13.7c0.7,0,1.3,1,1.3,2.3v11.6c0,1.3-0.6,2.3-1.3,2.3h-13.7c-0.7,0-1.3-1-1.3-2.3v-11.6
									C1396.8,912.2,1397.4,911.2,1398.1,911.2z"/>
								<path class="st3" d="M1376.4,911.2h13.7c0.7,0,1.3,1,1.3,2.3v11.6c0,1.3-0.6,2.3-1.3,2.3h-13.7c-0.7,0-1.3-1-1.3-2.3v-11.6
									C1375.1,912.2,1375.7,911.2,1376.4,911.2z"/>
							</g>
						</g>
						<g>
							<g>
								<rect x="1353.2" y="911.2" class="st5" width="5.3" height="48.8"/>
								<rect x="1340" y="911.2" class="st5" width="5.3" height="48.8"/>
								<rect x="1326.7" y="911.2" class="st5" width="5.3" height="48.8"/>
								<rect x="1313.4" y="911.2" class="st5" width="5.3" height="48.8"/>
								<rect x="1300.2" y="911.2" class="st5" width="5.3" height="48.8"/>
								<rect x="1286.9" y="911.2" class="st5" width="5.3" height="48.8"/>
								<rect x="1273.6" y="911.2" class="st5" width="5.3" height="48.8"/>
								<rect x="1260.4" y="911.2" class="st5" width="5.3" height="48.8"/>
								<rect x="1247.1" y="911.2" class="st5" width="5.3" height="48.8"/>
								<rect x="1233.8" y="911.2" class="st5" width="5.3" height="48.8"/>
								<rect x="1220.6" y="911.2" class="st5" width="5.3" height="48.8"/>
								<rect x="1207.3" y="911.2" class="st5" width="5.3" height="48.8"/>
								<rect x="1194" y="911.2" class="st5" width="5.3" height="48.8"/>
								<rect x="1180.8" y="911.2" class="st5" width="5.3" height="48.8"/>
								<rect x="1167.5" y="911.2" class="st5" width="5.3" height="48.8"/>
								<rect x="1154.2" y="911.2" class="st5" width="5.3" height="48.8"/>
								<rect x="1141" y="911.2" class="st5" width="5.3" height="48.8"/>
								<rect x="1127.7" y="911.2" class="st5" width="5.3" height="48.8"/>
								<rect x="1114.4" y="911.2" class="st5" width="5.3" height="48.8"/>
								<rect x="1101.2" y="911.2" class="st5" width="5.3" height="48.8"/>
							</g>
						</g>
						<g>
							<g>
								<rect x="1353.2" y="929.5" class="st5" width="5.3" height="18.8"/>
								<rect x="1340" y="925" class="st5" width="5.3" height="18.8"/>
								<rect x="1326.7" y="929.5" class="st5" width="5.3" height="18.8"/>
								<rect x="1313.4" y="925" class="st5" width="5.3" height="18.8"/>
								<rect x="1300.2" y="929.5" class="st5" width="5.3" height="18.8"/>
								<rect x="1286.9" y="929.5" class="st5" width="5.3" height="18.8"/>
								<rect x="1273.6" y="920.1" class="st5" width="5.3" height="18.8"/>
								<rect x="1260.4" y="929.5" class="st5" width="5.3" height="18.8"/>
								<rect x="1247.1" y="935.3" class="st5" width="5.3" height="18.8"/>
								<rect x="1233.8" y="929.5" class="st5" width="5.3" height="18.8"/>
								<rect x="1220.6" y="929.5" class="st5" width="5.3" height="18.8"/>
								<rect x="1207.3" y="920.1" class="st5" width="5.3" height="18.8"/>
								<rect x="1194" y="929.5" class="st5" width="5.3" height="18.8"/>
								<rect x="1180.8" y="935.3" class="st5" width="5.3" height="18.8"/>
								<rect x="1167.5" y="929.5" class="st5" width="5.3" height="18.8"/>
								<rect x="1154.2" y="929.5" class="st5" width="5.3" height="18.8"/>
								<rect x="1141" y="925" class="st5" width="5.3" height="18.8"/>
								<rect x="1127.7" y="929.5" class="st5" width="5.3" height="18.8"/>
								<rect x="1114.4" y="934.4" class="st5" width="5.3" height="18.8"/>
								<rect x="1101.2" y="929.5" class="st5" width="5.3" height="18.8"/>
							</g>
						</g>
					</g>
				</g>
				<g>
					<path class="st1" d="M1469.1,1024.7v34.7c0,14.9-12.1,27-27,27h-339.4c-14.9,0-27-12.1-27-27v-32.4c0-14.9,12-26.9,26.8-27
						l339.4-2.4C1456.9,997.6,1469.1,1009.7,1469.1,1024.7z"/>
					<path class="st6" d="M1073.6,1059.5v-32.4c0-15.9,12.9-28.9,28.8-29l339.4-2.4c0.1,0,0.1,0,0.2,0c7.7,0,15,3,20.4,8.4
						c5.5,5.5,8.6,12.8,8.6,20.6v34.7c0,16-13,29-29,29h-339.4C1086.7,1088.5,1073.6,1075.5,1073.6,1059.5z M1441.9,999.7
						l-339.4,2.4c-13.7,0.1-24.9,11.3-24.9,25v32.4c0,13.8,11.2,25,25,25h339.4c13.8,0,25-11.2,25-25v-34.7c0-6.7-2.6-13-7.4-17.8
						c-4.7-4.7-11-7.3-17.6-7.3C1442,999.7,1442,999.7,1441.9,999.7z"/>
					<g>
						<g>
							<g>
								<path class="st4" d="M1379.7,1037.2h50.4c2.6,0,4.6,1.1,4.6,2.5v25.5c0,1.4-2.1,2.5-4.6,2.5h-50.4c-2.6,0-4.6-1.1-4.6-2.5
									v-25.5C1375.1,1038.3,1377.2,1037.2,1379.7,1037.2z"/>
								<path class="st4" d="M1419.8,1018.9h13.7c0.7,0,1.3,1,1.3,2.3v11.6c0,1.3-0.6,2.3-1.3,2.3h-13.7c-0.7,0-1.3-1-1.3-2.3v-11.6
									C1418.5,1019.9,1419.1,1018.9,1419.8,1018.9z"/>
								<path class="st4" d="M1398.1,1018.9h13.7c0.7,0,1.3,1,1.3,2.3v11.6c0,1.3-0.6,2.3-1.3,2.3h-13.7c-0.7,0-1.3-1-1.3-2.3v-11.6
									C1396.8,1019.9,1397.4,1018.9,1398.1,1018.9z"/>
								<path class="st4" d="M1376.4,1018.9h13.7c0.7,0,1.3,1,1.3,2.3v11.6c0,1.3-0.6,2.3-1.3,2.3h-13.7c-0.7,0-1.3-1-1.3-2.3v-11.6
									C1375.1,1019.9,1375.7,1018.9,1376.4,1018.9z"/>
							</g>
						</g>
						<g>
							<g>
								<rect x="1353.2" y="1018.9" class="st7" width="5.3" height="48.8"/>
								<rect x="1340" y="1018.9" class="st7" width="5.3" height="48.8"/>
								<rect x="1326.7" y="1018.9" class="st7" width="5.3" height="48.8"/>
								<rect x="1313.4" y="1018.9" class="st7" width="5.3" height="48.8"/>
								<rect x="1300.2" y="1018.9" class="st7" width="5.3" height="48.8"/>
								<rect x="1286.9" y="1018.9" class="st7" width="5.3" height="48.8"/>
								<rect x="1273.6" y="1018.9" class="st7" width="5.3" height="48.8"/>
								<rect x="1260.4" y="1018.9" class="st7" width="5.3" height="48.8"/>
								<rect x="1247.1" y="1018.9" class="st7" width="5.3" height="48.8"/>
								<rect x="1233.8" y="1018.9" class="st7" width="5.3" height="48.8"/>
								<rect x="1220.6" y="1018.9" class="st7" width="5.3" height="48.8"/>
								<rect x="1207.3" y="1018.9" class="st7" width="5.3" height="48.8"/>
								<rect x="1194" y="1018.9" class="st7" width="5.3" height="48.8"/>
								<rect x="1180.8" y="1018.9" class="st7" width="5.3" height="48.8"/>
								<rect x="1167.5" y="1018.9" class="st7" width="5.3" height="48.8"/>
								<rect x="1154.2" y="1018.9" class="st7" width="5.3" height="48.8"/>
								<rect x="1141" y="1018.9" class="st7" width="5.3" height="48.8"/>
								<rect x="1127.7" y="1018.9" class="st7" width="5.3" height="48.8"/>
								<rect x="1114.4" y="1018.9" class="st7" width="5.3" height="48.8"/>
								<rect x="1101.2" y="1018.9" class="st7" width="5.3" height="48.8"/>
							</g>
						</g>
						<g>
							<g>
								<rect x="1353.2" y="1037.2" class="st7" width="5.3" height="18.8"/>
								<rect x="1340" y="1032.7" class="st7" width="5.3" height="18.8"/>
								<rect x="1326.7" y="1037.2" class="st7" width="5.3" height="18.8"/>
								<rect x="1313.4" y="1032.7" class="st7" width="5.3" height="18.8"/>
								<rect x="1300.2" y="1037.2" class="st7" width="5.3" height="18.8"/>
								<rect x="1286.9" y="1037.2" class="st7" width="5.3" height="18.8"/>
								<rect x="1273.6" y="1027.8" class="st7" width="5.3" height="18.8"/>
								<rect x="1260.4" y="1037.2" class="st7" width="5.3" height="18.8"/>
								<rect x="1247.1" y="1043" class="st7" width="5.3" height="18.8"/>
								<rect x="1233.8" y="1037.2" class="st7" width="5.3" height="18.8"/>
								<rect x="1220.6" y="1037.2" class="st7" width="5.3" height="18.8"/>
								<rect x="1207.3" y="1027.8" class="st7" width="5.3" height="18.8"/>
								<rect x="1194" y="1037.2" class="st7" width="5.3" height="18.8"/>
								<rect x="1180.8" y="1043" class="st7" width="5.3" height="18.8"/>
								<rect x="1167.5" y="1037.2" class="st7" width="5.3" height="18.8"/>
								<rect x="1154.2" y="1037.2" class="st7" width="5.3" height="18.8"/>
								<rect x="1141" y="1032.7" class="st7" width="5.3" height="18.8"/>
								<rect x="1127.7" y="1037.2" class="st7" width="5.3" height="18.8"/>
								<rect x="1114.4" y="1042.1" class="st7" width="5.3" height="18.8"/>
								<rect x="1101.2" y="1037.2" class="st7" width="5.3" height="18.8"/>
							</g>
						</g>
					</g>
				</g>
				<g>
					<path class="st1" d="M1469.1,1127.2v34.7c0,14.9-12.1,27-27,27h-339.4c-14.9,0-27-12.1-27-27v-32.4c0-14.9,12-26.9,26.8-27
						l339.4-2.4C1456.9,1100.1,1469.1,1112.2,1469.1,1127.2z"/>
					<path class="st6" d="M1073.6,1161.9v-32.4c0-15.9,12.9-28.9,28.8-29l339.4-2.4c0.1,0,0.1,0,0.2,0c7.7,0,15,3,20.4,8.4
						c5.5,5.5,8.6,12.8,8.6,20.6v34.7c0,16-13,29-29,29h-339.4C1086.7,1190.9,1073.6,1177.9,1073.6,1161.9z M1441.9,1102.2
						l-339.4,2.4c-13.7,0.1-24.9,11.3-24.9,25v32.4c0,13.8,11.2,25,25,25h339.4c13.8,0,25-11.2,25-25v-34.7c0-6.7-2.6-13-7.4-17.8
						c-4.7-4.7-11-7.3-17.6-7.3C1442,1102.2,1442,1102.2,1441.9,1102.2z"/>
					<g>
						<g>
							<g>
								<path class="st4" d="M1379.7,1139.6h50.4c2.6,0,4.6,1.1,4.6,2.5v25.5c0,1.4-2.1,2.5-4.6,2.5h-50.4c-2.6,0-4.6-1.1-4.6-2.5
									v-25.5C1375.1,1140.8,1377.2,1139.6,1379.7,1139.6z"/>
								<path class="st4" d="M1419.8,1121.4h13.7c0.7,0,1.3,1,1.3,2.3v11.6c0,1.3-0.6,2.3-1.3,2.3h-13.7c-0.7,0-1.3-1-1.3-2.3v-11.6
									C1418.5,1122.4,1419.1,1121.4,1419.8,1121.4z"/>
								<path class="st4" d="M1398.1,1121.4h13.7c0.7,0,1.3,1,1.3,2.3v11.6c0,1.3-0.6,2.3-1.3,2.3h-13.7c-0.7,0-1.3-1-1.3-2.3v-11.6
									C1396.8,1122.4,1397.4,1121.4,1398.1,1121.4z"/>
								<path class="st4" d="M1376.4,1121.4h13.7c0.7,0,1.3,1,1.3,2.3v11.6c0,1.3-0.6,2.3-1.3,2.3h-13.7c-0.7,0-1.3-1-1.3-2.3v-11.6
									C1375.1,1122.4,1375.7,1121.4,1376.4,1121.4z"/>
							</g>
						</g>
						<g>
							<g>
								<rect x="1353.2" y="1121.4" class="st7" width="5.3" height="48.8"/>
								<rect x="1340" y="1121.4" class="st7" width="5.3" height="48.8"/>
								<rect x="1326.7" y="1121.4" class="st7" width="5.3" height="48.8"/>
								<rect x="1313.4" y="1121.4" class="st7" width="5.3" height="48.8"/>
								<rect x="1300.2" y="1121.4" class="st7" width="5.3" height="48.8"/>
								<rect x="1286.9" y="1121.4" class="st7" width="5.3" height="48.8"/>
								<rect x="1273.6" y="1121.4" class="st7" width="5.3" height="48.8"/>
								<rect x="1260.4" y="1121.4" class="st7" width="5.3" height="48.8"/>
								<rect x="1247.1" y="1121.4" class="st7" width="5.3" height="48.8"/>
								<rect x="1233.8" y="1121.4" class="st7" width="5.3" height="48.8"/>
								<rect x="1220.6" y="1121.4" class="st7" width="5.3" height="48.8"/>
								<rect x="1207.3" y="1121.4" class="st7" width="5.3" height="48.8"/>
								<rect x="1194" y="1121.4" class="st7" width="5.3" height="48.8"/>
								<rect x="1180.8" y="1121.4" class="st7" width="5.3" height="48.8"/>
								<rect x="1167.5" y="1121.4" class="st7" width="5.3" height="48.8"/>
								<rect x="1154.2" y="1121.4" class="st7" width="5.3" height="48.8"/>
								<rect x="1141" y="1121.4" class="st7" width="5.3" height="48.8"/>
								<rect x="1127.7" y="1121.4" class="st7" width="5.3" height="48.8"/>
								<rect x="1114.4" y="1121.4" class="st7" width="5.3" height="48.8"/>
								<rect x="1101.2" y="1121.4" class="st7" width="5.3" height="48.8"/>
							</g>
						</g>
						<g>
							<g>
								<rect x="1353.2" y="1139.6" class="st7" width="5.3" height="18.8"/>
								<rect x="1340" y="1135.2" class="st7" width="5.3" height="18.8"/>
								<rect x="1326.7" y="1139.6" class="st7" width="5.3" height="18.8"/>
								<rect x="1313.4" y="1135.2" class="st7" width="5.3" height="18.8"/>
								<rect x="1300.2" y="1139.6" class="st7" width="5.3" height="18.8"/>
								<rect x="1286.9" y="1139.6" class="st7" width="5.3" height="18.8"/>
								<rect x="1273.6" y="1130.2" class="st7" width="5.3" height="18.8"/>
								<rect x="1260.4" y="1139.6" class="st7" width="5.3" height="18.8"/>
								<rect x="1247.1" y="1145.5" class="st7" width="5.3" height="18.8"/>
								<rect x="1233.8" y="1139.6" class="st7" width="5.3" height="18.8"/>
								<rect x="1220.6" y="1139.6" class="st7" width="5.3" height="18.8"/>
								<rect x="1207.3" y="1130.2" class="st7" width="5.3" height="18.8"/>
								<rect x="1194" y="1139.6" class="st7" width="5.3" height="18.8"/>
								<rect x="1180.8" y="1145.5" class="st7" width="5.3" height="18.8"/>
								<rect x="1167.5" y="1139.6" class="st7" width="5.3" height="18.8"/>
								<rect x="1154.2" y="1139.6" class="st7" width="5.3" height="18.8"/>
								<rect x="1141" y="1135.2" class="st7" width="5.3" height="18.8"/>
								<rect x="1127.7" y="1139.6" class="st7" width="5.3" height="18.8"/>
								<rect x="1114.4" y="1144.6" class="st7" width="5.3" height="18.8"/>
								<rect x="1101.2" y="1139.6" class="st7" width="5.3" height="18.8"/>
							</g>
						</g>
					</g>
				</g>
				<g>
					<path class="st1" d="M1469.1,1229.7v34.7c0,14.9-12.1,27-27,27h-339.4c-14.9,0-27-12.1-27-27V1232c0-14.9,12-26.9,26.8-27
						l339.4-2.4C1456.9,1202.5,1469.1,1214.7,1469.1,1229.7z"/>
					<path class="st6" d="M1073.6,1264.4V1232c0-15.9,12.9-28.9,28.8-29l339.4-2.4c0.1,0,0.1,0,0.2,0c7.7,0,15,3,20.4,8.4
						c5.5,5.5,8.6,12.8,8.6,20.6v34.7c0,16-13,29-29,29h-339.4C1086.7,1293.4,1073.6,1280.4,1073.6,1264.4z M1441.9,1204.6
						l-339.4,2.4c-13.7,0.1-24.9,11.3-24.9,25v32.4c0,13.8,11.2,25,25,25h339.4c13.8,0,25-11.2,25-25v-34.7c0-6.7-2.6-13-7.4-17.8
						c-4.7-4.7-11-7.3-17.6-7.3C1442,1204.6,1442,1204.6,1441.9,1204.6z"/>
					<g>
						<g>
							<g>
								<path class="st4" d="M1379.7,1242.1h50.4c2.6,0,4.6,1.1,4.6,2.5v25.5c0,1.4-2.1,2.5-4.6,2.5h-50.4c-2.6,0-4.6-1.1-4.6-2.5
									v-25.5C1375.1,1243.2,1377.2,1242.1,1379.7,1242.1z"/>
								<path class="st4" d="M1419.8,1223.8h13.7c0.7,0,1.3,1,1.3,2.3v11.6c0,1.3-0.6,2.3-1.3,2.3h-13.7c-0.7,0-1.3-1-1.3-2.3v-11.6
									C1418.5,1224.9,1419.1,1223.8,1419.8,1223.8z"/>
								<path class="st4" d="M1398.1,1223.8h13.7c0.7,0,1.3,1,1.3,2.3v11.6c0,1.3-0.6,2.3-1.3,2.3h-13.7c-0.7,0-1.3-1-1.3-2.3v-11.6
									C1396.8,1224.9,1397.4,1223.8,1398.1,1223.8z"/>
								<path class="st4" d="M1376.4,1223.8h13.7c0.7,0,1.3,1,1.3,2.3v11.6c0,1.3-0.6,2.3-1.3,2.3h-13.7c-0.7,0-1.3-1-1.3-2.3v-11.6
									C1375.1,1224.9,1375.7,1223.8,1376.4,1223.8z"/>
							</g>
						</g>
						<g>
							<g>
								<rect x="1353.2" y="1223.8" class="st7" width="5.3" height="48.8"/>
								<rect x="1340" y="1223.8" class="st7" width="5.3" height="48.8"/>
								<rect x="1326.7" y="1223.8" class="st7" width="5.3" height="48.8"/>
								<rect x="1313.4" y="1223.8" class="st7" width="5.3" height="48.8"/>
								<rect x="1300.2" y="1223.8" class="st7" width="5.3" height="48.8"/>
								<rect x="1286.9" y="1223.8" class="st7" width="5.3" height="48.8"/>
								<rect x="1273.6" y="1223.8" class="st7" width="5.3" height="48.8"/>
								<rect x="1260.4" y="1223.8" class="st7" width="5.3" height="48.8"/>
								<rect x="1247.1" y="1223.8" class="st7" width="5.3" height="48.8"/>
								<rect x="1233.8" y="1223.8" class="st7" width="5.3" height="48.8"/>
								<rect x="1220.6" y="1223.8" class="st7" width="5.3" height="48.8"/>
								<rect x="1207.3" y="1223.8" class="st7" width="5.3" height="48.8"/>
								<rect x="1194" y="1223.8" class="st7" width="5.3" height="48.8"/>
								<rect x="1180.8" y="1223.8" class="st7" width="5.3" height="48.8"/>
								<rect x="1167.5" y="1223.8" class="st7" width="5.3" height="48.8"/>
								<rect x="1154.2" y="1223.8" class="st7" width="5.3" height="48.8"/>
								<rect x="1141" y="1223.8" class="st7" width="5.3" height="48.8"/>
								<rect x="1127.7" y="1223.8" class="st7" width="5.3" height="48.8"/>
								<rect x="1114.4" y="1223.8" class="st7" width="5.3" height="48.8"/>
								<rect x="1101.2" y="1223.8" class="st7" width="5.3" height="48.8"/>
							</g>
						</g>
						<g>
							<g>
								<rect x="1353.2" y="1242.1" class="st7" width="5.3" height="18.8"/>
								<rect x="1340" y="1237.6" class="st7" width="5.3" height="18.8"/>
								<rect x="1326.7" y="1242.1" class="st7" width="5.3" height="18.8"/>
								<rect x="1313.4" y="1237.6" class="st7" width="5.3" height="18.8"/>
								<rect x="1300.2" y="1242.1" class="st7" width="5.3" height="18.8"/>
								<rect x="1286.9" y="1242.1" class="st7" width="5.3" height="18.8"/>
								<rect x="1273.6" y="1232.7" class="st7" width="5.3" height="18.8"/>
								<rect x="1260.4" y="1242.1" class="st7" width="5.3" height="18.8"/>
								<rect x="1247.1" y="1248" class="st7" width="5.3" height="18.8"/>
								<rect x="1233.8" y="1242.1" class="st7" width="5.3" height="18.8"/>
								<rect x="1220.6" y="1242.1" class="st7" width="5.3" height="18.8"/>
								<rect x="1207.3" y="1232.7" class="st7" width="5.3" height="18.8"/>
								<rect x="1194" y="1242.1" class="st7" width="5.3" height="18.8"/>
								<rect x="1180.8" y="1248" class="st7" width="5.3" height="18.8"/>
								<rect x="1167.5" y="1242.1" class="st7" width="5.3" height="18.8"/>
								<rect x="1154.2" y="1242.1" class="st7" width="5.3" height="18.8"/>
								<rect x="1141" y="1237.6" class="st7" width="5.3" height="18.8"/>
								<rect x="1127.7" y="1242.1" class="st7" width="5.3" height="18.8"/>
								<rect x="1114.4" y="1247" class="st7" width="5.3" height="18.8"/>
								<rect x="1101.2" y="1242.1" class="st7" width="5.3" height="18.8"/>
							</g>
						</g>
					</g>
				</g>
				<g>
					<path class="st1" d="M1469.1,1332.1v34.7c0,14.9-12.1,27-27,27h-339.4c-14.9,0-27-12.1-27-27v-32.4c0-14.9,12-26.9,26.8-27
						l339.4-2.4C1456.9,1305,1469.1,1317.1,1469.1,1332.1z"/>
					<path class="st6" d="M1073.6,1366.9v-32.4c0-15.9,12.9-28.9,28.8-29l339.4-2.4c0.1,0,0.1,0,0.2,0c7.7,0,15,3,20.4,8.4
						c5.5,5.5,8.6,12.8,8.6,20.6v34.7c0,16-13,29-29,29h-339.4C1086.7,1395.9,1073.6,1382.9,1073.6,1366.9z M1441.9,1307.1
						l-339.4,2.4c-13.7,0.1-24.9,11.3-24.9,25v32.4c0,13.8,11.2,25,25,25h339.4c13.8,0,25-11.2,25-25v-34.7c0-6.7-2.6-13-7.4-17.8
						c-4.7-4.7-11-7.3-17.6-7.3C1442,1307.1,1442,1307.1,1441.9,1307.1z"/>
					<g>
						<g>
							<g>
								<path class="st4" d="M1379.7,1344.6h50.4c2.6,0,4.6,1.1,4.6,2.5v25.5c0,1.4-2.1,2.5-4.6,2.5h-50.4c-2.6,0-4.6-1.1-4.6-2.5
									v-25.5C1375.1,1345.7,1377.2,1344.6,1379.7,1344.6z"/>
								<path class="st4" d="M1419.8,1326.3h13.7c0.7,0,1.3,1,1.3,2.3v11.6c0,1.3-0.6,2.3-1.3,2.3h-13.7c-0.7,0-1.3-1-1.3-2.3v-11.6
									C1418.5,1327.4,1419.1,1326.3,1419.8,1326.3z"/>
								<path class="st4" d="M1398.1,1326.3h13.7c0.7,0,1.3,1,1.3,2.3v11.6c0,1.3-0.6,2.3-1.3,2.3h-13.7c-0.7,0-1.3-1-1.3-2.3v-11.6
									C1396.8,1327.4,1397.4,1326.3,1398.1,1326.3z"/>
								<path class="st4" d="M1376.4,1326.3h13.7c0.7,0,1.3,1,1.3,2.3v11.6c0,1.3-0.6,2.3-1.3,2.3h-13.7c-0.7,0-1.3-1-1.3-2.3v-11.6
									C1375.1,1327.4,1375.7,1326.3,1376.4,1326.3z"/>
							</g>
						</g>
						<g>
							<g>
								<rect x="1353.2" y="1326.3" class="st7" width="5.3" height="48.8"/>
								<rect x="1340" y="1326.3" class="st7" width="5.3" height="48.8"/>
								<rect x="1326.7" y="1326.3" class="st7" width="5.3" height="48.8"/>
								<rect x="1313.4" y="1326.3" class="st7" width="5.3" height="48.8"/>
								<rect x="1300.2" y="1326.3" class="st7" width="5.3" height="48.8"/>
								<rect x="1286.9" y="1326.3" class="st7" width="5.3" height="48.8"/>
								<rect x="1273.6" y="1326.3" class="st7" width="5.3" height="48.8"/>
								<rect x="1260.4" y="1326.3" class="st7" width="5.3" height="48.8"/>
								<rect x="1247.1" y="1326.3" class="st7" width="5.3" height="48.8"/>
								<rect x="1233.8" y="1326.3" class="st7" width="5.3" height="48.8"/>
								<rect x="1220.6" y="1326.3" class="st7" width="5.3" height="48.8"/>
								<rect x="1207.3" y="1326.3" class="st7" width="5.3" height="48.8"/>
								<rect x="1194" y="1326.3" class="st7" width="5.3" height="48.8"/>
								<rect x="1180.8" y="1326.3" class="st7" width="5.3" height="48.8"/>
								<rect x="1167.5" y="1326.3" class="st7" width="5.3" height="48.8"/>
								<rect x="1154.2" y="1326.3" class="st7" width="5.3" height="48.8"/>
								<rect x="1141" y="1326.3" class="st7" width="5.3" height="48.8"/>
								<rect x="1127.7" y="1326.3" class="st7" width="5.3" height="48.8"/>
								<rect x="1114.4" y="1326.3" class="st7" width="5.3" height="48.8"/>
								<rect x="1101.2" y="1326.3" class="st7" width="5.3" height="48.8"/>
							</g>
						</g>
						<g>
							<g>
								<rect x="1353.2" y="1344.6" class="st7" width="5.3" height="18.8"/>
								<rect x="1340" y="1340.1" class="st7" width="5.3" height="18.8"/>
								<rect x="1326.7" y="1344.6" class="st7" width="5.3" height="18.8"/>
								<rect x="1313.4" y="1340.1" class="st7" width="5.3" height="18.8"/>
								<rect x="1300.2" y="1344.6" class="st7" width="5.3" height="18.8"/>
								<rect x="1286.9" y="1344.6" class="st7" width="5.3" height="18.8"/>
								<rect x="1273.6" y="1335.2" class="st7" width="5.3" height="18.8"/>
								<rect x="1260.4" y="1344.6" class="st7" width="5.3" height="18.8"/>
								<rect x="1247.1" y="1350.4" class="st7" width="5.3" height="18.8"/>
								<rect x="1233.8" y="1344.6" class="st7" width="5.3" height="18.8"/>
								<rect x="1220.6" y="1344.6" class="st7" width="5.3" height="18.8"/>
								<rect x="1207.3" y="1335.2" class="st7" width="5.3" height="18.8"/>
								<rect x="1194" y="1344.6" class="st7" width="5.3" height="18.8"/>
								<rect x="1180.8" y="1350.4" class="st7" width="5.3" height="18.8"/>
								<rect x="1167.5" y="1344.6" class="st7" width="5.3" height="18.8"/>
								<rect x="1154.2" y="1344.6" class="st7" width="5.3" height="18.8"/>
								<rect x="1141" y="1340.1" class="st7" width="5.3" height="18.8"/>
								<rect x="1127.7" y="1344.6" class="st7" width="5.3" height="18.8"/>
								<rect x="1114.4" y="1349.5" class="st7" width="5.3" height="18.8"/>
								<rect x="1101.2" y="1344.6" class="st7" width="5.3" height="18.8"/>
							</g>
						</g>
					</g>
				</g>
			</g>
		</g>
		<g>
			<g>
				<g>
					
						<rect x="638.1" y="435.6" transform="matrix(0.5332 -0.846 0.846 0.5332 -48.0789 789.9041)" class="st3" width="107.2" height="5.7"/>
					<polygon class="st3" points="842.4,576.6 720.3,576.6 720.3,570.9 839,570.9 887.7,482.5 892.7,485.2 					"/>
					<circle class="st3" cx="719.9" cy="393.6" r="17.5"/>
					<circle class="st3" cx="840.3" cy="574.1" r="17.5"/>
					
						<ellipse transform="matrix(0.7071 -0.7071 0.7071 0.7071 -81.5549 771.5797)" class="st3" cx="890.6" cy="484.2" rx="22.9" ry="22.9"/>
				</g>
				<g>
					<path class="st3" d="M667.1,661.2H543.5l-59-92.8l58.9-93.5l123.7-7.8l51.1,101.3L667.1,661.2z M546.6,655.5h117.1l48-87.1
						l-48-95.2l-117,7.4l-55.4,87.9L546.6,655.5z"/>
					
						<ellipse transform="matrix(0.9239 -0.3827 0.3827 0.9239 -132.3511 290.906)" class="st3" cx="665.1" cy="478.1" rx="19" ry="19"/>
					<path class="st3" d="M556.1,658.7c0,6.3-5.1,11.4-11.4,11.4c-6.3,0-11.4-5.1-11.4-11.4c0-6.3,5.1-11.4,11.4-11.4
						C551,647.3,556.1,652.4,556.1,658.7z"/>
					<circle class="st3" cx="665.1" cy="658.7" r="17.5"/>
					
						<ellipse transform="matrix(0.3162 -0.9487 0.9487 0.3162 -50.4826 1067.5817)" class="st3" cx="715.4" cy="568.8" rx="22.9" ry="22.9"/>
				</g>
				<g>
					<path class="st3" d="M491.1,571.3H367.5l-59-92.8l58.9-93.5l123.7-7.8l55,103.7L491.1,571.3z M370.6,565.6h117.2l51.6-84.8
						l-51.7-97.5l-117.1,7.4l-55.4,87.9L370.6,565.6z"/>
					
						<ellipse transform="matrix(0.7071 -0.7071 0.7071 0.7071 -166.5396 374.3978)" class="st3" cx="368.7" cy="388.2" rx="17.5" ry="17.5"/>
					<circle class="st3" cx="489.1" cy="388.2" r="19"/>
					<path class="st3" d="M380.1,568.8c0,6.3-5.1,11.4-11.4,11.4c-6.3,0-11.4-5.1-11.4-11.4s5.1-11.4,11.4-11.4
						C375,557.4,380.1,562.5,380.1,568.8z"/>
					<circle class="st3" cx="489.1" cy="568.8" r="17.5"/>
					
						<ellipse transform="matrix(0.2298 -0.9732 0.9732 0.2298 -225.5543 672.8037)" class="st3" cx="312.3" cy="478.9" rx="17.5" ry="17.5"/>
					
						<ellipse transform="matrix(0.9966 -8.247965e-02 8.247965e-02 0.9966 -37.662 46.1167)" class="st3" cx="539.3" cy="478.9" rx="22.9" ry="22.9"/>
				</g>
			</g>
		</g>
		<g>
			<path class="st8" d="M1773.7,1463.8c119.8,16.6,243.6,16.8,371.8-1.2c15.6-2.2,25.8-17.6,21.5-32.8l-7.2-25.6
				c-2.2-8-9.2-13.8-17.5-14.4c-126-9.6-249-13.9-363.8-3c-7.7,0.7-14.4,5.6-17.4,12.8l-10.2,24.6
				C1743.7,1441.6,1755,1461.2,1773.7,1463.8z"/>
			<path class="st3" d="M1958.7,953l-34.6,173.7c-0.4,2.2-2.1,3.9-4.3,4.4c-5.1,1.1-14.8,1.7-25.7-4.6c-2.1-1.2-3.2-3.6-2.7-6
				l34.5-175L1958.7,953z"/>
			<path class="st8" d="M1990.8,839.8l-53.6,269c-0.7,3.4-3.3,6.1-6.7,6.8c-7.9,1.6-23,2.7-39.7-7.1c-3.2-1.9-4.9-5.6-4.2-9.2
				l53.5-271L1990.8,839.8z"/>
			<path class="st9" d="M2014.1,775.4l-63.6,311.3c-0.9,4.6-4.5,8.2-9.1,9.2c-10.6,2.2-31,3.6-53.5-9.5c-4.4-2.5-6.7-7.5-5.7-12.5
				l63.5-313.9L2014.1,775.4z"/>
			<path class="st8" d="M2020.2,774.4l-2,3.7c-1.4,2.5-4.2,3.8-7,3.2l-65.5-13.4c-3-0.6-5.2-3.3-5.2-6.3v-5.4c0-4.1,3.8-7.2,7.9-6.3
				l67.5,15.2C2020.1,765.8,2022.3,770.6,2020.2,774.4z"/>
			<path class="st8" d="M2001.3,831.2l-68.6-13.9l-5.3,0.4c-2.5,0.2-4.7,1.8-5.8,4.1l0,0c0,3.1,1.3,6.1,3.5,8.2l4.3,4.1L1998,848
				l9-3.5c1.3-0.5,2.3-1.4,3-2.7l0,0c1.4-2.7,0.3-6.1-2.4-7.5L2001.3,831.2z"/>
			<path class="st8" d="M1994.4,966.2l9.1-77.2c0.7-5.7-3.2-10.9-8.8-11.9l-72.7-13.5c-5.3-1-10.5,2.6-11.4,7.9l-27.4,156.3
				c0,0,44.5,18.8,101,18.8c0,0,10.3-22.2,25.7-20.5c15.4,1.7,63.3,22.2,54.8,118.1c-8.6,95.8-77,83.9-77,83.9l-29.1,131.8
				c0,0,148-25.7,162.6-190c9-101.4-53.2-166.1-77.7-187.4c-5.7-5-12.6-8.4-20-10L1994.4,966.2z"/>
			<path class="st9" d="M2065.5,1385.6l-26.4-99.4c-3.6-13.7-16-23.2-30.1-23.2h-15.6c-14,0-26.2,9.5-29.7,23.1l-25.2,99.5
				c-1.6,6.4,3.2,12.6,9.8,12.6h107.4C2062.4,1398.3,2067.2,1392,2065.5,1385.6z"/>
			
				<ellipse transform="matrix(0.7071 -0.7071 0.7071 0.7071 -336.7634 1795.2606)" class="st8" cx="1998.7" cy="1304.1" rx="22.2" ry="22.2"/>
			<path class="st8" d="M1785.7,1216.9c20-16.3,58.4-27.4,102.6-27.4c44.2,0,82.6,11.1,102.6,27.4h14.6v25.7
				c0,29.3-52.5,53-117.2,53c-64.7,0-117.2-23.8-117.2-53v-25.7H1785.7z"/>
			<ellipse class="st9" cx="1888.3" cy="1216.9" rx="117.2" ry="53"/>
			<ellipse class="st2" cx="1888.3" cy="1216" rx="98.4" ry="40.2"/>
			<path class="st8" d="M1888.3,1182.6c-51.5,0-93.8,16.2-98,36.8c-0.2-1.1-0.4-2.3-0.4-3.4c0-22.2,44.1-40.2,98.4-40.2
				s98.4,18,98.4,40.2c0,1.2-0.1,2.3-0.4,3.4C1982.1,1198.8,1939.8,1182.6,1888.3,1182.6z"/>
			<ellipse class="st9" cx="1991.8" cy="942.2" rx="41.9" ry="39.4"/>
			
				<ellipse transform="matrix(0.9252 -0.3794 0.3794 0.9252 -209.5225 826.367)" class="st8" cx="1991.8" cy="944.8" rx="28.2" ry="28.2"/>
			<path class="st2" d="M1842,1422.4c-0.1,0-0.2,0-0.3,0c-6.8-1.2-13.5-2.6-20.1-4.1c-1-0.2-1.7-1.3-1.4-2.3c0.2-1,1.3-1.7,2.3-1.4
				c6.5,1.5,13.2,2.9,19.9,4.1c1,0.2,1.7,1.2,1.5,2.2C1843.7,1421.8,1842.9,1422.4,1842,1422.4z"/>
			<path class="st2" d="M1951.7,1431.7c-29.2,0-59.6-1.7-90-6c-1-0.2-1.8-1.1-1.6-2.2c0.1-1,1.1-1.8,2.2-1.6
				c138.3,19.8,280-15.7,281.5-16c1-0.3,2.1,0.4,2.3,1.4c0.3,1-0.4,2.1-1.4,2.3C2143.6,1409.9,2056.2,1431.7,1951.7,1431.7z"/>
			<path class="st2" d="M1896.3,1015.3c-0.1,0-0.2,0-0.3,0c-1-0.2-1.7-1.2-1.6-2.2l2.1-12.4c0.2-1,1.2-1.8,2.2-1.6
				c1,0.2,1.7,1.2,1.6,2.2l-2.1,12.4C1898,1014.6,1897.2,1015.3,1896.3,1015.3z"/>
			<path class="st2" d="M1901.8,982.4c-0.1,0-0.2,0-0.3,0c-1-0.2-1.7-1.2-1.6-2.2l17.6-104.6c0.6-3.6,3.9-6.1,7.6-5.6l7.2,1
				c1,0.1,1.8,1.1,1.6,2.2c-0.1,1.1-1.1,1.8-2.2,1.6l-7.2-1c-1.6-0.2-3.1,0.9-3.3,2.4l-17.6,104.6
				C1903.5,981.7,1902.7,982.4,1901.8,982.4z"/>
		</g>
		<g>
			<path class="st2" d="M1759.8,593.9c0.1-0.1,79.3-138.6,90-151.7c1.8-2.2,4.6-3.3,7.4-3l22.1,2.6l25.9,56.1l-43.2-25.2
				c4.3,29.6-51.2,73.5-70.3,89.6c-1.9,1.6-2.1,4.5-0.3,6.4l7.6,8c-12.5,12.7-26.9,20.8-43.1,24.5L1759.8,593.9z"/>
			<path class="st8" d="M1794.5,572.5c0,0,4.9,1.6,6.5,5.9c0.8,2.1-0.1,4.4-1.9,5.7c-8,5.7-34.3,24.2-46.5,27.8
				c-1,0.3-1.9-0.6-1.7-1.6c0.6-2.8,2.6-8.5,9.1-16.7l-0.6,1.2c-0.7,1.5,0.9,3,2.3,2.2C1770,592.4,1786.6,582.3,1794.5,572.5z"/>
			<path class="st2" d="M1790.6,627.9c0.1-0.1,12-28.7,12.1-28.8c10.9-66.3,37.4-123,45.3-137.9c1.3-2.5,3.8-4.2,6.6-4.4l22.2-1.9
				l36.8,49.7l-47.4-15.9c10.2,28.1-35.3,82.4-50.7,101.9c-1.6,2-1.1,4.9,1,6.3l9.1,6.3c-9.7,14.9-22.1,25.8-37.3,32.8L1790.6,627.9
				z"/>
			<path class="st8" d="M1820.3,599.9c0,0,5.1,0.6,7.6,4.5c1.2,1.9,0.8,4.3-0.7,6c-6.7,7.2-28.7,30.7-39.9,36.7
				c-0.9,0.5-2-0.2-2-1.2c0-2.9,0.9-8.8,5.6-18.2l-0.3,1.3c-0.4,1.6,1.5,2.8,2.7,1.7C1800.3,624.3,1814.5,611.2,1820.3,599.9z"/>
			<g>
				<g>
					<path class="st8" d="M1980.6,444.4c0,0,20,29.8,21.7,43.4c1.6,13.6-5.5,18.3-26.5,20c-62.4,5.2-93.2-13.6-93.2-13.6
						c-4.3-27.2-7.3-34.2-43-49c0,0,45.1,3.6,54.2,0.1C1902.8,441.9,1980.6,444.4,1980.6,444.4z"/>
				</g>
			</g>
			<g>
				<path class="st3" d="M1900.6,277.4c0,0,14-16.5,28.8,3.7c2.7,3.7,13,0.6,16.8,8.3c2,4,6.2,6.2,10.5,5.4
					c10.8-2,28.5-2.2,37.3,14.8c6.7,13,1.5,20.5-5.1,24.9c-4.9,3.2-6.6,9.6-3.7,14.7c2.8,4.8,3.4,11.4-4,19.2
					c-16.4,17.6-49-11.2-49-11.2l-25.8-61.1L1900.6,277.4z"/>
				<path class="st9" d="M1926.3,440.5c0,0-23.3-22.2-34.8-36.9c-6.2-8-8.2-18.4-5.3-28.1c5.2-17.7,14.6-36,15.4-38.8
					c1.3-4.4,27.5-4.2,27.5-4.2s51.5,33.4,71.7,90.1l-22.7,7.1c0,0-13.4-22.6-26.7-36.9c0,0,23,30.4,23.8,42.8L1926.3,440.5z"/>
				<path class="st2" d="M1881.9,449.3l17.5-19.1l20.3,5.5c0,0,23.6,3.7,37.1,0c13.5-3.7,13.5-3.7,13.5-3.7l30.5-9.5l4.8,13.6
					c1.2,3.4,0,7.3-3,9.4c-2.6,1.9-5.7,3.9-7.7,4.8c-4,1.8-92.7,0.6-92.7,0.6L1881.9,449.3z"/>
				<path class="st2" d="M1911.1,300.9l17.6,32.7c-1.2,7.1-19.1,7.3-21.9,3.1c-0.3-0.4-0.4-0.9-0.6-1.4l-10.5-21.9
					c-0.5-2.1,5.4-9.3,7.3-10.3l7-3.7C1912.7,297.9,1901.5,297.8,1911.1,300.9z"/>
				<g>
					<path class="st2" d="M1875.5,293.3c0,0-2,11.1,6.7,25.1s17.3,13.4,21.7,8.4c4.4-5,9.7-13.4,7.3-27.4
						C1908.8,285.4,1878.5,279.2,1875.5,293.3z"/>
					<path class="st3" d="M1900.7,300.9c0,0-14.1-18.5-24.9-2.4l0.2,5.6c0,0-14-0.7-12.5-13.6c1.5-12.9,13-21.8,28.9-17.4
						c15.9,4.4,25.2,9.5,27,20.5c1.8,11-7.2,9.2-7.2,9.2s-3.4-7.6-7.6-8.1c-4.2-0.5-2.7,5.5-2.7,5.5L1900.7,300.9z"/>
					<path class="st2" d="M1903.9,300.4c0,0-7.3-9.5-0.7-11.4c6.6-2,6.4,9.3,6,13.4L1903.9,300.4z"/>
				</g>
			</g>
			<g>
				<path class="st3" d="M1939.9,456.8c-0.1,0-0.1,0-0.2,0l-80.7-0.1c-2,0-3.6-1.6-3.6-3.6c0-2,1.6-3.6,3.6-3.6l80.7,0.1
					c2,0,3.6,1.6,3.6,3.6C1943.4,455.1,1941.8,456.7,1939.9,456.8z"/>
				<path class="st3" d="M1786.5,383.6h67.2c5,0,9.5,2.9,11.6,7.3l31.1,65.9h-83.5c-3.2,0-6.1-2-7.2-4.9l-24.1-60.9
					C1780.2,387.4,1782.8,383.6,1786.5,383.6z"/>
				<path class="st4" d="M1833.9,417.3c1.5,4.5,0.4,8.9-2.4,9.8c-2.8,0.9-6.2-2-7.7-6.6c-1.5-4.5-0.4-8.9,2.4-9.8
					C1829,409.9,1832.4,412.8,1833.9,417.3z"/>
			</g>
		</g>
		<g>
			<g>
				
					<ellipse transform="matrix(0.1747 -0.9846 0.9846 0.1747 627.1146 1622.3929)" class="st8" cx="1281.3" cy="437.1" rx="198.4" ry="205.9"/>
				
					<ellipse transform="matrix(0.1747 -0.9846 0.9846 0.1747 627.109 1622.39)" class="st9" cx="1281.3" cy="437.1" rx="191.8" ry="199.1"/>
				<path class="st2" d="M1098.2,448.5c-1,0-1.8-0.8-1.9-1.8c-0.5-7.5-0.6-15.2-0.1-22.7c0.1-1.1,1-1.8,2-1.8c1.1,0.1,1.9,1,1.8,2
					c-0.4,7.3-0.4,14.8,0.1,22.2c0.1,1.1-0.7,2-1.8,2C1098.2,448.5,1098.2,448.5,1098.2,448.5z"/>
				<path class="st2" d="M1108.7,376.6c-0.2,0-0.5,0-0.7-0.1c-1-0.4-1.5-1.5-1.1-2.5c24-63.7,82.4-107.8,152.4-115
					c11.2-1.2,22.4-1.3,33.6-0.5c1.1,0.1,1.9,1,1.8,2c-0.1,1.1-1,1.9-2,1.8c-10.9-0.8-22-0.6-32.9,0.5
					c-68.5,7.1-125.7,50.2-149.2,112.6C1110.2,376.1,1109.4,376.6,1108.7,376.6z"/>
				
					<ellipse transform="matrix(0.1747 -0.9846 0.9846 0.1747 627.4297 1630.2008)" class="st2" cx="1286.1" cy="440.8" rx="162.3" ry="168.5"/>
			</g>
			<g>
				<path class="st8" d="M1392.5,374.3h-51.6v-47.1c0-12.3-10.9-22.2-24.3-22.2h-72.3c-13.4,0-24.3,9.9-24.3,22.2v47.1h-51.6
					c-13.4,0-24.3,9.9-24.3,22.2v66c0,12.3,10.9,22.2,24.3,22.2h51.6v47.1c0,12.3,10.9,22.2,24.3,22.2h72.3
					c13.4,0,24.3-9.9,24.3-22.2v-47.1h51.6c13.4,0,24.3-9.9,24.3-22.2v-66C1416.8,384.3,1405.9,374.3,1392.5,374.3z"/>
				<path class="st9" d="M1244.3,540.9c-5.5,0-10-4.1-10-9.1v-60.2h-65.9c-5.5,0-10-4.1-10-9.1v-66c0-5,4.5-9.1,10-9.1h65.9v-60.2
					c0-5,4.5-9.1,10-9.1h72.3c5.5,0,10,4.1,10,9.1v60.2h65.9c5.5,0,10,4.1,10,9.1v66c0,5-4.5,9.1-10,9.1h-65.9v60.2
					c0,5-4.5,9.1-10,9.1H1244.3z"/>
			</g>
		</g>
		<g>
			<g>
				
					<ellipse transform="matrix(0.1125 -0.9936 0.9936 0.1125 786.6315 2199.9998)" class="st8" cx="1624.9" cy="659.6" rx="128.2" ry="128.9"/>
				
					<ellipse transform="matrix(0.1128 -0.9936 0.9936 0.1128 786.2552 2199.7949)" class="st9" cx="1624.9" cy="659.6" rx="123.9" ry="124.6"/>
				<path class="st2" d="M1739.7,668.4c0,0-0.1,0-0.1,0c-1.1-0.1-1.9-1-1.8-2c0.3-4.7,0.3-9.5,0-14.2c-0.1-1.1,0.7-2,1.8-2
					c1,0,2,0.7,2,1.8c0.3,4.9,0.3,9.8,0,14.7C1741.6,667.7,1740.7,668.4,1739.7,668.4z"/>
				<path class="st2" d="M1732.8,622c-0.8,0-1.5-0.5-1.8-1.2c-14.9-40.1-50.7-68-93.4-72.9c-6.8-0.8-13.7-0.9-20.5-0.5
					c-1.1,0-2-0.7-2-1.8c-0.1-1.1,0.7-2,1.8-2c7-0.5,14.1-0.3,21.2,0.5c44.1,5,81.1,33.9,96.6,75.3c0.4,1-0.1,2.1-1.1,2.5
					C1733.3,621.9,1733,622,1732.8,622z"/>
				
					<ellipse transform="matrix(0.1126 -0.9936 0.9936 0.1126 781.5547 2199.0994)" class="st2" cx="1621.9" cy="662" rx="104.9" ry="105.4"/>
			</g>
			<g>
				<path class="st8" d="M1540,603.5c-0.1,2.7,0,5.3,0.2,8c0.2,2.7,0.4,5.3,0.8,8c0.8,5.3,1.8,10.6,3.4,15.7
					c0.8,2.6,1.7,5.1,2.8,7.6c1.1,2.5,2.3,5,3.7,7.3c2.8,4.7,6.3,9.2,10.6,12.9l0.8,0.7l0.9,0.6c0.6,0.4,1.1,0.9,1.7,1.3
					c1.2,0.8,2.5,1.6,3.8,2.2l1,0.5l0.5,0.2l0.5,0.2l2,0.8c0.7,0.3,1.4,0.4,2.1,0.7c0.7,0.2,1.4,0.4,2.1,0.6
					c5.6,1.4,11.2,1.8,16.7,1.6c5.5-0.2,11-0.8,16.3-1.6c5.4-0.9,10.6-2,15.8-3.1c10.4-2.3,20.7-5.1,30.8-7c2.5-0.5,5-0.9,7.5-1.1
					l1.8-0.2l1.8-0.1c0.6-0.1,1.2-0.1,1.8-0.1c0.6,0,1.2-0.1,1.9,0c4.9,0,9.7,0.5,14.2,1.8c2.2,0.7,4.3,1.5,6.3,2.6
					c2,1.1,3.8,2.3,5.5,3.8c3.4,2.9,6.2,6.7,8.6,11c1.2,2.1,2.3,4.4,3.2,6.7l0.7,1.8c0.2,0.6,0.5,1.2,0.7,1.8l0.7,1.8
					c0.2,0.6,0.4,1.2,0.6,1.8c0.4,1.2,0.8,2.5,1.2,3.7c0.4,1.2,0.8,2.5,1.2,3.8l1.1,3.8c0.4,1.3,0.7,2.6,1.2,3.8l0,0
					c0,0.1,0.2,0.2,0.3,0.2c0.1,0,0.2-0.1,0.2-0.2c0.2-1.3,0.3-2.7,0.4-4.1c0.1-1.3,0.1-2.7,0.1-4.1c0-2.7-0.1-5.4-0.4-8.2
					c-0.2-2.7-0.7-5.4-1.3-8.2c-0.7-2.7-1.4-5.4-2.5-8.1c-1-2.7-2.3-5.2-3.9-7.7c-0.4-0.6-0.8-1.2-1.2-1.8l-1.4-1.8
					c-0.9-1.1-1.9-2.3-3-3.3c-4.3-4.2-9.8-7.2-15.5-8.9c-5.7-1.6-11.5-2.2-17.1-2.1c-0.7,0-1.4,0-2.1,0.1c-0.7,0-1.4,0-2.1,0.1
					l-2.1,0.2l-2.1,0.2c-2.8,0.4-5.5,0.8-8.2,1.4c-5.4,1.1-10.6,2.4-15.7,3.7l-15.3,4c-5.1,1.3-10.2,2.5-15.2,3.5
					c-5.1,1-10.1,1.8-15.2,2.1c-5,0.4-10,0.3-14.8-0.6c-0.6-0.1-1.2-0.3-1.8-0.4c-0.6-0.2-1.2-0.3-1.7-0.4l-1.7-0.6l-0.4-0.1
					l-0.4-0.2l-0.8-0.3c-1.1-0.4-2.1-1-3.2-1.6c-0.5-0.3-1-0.6-1.5-1l-0.8-0.5l-0.7-0.5c-2-1.4-3.8-3.1-5.5-4.9
					c-1.7-1.8-3.2-3.8-4.7-5.8c-1.4-2.1-2.7-4.3-3.9-6.5c-1.2-2.3-2.3-4.6-3.2-7c-1-2.4-1.8-4.8-2.7-7.3c-0.8-2.5-1.5-5-2.1-7.5
					c-1.2-5.1-2.2-10.3-2.8-15.5l0,0c0-0.1-0.1-0.3-0.3-0.2C1540.1,603.3,1540,603.4,1540,603.5z"/>
				<path class="st8" d="M1610.7,667.2c0,0,0.1-0.1,0.1-0.1l15.3-25.3c0.4-0.6,0.2-1.5-0.5-1.9c-0.6-0.4-1.5-0.2-1.9,0.5l-15.3,25.3
					c-0.4,0.6-0.2,1.5,0.5,1.9C1609.5,667.9,1610.3,667.8,1610.7,667.2z"/>
				<path class="st8" d="M1593.8,669.2C1593.8,669.2,1593.9,669.2,1593.8,669.2L1621,627c0.4-0.6,0.2-1.5-0.4-1.9
					c-0.6-0.4-1.5-0.2-1.9,0.4l-27.1,42.1c-0.4,0.6-0.2,1.5,0.4,1.9C1592.6,669.9,1593.4,669.8,1593.8,669.2z"/>
				<path class="st8" d="M1618.5,611c0.5-0.6,0.4-1.5-0.2-1.9c-0.6-0.4-1.5-0.3-1.9,0.3l-42.2,55.7l0,0c-0.5,0.6-0.4,1.5,0.2,1.9
					c0.6,0.4,1.5,0.3,1.9-0.3L1618.5,611C1618.5,611,1618.5,611,1618.5,611z"/>
				<path class="st8" d="M1611.9,600c0.4-0.6,0.3-1.4-0.2-1.9c-0.6-0.5-1.4-0.4-1.9,0.2l-47.8,61c-0.5,0.6-0.4,1.4,0.2,1.9
					c0.6,0.5,1.4,0.4,1.9-0.2L1611.9,600C1611.9,600,1611.9,600,1611.9,600z"/>
				<path class="st8" d="M1556,652.3C1556,652.2,1556,652.2,1556,652.3l44.8-62.2c0.4-0.6,0.3-1.5-0.3-1.9c-0.6-0.4-1.5-0.3-1.9,0.3
					l-44.8,62.1c-0.4,0.6-0.3,1.5,0.3,1.9C1554.7,653,1555.6,652.8,1556,652.3z"/>
				<path class="st8" d="M1549,639.4C1549,639.4,1549,639.4,1549,639.4l38.5-54.5c0.4-0.6,0.3-1.5-0.3-1.9c-0.6-0.4-1.4-0.3-1.9,0.3
					l-38.5,54.4c-0.4,0.6-0.3,1.5,0.3,1.9C1547.7,640.1,1548.5,640,1549,639.4z"/>
				<path class="st8" d="M1545.6,625.4C1545.6,625.4,1545.6,625.4,1545.6,625.4l26.8-41.6c0.4-0.6,0.2-1.4-0.4-1.8
					c-0.6-0.4-1.5-0.2-1.8,0.4l-26.8,41.5c-0.4,0.6-0.2,1.4,0.4,1.8C1544.4,626.1,1545.2,626,1545.6,625.4z"/>
				<path class="st8" d="M1669.1,655.2c0.4-0.5,0.4-1.3-0.1-1.8c-0.5-0.5-1.4-0.6-1.9,0l-36.5,35.1c-0.5,0.5-0.6,1.4-0.1,1.9
					c0.5,0.5,1.4,0.6,1.9,0l36.5-35.1C1669.1,655.3,1669.1,655.3,1669.1,655.2z"/>
				<path class="st8" d="M1681,655.3c0.4-0.6,0.3-1.4-0.2-1.8c-0.6-0.5-1.4-0.4-1.9,0.2l-43.1,51.2c-0.5,0.6-0.4,1.4,0.2,1.9
					c0.6,0.5,1.4,0.4,1.9-0.2L1681,655.3C1680.9,655.4,1680.9,655.4,1681,655.3z"/>
				<path class="st8" d="M1693.1,658.7c0.4-0.6,0.3-1.4-0.2-1.9c-0.6-0.5-1.4-0.4-1.9,0.2l-49.5,63.1c-0.5,0.6-0.4,1.4,0.2,1.9
					c0.6,0.5,1.4,0.4,1.9-0.2L1693.1,658.7C1693.1,658.7,1693.1,658.7,1693.1,658.7z"/>
				<path class="st8" d="M1652.9,733.5c-0.6-0.4-0.7-1.3-0.3-1.9c13-18,46.8-64.7,48.4-67.2c0.1-0.1,0.2-0.3,0.3-0.4
					c0.5-0.5,1.4-0.5,1.9,0c0.8,0.8,0.3,1.6-0.4,2.5c-0.3,0.5-0.9,1.2-1.5,2.2c-1.3,1.9-3.2,4.5-5.5,7.7c-4,5.6-9.6,13.4-16.7,23.2
					c-12.1,16.8-24.3,33.6-24.3,33.6c0,0,0,0,0,0C1654.3,733.8,1653.5,734,1652.9,733.5z M1701.2,666c-0.1-0.1-0.2-0.2-0.2-0.3
					C1701.1,665.8,1701.1,665.9,1701.2,666z M1700.8,665c0-0.1,0-0.3,0.1-0.4C1700.9,664.7,1700.8,664.8,1700.8,665z"/>
				<path class="st8" d="M1670.4,738.5c0,0,0.1-0.1,0.1-0.1l39.4-64.9c0.4-0.6,0.2-1.5-0.4-1.9c-0.6-0.4-1.5-0.2-1.9,0.5l-39.4,64.9
					c-0.4,0.6-0.2,1.5,0.4,1.9C1669.2,739.3,1670,739.1,1670.4,738.5z"/>
				<path class="st8" d="M1690.8,741c0.1-0.1,0.1-0.2,0.2-0.3l24-52.4c0.3-0.7,0-1.5-0.7-1.8c-0.7-0.3-1.5,0-1.8,0.7l-24,52.4
					c-0.3,0.7,0,1.5,0.7,1.8C1689.8,741.7,1690.5,741.5,1690.8,741z"/>
				<path class="st8" d="M1549.8,588.1c5.4-1.3,10.8-2.1,16.1-2.4c5.4-0.3,10.7-0.1,15.8,0.8c2.6,0.4,5.1,1.1,7.5,1.9
					c2.4,0.8,4.7,1.8,6.9,3.1c2.2,1.2,4.2,2.7,6.1,4.3c1.9,1.6,3.7,3.4,5.2,5.4c3.2,3.9,5.7,8.4,7.7,13.2c0.5,1.2,0.9,2.4,1.4,3.7
					c0.4,1.3,0.8,2.5,1.2,3.8c0.7,2.5,1.3,5.1,1.8,7.7c0.2,1.3,0.5,2.6,0.7,3.9l0.3,2l0.3,2l1.1,8.2l2.2,16.4
					c1.5,10.9,3,21.9,5.6,32.8c1.3,5.4,2.8,10.9,4.9,16.2c2.1,5.3,4.9,10.4,8.5,14.9c3.7,4.5,8.3,8.2,13.5,10.7
					c5.2,2.5,10.7,4,16.2,4.8c5.5,0.8,11.1,0.9,16.7,0.7c2.8-0.1,5.5-0.3,8.3-0.6c2.8-0.3,5.5-0.6,8.2-1c0.1,0,0.3-0.2,0.2-0.3
					c0-0.1-0.1-0.2-0.3-0.2c-5.5,0.3-11,0.4-16.4,0.2c-2.7-0.1-5.4-0.3-8.1-0.6c-2.7-0.3-5.4-0.7-8-1.2c-5.3-1.1-10.4-2.7-14.9-5.3
					c-4.6-2.5-8.5-6-11.6-10.1c-3.1-4.2-5.4-8.9-7.2-13.9c-1.8-5-3.1-10.2-4.2-15.5c-1.1-5.3-1.9-10.7-2.6-16.1
					c-0.7-5.4-1.4-10.9-2-16.3l-1.9-16.4c-0.3-2.7-0.6-5.5-1-8.2l-0.3-2.1l-0.3-2.1c-0.2-1.4-0.4-2.8-0.7-4.2
					c-0.5-2.8-1.1-5.6-1.9-8.4c-0.4-1.4-0.8-2.8-1.2-4.1c-0.5-1.4-0.9-2.7-1.5-4.1c-2.1-5.4-5-10.6-8.7-15.2c-1.9-2.3-4-4.4-6.3-6.3
					c-2.3-1.9-4.8-3.5-7.5-4.9c-5.3-2.7-11.1-4.2-16.9-4.6c-5.8-0.5-11.6,0.1-17.1,1.3c-2.8,0.6-5.5,1.4-8.1,2.3
					c-2.6,1-5.2,2-7.7,3.4c-0.1,0.1-0.2,0.2-0.1,0.4C1549.6,588,1549.7,588.1,1549.8,588.1L1549.8,588.1z"/>
			</g>
		</g>
		<g>
			<g>
				
					<ellipse transform="matrix(0.1126 -0.9936 0.9936 0.1126 277.1213 2033.4663)" class="st8" cx="1277.1" cy="861.6" rx="145.3" ry="137.2"/>
				
					<ellipse transform="matrix(0.1126 -0.9936 0.9936 0.1126 277.129 2033.4729)" class="st9" cx="1277.1" cy="861.6" rx="140.4" ry="132.6"/>
				<path class="st2" d="M1399.3,870.4c0,0-0.1,0-0.1,0c-1.1-0.1-1.9-1-1.8-2c0.3-5.4,0.4-10.8,0.1-16.2c-0.1-1.1,0.7-2,1.8-2
					c1.1-0.1,2,0.7,2,1.8c0.3,5.5,0.3,11.1-0.1,16.6C1401.2,869.6,1400.3,870.4,1399.3,870.4z"/>
				<path class="st2" d="M1392.3,817.8c-0.8,0-1.5-0.5-1.8-1.3c-15.6-45.4-53.6-76.7-99-81.9c-7.2-0.8-14.6-1-21.8-0.4
					c-1.1,0.1-2-0.7-2.1-1.8c-0.1-1.1,0.7-2,1.8-2.1c7.5-0.6,15.1-0.4,22.5,0.4c46.9,5.3,86.1,37.7,102.2,84.4
					c0.3,1-0.2,2.1-1.2,2.4C1392.7,817.8,1392.5,817.8,1392.3,817.8z"/>
				
					<ellipse transform="matrix(0.1126 -0.9936 0.9936 0.1126 271.5603 2032.6718)" class="st2" cx="1273.8" cy="864.3" rx="118.9" ry="112.2"/>
			</g>
			<g>
				<path class="st8" d="M1314.9,801.4c-14.5,0-27.4,7.6-35.7,19.4c-8.4-11.8-21.2-19.4-35.7-19.4c-25.2,0-45.6,23-45.6,51.3
					c0,25.3,43.7,71.7,72.1,89.9c5.6,3.6,12.8,3.3,18-0.8c24.4-18.7,72.6-64.2,72.6-89.1C1360.5,824.4,1340.1,801.4,1314.9,801.4z"
					/>
				<path class="st9" d="M1282.2,896.8c-0.1,0-0.1,0-0.2,0c-1.8-0.1-3.5-1.2-4.2-2.8l-21.2-46.7l-20.5,22.5c-0.9,1-2.2,1.6-3.6,1.6
					h-52.2c-2.7,0-4.9-2.2-4.9-4.9c0-2.7,2.2-4.9,4.9-4.9h50.1l24.1-26.3c1.1-1.2,2.7-1.8,4.3-1.5c1.6,0.3,3,1.3,3.7,2.8l20.3,44.6
					l20.8-37.7c0.9-1.6,2.7-2.6,4.5-2.5c1.9,0.1,3.5,1.2,4.2,3l8.5,20.1h45.3c2.7,0,4.9,2.2,4.9,4.9c0,2.7-2.2,4.9-4.9,4.9h-48.6
					c-2,0-3.7-1.2-4.5-3l-5.8-13.8l-20.7,37.4C1285.6,895.8,1283.9,896.8,1282.2,896.8z"/>
			</g>
		</g>
		<g>
			<g>
				
					<ellipse transform="matrix(0.1126 -0.9936 0.9936 0.1126 142.4539 1464.1246)" class="st8" cx="891" cy="652.3" rx="128.3" ry="121.1"/>
				
					<ellipse transform="matrix(0.1126 -0.9936 0.9936 0.1126 142.4701 1464.1396)" class="st9" cx="891" cy="652.3" rx="124" ry="117.1"/>
				<path class="st2" d="M998.9,660.3c0,0-0.1,0-0.1,0c-1.1-0.1-1.9-1-1.8-2c0.3-4.7,0.3-9.5,0.1-14.2c-0.1-1.1,0.7-2,1.8-2
					c1,0,2,0.7,2,1.8c0.3,4.9,0.3,9.8-0.1,14.7C1000.8,659.6,999.9,660.3,998.9,660.3z"/>
				<path class="st2" d="M992.7,613.9c-0.8,0-1.5-0.5-1.8-1.3c-13.8-40-47.2-67.6-87.3-72.2c-6.4-0.7-12.9-0.8-19.2-0.3
					c-1.1,0.1-2-0.7-2.1-1.8c-0.1-1.1,0.7-2,1.8-2.1c6.6-0.5,13.3-0.4,20,0.4c41.5,4.7,76.2,33.3,90.5,74.7c0.3,1-0.2,2.1-1.2,2.4
					C993.1,613.9,992.9,613.9,992.7,613.9z"/>
				
					<ellipse transform="matrix(0.1126 -0.9936 0.9936 0.1126 137.5564 1463.4348)" class="st2" cx="888.1" cy="654.7" rx="105" ry="99.1"/>
			</g>
			<g>
				<path class="st9" d="M873.5,597.9l0.1-34.1h31.1l-0.1,32.1c0,17.2,5.5,33.9,15.8,47.7l40.9,55.1c2.1,2.9,3.3,6.4,3.3,10v0
					c0,9.2-7.5,16.7-16.7,16.7H829.9c-9.2,0-16.7-7.5-16.7-16.7l0,0c0-3.6,1.2-7.1,3.3-10l42.4-56.8
					C868.3,629.2,873.5,613.8,873.5,597.9z"/>
				<path class="st2" d="M947.7,721.3c6.9,0,12.5-5.6,12.5-12.5c0-2.7-0.9-5.3-2.5-7.5l-40.9-55.1c-10.7-14.4-16.6-32.2-16.6-50.2
					l0-27.9h-22.7l-0.1,29.9c0,16.6-5.5,33.1-15.4,46.5l-42.4,56.8c-1.6,2.2-2.5,4.8-2.5,7.5c0,6.9,5.6,12.5,12.5,12.5H947.7z"/>
				<path class="st9" d="M872.6,570h32.9c2.7,0,4.8-2.2,4.8-4.8l0,0c0-2.6-2-4.7-4.5-4.8l-32.9-1.8c-2.8-0.1-5.1,2-5.1,4.8v1.8
					C867.8,567.8,869.9,570,872.6,570z"/>
				<path class="st8" d="M957.8,701.2c1.6,2.1,2.5,4.8,2.5,7.5c0,6.9-5.6,12.5-12.5,12.5H829.9c-6.9,0-12.5-5.6-12.5-12.5
					c0-2.7,0.9-5.3,2.5-7.5l18.9-25.4H939L957.8,701.2z"/>
			</g>
		</g>
		<g>
			<g>
				<g>
					<path class="st9" d="M485.6,1474.7c-11,0.9-30,2.5-45.1,3.2c-9,0.4-14.2-0.5-17.2-1.7c0,0.3,0,0.7,0,1c0.1,1.6,1.4,2.8,3,2.9
						c28.4,1.6,51,0.5,59,0.1c1.7-0.1,2.7-1.9,1.8-3.3C486.7,1476,486.2,1475.3,485.6,1474.7z"/>
					<path class="st8" d="M440.6,1477.8c15-0.7,34.1-2.2,45.1-3.2c-10.8-13.2-45.1-22.2-45.1-22.2h-9.7c-6.7,9.6-7.6,18.7-7.5,23.6
						C426.3,1477.3,431.5,1478.2,440.6,1477.8z"/>
					<path class="st2" d="M429.3,1436.7l0.9,17.9c0.1,1.9,1.6,3.6,3.5,3.9c1.9,0.3,4.5,0.3,7.3-0.6c1.7-0.6,2.9-2,3.3-3.7l3.1-17.5
						H429.3z"/>
				</g>
				<g>
					<g>
						<path class="st9" d="M303.5,1477.7c-4.8-0.7-6.9-3.1-7.8-5.8c0,0,0,0,0,0.1c-0.7,2.8,0.9,5.7,4.2,7.1
							c3.9,1.7,8.2,1.9,11.5,1.8c3.6-0.1,6.9-1.6,8.7-4l0,0C316.5,1478.6,311.5,1478.8,303.5,1477.7z"/>
						<path class="st8" d="M326,1436.6h-8c-12.2-0.2-19.8,25.4-22.3,35.3c0.9,2.6,3.1,5.1,7.8,5.8c7.9,1.1,13,0.9,16.6-0.9
							c6.6-8.6,9.8-21.3,11.4-28.7C333.3,1439.7,326,1436.6,326,1436.6z"/>
					</g>
					<path class="st2" d="M319,1419.9l-4.4,17.6c-0.5,2.2,0.5,4.4,2.5,5.4c2.5,1.3,6,2.6,9.2,2.2c1.5-0.2,2.8-1.2,3.3-2.7l6.5-18.5
						L319,1419.9z"/>
				</g>
				<path class="st9" d="M313.7,1425c5.5,4.9,23.5,5.5,23.5,5.5c64.6-155.1,91.1-177.1,91.1-177.1c-9.3,58.5-1.5,188.1-1.5,188.1
					c10.7,4.7,24.4,0,24.4,0c0.9-95.8,15.6-179.4,33-245.3c-43.7-1-66.9-15.9-74.5-21.9C373.3,1233,313.7,1425,313.7,1425z"/>
				<path class="st8" d="M420.8,996c-8.3,41.2-5.3,115-3.4,148.7c0.5,9.5-25.3,39.3-45,98.6c-0.5,1.6-0.3,3.2,1.1,3.9
					c8.9,4.6,60.2,8.3,95.3,10.1c2.3,0.1,4.6-1.4,5-3.7c19-99.6,66.4-216.8,68.9-215.9C509.4,984.4,420.8,996,420.8,996z"/>
				<g>
					<path class="st2" d="M368.9,1114.3c2.7,19.2,10.5,40.2,26.2,62.4l6-4.9c0,0-6.9-27.9-3-59.7
						C388.4,1110.3,377,1112.3,368.9,1114.3z"/>
					<path class="st8" d="M430,1046.9l-9.2-50.9c0,0-61.7,47.2-51.9,118.3c8.1-2,19.5-4,29.2-2.1
						C400.9,1089.4,409.3,1064.6,430,1046.9z"/>
				</g>
				<g>
					<path class="st8" d="M542.8,1037.7c-11.4,8.7-18.1,28.8-23.8,51.3c3.9,31,20.5,44.3,38.4,49.5c1.1-14.1,4.7-25.5,8-33.4
						C542.4,1081.4,542.8,1037.7,542.8,1037.7z"/>
					<path class="st2" d="M565.4,1105.1c-3.3,7.9-6.9,19.3-8,33.4c47.8,18.6,60.5-17.4,60.5-17.4l-8.8-1.6
						C589.1,1121.6,575.1,1115.1,565.4,1105.1z"/>
				</g>
				<path class="st2" d="M520.8,974.4l-11.5,42.3c-1.3,4.7-6.4,7.3-11,5.5c-4.9-2-11.2-4.7-16.6-7.6c-5.7-3.1-7.5-10.5-3.9-15.9
					l23.9-35.6L520.8,974.4z"/>
			</g>
			<path class="st3" d="M639.8,1092.8L345.2,1200c-12.4,4.5-18.3,18.6-12.8,30.5l0.9,2c4.8,10.6,17.3,15.2,27.9,10.3l286-132.3
				L639.8,1092.8z"/>
			<ellipse class="st10" cx="775.2" cy="1028.3" rx="145.4" ry="142.8"/>
			<path class="st3" d="M775.2,869.4c-89.4,0-161.8,71.1-161.8,158.9c0,87.8,72.4,158.9,161.8,158.9c89.4,0,161.8-71.1,161.8-158.9
				C937,940.5,864.6,869.4,775.2,869.4z M775.2,1163.8c-76.2,0-138-60.7-138-135.6c0-74.9,61.8-135.6,138-135.6
				c76.2,0,138,60.7,138,135.6C913.2,1103.1,851.4,1163.8,775.2,1163.8z"/>
			<path class="st2" d="M625.7,1047.8c-0.5,0-0.9-0.4-0.9-0.8c-0.5-3.8-0.8-7.6-1-11.4c0-0.5,0.4-1,0.9-1c0.5-0.1,1,0.4,1,0.9
				c0.2,3.7,0.5,7.5,1,11.2c0.1,0.5-0.3,1-0.8,1.1C625.8,1047.8,625.7,1047.8,625.7,1047.8z M626.8,1003.4c-0.1,0-0.1,0-0.2,0
				c-0.5-0.1-0.9-0.6-0.8-1.1c1.8-10.2,4.8-20.2,8.7-29.8c0,0,0,0,0,0c23.3-56.5,78.5-93.1,140.6-93.1c29,0,57.1,8,81.4,23.3
				c0.4,0.3,0.6,0.9,0.3,1.3c-0.3,0.4-0.9,0.6-1.3,0.3c-24-15-51.8-23-80.4-23c-61.3,0-115.8,36.1-138.8,91.9c0,0,0,0,0,0
				c-3.9,9.5-6.8,19.4-8.6,29.5C627.7,1003.1,627.3,1003.4,626.8,1003.4z"/>
			<g>
				<path class="st2" d="M546,942.3c0.1,0.7-9.6,48.2-9.6,48.2l-27-6.1l2.5-46.4C511.9,938,544.2,930.1,546,942.3z"/>
				<path class="st3" d="M517.9,948.4l-3.2,24.3c0,0.3,0,0.6,0,0.9c0.3,1.9,1.7,8.4,8.2,6.5c5.9-1.7,11.4-3.1,15.2-2
					c1.7,0.5,2.7,2.2,2.4,4c-0.9,4.3-3,14-6.2,22.1c-0.6,1.6-2.4,2.5-4.1,2c-5.1-1.5-15.8-4.9-23.8-9.7c-1.1-0.6-1.7-1.8-1.7-3.1
					c0.3-6.1,1-24.8,0.4-30c-0.6-4.9-6.6-7.9-9.2-8.9c-0.9-0.3-1.5-1-1.9-1.9c-1.2-3-2.9-10.1,6-12.9c1.9-0.6,2.8-2.6,2.2-4.4
					c-1.3-3.7-1.9-9.2,5-12.3c7-3.1,12.2,0.6,15,3.6c1.1,1.2,3,1.4,4.4,0.5c0.8-0.5,1.8-0.7,3.1,0.1c1.7,1,3.9,0.3,4.8-1.4
					c1.7-3.4,5.1-7.1,11.9-5.9c12.1,2.1,13.5,15.5,10.3,23.3c-3.2,7.9-16.2,4.9-22.7,0.9c-5-3-11.4,0.1-14.2,1.8
					C518.7,946.4,518.1,947.3,517.9,948.4z"/>
				<path class="st2" d="M503.9,972.3c0,0,5-13.9-0.1-17.3c-5.1-3.4-12.7-1.6-11,8.5C494.8,976,503.9,972.3,503.9,972.3z"/>
			</g>
			<path class="st2" d="M398.6,1171l27.8-2.3l12.1,11.1c0,0-2.9,3.9-11.8,1.7c-8.9-2.3-21.1-2.8-21.1-2.8s-12.3,5.6-12.5-4.8
				L398.6,1171z"/>
			<path class="st2" d="M614.3,1127.6c2.4,1.9,10.7-2,15.7-4.8c2.5-1.3,3.7-4.2,2.8-6.9c-1.2-3.8-3.2-8.8-5.7-9.4
				C623,1105.6,604.4,1119.9,614.3,1127.6z"/>
			<path class="st11" d="M351,1238.6c-0.1,0-0.2,0-0.3-0.1c-11.4-4-14.1-10.7-14.3-15.7c-0.3-7.3,4.2-14,11.3-16.8l35.4-13.8
				c0.5-0.2,1,0.1,1.2,0.5s-0.1,1-0.5,1.2l-35.4,13.8c-6.3,2.5-10.4,8.5-10.1,14.9c0.3,6.4,4.7,11,13,13.9c0.5,0.2,0.8,0.7,0.6,1.2
				C351.8,1238.3,351.4,1238.6,351,1238.6z"/>
			<path class="st11" d="M394.4,1189.9c-0.4,0-0.7-0.2-0.9-0.6c-0.2-0.5,0.1-1,0.5-1.2l4.6-1.8c0.5-0.2,1,0.1,1.2,0.5
				c0.2,0.5-0.1,1-0.5,1.2l-4.6,1.8C394.6,1189.9,394.5,1189.9,394.4,1189.9z"/>
		</g>
		<g>
			<path class="st3" d="M1554.7,1448.9c0,0,2.1,12.1,3.2,24.1c0.4,4.7-3.2,8.7-7.9,8.9c-16,0.7-50.1,2-62.3,1.4
				c-1.8-0.1-3-2-2.4-3.7l0,0c0.6-1.4,1.7-2.6,3.1-3.2l56.4-25.9L1554.7,1448.9z"/>
			<path class="st2" d="M1556.4,1441.8l-1.7,14.5c0,0-9.9,4.6-16.6-0.6l4.1-16.1L1556.4,1441.8z"/>
			<path class="st8" d="M1555.1,1169.6c0.7,3.8,4,188.7-15.8,271.5c-0.3,1.4,0.4,2.7,1.6,3.3c3,1.2,9,3,16.1,3.3
				c2.2,0.1,4.2-1.4,4.8-3.5c5.6-19.2,32.7-115.5,36.3-207.6c3.9-102.8,0-3.5,0-3.5l-2.3-63.6L1555.1,1169.6z"/>
			<path class="st3" d="M1619.5,1455.2c0,0,3.4,6.1,6.7,22.3c0.6,2.9-1.5,5.7-4.4,6c-5.3,0.5-13.4,1.2-19.9,1.1c-3,0-5.3-2.6-5-5.6
				c0.7-5.9,3-15.7,9.9-23.2L1619.5,1455.2z"/>
			<path class="st2" d="M1622.5,1436.6l-4,21.9c0,0-4,3-11.8,0.8l1.9-23.6L1622.5,1436.6z"/>
			<path class="st8" d="M1633.3,1175.2c16.2,97.6-3.5,241.1-10.1,269.2c-0.4,1.7-1.8,3-3.5,3.3c-3,0.5-7.8,0.9-12.6-0.5
				c-1.7-0.5-2.8-2-2.9-3.7c-0.9-22.7,0.7-162.2-14.3-217.3c-0.8-2.8-2.5-5.2-4.8-6.9l-29.2-20.8l-2.2-33.6L1633.3,1175.2z"/>
			<g>
				<path class="st1" d="M1530.3,990.4c48.4-0.8,101.9,12.7,101.9,12.7c14.4,84.3,2.5,181.4,2.5,181.4c-37.5,9.8-79.8-6-79.8-6
					c-6.2-35.2-35.3-134.3-35.3-134.3c-23.7-2.9-43.2-9.8-59.2-18.8c12.2-14.2,18-32.3,20.5-42.9
					C1498.1,987.8,1515.4,990.7,1530.3,990.4z"/>
				<path class="st2" d="M1387.3,919.1c4.8-5.7,10.8-3,10.8-3c7.1,30.1,44.5,54.5,82.9,66.5c-2.5,10.7-8.3,28.7-20.5,42.9
					C1396.7,989.6,1387.3,919.1,1387.3,919.1z"/>
			</g>
			<g>
				<path class="st2" d="M1388.4,920.5c-0.5,1.6,5.3,4,8.7-2.5c0.1-3.1,2-16.4,0.2-18.9c-9.9-13.5-29-30.3-29-30.3
					c-3.2,3.2-0.6,6.3-0.6,6.3l9.3,9.7c-1.9,3.5-4.3,6.5-5.4,10.7c-0.8,3.2-0.3,6.7,1.3,9.6c1.6,2.9,3.9,6.8,6,9.7
					C1382.7,920.5,1388.4,920.5,1388.4,920.5z"/>
				<path class="st2" d="M1381,891.1l8.5,7.2l2.7,7.1l-7.5,8.4c0,0-2.5-14.2-4.4-17.2C1378.3,893.4,1379.2,892,1381,891.1z"/>
			</g>
			<path class="st1" d="M1613.7,1050l18.6-46.9c0,0,45.2,30.7,52.7,69.7c-8.5,0.6-24.1,2.9-39.3,10.5
				C1642.2,1065,1613.7,1050,1613.7,1050z"/>
			<path class="st2" d="M1574.1,1094.2c0,0,50.8,28.7,67.9,4.2c3.6-5.1,4.4-10.1,3.5-15c15.2-7.7,30.8-9.9,39.3-10.5
				c2.2,11.8,1.1,24.2-5.8,36.9c-30,54.9-111.7-3-111.7-3L1574.1,1094.2z"/>
			<g>
				<path class="st9" d="M1580.2,1130.5l-27.7-96.8c-0.3-1.1-1.3-1.9-2.4-2c-5-0.6-19.6-2.2-36.4-3.7c-20.2-1.7-43.8-3.1-57.8-1.9
					c-2,0.2-3.2,2.3-2.3,4.1c8,16.2,40.8,81.9,57.3,103.4c0.5,0.7,1.4,1.1,2.3,1.1l64.3-0.6
					C1579.4,1134.1,1580.7,1132.3,1580.2,1130.5z"/>
				<path class="st11" d="M1510.8,1019.6l-20.1-3.3c-1.1-0.2-1.9,0.8-1.6,1.9l2,6c0.2,0.5,0.6,0.9,1.2,1l19.3,2.6
					c1,0.1,1.8-0.8,1.6-1.8l-1.2-5.3C1511.9,1020.1,1511.4,1019.7,1510.8,1019.6z"/>
				<path class="st3" d="M1525.9,1036.6l-1.7-8.6c-0.2-0.9-0.9-1.5-1.8-1.6l-40.6-4.1c-1.4-0.1-2.5,1.1-2.1,2.4l2.6,10.7
					c0.2,0.9,1,1.5,1.8,1.5l39.7,2C1525.1,1039,1526.1,1037.9,1525.9,1036.6z"/>
				<path class="st2" d="M1573.5,1107.1c0,0,3.9-15.9,2.3-21.5c-1.6-5.6-4.6-12.9-14.6-11.3c-10.1,1.6-21.9,5.8-21.9,5.8
					s0.6,7.3,8.2,5l-4.7,3.7c0,0,0.7,5.9,7.1,2.7l-4.4,4.9c0,0,2.8,4.8,7.5,1.7C1557.8,1095,1560,1109,1573.5,1107.1z"/>
			</g>
			<path class="st2" d="M1579.4,951.1l15.4,44.6c0.3,0.7,0,1.6-0.7,1.9c-4.2,2.3-19.3,9-37.6-2.5c-1.9-1.2-3.2-3.2-3.5-5.4l-5-38.6
				H1579.4z"/>
			<g>
				<path class="st2" d="M1545.9,909.8c0,0-16.9,31.9-14.8,44.7c2.2,12.9,23.1,11.9,41.5,1.5l12.8-34.4L1545.9,909.8z"/>
				<path class="st8" d="M1571.8,939.1c-0.7-0.3-1-1.2-0.6-1.9c1.4-2.1,3.9-6.3,4.7-10c0,0,3-1.9-7.7-4.5
					c-10.8-2.6-26.9-6.6-30.3-15.8c-3.3-9,5.4-31.5,19.2-13.5c0.5,0.7,1.6,0.7,2.1,0c2.3-2.9,8.2-9.1,16.5-5.4
					c7.7,3.5,8.6,9.1,8.5,12c0,0.8,0.7,1.5,1.5,1.3c3.9-0.7,13.3-1.4,17.7,8.2c3.6,7.9,1.3,12.4-0.9,14.6c-0.7,0.7-0.4,1.9,0.6,2.2
					c2.6,0.8,5.9,3,5.6,9c-0.5,8.3-9.8,7.6-12.4,7.2c-0.4-0.1-0.9,0.1-1.2,0.4c-2.3,2.5-12.5,13.2-23.6,14.5c-1,0.1-1.7-0.8-1.4-1.8
					l4.8-13.9c0.2-0.6-0.1-1.4-0.7-1.6L1571.8,939.1z"/>
				<path class="st2" d="M1569.8,941.1c0,0,12.1-8.3,12.9-1.3c0.9,7-10.9,10.1-16.7,7.5L1569.8,941.1z"/>
			</g>
		</g>
	</g>
</g>
</svg>
