<?xml version="1.0" encoding="utf-8"?>
<!-- Generator: Adobe Illustrator 26.0.2, SVG Export Plug-In . SVG Version: 6.00 Build 0)  -->
<svg version="1.1" id="レイヤー_1" xmlns="http://www.w3.org/2000/svg" xmlns:xlink="http://www.w3.org/1999/xlink" x="0px"
	 y="0px" viewBox="0 0 2475 1650" style="enable-background:new 0 0 2475 1650;" xml:space="preserve">
<style type="text/css">
	.st0{opacity:0.5;fill:#EBEFF2;enable-background:new    ;}
	.st1{opacity:0.2;fill:#FFFFFF;enable-background:new    ;}
	.st2{fill:#7B8FDD;}
	.st3{clip-path:url(#SVGID_00000132798355725163286180000017674464361455608251_);}
	.st4{fill:#FCFDFE;}
	.st5{fill:#C88BC4;}
	.st6{clip-path:url(#SVGID_00000001643762149891621780000001119049483591076280_);}
	.st7{opacity:0.3;fill:#D1AAD7;enable-background:new    ;}
	.st8{opacity:0.5;fill:#D1AAD7;enable-background:new    ;}
	.st9{fill:#D1AAD7;}
	.st10{fill:#F4F7FA;}
	.st11{fill:#86BFF2;}
	.st12{fill:#BBDEF2;}
	.st13{fill:#FFFFFF;}
	.st14{opacity:0.48;fill:#FFFFFF;enable-background:new    ;}
	.st15{opacity:0.5;fill:#FFFFFF;enable-background:new    ;}
	.st16{opacity:0.75;fill:#F4F7FA;enable-background:new    ;}
	.st17{fill:#A2A7AE;}
	.st18{fill:#FAFBFC;}
	.st19{fill:#D8DEE8;}
	.st20{fill:url(#SVGID_00000030473166331555696130000011459987553532709567_);}
	.st21{opacity:0.3;fill:#7B8FDD;enable-background:new    ;}
	.st22{fill:url(#SVGID_00000090286970684154307720000001762057435825734542_);}
	.st23{opacity:0.3;fill:url(#SVGID_00000013894837856389337140000003087234698737328288_);enable-background:new    ;}
	.st24{opacity:0.3;fill:#86BFF2;enable-background:new    ;}
	.st25{opacity:0.3;fill:#C88BC4;enable-background:new    ;}
</style>
<g id="Background">
</g>
<g id="Illustration">
	<g>
		<path class="st0" d="M547.7,1122.8c-274.2,26.9-339.6,53.9-338.9,65.3c1.3,20.9,229.9,18.2,233.7,56.8
			c1.9,19.5-55.7,28.4-54.7,46.3c3.1,56.5,585.9,109.6,728.3,82.1c3.1-0.6,40-7.8,44.2,2.1c6.3,14.7-68.9,45.5-65.3,71.6
			c4.5,32.3,129.5,56.7,258.9,42.1c146.4-16.5,177-69.3,341-107.4c102.3-23.7,103.9-6.3,273.7-25.3
			c123.8-13.8,424.5-47.4,429.4-111.6c3.8-50.3-175.2-107-292.6-132.6c-207.2-45.2-353.7-22.5-524.2-8.4
			C1131.6,1140.9,1071.4,1071.5,547.7,1122.8z"/>
		<path class="st1" d="M531.9,1167c-83.3,3.4-135.9,5.7-136.8,15.8c-2.2,23.8,281.7,88.3,585.2,96.8c156.8,4.4,235.1-8.4,552.6-38.9
			c420.9-40.4,615.9-30.1,616.8-52.6c0.9-21.1-169.3-47-292.6-57.9c-158.3-14-251-4.1-421,4.2
			C1289.5,1141.6,1415.8,1131.5,531.9,1167z"/>
		<path class="st1" d="M1352.8,1416.5c-6.7-25.4-199.8-11.3-202.1,13.7c-1.4,15.3,67.5,47.4,133.7,29.5
			C1315.7,1451.1,1356.1,1428.8,1352.8,1416.5z"/>
		<path class="st1" d="M1421.3,1339.6c-29.6,5.1-57.8,9.9-57.9,16.8c-0.1,10.4,63.4,25.1,126.3,22.1c77.3-3.7,97.2-31.6,174.7-47.4
			c85.4-17.4,80.1,12.6,180,1.1c118.8-13.8,146.7-58.6,250.5-49.5c36.2,3.2,42.2,9.5,83.1,10.5c82.9,2.1,161-20.9,160-31.6
			c-1.7-17.6-218.5-9.8-255.8-8.4c-129.4,4.7-121,13.2-422.1,44.2L1421.3,1339.6z"/>
		<path class="st1" d="M525.6,1246c-37.8,6.2-78.5,12.9-78.9,24.2c-0.9,21.9,150,43.9,166.3,46.3c41.6,6.1,83.8,12,140,9.5
			c53.9-2.4,152.8-14.1,153.7-33.7c1-21.9-121.3-44.8-190.5-52.6C700.9,1237.9,623.9,1229.8,525.6,1246z"/>
		<g>
			<g>
				<g>
					<g>
						<g>
							<g>
								<path id="SVGID_1_" class="st2" d="M505.9,1051.3c-5.7,19.5-17.2,47-29.3,78.6l331.5-39c-61.6-87.7-139.2-176.3-109.1-365.1
									c14.1-88.6,70.7-252.9,7.3-335.4c-72.2-94.1-147-25.2-190.9-101.2C446.7,170.4,314,110.4,213.9,205.3
									c-98.8,93.6-33.7,322,185.6,532.4C539.7,906.3,535.4,949.4,505.9,1051.3z"/>
							</g>
							<g>
								<defs>
									<path id="SVGID_00000176017302412602215280000002306304500728308908_" d="M505.9,1051.3c-5.7,19.5-17.2,47-29.3,78.6
										l331.5-39c-61.6-87.7-139.2-176.3-109.1-365.1c14.1-88.6,70.7-252.9,7.3-335.4c-72.2-94.1-147-25.2-190.9-101.2
										C446.7,170.4,314,110.4,213.9,205.3c-98.8,93.6-33.7,322,185.6,532.4C539.7,906.3,535.4,949.4,505.9,1051.3z"/>
								</defs>
								<clipPath id="SVGID_00000033366573074728900530000013239362771042059451_">
									<use xlink:href="#SVGID_00000176017302412602215280000002306304500728308908_"  style="overflow:visible;"/>
								</clipPath>
								<g style="clip-path:url(#SVGID_00000033366573074728900530000013239362771042059451_);">
									<g>
										<path class="st4" d="M645.7,1090.5c-8.9-42.5-19.4-82.2-30.6-124.2l-3.7-14c-6.6-19.9-12.6-39.7-18.4-58.8
											c-13.1-43.2-25.4-84-44.5-125.8c-0.8-2.5-1.5-5-2.2-7.6c-2.6-9.4-5.2-19.1-13.1-26.9l-0.2-0.4
											C449.3,507.4,317.8,295.5,142,103l1.4-1.3C319.3,294.4,451,506.5,534.7,732c8.2,8.2,11,18.5,13.5,27.6
											c0.7,2.6,1.4,5.1,2.1,7.4c19.1,41.8,31.4,82.7,44.5,125.9c5.8,19.1,11.8,38.9,18.4,58.8l3.7,14.1
											c11.2,42,21.7,81.7,30.6,124.3L645.7,1090.5z"/>
										<path class="st4" d="M588.8,886.1c-31.2-108.8-8.2-254.1,16.6-356.8c26.9-111.3,61.5-197.9,61.9-198.8l1.8,0.7
											c-0.3,0.9-35,87.4-61.8,198.6c-24.7,102.5-47.7,247.4-16.6,355.8L588.8,886.1z"/>
										<path class="st4" d="M388.5,430.4c-39.6-113.6-54.8-242-59.8-284.2c-1-8.1-1.6-13.4-1.9-14.4l1.9-0.6
											c0.3,1.1,0.8,5.3,2,14.7c5,42.1,20.2,170.4,59.7,283.8L388.5,430.4z"/>
										<path class="st4" d="M479.7,604.6c-65.8-89.4-293.9-123.4-296.2-123.7l0.3-1.9c2.3,0.3,231.3,34.4,297.5,124.5
											L479.7,604.6z"/>
									</g>
								</g>
							</g>
						</g>
					</g>
					<g>
						<g>
							<g>
								<path id="SVGID_00000094613068450774001230000017743775909152451989_" class="st5" d="M405.4,688
									c19.7,152.1,87.3,93.3,156.8,100.3c91.5,103.9,111.2,208,5.1,312.3l-132.3-4.2c-48.5,3.4-106.9-4.7-111.2-69.3
									c-4.9-73.1,6.8-121.3-79.4-147.3s-129.1-87-104.6-165C165.6,632.7,71.2,537.3,125,478C218.6,374.8,384.9,529.6,405.4,688z"
									/>
							</g>
							<g>
								<defs>
									<path id="SVGID_00000028318925627748338410000017673136508627255949_" d="M405.4,688c19.7,152.1,87.3,93.3,156.8,100.3
										c91.5,103.9,111.2,208,5.1,312.3l-132.3-4.2c-48.5,3.4-106.9-4.7-111.2-69.3c-4.9-73.1,6.8-121.3-79.4-147.3
										s-129.1-87-104.6-165C165.6,632.7,71.2,537.3,125,478C218.6,374.8,384.9,529.6,405.4,688z"/>
								</defs>
								<clipPath id="SVGID_00000152965606386443463570000017302504502556369806_">
									<use xlink:href="#SVGID_00000028318925627748338410000017673136508627255949_"  style="overflow:visible;"/>
								</clipPath>
								<g style="clip-path:url(#SVGID_00000152965606386443463570000017302504502556369806_);">
									<g>
										<path class="st4" d="M469.7,956.7c-61.3-53-116.1-113.5-162.9-179.8c-47.2-66.8-85.7-138.7-114.3-213.5
											c-16.4-42.9-29.6-87-39.2-131.2l1.9-0.4c9.6,44,22.8,88.1,39.2,130.9c28.5,74.7,66.9,146.4,114,213.1
											c46.7,66.1,101.4,126.5,162.6,179.4L469.7,956.7z"/>
										<path class="st4" d="M339.6,1056.8l-1.1-1.6c22.7-15.1,50.1-28.1,81.3-38.5c14.9-5,29.8-8.8,44.4-11.5l0.4,1.9
											c-14.4,2.7-29.3,6.5-44.1,11.4C389.3,1028.9,362.1,1041.8,339.6,1056.8z"/>
										<path class="st4" d="M337.2,817.4c-74.8-57.1-217.1-34.3-218.5-34.1l-0.3-2c1.4-0.2,144.5-23.1,220,34.5L337.2,817.4z"/>
										<path class="st4" d="M234.5,657.6c-32.3-101.3,31.3-230.2,31.9-231.5l1.8,0.9c-0.6,1.3-63.9,129.5-31.8,230L234.5,657.6z"
											/>
									</g>
								</g>
							</g>
						</g>
					</g>
				</g>
			</g>
		</g>
		<g>
			<path class="st7" d="M1940.4,885.5l-441.6,0.1c-35.8,0-66.3,26.3-67.7,58.7l0,0c-1.4,32.4,26.8,57.9,62.5,57.1l441.7-9.9
				c29.6-0.7,54.4-24.7,55.8-53.6l0,0C1992.6,909,1970,885.5,1940.4,885.5z"/>
			<path class="st8" d="M1796,401.2l-509.9-29.4c-42.4-2.4-78.8,29.6-80.6,71.6l0,0c-1.8,42,31.7,76.9,74.1,78l510.1,13.4
				c33.3,0.9,61.3-27.9,63-64.2l0,0C1854.4,434.2,1829.2,403.1,1796,401.2z"/>
			<path class="st5" d="M2159.1,557.3l-421.4-2.9c-34-0.2-63.2,25.3-64.6,57l0,0c-1.5,31.7,25.3,56.9,59.4,56.4l421.5-6.5
				c28.3-0.4,52.1-23.8,53.5-52.2l0,0C2208.9,580.7,2187.3,557.5,2159.1,557.3z"/>
			<path class="st9" d="M1185.8,441.8c-1.8,42.1-36.2,75.4-77.5,74.4c-42.1-1.1-75.3-37.2-73.5-80.8s38-76.9,80-74.4
				C1156.1,363.5,1187.6,399.6,1185.8,441.8z"/>
			<g>
				<path class="st9" d="M1836.4,708.2l-526.9-5.6c-43.9-0.5-82.9,33.5-86.4,75.9l0,0c-3.5,42.3,29.9,75.9,73.9,75l527.7-10.7
					c34.4-0.7,64.4-30.9,67.6-67.5l0,0C1895.6,738.6,1870.7,708.6,1836.4,708.2z"/>
				<path class="st10" d="M1361.1,778.4c-2.6,31.8-31.6,58.1-65.1,58.6c-34,0.6-59.7-25.4-57-58c2.7-32.7,32.7-58.9,66.6-58.7
					C1339.1,720.5,1363.7,746.5,1361.1,778.4z"/>
			</g>
		</g>
		<g>
			<path class="st2" d="M2090.3,1141.4l-1600.8-11.9v35.2c0,9.6,7,17.7,16.4,19.2l452.7,69.4c5.4,0.8,10.8,1,16.2,0.7l1098.1-79.1
				c9.8-0.7,17.4-8.9,17.4-18.7L2090.3,1141.4L2090.3,1141.4z"/>
			<g>
				<path class="st2" d="M1509.4,1084.3l-1003.3,64.5c-18,1.2-32.6-11.1-32.6-27.4V469.1c0-16.3,14.6-29.5,32.6-29.5h1003.3
					c14.8,0,26.8,11.9,26.8,26.6v589.6C1536.1,1070.6,1524.2,1083.3,1509.4,1084.3z"/>
				<path class="st11" d="M1525.4,1084.3l-1003.3,64.5c-18,1.2-32.6-11.1-32.6-27.4V469.1c0-16.3,14.6-29.5,32.6-29.5h1003.3
					c14.8,0,26.8,11.9,26.8,26.6v589.6C1552.1,1070.6,1540.2,1083.3,1525.4,1084.3z"/>
				<path class="st12" d="M1494.1,1042.7l-934.5,56c-14.6,0.9-26.5-9.2-26.5-22.5v-571c0-13.3,11.9-24.1,26.5-24.2l934.5-3.5
					c12.2,0,22.1,9.7,22.1,21.8v520.1C1516.2,1031.6,1506.3,1042,1494.1,1042.7z"/>
				<path class="st13" d="M1059.2,457.5c0,6.1-5.2,11-11.5,11c-6.4,0-11.6-4.9-11.6-11s5.2-11,11.6-11
					C1054,446.5,1059.2,451.4,1059.2,457.5z"/>
				<path class="st14" d="M1283.7,905.4c-77.3-37.8-138.2,10.1-196.9-37.2c-35.6-28.7-18.1-50.1-61.9-92.9
					c-48.5-47.5-80.1-31.5-128.8-74.2c-61.6-54-30.8-96.1-83.9-134.9c-64.4-47.1-133.8-3.5-195.1-48.6
					c-26.4-19.5-40.9-47.8-48.5-77.9h-60c-10.5,0-19,7.7-19,17.3v676.1c0,9.6,8.5,16.8,19,16.1l1022.5-66c5-0.3,9.5-3,12.3-6.9
					c-74.9-2.5-120.8-25.3-150.2-48.9C1335.7,981.2,1345.7,935.7,1283.7,905.4z"/>
			</g>
			<path class="st11" d="M1565.4,1081.4l-1075.9,67.9l469.1,71.9c5.4,0.8,10.8,1,16.2,0.7l1115.5-80.4l-507.8-59.6
				C1576.8,1081.1,1571.1,1081,1565.4,1081.4z"/>
			<polygon class="st12" points="646.5,1150.9 1542.2,1093.6 1819.4,1125.9 931.4,1187.2 			"/>
		</g>
		<g>
			<g>
				<path class="st15" d="M1085.2,531.9v210.9c0,7,5.2,12.6,11.6,12.4l387.8-8.8c6.1-0.1,11.1-5.8,11.1-12.6V527.7L1085.2,531.9z"/>
				<path class="st2" d="M1484.6,501.7l-387.8,3.4c-6.4,0.1-11.6,5.8-11.6,12.8v21.6l410.5-4.4V514
					C1495.7,507.1,1490.7,501.6,1484.6,501.7z"/>
				<g>
					<g>
						<g>
							<path class="st2" d="M1180.1,642.6l21.4-82.4c32.4,11.1,55.8,44.1,55.9,83.5L1180.1,642.6z"/>
						</g>
						<g>
							<path class="st13" d="M1237.5,649.2c-1.2,18.8-9.4,35.5-21.7,47.1l-33.6-47.9L1237.5,649.2z"/>
							<path class="st13" d="M1175.4,639.9c-13-13.4-28.6-29.7-41-42.7c11-11.7,25.9-18.9,42.3-19.2c5-0.1,9.8,0.5,14.4,1.7
								L1175.4,639.9z"/>
							<path class="st13" d="M1172.7,645.1l-47,38.8c-6.6-10.6-10.4-23.5-10.4-37.4c0-17.2,5.8-32.9,15.5-45
								c3.4,3.6,7.3,7.6,11.5,11.9C1154.8,626.6,1167.6,639.8,1172.7,645.1z"/>
							<path class="st13" d="M1174,651.1l-0.9,61.6c-17.9-0.8-33.8-10-44.4-24.3L1174,651.1z"/>
							<path class="st13" d="M1179.2,653.6l32.4,46.3c-9.5,7.5-20.9,12.1-33.3,12.8L1179.2,653.6z"/>
						</g>
					</g>
					<polygon class="st13" points="1466.9,595.1 1268.4,597.9 1268.4,577 1466.9,574.5 					"/>
					<polygon class="st13" points="1466.9,632.4 1268.4,635.6 1268.4,614.7 1466.9,611.8 					"/>
					<polygon class="st13" points="1466.9,669.6 1268.4,673.3 1268.4,652.4 1466.9,649 					"/>
					<polygon class="st13" points="1466.9,706.9 1268.4,711 1268.4,690.1 1466.9,686.3 					"/>
				</g>
				<path class="st13" d="M1111.8,521.8c0,3.1-2.3,5.7-5.1,5.7c-2.8,0-5.1-2.5-5.1-5.6s2.3-5.7,5.1-5.7S1111.8,518.7,1111.8,521.8z"
					/>
			</g>
			<g>
				<path class="st15" d="M677.4,847.9v255.7c0,8.5,6.6,15,14.7,14.6l477.2-25.7c7.3-0.4,13.2-7.2,13.2-15.2v-242L677.4,847.9z"/>
				<path class="st2" d="M1169.3,804.9l-477.2,10.2c-8.1,0.2-14.7,7.2-14.7,15.7V857l505.1-13v-24.8
					C1182.5,811.1,1176.6,804.8,1169.3,804.9z"/>
				<polygon class="st13" points="1131.2,1050.6 734.1,1070 734.1,895.7 1131.2,883.7 				"/>
				<path class="st2" d="M1131.2,1050.6l-397,19.4V957.9c13,75.6,26.8,91.9,37.3,92.2c14.7,0.5,22.6-30.6,44.7-32.4
					c22-1.8,29.4,27.7,45.9,25.9c31.3-3.4,39.8-113.9,65.1-115.5c20.1-1.3,33.7,67.3,51.4,63.8c12.9-2.5,16.1-41.2,25.9-41.2
					c8.9,0,9.3,31.8,20.9,34.3c17.1,3.6,33.8-61,57.3-62.3c13-0.7,29.3,18,48.5,82.8C1131.2,1041.3,1131.2,1014.8,1131.2,1050.6z"/>
				<path class="st13" d="M711.6,834.5c0,3.8-2.9,6.9-6.5,7s-6.5-2.9-6.5-6.7s2.9-6.9,6.5-7C708.7,827.8,711.6,830.8,711.6,834.5z"
					/>
			</g>
			<g>
				<g>
					<path class="st15" d="M279,377v366.5c0,12.2,9.9,21.9,22,21.7l696.9-10.7c10.4-0.2,18.9-9.4,18.9-20.7V395.2L279,377z"/>
					<path class="st9" d="M997.9,351.6L301,331.1c-12.1-0.4-22,9.2-22,21.4v37.6l737.8,17.2v-34.7
						C1016.8,361.3,1008.3,351.9,997.9,351.6z"/>
					<path class="st13" d="M329.4,361.2c0,5.4-4.3,9.6-9.7,9.5c-5.4-0.1-9.7-4.6-9.7-10s4.4-9.6,9.7-9.5
						C325,351.3,329.4,355.8,329.4,361.2z"/>
				</g>
				<g>
					<polygon class="st13" points="429.7,715.9 374.8,716.4 374.8,444 429.7,445 					"/>
					<polygon class="st9" points="429.7,715.9 374.8,716.4 374.8,587.1 429.7,587.3 					"/>
					<polygon class="st13" points="505,715.1 451,715.6 451,445.4 505,446.4 					"/>
					<polygon class="st9" points="505,715.1 451,715.6 451,651.5 505,651.3 					"/>
					<polygon class="st13" points="579.2,714.3 526,714.9 526,446.7 579.2,447.7 					"/>
					<polygon class="st9" points="579.2,714.3 526,714.9 526,681.4 579.2,681.1 					"/>
					<polygon class="st13" points="652.3,713.5 599.9,714.1 599.9,448.1 652.3,449 					"/>
					<polygon class="st9" points="652.3,713.5 599.9,714.1 599.9,505.7 652.3,506.3 					"/>
					<polygon class="st13" points="724.2,712.8 672.6,713.3 672.6,449.4 724.2,450.3 					"/>
					<polygon class="st9" points="724.2,712.8 672.6,713.3 672.6,530.1 724.2,530.5 					"/>
					<polygon class="st13" points="795,712.1 744.2,712.6 744.2,450.7 795,451.6 					"/>
					<polygon class="st9" points="795,712.1 744.2,712.6 744.2,488.7 795,489.4 					"/>
					<polygon class="st13" points="864.7,711.3 814.7,711.9 814.7,451.9 864.7,452.8 					"/>
					<polygon class="st9" points="864.7,711.3 814.7,711.9 814.7,552.2 864.7,552.5 					"/>
					<polygon class="st13" points="933.4,710.6 884.1,711.1 884.1,453.2 933.4,454 					"/>
					<polygon class="st9" points="933.4,710.6 884.1,711.1 884.1,621.6 933.4,621.5 					"/>
				</g>
			</g>
			<g>
				<g>
					<path class="st15" d="M1217.3,802.1v212.8c0,7.1,5.2,12.5,11.5,12.2l376.1-18.9c5.8-0.3,10.5-6,10.5-12.7V792.4L1217.3,802.1z"
						/>
					<path class="st5" d="M1604.9,766.8l-376.1,8c-6.3,0.1-11.5,6-11.5,13v21.8l398.1-10.1v-20.8
						C1615.4,772.1,1610.7,766.7,1604.9,766.8z"/>
					<path class="st13" d="M1244,791.1c0,3.1-2.3,5.7-5.1,5.8c-2.8,0.1-5.1-2.4-5.1-5.6c0-3.1,2.3-5.7,5.1-5.8
						S1244,787.9,1244,791.1z"/>
				</g>
				<g>
					<path class="st5" d="M1277.8,904c3.5-7.5,10-12.9,17.7-14.2l0.5-36.4c-21.9,1.6-40.6,17.3-48.9,39L1277.8,904z"/>
					<path class="st13" d="M1301.7,889.7c10.4,1.4,18.5,10.6,19.5,22.4l32.1,0.3c-0.4-32.2-22.7-57.7-51-59.1L1301.7,889.7z"/>
					<path class="st13" d="M1320.9,919.1c-1.9,12.2-11.3,21.8-22.7,22.2c-3.4,0.1-6.5-0.5-9.4-1.9l-17.1,31.7
						c7.9,4.5,16.9,6.8,26.5,6.4c28.7-1.3,52.1-26.8,54.8-58.2L1320.9,919.1z"/>
					<path class="st13" d="M1266.4,967.8l17.1-31.7c-5.2-4.5-8.5-11.6-8.5-19.7c0-2,0.2-3.9,0.6-5.7L1245,899
						c-1.6,5.9-2.5,12.1-2.5,18.5C1242.5,938.8,1252,957.1,1266.4,967.8z"/>
				</g>
				<g>
					<path class="st13" d="M1397.3,899.7c3.4-7.4,9.8-12.8,17.2-14l0.5-35.9c-21.3,1.6-39.5,17.1-47.6,38.4L1397.3,899.7z"/>
					<path class="st9" d="M1420.5,885.6c10.1,1.4,18,10.5,18.9,22.2l31.2,0.3c-0.4-31.7-22.1-56.9-49.6-58.3L1420.5,885.6z"/>
					<path class="st13" d="M1439.2,914.5c-1.8,12-11,21.5-22,21.9c-3.3,0.1-6.4-0.5-9.2-1.8l-16.6,31.3c7.7,4.4,16.5,6.7,25.8,6.3
						c27.9-1.3,50.7-26.4,53.3-57.4L1439.2,914.5z"/>
					<path class="st13" d="M1386.2,962.5l16.7-31.3c-5-4.5-8.2-11.5-8.2-19.5c0-1.9,0.2-3.8,0.5-5.6l-29.8-11.4
						c-1.6,5.8-2.4,11.9-2.4,18.2C1363,933.9,1372.2,952,1386.2,962.5z"/>
				</g>
				<g>
					<path class="st13" d="M1513.5,895.5c3.3-7.3,9.5-12.6,16.8-13.8l0.5-35.4c-20.7,1.5-38.4,16.8-46.3,37.9L1513.5,895.5z"/>
					<path class="st13" d="M1536.1,881.6c9.8,1.4,17.5,10.4,18.4,21.9l30.4,0.3c-0.4-31.3-21.5-56.1-48.3-57.5L1536.1,881.6z"/>
					<path class="st13" d="M1554.3,910.1c-1.8,11.9-10.7,21.2-21.5,21.6c-3.2,0.1-6.2-0.5-8.9-1.8l-16.2,30.8
						c7.5,4.3,16,6.6,25.1,6.2c27.2-1.2,49.3-26,51.8-56.6L1554.3,910.1z"/>
					<path class="st12" d="M1502.8,957.4l16.2-30.9c-4.9-4.4-8-11.3-8-19.2c0-1.9,0.2-3.8,0.5-5.5l-29-11.3
						c-1.5,5.7-2.3,11.8-2.3,18C1480.1,929.2,1489.1,947.1,1502.8,957.4z"/>
				</g>
			</g>
		</g>
		<g>
			<path class="st5" d="M1578.8,1292.9c8.6,4.4,19.4,0.4,24.1-8.9s1.6-20.4-7-24.7c-0.4-0.2-0.9-0.4-1.4-0.6
				c1.6-5.1,2.8-10.3,3.6-15.5c0.5,0,1,0,1.5-0.1c9.8-0.9,17.6-9.9,17.4-20.1s-8.3-17.8-18.1-17c-0.5,0-1,0.1-1.5,0.2
				c-1-5.1-2.4-10-4.2-14.8c0.5-0.3,0.9-0.5,1.3-0.8c8.4-5.9,11.1-17.5,6-25.9s-16-10.5-24.4-4.6c-0.4,0.3-0.8,0.6-1.2,1
				c-3.3-3.7-6.9-7.1-10.9-10.2c0.3-0.5,0.5-0.9,0.8-1.4c4.7-9.3,10.9-19.5,2.2-23.7c-20-9.8-28.6-1.4-33.4,7.9
				c-0.2,0.5-0.5,1-0.7,1.5c-4.8-1.3-9.7-2.3-14.6-2.8c0-0.5,0.1-1,0-1.6c-0.2-10.2,2.8-15.8-7-16c-21.5-0.4-28.7,8.9-28.5,19.1
				c0,0.5,0.1,1.1,0.1,1.6c-4.9,1.4-9.7,3.2-14.4,5.4c-0.2-0.5-0.5-0.9-0.7-1.4c-5.1-8.4-16-10.5-24.4-4.6s-11.1,17.5-6,25.9
				c0.3,0.4,0.5,0.8,0.8,1.2c-3.7,3.7-7.2,7.7-10.4,12.1c-0.4-0.3-0.8-0.5-1.3-0.7c-8.6-4.4-19.4-0.4-24.1,8.9s-1.6,20.4,7,24.7
				c0.4,0.2,0.9,0.4,1.4,0.6c-1.6,5.1-2.8,10.3-3.6,15.5c-0.5,0-1,0-1.5,0.1c-9.8,0.9-17.6,9.9-17.4,20.1s8.3,17.8,18.1,17
				c0.5,0,1-0.1,1.5-0.2c1,5.1,2.4,10,4.2,14.8c-0.5,0.3-0.9,0.5-1.3,0.8c-8.4,5.9-11.1,17.5-6,25.9s21.9,12.3,30.3,6.5
				c0.4-0.3-5.1-2.5-4.7-2.8c3.3,3.7,6.9,7.1,10.9,10.2c-0.3,0.5-0.5,0.9-0.8,1.4c-4.7,9.3-1.6,20.4,7,24.7
				c8.6,4.4,19.4,0.4,24.1-8.9c0.2-0.5,0.5-1,0.7-1.5c4.8,1.3,9.7,2.3,14.6,2.8c0,0.5-0.1,1,0,1.6c0.2,10.2,8.3,17.8,18.1,17
				c9.8-0.9,17.6-9.9,17.4-20.1c0-0.5-0.1-1.1-0.1-1.6c4.9-1.4,9.7-3.2,14.4-5.4c0.2,0.5,0.5,0.9,0.7,1.4c5.1,8.4,16,10.5,24.4,4.6
				s11.1-17.5,6-25.9c-0.3-0.4-0.5-0.8-0.8-1.2c3.7-3.7,7.2-7.7,10.4-12.1C1577.9,1292.4,1578.3,1292.6,1578.8,1292.9z
				 M1471.7,1294.2c-31.2-15.8-42.6-56.1-25.4-89.8c17.2-33.8,56.3-48.3,87.5-32.5s42.6,56.1,25.4,89.8
				C1542.1,1295.5,1502.9,1310.1,1471.7,1294.2z"/>
			<path class="st5" d="M1599.6,1243c9.8-0.9,17.6-9.9,17.4-20.1s-8.3-17.8-18.1-17c-0.5,0-1,0.1-1.5,0.2c-1-5.1-2.4-10-4.2-14.8
				c0.5-0.3,0.9-0.5,1.3-0.8c8.4-5.9,18.8-20.1,12.8-27.9c-11.2-14.9-22.9-8.5-31.2-2.6c-0.4,0.3-0.8,0.6-1.2,1
				c-3.3-3.7-6.9-7.1-10.9-10.2c0.3-0.5,0.5-0.9,0.8-1.4c2.6-5.1,2.8-10.6,1.1-15.4c-8.1,14.3-16.1,28.6-23.9,43
				c24.9,18.2,32.8,54.2,17.3,84.8c-13.2,26-39.4,40.5-65,38.7c-1.1,3-2.3,5.9-3.5,8.9c-3.3,8-7.1,15.7-10.9,23.5
				c2.4,0.4,4.8,0.8,7.1,1c0,0.5-0.1,1,0,1.6c0.2,10.2,6.4,18.9,24.2,18c9.8-0.5,11.5-10.9,11.3-21.2c0-0.5-0.1-1.1-0.1-1.6
				c4.9-1.4,9.7-3.2,14.4-5.4c0.2,0.5,0.5,0.9,0.7,1.4c5.1,8.4,22.7,12,31.1,6.1s4.4-19-0.7-27.4c-0.3-0.4-0.5-0.8-0.8-1.2
				c3.7-3.7,7.2-7.7,10.4-12.1c0.4,0.3,0.8,0.5,1.3,0.7c8.6,4.4,19.4,0.4,24.1-8.9s1.6-20.4-7-24.7c-0.4-0.2-0.9-0.4-1.4-0.6
				c1.6-5.1,2.8-10.3,3.6-15.5C1598.6,1243.1,1599.1,1243.1,1599.6,1243z"/>
			<path class="st9" d="M1588,1293.9c8.6,4.4,19.4,0.4,24.1-8.9s1.6-20.4-7-24.7c-0.4-0.2-0.9-0.4-1.4-0.6
				c1.6-5.1,2.8-10.3,3.6-15.5c0.5,0,1,0,1.5-0.1c9.8-0.9,17.6-9.9,17.4-20.1s-8.3-17.8-18.1-17c-0.5,0-1,0.1-1.5,0.2
				c-1-5.1-2.4-10-4.2-14.8c0.5-0.3,0.9-0.5,1.3-0.8c8.4-5.9,11.1-17.5,6-25.9s-16-10.5-24.4-4.6c-0.4,0.3-0.8,0.6-1.2,1
				c-3.3-3.7-6.9-7.1-10.9-10.2c0.3-0.5,0.5-0.9,0.8-1.4c4.7-9.3,1.6-20.4-7-24.7c-8.6-4.4-19.4-0.4-24.1,8.9
				c-0.2,0.5-0.5,1-0.7,1.5c-4.8-1.3-9.7-2.3-14.6-2.8c0-0.5,0.1-1,0-1.6c-0.2-10.2-8.3-17.8-18.1-17c-9.8,0.9-17.6,9.9-17.4,20.1
				c0,0.5,0.1,1.1,0.1,1.6c-4.9,1.4-9.7,3.2-14.4,5.4c-0.2-0.5-0.5-0.9-0.7-1.4c-5.1-8.4-16-10.5-24.4-4.6s-11.1,17.5-6,25.9
				c0.3,0.4,0.5,0.8,0.8,1.2c-3.7,3.7-7.2,7.7-10.4,12.1c-0.4-0.3-0.8-0.5-1.3-0.7c-8.6-4.4-19.4-0.4-24.1,8.9s-1.6,20.4,7,24.7
				c0.4,0.2,0.9,0.4,1.4,0.6c-1.6,5.1-2.8,10.3-3.6,15.5c-0.5,0-1,0-1.5,0.1c-9.8,0.9-17.6,9.9-17.4,20.1s8.3,17.8,18.1,17
				c0.5,0,1-0.1,1.5-0.2c1,5.1,2.4,10,4.2,14.8c-0.5,0.3-0.9,0.5-1.3,0.8c-8.4,5.9-11.1,17.5-6,25.9s16,10.5,24.4,4.6
				c0.4-0.3,0.8-0.6,1.2-1c3.3,3.7,6.9,7.1,10.9,10.2c-0.3,0.5-0.5,0.9-0.8,1.4c-4.7,9.3-1.6,20.4,7,24.7c8.6,4.4,19.4,0.4,24.1-8.9
				c0.2-0.5,0.5-1,0.7-1.5c4.8,1.3,9.7,2.3,14.6,2.8c0,0.5-0.1,1,0,1.6c0.2,10.2,8.3,17.8,18.1,17c9.8-0.9,17.6-9.9,17.4-20.1
				c0-0.5-0.1-1.1-0.1-1.6c4.9-1.4,9.7-3.2,14.4-5.4c0.2,0.5,0.5,0.9,0.7,1.4c5.1,8.4,16,10.5,24.4,4.6s11.1-17.5,6-25.9
				c-0.3-0.4-0.5-0.8-0.8-1.2c3.7-3.7,7.2-7.7,10.4-12.1C1587.2,1293.4,1587.6,1293.7,1588,1293.9z M1480.9,1295.3
				c-31.2-15.8-42.6-56.1-25.4-89.8c17.2-33.8,56.3-48.3,87.5-32.5s42.6,56.1,25.4,89.8C1551.3,1296.6,1512.1,1311.1,1480.9,1295.3z
				"/>
		</g>
		<g>
			<path class="st9" d="M2002.9,1184.8c18.4,9.3,41.5,0.8,51.6-19.2c10.1-19.9,3.4-43.6-15-53c-1-0.5-1.9-0.9-2.9-1.3
				c3.4-11,6-22.1,7.7-33.2c1.1,0,2.1,0,3.2-0.1c21-1.9,37.6-21.2,37.2-43.1s-17.8-38.2-38.8-36.3c-1.1,0.1-2.2,0.3-3.2,0.5
				c-2.2-10.9-5.2-21.5-9-31.7c1-0.6,1.9-1.1,2.9-1.8c18-12.6,23.7-37.4,12.8-55.5c-10.9-18-34.3-22.5-52.2-9.9
				c-0.9,0.6-1.8,1.3-2.6,2c-7.1-7.8-14.9-15.1-23.3-21.7c0.6-1,1.2-2,1.7-3c10.1-19.9,23.3-41.7,4.8-50.7
				c-42.9-20.9-61.3-3-71.4,16.9c-0.5,1-1,2.1-1.4,3.1c-10.3-2.9-20.8-4.9-31.3-6c0.1-1.1,0.1-2.2,0.1-3.3
				c-0.4-21.9,6.1-33.8-15-34.2c-45.9-0.9-61.4,19-61,41c0,1.1,0.1,2.3,0.2,3.4c-10.5,3-20.9,6.8-30.9,11.5c-0.5-1-1-1.9-1.5-2.9
				c-10.9-18-34.2-22.5-52.2-9.9s-23.7,37.4-12.8,55.5c0.6,0.9,1.2,1.8,1.8,2.6c-8,8-15.4,16.6-22.3,25.9c-0.9-0.6-1.8-1.1-2.7-1.6
				c-18.4-9.3-41.5-0.8-51.6,19.2c-10.1,19.9-3.4,43.6,15,53c1,0.5,1.9,0.9,2.9,1.3c-3.4,11-6,22.1-7.7,33.2c-1.1,0-2.1,0-3.2,0.1
				c-21,1.9-37.6,21.2-37.2,43.1s17.8,38.2,38.8,36.3c1.1-0.1,2.2-0.3,3.2-0.5c2.2,10.9,5.2,21.5,9,31.7c-1,0.6-1.9,1.1-2.9,1.8
				c-18,12.6-23.7,37.4-12.8,55.5c10.9,18,46.9,26.4,64.8,13.9c0.9-0.6-10.8-5.3-10-6c7.1,7.8,14.9,15.1,23.3,21.7
				c-0.6,1-1.2,2-1.7,3c-10.1,19.9-3.4,43.6,15,53c18.4,9.3,41.5,0.8,51.6-19.2c0.5-1,1-2.1,1.4-3.1c10.3,2.9,20.8,4.9,31.3,6
				c-0.1,1.1-0.1,2.2-0.1,3.3c0.4,21.9,17.8,38.2,38.8,36.3c21-1.9,37.6-21.2,37.2-43.1c0-1.1-0.1-2.3-0.2-3.4
				c10.5-3,20.9-6.8,30.9-11.5c0.5,1,1,1.9,1.5,2.9c10.9,18,34.2,22.5,52.2,9.9s23.7-37.4,12.8-55.5c-0.6-0.9-1.2-1.8-1.8-2.6
				c8-8,15.4-16.6,22.3-25.9C2001.1,1183.8,2002,1184.4,2002.9,1184.8z M1773.6,1187.8c-66.8-33.9-91.2-120-54.5-192.4
				c36.7-72.3,120.6-103.5,187.4-69.6s91.2,120,54.5,192.4C1924.3,1190.5,1840.4,1221.7,1773.6,1187.8z"/>
			<path class="st9" d="M2047.6,1078.1c21-1.9,37.6-21.2,37.2-43.1s-17.8-38.2-38.8-36.3c-1.1,0.1-2.2,0.3-3.2,0.5
				c-2.2-10.9-5.2-21.5-9-31.7c1-0.6,1.9-1.1,2.9-1.8c18-12.6,40.2-43,27.5-59.8c-24-32-48.9-18.1-66.9-5.5c-0.9,0.6-1.8,1.3-2.6,2
				c-7.1-7.8-14.9-15.1-23.3-21.7c0.6-1,1.2-2,1.7-3c5.5-10.8,6-22.8,2.4-33c-17.3,30.5-34.5,61.2-51.3,92
				c53.3,39,70.3,116,36.9,181.6c-28.2,55.6-84.3,86.8-139.1,82.9c-2.4,6.3-4.8,12.7-7.5,19c-7.1,17-15.2,33.7-23.2,50.4
				c5.1,1,10.2,1.7,15.3,2.2c-0.1,1.1-0.1,2.2-0.1,3.3c0.4,21.9,13.7,40.5,51.8,38.5c21-1.1,24.7-23.4,24.2-45.3
				c0-1.1-0.1-2.3-0.2-3.4c10.5-3,20.9-6.8,30.9-11.5c0.5,1,1,1.9,1.5,2.9c10.9,18.1,48.6,25.7,66.6,13.1s9.3-40.6-1.5-58.7
				c-0.6-0.9-1.2-1.8-1.8-2.6c8-8,15.4-16.6,22.3-25.9c0.9,0.6,1.8,1.1,2.7,1.6c18.4,9.3,41.5,0.8,51.6-19.2
				c10.1-19.9,3.4-43.6-15-53c-1-0.5-1.9-0.9-2.9-1.3c3.4-11,6-22.1,7.7-33.2C2045.4,1078.2,2046.5,1078.2,2047.6,1078.1z"/>
			<path class="st5" d="M2022.7,1187.1c18.4,9.3,41.5,0.8,51.6-19.2c10.1-19.9,3.4-43.6-15-53c-1-0.5-1.9-0.9-2.9-1.3
				c3.4-11,6-22.1,7.7-33.2c1.1,0,2.1,0,3.2-0.1c21-1.9,37.6-21.2,37.2-43.1c-0.4-21.9-17.8-38.2-38.8-36.3
				c-1.1,0.1-2.2,0.3-3.2,0.5c-2.2-10.9-5.2-21.5-9-31.7c1-0.6,1.9-1.1,2.9-1.8c18-12.6,23.7-37.4,12.8-55.5
				c-10.9-18-34.2-22.5-52.2-9.9c-0.9,0.6-1.8,1.3-2.6,2c-7.1-7.8-14.9-15.1-23.3-21.7c0.6-1,1.2-2,1.7-3c10.1-19.9,3.4-43.6-15-53
				c-18.4-9.3-41.5-0.8-51.6,19.2c-0.5,1-1,2.1-1.4,3.1c-10.3-2.9-20.8-4.9-31.3-6c0.1-1.1,0.1-2.2,0.1-3.3
				c-0.4-21.9-17.8-38.2-38.8-36.3s-37.6,21.2-37.2,43.1c0,1.1,0.1,2.3,0.2,3.4c-10.5,3-20.9,6.8-30.9,11.5c-0.5-1-1-1.9-1.5-2.9
				c-10.9-18-34.3-22.5-52.2-9.9c-18,12.6-23.7,37.4-12.8,55.5c0.6,0.9,1.2,1.8,1.8,2.6c-8,8-15.4,16.6-22.3,25.9
				c-0.9-0.6-1.8-1.1-2.7-1.6c-18.4-9.3-41.5-0.8-51.6,19.2c-10.1,19.9-3.4,43.6,15,53c1,0.5,1.9,0.9,2.9,1.3
				c-3.4,11-6,22.1-7.7,33.2c-1.1,0-2.1,0-3.2,0.1c-21,1.9-37.6,21.2-37.2,43.1s17.8,38.2,38.8,36.3c1.1-0.1,2.2-0.3,3.2-0.5
				c2.2,10.9,5.2,21.5,9,31.7c-1,0.6-1.9,1.1-2.9,1.8c-18,12.6-23.7,37.4-12.8,55.5c10.9,18.1,34.2,22.5,52.2,9.9
				c0.9-0.6,1.8-1.3,2.6-2c7.1,7.8,14.9,15.1,23.3,21.7c-0.6,1-1.2,2-1.7,3c-10.1,19.9-3.4,43.6,15,53c18.4,9.3,41.5,0.8,51.6-19.2
				c0.5-1,1-2.1,1.4-3.1c10.3,2.9,20.8,4.9,31.3,6c-0.1,1.1-0.1,2.2-0.1,3.3c0.4,21.9,17.8,38.2,38.8,36.3
				c21-1.9,37.6-21.2,37.2-43.1c0-1.1-0.1-2.3-0.2-3.4c10.5-3,20.9-6.8,30.9-11.5c0.5,1,1,1.9,1.5,2.9c10.9,18.1,34.2,22.5,52.2,9.9
				s23.7-37.4,12.8-55.5c-0.6-0.9-1.2-1.8-1.8-2.6c8-8,15.4-16.6,22.3-25.9C2020.9,1186.1,2021.8,1186.6,2022.7,1187.1z
				 M1793.4,1190c-66.8-33.9-91.2-120-54.5-192.4c36.7-72.3,120.6-103.5,187.4-69.6s91.2,120,54.5,192.4
				C1944.1,1192.8,1860.2,1223.9,1793.4,1190z"/>
		</g>
		<g>
			<path class="st2" d="M1101.3,1081.5c-0.7,0.2-1.2,0.6-1.5,1.2s-0.4,1.3-0.2,1.9l14.2,45.1c0.4,1.3,1.8,2,3.1,1.6l32.9-9.6
				c1.3-0.4,2.1-1.7,1.7-3.1l-12.7-44.9c-0.4-1.3-1.7-2.1-3-1.7L1101.3,1081.5z"/>
			<path class="st12" d="M1103.9,1083.7c-0.6,0.2-1.1,0.5-1.4,1.1s-0.3,1.2-0.2,1.7l12.6,40.2c0.4,1.1,1.6,1.8,2.7,1.5l29.3-8.6
				c1.2-0.3,1.8-1.6,1.5-2.7l-11.4-40c-0.3-1.2-1.5-1.9-2.7-1.5L1103.9,1083.7z"/>
			<path class="st16" d="M1108.3,1085.9c-0.4,0.1-0.8,0.4-1,0.8s-0.3,0.9-0.1,1.3l4,13.1c0.3,0.9,1.2,1.4,2.1,1.2l23.4-6.3
				c0.4-0.1,0.8-0.4,1-0.8s0.3-0.9,0.2-1.3l-3.7-13.3c-0.3-0.9-1.2-1.4-2.1-1.2L1108.3,1085.9z"/>
			<path class="st16" d="M1114.3,1106.8c-0.5,0.1-0.9,0.4-1.1,0.9c-0.2,0.4-0.3,0.9-0.1,1.4l4.1,13.5c0.3,0.9,1.2,1.4,2.2,1.2
				l24.1-6.5c0.5-0.1,0.8-0.4,1.1-0.8c0.2-0.4,0.3-0.9,0.2-1.4l-3.8-13.7c-0.3-0.9-1.2-1.5-2.2-1.2L1114.3,1106.8z"/>
			<path class="st9" d="M1292.7,1104.6c1.9,0.7,30.1,11.9,35.9,41.4c0.5,2.4,5,27.7-12.2,45.6c-19.2,20-56.3,19.5-71,2.8
				c-3.4-3.9-5.2-8.2-6.3-11.9l0,0l3.9-10.3c4.7-5.7,11.2-7.1,14.6-7.9c8.5-2.1,14.9,1.7,19.7-2.4c2.7-2.3,3.2-5.5,3.7-8.4
				c1.6-9.9-4-16-4.4-22.1c-0.3-4.6-1.9-14.6,4.1-21.1C1284.5,1106.1,1289.7,1105,1292.7,1104.6z"/>
			<path class="st2" d="M1303.7,1432.8c0.3-1.8,6.2-3.5,9.1-1c1.4,1.2,2.4,3.7,1.6,4.8c-0.3,0.4,0.9,1.1-0.3,1.1
				C1310.2,1437.7,1303.4,1434.6,1303.7,1432.8z"/>
			<path class="st13" d="M1309.8,1433.5l6-0.9c-2.8-3.4-2.3-14.1-2.3-14.1l-6.4,1.4c0,0,0.7,2.9,2,7.3
				C1309.6,1428.8,1309.8,1431.1,1309.8,1433.5z"/>
			<path class="st2" d="M1309.3,1432.8c0,0,7.2-1.7,8-0.2c0.8,1.4,1.4,5.3-3.2,5.2C1309.5,1437.6,1308.9,1434,1309.3,1432.8z"/>
			<path class="st2" d="M1221.1,1439.6c0.6-1.7,6.6-2.6,9.1,0.3c1.3,1.4,1.9,4,0.9,4.9c-0.4,0.4,0.8,1.2-0.4,1.1
				C1226.8,1445.4,1220.5,1441.4,1221.1,1439.6z"/>
			<path class="st13" d="M1116.8,1132.8l-5.5-2.6c-0.9-0.7-2.2-1.9-3.2-3.8c-1.6-3.1-1.6-6.4-1.6-6.4s-0.3-4.5,1.6-5.2
				c0.2-0.1,0.5-0.1,0.9-0.1l2,5.2c0,0,0.3,2.2,3.9,4.6c3.5,3.1,4.9,5.8,4.9,5.8L1116.8,1132.8z"/>
			<path class="st13" d="M1227.1,1441.1h6.1c-2.3-3.7-0.3-14.2-0.3-14.2l-6.5,0.5c0,0,0.3,3,0.9,7.5
				C1227.5,1436.4,1227.3,1438.8,1227.1,1441.1z"/>
			<path class="st5" d="M1211.3,1211.2c-2.8,9.3-6.8,24.3-9.4,43.2c-7.4,53.7,8.3,55.4,5.4,115c-0.9,19,16.5,62.8,18,63.8
				c0.7,0.1,1.5,0.1,2.4,0.1c1.5,0,3.6-0.3,6.1-1c2.8-0.5,12.7-27.4,10.4-43.4c-1.6-11.3-1.2-23.5-0.2-47.8
				c0.2-3.9,10.2-76.7,10.2-76.7l0,0c3.1,26.9,6.6,49.8,9.6,67.5c9.8,57,41.8,91.4,43.4,92c0.3,0.1,3.3,1.2,5.8-0.4
				c1.1-0.7,1.5-1.6,1.5-1.6c0.9-0.7-0.3-56.9-10-99.2c-14.1-61.4-8-75.8-12.5-103.2C1288.2,1195.7,1211.3,1211.2,1211.3,1211.2z"/>
			<path class="st9" d="M1268.4,1099.8c-9.4-0.3-27.6-3.3-39.5,7.4c-0.2,0.2-1.2,1.2-2.4,2.6c-1.1,1.3-4.9,5.9-8.4,12
				c-2.5,4.5-4.8,9.7-7.1,17.4c-4,13.7-5.2,25.4-5.6,30.4c-2.2,28.6,0,41.8,1.9,50.7c8.5,4.4,30.4,12.2,56.4,8.3
				c11.9-1.8,21.4-5.7,28.1-9.3c-6.8-20.5-1.5-31.4,1-41.5c3.6-14.4,3.6-13.3,6.6-24.7c4.8-18.9,5.6-38.2,2.3-42.1
				C1293,1100.4,1276.8,1100.1,1268.4,1099.8z"/>
			<path class="st2" d="M1226.6,1440.3c0,0,7.4-0.6,8,0.9s0.6,5.4-3.9,4.7C1226.2,1445.1,1226.1,1441.5,1226.6,1440.3z"/>
			<path class="st9" d="M1243.6,1103.2c-10.3-6.7-37.1,14.2-45.2,20c-31.5,22.4-27.7,36.3-42.1,29.4c-9.7-4.7-11-18.9-27.5-24.3
				c-2.9-0.9-5.4-1.3-7.1-1.5l-5.5,2.9c-1.9,0.6-3.9,1.3-5.5,2.9c-1.6,3.3-3,7.3-3.8,12c0.2,1.7,0.5,4.4,1.2,7.8
				c0.6,2.8,7.9,33,33.1,42.3c4.6,1.7,8.5,2.2,10.4,2.4c8.3,1,15.8-0.2,28.7-4.7c21.8-7.5,38.4-14.5,53.1-31.8
				c0.7-0.8,1.3-1.6,1.8-2.5C1246.3,1141.5,1253.5,1109.7,1243.6,1103.2z"/>
			<g>
				<path class="st13" d="M1242,1089c-2.9-4.9-1.6-10.5-1.3-11.7c1.2-5.1,1.7-5.9,2.6-6.9l1.3-1.4c0,0,0.1-0.1,0.2-0.1
					c0.9-0.6,4.4-1.7,5.1-1.7c2.4-0.1,7.2,8.4,10,21.6c0.2,0.5,0.4,0.9,0.7,1.4c1.4,3,2.6,5.9,3.6,8.8c16.1,1.4,18.4,3.3,18.4,4.4
					c0.2,2.3-9,5-16,6c-15.1,2.2-30.6-1.8-30.5-4.6c0-1.2,3-2.8,15.8-4.5c-0.3-2.1-0.6-4.2-0.9-6.3
					C1250.1,1093.7,1244.1,1092.7,1242,1089z"/>
				<path class="st2" d="M1238.9,1066.5c1.1,4,4.1,7.8,5.3,8.3c0.1,0.1,1,0.4,1.9,1.2c0.1,0.1,0.2,0.2,0.4,0.4
					c1.6,2.3-1.7,6.4-0.6,7.3c0.8,0.7,3.2-1.2,3.8-0.5c0.5,0.6-1.4,2.6-0.9,3.3c0.4,0.5,1.7-0.4,2.8,0.3c0.6,0.3,0.5,0.7,1.4,2
					c0.5,0.7,1.1,1.5,1.5,1.9c2,2,6.2,1.8,6.7,0.7c0.1-0.3-0.1-0.5-0.1-1.4c0,0,0-0.9,0.3-2c0.5-1.6,2.2-3.1,3.8-5
					c3-3.6,3.4-6.2,3.5-7c0-0.3,0-0.5,0.1-0.7c0.2-3.2-1-7.6-3-9.9c-3.4-3.9-7.9-0.4-13.2-3.8c-6.1-3.9-5.2-11.7-8-11.7
					C1241.3,1049.7,1236.9,1059.1,1238.9,1066.5z"/>
				<path class="st13" d="M1247.1,1082.4c0.6-1.6,2.7-0.8,3.2,0.9c0.5,1.8-0.7,4-2.5,4.1C1246,1087.5,1246.2,1084.5,1247.1,1082.4z"
					/>
			</g>
		</g>
		<g>
			<path class="st17" d="M496.8,1267.2c-0.9,0-1.6-0.7-1.6-1.6V821c0-0.9,0.7-1.6,1.6-1.6s1.6,0.7,1.6,1.6v444.5
				C498.5,1266.4,497.7,1267.2,496.8,1267.2z"/>
			<path class="st17" d="M691,1258c-0.9,0-1.6-0.7-1.6-1.6V821c0-0.9,0.7-1.6,1.6-1.6s1.6,0.7,1.6,1.6v435.3
				C692.6,1257.3,691.9,1258,691,1258z"/>
			<path class="st18" d="M671.4,1319.3c-0.7,0-1.4-0.5-1.6-1.3L553.2,825.4c-0.2-0.9,0.3-1.8,1.2-2s1.8,0.3,2,1.2L673,1317.2
				c0.2,0.9-0.3,1.8-1.2,2C671.6,1319.3,671.5,1319.3,671.4,1319.3z"/>
			<path class="st18" d="M851.8,1295.1c-0.7,0-1.4-0.5-1.6-1.2L730.7,825.4c-0.2-0.9,0.3-1.8,1.2-2s1.8,0.3,2,1.2L853.4,1293
				c0.2,0.9-0.3,1.8-1.2,2C852,1295,851.9,1295.1,851.8,1295.1z"/>
			<polygon class="st19" points="739.2,825.4 553.2,829.4 493.6,825.4 493.6,816.7 632.2,813.8 739.2,816.7 			"/>
			
				<linearGradient id="SVGID_00000127753945768605890390000004744283222572517307_" gradientUnits="userSpaceOnUse" x1="-1507.5441" y1="827.1806" x2="-1684.6669" y2="826.5821" gradientTransform="matrix(1 0 0 -1 2222 1650)">
				<stop  offset="0.494" style="stop-color:#EBEFF2"/>
				<stop  offset="1" style="stop-color:#FFFFFF"/>
			</linearGradient>
			<polygon style="fill:url(#SVGID_00000127753945768605890390000004744283222572517307_);" points="739.2,825.4 553.2,829.4 
				553.2,820.6 739.2,816.7 			"/>
			<path class="st18" d="M580,933.1c-0.9,0-1.6-0.7-1.6-1.6c-0.1-0.9,0.6-1.7,1.6-1.7l175.2-9.8c0.9-0.1,1.7,0.6,1.7,1.6
				c0.1,0.9-0.6,1.7-1.6,1.7L580,933.1L580,933.1z"/>
			<path class="st18" d="M603.1,1031c-0.9,0-1.6-0.7-1.6-1.5c-0.1-0.9,0.6-1.7,1.5-1.8l178.2-11.9c0.9,0,1.7,0.6,1.8,1.5
				s-0.6,1.7-1.5,1.8L603.3,1031C603.2,1031,603.2,1031,603.1,1031z"/>
			<path class="st18" d="M626.2,1128.3c-0.9,0-1.6-0.7-1.6-1.5c-0.1-0.9,0.6-1.7,1.5-1.8l179.5-13.7c0.9-0.1,1.7,0.6,1.8,1.5
				s-0.6,1.7-1.5,1.8l-179.5,13.7C626.3,1128.3,626.2,1128.3,626.2,1128.3z"/>
			<path class="st18" d="M649.1,1225.1c-0.8,0-1.6-0.6-1.6-1.5c-0.1-0.9,0.6-1.7,1.5-1.8l180.6-16.1c0.9-0.1,1.7,0.6,1.8,1.5
				s-0.6,1.7-1.5,1.8l-180.6,16.1C649.2,1225.1,649.2,1225.1,649.1,1225.1z"/>
		</g>
		<g>
			<path class="st2" d="M573.4,805.1c0,0-17.2,8.8-17.5,10.2s11.1-0.5,15.7-0.3c4.6,0.2,8.5-1.3,8-3.5c-0.4-2.2-2-7.7-2-7.7
				L573.4,805.1z"/>
			<path class="st13" d="M572.7,798l1,8.7c0,0,2.7,1.1,4.6-0.2l0.8-9.5L572.7,798z"/>
			<path class="st2" d="M654,798.2l2,3.6c0.6,1,0.7,2.2,0.5,3.4c-0.7,3-2.1,8.8-2.7,10.4c-0.8,2.1-12,3.3-12,3.3s-1-1.6,1.3-3.5
				s3.8-2.2,4.6-5s1.4-10.7,1.4-10.7L654,798.2z"/>
			<path class="st13" d="M645.6,789c0.7,0.7,4.3,12.8,4.3,12.8s1.2,1.7,3.4-0.8c2.2-2.4,1-1.1,1-1.1l-0.4-12L645.6,789z"/>
			<path class="st11" d="M563.3,623.5c-0.9,25.9-0.9,54,0.4,84.1c1.5,33.9,4.5,65.1,8.3,93.5c1.4,0.1,2.9,0.1,4.4,0
				c1,0,2.1-0.1,3-0.2c2-5.9,4.3-13.6,6.4-22.9c2.2-9.7,3.5-18.4,4.5-26.8c3.3-29.3-0.6-31.9,2.1-53.6c2.4-19.3,5.8-20,9.8-47.3
				c4.3-29.7,1.1-34.1-0.5-35.7C595.1,607.8,579.4,612.5,563.3,623.5z"/>
			<path class="st21" d="M601.7,614.7c-6.4-6.5-20.9-2.6-36.2,7.4c17.7,21.3,19.6,35.2,17.5,44.2c-2.4,10.2-9.7,13.1-9.6,24.2
				c0,13.6,11,17.3,10.8,31.7c-0.2,9.5-5,9.4-6.1,21.2c-1.4,13.9,5,18.8,2.9,29.1c-0.9,4.4-3.4,10.2-10.6,16.2
				c0.5,4.2,1,8.4,1.6,12.5c1.4,0,2.9,0.1,4.4,0c1,0,2.1-0.1,3-0.2c2-5.9,4.3-13.6,6.4-22.9c2.2-9.7,3.5-18.4,4.5-26.8
				c3.3-29.3-0.6-31.9,2.1-53.6c2.4-19.3,5.8-20,9.8-47.3C606.5,620.7,603.3,616.3,601.7,614.7z"/>
			<path class="st11" d="M574.2,623.1c15.2,24.9,31.6,55.8,46.3,92.9c11.1,28,19.1,54.3,25,77.7c0.8,0.4,2.7,1.2,5.1,0.9
				c3.3-0.5,5.3-2.8,5.8-3.5c2.4-16.8,2.1-31,1.3-41.3c-0.5-6.6-1.4-17.5-5.2-31c-4.2-15.1-7.1-16-12.6-32
				c-5.7-16.6-4.3-20.8-9.8-41.6c-2.2-8.5-6-21.3-12.2-36.5C603.4,613.5,588.8,618.3,574.2,623.1z"/>
			<path class="st2" d="M570.2,515c-16.8-11-24-9.7-28.9-19.6c-4.8-9.7-4.8-25.2,3.2-33.4c0.6-0.6,6.7-6.6,14.9-5.6
				c12.4,1.6,13.3,17.3,27.3,24.5c11.8,6.1,24.7,1.8,33.4-1.1c21-7,24.1-20.2,35-18.1c13.6,2.6,14.8,24.6,28.4,25.9
				c9.1,0.9,11.2-8.6,23.2-11.2c14-3.1,29.4,6,38,17.1c15.8,20.3,11.6,50.5,1.7,68.9c-8.1,15.2-25.5,32.6-40.2,28.8
				c-11.6-3-15.4-17.6-25.4-16.1c-7.1,1-7.4,8.7-15.7,12.7c-13.8,6.5-30.8-5.9-35.4-9.3c-13.2-9.7-11.1-15.8-28.2-35.2
				C594.7,535.7,585,524.7,570.2,515z"/>
			<path class="st13" d="M449.9,472.3c0,0-2.8-4-4.6-6.9c-1.8-3-10.2-11.2-10.2-11.2s-0.6,1.3,1.2,3.4c1.8,2.1,5.6,5.7,4.7,7.2
				s-3.3,2.9-1.6,5.8c1.8,2.9,4.9,0.9,6.5,3.2c1.6,2.3,3.2,4.8,3.2,4.8L449.9,472.3z"/>
			<path class="st5" d="M451,469.7c-1.9,3.2-3.8,6.5-5.7,9.7c2,6.5,5.4,15.5,11.4,25.1c2.7,4.2,10.9,16.5,24.8,26.5
				c19,13.5,53.5,26.1,63.6,11.7c9-12.8-5.5-41.3-8.2-46.4c-5.4,2.8-14.4,6.6-25.8,7.5c-3.8,0.3-13.5,1-24.6-2.8
				C466.1,494.1,454.8,476.4,451,469.7z"/>
			<path class="st5" d="M514.8,513.1c1,4.8,15.9,2.2,19,10.9c1.7,4.7-1.9,7.6-2,15.6c-0.2,8.9,4.1,13.9,7.3,20.9
				c4.8,10.2,4.8,20.3,4.8,40.3c0.1,28.6-6.3,34.3-0.9,43.5c7,12,23.9,12.7,28.4,13c15.6,0.7,17.4-7.6,34.3-8.6
				c19.3-1.1,22.1,9.4,35.9,4.9c12.6-4.1,16.9-15,26.7-12.7c6.1,1.4,7.8,6.4,13.6,5.9s11.8-6.3,12.2-12.2
				c0.5-7.3-7.5-16.6-20.1-16.6c-5,2-13.3,4.2-22.5,1.7c-15.1-4.1-23-18.5-31.7-34.5c-6-11-17.1-31.3-17.3-57.9
				c-0.1-11,1.8-14.2-0.9-20c-8.7-19-42.4-16.2-45.2-15.9C533.4,493.6,513.6,507.3,514.8,513.1z"/>
			<g>
				
					<linearGradient id="SVGID_00000134960321759599971180000018413149613796250815_" gradientUnits="userSpaceOnUse" x1="544.5146" y1="1089.8503" x2="518.3435" y2="1046.4709" gradientTransform="matrix(1 0 0 -1 0 1650)">
					<stop  offset="3.597000e-03" style="stop-color:#6165D7"/>
					<stop  offset="1" style="stop-color:#AA80F9"/>
				</linearGradient>
				<path style="fill:url(#SVGID_00000134960321759599971180000018413149613796250815_);" d="M507.3,537.1l42.3,1.8
					c0.5,0,0.9,0.4,1,0.8l19.9,61.8c0.3,0.9-0.6,3.1-1.4,3l-41.8-6.4c-0.4-0.1-0.8-0.4-0.9-0.8l-20.7-57.7
					C505.3,538.9,506.4,537.1,507.3,537.1z"/>
				<path class="st2" d="M506.6,538.6l42.3,1.8c0.5,0,0.9,0.4,1,0.8l19.9,61.8c0.3,0.9-0.4,1.8-1.2,1.7l-42.1-5.1
					c-0.4-0.1-0.8-0.4-0.9-0.8l-20.2-58.6C505.2,539.5,505.8,538.6,506.6,538.6z"/>
				<path class="st11" d="M518.2,540.9l-1.6-4.9c-0.1-0.4,0.1-0.9,0.6-0.9h15.4c0.3,0,0.5,0.2,0.6,0.5l1.5,5.5
					c0.1,0.4-0.2,0.9-0.6,0.9l-15.3-0.5C518.5,541.4,518.3,541.2,518.2,540.9z"/>
				
					<linearGradient id="SVGID_00000063595329451911993380000005996887977225217439_" gradientUnits="userSpaceOnUse" x1="559.8229" y1="1095.5637" x2="495.3134" y2="1061.228" gradientTransform="matrix(1 0 0 -1 0 1650)">
					<stop  offset="0" style="stop-color:#AA80F9"/>
					<stop  offset="0.9964" style="stop-color:#6165D7"/>
				</linearGradient>
				
					<path style="opacity:0.3;fill:url(#SVGID_00000063595329451911993380000005996887977225217439_);enable-background:new    ;" d="
					M544.2,589.9c-2.7-10,1.8-16.5-2.8-24.2c-6.5-11-20.6-6.3-24.9-15.2c-1.2-2.4-1.7-5.9-0.2-11.5l-9.7-0.4c-0.8,0-1.4,0.9-1.1,1.7
					l20.2,58.6c0.2,0.4,0.5,0.8,0.9,0.8l25.6,3.1C547.6,598.4,545.3,593.9,544.2,589.9z"/>
			</g>
			<path class="st13" d="M575.1,582.5c0,0-6.4-1.4-8.9-3.2c-2.5-1.7-5.1-4.5-8.7-4.4c-3.6,0.2-7.3,2.2-5.6,2.7s4.8,4.2,7.2,5.7
				s7.9,1.6,8.9,1.5s5,2.6,5,2.6L575.1,582.5z"/>
			<path class="st5" d="M673.9,618c-5,2-13.3,4.2-22.5,1.7c-15.1-4.1-23-18.5-31.7-34.5c-6-11-17.1-31.3-17.3-57.9
				c-0.1-11,1.8-14.2-0.9-20c-0.4-0.9-0.9-1.8-1.5-2.6c-6.6,5-9.2,10-9.9,14.4c-1.8,10.7,6.8,19.4,2.3,28.6
				c-4.3,8.8-14.8,6.4-17.1,13.9c-2.4,8.2,9.3,13.1,9.8,25.7c0.6,15.1-15.6,22.5-12.8,32.6c2.5,8.8,16.1,8.1,16.1,12.8
				c0,5.6,0.4-6-16.1-12.8c-5-2.1-28.5,15.3-31.4,12.2c-0.6,4.9-0.5,8.3,1.9,12.3c7,12,23.9,12.7,28.4,13
				c15.6,0.7,17.4-7.6,34.3-8.6c19.3-1.1,22.1,9.4,35.9,4.9c12.6-4.1,16.9-15,26.7-12.7c6.1,1.4,7.8,6.4,13.6,5.9
				s11.8-6.3,12.2-12.2C694.6,627.3,686.5,618,673.9,618z"/>
			<path class="st5" d="M575,579.5c-2,3.9-3.9,7.8-5.9,11.7c3,1.7,35.5,18.8,59,1.8c2.9-2.1,10.6-7.7,14.8-18.6
				c4.6-12,2-23.2,0.3-30.5c-4.1-18-15.8-36.9-32.4-44.5c-6.3-2.9-13.9-4.4-20.9-5.7c-6-1.2-15.4-2.6-15.6-1.6
				c-0.1,0.5,2.1,1.1,3.6,2.1c9.3,5.9-2.5,30.3,8.5,42c10.5,11.2,24.2,9.4,26.4,19.5c1,4.7-1.1,9-2,10.9
				C605.4,577.2,591.2,581.9,575,579.5z"/>
			<path class="st13" d="M553,473.8c0,0,3.8,12.4,8.6,14.3c4.7,1.9,12.2,4.1,13.2,5c0.9,0.9-25.2,10.3-39.9,6l0,0
				c4.2-2,5.3-2.7,5.3-2.7c1.1-0.7,3.2-1.9,5.1-3.8c1.3-1.3,3.4-3.8,5-7.8l-1.4-7L553,473.8z"/>
			<path class="st13" d="M554.7,479.2c0,0-2.2,5.5-7.4,4.6c-4.7-0.8-4.4-13.9-1.3-16.2c1.1-0.7,3.2-1,4.8-0.4c1.1,0.5,4.5,3.5,3.7,8
				c1-0.6,2.1-0.5,2.4,0c0.5,0.7-0.3,2-0.4,2.3C555.9,478.6,555.1,479,554.7,479.2z"/>
		</g>
		<g>
			<path class="st13" d="M2054.8,911.3c0,0-3-0.4-2.1-6.1c0.7-4.5,0.2-6-0.9-5.2c-1.1,0.8-1.2,3.4-1.2,3.4s-3.9-3.3-5.4-7.6
				c-1.6-4.3-2.6-0.7-3,1.5c-0.3,2.2,2.3,8.9,3.7,10.1c1.5,1.2,3.6,6.7,3.6,6.7L2054.8,911.3z"/>
			<polygon class="st13" points="2065,966.1 2069,958.6 2069,948.3 2061.4,966.1 			"/>
			<path class="st2" d="M2173.8,1261.2c0,0-19.8,9-20.2,10.5c-0.3,1.4,12.8-0.5,18.1-0.3s9.7-1.4,9.2-3.6c-0.5-2.3-2.4-7.9-2.4-7.9
				L2173.8,1261.2z"/>
			<path class="st13" d="M2173,1253.9l1.2,8.9c0,0,3.1,1.1,5.2-0.2l0.9-9.8L2173,1253.9z"/>
			<path class="st2" d="M2266.4,1254.1l2.3,3.7c0.6,1,0.8,2.3,0.5,3.5c-0.8,3.1-2.4,9.1-3.1,10.6c-1,2.1-13.8,3.4-13.8,3.4
				s-1.1-1.6,1.5-3.6c2.7-1.9,4.4-2.3,5.3-5.1c0.9-2.9,1.6-11,1.6-11L2266.4,1254.1z"/>
			<path class="st13" d="M2256.8,1244.7c0.8,0.7,5,13.2,5,13.2s1.3,1.7,3.9-0.8c2.5-2.5,1.1-1.1,1.1-1.1l-0.5-12.3L2256.8,1244.7z"
				/>
			<path class="st11" d="M2162.1,1074.5c-1,26.6-1.1,55.6,0.4,86.5c1.7,34.8,5.2,67,9.6,96.2c1.6,0.1,3.3,0.1,5.1,0
				c1.2,0,2.4-0.1,3.5-0.2c2.3-6,4.9-14,7.3-23.5c2.5-10,4-19,5.1-27.5c3.8-30.2-0.7-32.8,2.4-55.2c2.7-19.8,6.6-20.6,11.2-48.7
				c5-30.5,1.3-35.1-0.5-36.7C2198.7,1058.3,2180.7,1063.1,2162.1,1074.5z"/>
			<path class="st24" d="M2206.4,1065.3c-7.3-6.7-24-2.6-41.7,7.6c20.3,21.9,22.5,36.2,20.1,45.4c-2.8,10.4-11.1,13.4-11.1,24.9
				c0,14,12.7,17.7,12.4,32.6c-0.2,9.8-5.7,9.7-7.1,21.8c-1.6,14.3,5.7,19.3,3.4,29.9c-1,4.6-3.9,10.5-12.1,16.7
				c0.6,4.4,1.2,8.7,1.8,12.9c1.6,0.1,3.3,0.1,5.1,0c1.2,0,2.4-0.1,3.5-0.2c2.3-6,4.9-14,7.3-23.5c2.5-10,4-19,5.1-27.5
				c3.8-30.2-0.7-32.8,2.4-55.2c2.7-19.8,6.6-20.6,11.2-48.7C2211.9,1071.6,2208.2,1067,2206.4,1065.3z"/>
			<path class="st11" d="M2174.7,1074c17.5,25.6,36.3,57.4,53.2,95.5c12.7,28.8,22,55.9,28.8,80c0.9,0.4,3.1,1.3,5.9,0.9
				c3.8-0.5,6-2.9,6.6-3.6c2.8-17.3,2.5-31.9,1.5-42.5c-0.6-6.8-1.7-18-6-31.9c-4.8-15.6-8.1-16.4-14.4-32.9
				c-6.5-17.1-5-21.4-11.2-42.8c-2.6-8.8-6.9-21.9-14-37.5C2208.3,1064.2,2191.5,1069.1,2174.7,1074z"/>
			<path class="st13" d="M2168.2,929.3c0,0,0.6,7.5,3.1,13c2.3,5,13.4,7.9,15.7,8.9c2.3,1.1-4.1,4.6-10.5,5.4
				c-6.5,0.9-25,0-28.4-2.4s2.6-2.4,7.2-4.2c4.6-1.8,7-11,6-15S2168.2,929.3,2168.2,929.3z"/>
			<g>
				<path class="st2" d="M2158.8,923.6c-3.4-4.5-2-13.4,1.1-14.5c0.9-0.3,1.5,0.1,10.1,7.2c4.3,3.5,6.4,5.3,6.5,7.7
					c0.1,1.5-0.6,3.2-1.6,4.5c-0.5,0.6-1.3,1.4-3.1,2.7c-1.5,1.2-1.5,1.2-1.9,1.5c-1.1,0.8-3.2,2.1-6.6,3.4c0.1-0.8,0.2-1.9,0.1-3.1
					c0-0.5-0.2-2.2-0.7-3.9C2161.7,926.3,2159.9,925.1,2158.8,923.6z"/>
				<path class="st13" d="M2167.5,935.2c0,0-4.2,3.4-9.3,1.1c-4.6-2-1.5-12.8,2.4-14c1.3-0.4,3.4,0,4.9,1.1c0.9,0.6,1,1.1,2.5,2.1
					c1.3,0.9,1.8,0.9,2.1,1.4c0.4,0.7,0.4,2-1.7,4.7c1.2-0.6,2.4-0.5,3.1,0.1c0.1,0.1,0.3,0.4,0.4,0.8
					C2172,934.1,2170.4,935.2,2167.5,935.2z"/>
			</g>
			<path class="st2" d="M2154.7,958.2c-16.7-6-29.1,21-54.4,17.3c-16.8-2.5-28.6-17.1-36.9-11.6c-2.7,1.8-3.8,4.9-4.3,7.1
				c3.2,7.9,11.8,25.9,31.1,36.7c28.2,15.7,71,11.1,79.9-9.5C2175.8,984.6,2167.6,962.9,2154.7,958.2z"/>
			<path class="st2" d="M2245.8,1083.4c-7.3,6.6-19.9,7.1-22.7,7.3c-13,0.6-14.8-5.1-27.7-4.5c-12.9,0.5-16.3,6.4-25.4,4.1
				c-1.6-0.4-7.9-2.3-14.7-11c-19-24.9-3.1-52.3-22.1-87.5c-2.9-5.3-5.4-10-10.4-15c-16.4-16.2-32-8.8-52.6-21.8
				c-16.9-10.7-28.3-32.1-23.4-41.8c2.2-4.4,4.2-3.8,7.1-4.2c5,8.5,17.5,18.9,31.8,25c13.6,5.7,24,3,44.8,3.3
				c12.7,0.2,34.5,0.5,51.8,6.7c43.2,15.5,59.2,68.1,64,83.6C2250.4,1041.2,2259.5,1071.1,2245.8,1083.4z"/>
			<path class="st25" d="M2210.4,1071.5c4.7-6.1-19.6-22.8-16.3-42.4c2.7-16.5,22.2-18.1,27.2-33.3c2.2-6.6,1.7-16.1-7.4-30.3
				c20.1,21.8,29,51.1,32.4,62.1c4.1,13.6,13.2,43.5-0.5,55.8c-7.3,6.6-19.9,7.1-22.7,7.3c-13,0.6-14.8-5.1-27.7-4.5
				c-12.9,0.5-16.3,6.4-25.4,4.1c-1.6-0.4-7.9-2.3-14.7-11c-0.1-0.1-0.2-0.3-0.3-0.4c5.1-4.8,11.2-8.7,18.4-10.4
				C2191.4,1064.4,2206.6,1076.4,2210.4,1071.5z"/>
		</g>
	</g>
</g>
</svg>
