<?xml version="1.0" encoding="utf-8"?>
<!-- Generator: Adobe Illustrator 26.0.2, SVG Export Plug-In . SVG Version: 6.00 Build 0)  -->
<svg version="1.1" xmlns="http://www.w3.org/2000/svg" xmlns:xlink="http://www.w3.org/1999/xlink" x="0px" y="0px"
	 viewBox="0 0 2475 1650" style="enable-background:new 0 0 2475 1650;" xml:space="preserve">
<style type="text/css">
	.st0{opacity:0.5;fill:#FFFFFF;}
	.st1{opacity:0.8;fill:#D1AAD7;}
	.st2{fill:#FFFFFF;}
	.st3{fill:#D1AAD7;}
	.st4{fill:url(#SVGID_1_);}
	.st5{fill:url(#SVGID_00000148632886716414896300000004524192684622222509_);}
	.st6{fill:#7B8FDD;}
	.st7{opacity:0.68;}
	.st8{fill:#BBDEF2;}
	.st9{fill:#C88BC4;}
	.st10{fill:#86BFF2;}
	.st11{clip-path:url(#SVGID_00000115508463188645001300000013677841532306821527_);fill:#D1AAD7;}
	.st12{clip-path:url(#SVGID_00000100370310976043432510000014470601493378254266_);fill:#D1AAD7;}
	.st13{clip-path:url(#SVGID_00000064320315369337208370000001870158671312451491_);fill:#D1AAD7;}
	.st14{fill:#91B3FA;}
	.st15{opacity:0.59;fill:#BBDEF2;}
</style>
<g id="Background">
</g>
<g id="Illustration">
	<g>
		<path class="st0" d="M2279.2,887.1c-5.1-13.6-12.4-26-22.7-36.6c-30.5-31.5-83.8-36.3-110.4-71.1c-24.9-32.5-19.4-95.2-23.2-134.9
			c-9.5-98.3-9.8-200.5-60.6-288.2c-97.8-168.7-326.2-211.6-493.5-176.2c-174.1,36.8-323.8,156.4-500.9,182.3
			c-72.7,10.6-150.1,3.8-216.8-31.3c-89-46.8-160.4-117.6-265-113.5c-168.7,6.8-300.5,67-338.1,259.8
			c-26.1,133.9,14.4,217.5,73.6,330.8c38.4,73.5,40.7,165.3,17.7,244.6c-10.4,35.8-22.4,60.6-23,100c-1.3,85.5,18.1,138.3,73,200.2
			c47.6,53.6,109.4,96.3,175.1,123.2c118.6,48.5,251.4,53.3,377.2,30.6c159.2-28.7,312.1-99.8,473.8-99.8
			c146.1,0,285.6,58.2,429.6,83.1c73.3,12.7,165.4,18.1,226.5-33.6c48.7-41.2,25.3-117,51-170.1c28.4-58.7,80.8-100.7,114.7-155.6
			c25.2-40.8,39.5-87.9,47.3-135.5C2290.4,959.6,2291.5,920.1,2279.2,887.1z"/>
		<path class="st1" d="M2244.4,772.7c-26.4,113.4-211,766.6-953.3,697.5c0,0-6.9-462.4,938.5-709.4
			C2237.8,758.7,2246.1,765.3,2244.4,772.7z"/>
		<path class="st2" d="M2144.3,847.3c-24.2,32.7-49.7,64.3-75.9,95.5c-26.2,31.1-53.1,61.6-80.7,91.4
			c-55.2,59.7-113.4,116.6-174.4,170.3c-30.7,26.7-62.1,52.5-94.4,77.4c-32.4,24.6-65.7,48.1-99.8,70.3
			c-34.4,21.9-69.6,42.4-105.8,61c-36.4,18.3-73.9,34.6-112.3,48.4c-2.1,0.8-4.5-0.3-5.3-2.5c-0.8-2.1,0.3-4.5,2.5-5.3l0,0l0.1,0
			c38.1-13.5,75.3-29.6,111.5-47.5c36.1-18.3,71.2-38.6,105.5-60.2c34.1-21.9,67.3-45.2,99.7-69.5c32.2-24.6,63.7-50.2,94.4-76.6
			c61.2-53.3,119.5-109.8,174.9-169.1c27.7-29.6,54.7-59.9,81-90.8c26.2-31,51.9-62.4,76.2-94.9l0,0c0.6-0.8,1.7-0.9,2.4-0.4
			C2144.7,845.4,2144.8,846.5,2144.3,847.3z"/>
		<path class="st3" d="M1893.4,157.4c43.1,128,259.2,881.3-517.5,1174.6c0,0-289.1-465.9,495.6-1179.4
			C1878.4,146.3,1890.6,149,1893.4,157.4z"/>
		<linearGradient id="SVGID_1_" gradientUnits="userSpaceOnUse" x1="1435.0264" y1="777.9978" x2="1839.5378" y2="777.9978">
			<stop  offset="0" style="stop-color:#DAE3FE"/>
			<stop  offset="1" style="stop-color:#E9EFFD"/>
		</linearGradient>
		<path class="st4" d="M1839.5,281.8c-1.6,22.8-4,45.4-6.7,68c-2.7,22.6-5.7,45.2-9.1,67.7c-6.7,45-14.7,89.9-24,134.4
			c-18.6,89.1-42.2,177.3-72.3,263.3c-30.2,85.9-67,169.8-113.5,248.4c-23.2,39.3-49,77.1-77.6,112.7c-14.4,17.7-29.3,35-45.2,51.5
			c-15.9,16.4-32.5,32.2-49.8,47.1c-1.6,1.4-4,1.2-5.4-0.4s-1.2-4,0.4-5.4l0,0l0,0c17.2-14.7,33.7-30.2,49.5-46.4
			c15.8-16.2,30.7-33.3,45-50.8c28.5-35.2,54.3-72.6,77.5-111.6c46.5-77.9,83.5-161.3,114-246.9c30.4-85.6,54.3-173.5,73.2-262.4
			c9.4-44.5,17.6-89.2,24.5-134.1c3.4-22.5,6.6-45,9.3-67.5c2.7-22.6,5.2-45.2,6.9-67.8l0,0c0.1-0.9,0.8-1.6,1.7-1.5
			C1838.9,280.2,1839.6,280.9,1839.5,281.8z"/>
		<path class="st3" d="M1011.3,1099.1c0,0-193.5-587.3-621.3-857.6c-5.6-3.5-12.9-0.2-13.8,6.4
			C361.8,351.1,299.2,1006.4,1011.3,1099.1z"/>
		
			<linearGradient id="SVGID_00000008146993289728314730000000891552195871425162_" gradientUnits="userSpaceOnUse" x1="448.554" y1="742.0974" x2="989.1681" y2="742.0974">
			<stop  offset="0" style="stop-color:#DAE3FE"/>
			<stop  offset="1" style="stop-color:#E9EFFD"/>
		</linearGradient>
		<path style="fill:url(#SVGID_00000008146993289728314730000000891552195871425162_);" d="M453.4,409.2
			c14.3,32.9,30,65.4,46.9,97.2c16.7,31.9,34.3,63.3,52.8,94.1c18.6,30.8,37.8,61.2,58.2,90.8c20.2,29.7,41.3,58.8,63.5,87
			c22.1,28.3,45,56,69.2,82.5c3,3.3,5.9,6.7,9,10l9.2,9.8c6.2,6.5,12.2,13.2,18.6,19.5l19,19.1l4.7,4.8l4.9,4.6l9.8,9.3
			c12.8,12.6,26.5,24.2,39.8,36.3c6.8,5.9,13.7,11.6,20.6,17.4l10.3,8.7c3.5,2.9,7.1,5.5,10.6,8.3l21.2,16.7l21.8,15.9l10.9,7.9
			l11.2,7.5l22.3,15.2l0.1,0c1.2,0.8,1.5,2.4,0.7,3.5c-0.8,1.1-2.2,1.4-3.4,0.8c-62.6-36.4-121.6-79.4-175.1-128.5l-10.1-9.2l-5-4.6
			l-4.9-4.7l-19.5-19c-6.5-6.3-12.7-13-19-19.5l-9.5-9.8c-3.1-3.3-6.1-6.7-9.2-10c-24.8-26.6-47.9-54.6-70.4-83
			c-44.7-57.2-85-117.7-121-180.7c-18-31.5-34.8-63.6-50.5-96.2c-7.8-16.3-15.2-32.9-22.4-49.5c-7.2-16.6-14-33.4-20.1-50.5
			c-0.5-1.3,0.2-2.8,1.5-3.2C451.5,407.3,452.9,408,453.4,409.2L453.4,409.2z"/>
		<path class="st1" d="M1129.7,1456.5c0,0-394.4-555.5-772.7-534c-6.7,0.4-11.3,6.9-9.4,13.4
			C369.9,1010.8,514.7,1401.1,1129.7,1456.5z"/>
		<path class="st2" d="M448.9,1003.6c24.9,21.6,50.7,42.4,76.6,62.9c13,10.2,26,20.4,39.2,30.4c13.2,9.9,26.3,20,39.7,29.8
			c13.4,9.7,26.7,19.5,40.1,29.2l40.6,28.5c27.3,18.6,54.7,37.2,82.5,55c27.5,18.3,55.9,35.3,83.9,52.8l42.8,25.1
			c7.1,4.2,14.2,8.4,21.4,12.5l21.7,12c14.5,7.9,28.9,16,43.5,23.9l44.1,22.7c7.4,3.8,14.6,7.7,22,11.3l22.4,10.7l44.7,21.4l0.1,0
			c1.2,0.6,1.7,2,1.1,3.2c-0.6,1.2-2,1.7-3.2,1.2c-60.2-27.7-120-56.3-177.8-88.9l-21.8-11.9c-7.2-4.1-14.3-8.3-21.5-12.4l-43-25
			c-28.2-17.4-56.7-34.4-84.3-52.7c-55.7-35.9-110.1-73.9-163.2-113.5c-13.3-9.8-26.4-20-39.6-30c-13.1-10.1-26.1-20.4-39.1-30.6
			c-25.8-20.8-51.3-41.9-76.2-63.9c-1-0.9-1.1-2.4-0.2-3.4C446.3,1002.8,447.8,1002.7,448.9,1003.6L448.9,1003.6z"/>
		
			<ellipse transform="matrix(4.385832e-02 -0.999 0.999 4.385832e-02 326.3113 2121.9385)" class="st6" cx="1271.7" cy="890.5" rx="590.3" ry="637.2"/>
		<g class="st7">
			<path class="st2" d="M1434.5,893.3c-0.2,104.1-7.3,208.4-25.6,311.1c-4.6,25.6-10,51.2-16.4,76.4c-6.4,25.3-13.9,50.3-23,74.8
				c-9.2,24.4-19.8,48.5-34.3,70.5c-7.3,10.9-15.5,21.4-25.7,30c-5.1,4.3-10.7,8.1-16.8,10.8c-6.1,2.8-12.8,4.5-19.6,4.6
				c-6.8,0.2-13.6-1.1-19.9-3.7c-6.3-2.5-12-6.1-17.2-10.3c-10.4-8.3-18.9-18.7-26.3-29.5c-14.7-21.8-25.5-45.9-34.8-70.2
				c-9.2-24.4-16.7-49.5-23.2-74.7c-6.5-25.3-11.9-50.8-16.6-76.4c-9.3-51.3-15.7-103-20-154.9c-4.3-51.9-6.4-104-6.7-156.1
				c-0.1-26,0.6-52.1,1.5-78.1c1-26,2.4-52,4.3-78c3.9-51.9,9.6-103.7,18.2-155.1c4.3-25.7,9.3-51.3,15.3-76.6
				c6-25.3,13-50.5,21.7-75.1c4.4-12.3,9.2-24.4,14.6-36.3c5.4-11.9,11.5-23.5,18.7-34.5c7.2-10.9,15.4-21.4,25.7-29.7
				c5.1-4.1,10.8-7.7,17-10.2c6.2-2.5,12.9-3.7,19.5-3.5c6.7,0.2,13.2,1.9,19.3,4.5c6.1,2.7,11.7,6.3,16.8,10.5
				c10.2,8.3,18.7,18.5,26.2,29.2c15,21.5,26.2,45.3,36,69.4c9.7,24.2,17.7,49.1,24.7,74.2c6.9,25.1,12.8,50.5,17.9,76.1
				C1426,684.9,1434.2,789.2,1434.5,893.3z M1426.8,893.3c0.1-51.9-1.9-103.8-6.2-155.5c-4.3-51.7-10.7-103.2-20.3-154.2
				c-4.8-25.5-10.4-50.8-17-75.9c-6.7-25-14.4-49.8-23.7-74c-9.4-24.1-20.4-47.7-34.9-69.1c-7.3-10.6-15.5-20.7-25.4-28.9
				c-4.9-4.1-10.3-7.7-16.1-10.3c-5.8-2.6-12-4.3-18.4-4.5c-6.3-0.2-12.7,1.1-18.5,3.5c-5.9,2.4-11.3,5.9-16.2,10
				c-9.9,8.2-17.8,18.5-24.8,29.3c-6.9,10.9-12.8,22.4-18.1,34.2c-5.3,11.8-9.9,23.9-14.1,36.2c-8.4,24.5-15.1,49.6-20.8,74.9
				c-5.7,25.3-10.4,50.8-14.4,76.4c-8,51.3-13.1,103-16.4,154.7c-3.3,51.8-4.4,103.7-4.4,155.6c-0.1,51.9,1.6,103.8,5.5,155.5
				c3.9,51.7,9.8,103.3,18.7,154.4c4.5,25.5,9.7,50.9,15.9,76.1c6.3,25.1,13.5,50,22.5,74.3c9,24.2,19.5,48,33.7,69.5
				c7.1,10.6,15.3,20.7,25.1,28.7c4.9,4,10.3,7.4,16.1,9.8c5.8,2.4,12,3.7,18.2,3.5c6.2-0.2,12.3-1.8,18-4.4
				c5.7-2.6,10.9-6.2,15.7-10.3c9.6-8.3,17.6-18.5,24.6-29.2c14-21.6,24.3-45.5,33.2-69.7c8.8-24.3,16-49.2,22.2-74.4
				c6.2-25.2,11.3-50.6,15.7-76.1c8.8-51.1,14.7-102.7,18.6-154.4C1425,997.1,1426.8,945.2,1426.8,893.3z"/>
			<path class="st2" d="M1697.1,893.3c-0.4,67-9,134.1-26.9,198.8c-18.3,64.5-45.8,126.6-83.2,182.3c-18.7,27.8-39.9,54-63.5,77.8
				c-23.6,23.8-49.8,45.1-78.2,62.9c-28.4,17.8-59.1,32-91.2,41.7c-32.1,9.7-65.6,14.7-99.2,14.8c-33.5,0-67.1-5-99.2-14.7
				c-32.1-9.6-62.9-23.9-91.3-41.6c-28.4-17.8-54.6-39.2-78.3-62.9c-23.7-23.8-44.9-49.9-63.6-77.8c-37.4-55.7-65-117.8-83.4-182.3
				c-9-32.3-15.7-65.3-20.2-98.6c-4.4-33.3-6.6-66.8-6.8-100.4c0.2-33.6,2.4-67.1,6.9-100.4c4.5-33.3,11.2-66.2,20.3-98.5
				c18.4-64.5,46-126.6,83.5-182.2c18.7-27.8,40-54,63.7-77.7c23.7-23.7,49.9-45,78.3-62.8c28.4-17.7,59.1-31.9,91.2-41.5
				c32.1-9.7,65.5-14.7,99-14.8c33.5,0.1,67,5.1,99,14.8c32.1,9.7,62.8,23.8,91.2,41.6c28.4,17.8,54.5,39.1,78.2,62.8
				c23.7,23.7,44.8,49.9,63.5,77.7c37.4,55.7,65,117.7,83.3,182.2C1688.1,759.2,1696.7,826.3,1697.1,893.3z M1688.3,893.3
				c-0.1-66.3-8.4-132.6-25.8-196.6c-17.6-63.9-44.1-125.6-80.5-181c-18.2-27.7-38.9-53.8-62.1-77.6c-23.2-23.7-48.8-45.1-76.8-63
				c-28-17.7-58.3-32-90.1-41.6c-31.7-9.7-64.9-14.7-98.1-14.8c-33.2,0.1-66.3,5.2-98,14.9c-31.7,9.7-62,24-90,41.7
				c-28,17.8-53.5,39.3-76.7,63c-23.1,23.7-43.8,49.9-62,77.6c-36.4,55.5-62.8,117.1-80.3,181c-8.7,32-15,64.6-19.3,97.4
				c-4.3,32.8-6.4,66-6.5,99.1c0.1,33.1,2.2,66.2,6.5,99.1c4.3,32.8,10.6,65.4,19.4,97.4c17.5,63.8,44,125.4,80.4,180.8
				c18.2,27.7,38.8,53.8,62,77.5c23.1,23.7,48.7,45.1,76.7,62.9c28,17.7,58.2,31.9,89.9,41.6c31.7,9.7,64.7,14.8,97.9,15
				c33.1-0.1,66.2-5.2,97.9-14.9c31.7-9.6,62-23.8,90-41.5c28-17.8,53.6-39.2,76.8-62.9c23.2-23.7,43.9-49.8,62.1-77.5
				c36.5-55.4,63-117,80.6-180.9C1679.9,1026,1688.2,959.6,1688.3,893.3z"/>
			<path class="st2" d="M738.9,664.5l132.8-1.1l132.8-0.6l265.6-0.5l265.6,0.5l132.8,0.7l132.8,1.2c0.2,0,0.4,0.2,0.4,0.4
				c0,0.2-0.2,0.4-0.4,0.4l-132.8,1.2l-132.8,0.7l-265.6,0.5l-265.6-0.5l-132.8-0.6l-132.8-1.1c-0.3,0-0.6-0.3-0.6-0.6
				C738.4,664.8,738.6,664.5,738.9,664.5z"/>
			<path class="st2" d="M893,442.1c31.4-0.5,62.9-0.7,94.3-1.1l94.3-0.6c31.4-0.3,62.9-0.2,94.3-0.3l94.3-0.2l188.6,0.5l94.3,0.7
				c31.4,0.4,62.9,0.6,94.3,1.2c0.2,0,0.4,0.2,0.4,0.4c0,0.2-0.2,0.4-0.4,0.4c-31.4,0.5-62.9,0.8-94.3,1.2l-94.3,0.7l-188.6,0.5
				l-94.3-0.2c-31.4-0.1-62.9-0.1-94.3-0.3l-94.3-0.6c-31.4-0.4-62.9-0.6-94.3-1.1c-0.3,0-0.6-0.3-0.6-0.6
				C892.4,442.4,892.7,442.1,893,442.1z"/>
			<path class="st2" d="M692.8,886.9l144.3-1.1l144.3-0.6l288.7-0.5l288.7,0.5l144.3,0.7l144.3,1.2c0.2,0,0.4,0.2,0.4,0.4
				c0,0.2-0.2,0.4-0.4,0.4l-144.3,1.2l-144.3,0.7l-288.7,0.5l-288.7-0.5l-144.3-0.6l-144.3-1.1c-0.3,0-0.6-0.3-0.6-0.6
				C692.2,887.2,692.5,886.9,692.8,886.9z"/>
			<path class="st2" d="M738.9,1109.4l132.8-1.1l132.8-0.6l265.6-0.5l265.6,0.5l132.8,0.7l132.8,1.2c0.2,0,0.4,0.2,0.4,0.4
				c0,0.2-0.2,0.4-0.4,0.4l-132.8,1.2l-132.8,0.7l-265.6,0.5l-265.6-0.5l-132.8-0.6l-132.8-1.1c-0.3,0-0.6-0.3-0.6-0.6
				C738.4,1109.6,738.6,1109.4,738.9,1109.4z"/>
			<path class="st2" d="M1666.3,1334.4H912c-1.1,0-2-0.9-2-2c0-1.1,0.9-2,2-2h754.3c1.1,0,2,0.9,2,2
				C1668.3,1333.5,1667.4,1334.4,1666.3,1334.4z"/>
		</g>
		<g>
			<g>
				<path class="st2" d="M2073.3,942c-0.2,0-0.4-0.1-0.6-0.2c-0.4-0.3-0.5-0.9-0.2-1.3c0.7-1,1.4-2.1,2.1-3.1
					c0.3-0.4,0.9-0.6,1.3-0.3c0.4,0.3,0.6,0.9,0.3,1.3c-0.7,1.1-1.4,2.2-2.1,3.2C2073.9,941.9,2073.6,942,2073.3,942z"/>
				<path class="st2" d="M2024.4,968.4c-0.5,0-0.9-0.4-1-0.9c0-0.5,0.4-1,0.9-1c2.4-0.1,4.8-0.3,7.2-0.7c0.5-0.1,1,0.3,1.1,0.8
					c0.1,0.5-0.3,1-0.8,1.1C2029.4,968.1,2026.9,968.3,2024.4,968.4C2024.4,968.4,2024.4,968.4,2024.4,968.4z M2012.5,967.7
					c0,0-0.1,0-0.1,0c-2.4-0.4-4.9-0.9-7.2-1.6c-0.5-0.1-0.8-0.7-0.7-1.2c0.1-0.5,0.7-0.8,1.2-0.7c2.3,0.6,4.7,1.2,7,1.5
					c0.5,0.1,0.9,0.6,0.8,1.1C2013.4,967.3,2013,967.7,2012.5,967.7z M2043.2,964.8c-0.4,0-0.8-0.2-0.9-0.6c-0.2-0.5,0.1-1,0.6-1.2
					c2.3-0.8,4.5-1.7,6.6-2.8c0.5-0.2,1,0,1.3,0.4c0.2,0.5,0,1-0.4,1.3c-2.2,1.1-4.5,2.1-6.8,2.9
					C2043.4,964.8,2043.3,964.8,2043.2,964.8z M1994.3,961.9c-0.1,0-0.3,0-0.4-0.1c-2.2-1.1-4.4-2.3-6.4-3.7
					c-0.4-0.3-0.6-0.9-0.3-1.3c0.3-0.4,0.9-0.6,1.3-0.3c2,1.3,4.1,2.5,6.2,3.6c0.5,0.2,0.7,0.8,0.4,1.3
					C1995,961.7,1994.7,961.9,1994.3,961.9z M2060,955.7c-0.3,0-0.6-0.1-0.8-0.4c-0.3-0.4-0.2-1,0.2-1.3c0.2-0.2,0.5-0.3,0.7-0.5
					c1.7-1.3,3.3-2.7,4.8-4.1c0.4-0.4,1-0.4,1.4,0c0.4,0.4,0.4,1,0,1.4c-1.6,1.5-3.2,2.9-4.9,4.3c-0.2,0.2-0.5,0.4-0.7,0.5
					C2060.4,955.7,2060.2,955.7,2060,955.7z M1978.7,950.8c-0.2,0-0.5-0.1-0.7-0.3c-1.8-1.7-3.4-3.6-5-5.5c-0.3-0.4-0.3-1,0.1-1.3
					c0.4-0.3,1-0.3,1.3,0.1c1.5,1.9,3.2,3.6,4.9,5.3c0.4,0.4,0.4,1,0,1.4C1979.2,950.7,1979,950.8,1978.7,950.8z M1967.2,935.6
					c-0.3,0-0.7-0.2-0.8-0.5c-1.2-2.2-2.2-4.4-3.1-6.7c-0.2-0.5,0-1,0.5-1.2c0.5-0.2,1,0,1.2,0.5c0.9,2.2,1.9,4.4,3,6.5
					c0.3,0.5,0.1,1-0.4,1.3C1967.5,935.5,1967.4,935.6,1967.2,935.6z"/>
				<path class="st2" d="M1960.8,917.5c-0.5,0-0.9-0.3-0.9-0.8c-0.2-1.3-0.4-2.6-0.6-3.8c-0.1-0.5,0.3-1,0.8-1.1
					c0.5-0.1,1,0.3,1.1,0.8c0.2,1.2,0.4,2.5,0.6,3.7c0.1,0.5-0.2,1-0.8,1.1C1960.9,917.5,1960.9,917.5,1960.8,917.5z"/>
			</g>
		</g>
		<path class="st8" d="M2071.8,917.2l-7.4-6.3c0.6-4.5,0.6-9.1-0.3-13.7l7.1-6.6c0.3-0.2,0.3-0.6,0.2-0.9l-4.7-10.7
			c-0.1-0.3-0.5-0.5-0.8-0.5l-9.7,0.8c-2.8-3.7-6.2-6.9-9.9-9.5l0.4-9.7c0-0.3-0.2-0.7-0.5-0.8l-10.9-4.2c-0.3-0.1-0.7,0-0.9,0.2
			l-6.3,7.4c-4.5-0.6-9.1-0.6-13.7,0.3l-6.6-7.1c-0.2-0.2-0.6-0.3-0.9-0.2l-10.7,4.7c-0.3,0.1-0.5,0.5-0.5,0.8l0.8,9.7
			c-3.7,2.8-6.9,6.2-9.5,9.9l-9.7-0.4c-0.3,0-0.7,0.2-0.8,0.5l-4.2,10.9c-0.1,0.3,0,0.7,0.2,0.9l7.4,6.3c-0.6,4.5-0.6,9.1,0.3,13.7
			l-7.1,6.6c-0.2,0.2-0.3,0.6-0.2,0.9l4.7,10.7c0.1,0.3,0.5,0.5,0.8,0.5l9.7-0.8c2.8,3.7,6.2,6.9,9.9,9.5l-0.4,9.7
			c0,0.3,0.2,0.7,0.5,0.8l10.9,4.2c0.3,0.1,0.7,0,0.9-0.2l6.3-7.4c4.5,0.6,9.1,0.6,13.7-0.3l6.6,7.1c0.2,0.2,0.6,0.3,0.9,0.2
			l10.7-4.7c0.3-0.1,0.5-0.5,0.5-0.8l-0.8-9.7c3.7-2.8,6.9-6.2,9.5-9.9l9.7,0.4c0.3,0,0.7-0.2,0.8-0.5l4.2-10.9
			C2072.2,917.8,2072.1,917.4,2071.8,917.2z"/>
		<path class="st2" d="M2022.3,916.3c-3.4,0-6.7-1.5-8.9-4.3c-3.8-4.9-3-12,2-15.9c4.9-3.8,12-3,15.9,2c3.8,4.9,3,12-2,15.9
			C2027.1,915.5,2024.7,916.3,2022.3,916.3z M2022.2,895.6c-2.1,0-4.1,0.7-5.8,2c-4.1,3.2-4.8,9.1-1.6,13.2
			c3.2,4.1,9.1,4.8,13.2,1.6c2-1.5,3.2-3.8,3.5-6.3c0.3-2.5-0.4-5-1.9-6.9c-1.5-2-3.8-3.2-6.3-3.5
			C2023,895.6,2022.6,895.6,2022.2,895.6z"/>
		<g>
			<path class="st2" d="M1972,868.7c-0.2,0-0.4-0.1-0.6-0.2c-0.4-0.3-0.5-0.9-0.2-1.3c0.8-1,1.6-2.1,2.4-3c0.3-0.4,0.9-0.5,1.3-0.1
				c0.4,0.3,0.5,0.9,0.1,1.3c-0.8,1-1.6,1.9-2.3,3C1972.6,868.6,1972.3,868.7,1972,868.7z"/>
			<path class="st2" d="M2081.4,885.9c-0.4,0-0.8-0.3-0.9-0.6c-0.8-2.2-1.7-4.4-2.7-6.6c-0.2-0.5,0-1,0.5-1.3c0.5-0.2,1,0,1.3,0.5
				c1,2.2,2,4.5,2.7,6.8c0.2,0.5-0.1,1-0.6,1.2C2081.6,885.8,2081.5,885.9,2081.4,885.9z M2072.7,869.2c-0.3,0-0.6-0.1-0.8-0.4
				c-0.4-0.5-0.8-1.1-1.2-1.6c-1-1.3-2.1-2.6-3.3-3.8c-0.4-0.4-0.3-1,0.1-1.4c0.4-0.4,1-0.3,1.4,0.1c1.2,1.3,2.3,2.6,3.4,4
				c0.4,0.6,0.9,1.1,1.3,1.7c0.3,0.4,0.2,1-0.2,1.3C2073.1,869.1,2072.9,869.2,2072.7,869.2z M1982.7,857.5c-0.3,0-0.6-0.1-0.7-0.4
				c-0.3-0.4-0.3-1,0.1-1.3c0.4-0.3,0.7-0.6,1.1-0.9c1.6-1.2,3.2-2.4,4.8-3.4c0.4-0.3,1-0.2,1.3,0.3c0.3,0.4,0.2,1-0.3,1.3
				c-1.6,1-3.2,2.1-4.7,3.3c-0.4,0.3-0.7,0.5-1,0.8C1983.2,857.5,1983,857.5,1982.7,857.5z M2059.5,855.8c-0.2,0-0.4-0.1-0.6-0.2
				c-1.9-1.4-3.9-2.7-5.9-3.9c-0.5-0.3-0.6-0.8-0.4-1.3s0.9-0.6,1.3-0.3c2.1,1.2,4.2,2.6,6.1,4c0.4,0.3,0.5,0.9,0.2,1.3
				C2060.1,855.7,2059.8,855.8,2059.5,855.8z M1998.9,848c-0.4,0-0.7-0.2-0.9-0.6c-0.2-0.5,0-1,0.5-1.2c2.3-0.9,4.6-1.7,6.9-2.3
				c0.5-0.1,1,0.2,1.2,0.7c0.1,0.5-0.2,1-0.7,1.2c-2.3,0.6-4.5,1.4-6.7,2.3C1999.2,848,1999,848,1998.9,848z M2042.9,847
				c-0.1,0-0.2,0-0.3-0.1c-2.2-0.8-4.5-1.4-6.8-1.9c-0.5-0.1-0.8-0.6-0.7-1.1c0.1-0.5,0.6-0.8,1.1-0.7c2.4,0.5,4.7,1.2,7,2
				c0.5,0.2,0.8,0.7,0.6,1.2C2043.7,846.7,2043.3,847,2042.9,847z M2017.2,843.7c-0.5,0-0.9-0.4-1-0.9c0-0.5,0.4-1,0.9-1
				c1.7-0.1,3.3-0.2,5-0.2c0,0,0,0,0,0c0.8,0,1.5,0,2.3,0c0.5,0,0.9,0.5,0.9,1c0,0.5-0.5,0.9-1,0.9c-0.7,0-1.5-0.1-2.2,0
				C2020.6,843.5,2018.9,843.5,2017.2,843.7C2017.3,843.7,2017.3,843.7,2017.2,843.7z"/>
			<path class="st2" d="M2084.5,901.1c-0.5,0-0.9-0.4-1-0.9c-0.1-1.3-0.2-2.5-0.4-3.7c-0.1-0.5,0.3-1,0.8-1.1c0.5-0.1,1,0.3,1.1,0.8
				c0.2,1.3,0.3,2.6,0.4,3.9C2085.5,900.5,2085.1,901,2084.5,901.1C2084.6,901.1,2084.6,901.1,2084.5,901.1z"/>
		</g>
		<path class="st2" d="M2022,934c-11.2,0-21.9-6.5-26.6-17.3c-1.7-3.8-2.5-7.8-2.5-11.7c0-11.2,6.5-21.9,17.3-26.7
			c14.7-6.5,31.9,0.2,38.3,14.9c0.3,0.6,0.5,1.3,0.8,2c0.4,1.1,0.7,2.3,1,3.5c0,0.2,0.1,0.3,0.1,0.5c0,0.1,0,0.1,0,0.2
			c0,0.4-0.3,0.8-0.8,0.9c-0.5,0.1-1-0.2-1.1-0.7c-0.4-1.9-1-3.7-1.8-5.5v0c-5-11.3-16.9-17.6-28.6-15.9c-2.3,0.3-4.5,0.9-6.7,1.8
			c-0.1,0-0.2,0.1-0.3,0.1c-0.1,0-0.2,0.1-0.3,0.1c-10.2,4.5-16.2,14.5-16.2,24.9c0,3.7,0.7,7.4,2.3,10.9
			c6,13.7,22.1,19.9,35.8,13.9c4.5-2,8.4-5.2,11.2-9.2c0.3-0.4,0.9-0.5,1.3-0.2c0.3,0.2,0.4,0.5,0.4,0.8c0,0.2-0.1,0.4-0.2,0.6
			c-3,4.3-7.2,7.7-12,9.8C2029.9,933.2,2026,934,2022,934z"/>
		<path class="st9" d="M562.3,532.5L674.2,814c5.7,14.3,20.5,22.9,35.7,20.7l293.5-20.5L897.7,513.7c-2.8-7.4-10-12.2-17.9-12
			c-51.5,1.2-238.9,5.8-305.9,11.8C564.6,514.2,558.7,523.8,562.3,532.5z"/>
		<path class="st3" d="M700,821.9l-111.8-284c-2.3-5.7,1.9-12,8-12.1l276.4-10.5c7.1-0.3,13.6,4,16.2,10.6l101.2,276.8L700,821.9z"
			/>
		<path class="st9" d="M1103.2,825.5c0,5.2-4.3,9.5-9.5,9.5h-386c-8,0-14.4-6.5-14.4-14.4l-6.1-7.1l400.8-3.4
			C1096.4,810.2,1103.2,817,1103.2,825.5L1103.2,825.5z"/>
		<g>
			<path class="st8" d="M948.1,561.8c-8.4-13.9-23.1-23-31.9-36.6c-11.1-17.1-11.5-39.8-4.2-58.9c6.1-15.8,16.8-29.5,23-45.3
				c8.3-21.3,8.5-30.4,4.7-51.7c-3.3-18.8-10.6-38.8-28.7-49.6c-22.3-13.3-49.6-15.9-75.2-11c-26.5,5-52.2,16.3-71.6,35
				c-19.4,18.8-32,45.1-31.7,72.1c0.2,18.3,6.1,37.1,0.2,54.4c-4.5,13.4-16.4,24.2-30.2,27.4c-15.4,3.6-31.3-1.7-47.1-1.5
				c-15.6,0.2-31.1,6-43.1,16.1c-10.6,9-18.4,21.5-20.2,35.2c-1.8,13.7,3,28.5,13.6,37.5c7.2,6.1,17.4,10.3,20,19.4
				c3,10.2-5.8,20.4-15.5,24.5c-9.8,4.1-20.7,4.5-30.7,8.2c-22.2,8.3-35.7,33.3-34,57c1.7,23.6,16.7,45.1,36.3,58.4
				c19.6,13.3,43.4,19.3,67.1,21.2c23.6,1.9,47.4,0,71.1-1.1c27.1-1.3,54.7-1.6,80.4-10.3c26-8.8,48.4-25.6,69.4-43.3
				c9.9-8.4,20-17.6,24.4-29.8c3.2-8.9,3.2-18.7,7-27.4c8-18.6,30.1-26.5,42.8-42.2C957,603.5,958.7,579.4,948.1,561.8z"/>
			<path class="st8" d="M654.2,595.2c0,0-0.1,0-0.2,0c-11.2-2.1-21.1-10.3-25.2-20.9c-4.1-10.6-2.2-23.3,4.7-32.4
				c10.3-13.4,28.5-16.9,46.2-19.3l32.1-4.4c18.1-2.5,36.7-6,47.1-19.4c11.1-14.3,8.9-33.8,6.8-52.7c-0.2-2.2-0.5-4.3-0.7-6.4
				c-2.8-27,0-50.4,8.4-69.7c10.2-23.5,29.3-40.8,51-46.3c0.4-0.1,0.9,0.2,1,0.6c0.1,0.4-0.2,0.9-0.6,1
				c-21.2,5.3-39.9,22.3-49.9,45.4c-8.3,19-11.1,42.2-8.3,68.9c0.2,2.1,0.5,4.3,0.7,6.4c2.2,19.2,4.4,39.1-7.1,53.9
				c-10.8,13.9-29.7,17.5-48.2,20l-32.1,4.4c-17.4,2.4-35.2,5.7-45.2,18.7c-6.6,8.6-8.4,20.7-4.5,30.8c3.9,10.1,13.3,17.9,23.9,19.9
				c0.4,0.1,0.7,0.5,0.7,1C654.9,595,654.6,595.2,654.2,595.2z"/>
			<path class="st8" d="M664.3,585.4c-0.4,0-0.8-0.1-1.1-0.4c-3.9-3.7-8.4-7.9-11-13.1c-2.4-4.8-3.6-11.9,0.2-17.5
				c2.5-3.7,6.6-5.8,10.6-7.5c9.8-4.2,20.1-7.2,30.7-8.9c6.9-1.1,13.9-1.7,20.6-2.3c8.8-0.7,17.8-1.5,26.5-3.4
				c10.4-2.3,29-8.6,37-24.8c6.5-13.2,4.1-27.8,1.5-43.4c-2.1-12.6-4.2-25.6-1.3-38c0.2-0.9,1.1-1.4,2-1.2c0.9,0.2,1.4,1.1,1.2,2
				c-2.8,11.7-0.7,24.4,1.3,36.7c2.5,15.4,5.2,31.2-1.8,45.3c-8.7,17.5-28.3,24.2-39.3,26.6c-8.9,2-18,2.7-26.9,3.5
				c-6.7,0.6-13.7,1.1-20.4,2.2c-10.3,1.7-20.3,4.6-29.9,8.7c-3.3,1.4-7.1,3.2-9.2,6.3c-2.5,3.7-2.5,9.2,0,14.2
				c2.4,4.8,6.4,8.6,10.3,12.2c0.7,0.6,0.7,1.7,0.1,2.3C665.2,585.2,664.7,585.4,664.3,585.4z"/>
			<path class="st10" d="M924.7,530.2c-15.3-4.9-59.9-14.1-103.2,24.5c-7.3,6.5-10.4,16.6-8,26.2c10.8,42.3,32.6,177.7,5.3,231.1
				c0,0,8.6-0.1,103.7,1c0,0,24.4-99.1,55-142.3c21.1-29.8-31.1-113.7-44.3-134C931.2,533.6,928.2,531.3,924.7,530.2z"/>
			<path class="st2" d="M883.6,445.8c0,0-23.8,64-25.9,92.3c0,0,24.9,11.8,48.9-7.1c0,0,3.5-64.2,7.3-75.7L883.6,445.8z"/>
			<path class="st2" d="M916.6,358.6c0,0,58.1,84.2,22.2,107.8c-35.9,23.6-77.3-36.2-77.3-36.2s-13.1-45.8,1.6-61
				C877.7,354,916.6,358.6,916.6,358.6z"/>
			<path class="st8" d="M889.4,338.3c0,0,27.2,6.9,30.9,19.3c3.6,12.4-39.1,23.2-51.1,23.6l-10.4,49.7c0,0-27.7-47.4-16-74.3
				C854.5,329.7,889.4,338.3,889.4,338.3z"/>
			<path class="st2" d="M873.1,424.3c0,0-22.7-27.2-32.2-9.9c-9.5,17.3,20.3,30.9,30.9,22.5L873.1,424.3z"/>
			<path class="st2" d="M815.3,563c0,0-73.6,59.2-93,141.4c-19.4,82.2,104.7,93,104.7,93s17.2-18.6,37.1-11.5
				c19.9,7,2.1-32.8-21.3-33.1c-23.4-0.3-12.9,18.4-45.8,2.9c-32-15.1-51.3-60.7,32.2-127.9c4.8-3.9,8.7-8.9,11.1-14.6
				C856.9,573.1,844.7,546.5,815.3,563z"/>
		</g>
		<path class="st2" d="M1560.7,1041.5c1.7-3.2,6.4-2.7,7.3,0.8c3.6,12.8,12.2,35.1,30.2,43.1c0.9,0.4,1.8,0.8,2.6,1.2
			c0.8-2.5,0.8-5.3-1.1-8.3c-5.6-8.6,4.5-20.3,4.5-20.3s0.7,10.3,8.5,16.8c6.8,5.6,10,18.1,5.4,28.3c-9.8,38-24.4,88.2,32.6,124.9
			c57,36.7,137.3-69.2,137.3-69.2l-39.8,126.3c0,0-61.5,45.4-133-18.4c-71.5-63.8-24.1-156.7-24.1-156.7
			S1536.5,1087.9,1560.7,1041.5z"/>
		<path class="st10" d="M1650.3,1227.3c-16.8-10.8-27.4-22.7-33.8-35.2c-12.9,5.1-26.6,5.3-40.6,4.8c3.6,23.4,14.4,48.1,38.4,69.6
			c72.3,64.6,134.4,18.7,134.4,18.7l40.3-127.8C1789,1157.3,1707.9,1264.5,1650.3,1227.3z"/>
		<g>
			<path class="st9" d="M2125.3,1169.7l-115.6,290.8c-5.9,14.8-21.1,23.6-36.9,21.4l-303.2-22.4l109.2-309.2
				c2.9-7.6,10.3-12.6,18.5-12.4c53.2,1.2,246.7,6,316,12.2C2122.9,1150.9,2128.9,1160.8,2125.3,1169.7z"/>
			<path class="st8" d="M1983,1468.7l115.5-293.4c2.3-5.9-1.9-12.4-8.3-12.5l-285.5-10.8c-7.4-0.3-14.1,4.1-16.8,11l-104.6,286
				L1983,1468.7z"/>
			<path class="st9" d="M1566.5,1472.4c0,5.4,4.4,9.8,9.8,9.8h398.7c8.2,0,14.9-6.7,14.9-14.9l6.3-7.3l-414-3.5
				C1573.5,1456.6,1566.5,1463.7,1566.5,1472.4L1566.5,1472.4z"/>
		</g>
		<path class="st9" d="M1798.1,973.1c0,0-16.5-74.1,68.3-54.5c0,0,41.2-6.7,43.3,32.1c0,0,26.6,17.5,7.1,51.1
			c0,0,78.9-30.5,113.3,38.7c34.4,69.2,2.8,107.2-30.4,117.1c0,0,26.8,13.5,14.1,43.9c-12.7,30.4-77.1,51.9-115.1,14.9
			c0,0-108.2,14.3-106-62.1c0,0-50.3-32.5,2.5-95.6C1848.2,995.7,1798.1,973.1,1798.1,973.1z"/>
		<path class="st10" d="M1793.4,1144.8c17.1-5.1,66.7-14.6,113.9,29c8,7.4,11.3,18.6,8.4,29.1c-12.7,46.7-42.4,196.5-13,256.2
			c0,0-38.3,1.1-111.9-0.8c0,0-25.3-110.3-58.5-158.8c-22.9-33.4,36.5-125.6,51.5-147.8C1786.1,1148.5,1789.5,1146,1793.4,1144.8z"
			/>
		<path class="st2" d="M1840.5,1052c0,0,25.2,71.3,27.1,102.8c0,0-27.9,12.7-54.1-8.7c0,0-2.8-71.3-6.7-84L1840.5,1052z"/>
		<path class="st2" d="M1805.4,954.8c0,0-66,92.3-26.5,119.1c39.4,26.8,86.4-38.8,86.4-38.8s15.3-50.5-0.7-67.7
			C1848.6,950.3,1805.4,954.8,1805.4,954.8z"/>
		<path class="st9" d="M1836,932.7c0,0-30.3,7.2-34.6,20.9c-4.2,13.7,43,26.4,56.2,27l10.7,55.3c0,0,31.5-52.1,19-82.1
			C1874.8,923.8,1836,932.7,1836,932.7z"/>
		<path class="st2" d="M1852.5,1028.3c0,0,25.7-29.7,35.9-10.4c10.2,19.4-23.1,33.9-34.6,24.4L1852.5,1028.3z"/>
		<path class="st2" d="M1914.1,1183.2c0,0,80.6,67,100.6,158.5c20,91.5-117.7,101.2-117.7,101.2s-18.7-20.9-40.9-13.4
			c-22.2,7.4-1.7-36.4,24.3-36.3c26,0.1,13.9,20.7,50.7,4c35.8-16.2,57.9-66.3-33.4-142.4c-5.3-4.4-9.5-10-12.1-16.4
			C1867.8,1193.7,1881.8,1164.4,1914.1,1183.2z"/>
		<path class="st10" d="M2014.6,1341.3c-20.1-91.5-101-158.5-101-158.5c-32.4-18.8-46.5,10.5-28.7,55.2c2.6,6.4,6.8,12,12.1,16.4
			c70.8,58.6,73.7,101.8,54.9,126c9.5,3,18.5,7.8,26.8,13.1c6.4,4.3,12.3,7.5,17.6,11.6C2011.8,1390.3,2020.9,1369.8,2014.6,1341.3z
			"/>
		<g>
			<g>
				<path class="st9" d="M1204.8,1000.5h-15.2c-2.7,0-4.9-1.3-4.9-2.9l-4.6-103.5c-0.1-1.7,2.2-3,4.9-3h19.9c2.7,0,4.9,1.3,4.9,3
					v103.5C1209.8,999.2,1207.5,1000.5,1204.8,1000.5z"/>
				<path class="st9" d="M1179.1,882.9l0.2,1.4c0.2,1.3,1.9,2.3,4,2.4l21.9,0.7c2.4,0.1,4.5-1.1,4.5-2.6v-2.1c0-1.4-1.8-2.5-4.1-2.6
					c-5.5-0.1-15.3-0.3-22.6,0C1180.7,880.2,1179,881.4,1179.1,882.9z"/>
			</g>
			<g>
				<path class="st9" d="M1163.3,1000.5h-15.2c-2.7,0-4.9-1.3-4.9-2.9l-4.6-115.3c-0.1-1.7,2.2-3,4.9-3h19.9c2.7,0,4.9,1.3,4.9,3
					v115.3C1168.3,999.2,1166,1000.5,1163.3,1000.5z"/>
				<path class="st9" d="M1137.6,871.1l0.2,1.4c0.2,1.3,1.9,2.3,4,2.4l21.9,0.7c2.4,0.1,4.5-1.1,4.5-2.6v-2.1c0-1.4-1.8-2.5-4.1-2.6
					c-5.5-0.1-15.3-0.3-22.6,0C1139.2,868.4,1137.4,869.7,1137.6,871.1z"/>
			</g>
			<g>
				<path class="st9" d="M1246.6,1000.5h-15.2c-2.7,0-4.9-1.3-4.9-2.9l-1.8-73.5c-0.1-1.7,2.2-3,4.9-3h19.9c2.7,0,4.9,1.3,4.9,3
					l-2.9,73.5C1251.5,999.2,1249.3,1000.5,1246.6,1000.5z"/>
				<path class="st9" d="M1223.8,912.9l0.2,1.4c0.2,1.3,1.9,2.3,4,2.4l21.9,0.7c2.4,0.1,4.5-1.1,4.5-2.6v-2.1c0-1.4-1.8-2.5-4.1-2.6
					c-5.5-0.1-15.3-0.3-22.6,0C1225.3,910.2,1223.6,911.4,1223.8,912.9z"/>
			</g>
			<g>
				<path class="st9" d="M1082.9,1000.5h-15.2c-2.7,0-4.9-1.3-4.9-2.9l-4.6-103.5c-0.1-1.7,2.2-3,4.9-3h19.9c2.7,0,4.9,1.3,4.9,3
					v103.5C1087.8,999.2,1085.6,1000.5,1082.9,1000.5z"/>
				<path class="st9" d="M1057.2,882.9l0.2,1.4c0.2,1.3,1.9,2.3,4,2.4l21.9,0.7c2.4,0.1,4.5-1.1,4.5-2.6v-2.1c0-1.4-1.8-2.5-4.1-2.6
					c-5.5-0.1-15.3-0.3-22.6,0C1058.8,880.2,1057,881.4,1057.2,882.9z"/>
			</g>
			<g>
				<path class="st9" d="M1124.7,1000.5h-15.2c-2.7,0-4.9-1.3-4.9-2.9l-1.8-73.5c-0.1-1.7,2.2-3,4.9-3h19.9c2.7,0,4.9,1.3,4.9,3
					l-2.9,73.5C1129.6,999.2,1127.4,1000.5,1124.7,1000.5z"/>
				<path class="st9" d="M1101.8,912.9l0.2,1.4c0.2,1.3,1.9,2.3,4,2.4l21.9,0.7c2.4,0.1,4.5-1.1,4.5-2.6v-2.1c0-1.4-1.8-2.5-4.1-2.6
					c-5.5-0.1-15.3-0.3-22.6,0C1103.4,910.2,1101.6,911.4,1101.8,912.9z"/>
			</g>
		</g>
		<g>
			<g>
				<g>
					<rect x="1326.7" y="687.8" class="st2" width="18.2" height="320.1"/>
					<rect x="1357.1" y="687.8" class="st2" width="18.2" height="320.1"/>
					<rect x="1387.4" y="687.8" class="st2" width="18.2" height="320.1"/>
					<rect x="1417.7" y="687.8" class="st2" width="18.2" height="320.1"/>
					<rect x="1448" y="687.8" class="st2" width="18.2" height="320.1"/>
					<rect x="1478.4" y="687.8" class="st2" width="18.2" height="320.1"/>
					<rect x="1508.7" y="687.8" class="st2" width="18.2" height="320.1"/>
				</g>
			</g>
			<rect x="1326.7" y="840.4" class="st3" width="18.2" height="167.5"/>
			<rect x="1357.1" y="898" class="st3" width="18.2" height="110"/>
			<rect x="1387.4" y="755.7" class="st3" width="18.2" height="252.3"/>
			<rect x="1417.7" y="947.4" class="st3" width="18.2" height="60.6"/>
			<rect x="1448" y="789.4" class="st3" width="18.2" height="218.5"/>
			<rect x="1478.4" y="827.3" class="st3" width="18.2" height="180.7"/>
			<rect x="1508.7" y="868.4" class="st3" width="18.2" height="139.6"/>
		</g>
		<g>
			<g>
				<g>
					<defs>
						<path id="SVGID_00000050654657861160220960000006089756972964567692_" d="M1375.2,539.6c-24.4,0-44.1,19.7-44.1,44.1
							c0,24.4,19.7,44.1,44.1,44.1s44.1-19.7,44.1-44.1C1419.3,559.3,1399.6,539.6,1375.2,539.6z M1375.2,608.8
							c-13.9,0-25.1-11.2-25.1-25.1c0-13.9,11.2-25.1,25.1-25.1c13.9,0,25.1,11.2,25.1,25.1C1400.3,597.5,1389.1,608.8,1375.2,608.8
							z"/>
					</defs>
					<use xlink:href="#SVGID_00000050654657861160220960000006089756972964567692_"  style="overflow:visible;fill:#FFFFFF;"/>
					<clipPath id="SVGID_00000021077799279769908670000004265546139124163969_">
						<use xlink:href="#SVGID_00000050654657861160220960000006089756972964567692_"  style="overflow:visible;"/>
					</clipPath>
					
						<rect x="1313.6" y="574" style="clip-path:url(#SVGID_00000021077799279769908670000004265546139124163969_);fill:#D1AAD7;" width="131" height="55.4"/>
				</g>
			</g>
			<g>
				<g>
					<defs>
						<path id="SVGID_00000161610276482680667130000013086232362797831859_" d="M1482.7,539.6c-24.4,0-44.1,19.7-44.1,44.1
							c0,24.4,19.7,44.1,44.1,44.1c24.4,0,44.1-19.7,44.1-44.1C1526.8,559.3,1507,539.6,1482.7,539.6z M1482.7,608.8
							c-13.9,0-25.1-11.2-25.1-25.1c0-13.9,11.2-25.1,25.1-25.1c13.9,0,25.1,11.2,25.1,25.1C1507.8,597.5,1496.6,608.8,1482.7,608.8
							z"/>
					</defs>
					<use xlink:href="#SVGID_00000161610276482680667130000013086232362797831859_"  style="overflow:visible;fill:#FFFFFF;"/>
					<clipPath id="SVGID_00000038375180659985958300000002651498372239640501_">
						<use xlink:href="#SVGID_00000161610276482680667130000013086232362797831859_"  style="overflow:visible;"/>
					</clipPath>
					
						<rect x="1421.1" y="552.5" style="clip-path:url(#SVGID_00000038375180659985958300000002651498372239640501_);fill:#D1AAD7;" width="131" height="76.9"/>
				</g>
			</g>
			<g>
				<g>
					<defs>
						<path id="SVGID_00000043445801111836007320000017471137146642831026_" d="M1590.2,539.6c-24.4,0-44.1,19.7-44.1,44.1
							c0,24.4,19.7,44.1,44.1,44.1c24.4,0,44.1-19.7,44.1-44.1C1634.3,559.3,1614.5,539.6,1590.2,539.6z M1590.2,608.8
							c-13.9,0-25.1-11.2-25.1-25.1c0-13.9,11.2-25.1,25.1-25.1c13.9,0,25.1,11.2,25.1,25.1C1615.3,597.5,1604,608.8,1590.2,608.8z"
							/>
					</defs>
					<use xlink:href="#SVGID_00000043445801111836007320000017471137146642831026_"  style="overflow:visible;fill:#FFFFFF;"/>
					<clipPath id="SVGID_00000047778760547076979650000007619877206337195672_">
						<use xlink:href="#SVGID_00000043445801111836007320000017471137146642831026_"  style="overflow:visible;"/>
					</clipPath>
					
						<rect x="1528.6" y="601.7" style="clip-path:url(#SVGID_00000047778760547076979650000007619877206337195672_);fill:#D1AAD7;" width="131" height="27.7"/>
				</g>
			</g>
		</g>
		<g>
			<g>
				
					<ellipse transform="matrix(0.7071 -0.7071 0.7071 0.7071 -153.5073 1377.8956)" class="st2" cx="1586.5" cy="874.2" rx="35.9" ry="35.9"/>
				<path class="st9" d="M1607.8,866.7c1.1,2.7,1.7,5.7,1.7,8.8c0,12.7-10.3,23-23,23c-12.7,0-23-10.3-23-23c0-12.7,10.3-23,23-23
					c0.4,0,0.8,0,1.2,0v-5.8c-0.4,0-0.8,0-1.2,0c-16,0-28.9,12.9-28.9,28.9s12.9,28.9,28.9,28.9s28.9-12.9,28.9-28.9
					c0-3.9-0.8-7.7-2.2-11.1L1607.8,866.7z"/>
				<path class="st8" d="M1616,925.3h-58.5c-3.7,0-6.6,3-6.6,6.6c0,3.7,3,6.6,6.6,6.6h58.5c3.7,0,6.6-3,6.6-6.6
					C1622.6,928.3,1619.7,925.3,1616,925.3z"/>
			</g>
			<g>
				<circle class="st2" cx="1586.4" cy="758.9" r="35.9"/>
				<path class="st9" d="M1598.6,779.6c-3.6,2.2-7.8,3.5-12.3,3.5c-12.7,0-23-10.3-23-23c0-12.7,10.3-23,23-23c0.4,0,0.8,0,1.2,0
					v-5.8c-0.4,0-0.8,0-1.2,0c-16,0-28.9,12.9-28.9,28.9s12.9,28.9,28.9,28.9c5.6,0,10.8-1.6,15.2-4.3L1598.6,779.6z"/>
				<path class="st8" d="M1616.2,810h-58.5c-3.7,0-6.6,3-6.6,6.6c0,3.7,3,6.6,6.6,6.6h58.5c3.7,0,6.6-3,6.6-6.6
					C1622.8,813,1619.8,810,1616.2,810z"/>
			</g>
			<g>
				
					<ellipse transform="matrix(0.1222 -0.9925 0.9925 0.1222 410.0536 2443.9187)" class="st2" cx="1586.6" cy="990.1" rx="35.9" ry="35.9"/>
				<path class="st9" d="M1606.2,1003.1c-4.1,6.1-11.1,10.1-19.1,10.1c-12.7,0-23-10.3-23-23c0-12.7,10.3-23,23-23
					c0.4,0,0.8,0,1.2,0v-5.8c-0.4,0-0.8,0-1.2,0c-16,0-28.9,12.9-28.9,28.9s12.9,28.9,28.9,28.9c9.9,0,18.6-5,23.8-12.5
					L1606.2,1003.1z"/>
				<path class="st8" d="M1557.4,1053.3h58.5c3.7,0,6.6-3,6.6-6.6c0-3.7-3-6.6-6.6-6.6h-58.5c-3.7,0-6.6,3-6.6,6.6
					C1550.8,1050.4,1553.7,1053.3,1557.4,1053.3z"/>
			</g>
		</g>
		<g>
			<g>
				
					<ellipse transform="matrix(8.293873e-02 -0.9966 0.9966 8.293873e-02 391.4861 1767.7943)" class="st10" cx="1156.3" cy="671.2" rx="84.7" ry="84.7"/>
				<path class="st14" d="M1078.2,668C1078.1,668,1078.1,668,1078.2,668c-0.6,0-1-0.5-1-1c0.2-3.3,0.6-6.7,1.1-9.9
					c0.1-0.5,0.6-0.9,1.1-0.8c0.5,0.1,0.9,0.6,0.8,1.1c-0.6,3.2-1,6.5-1.1,9.7C1079.1,667.6,1078.7,668,1078.2,668z"/>
				
					<ellipse transform="matrix(1 -5.430388e-03 5.430388e-03 1 -3.6378 6.2989)" class="st2" cx="1158.1" cy="673" rx="71.7" ry="71.7"/>
				<path class="st15" d="M1180.1,645.9c0,12.1-9.8,25.3-22,25.3c-12.1,0-22-13.1-22-25.3c0-12.1,9.8-20.8,22-20.8
					C1170.2,625.2,1180.1,633.8,1180.1,645.9z"/>
				<path class="st15" d="M1130.8,717.9h53.7c5.6,0,10.7-3.7,12.4-9l2.9-9c2.1-6.6-1.3-13.8-7.8-16.1c-21.8-8-44.4-7-67.6,0.7
					c-6.5,2.2-10.1,9.1-8.3,15.7l2.2,8.2C1119.8,714,1124.9,717.9,1130.8,717.9z"/>
			</g>
			<g>
				<path class="st2" d="M1156.3,816c-79.9,0-144.8-65-144.8-144.8c0-79.9,65-144.8,144.8-144.8c79.9,0,144.8,65,144.8,144.8
					C1301.1,751,1236.1,816,1156.3,816z M1156.3,571.8c-54.8,0-99.4,44.6-99.4,99.4s44.6,99.4,99.4,99.4c54.8,0,99.4-44.6,99.4-99.4
					S1211.1,571.8,1156.3,571.8z"/>
				<path class="st8" d="M1300.7,660.4l-45.3,3.4c0.2,2.5,0.3,4.9,0.3,7.4c0,11.8-2.1,23.2-5.9,33.8l42.7,15.4
					c5.6-15.4,8.6-31.9,8.6-49.2C1301.1,667.5,1300.9,663.9,1300.7,660.4z"/>
				<path class="st9" d="M1156.3,770.6c-54.8,0-99.4-44.6-99.4-99.4s44.6-99.4,99.4-99.4c8.4,0,16.5,1,24.2,3l11.1-44.1
					c-11.3-2.8-23.1-4.4-35.3-4.4c-79.9,0-144.8,65-144.8,144.8c0,79.9,65,144.8,144.8,144.8c62.6,0,116-39.9,136.2-95.6l-42.7-15.4
					C1235.9,743.2,1199.2,770.6,1156.3,770.6z"/>
				<path class="st9" d="M1255.4,663.7l45.3-3.4c-1.4-18.7-6.4-36.5-14.2-52.6l-40.8,19.9C1251,638.7,1254.4,650.9,1255.4,663.7z"/>
			</g>
		</g>
		<g>
			<g>
				<path class="st2" d="M1334.6,1077.7l172.4-1c7.1,0,11.4,7.7,7.8,13.7l-0.9,1.4c-1.6,2.7-4.6,4.4-7.8,4.4h-171.5c-5,0-9-4.1-9-9
					v-0.5C1325.6,1081.8,1329.6,1077.7,1334.6,1077.7z"/>
				<path class="st2" d="M1310.5,1087v0.3c0,5-4.1,9-9,9h-38.3c-4.1,0-7.7-2.8-8.7-6.7l0,0c-1.5-5.7,2.8-11.3,8.7-11.4l38.3-0.3
					C1306.4,1077.9,1310.5,1081.9,1310.5,1087z"/>
			</g>
			<g>
				<path class="st2" d="M1376.1,1110.2l130.9-1c7.1,0,11.4,7.7,7.8,13.7l-0.9,1.4c-1.6,2.7-4.6,4.4-7.8,4.4h-130c-5,0-9-4.1-9-9
					v-0.5C1367.1,1114.3,1371.1,1110.2,1376.1,1110.2z"/>
				<path class="st2" d="M1352,1119.4v0.3c0,5-4.1,9-9,9h-38.3c-4.1,0-7.7-2.8-8.7-6.7l0,0c-1.5-5.7,2.8-11.3,8.7-11.4l38.3-0.3
					C1347.9,1110.3,1352,1114.4,1352,1119.4z"/>
			</g>
		</g>
		<g>
			<path class="st9" d="M585.8,1147.6l123.1,309.6c6.3,15.8,22.5,25.2,39.3,22.8l322.8-23.8l-116.3-329.2
				c-3.1-8.1-11-13.5-19.7-13.3c-56.6,1.3-262.7,6.4-336.5,13C588.4,1127.5,581.9,1138.1,585.8,1147.6z"/>
			<path class="st2" d="M737.4,1465.9l-123-312.4c-2.5-6.3,2.1-13.2,8.8-13.3l304-11.5c7.8-0.3,15,4.4,17.9,11.7l111.3,304.5
				L737.4,1465.9z"/>
			<path class="st9" d="M1180.8,1469.9c0,5.8-4.7,10.4-10.4,10.4H745.8c-8.8,0-15.9-7.1-15.9-15.9l-6.7-7.8l440.8-3.8
				C1173.3,1453.1,1180.8,1460.6,1180.8,1469.9L1180.8,1469.9z"/>
		</g>
		<g>
			<g>
				<path class="st8" d="M976.8,1141.7c-78.8-1.3-165.7,20.7-165.7,20.7c-23.5,137-4.1,295-4.1,295c113.9,1.9,127.4-4.4,127.4-4.4
					c10.1-57.3,59.8-223.8,59.8-223.8c38.5-4.8,70.2-15.9,96.3-30.6c-19.9-23.1-29.3-52.5-33.4-69.8
					C1029.3,1137.4,1001.1,1142.1,976.8,1141.7z"/>
				<path class="st2" d="M1209.5,1025.6c-7.7-9.3-17.5-4.9-17.5-4.9c-11.6,49-72.4,88.7-134.8,108.1c4.1,17.4,13.5,46.7,33.4,69.8
					C1194.1,1140.3,1209.5,1025.6,1209.5,1025.6z"/>
			</g>
			<g>
				<path class="st2" d="M1207.6,1028c0.8,2.6-8.6,6.5-14.1-4c-0.2-5-3.3-26.7-0.2-30.8c16.1-21.9,47.2-49.3,47.2-49.3
					c5.3,5.2,0.9,10.3,0.9,10.3l-15.1,15.7c3.2,5.7,7,10.5,8.8,17.4c1.4,5.2,0.5,10.8-2.1,15.6c-2.7,4.8-6.3,11-9.7,15.8
					C1216.8,1028,1207.6,1028,1207.6,1028z"/>
				<path class="st2" d="M1219.7,980.1l-13.8,11.7l-4.3,11.6l12.3,13.6c0,0,4.1-23,7.2-28C1224.1,984,1222.5,981.6,1219.7,980.1z"/>
			</g>
			<path class="st8" d="M841.4,1238.6l-30.2-76.3c0,0-73.6,50-85.7,113.4c13.9,1,39.2,4.6,64,17.1
				C794.9,1262.9,841.4,1238.6,841.4,1238.6z"/>
			<path class="st2" d="M905.7,1310.4c0,0-82.6,46.7-110.5,6.8c-5.8-8.3-7.2-16.5-5.7-24.3c-24.8-12.5-50.1-16.1-64-17.1
				c-3.6,19.1-1.7,39.4,9.5,60c48.8,89.3,181.6-4.9,181.6-4.9L905.7,1310.4z"/>
			<g>
				<path class="st10" d="M900.1,1375.3c-3,0-5.2-2.9-4.4-5.9l45.1-157.4c0.5-1.8,2-3.1,3.9-3.3c8.2-1,31.8-3.6,59.2-5.9
					c32.9-2.8,71.1-5,94-3.1c3.2,0.3,5.2,3.7,3.8,6.6c-13,26.3-66.4,133.2-93.2,168.2c-0.9,1.2-2.3,1.8-3.7,1.8L900.1,1375.3z"/>
				<path class="st6" d="M1008.5,1189.1l32.7-5.4c1.7-0.3,3.2,1.4,2.6,3l-3.2,9.8c-0.3,0.9-1,1.5-1.9,1.6l-31.5,4.2
					c-1.6,0.2-3-1.3-2.6-2.9l2-8.6C1006.8,1190,1007.6,1189.3,1008.5,1189.1z"/>
				<path class="st6" d="M984.1,1216.8l2.7-14c0.3-1.4,1.4-2.5,2.9-2.6l66-6.7c2.2-0.2,4,1.8,3.5,4l-4.2,17.5
					c-0.3,1.4-1.6,2.4-3,2.5l-64.5,3.2C985.3,1220.7,983.7,1218.8,984.1,1216.8z"/>
				<path class="st2" d="M906.6,1331.4c0,0-6.3-25.8-3.7-35c2.5-9.2,7.4-20.9,23.8-18.3c16.4,2.6,35.7,9.5,35.7,9.5
					s-1,11.9-13.4,8.1l7.7,6c0,0-1.1,9.6-11.6,4.5l7.2,7.9c0,0-4.5,7.8-12.2,2.8C932.2,1311.8,928.5,1334.5,906.6,1331.4z"/>
			</g>
			<path class="st2" d="M897,1077.7l-25.1,72.5c-0.4,1.2,0.1,2.5,1.2,3.1c6.8,3.8,31.4,14.7,61.1-4.1c3.1-2,5.2-5.2,5.7-8.8
				l8.1-62.7H897z"/>
			<g>
				<path class="st2" d="M951.6,1010.6c0,0,27.5,51.8,24,72.7c-3.5,20.9-37.6,19.4-67.4,2.4l-20.8-55.9L951.6,1010.6z"/>
				<path class="st10" d="M909.5,1058.3c1.2-0.5,1.7-2,0.9-3.1c-2.2-3.4-6.3-10.2-7.7-16.3c0,0-4.9-3.2,12.6-7.4
					c17.5-4.2,43.7-10.7,49.2-25.6c5.4-14.6-8.7-51.2-31.2-22c-0.9,1.1-2.5,1.1-3.4,0c-3.7-4.8-13.4-14.7-26.8-8.7
					c-12.6,5.6-14,14.9-13.8,19.5c0.1,1.4-1.2,2.4-2.5,2.2c-6.4-1.2-21.6-2.3-28.8,13.4c-5.9,12.9-2.1,20.2,1.4,23.8
					c1.1,1.2,0.6,3.1-0.9,3.5c-4.2,1.3-9.6,4.8-9,14.6c0.7,13.5,15.9,12.3,20.2,11.7c0.7-0.1,1.4,0.1,1.9,0.7
					c3.7,4.1,20.3,21.5,38.4,23.5c1.6,0.2,2.8-1.4,2.3-2.8l-7.8-22.7c-0.4-1.1,0.1-2.2,1.2-2.7L909.5,1058.3z"/>
				<path class="st2" d="M912.6,1061.5c0,0-19.6-13.4-21-2.1c-1.4,11.3,17.6,16.4,27.1,12.2L912.6,1061.5z"/>
			</g>
		</g>
		<g>
			<path class="st9" d="M2146.2,491.1l-106.6,268c-5.4,13.6-19.5,21.8-34,19.7l-279.4-19.6l100.6-286c2.7-7,9.5-11.6,17.1-11.5
				c49,1.1,227.4,5.5,291.2,11.2C2144,473.7,2149.5,482.8,2146.2,491.1z"/>
			<path class="st8" d="M2015,766.6l106.5-270.4c2.1-5.5-1.8-11.4-7.7-11.5l-263.1-10c-6.8-0.3-13,3.8-15.5,10.1l-96.4,263.6
				L2015,766.6z"/>
			<path class="st9" d="M1631.2,770c0,5,4,9,9,9h367.5c7.6,0,13.7-6.2,13.7-13.7l5.8-6.7l-381.6-3.3
				C1637.6,755.4,1631.2,762,1631.2,770L1631.2,770z"/>
		</g>
		<g>
			<g>
				<path class="st8" d="M1344.8,539.8l257.6-22.9c10.4-0.9,18.5-9.6,18.5-20.1l0.9-173.7c0.1-11.8-9.9-21.2-21.7-20.4l-274.3,19.1
					c-11.3,0.8-19.8,10.7-18.8,22.1l15.8,177.5C1323.8,532.5,1333.6,540.7,1344.8,539.8z"/>
				<path class="st2" d="M1606.8,339.9l1.7,150c0.1,6.5-4.8,12-11.3,12.7l-247,24.5c-7,0.7-13.1-4.4-13.8-11.4l-14.2-160.4
					c-0.6-7.1,4.7-13.3,11.8-13.7l259.6-14.1C1600.7,327.1,1606.8,332.7,1606.8,339.9z"/>
				<path class="st8" d="M1489.7,470.9l-139.8,8.2c-1.4,0.1-2.5,1.3-2.4,2.8l0.2,2.2c0.1,1.4,1.3,2.4,2.7,2.3l139.6-10.4
					c1.4-0.1,2.5-1.3,2.3-2.8v0C1492.3,471.8,1491.1,470.8,1489.7,470.9z"/>
				<path class="st8" d="M1493.4,484.9l0.1,1c0.1,1.4-0.9,2.6-2.3,2.8L1351.8,501c-1.4,0.1-2.6-0.9-2.8-2.3l-0.1-1
					c-0.1-1.4,0.9-2.6,2.3-2.8l139.4-12.4C1492.1,482.5,1493.3,483.5,1493.4,484.9z"/>
				<path class="st8" d="M1452.2,501.2l0,0.4c0.1,1.4-0.9,2.6-2.3,2.8l-97.1,8.6c-1.4,0.1-2.6-0.9-2.8-2.3l-0.2-2
					c-0.1-1.4,0.9-2.7,2.4-2.8l97.3-7.1C1450.9,498.7,1452.1,499.8,1452.2,501.2z"/>
			</g>
			<g>
				<path class="st10" d="M1366.4,477.7l304.1-6.2c12.3-0.3,22.4-9.8,23.3-22.1l15-203.7c1-13.9-10-25.7-23.9-25.7l-323.3,0.4
					c-13.4,0-24.1,11-23.9,24.4l4.3,209.5C1342.3,467.5,1353.2,478,1366.4,477.7z"/>
				<path class="st2" d="M1689.8,264.2l-10,176.1c-0.4,7.6-6.6,13.7-14.3,13.9l-291.8,9c-8.2,0.3-15.1-6.3-15.2-14.5l-3.9-189.3
					c-0.2-8.4,6.6-15.2,15-15.1l305.6,4.2C1683.6,248.7,1690.3,255.8,1689.8,264.2z"/>
				<path class="st10" d="M1541.9,408.5l-164.7-1.6c-1.7,0-3.1,1.4-3,3.1l0.1,2.6c0,1.6,1.4,2.9,3,2.9l164.6-1.1c1.7,0,3-1.4,3-3.1
					l0,0C1544.8,409.8,1543.5,408.5,1541.9,408.5z"/>
				<path class="st10" d="M1545.2,425.3l0,1.1c0,1.7-1.3,3-2.9,3.1l-164.6,3.3c-1.7,0-3-1.3-3.1-2.9l0-1.1c0-1.7,1.3-3,2.9-3.1
					l164.6-3.3C1543.8,422.3,1545.1,423.6,1545.2,425.3z"/>
				<path class="st10" d="M1495.5,441l0,0.5c0,1.7-1.3,3-2.9,3.1l-114.6,2.3c-1.7,0-3-1.3-3.1-2.9l0-2.3c0-1.7,1.3-3,3-3.1
					l114.7-0.5C1494.1,438.1,1495.5,439.4,1495.5,441z"/>
			</g>
			<g>
				<path class="st6" d="M1411.3,427.3h337.3c13.7,0,25.1-10.4,26.4-24l21.3-225.5c1.4-15.4-10.5-28.7-25.9-29l-358.6-6.8
					c-14.8-0.3-27,11.7-27,26.5v232.4C1384.8,415.4,1396.7,427.3,1411.3,427.3z"/>
				<path class="st8" d="M1774.7,197.8l-15.1,195c-0.7,8.5-7.7,15-16.2,15.1l-323.7,3.4c-9.1,0.1-16.6-7.3-16.6-16.4V185
					c0-9.3,7.7-16.7,17-16.4l338.8,11.5C1768.2,180.5,1775.4,188.5,1774.7,197.8z"/>
				<path class="st6" d="M1601.9,196.1l-182.6-5.5c-1.9-0.1-3.4,1.4-3.4,3.3v2.9c0,1.8,1.5,3.3,3.3,3.3l182.6,2.5
					c1.9,0,3.4-1.5,3.4-3.3l0,0C1605.1,197.6,1603.7,196.1,1601.9,196.1z"/>
				<path class="st6" d="M1605.1,214.7v1.3c0,1.8-1.5,3.3-3.3,3.3h-182.6c-1.8,0-3.3-1.5-3.3-3.3v-1.3c0-1.8,1.5-3.3,3.3-3.3h182.6
					C1603.6,211.4,1605.1,212.9,1605.1,214.7z"/>
				<path class="st6" d="M1549.7,231.1v0.5c0,1.8-1.5,3.3-3.3,3.3h-127.2c-1.8,0-3.3-1.5-3.3-3.3V229c0-1.9,1.5-3.3,3.4-3.3l127.2,2
					C1548.2,227.8,1549.7,229.2,1549.7,231.1z"/>
				<path class="st6" d="M1464.3,331.3c0.3,0,0.6-0.1,0.9-0.3l54.8-44.5l54,39.6c0.6,0.4,1.5,0.3,2-0.2l75.1-90.2
					c8.5,7.5,63.9,56,71.3,62.5c0.6,0.5,1.5,0.5,2-0.1c0.5-0.6,0.5-1.5-0.1-2c-8-7-72.4-63.5-72.4-63.5c-0.3-0.3-0.7-0.4-1.1-0.4
					c-0.4,0-0.7,0.2-1,0.5l-75.2,90.2l-53.8-39.4c-0.5-0.4-1.2-0.4-1.8,0l-54.7,44.5l-29.3-25.6c-0.6-0.5-1.5-0.5-2,0.1
					c-0.5,0.6-0.5,1.5,0.1,2l30.2,26.4C1463.6,331.2,1463.9,331.3,1464.3,331.3z"/>
				<path class="st6" d="M1648.9,378.8v-2.9c0-0.5,0.4-1,1-1c0.5,0,1,0.4,1,1v2.9c0,0.5-0.4,1-1,1
					C1649.3,379.7,1648.9,379.3,1648.9,378.8z M1648.9,369.2v-2.9c0-0.5,0.4-1,1-1c0.5,0,1,0.4,1,1v2.9c0,0.5-0.4,1-1,1
					C1649.3,370.2,1648.9,369.8,1648.9,369.2z M1648.9,359.7v-2.9c0-0.5,0.4-1,1-1c0.5,0,1,0.4,1,1v2.9c0,0.5-0.4,1-1,1
					C1649.3,360.6,1648.9,360.2,1648.9,359.7z M1648.9,350.1v-2.9c0-0.5,0.4-1,1-1c0.5,0,1,0.4,1,1v2.9c0,0.5-0.4,1-1,1
					C1649.3,351,1648.9,350.6,1648.9,350.1z M1648.9,340.5v-2.9c0-0.5,0.4-1,1-1c0.5,0,1,0.4,1,1v2.9c0,0.5-0.4,1-1,1
					C1649.3,341.5,1648.9,341,1648.9,340.5z M1648.9,330.9v-2.9c0-0.5,0.4-1,1-1c0.5,0,1,0.4,1,1v2.9c0,0.5-0.4,1-1,1
					C1649.3,331.9,1648.9,331.5,1648.9,330.9z M1648.9,321.4v-2.9c0-0.5,0.4-1,1-1c0.5,0,1,0.4,1,1v2.9c0,0.5-0.4,1-1,1
					C1649.3,322.3,1648.9,321.9,1648.9,321.4z M1648.9,311.8v-2.9c0-0.5,0.4-1,1-1c0.5,0,1,0.4,1,1v2.9c0,0.5-0.4,1-1,1
					C1649.3,312.8,1648.9,312.3,1648.9,311.8z M1648.9,302.2v-2.9c0-0.5,0.4-1,1-1c0.5,0,1,0.4,1,1v2.9c0,0.5-0.4,1-1,1
					C1649.3,303.2,1648.9,302.8,1648.9,302.2z M1648.9,292.7v-2.9c0-0.5,0.4-1,1-1c0.5,0,1,0.4,1,1v2.9c0,0.5-0.4,1-1,1
					C1649.3,293.6,1648.9,293.2,1648.9,292.7z M1648.9,283.1v-2.9c0-0.5,0.4-1,1-1c0.5,0,1,0.4,1,1v2.9c0,0.5-0.4,1-1,1
					C1649.3,284.1,1648.9,283.6,1648.9,283.1z M1648.9,273.5v-2.9c0-0.5,0.4-1,1-1c0.5,0,1,0.4,1,1v2.9c0,0.5-0.4,1-1,1
					C1649.3,274.5,1648.9,274.1,1648.9,273.5z M1648.9,264v-2.9c0-0.5,0.4-1,1-1c0.5,0,1,0.4,1,1v2.9c0,0.5-0.4,1-1,1
					C1649.3,264.9,1648.9,264.5,1648.9,264z M1648.9,254.4v-2.9c0-0.5,0.4-1,1-1c0.5,0,1,0.4,1,1v2.9c0,0.5-0.4,1-1,1
					C1649.3,255.4,1648.9,254.9,1648.9,254.4z"/>
				<path class="st6" d="M1573.9,380.6v-2.9c0-0.5,0.4-1,1-1s1,0.4,1,1v2.9c0,0.5-0.4,1-1,1S1573.9,381.1,1573.9,380.6z M1573.9,371
					v-2.9c0-0.5,0.4-1,1-1s1,0.4,1,1v2.9c0,0.5-0.4,1-1,1S1573.9,371.5,1573.9,371z M1573.9,361.4v-2.9c0-0.5,0.4-1,1-1s1,0.4,1,1
					v2.9c0,0.5-0.4,1-1,1S1573.9,361.9,1573.9,361.4z M1573.9,351.8V349c0-0.5,0.4-1,1-1s1,0.4,1,1v2.9c0,0.5-0.4,1-1,1
					S1573.9,352.4,1573.9,351.8z M1573.9,342.3v-2.9c0-0.5,0.4-1,1-1s1,0.4,1,1v2.9c0,0.5-0.4,1-1,1S1573.9,342.8,1573.9,342.3z
					 M1573.9,332.7v-2.9c0-0.5,0.4-1,1-1s1,0.4,1,1v2.9c0,0.5-0.4,1-1,1S1573.9,333.2,1573.9,332.7z"/>
				<path class="st6" d="M1517.9,383.3c-0.5,0-0.9-0.5-0.9-1l0.1-2.9c0-0.5,0.4-1,1-0.9c0.5,0,0.9,0.5,0.9,1l-0.1,2.9
					C1518.8,382.9,1518.4,383.3,1517.9,383.3C1517.9,383.3,1517.9,383.3,1517.9,383.3z M1518.2,373.8c-0.5,0-0.9-0.5-0.9-1l0.1-2.9
					c0-0.5,0.5-0.9,1-0.9c0.5,0,0.9,0.5,0.9,1l-0.1,2.9C1519.1,373.4,1518.7,373.8,1518.2,373.8
					C1518.2,373.8,1518.2,373.8,1518.2,373.8z M1518.5,364.2c-0.5,0-0.9-0.5-0.9-1l0.1-2.9c0-0.5,0.5-1,1-0.9c0.5,0,0.9,0.5,0.9,1
					l-0.1,2.9C1519.4,363.8,1519,364.2,1518.5,364.2C1518.5,364.2,1518.5,364.2,1518.5,364.2z M1518.8,354.7c-0.5,0-0.9-0.5-0.9-1
					l0.1-2.9c0-0.5,0.4-1,1-0.9c0.5,0,0.9,0.5,0.9,1l-0.1,2.9C1519.7,354.2,1519.3,354.7,1518.8,354.7
					C1518.8,354.7,1518.8,354.7,1518.8,354.7z M1519.1,345.1c-0.5,0-0.9-0.5-0.9-1l0.1-2.9c0-0.5,0.4-1,1-0.9c0.5,0,0.9,0.5,0.9,1
					l-0.1,2.9C1520,344.7,1519.6,345.1,1519.1,345.1C1519.1,345.1,1519.1,345.1,1519.1,345.1z M1519.3,335.5c-0.5,0-0.9-0.5-0.9-1
					l0.1-2.9c0-0.5,0.5-1,1-0.9c0.5,0,0.9,0.5,0.9,1l-0.1,2.9C1520.3,335.1,1519.9,335.5,1519.3,335.5
					C1519.4,335.5,1519.4,335.5,1519.3,335.5z M1519.6,326c-0.5,0-0.9-0.5-0.9-1l0.1-2.9c0-0.5,0.5-1,1-0.9c0.5,0,0.9,0.5,0.9,1
					l-0.1,2.9C1520.6,325.6,1520.2,326,1519.6,326C1519.7,326,1519.7,326,1519.6,326z M1519.9,316.4c-0.5,0-0.9-0.5-0.9-1l0.1-2.9
					c0-0.5,0.5-1,1-0.9c0.5,0,0.9,0.5,0.9,1l-0.1,2.9C1520.9,316,1520.5,316.4,1519.9,316.4C1520,316.4,1520,316.4,1519.9,316.4z
					 M1520.2,306.8c-0.5,0-0.9-0.5-0.9-1l0.1-2.9c0-0.5,0.4-1,1-0.9c0.5,0,0.9,0.5,0.9,1l-0.1,2.9
					C1521.2,306.4,1520.8,306.8,1520.2,306.8C1520.3,306.8,1520.2,306.8,1520.2,306.8z M1520.5,297.3c-0.5,0-0.9-0.5-0.9-1l0.1-2.9
					c0-0.5,0.4-1,1-0.9c0.5,0,0.9,0.5,0.9,1l-0.1,2.9C1521.5,296.9,1521.1,297.3,1520.5,297.3
					C1520.6,297.3,1520.5,297.3,1520.5,297.3z"/>
				<path class="st6" d="M1462.6,379.5v-2.9c0-0.5,0.4-1,1-1c0.5,0,1,0.4,1,1v2.9c0,0.5-0.4,1-1,1
					C1463,380.5,1462.6,380.1,1462.6,379.5z M1462.6,370v-2.9c0-0.5,0.4-1,1-1c0.5,0,1,0.4,1,1v2.9c0,0.5-0.4,1-1,1
					C1463,370.9,1462.6,370.5,1462.6,370z M1462.6,360.4v-2.9c0-0.5,0.4-1,1-1c0.5,0,1,0.4,1,1v2.9c0,0.5-0.4,1-1,1
					C1463,361.4,1462.6,360.9,1462.6,360.4z M1462.6,350.8V348c0-0.5,0.4-1,1-1c0.5,0,1,0.4,1,1v2.9c0,0.5-0.4,1-1,1
					C1463,351.8,1462.6,351.4,1462.6,350.8z M1462.6,341.3v-2.9c0-0.5,0.4-1,1-1c0.5,0,1,0.4,1,1v2.9c0,0.5-0.4,1-1,1
					C1463,342.2,1462.6,341.8,1462.6,341.3z"/>
				<g>
					<g>
						<path class="st6" d="M1729.7,395.4c0.7,0,1.4-0.6,1.4-1.3l15.4-182.1c0.1-0.8-0.5-1.5-1.3-1.6c-0.8-0.1-1.5,0.5-1.6,1.3
							l-15.4,182.1c-0.1,0.8,0.5,1.5,1.3,1.6C1729.7,395.4,1729.7,395.4,1729.7,395.4z"/>
						<g>
							<polygon class="st6" points="1749.5,217.9 1745.1,212.6 1739.8,217.1 1740.2,213 1745.4,208.5 1749.9,213.8 							"/>
						</g>
					</g>
				</g>
				<g>
					<g>
						<path class="st6" d="M1425.3,386.9h316c0.8,0,1.4-0.6,1.4-1.4c0-0.8-0.6-1.4-1.4-1.4h-316c-0.8,0-1.4,0.6-1.4,1.4
							C1423.9,386.2,1424.5,386.9,1425.3,386.9z"/>
						<g>
							<polygon class="st6" points="1431,390.3 1426.2,385.4 1431,380.6 1426.9,380.6 1422,385.4 1426.9,390.3 							"/>
						</g>
					</g>
				</g>
			</g>
		</g>
		<g>
			<g>
				<path class="st6" d="M1764,278l-91.8-33.3l-7.1,14.8l88.3,33.3C1753.4,292.8,1765.6,291.7,1764,278z"/>
				<path class="st2" d="M1672.2,244.7c2.7,8.2-7.1,14.8-7.1,14.8l-16.7-11.8c0.9-2.3,1.4-4.5,1.8-6.5L1672.2,244.7z"/>
				<path class="st6" d="M1650.2,241.3c-0.3,2-0.9,4.2-1.8,6.5l-12.3-8.7L1650.2,241.3z"/>
			</g>
			<path class="st10" d="M1739.8,385.3c19.1,35.5,50.8,71.8,102.3,81.5c47.6,9,133,20,167.4,24.4c10.3,1.3,19.7,6.3,26.5,14.2
				c27,31.2,86.3,116.8,16.6,203c-8.9-5-21.6-12.9-30.2-22.1c7.7-21.7,8.3-49.5-7.8-83.6c-0.6,2.7-1.2,5.4-2.1,8
				c-22.3,70.6-23.5,129.3-23.4,142.8c0,1.8-1,3.9-2.8,4.2c-38.6,5.3-111.1,0.9-111.1,0.9c13.4-66.5-37-183.5-50-212.2
				c-1.9-4.1-5.2-7.3-9.2-9.2c-72-32.6-103.3-82.8-116-128C1710.9,394.5,1728,388.1,1739.8,385.3z"/>
			<path class="st2" d="M1699.9,409.3c-15.4-54.8-3.4-102.3-3.4-102.3h16.4c0,0,5.6,38.7,26.9,78.3
				C1728,388.1,1710.9,394.5,1699.9,409.3z"/>
			<path class="st2" d="M1707.2,315.7c0,0,25-32.4,16.9-49.2c-8.1-16.9-36-15.2-36-15.2l-3.9,13.2c-1,3.5-0.9,7.2,0.4,10.6
				l15.4,40.7H1707.2z"/>
			<path class="st2" d="M1958.8,426.4l5.7,57.7c0,0-32.5,9.8-56.1-6.9l16.6-52.5L1958.8,426.4z"/>
			<g>
				<path class="st2" d="M1921.1,360.6c-0.8,0.7-33,64-33,64l36.5,17.6l39.4-55.4C1964.1,386.8,1934.2,348.2,1921.1,360.6z"/>
				<path class="st6" d="M1947.9,388.3c0.7,1.7,0.5,3.6-0.4,5.1l-18.2,30.3c-0.3,0.5-0.6,0.9-1,1.2c-2.2,2-9.6,7.9-15.3-0.1
					c-4.9-6.8-9.5-13-14.4-15.6c-2.9-1.5-6.4-0.3-7.9,2.6c-3,5.9-8.8,18.1-12.5,29.6c-0.9,2.9,0.6,6,3.4,7.1c7.4,3,22,8.4,35,10.2
					c2.1,0.3,4.2-0.6,5.5-2.3c5.6-7.6,21.3-29,26.7-34.3c5-5,14.2-3.1,18.3-1.9c1.6,0.5,3.2,0.2,4.7-0.6c4.2-2.5,11.5-8.8,4.8-19.5
					c-1.7-2.7-0.8-6.2,1.8-7.9c4.7-3.1,9.8-8.9,4.9-18.3c-4.9-9.5-13.7-10.4-19.7-9.6c-2.6,0.3-5.3-1.1-6.3-3.5
					c-0.5-1.1-1.3-2-3-2.4c-3.1-0.6-5.2-3.5-4.6-6.6c1.1-5.4,0.3-12.4-8.3-17.1c-15.8-8.7-29.5,5.5-33.1,17.4
					c-3.5,11.9,14.1,20.3,25.2,21.7C1941.7,374.8,1946.1,383.6,1947.9,388.3z"/>
				<path class="st2" d="M1941.9,433.3c0,0,7-20.5,16-19.7c9,0.8,16,9.7,4.9,19.7C1949,445.7,1941.9,433.3,1941.9,433.3z"/>
			</g>
			<path class="st2" d="M2022.4,686.3c8.6,9.2,21.3,17.1,30.2,22.1c-13.3,16.5-25.4,28.8-49.2,45l-2.5,5.1l-37.3,1.3
				C1963.5,759.6,2007.9,727,2022.4,686.3z"/>
		</g>
		<g>
			<path class="st2" d="M1821.4,716.5l-0.3-2.3l0,0c0-0.3,0.2-0.6,0.5-0.7c0.3,0,0.6,0.2,0.7,0.5c0,0,0,0,0,0l0.3,2.4
				c0,0.3-0.2,0.6-0.5,0.7C1821.7,717.1,1821.4,716.8,1821.4,716.5L1821.4,716.5z"/>
			<path class="st2" d="M1818.7,702.5l-0.6-2.3l0,0c-0.1-0.4,0.1-0.8,0.5-0.9c0.4-0.1,0.8,0.1,0.9,0.5c0,0,0,0,0,0l0.6,2.3
				c0.1,0.4-0.1,0.7-0.5,0.8C1819.2,703.1,1818.8,702.8,1818.7,702.5L1818.7,702.5z"/>
			<path class="st2" d="M1814.5,688.8l-0.9-2.2l0,0c-0.2-0.4,0-0.9,0.5-1c0.4-0.2,0.9,0,1,0.5c0,0,0,0,0,0l0.8,2.3
				c0.1,0.4-0.1,0.8-0.5,1C1815.1,689.4,1814.6,689.2,1814.5,688.8L1814.5,688.8z"/>
			<path class="st2" d="M1808.7,675.8l-1.1-2.1l0,0c-0.2-0.4-0.1-1,0.4-1.2s1-0.1,1.2,0.4c0,0,0,0,0,0l1.1,2.1
				c0.2,0.4,0.1,0.9-0.4,1.2C1809.4,676.4,1808.9,676.2,1808.7,675.8L1808.7,675.8z"/>
			<path class="st2" d="M1801.3,663.7l-1.4-1.9l0,0c-0.3-0.4-0.2-1,0.2-1.4c0.4-0.3,1-0.2,1.4,0.2c0,0,0,0,0,0l1.4,2
				c0.3,0.4,0.2,1-0.2,1.3C1802.2,664.2,1801.6,664.1,1801.3,663.7L1801.3,663.7z"/>
			<path class="st2" d="M1792.2,652.7l-1.7-1.7l0,0c-0.4-0.4-0.4-1.1,0-1.5c0.4-0.4,1.1-0.4,1.5,0c0,0,0,0,0,0l1.7,1.7
				c0.4,0.4,0.4,1.1,0,1.5C1793.3,653.2,1792.6,653.2,1792.2,652.7L1792.2,652.7z"/>
			<path class="st2" d="M1781.5,643.5l-1.9-1.4l0,0c-0.5-0.4-0.6-1.1-0.3-1.6c0.4-0.5,1.1-0.6,1.6-0.3c0,0,0,0,0,0l2,1.4
				c0.5,0.4,0.6,1.1,0.2,1.6C1782.7,643.7,1782,643.8,1781.5,643.5L1781.5,643.5z"/>
			<path class="st2" d="M1769.4,636.1l-2.1-1l0,0c-0.6-0.3-0.9-1-0.6-1.7c0.3-0.6,1-0.9,1.7-0.6c0,0,0,0,0,0l2.2,1.1
				c0.6,0.3,0.9,1,0.6,1.6C1770.8,636.2,1770,636.4,1769.4,636.1L1769.4,636.1z"/>
			<path class="st2" d="M1756.2,630.9l-2.3-0.7l0,0c-0.7-0.2-1.1-0.9-0.9-1.6c0.2-0.7,0.9-1.1,1.6-0.9c0,0,0,0,0,0l2.3,0.7
				c0.7,0.2,1.1,0.9,0.9,1.6C1757.7,630.7,1757,631.1,1756.2,630.9L1756.2,630.9z"/>
			<path class="st2" d="M1742.4,627.7l-2.3-0.3l0,0c-0.8-0.1-1.3-0.8-1.2-1.6s0.8-1.3,1.6-1.2l0,0l2.4,0.4c0.7,0.1,1.3,0.8,1.1,1.6
				C1743.9,627.3,1743.2,627.8,1742.4,627.7L1742.4,627.7z"/>
			<path class="st2" d="M1728.3,626.4l-2.4-0.1l0,0c-0.8,0-1.4-0.7-1.4-1.5c0-0.8,0.7-1.4,1.5-1.4l0,0l2.4,0.1
				c0.8,0,1.4,0.7,1.4,1.5C1729.8,625.8,1729.1,626.4,1728.3,626.4L1728.3,626.4z"/>
			<path class="st2" d="M1714.1,626.7l-2.4,0.2l0,0c-0.8,0.1-1.5-0.5-1.6-1.4c-0.1-0.8,0.5-1.5,1.4-1.6l0,0l2.4-0.2
				c0.8-0.1,1.5,0.6,1.6,1.4C1715.5,625.9,1714.9,626.6,1714.1,626.7L1714.1,626.7z"/>
			<path class="st2" d="M1700,628.3l-2.3,0.4l0,0c-0.8,0.1-1.6-0.4-1.8-1.3c-0.1-0.8,0.4-1.6,1.3-1.8l0,0l2.4-0.4
				c0.8-0.1,1.6,0.4,1.7,1.3C1701.4,627.4,1700.8,628.2,1700,628.3L1700,628.3z"/>
			<path class="st2" d="M1686,631l-2.3,0.5l0,0c-0.8,0.2-1.7-0.3-1.9-1.2c-0.2-0.8,0.3-1.7,1.2-1.9l0,0l2.3-0.5
				c0.8-0.2,1.7,0.3,1.9,1.2C1687.4,630,1686.8,630.8,1686,631L1686,631z"/>
			<path class="st2" d="M1672.2,634.7l-2.3,0.7l0,0c-0.9,0.3-1.8-0.2-2-1.1c-0.3-0.9,0.2-1.8,1.1-2l0,0l2.3-0.7
				c0.9-0.3,1.8,0.2,2,1.1C1673.5,633.5,1673.1,634.4,1672.2,634.7L1672.2,634.7z"/>
			<path class="st2" d="M1658.6,639.1l-2.2,0.8l0,0c-0.9,0.3-1.8-0.1-2.1-1c-0.3-0.9,0.1-1.8,1-2.1l0,0l2.3-0.8
				c0.9-0.3,1.8,0.2,2.1,1C1659.9,637.8,1659.5,638.7,1658.6,639.1L1658.6,639.1z"/>
			<path class="st2" d="M1645.2,644.1l-2.2,0.9l0,0c-0.9,0.4-1.9-0.1-2.3-1c-0.4-0.9,0.1-1.9,1-2.3l0,0l2.2-0.9
				c0.9-0.4,1.9,0.1,2.2,1C1646.5,642.7,1646.1,643.7,1645.2,644.1L1645.2,644.1z"/>
			<path class="st2" d="M1632.1,649.7l-2.2,1l0,0c-0.9,0.4-1.9,0-2.4-0.9c-0.4-0.9,0-1.9,0.9-2.4l0,0l2.2-1c0.9-0.4,1.9,0,2.3,0.9
				C1633.3,648.2,1632.9,649.3,1632.1,649.7L1632.1,649.7z"/>
			<path class="st2" d="M1619,655.6l-2.2,1c-0.9,0.4-2,0-2.4-0.9c-0.4-0.9,0-2,0.9-2.4l0,0l0,0l2.2-0.9l0,0c0.9-0.4,2,0,2.4,0.9
				C1620.3,654.2,1619.9,655.2,1619,655.6z"/>
			<path class="st2" d="M1605.6,661.2l-2.2,0.9c-0.9,0.4-2-0.1-2.4-1.1c-0.4-0.9,0.1-2,1.1-2.4l0,0l0,0l2.2-0.8l0,0
				c0.9-0.4,2,0.1,2.4,1.1C1607.1,659.7,1606.6,660.8,1605.6,661.2z"/>
			<path class="st2" d="M1592.1,666.1l-2.3,0.8c-1,0.3-2-0.2-2.4-1.2s0.2-2,1.2-2.4l0,0l0,0l2.3-0.8l0,0c1-0.3,2,0.2,2.3,1.2
				C1593.6,664.7,1593.1,665.8,1592.1,666.1z"/>
			<path class="st2" d="M1578.4,670.6l-2.3,0.7c-1,0.3-2-0.2-2.3-1.2c-0.3-1,0.2-2,1.2-2.3l0,0l0,0l2.3-0.7l0,0c1-0.3,2,0.3,2.3,1.2
				C1579.9,669.3,1579.4,670.3,1578.4,670.6z"/>
			<path class="st2" d="M1564.6,674.7l-2.3,0.6c-1,0.3-2-0.3-2.3-1.3c-0.3-1,0.3-2,1.3-2.3l0,0l0,0l2.3-0.6l0,0c1-0.3,2,0.3,2.3,1.3
				C1566.1,673.4,1565.6,674.4,1564.6,674.7z"/>
			<path class="st2" d="M1550.6,678.4l-2.3,0.6c-1,0.3-2-0.4-2.3-1.4c-0.3-1,0.4-2,1.4-2.3l0,0l0,0l2.3-0.6l0,0c1-0.3,2,0.4,2.3,1.4
				C1552.3,677.2,1551.7,678.2,1550.6,678.4z"/>
			<path class="st2" d="M1536.7,681.9l-2.3,0.5c-1,0.2-2-0.4-2.3-1.4c-0.2-1,0.4-2,1.4-2.3l0,0l0,0l2.3-0.5l0,0c1-0.2,2,0.4,2.3,1.4
				C1538.3,680.6,1537.7,681.6,1536.7,681.9z"/>
			<path class="st2" d="M1522.6,685l-2.3,0.5c-1,0.2-2-0.4-2.3-1.5c-0.2-1,0.4-2,1.5-2.3l0,0l2.3-0.5c1-0.2,2,0.4,2.3,1.5
				C1524.3,683.8,1523.6,684.8,1522.6,685z"/>
			<path class="st2" d="M1508.5,687.9l-2.4,0.5c-1,0.2-2.1-0.5-2.3-1.5c-0.2-1,0.5-2.1,1.5-2.3l0,0l2.3-0.5c1-0.2,2.1,0.5,2.3,1.5
				C1510.2,686.7,1509.5,687.7,1508.5,687.9z"/>
			<path class="st2" d="M1494.3,690.6l-2.4,0.4c-1.1,0.2-2.1-0.5-2.2-1.6c-0.2-1.1,0.5-2.1,1.6-2.2l0,0l2.4-0.4
				c1.1-0.2,2.1,0.5,2.2,1.6C1496.1,689.4,1495.4,690.4,1494.3,690.6z"/>
			<path class="st2" d="M1480.2,693l-2.4,0.4c-1.1,0.2-2.1-0.5-2.2-1.6c-0.2-1.1,0.5-2.1,1.6-2.2l0,0l2.4-0.4
				c1.1-0.2,2.1,0.5,2.2,1.6C1481.9,691.9,1481.2,692.9,1480.2,693z"/>
			<path class="st2" d="M1465.8,695.3l-2.4,0.3c-1.1,0.2-2.1-0.6-2.2-1.7c-0.2-1.1,0.6-2.1,1.7-2.2l0,0l2.4-0.3
				c1.1-0.2,2.1,0.6,2.2,1.7C1467.6,694.1,1466.8,695.1,1465.8,695.3z"/>
			<path class="st2" d="M1451.3,697.3l-2.4,0.3c-1.1,0.1-2.1-0.6-2.2-1.7c-0.1-1.1,0.6-2.1,1.7-2.2l0,0l2.4-0.3
				c1.1-0.1,2.1,0.6,2.2,1.7C1453.1,696.2,1452.3,697.2,1451.3,697.3z"/>
			<path class="st2" d="M1436.6,699.2l-2.4,0.3c-1.1,0.1-2.1-0.6-2.2-1.7c-0.1-1.1,0.6-2.1,1.7-2.2l0,0l2.4-0.3
				c1.1-0.1,2.1,0.6,2.2,1.7C1438.5,698,1437.7,699,1436.6,699.2z"/>
			<path class="st2" d="M1422.3,700.8l-2.4,0.2c-1.1,0.1-2.1-0.7-2.2-1.8c-0.1-1.1,0.7-2.1,1.8-2.2l0,0l2.4-0.2
				c1.1-0.1,2.1,0.7,2.2,1.8C1424.2,699.7,1423.4,700.7,1422.3,700.8z"/>
			<path class="st2" d="M1408,702.2l-2.4,0.2c-1.1,0.1-2.1-0.7-2.2-1.8c-0.1-1.1,0.7-2.1,1.8-2.2l0,0l2.4-0.2
				c1.1-0.1,2.1,0.7,2.2,1.8C1409.9,701.1,1409.1,702.1,1408,702.2z"/>
			<path class="st2" d="M1393.7,703.4l-2.4,0.2c-1.1,0.1-2.1-0.7-2.2-1.9c-0.1-1.1,0.7-2.1,1.9-2.2l0,0l2.4-0.2
				c1.1-0.1,2.1,0.7,2.2,1.9C1395.6,702.3,1394.8,703.3,1393.7,703.4z"/>
			<path class="st2" d="M1379.3,704.4l-2.4,0.2c-1.1,0.1-2.1-0.8-2.2-1.9c-0.1-1.1,0.8-2.1,1.9-2.2l0,0l2.4-0.1
				c1.1-0.1,2.1,0.8,2.2,1.9C1381.3,703.4,1380.4,704.4,1379.3,704.4z"/>
			<path class="st2" d="M1364.9,705.3l-2.4,0.1c-1.1,0.1-2.1-0.8-2.1-1.9c-0.1-1.1,0.8-2.1,1.9-2.1l0,0l2.4-0.1
				c1.1-0.1,2.1,0.8,2.1,1.9C1366.9,704.3,1366.1,705.2,1364.9,705.3z"/>
			<path class="st2" d="M1350.5,705.9l-2.4,0.1c-1.1,0-2.1-0.8-2.1-2c0-1.1,0.8-2.1,2-2.1l0,0l2.4-0.1c1.1,0,2.1,0.8,2.1,2
				C1352.6,704.9,1351.7,705.9,1350.5,705.9z"/>
			<path class="st2" d="M1336.2,706.3l-2.4,0.1c-1.1,0-2.1-0.9-2.1-2c0-1.1,0.9-2.1,2-2.1l2.4-0.1c1.1,0,2.1,0.9,2.1,2
				C1338.2,705.4,1337.3,706.3,1336.2,706.3L1336.2,706.3z"/>
			<path class="st2" d="M1321.8,706.6l-2.4,0c-1.1,0-2-0.9-2.1-2c0-1.1,0.9-2,2-2.1l2.4,0c1.1,0,2,0.9,2.1,2
				C1323.8,705.6,1322.9,706.6,1321.8,706.6L1321.8,706.6z"/>
			<path class="st2" d="M1307.4,706.6l-2.4,0c-1.1,0-2-0.9-2-2c0-1.1,0.9-2,2-2l2.4,0c1.1,0,2,0.9,2,2
				C1309.4,705.7,1308.5,706.6,1307.4,706.6L1307.4,706.6z"/>
			<path class="st2" d="M1293,706.4l-2.4-0.1c-1.1,0-2-0.9-2-2.1c0-1.1,0.9-2,2.1-2l2.4,0c1.1,0,2,0.9,2,2
				C1295,705.5,1294.1,706.4,1293,706.4L1293,706.4z"/>
			<path class="st2" d="M1278.6,706l-2.4-0.1c-1.1,0-2-1-1.9-2.1c0-1.1,1-2,2.1-1.9l2.4,0.1c1.1,0,2,1,1.9,2.1
				C1280.6,705.2,1279.7,706,1278.6,706L1278.6,706z"/>
			<path class="st2" d="M1264.2,705.4l-2.4-0.1c-1.1-0.1-1.9-1-1.9-2.1c0.1-1.1,1-1.9,2.1-1.9l2.4,0.1c1.1,0.1,1.9,1,1.9,2.1
				C1266.2,704.6,1265.3,705.4,1264.2,705.4L1264.2,705.4z"/>
			<path class="st2" d="M1249.8,704.5l-2.4-0.2c-1.1-0.1-1.9-1-1.8-2.1c0.1-1.1,1-1.9,2.1-1.8l2.4,0.2c1.1,0.1,1.9,1,1.8,2.1
				C1251.9,703.8,1250.9,704.6,1249.8,704.5L1249.8,704.5z"/>
			<path class="st2" d="M1235.5,703.4l-2.4-0.2c-1.1-0.1-1.9-1-1.8-2.1c0.1-1.1,1.1-1.9,2.1-1.8l2.4,0.2c1.1,0.1,1.9,1,1.8,2.1
				C1237.5,702.7,1236.6,703.5,1235.5,703.4L1235.5,703.4z"/>
			<path class="st2" d="M1221.1,702l-2.4-0.3c-1.1-0.1-1.8-1.1-1.7-2.1c0.1-1.1,1.1-1.8,2.1-1.7l0,0l2.4,0.2l0,0
				c1.1,0.1,1.9,1.1,1.7,2.1C1223.2,701.4,1222.2,702.1,1221.1,702L1221.1,702z"/>
			<path class="st2" d="M1206.8,700.4l-2.4-0.3c-1.1-0.1-1.8-1.1-1.7-2.2c0.1-1.1,1.1-1.8,2.2-1.7l0,0l2.4,0.3l0,0
				c1.1,0.1,1.8,1.1,1.7,2.2C1208.9,699.8,1207.9,700.5,1206.8,700.4L1206.8,700.4z"/>
			<path class="st2" d="M1192.5,698.5l-2.4-0.4c-1.1-0.2-1.8-1.1-1.6-2.2c0.2-1.1,1.1-1.8,2.2-1.6l0,0l2.4,0.3l0,0
				c1.1,0.2,1.8,1.1,1.6,2.2C1194.6,697.9,1193.6,698.6,1192.5,698.5L1192.5,698.5z"/>
			<path class="st2" d="M1178.3,696.2l-2.4-0.4c-1-0.2-1.7-1.2-1.6-2.2c0.2-1,1.2-1.7,2.2-1.6l0,0l2.4,0.4l0,0
				c1,0.2,1.8,1.2,1.6,2.2C1180.3,695.7,1179.4,696.4,1178.3,696.2L1178.3,696.2z"/>
			<path class="st2" d="M1164.1,693.7l-2.4-0.5c-1-0.2-1.7-1.2-1.5-2.2c0.2-1,1.2-1.7,2.2-1.5l0,0l2.3,0.5l0,0
				c1,0.2,1.7,1.2,1.5,2.2C1166.2,693.2,1165.2,693.9,1164.1,693.7L1164.1,693.7z"/>
			<path class="st2" d="M1150,690.7l-2.3-0.5c-1-0.2-1.7-1.2-1.4-2.3c0.2-1,1.2-1.7,2.3-1.4l0,0l2.3,0.5l0,0c1,0.2,1.7,1.2,1.4,2.3
				C1152,690.3,1151,691,1150,690.7L1150,690.7z"/>
			<path class="st2" d="M1136,687.4l-2.3-0.6c-1-0.3-1.6-1.3-1.4-2.3c0.3-1,1.3-1.6,2.3-1.4l0,0l2.3,0.6l0,0c1,0.3,1.6,1.3,1.4,2.3
				C1138,687.1,1137,687.7,1136,687.4L1136,687.4z"/>
			<path class="st2" d="M1122,683.7l-2.3-0.7c-1-0.3-1.6-1.3-1.3-2.3c0.3-1,1.3-1.6,2.3-1.3l0,0l2.3,0.7l0,0c1,0.3,1.6,1.3,1.3,2.3
				C1124.1,683.4,1123,684,1122,683.7L1122,683.7z"/>
			<path class="st2" d="M1108.2,679.5l-2.3-0.7c-1-0.3-1.5-1.4-1.2-2.3c0.3-1,1.4-1.5,2.3-1.2l0,0l2.3,0.7l0,0
				c1,0.3,1.5,1.4,1.2,2.3C1110.3,679.3,1109.2,679.8,1108.2,679.5L1108.2,679.5z"/>
			<path class="st2" d="M1094.6,674.9l-2.3-0.8c-1-0.4-1.4-1.4-1.1-2.4c0.4-1,1.4-1.4,2.4-1.1l0,0l2.2,0.8l0,0
				c1,0.4,1.5,1.4,1.1,2.4C1096.6,674.7,1095.5,675.2,1094.6,674.9L1094.6,674.9z"/>
			<path class="st2" d="M1081.1,669.6l-2.2-0.9c-0.9-0.4-1.4-1.5-1-2.4c0.4-0.9,1.5-1.4,2.4-1l0,0l2.2,0.9l0,0
				c0.9,0.4,1.4,1.5,1,2.4C1083.1,669.6,1082,670,1081.1,669.6L1081.1,669.6z"/>
			<path class="st2" d="M1067.9,663.8l-2.2-1c-0.9-0.4-1.3-1.5-0.9-2.4c0.4-0.9,1.5-1.3,2.4-0.9l0,0l2.2,1l0,0
				c0.9,0.4,1.3,1.5,0.9,2.4C1069.9,663.8,1068.8,664.2,1067.9,663.8L1067.9,663.8z"/>
			<path class="st2" d="M1055,657.3l-2.1-1.2c-0.9-0.5-1.2-1.5-0.7-2.4c0.5-0.9,1.5-1.2,2.4-0.7l0,0l2.1,1.1l0,0
				c0.9,0.5,1.2,1.5,0.7,2.4C1056.9,657.4,1055.8,657.8,1055,657.3L1055,657.3z"/>
			<path class="st2" d="M1042.4,650l-2-1.3c-0.8-0.5-1.1-1.6-0.5-2.4c0.5-0.8,1.6-1.1,2.4-0.5l0,0l2,1.3l0,0
				c0.8,0.5,1.1,1.6,0.6,2.4C1044.3,650.3,1043.3,650.6,1042.4,650L1042.4,650z"/>
			<path class="st2" d="M1030.4,642l-2-1.4c-0.8-0.6-0.9-1.6-0.4-2.4c0.6-0.8,1.6-0.9,2.4-0.4l0,0l1.9,1.4l0,0
				c0.8,0.6,0.9,1.6,0.4,2.4S1031.2,642.6,1030.4,642L1030.4,642z"/>
			<path class="st2" d="M1019,633.1l-1.8-1.6c-0.7-0.6-0.8-1.7-0.2-2.4c0.6-0.7,1.7-0.8,2.4-0.2l0,0l1.8,1.5l0,0
				c0.7,0.6,0.8,1.7,0.2,2.4C1020.7,633.6,1019.7,633.7,1019,633.1L1019,633.1z"/>
			<path class="st2" d="M1008.3,623.2l-1.7-1.7c-0.6-0.6-0.6-1.7,0-2.3c0.6-0.6,1.7-0.6,2.3,0l0,0l1.7,1.7l0,0
				c0.6,0.6,0.6,1.7,0,2.3C1010,623.9,1009,623.9,1008.3,623.2L1008.3,623.2z"/>
			<path class="st2" d="M998.6,612.4l-1.5-1.9c-0.5-0.7-0.4-1.7,0.3-2.2c0.7-0.5,1.7-0.4,2.2,0.3l0,0l1.5,1.8l0,0
				c0.6,0.7,0.4,1.7-0.2,2.3C1000.2,613.2,999.2,613.1,998.6,612.4L998.6,612.4z"/>
			<path class="st2" d="M990.1,600.6l-1.3-2c-0.5-0.7-0.2-1.7,0.5-2.2c0.7-0.5,1.7-0.2,2.2,0.5l0,0l1.3,2l0,0
				c0.5,0.7,0.3,1.7-0.5,2.2C991.5,601.6,990.6,601.4,990.1,600.6L990.1,600.6z"/>
			<path class="st2" d="M982.9,588l-1-2.2c-0.4-0.8,0-1.7,0.7-2c0.8-0.4,1.7,0,2,0.7l0,0l1,2.1l0,0c0.4,0.8,0.1,1.7-0.7,2
				C984.2,589.1,983.3,588.8,982.9,588L982.9,588z"/>
			<path class="st2" d="M977.3,574.6l-0.8-2.3c-0.3-0.8,0.1-1.6,0.9-1.9c0.8-0.3,1.6,0.1,1.9,0.9l0,0l0.8,2.2l0,0
				c0.3,0.8-0.1,1.6-0.9,1.9C978.4,575.8,977.6,575.4,977.3,574.6L977.3,574.6z"/>
			<path class="st2" d="M973.3,560.6l-0.5-2.4c-0.2-0.8,0.3-1.6,1.1-1.7c0.8-0.2,1.6,0.3,1.7,1.1l0,0l0.5,2.3l0,0
				c0.2,0.8-0.3,1.6-1.1,1.7C974.2,561.9,973.4,561.4,973.3,560.6L973.3,560.6z"/>
			<path class="st2" d="M970.8,546.3l-0.3-2.4c-0.1-0.8,0.5-1.5,1.3-1.6c0.8-0.1,1.5,0.5,1.6,1.3l0,0l0.3,2.4l0,0
				c0.1,0.8-0.5,1.5-1.3,1.6C971.6,547.7,970.9,547.1,970.8,546.3L970.8,546.3z"/>
			<path class="st2" d="M969.9,531.9l0-2.4c0-0.8,0.6-1.4,1.4-1.4c0.8,0,1.4,0.6,1.4,1.4v0l0,2.4l0,0c0,0.8-0.6,1.4-1.4,1.4
				C970.6,533.2,969.9,532.6,969.9,531.9L969.9,531.9z"/>
			<path class="st2" d="M970.4,517.4l0.2-2.4c0.1-0.7,0.7-1.3,1.5-1.2c0.7,0.1,1.3,0.7,1.2,1.5l0,0l-0.2,2.4l0,0
				c-0.1,0.7-0.7,1.3-1.5,1.2C970.9,518.8,970.4,518.1,970.4,517.4L970.4,517.4z"/>
			<path class="st2" d="M972.2,503l0.4-2.4c0.1-0.7,0.8-1.2,1.5-1.1c0.7,0.1,1.2,0.8,1.1,1.5l0,0l-0.4,2.3l0,0
				c-0.1,0.7-0.8,1.2-1.5,1.1C972.6,504.4,972.1,503.7,972.2,503L972.2,503z"/>
			<path class="st2" d="M975.1,488.8l0.6-2.3c0.2-0.7,0.8-1.1,1.5-0.9c0.7,0.2,1.1,0.8,0.9,1.5l0,0l-0.5,2.3l0,0
				c-0.2,0.7-0.8,1.1-1.5,0.9C975.3,490.2,974.9,489.5,975.1,488.8L975.1,488.8z"/>
			<path class="st2" d="M978.9,474.9l0.7-2.3c0.2-0.6,0.9-1,1.5-0.8c0.6,0.2,1,0.8,0.8,1.5l0,0l-0.7,2.3l0,0c-0.2,0.6-0.9,1-1.5,0.8
				C979,476.2,978.7,475.6,978.9,474.9L978.9,474.9z"/>
			<path class="st2" d="M983.5,461.2l0.8-2.3c0.2-0.6,0.9-0.9,1.4-0.7c0.6,0.2,0.9,0.8,0.7,1.4l0,0l-0.8,2.2l0,0
				c-0.2,0.6-0.9,0.9-1.4,0.7C983.6,462.5,983.3,461.8,983.5,461.2L983.5,461.2z"/>
			<path class="st2" d="M988.8,447.8l0.9-2.2c0.2-0.5,0.8-0.8,1.4-0.6c0.5,0.2,0.8,0.8,0.6,1.4l0,0l-0.9,2.2l0,0
				c-0.2,0.5-0.8,0.8-1.4,0.6C988.8,449,988.5,448.4,988.8,447.8L988.8,447.8z"/>
			<path class="st2" d="M994.7,434.7l1-2.2c0.2-0.5,0.8-0.7,1.3-0.5c0.5,0.2,0.7,0.8,0.5,1.3l0,0l-1,2.2l0,0
				c-0.2,0.5-0.8,0.7-1.3,0.5C994.7,435.8,994.4,435.2,994.7,434.7L994.7,434.7z"/>
			<path class="st2" d="M1001.1,421.8l1.1-2.1c0.2-0.5,0.8-0.6,1.2-0.4c0.4,0.2,0.6,0.8,0.4,1.2l-1.1,2.1c-0.2,0.5-0.8,0.6-1.3,0.4
				C1001,422.8,1000.9,422.3,1001.1,421.8L1001.1,421.8z"/>
			<path class="st2" d="M1008,409.1l1.2-2.1c0.2-0.4,0.8-0.6,1.2-0.3c0.4,0.2,0.6,0.8,0.3,1.2l-1.2,2.1c-0.2,0.4-0.8,0.6-1.2,0.3
				C1007.9,410.1,1007.7,409.6,1008,409.1L1008,409.1z"/>
			<path class="st2" d="M1015.2,396.7l1.2-2c0.2-0.4,0.7-0.5,1.1-0.3c0.4,0.2,0.5,0.7,0.3,1.1l-1.2,2.1c-0.2,0.4-0.7,0.5-1.1,0.3
				C1015.1,397.6,1015,397.1,1015.2,396.7L1015.2,396.7z"/>
			<path class="st2" d="M1022.8,384.5l1.3-2c0.2-0.3,0.7-0.4,1-0.2c0.3,0.2,0.4,0.7,0.2,1l-1.3,2c-0.2,0.3-0.7,0.5-1,0.2
				C1022.7,385.3,1022.6,384.9,1022.8,384.5L1022.8,384.5z"/>
			<path class="st2" d="M1030.8,372.5l1.3-2c0.2-0.3,0.6-0.4,0.9-0.2c0.3,0.2,0.4,0.6,0.2,0.9l-1.3,2c-0.2,0.3-0.6,0.4-0.9,0.2
				C1030.6,373.3,1030.6,372.8,1030.8,372.5L1030.8,372.5z"/>
			<path class="st2" d="M1039,360.7l1.4-2c0.2-0.3,0.6-0.3,0.8-0.1c0.3,0.2,0.3,0.6,0.1,0.8l-1.4,2c-0.2,0.3-0.6,0.3-0.9,0.2
				C1038.8,361.4,1038.8,361,1039,360.7L1039,360.7z"/>
		</g>
		<g>
			<polygon class="st10" points="1040.5,328.4 1048.8,348.8 1059,334.4 			"/>
			<path class="st8" d="M1127.4,279.6l-35.5,70.6c-0.7,1.4-1.9,2.4-3.3,2.8c-1.4,0.4-3,0.3-4.3-0.4l-69.5-38.3
				c-0.8-0.4-1.2-1.3-1.1-2.2c0.1-0.9,0.8-1.6,1.6-1.9L1127.4,279.6z"/>
			<polygon class="st10" points="1040.5,328.4 1127.4,279.6 1051.7,334.6 1053.7,340.4 			"/>
			<polygon class="st10" points="1058.4,338.3 1048.8,348.8 1051.7,334.6 			"/>
		</g>
	</g>
</g>
</svg>
