<?xml version="1.0" encoding="utf-8"?>
<!-- Generator: Adobe Illustrator 26.0.2, SVG Export Plug-In . SVG Version: 6.00 Build 0)  -->
<svg version="1.1" xmlns="http://www.w3.org/2000/svg" xmlns:xlink="http://www.w3.org/1999/xlink" x="0px" y="0px"
	 viewBox="0 0 2475 1650" style="enable-background:new 0 0 2475 1650;" xml:space="preserve">
<style type="text/css">
	.st0{opacity:0.2;fill:#BBDEF2;}
	.st1{fill:#BBDEF2;}
	.st2{fill:#FFFFFF;}
	.st3{fill:#BDD0FB;}
	.st4{fill:#DCE5FE;}
	.st5{fill:#7B8FDD;}
	.st6{fill:#D1AAD7;}
	.st7{fill:#C88BC4;}
	.st8{fill:#86BFF2;}
	.st9{opacity:0.6;fill:#FFFFFF;}
	.st10{opacity:0.6;}
	.st11{opacity:0.5;fill:#D1AAD7;}
	.st12{fill:#7D97F4;}
	.st13{opacity:0.42;fill:url(#SVGID_1_);}
</style>
<g id="Background">
</g>
<g id="Illustration">
	<g>
		<path class="st0" d="M2287.8,1046.8c-208.2-133.4-198-49.5-165.6-233.8c32.4-184.2,70.8-709-383.9-686.7
			c-454.7,22.3-476.2,274.2-837.4,107.3C539.6,66.8,87.6,503.9,330,775.2c233.9,261.8-558.2,275.5-32.3,632.2
			c39,26.4,84.3,41.3,131,41.3c0,0,1785.1-4.9,1787.2-4.9C2406.5,1443.3,2427.8,1136.6,2287.8,1046.8z"/>
		<g>
			<path class="st1" d="M2317.5,821.6c0.7-7-10.6-11.5-15.1-6.1c-44.3,52.1-166.3,185-294,232c-207.9,76.4-395.6,256.7-338.7,407.9
				C1669.7,1455.3,2243.6,1580.3,2317.5,821.6z"/>
			<path class="st2" d="M2269.4,901.7c-1,2-2,3.5-3,5.2l-3.1,4.9l-6.3,9.7c-4.2,6.5-8.6,12.8-13,19.2c-8.8,12.7-17.8,25.3-26.9,37.7
				c-18.3,24.9-37.4,49.2-57,73.1c-39.1,47.9-81.1,93.3-125.2,136.7c-22.1,21.6-45.1,42.3-68.6,62.4c-23.6,20-47.9,39.2-72.9,57.4
				c-25.2,18-51.2,34.8-77.8,50.6c-13.5,7.5-26.9,15.2-40.9,21.9c-13.7,7.2-27.9,13.3-42,19.6c-0.6,0.3-1.2,0-1.5-0.6
				c-0.3-0.6,0-1.2,0.5-1.5l0,0c27.9-13.2,55-27.6,81.4-43.5c26.2-16.1,51.8-33.2,76.6-51.5c24.7-18.4,48.8-37.4,72.2-57.5
				c23.3-20.1,45.9-41,68.1-62.3c22.1-21.5,43.6-43.5,64.5-66.1l15.6-17l15.3-17.3c10.1-11.6,20.3-23.2,30.2-35
				c19.9-23.5,39.1-47.6,57.8-72.1c9.3-12.3,18.6-24.6,27.6-37.1c4.5-6.2,9-12.5,13.4-18.9l6.5-9.5l3.2-4.8c1-1.6,2.2-3.3,2.9-4.7
				l0.2-0.3c0.3-0.5,1-0.7,1.5-0.4C2269.5,900.5,2269.7,901.1,2269.4,901.7z"/>
		</g>
		<g>
			<path class="st1" d="M473.4,316.2c120.3,52.2,808.1,384.5,612.2,1085.9c0,0-509.1-102.2-627.7-1074.4
				C456.9,319.2,465.5,312.8,473.4,316.2z"/>
			<path class="st2" d="M539.2,430.4c28.9,30.4,57.1,61.3,85.1,92.5c28,31.2,55.6,62.7,82.8,94.5c54.5,63.7,107.5,128.6,158.6,195.1
				c51,66.5,100.1,134.6,145.3,205.2c22.7,35.2,44.2,71.3,64.3,108.2c20,36.9,38.6,74.7,54.2,113.8c0.9,2.3-0.2,5-2.5,5.9
				c-2.3,0.9-5-0.2-5.9-2.5l0,0l0,0c-15.2-38.8-33.4-76.4-53.2-113.2c-19.8-36.8-41-72.8-63.5-108
				c-44.8-70.6-93.4-138.8-143.9-205.5c-50.6-66.7-103.3-131.8-157.4-195.7c-27-31.9-54.5-63.6-82.2-94.9
				c-27.8-31.3-55.9-62.4-84.6-92.8l0,0c-0.7-0.8-0.7-2,0.1-2.7C537.2,429.6,538.5,429.6,539.2,430.4z"/>
		</g>
		<g>
			<g>
				<g>
					<g>
						<path class="st3" d="M820.1,1463.3c0,0-18.2-70.5-101.2-110.4c-77-37-264-118.4-318.9-187.1c-2.4-3-7.4,0.6-6.4,4.8
							c10.1,44.7,43.4,152.7,140.2,229C658.8,1497.9,820.1,1463.3,820.1,1463.3z"/>
					</g>
					<g>
						<path class="st4" d="M443,1233.6c3.8,8.1,8.5,15.8,13.5,23.2c2.4,3.7,5.2,7.3,7.8,10.9c2.7,3.6,5.7,6.9,8.4,10.4
							c11.6,13.6,24.5,25.9,38.4,37l5.2,4.2c1.7,1.4,3.6,2.6,5.4,3.9c3.6,2.6,7.2,5.3,10.8,7.8l11.2,7.2c3.7,2.5,7.6,4.6,11.5,6.8
							c3.9,2.2,7.7,4.4,11.6,6.5l12,5.8c7.9,4,16.2,7.5,24.4,11.2c16.4,7.2,33,14.1,49.6,20.8c16.6,6.7,33.4,13.2,50.1,19.7
							c8.4,3.3,16.8,6.5,25.1,9.9c4.2,1.7,8.4,3.4,12.5,5.2l6.2,2.6l6.2,2.8c8.3,3.7,16.4,7.8,24.3,12.3c7.9,4.6,15.4,9.9,22,16.1
							c0.5,0.4,0.5,1.1,0.1,1.6c-0.4,0.4-1.1,0.5-1.5,0.1l0,0c-7-5.5-14.6-10.1-22.5-14.3c-8-4-16.1-7.6-24.5-10.8
							c-16.6-6.6-33.6-12.5-50.5-18.6l-25.4-9.2c-8.4-3.2-16.9-6.3-25.3-9.6c-8.4-3.2-16.8-6.6-25.1-10c-8.3-3.5-16.6-7-24.9-10.6
							c-33.1-14.2-65.8-31.8-93.1-55.9c-13.8-11.9-26.5-25.1-37.4-39.6c-5.4-7.3-10.5-14.8-15-22.7c-4.5-7.9-8.6-16-11.5-24.5
							c0-0.1,0-0.2,0.1-0.2C442.9,1233.5,442.9,1233.5,443,1233.6z"/>
					</g>
				</g>
			</g>
			<g>
				<path class="st1" d="M380.4,724.8c-0.2-6.9,9-9.5,12.4-3.5c32.9,57.9,124,206.9,223.6,273.2c162.2,108,303.5,313.8,251,451.6
					C867.5,1446.1,404,1474.8,380.4,724.8z"/>
				<path class="st4" d="M417,810c0.6,1.5,1.4,3.2,2.1,4.9l2.3,5l4.7,10l9.5,19.9c6.5,13.2,13.1,26.3,19.8,39.4
					c13.4,26.1,27.3,52,41.7,77.6c28.9,51.1,59.3,101.5,92.2,150.1c16.6,24.2,33.3,48.4,51,71.8c17.7,23.4,35.9,46.4,55.1,68.7
					c19.1,22.2,38.9,44,59.8,64.5c20.9,20.6,42.8,40.2,65.7,58.5l0,0c0.5,0.4,0.6,1.1,0.2,1.6c-0.4,0.5-1.1,0.6-1.6,0.2
					c-23.7-17.5-46.1-36.8-67.6-57c-21.4-20.3-41.6-41.9-61.2-63.9c-38.7-44.5-74.3-91.7-107.1-140.6
					c-16.5-24.4-32.1-49.4-47.4-74.6c-15.3-25.2-30-50.7-44.1-76.6c-14.1-25.9-27.7-52-40.7-78.4c-6.5-13.2-12.8-26.5-19-39.9
					c-3.1-6.7-6.1-13.4-9.1-20.1L419,821l-2.1-5.1c-0.7-1.7-1.4-3.3-2.1-5.3c-0.2-0.6,0.1-1.2,0.7-1.4c0.6-0.2,1.2,0.1,1.4,0.7
					L417,810z"/>
			</g>
		</g>
		<g>
			<path class="st5" d="M1737.2,176c-9-9.2-21.3-14.4-34.1-14.4L730,162.1c-12.8,0-25.1,5.2-34.1,14.4c-8.9,9.2-13.8,21.7-13.4,34.5
				l38.6,1243.1c0.8,25.7,21.8,45.5,47.5,45.5h898c25.7,0,46.7-19.9,47.5-45.6l36.5-1243.9C1751,197.4,1746.2,185.2,1737.2,176z"/>
			<path class="st2" d="M1694.2,233.2c-8.2-8.4-19.4-13.2-31.2-13.2l-889.4,0.5c-11.7,0-23,4.8-31.2,13.2
				c-8.2,8.4-12.6,19.8-12.2,31.6l35.3,1136c0.7,23.4,19.9,41.6,43.4,41.6h820.8c23.5,0,42.7-18.2,43.4-41.6l33.4-1136.8
				C1706.8,252.7,1702.4,241.6,1694.2,233.2z"/>
			<g>
				<g>
					
						<ellipse transform="matrix(0.1784 -0.984 0.984 0.1784 660.3849 1480.2931)" class="st6" cx="1216.6" cy="344.7" rx="96.2" ry="96.2"/>
					
						<ellipse transform="matrix(0.1784 -0.984 0.984 0.1784 662.2522 1482.5293)" class="st7" cx="1218.9" cy="344.7" rx="89.4" ry="89.4"/>
				</g>
				<g>
					
						<ellipse transform="matrix(0.1784 -0.984 0.984 0.1784 -274.3563 2260.7773)" class="st6" cx="1216.6" cy="1294.7" rx="96.2" ry="96.2"/>
					
						<ellipse transform="matrix(0.1091 -0.994 0.994 0.1091 -201.0542 2365.0261)" class="st7" cx="1218.9" cy="1294.7" rx="89.4" ry="89.4"/>
				</g>
				
					<rect x="1138.1" y="598.3" transform="matrix(0.7088 -0.7054 0.7054 0.7088 -123.2182 1055.2391)" class="st6" width="157.1" height="157.1"/>
				
					<rect x="1144.5" y="604.8" transform="matrix(0.7088 -0.7054 0.7054 0.7088 -123.2183 1055.2389)" class="st7" width="144.2" height="144.2"/>
				<g>
					<path class="st6" d="M1612.5,947.5c0,33.9-27.5,61.4-61.4,61.4h-79.5c-33.9,0-61.4-27.5-61.4-61.4l0,0
						c0-33.9,27.5-61.4,61.4-61.4h79.5C1585,886.1,1612.5,913.6,1612.5,947.5L1612.5,947.5z"/>
					<path class="st7" d="M1604.1,947.5c0,31.7-25.3,56.8-56.5,56.8h-73.8c-31.2,0-56.5-25.1-56.5-56.8l0,0
						c0-31.7,25.3-56.8,56.5-56.8h73.8C1578.8,890.7,1604.1,915.8,1604.1,947.5L1604.1,947.5z"/>
				</g>
				<g>
					<path class="st6" d="M1319.3,947.5c0,33.9-27.5,61.4-61.4,61.4h-79.5c-33.9,0-61.4-27.5-61.4-61.4l0,0
						c0-33.9,27.5-61.4,61.4-61.4h79.5C1291.8,886.1,1319.3,913.6,1319.3,947.5L1319.3,947.5z"/>
					<path class="st7" d="M1310.9,947.5c0,31.7-25.3,56.8-56.5,56.8h-73.8c-31.2,0-56.5-25.1-56.5-56.8l0,0
						c0-31.7,25.3-56.8,56.5-56.8h73.8C1285.7,890.7,1310.9,915.8,1310.9,947.5L1310.9,947.5z"/>
				</g>
				<g>
					<path class="st6" d="M1019.3,947.5c0,33.9-27.5,61.4-61.4,61.4h-79.5c-33.9,0-61.4-27.5-61.4-61.4l0,0
						c0-33.9,27.5-61.4,61.4-61.4H958C991.8,886.1,1019.3,913.6,1019.3,947.5L1019.3,947.5z"/>
					<path class="st7" d="M1010.9,947.5c0,31.7-25.3,56.8-56.5,56.8h-73.8c-31.2,0-56.5-25.1-56.5-56.8l0,0
						c0-31.7,25.3-56.8,56.5-56.8h73.8C985.7,890.7,1010.9,915.8,1010.9,947.5L1010.9,947.5z"/>
				</g>
				<g>
					<path class="st6" d="M1218.2,544.1c-1.9,0-3.4-1.5-3.4-3.4v-86.4c0-1.9,1.5-3.4,3.4-3.4s3.4,1.5,3.4,3.4v86.4
						C1221.6,542.6,1220.1,544.1,1218.2,544.1z"/>
					<polygon class="st6" points="1230.6,527 1216.6,551.2 1202.7,527 					"/>
				</g>
				<g>
					<path class="st6" d="M1218.2,864.5c-1.9,0-3.4-1.5-3.4-3.4v-63.6c0-1.9,1.5-3.4,3.4-3.4s3.4,1.5,3.4,3.4v63.6
						C1221.6,863,1220.1,864.5,1218.2,864.5z"/>
					<polygon class="st6" points="1230.6,847.5 1216.6,871.7 1202.7,847.5 					"/>
				</g>
				<g>
					<path class="st6" d="M1213.6,1171.3c-1.9,0-3.4-1.5-3.4-3.4v-84.1c0-1.9,1.5-3.4,3.4-3.4s3.4,1.5,3.4,3.4v84.1
						C1217,1169.8,1215.5,1171.3,1213.6,1171.3z"/>
					<polygon class="st6" points="1227.1,1154.3 1213.1,1178.5 1199.2,1154.3 					"/>
				</g>
				<g>
					<path class="st6" d="M906.8,841.8c-1.9,0-3.4-1.5-3.4-3.4V675.9c0-1.9,1.5-3.4,3.4-3.4h187.5c1.9,0,3.4,1.5,3.4,3.4
						s-1.5,3.4-3.4,3.4H910.2v159.1C910.2,840.3,908.7,841.8,906.8,841.8z"/>
					<polygon class="st6" points="919.2,836.1 905.3,860.3 891.3,836.1 					"/>
				</g>
				<g>
					<path class="st6" d="M1531.8,841.8c-1.9,0-3.4-1.5-3.4-3.4V679.3h-184.1c-1.9,0-3.4-1.5-3.4-3.4s1.5-3.4,3.4-3.4h187.5
						c1.9,0,3.4,1.5,3.4,3.4v162.5C1535.2,840.3,1533.7,841.8,1531.8,841.8z"/>
					<polygon class="st6" points="1518.2,836.1 1532.2,860.3 1546.2,836.1 					"/>
				</g>
				<path class="st6" d="M1529.5,1086.1h-625c-1.9,0-3.4-1.5-3.4-3.4v-60.2c0-1.9,1.5-3.4,3.4-3.4c1.9,0,3.4,1.5,3.4,3.4v56.8h618.2
					v-56.8c0-1.9,1.5-3.4,3.4-3.4c1.9,0,3.4,1.5,3.4,3.4v60.2C1532.9,1084.6,1531.4,1086.1,1529.5,1086.1z"/>
			</g>
			<g>
				<path class="st1" d="M1048.9,292.2c0,7.9-6.4,14.4-14.4,14.4H799.6c-7.9,0-14.4-6.4-14.4-14.4v-0.8c0-7.9,6.4-14.4,14.4-14.4
					h234.8c7.9,0,14.4,6.4,14.4,14.4V292.2z"/>
				<path class="st1" d="M1048.9,358.1c0,7.9-6.4,14.4-14.4,14.4H799.6c-7.9,0-14.4-6.4-14.4-14.4v-0.8c0-7.9,6.4-14.4,14.4-14.4
					h234.8c7.9,0,14.4,6.4,14.4,14.4V358.1z"/>
			</g>
		</g>
		<g>
			<g>
				<g>
					<path class="st8" d="M1904.4,430.1c-1.9,0-3.6-1-4.6-2.6l-11.1-18.9c-10.4-0.5-20.5-2.5-30.4-6l-17.4,13.3
						c-1.8,1.4-4.3,1.5-6.2,0.2l-23.8-15.8c-1.9-1.3-2.8-3.6-2.2-5.8l5.5-21.2c-7-7.7-12.8-16.3-17.3-25.7l-21.7-2.9
						c-2.3-0.3-4.1-2-4.5-4.3l-5.6-28c-0.5-2.2,0.6-4.5,2.5-5.7l18.9-11.1c0.5-10.4,2.5-20.5,6-30.4l-13.3-17.4
						c-1.4-1.8-1.5-4.3-0.2-6.2l15.8-23.8c1.3-1.9,3.6-2.8,5.8-2.2l21.2,5.5c7.7-7,16.3-12.8,25.7-17.3l2.9-21.7
						c0.3-2.3,2-4.1,4.3-4.5l28-5.6c2.2-0.5,4.5,0.6,5.7,2.5l11.1,18.9c10.4,0.5,20.5,2.5,30.4,6l17.4-13.3c1.8-1.4,4.3-1.5,6.2-0.2
						l23.8,15.8c1.9,1.3,2.8,3.6,2.2,5.8l-5.5,21.2c7,7.7,12.8,16.3,17.3,25.7l21.7,2.9c2.3,0.3,4.1,2,4.5,4.3l5.6,28
						c0.5,2.2-0.6,4.5-2.5,5.7l-18.9,11.1c-0.5,10.4-2.5,20.5-6,30.4l13.3,17.4c1.4,1.8,1.5,4.3,0.2,6.2l-15.8,23.8
						c-1.3,1.9-3.6,2.8-5.8,2.2l-21.2-5.5c-7.7,7-16.3,12.8-25.7,17.3l-2.9,21.7c-0.3,2.3-2,4.1-4.3,4.5l-28,5.6
						C1905.1,430.1,1904.7,430.1,1904.4,430.1z M1857.1,394.9l1.8,0.7c10.2,3.8,21,5.9,31.9,6.3l1.9,0.1l12.5,21.2l25.9-5.2
						l3.3-24.4l1.7-0.8c9.9-4.5,19-10.6,27-18.1l1.4-1.3l23.8,6.2l14.7-22l-14.9-19.6l0.7-1.8c3.8-10.3,5.9-21,6.3-31.9l0.1-1.9
						l21.2-12.5l-5.2-25.9l-24.4-3.3l-0.8-1.7c-4.5-9.9-10.6-19-18.1-27l-1.3-1.4l6.2-23.8l-22-14.7l-19.6,14.9l-1.8-0.7
						c-10.2-3.8-21-5.9-31.9-6.3l-1.9-0.1l-12.5-21.2l-25.9,5.2l-3.3,24.4l-1.7,0.8c-9.9,4.5-19,10.6-27,18.1l-1.4,1.3l-23.8-6.2
						l-14.7,22l14.9,19.6l-0.7,1.8c-3.8,10.3-5.9,21-6.3,31.9l-0.1,1.9l-21.2,12.5l5.2,25.9l24.4,3.3l0.8,1.7
						c4.5,9.9,10.6,19,18.1,27l1.3,1.4l-6.2,23.8l22,14.7L1857.1,394.9z M1776.1,337.9L1776.1,337.9L1776.1,337.9L1776.1,337.9z
						 M1894.4,373.6c-14.1,0-27.9-4.1-39.9-12.1c-16.1-10.7-27-27-30.8-45.9c-1-5.1-1.5-10.2-1.4-15.3c0-1.9,1.6-3.4,3.5-3.4
						c1.9,0,3.4,1.6,3.4,3.5c-0.1,4.6,0.4,9.3,1.3,13.9c3.4,17.1,13.4,31.9,27.9,41.6c14.6,9.7,32,13.1,49.1,9.7
						c17.1-3.4,31.9-13.4,41.6-27.9c9.7-14.6,13.1-32,9.7-49.1c-7.1-35.4-41.7-58.4-77.1-51.3c-11.6,2.3-22.4,7.8-31.1,15.7
						c-1.4,1.3-3.5,1.2-4.8-0.2c-1.3-1.4-1.2-3.5,0.2-4.8c9.6-8.8,21.5-14.8,34.4-17.4c39.1-7.9,77.2,17.5,85.1,56.6
						c7.9,39.1-17.5,77.2-56.6,85.1C1904,373.1,1899.2,373.6,1894.4,373.6z"/>
					<path class="st8" d="M1894.1,329.8c-10.7,0-21.1-6-26-16.4v0c-6.8-14.3-0.8-31.5,13.5-38.3c14.3-6.8,31.5-0.8,38.3,13.5
						c3.3,6.9,3.7,14.7,1.2,22c-2.6,7.2-7.8,13.1-14.7,16.4C1902.4,328.9,1898.2,329.8,1894.1,329.8z M1874.3,310.5
						c5.2,10.9,18.3,15.5,29.2,10.3c10.9-5.2,15.5-18.3,10.3-29.2c-5.2-10.9-18.3-15.5-29.2-10.3
						C1873.7,286.4,1869,299.6,1874.3,310.5L1874.3,310.5z"/>
				</g>
				<g>
					<path class="st1" d="M2079.8,464.5c-0.4,0-0.8-0.1-1.3-0.2l-13.1-4c-1.8-0.5-3-2.1-3.1-4l-0.4-9.6c-3.8-2.4-7.3-5.3-10.4-8.5
						l-9.5,1.5c-1.8,0.3-3.6-0.6-4.5-2.2l-6.5-12.1c-0.9-1.6-0.6-3.6,0.6-5l6.5-7.1c-1-4.4-1.5-8.9-1.3-13.4l-7.8-5.6
						c-1.5-1.1-2.2-3-1.6-4.8l4-13.1c0.5-1.8,2.1-3,4-3.1l9.6-0.4c2.4-3.8,5.3-7.3,8.5-10.4l-1.5-9.5c-0.3-1.8,0.6-3.6,2.2-4.5
						l12.1-6.5c1.6-0.9,3.6-0.6,5,0.6l7.1,6.5c4.4-1,8.9-1.5,13.4-1.3l5.6-7.8c1.1-1.5,3-2.2,4.8-1.6l13.1,4c1.8,0.5,3,2.1,3.1,4
						l0.4,9.6c3.8,2.4,7.3,5.3,10.4,8.5l9.5-1.5c1.8-0.3,3.7,0.6,4.5,2.2l6.5,12.1c0.9,1.6,0.6,3.7-0.6,5l-6.5,7
						c1,4.4,1.5,8.9,1.3,13.4l7.8,5.6c1.5,1.1,2.2,3,1.6,4.8l-4,13.1c-0.5,1.8-2.1,3-4,3.1l-9.6,0.4c-2.4,3.8-5.3,7.3-8.5,10.4
						l1.5,9.5c0.3,1.8-0.6,3.6-2.2,4.5l-12.1,6.5c-1.6,0.9-3.6,0.6-5-0.6l-7.1-6.5c-4.4,1-8.9,1.5-13.4,1.3l-5.6,7.8
						C2082.5,463.9,2081.2,464.5,2079.8,464.5z M2077.8,458.7C2077.8,458.7,2077.8,458.7,2077.8,458.7L2077.8,458.7z M2069.1,454.4
						l9.8,2.9l6.8-9.4l1.9,0.1c5.1,0.3,10.1-0.2,15-1.5l1.8-0.5l8.5,7.8l9-4.8l-1.9-11.4l1.4-1.2c3.8-3.3,7-7.3,9.5-11.7l0.9-1.6
						l11.6-0.5l2.9-9.8l-9.4-6.8l0.1-1.9c0.3-5.1-0.2-10.1-1.5-15l-0.5-1.8l7.8-8.5l-4.8-9l-11.4,1.9l-1.2-1.4
						c-3.3-3.8-7.3-7-11.7-9.5l-1.6-0.9l-0.5-11.6l-9.8-2.9l-6.8,9.4l-1.9-0.1c-5.1-0.3-10.1,0.2-15,1.5l-1.8,0.5l-8.5-7.8l-9,4.8
						l1.9,11.4l-1.4,1.2c-3.8,3.3-7,7.3-9.5,11.7l-0.9,1.6l-11.6,0.5l-2.9,9.8l9.4,6.8l-0.1,1.9c-0.3,5.1,0.2,10.1,1.5,15l0.5,1.8
						l-7.8,8.5l4.8,9l11.4-1.9l1.2,1.4c3.3,3.8,7.3,7,11.7,9.5l1.6,0.9L2069.1,454.4z M2041.5,436.4L2041.5,436.4L2041.5,436.4z
						 M2144,377.7C2144,377.7,2144,377.7,2144,377.7L2144,377.7z M2090.7,438c-3.5,0-7.1-0.5-10.6-1.6c-9.3-2.8-17-9.1-21.7-17.7
						c-1.2-2.3-2.2-4.7-2.9-7.2c-0.5-1.8,0.5-3.7,2.3-4.2c1.8-0.5,3.7,0.5,4.2,2.3c0.6,2,1.4,4,2.4,5.9c3.8,7,10,12.1,17.6,14.4
						c7.6,2.3,15.6,1.5,22.6-2.3c14.4-7.8,19.9-25.8,12.1-40.2c-7.8-14.4-25.8-19.9-40.2-12.1c-4.7,2.5-8.7,6.3-11.4,10.9
						c-1,1.6-3.1,2.1-4.7,1.2c-1.6-1-2.1-3.1-1.2-4.7c3.4-5.7,8.2-10.3,14.1-13.4c17.7-9.5,39.9-2.9,49.5,14.9
						c9.5,17.7,2.9,39.9-14.9,49.5C2102.5,436.5,2096.6,438,2090.7,438z"/>
				</g>
			</g>
		</g>
		<g>
			<g>
				<path class="st8" d="M2215.9,1003.1l-357-31.7c-14.5-1.3-25.6-13.4-25.7-27.9l-1.3-240.7c-0.1-16.4,13.8-29.4,30.1-28.2
					l380.1,26.5c15.7,1.1,27.5,14.9,26.1,30.6l-21.8,245.9C2245.1,993,2231.4,1004.5,2215.9,1003.1z"/>
				<path class="st2" d="M1852.9,726.1l-2.4,207.8c-0.1,9,6.7,16.6,15.7,17.5l342.3,34c9.6,1,18.2-6.1,19.1-15.8l19.7-222.2
					c0.9-9.8-6.6-18.4-16.4-18.9l-359.7-19.6C1861.4,708.4,1853,716.2,1852.9,726.1z"/>
				<path class="st8" d="M2015.2,907.7l193.7,11.4c2,0.1,3.5,1.9,3.3,3.8l-0.3,3.1c-0.2,1.9-1.9,3.3-3.8,3.2l-193.4-14.5
					c-2-0.1-3.4-1.9-3.2-3.8l0,0C2011.6,909,2013.3,907.6,2015.2,907.7z"/>
				<path class="st8" d="M2010,927.1l-0.1,1.3c-0.2,1.9,1.3,3.7,3.2,3.8l193.2,17.1c1.9,0.2,3.7-1.3,3.8-3.2l0.1-1.3
					c0.2-1.9-1.3-3.7-3.2-3.8l-193.2-17.1C2011.9,923.7,2010.2,925.2,2010,927.1z"/>
				<path class="st8" d="M2067.1,949.6l-0.1,0.6c-0.2,1.9,1.3,3.7,3.2,3.8l134.6,11.9c1.9,0.2,3.7-1.3,3.8-3.2l0.2-2.7
					c0.2-2-1.3-3.7-3.3-3.8l-134.8-9.8C2069,946.3,2067.3,947.7,2067.1,949.6z"/>
			</g>
			<g>
				<path class="st1" d="M2186,917.1l-421.3-8.6c-17.1-0.3-31.1-13.6-32.3-30.7l-20.8-282.2c-1.4-19.2,13.8-35.6,33.1-35.5l448,0.6
					c18.5,0,33.4,15.3,33.1,33.8l-5.9,290.2C2219.4,903,2204.3,917.5,2186,917.1z"/>
				<path class="st2" d="M1738,621.3l13.9,244c0.6,10.6,9.2,19,19.8,19.3l404.3,12.5c11.4,0.4,20.9-8.7,21.1-20.1l5.3-262.2
					c0.2-11.6-9.2-21.1-20.8-20.9l-423.5,5.8C1746.5,599.8,1737.3,609.7,1738,621.3z"/>
				<path class="st1" d="M1942.9,821.3l228.2-2.2c2.3,0,4.2,1.9,4.2,4.2l-0.1,3.7c0,2.3-1.9,4.1-4.2,4.1l-228.1-1.5
					c-2.3,0-4.2-1.9-4.1-4.2l0,0C1938.8,823.1,1940.6,821.3,1942.9,821.3z"/>
				<path class="st1" d="M1938.4,844.5l0,1.6c0,2.3,1.8,4.2,4.1,4.2l228,4.6c2.3,0,4.2-1.8,4.2-4.1l0-1.6c0-2.3-1.8-4.2-4.1-4.2
					l-228-4.6C1940.3,840.3,1938.4,842.2,1938.4,844.5z"/>
				<path class="st1" d="M2007.2,866.3l0,0.7c0,2.3,1.8,4.2,4.1,4.2l158.8,3.2c2.3,0,4.2-1.8,4.2-4.1l0.1-3.2c0-2.3-1.8-4.2-4.1-4.2
					l-158.9-0.7C2009.1,862.2,2007.2,864,2007.2,866.3z"/>
			</g>
			<g>
				<path class="st8" d="M2121.8,861.7h-467.4c-18.9,0-34.8-14.4-36.6-33.3L1588.4,516c-2-21.3,14.5-39.8,35.9-40.2l496.8-9.5
					c20.6-0.4,37.4,16.2,37.4,36.7v322C2158.5,845.3,2142.1,861.7,2121.8,861.7z"/>
				<path class="st2" d="M1618.3,543.8l20.9,270.2c0.9,11.7,10.6,20.8,22.4,21l448.6,4.7c12.6,0.1,23-10.1,23-22.7V526.1
					c0-12.8-10.6-23.1-23.5-22.7l-469.5,16C1627.2,519.8,1617.3,530.9,1618.3,543.8z"/>
				<path class="st1" d="M1857.7,541.3l253-7.6c2.6-0.1,4.7,2,4.7,4.6v4.1c0,2.5-2,4.6-4.5,4.6l-253,3.5c-2.6,0-4.7-2-4.7-4.6l0,0
					C1853.3,543.4,1855.3,541.4,1857.7,541.3z"/>
				<path class="st1" d="M1853.3,567.1v1.7c0,2.5,2.1,4.6,4.6,4.6h253c2.5,0,4.6-2.1,4.6-4.6v-1.7c0-2.5-2.1-4.6-4.6-4.6h-253
					C1855.3,562.5,1853.3,564.6,1853.3,567.1z"/>
				<path class="st1" d="M1791.5,794.6c-1.1,0-2.1-0.9-2.1-2.1l0-6.2c0-1.1,0.9-2.1,2.1-2.1c0,0,0,0,0,0c1.1,0,2.1,0.9,2.1,2.1
					l0,6.2C1793.6,793.7,1792.6,794.6,1791.5,794.6C1791.5,794.6,1791.5,794.6,1791.5,794.6z M1791.4,774c-1.1,0-2.1-0.9-2.1-2.1
					l0-6.2c0-1.1,0.9-2.1,2.1-2.1c0,0,0,0,0,0c1.1,0,2.1,0.9,2.1,2.1l0,6.2C1793.5,773,1792.6,774,1791.4,774
					C1791.4,774,1791.4,774,1791.4,774z M1791.4,753.3c-1.1,0-2.1-0.9-2.1-2.1l0-6.2c0-1.1,0.9-2.1,2.1-2.1c0,0,0,0,0,0
					c1.1,0,2.1,0.9,2.1,2.1l0,6.2C1793.5,752.4,1792.5,753.3,1791.4,753.3C1791.4,753.3,1791.4,753.3,1791.4,753.3z M1791.3,732.7
					c-1.1,0-2.1-0.9-2.1-2.1l0-6.2c0-1.1,0.9-2.1,2.1-2.1c0,0,0,0,0,0c1.1,0,2.1,0.9,2.1,2.1l0,6.2
					C1793.4,731.8,1792.5,732.7,1791.3,732.7C1791.3,732.7,1791.3,732.7,1791.3,732.7z"/>
				<path class="st1" d="M1895.1,788.7c-1.1,0-2.1-0.9-2.1-2.1v-6.2c0-1.1,0.9-2.1,2.1-2.1c1.1,0,2.1,0.9,2.1,2.1v6.2
					C1897.2,787.8,1896.3,788.7,1895.1,788.7z M1895.1,768.1c-1.1,0-2.1-0.9-2.1-2.1v-6.2c0-1.1,0.9-2.1,2.1-2.1
					c1.1,0,2.1,0.9,2.1,2.1v6.2C1897.2,767.2,1896.3,768.1,1895.1,768.1z M1895.1,747.5c-1.1,0-2.1-0.9-2.1-2.1v-6.2
					c0-1.1,0.9-2.1,2.1-2.1c1.1,0,2.1,0.9,2.1,2.1v6.2C1897.2,746.5,1896.3,747.5,1895.1,747.5z M1895.1,726.8
					c-1.1,0-2.1-0.9-2.1-2.1v-6.2c0-1.1,0.9-2.1,2.1-2.1c1.1,0,2.1,0.9,2.1,2.1v6.2C1897.2,725.9,1896.3,726.8,1895.1,726.8z
					 M1895.1,706.2c-1.1,0-2.1-0.9-2.1-2.1v-6.2c0-1.1,0.9-2.1,2.1-2.1c1.1,0,2.1,0.9,2.1,2.1v6.2
					C1897.2,705.3,1896.3,706.2,1895.1,706.2z"/>
				<path class="st1" d="M1974.2,805.8c-1.1,0-2-0.9-2.1-2l-0.1-3.7c0-1.1,0.9-2.1,2-2.1c1.2-0.1,2.1,0.9,2.1,2l0.1,3.7
					C1976.3,804.8,1975.4,805.8,1974.2,805.8C1974.3,805.8,1974.2,805.8,1974.2,805.8z M1973.6,787.7c-1.1,0-2-0.9-2.1-2l-0.2-6.2
					c0-1.1,0.9-2.1,2-2.1c1.2,0,2.1,0.9,2.1,2l0.2,6.2C1975.7,786.7,1974.9,787.6,1973.6,787.7
					C1973.7,787.7,1973.7,787.7,1973.6,787.7z M1973,767c-1.1,0-2-0.9-2.1-2l-0.2-6.2c0-1.1,0.9-2.1,2-2.1c1.1,0,2.1,0.9,2.1,2
					l0.2,6.2C1975.1,766,1974.2,767,1973,767C1973,767,1973,767,1973,767z M1972.4,746.4c-1.1,0-2-0.9-2.1-2l-0.2-6.2
					c0-1.1,0.9-2.1,2-2.1c1.1-0.1,2.1,0.9,2.1,2l0.2,6.2C1974.5,745.4,1973.6,746.4,1972.4,746.4
					C1972.4,746.4,1972.4,746.4,1972.4,746.4z M1971.7,725.8c-1.1,0-2-0.9-2.1-2l-0.2-6.2c0-1.1,0.9-2.1,2-2.1c1.1,0,2.1,0.9,2.1,2
					l0.2,6.2C1973.8,724.8,1972.9,725.7,1971.7,725.8C1971.8,725.8,1971.7,725.8,1971.7,725.8z M1971.1,705.1c-1.1,0-2-0.9-2.1-2
					l-0.2-6.2c0-1.1,0.9-2.1,2-2.1c1.1-0.1,2.1,0.9,2.1,2l0.2,6.2C1973.2,704.1,1972.3,705.1,1971.1,705.1
					C1971.1,705.1,1971.1,705.1,1971.1,705.1z M1970.4,684.5c-1.1,0-2-0.9-2.1-2l-0.2-6.2c0-1.1,0.9-2.1,2-2.1c1.2,0,2.1,0.9,2.1,2
					l0.2,6.2C1972.5,683.5,1971.7,684.5,1970.4,684.5C1970.5,684.5,1970.5,684.5,1970.4,684.5z"/>
				<path class="st1" d="M2049.4,794.2c-1.1,0-2.1-0.9-2.1-2.1V786c0-1.1,0.9-2.1,2.1-2.1c1.1,0,2.1,0.9,2.1,2.1v6.2
					C2051.4,793.3,2050.5,794.2,2049.4,794.2z M2049.4,773.6c-1.1,0-2.1-0.9-2.1-2.1v-6.2c0-1.1,0.9-2.1,2.1-2.1
					c1.1,0,2.1,0.9,2.1,2.1v6.2C2051.4,772.7,2050.5,773.6,2049.4,773.6z M2049.4,753c-1.1,0-2.1-0.9-2.1-2.1v-6.2
					c0-1.1,0.9-2.1,2.1-2.1c1.1,0,2.1,0.9,2.1,2.1v6.2C2051.4,752,2050.5,753,2049.4,753z M2049.4,732.3c-1.1,0-2.1-0.9-2.1-2.1
					v-6.2c0-1.1,0.9-2.1,2.1-2.1c1.1,0,2.1,0.9,2.1,2.1v6.2C2051.4,731.4,2050.5,732.3,2049.4,732.3z M2049.4,711.7
					c-1.1,0-2.1-0.9-2.1-2.1v-6.2c0-1.1,0.9-2.1,2.1-2.1c1.1,0,2.1,0.9,2.1,2.1v6.2C2051.4,710.8,2050.5,711.7,2049.4,711.7z
					 M2049.4,691c-1.1,0-2.1-0.9-2.1-2.1v-6.2c0-1.1,0.9-2.1,2.1-2.1c1.1,0,2.1,0.9,2.1,2.1v6.2C2051.4,690.1,2050.5,691,2049.4,691
					z M2049.4,670.4c-1.1,0-2.1-0.9-2.1-2.1v-6.2c0-1.1,0.9-2.1,2.1-2.1c1.1,0,2.1,0.9,2.1,2.1v6.2
					C2051.4,669.5,2050.5,670.4,2049.4,670.4z M2049.4,649.8c-1.1,0-2.1-0.9-2.1-2.1v-6.2c0-1.1,0.9-2.1,2.1-2.1
					c1.1,0,2.1,0.9,2.1,2.1v6.2C2051.4,648.8,2050.5,649.8,2049.4,649.8z M2049.4,629.1c-1.1,0-2.1-0.9-2.1-2.1v-6.2
					c0-1.1,0.9-2.1,2.1-2.1c1.1,0,2.1,0.9,2.1,2.1v6.2C2051.4,628.2,2050.5,629.1,2049.4,629.1z"/>
				<g>
					<g>
						<path class="st1" d="M1680.5,818.6c-1.6,0-2.9-1.2-3.1-2.8l-21.2-249.9c-0.1-1.7,1.1-3.2,2.8-3.3c1.7-0.1,3.2,1.1,3.3,2.8
							l21.2,249.9c0.1,1.7-1.1,3.2-2.8,3.3C1680.7,818.6,1680.6,818.6,1680.5,818.6z"/>
						<g>
							<polygon class="st1" points="1650,578.8 1659.5,567.5 1670.9,577 1670.1,568.2 1658.8,558.6 1649.2,569.9 							"/>
						</g>
					</g>
				</g>
				<g>
					<g>
						<path class="st1" d="M2099.8,806.8h-435.3c-1.7,0-3.1-1.4-3.1-3.1c0-1.7,1.4-3.1,3.1-3.1h435.3c1.7,0,3.1,1.4,3.1,3.1
							C2102.9,805.4,2101.5,806.8,2099.8,806.8z"/>
						<g>
							<polygon class="st1" points="2087.5,814.2 2098,803.7 2087.5,793.2 2096.4,793.2 2106.9,803.7 2096.4,814.2 							"/>
						</g>
					</g>
				</g>
				<g>
					<g>
						<path class="st1" d="M1698.6,735c-1.5,0-2.9-1.1-3.1-2.7c-0.2-1.7,1-3.3,2.7-3.5c2.3-0.3,230.2-31.5,355-123.5
							c1.4-1,3.3-0.7,4.3,0.7c1,1.4,0.7,3.3-0.7,4.3c-126.1,93-355.6,124.4-357.9,124.7C1698.9,735,1698.8,735,1698.6,735z"/>
					</g>
				</g>
				<g>
					<g>
						<path class="st1" d="M2056,624.3c-0.1,0-0.2,0-0.2,0c-1.7-0.1-3-1.6-2.8-3.3l1-12.2l-17.1-1c-1.7-0.1-3-1.6-2.9-3.3
							c0.1-1.7,1.6-3,3.3-2.9l20.3,1.2c0.8,0,1.6,0.4,2.2,1.1c0.5,0.6,0.8,1.4,0.8,2.3l-1.2,15.3
							C2059,623.1,2057.6,624.3,2056,624.3z"/>
					</g>
				</g>
			</g>
		</g>
		<g>
			<path class="st5" d="M228.2,1490.6H660c13.8,0,24.9-11.2,24.9-24.9V818.8c0-13.7-11.1-24.9-24.9-24.9l-435.3-1.2
				c-13.8,0-25.1,11.2-25,25.1l3.5,648C203.3,1479.5,214.5,1490.6,228.2,1490.6z"/>
			<path class="st1" d="M249.3,824.7l386.1,2.4c14,0.1,25.2,11.5,25.1,25.4l-2.7,580.5c-0.1,13.7-11.1,24.9-24.8,25.2l-375.2,6.8
				c-14,0.3-25.6-10.9-25.8-24.9l-8.3-589.7C223.7,836.1,235.2,824.6,249.3,824.7z"/>
			<path class="st2" d="M265,857.2v2.7c0,4.2,3.4,7.6,7.6,7.6h297.5c4.2,0,7.6-3.4,7.6-7.6v-2.7c0-4.2-3.4-7.6-7.6-7.6H272.6
				C268.4,849.6,265,853,265,857.2z"/>
			<path class="st2" d="M298.2,890.7L298.2,890.7c0.2,4,3.5,7.1,7.4,7.2l260.2,4.7c4.2,0.1,7.7-3.3,7.7-7.6v-0.6
				c0-4.1-3.3-7.5-7.4-7.6l-260.2-4.1C301.5,882.6,298,886.3,298.2,890.7z"/>
			<path class="st2" d="M271.7,1446.1c-12.2,0-22.3-9.9-22.5-22.1l-8.4-474.8c-0.2-12.4,9.7-22.7,22.1-22.9l351.3-6.8
				c6-0.1,11.7,2.1,16.1,6.3c4.3,4.2,6.8,9.8,6.9,15.8l9.1,477.4c0.1,6-2.1,11.8-6.3,16.1c-4.2,4.3-9.9,6.8-15.9,6.8l-351.9,4.2
				C271.9,1446.1,271.8,1446.1,271.7,1446.1z M614.5,928.5c-0.1,0-0.2,0-0.3,0L263,935.4c-7.4,0.1-13.3,6.3-13.2,13.7l0,0l8.4,474.8
				c0.1,7.3,6.1,13.2,13.4,13.2c0.1,0,0.1,0,0.2,0l351.9-4.2c3.6,0,7-1.5,9.5-4.1c2.5-2.6,3.9-6,3.8-9.6L628,941.7
				c-0.1-3.6-1.5-6.9-4.1-9.4C621.3,929.9,618,928.5,614.5,928.5z"/>
			<path class="st2" d="M633.1,976.3H249.8c-2.5,0-4.5-2-4.5-4.5c0-2.5,2-4.5,4.5-4.5h383.3c2.5,0,4.5,2,4.5,4.5
				C637.6,974.3,635.6,976.3,633.1,976.3z"/>
		</g>
		<g>
			<path class="st9" d="M333,1226.6c0-2.7-2.2-4.8-4.8-4.8h-38.1c-2.7,0-4.8,2.2-4.8,4.8v163.8c0,2.7,2.2,4.8,4.8,4.8h38.1
				c2.7,0,4.8-2.2,4.8-4.8V1226.6z"/>
			<path class="st9" d="M450.1,1201.1h-38c-2.7,0-4.9,2.6-4.9,5.5v182.9c0,3,2.2,5.7,4.9,5.7h38c2.7,0,5.5-2.8,5.5-5.7v-182.9
				C455.6,1203.6,452.7,1201.1,450.1,1201.1z"/>
			<path class="st9" d="M392.7,1172.6c0-2.7-2.2-4.8-4.8-4.8h-38.1c-2.7,0-4.8,2.2-4.8,4.8v217.8c0,2.7,2.2,4.8,4.8,4.8h38.1
				c2.7,0,4.8-2.2,4.8-4.8V1172.6z"/>
			<path class="st9" d="M599.5,1095.3c0-2.7-2.2-4.8-4.8-4.8h-38.1c-2.7,0-4.8,2.2-4.8,4.8v295.1c0,2.7,2.2,4.8,4.8,4.8h38.1
				c2.7,0,4.8-2.2,4.8-4.8V1095.3z"/>
			<path class="st9" d="M528.5,1137.4c0-2.7-2.2-4.8-4.8-4.8h-38.1c-2.7,0-4.8,2.2-4.8,4.8v253c0,2.7,2.2,4.8,4.8,4.8h38.1
				c2.7,0,4.8-2.2,4.8-4.8V1137.4z"/>
			<g class="st10">
				<polygon class="st2" points="307.5,1163.3 306.6,1161.7 370.2,1126.9 429.2,1152.9 480,1103.1 480.1,1103.1 539.6,1067.9 
					540.6,1069.5 481.1,1104.6 429.7,1155.1 370.2,1129 				"/>
				<path class="st2" d="M313.9,1162.5c0,3.8-3.1,6.8-6.8,6.8c-3.8,0-6.8-3.1-6.8-6.8c0-3.8,3.1-6.8,6.8-6.8
					C310.8,1155.6,313.9,1158.7,313.9,1162.5z"/>
				<circle class="st2" cx="370.2" cy="1128" r="6.8"/>
				<circle class="st2" cx="429.4" cy="1152.7" r="6.8"/>
				<circle class="st2" cx="478.9" cy="1103.9" r="6.8"/>
				<path class="st2" d="M547,1068.7c0,3.8-3.1,6.8-6.8,6.8c-3.8,0-6.8-3.1-6.8-6.8c0-3.8,3.1-6.8,6.8-6.8
					C543.9,1061.9,547,1065,547,1068.7z"/>
			</g>
		</g>
		<g>
			<path class="st6" d="M463.2,1288.6l3,177.1c0.2,13.8,11.4,24.8,25.2,24.8H839c13.9,0,25.2-11.3,25.2-25.2v-165.8
				c0-13.6-10.8-24.8-24.4-25.2l-350.6-11.3C474.9,1262.5,463,1274.2,463.2,1288.6z"/>
			<path class="st2" d="M492,1305.8l7.5,162.9c0.3,6.3,5.5,11.1,11.8,11l316.5-5.6c6.3-0.1,11.4-5.3,11.4-11.6v-141.2
				c0-6.2-4.8-11.3-11-11.6l-324.1-16C497.3,1293.4,491.7,1299,492,1305.8z"/>
			<path class="st11" d="M517.3,1321.1v11.7c0,4.1,3.4,7.5,7.5,7.4l273-4.5c4-0.1,7.3-3.4,7.3-7.4l0,0c0-4-3.2-7.3-7.2-7.4l-273-7.3
				C520.7,1313.6,517.3,1316.9,517.3,1321.1z"/>
			<path class="st11" d="M521.3,1365.4v10.8c0,4.2,3.5,7.5,7.7,7.4l260-9.1c4-0.1,7.1-3.4,7.1-7.4v-3.4c0-4.1-3.3-7.4-7.5-7.4
				l-260,1.7C524.6,1358,521.3,1361.3,521.3,1365.4z"/>
		</g>
		<g>
			<g>
				<path class="st8" d="M204.9,542.2c14.2,0,27.3,4.8,37.7,12.8l22.1-31.3c-16.3-11.7-36.2-18.6-57.8-18.6c-2.9,0-5.7,0.2-8.6,0.4
					l5.7,36.7C204.4,542.2,204.6,542.2,204.9,542.2z"/>
				<path class="st1" d="M204.9,666.2c-34.3,0-69-25.5-69-59.8c0-34,34.3-63.8,68.3-64.2l-5.7-36.7
					c-51.8,4.6-101.8,50.4-101.8,102.3c0,54.7,55.6,95.5,110.3,95.5c14.3,0,28-3.1,40.3-8.6L225,662.9
					C218.7,665,211.9,666.2,204.9,666.2z"/>
				<path class="st5" d="M306.1,604.2c0-33.2-16.3-62.5-41.3-80.5L242.6,555c14.8,11.3,24.3,29.2,24.3,49.2
					c0,27.2-17.5,50.3-41.9,58.7l22.3,31.9C281.9,679.3,306.1,644.6,306.1,604.2z"/>
			</g>
			<g>
				<path class="st2" d="M487.7,542.2c24.3,0,45.4,14,55.5,34.4l25.6-32.2c-18.1-23.9-46.7-39.3-79-39.3
					c-25.3,0-50.8,10.3-70.9,26.7l22.6,28.6C454.4,549.3,471.1,542.2,487.7,542.2z"/>
				<path class="st6" d="M418.6,606.5c0-17.7,9.3-34.2,22.9-46l-22.6-28.6c-23.4,19.1-39.4,46.6-39.4,76c0,54,54.2,94.4,108.2,95.4
					l-1.7-37.1C452.3,665.4,418.6,640.2,418.6,606.5z"/>
				<path class="st7" d="M487.7,666.2c-0.6,0-1.1,0-1.7,0l1.7,37.1c0.7,0,1.4,0,2.1,0c38.4,0,71.7-21.9,88.2-53.9
					c-9.5-4.3-23.5-10.4-35.7-15.7C531.7,653.1,511.2,666.2,487.7,666.2z"/>
				<path class="st5" d="M568.8,544.4l-25.6,32.2c4.1,8.3,6.5,17.7,6.5,27.6c0,10.7-2.7,20.8-7.5,29.5c12.2,5.3,26.2,11.4,35.7,15.7
					c7-13.6,10.9-28.9,10.9-45.2C588.9,581.7,581.4,561,568.8,544.4z"/>
			</g>
			<g>
				<path class="st6" d="M770.4,542.2c13.2,0,25.5,4.2,35.6,11.2l20-32.6c-15.4-9.9-33.8-15.7-53.4-15.7c-26.2,0-52.5,11-72.9,28.4
					l23.7,27.7C736.3,549.6,753.4,542.2,770.4,542.2z"/>
				<path class="st7" d="M832.3,600.7l38.6-7.8c-3.5-30.3-20.5-56.4-45-72l-20,32.6C821.1,564,831.2,581.1,832.3,600.7z"/>
				<path class="st2" d="M701.4,606.5c0-17.2,8.8-33.4,21.9-45.2l-23.7-27.7c-22.2,19-37.4,45.7-37.4,74.3c0,35.5,23.3,65,54.7,81.5
					l19.4-31.5C716.3,647.6,701.4,628.9,701.4,606.5z"/>
				<path class="st6" d="M832.3,600.7c0.1,1.2,0.1,2.4,0.1,3.6c0,34.3-27.8,62-62,62c-11.8,0-23.7-3-34.2-8.4l-19.4,31.5
					c17,8.9,36.4,14,55.6,14c54.7,0,99.1-44.4,99.1-99.1c0-3.8-0.2-7.6-0.7-11.4L832.3,600.7z"/>
			</g>
		</g>
		<g>
			<g>
				<path class="st8" d="M227.3,520.6c1.3,0,2.5-0.5,3.5-1.4l69-65.3c6-5.7,13.8-8.8,22.1-8.8h234.7c2.8,0,5.1-2.3,5.1-5.1
					c0-2.8-2.3-5.1-5.1-5.1H321.9c-10.9,0-21.2,4.1-29.1,11.6l-69,65.3c-2,1.9-2.1,5.1-0.2,7.2C224.6,520.1,226,520.6,227.3,520.6z"
					/>
				<path class="st8" d="M357.9,413.6h198.7c2.8,0,5.1-2.3,5.1-5.1c0-2.8-2.3-5.1-5.1-5.1H357.9c-2.8,0-5.1,2.3-5.1,5.1
					C352.8,411.3,355.1,413.6,357.9,413.6z"/>
				<path class="st8" d="M390.2,382.1h166.4c2.8,0,5.1-2.3,5.1-5.1c0-2.8-2.3-5.1-5.1-5.1H390.2c-2.8,0-5.1,2.3-5.1,5.1
					C385.2,379.8,387.4,382.1,390.2,382.1z"/>
			</g>
		</g>
		<g>
			<g>
				<g>
					<path class="st12" d="M1736.9,322.6l11.4-0.3c1.3,0,2.3,0.9,2.3,2.2c0,1.3-0.9,2.3-2.2,2.3l0,0l-11.3,0.3l-0.1,0
						c-1.3,0-2.3-0.9-2.3-2.2C1734.6,323.7,1735.6,322.6,1736.9,322.6L1736.9,322.6z"/>
					<path class="st12" d="M1759.7,322.1l11.4,0c1.2,0,2.3,1,2.3,2.3c0,1.2-1,2.3-2.3,2.3h0l-11.3,0h0c-1.2,0-2.3-1-2.3-2.3
						S1758.4,322.1,1759.7,322.1L1759.7,322.1z"/>
					<path class="st12" d="M1782.4,322.1l11.4,0.2c1.2,0,2.2,1,2.2,2.3c0,1.2-1,2.2-2.3,2.2h0l-11.3-0.2l0,0c-1.2,0-2.2-1-2.2-2.3
						C1780.2,323.1,1781.2,322.1,1782.4,322.1L1782.4,322.1z"/>
					<path class="st12" d="M1805.2,322.6l11.4,0.4c1.2,0,2.2,1.1,2.2,2.3c0,1.2-1.1,2.2-2.3,2.2l0,0l-11.3-0.4l0,0
						c-1.2,0-2.2-1.1-2.2-2.3C1802.9,323.5,1803.9,322.6,1805.2,322.6L1805.2,322.6z"/>
					<path class="st12" d="M1827.9,323.5l11.4,0.6c1.2,0.1,2.2,1.1,2.1,2.3c-0.1,1.2-1.1,2.2-2.3,2.1l0,0l-11.3-0.6l0,0
						c-1.2-0.1-2.2-1.1-2.1-2.3C1825.6,324.4,1826.7,323.4,1827.9,323.5L1827.9,323.5z"/>
					<path class="st12" d="M1850.6,324.8l11.3,0.8c1.2,0.1,2.1,1.2,2.1,2.4c-0.1,1.2-1.2,2.1-2.4,2.1l0,0l-11.3-0.8l0,0
						c-1.2-0.1-2.2-1.2-2.1-2.4C1848.4,325.7,1849.4,324.7,1850.6,324.8L1850.6,324.8z"/>
					<path class="st12" d="M1873.3,326.6l11.3,1c1.2,0.1,2.1,1.2,2,2.4c-0.1,1.2-1.2,2.1-2.4,2l0,0l-11.3-1l0,0
						c-1.2-0.1-2.1-1.2-2-2.4C1871,327.3,1872.1,326.4,1873.3,326.6L1873.3,326.6z"/>
					<path class="st12" d="M1896,328.8l11.3,1.3c1.2,0.1,2.1,1.2,1.9,2.4c-0.1,1.2-1.2,2.1-2.4,1.9l0,0l-11.3-1.3l0,0
						c-1.2-0.1-2.1-1.2-1.9-2.4C1893.7,329.5,1894.8,328.6,1896,328.8L1896,328.8z"/>
					<path class="st12" d="M1918.6,331.4l11.3,1.5c1.2,0.2,2,1.3,1.9,2.5c-0.2,1.2-1.3,2-2.5,1.9l0,0l-11.2-1.5l0,0
						c-1.2-0.2-2-1.3-1.9-2.5C1916.3,332.1,1917.4,331.3,1918.6,331.4L1918.6,331.4z"/>
					<path class="st12" d="M1941.2,334.7l11.2,1.8c1.2,0.2,2,1.3,1.8,2.5c-0.2,1.2-1.3,2-2.5,1.8l0,0l-11.2-1.8l0,0
						c-1.2-0.2-2-1.3-1.8-2.5C1938.8,335.3,1940,334.5,1941.2,334.7L1941.2,334.7z"/>
					<path class="st12" d="M1963.6,338.5l11.2,2.1c1.2,0.2,2,1.4,1.7,2.5c-0.2,1.2-1.4,2-2.5,1.7l0,0l-11.1-2.1l0,0
						c-1.2-0.2-2-1.4-1.7-2.5C1961.3,339,1962.4,338.2,1963.6,338.5L1963.6,338.5z"/>
					<path class="st12" d="M1986,342.9l11.1,2.5c1.2,0.3,1.9,1.4,1.6,2.6c-0.3,1.2-1.4,1.9-2.6,1.6l0,0l-11.1-2.5l0,0
						c-1.2-0.3-1.9-1.4-1.6-2.6C1983.6,343.4,1984.8,342.7,1986,342.9L1986,342.9z"/>
					<path class="st12" d="M2008.2,348.1l11,2.9c1.2,0.3,1.8,1.5,1.5,2.6c-0.3,1.2-1.5,1.8-2.6,1.5l0,0l-11-2.9l0,0
						c-1.2-0.3-1.8-1.5-1.5-2.6C2005.9,348.5,2007,347.8,2008.2,348.1L2008.2,348.1z"/>
					<path class="st12" d="M2030.2,354.1l10.9,3.3c1.1,0.3,1.8,1.5,1.4,2.7c-0.3,1.1-1.5,1.8-2.7,1.4l0,0l-10.8-3.3l0,0
						c-1.1-0.3-1.8-1.5-1.4-2.7C2027.9,354.4,2029.1,353.7,2030.2,354.1L2030.2,354.1z"/>
					<path class="st12" d="M2052,361l10.8,3.8c1.1,0.4,1.7,1.6,1.3,2.7c-0.4,1.1-1.6,1.7-2.7,1.3l-0.1,0l-10.7-3.8l-0.1,0
						c-1.1-0.4-1.7-1.6-1.3-2.7C2049.6,361.1,2050.8,360.6,2052,361L2052,361z"/>
					<path class="st12" d="M2073.4,368.9l10.5,4.4c1.1,0.5,1.6,1.7,1.1,2.8c-0.5,1.1-1.7,1.6-2.8,1.1l-0.1,0l-10.4-4.4l-0.1,0
						c-1.1-0.5-1.6-1.7-1.1-2.8C2071,369,2072.3,368.5,2073.4,368.9L2073.4,368.9z"/>
					<path class="st12" d="M2094.3,378.1l10.2,5.1c1,0.5,1.5,1.8,0.9,2.8c-0.5,1-1.8,1.5-2.8,0.9l-0.1,0l-10.1-5.1l-0.1,0
						c-1-0.5-1.5-1.8-0.9-2.9C2092,378,2093.3,377.6,2094.3,378.1L2094.3,378.1z"/>
					<path class="st12" d="M2114.6,388.8l9.8,5.9c1,0.6,1.3,1.9,0.7,2.9c-0.6,1-1.9,1.3-2.9,0.7l-0.1,0l-9.6-5.8l-0.1,0
						c-1-0.6-1.3-1.9-0.7-2.9C2112.3,388.5,2113.6,388.2,2114.6,388.8L2114.6,388.8z"/>
					<path class="st12" d="M2133.9,400.9l9.4,6.4c1,0.7,1.2,2,0.6,2.9c-0.7,1-2,1.2-2.9,0.6l0,0l-9.4-6.4l0,0c-1-0.7-1.2-2-0.6-2.9
						C2131.6,400.5,2133,400.3,2133.9,400.9L2133.9,400.9z"/>
					<path class="st12" d="M2152.6,414l9.1,6.9c0.9,0.7,1.1,2,0.4,2.9c-0.7,0.9-2,1.1-2.9,0.4l0,0l-9-6.8l0,0
						c-0.9-0.7-1.1-2-0.4-2.9C2150.4,413.5,2151.7,413.3,2152.6,414L2152.6,414z"/>
					<path class="st12" d="M2170.7,428l8.7,7.4c0.9,0.7,1,2.1,0.2,2.9c-0.7,0.9-2.1,1-2.9,0.2l-0.1,0l-8.6-7.3l-0.1,0
						c-0.9-0.7-1-2.1-0.2-2.9C2168.5,427.3,2169.8,427.2,2170.7,428L2170.7,428z"/>
					<path class="st12" d="M2187.9,443.1l8.2,8c0.8,0.8,0.8,2.1,0,2.9c-0.8,0.8-2.1,0.8-2.9,0l-0.1-0.1l-8.1-7.9l-0.1-0.1
						c-0.8-0.8-0.8-2.1,0-2.9C2185.8,442.3,2187.1,442.3,2187.9,443.1L2187.9,443.1z"/>
					<path class="st12" d="M2203.9,459.4l7.4,8.7c0.7,0.9,0.6,2.2-0.2,2.9c-0.9,0.7-2.2,0.6-2.9-0.2l-0.1-0.1l-7.3-8.6l-0.1-0.1
						c-0.7-0.9-0.6-2.2,0.2-2.9C2201.9,458.5,2203.2,458.6,2203.9,459.4L2203.9,459.4z"/>
					<path class="st12" d="M2218.3,477.3l6.3,9.6c0.6,0.9,0.4,2.2-0.6,2.8c-0.9,0.6-2.2,0.4-2.8-0.6l-0.1-0.1l-6.2-9.4l-0.1-0.1
						c-0.6-0.9-0.4-2.2,0.6-2.9C2216.4,476.1,2217.6,476.4,2218.3,477.3L2218.3,477.3z"/>
					<path class="st12" d="M2230.2,497l4.8,10.5c0.5,1,0,2.2-1,2.7c-1,0.5-2.2,0-2.7-1l-0.1-0.2l-4.6-10.2l-0.1-0.2
						c-0.5-1,0-2.2,1-2.7C2228.5,495.5,2229.8,496,2230.2,497L2230.2,497z"/>
					<path class="st12" d="M2238.8,518.4c1.1,3.7,1.9,7.5,2.6,11.3c0.2,1.1-0.6,2.2-1.7,2.4c-1.1,0.2-2.2-0.6-2.4-1.7
						c-0.6-3.7-1.5-7.3-2.5-10.8c-0.3-1.1,0.3-2.2,1.4-2.5C2237.3,516.7,2238.4,517.3,2238.8,518.4L2238.8,518.4z"/>
					<path class="st12" d="M2242.6,541.2c0.2,3.9,0.2,7.7-0.1,11.6c-0.1,1.1-1.1,2-2.2,1.9c-1.1-0.1-2-1-1.9-2.2
						c0.3-3.7,0.3-7.4,0.1-11.1c-0.1-1.1,0.8-2.1,1.9-2.1S2242.6,540.1,2242.6,541.2L2242.6,541.2z"/>
					<path class="st12" d="M2241,564.3c-0.7,3.8-1.7,7.5-2.9,11.2c-0.3,1.1-1.5,1.7-2.5,1.3c-1.1-0.3-1.7-1.5-1.3-2.5
						c1.1-3.5,2-7.1,2.7-10.8c0.2-1.1,1.3-1.8,2.4-1.6C2240.5,562.2,2241.2,563.2,2241,564.3L2241,564.3z"/>
					<path class="st12" d="M2234.1,586.4l-5.1,10.4c-0.5,1-1.7,1.4-2.7,0.9c-1-0.5-1.4-1.7-0.9-2.7l0.1-0.2l4.9-10l0.1-0.2
						c0.5-1,1.7-1.4,2.7-0.9C2234.2,584.2,2234.6,585.4,2234.1,586.4L2234.1,586.4z"/>
					<path class="st12" d="M2223,606.6l-6.7,9.4c-0.6,0.9-1.9,1.1-2.8,0.5c-0.9-0.6-1.1-1.9-0.5-2.8l0.1-0.1l6.5-9.1l0.1-0.1
						c0.6-0.9,1.9-1.1,2.8-0.5C2223.5,604.5,2223.7,605.7,2223,606.6L2223,606.6z"/>
					<path class="st12" d="M2209.1,624.9l-7.8,8.4c-0.7,0.8-2,0.9-2.8,0.1c-0.8-0.7-0.9-2-0.1-2.8l0.1-0.1l7.6-8.3l0.1-0.1
						c0.7-0.8,2-0.9,2.8-0.1C2209.8,622.8,2209.9,624.1,2209.1,624.9L2209.1,624.9z"/>
					<path class="st12" d="M2193.2,641.3l-8.5,7.6c-0.8,0.7-2.1,0.7-2.8-0.1c-0.7-0.8-0.7-2.1,0.1-2.8l0.1-0.1l8.4-7.5l0.1-0.1
						c0.8-0.7,2.1-0.7,2.8,0.1C2194.1,639.4,2194,640.6,2193.2,641.3L2193.2,641.3z"/>
					<path class="st12" d="M2175.9,656.3l-8.9,7.1l0,0c-0.9,0.7-2.1,0.5-2.8-0.3c-0.7-0.9-0.5-2.1,0.3-2.8l8.9-7.1l0,0
						c0.9-0.7,2.1-0.5,2.8,0.3C2176.9,654.4,2176.7,655.6,2175.9,656.3L2175.9,656.3z"/>
					<path class="st12" d="M2158.1,670.5l-8.7,7.3l0,0c-0.8,0.7-2.1,0.6-2.8-0.2c-0.7-0.8-0.6-2.1,0.2-2.8l8.7-7.3
						c0.8-0.7,2.1-0.6,2.8,0.2C2159.1,668.5,2159,669.8,2158.1,670.5L2158.1,670.5L2158.1,670.5z"/>
					<path class="st12" d="M2140.9,685.2l-8.4,7.6l0,0c-0.8,0.7-2,0.7-2.8-0.1c-0.7-0.8-0.7-2,0.1-2.8l8.4-7.7
						c0.8-0.7,2-0.7,2.8,0.1C2141.8,683.2,2141.7,684.5,2140.9,685.2L2140.9,685.2L2140.9,685.2z"/>
					<path class="st12" d="M2124.4,700.7l-7.8,8.1l-0.1,0.1c-0.7,0.8-2,0.8-2.7,0.1c-0.8-0.7-0.8-2-0.1-2.7l7.9-8.3
						c0.7-0.8,2-0.8,2.8-0.1C2125.2,698.6,2125.2,699.9,2124.4,700.7L2124.4,700.7L2124.4,700.7z"/>
					<path class="st12" d="M2109.1,717.3l-6.9,8.9l-0.1,0.1c-0.7,0.8-1.9,1-2.7,0.3c-0.8-0.7-1-1.9-0.3-2.7l7.1-9.1
						c0.7-0.8,1.9-1,2.7-0.3C2109.7,715.1,2109.9,716.4,2109.1,717.3L2109.1,717.3L2109.1,717.3z"/>
					<path class="st12" d="M2096,735.5c-1.9,3.2-3.6,6.5-5.1,9.9c-0.4,1-1.6,1.4-2.5,1c-1-0.4-1.4-1.6-1-2.5c1.6-3.5,3.4-7,5.3-10.3
						c0.5-0.9,1.7-1.2,2.6-0.7C2096.3,733.4,2096.6,734.6,2096,735.5L2096,735.5z"/>
					<path class="st12" d="M2087.2,755.8c-1,3.5-1.6,7.2-2,10.8c-0.1,1.1-1,1.8-2.1,1.7c-1.1-0.1-1.8-1-1.7-2.1
						c0.3-3.9,1.1-7.7,2.1-11.5c0.3-1,1.3-1.6,2.4-1.4C2086.8,753.7,2087.4,754.8,2087.2,755.8L2087.2,755.8z"/>
					<path class="st12" d="M2085.2,777.6c0.3,3.7,0.9,7.3,1.8,10.9c0.2,1-0.4,2.1-1.4,2.3c-1,0.2-2.1-0.4-2.3-1.4
						c-0.9-3.8-1.5-7.6-1.8-11.5c-0.1-1.1,0.7-2,1.7-2.1C2084.2,775.8,2085.1,776.6,2085.2,777.6L2085.2,777.6z"/>
					<path class="st12" d="M2090.1,799.3l4.1,10.5l0,0.1c0.4,1-0.1,2.1-1.1,2.5c-1,0.4-2.1-0.1-2.5-1.1l-4.2-10.7
						c-0.4-1,0.1-2.1,1.1-2.5c1-0.4,2.1,0.1,2.5,1.1l0,0L2090.1,799.3z"/>
					<path class="st12" d="M2098.8,820l5,10.2l0,0c0.5,0.9,0.1,2.1-0.9,2.5c-0.9,0.5-2.1,0.1-2.5-0.9l-5-10.2
						c-0.5-0.9-0.1-2.1,0.9-2.5C2097.2,818.7,2098.3,819,2098.8,820L2098.8,820L2098.8,820z"/>
					<path class="st12" d="M2108.9,840.4l4.4,10.7c0.4,1-0.1,2.1-1,2.5c-1,0.4-2.1-0.1-2.5-1l-0.1-0.1l-4.3-10.3l-0.1-0.2
						c-0.4-1,0.1-2.1,1-2.5C2107.4,839,2108.5,839.4,2108.9,840.4L2108.9,840.4z"/>
					<path class="st12" d="M2116.8,862l2.8,11.1c0.3,1-0.4,2-1.4,2.3c-1,0.3-2-0.4-2.3-1.4l0-0.1l-2.8-10.9l0-0.1
						c-0.3-1,0.4-2,1.4-2.3C2115.5,860.4,2116.6,861,2116.8,862L2116.8,862z"/>
					<path class="st12" d="M2121.8,884.3l1.5,11.4c0.1,1-0.6,2-1.6,2.1c-1,0.1-2-0.6-2.1-1.6l0-0.1l-1.5-11.2l0-0.1
						c-0.1-1,0.6-2,1.6-2.1C2120.7,882.6,2121.6,883.3,2121.8,884.3L2121.8,884.3z"/>
					<path class="st12" d="M2124.2,907.1l0.3,11.5c0,1-0.8,1.9-1.8,1.9c-1,0-1.9-0.8-1.9-1.8l0-0.1l-0.3-11.3l0-0.1
						c0-1,0.8-1.9,1.8-1.9C2123.3,905.3,2124.2,906.1,2124.2,907.1L2124.2,907.1z"/>
					<path class="st12" d="M2124.2,930l-0.9,11.4c-0.1,1-1,1.8-2,1.7c-1-0.1-1.8-1-1.7-2l0-0.1l0.9-11.2l0-0.1c0.1-1,1-1.8,2-1.7
						C2123.6,928.1,2124.3,929,2124.2,930L2124.2,930z"/>
					<path class="st12" d="M2121.8,952.8l-2.1,11.3c-0.2,1-1.1,1.6-2.1,1.5c-1-0.2-1.6-1.1-1.5-2.1l0-0.1l2.1-11.1l0-0.1
						c0.2-1,1.1-1.7,2.1-1.5C2121.4,950.8,2122,951.8,2121.8,952.8L2121.8,952.8z"/>
					<path class="st12" d="M2117,975.2l-3.4,11c-0.3,1-1.3,1.5-2.3,1.2c-1-0.3-1.5-1.3-1.2-2.3l0-0.1l3.3-10.8l0-0.1
						c0.3-1,1.3-1.5,2.3-1.2C2116.7,973.2,2117.2,974.2,2117,975.2L2117,975.2z"/>
					<path class="st12" d="M2109.6,996.9l-4.5,10.5c-0.4,0.9-1.5,1.3-2.4,0.9c-0.9-0.4-1.3-1.5-0.9-2.4l0-0.1l4.4-10.3l0-0.1
						c0.4-0.9,1.5-1.3,2.4-1C2109.6,994.9,2110,996,2109.6,996.9L2109.6,996.9z"/>
					<path class="st12" d="M2100,1017.7l-5.6,10c-0.5,0.9-1.6,1.2-2.5,0.7c-0.9-0.5-1.2-1.6-0.7-2.5l0-0.1l5.5-9.8l0-0.1
						c0.5-0.9,1.6-1.2,2.5-0.7C2100.2,1015.7,2100.5,1016.8,2100,1017.7L2100,1017.7z"/>
					<path class="st12" d="M2088.2,1037.3l-6.6,9.3c-0.6,0.8-1.7,1-2.5,0.4c-0.8-0.6-1-1.7-0.4-2.5l0.1-0.1l6.5-9.2l0.1-0.1
						c0.6-0.8,1.7-1,2.5-0.4S2088.8,1036.5,2088.2,1037.3L2088.2,1037.3z"/>
					<path class="st12" d="M2074.5,1055.6l-7.5,8.6c-0.6,0.7-1.8,0.8-2.5,0.2c-0.7-0.6-0.8-1.8-0.2-2.5l0.1-0.1l7.4-8.5l0.1-0.1
						c0.6-0.7,1.8-0.8,2.5-0.2C2075,1053.7,2075.1,1054.9,2074.5,1055.6L2074.5,1055.6z"/>
					<path class="st12" d="M2059,1072.5l-8.3,7.9c-0.7,0.7-1.8,0.7-2.5-0.1c-0.7-0.7-0.7-1.8,0.1-2.5l0.1-0.1l8.1-7.8l0.1-0.1
						c0.7-0.7,1.8-0.7,2.5,0.1C2059.8,1070.7,2059.8,1071.8,2059,1072.5L2059,1072.5z"/>
					<path class="st12" d="M2042.2,1088l-8.9,7.2c-0.8,0.6-1.9,0.5-2.5-0.3c-0.6-0.8-0.5-1.9,0.3-2.5l0.1,0l8.8-7.1l0.1,0
						c0.8-0.6,1.9-0.5,2.5,0.3C2043.1,1086.2,2043,1087.3,2042.2,1088L2042.2,1088z"/>
					<path class="st12" d="M2024.2,1102l-9.4,6.5c-0.8,0.6-1.9,0.4-2.4-0.4c-0.6-0.8-0.4-1.9,0.4-2.4l0,0l9.3-6.5l0.1,0
						c0.8-0.6,1.9-0.4,2.5,0.4C2025.2,1100.3,2025,1101.4,2024.2,1102L2024.2,1102z"/>
					<path class="st12" d="M2005.2,1114.7l-9.8,5.9c-0.8,0.5-1.9,0.2-2.4-0.6c-0.5-0.8-0.2-1.9,0.6-2.4l0,0l9.7-5.8l0,0
						c0.8-0.5,1.9-0.2,2.4,0.6C2006.3,1113.1,2006.1,1114.2,2005.2,1114.7L2005.2,1114.7z"/>
					<path class="st12" d="M1985.5,1126.2l-10.1,5.3c-0.9,0.4-1.9,0.1-2.4-0.7c-0.4-0.9-0.1-1.9,0.7-2.4l0,0l10-5.2l0,0
						c0.9-0.4,1.9-0.1,2.4,0.7C1986.7,1124.7,1986.3,1125.7,1985.5,1126.2L1985.5,1126.2z"/>
					<path class="st12" d="M1965.1,1136.5l-10.4,4.7c-0.9,0.4-1.9,0-2.3-0.9c-0.4-0.9,0-1.9,0.9-2.3l0,0l10.3-4.7l0,0
						c0.9-0.4,1.9,0,2.3,0.9C1966.4,1135,1966,1136.1,1965.1,1136.5L1965.1,1136.5z"/>
					<path class="st12" d="M1944.3,1145.7l-10.6,4.2c-0.9,0.4-1.9-0.1-2.2-1c-0.4-0.9,0.1-1.9,1-2.2l0,0l10.5-4.2l0,0
						c0.9-0.4,1.9,0.1,2.2,1C1945.6,1144.3,1945.1,1145.3,1944.3,1145.7L1944.3,1145.7z"/>
					<path class="st12" d="M1923,1153.9l-10.8,3.8c-0.9,0.3-1.9-0.2-2.2-1c-0.3-0.9,0.2-1.9,1-2.2l0,0l10.7-3.8l0,0
						c0.9-0.3,1.9,0.2,2.2,1S1923.9,1153.6,1923,1153.9L1923,1153.9z"/>
				</g>
			</g>
			<g>
				<polygon class="st1" points="1697.1,293.1 1703.1,329.9 1675.6,318.2 				"/>
				<path class="st8" d="M1528.3,299.1l113.6,70.8c2.2,1.4,4.8,1.8,7.3,1.1c2.5-0.6,4.6-2.2,5.9-4.5l66.8-116.7
					c0.8-1.3,0.6-3-0.3-4.2c-1-1.2-2.5-1.7-4-1.3L1528.3,299.1z"/>
				<polygon class="st1" points="1697.1,293.1 1528.3,299.1 1686.3,312 1688.4,322.1 				"/>
				<polygon class="st1" points="1679.9,323.1 1703.1,329.9 1686.3,312 				"/>
			</g>
		</g>
		<g>
			<g>
				<rect x="1974.3" y="1290.6" class="st6" width="17.7" height="191.1"/>
				<path class="st6" d="M2060.5,1485.3h-154.8v-8.8c0-1.5,1.2-2.7,2.7-2.7h149.2c1.6,0,2.9,1.3,2.9,2.9V1485.3z"/>
				<path class="st7" d="M2089.8,1283.5c0,11.1-9.1,20.2-20.2,20.2h-166.4c-11.1,0-20.2-9.1-20.2-20.2v-18.3
					c0-11.1,9.1-20.2,20.2-20.2h166.4c11.1,0,20.2,9.1,20.2,20.2V1283.5z"/>
			</g>
			<g>
				<path class="st5" d="M1884.7,1447.8c0,0-50.5,36.4-41.7,60.8c0,0,55.2-23.8,61.9-42.6c6.7-18.8-1.1-27.1-1.1-27.1L1884.7,1447.8
					z"/>
				<path class="st2" d="M1892.3,1417.3l8.3,23.9c1.2,3.6,0,7.7-3.2,9.7c-1.6,1-3.8,2-6.8,2.6c-4.3,1-8.6-1-10.7-4.8l-9.9-18.6
					L1892.3,1417.3z"/>
				<path class="st5" d="M1972.6,1202.6c0,0-103.6,18-148.1,59c-44.5,41.1,40.8,172.1,40.8,172.1s14-0.1,30.9-14.6
					c0,0-50.6-98.5-7-127.3c49-32.3,105.4-39.6,105.4-39.6l-21.1-46.5L1972.6,1202.6z"/>
				<path class="st5" d="M1851.8,1495.1c11.1-5.1,42.5-27.1,47.8-28.1c5.3-1,14.5,5.3,14.5,5.3s2.2,4-0.2,11
					c-7.4,8.9-23.7,25.9-45.8,32.3c-16.2,4.7-27.5,0.3-34.6-4.8C1837.5,1504.9,1844.4,1498.5,1851.8,1495.1z"/>
				<path class="st5" d="M1868.2,1515.5c22-6.3,38.4-23.3,45.8-32.3c-1.6,4.7-5.3,10.8-13.3,18c-19.7,17.7-57.4,24.1-65.5,22.9
					c-6.4-1-5.8-6.9-1.6-13.4C1840.7,1515.9,1852,1520.2,1868.2,1515.5z"/>
				<path class="st2" d="M1923.5,1456.7c-0.1,3.1-6.4,13.5-10,19.4c-1.7,2.8-4.8,4.5-8.1,4.5c-2.1,0-4.5-0.2-6.7-0.8
					c-3.3-0.9-5.1-4.4-4.2-7.7l7.1-24.4L1923.5,1456.7z"/>
				<path class="st5" d="M2072.4,1171.5c0,0,23,61.5,0,80.3c-23,18.7-77.9,39.8-90.2,77.1c-12.3,37.3-33.1,109.7-60.9,135.4
					c0,0-19.6-1.9-26.9-9.7c0,0,15.9-108.2,26.3-135.9c9.1-24,22.4-58.7,48-78.1c7.3-5.5,6-14.3,2.7-22.9l-6.2-15.5L2072.4,1171.5z"
					/>
				<path class="st7" d="M1832.3,1123.3c38.6,2.3,26.6-59.3,25.9-61.8l58.6,41.4c0,0-3.1,33-51.8,50.3c-12.3,4.4-23.6,4.6-33.5,2.4
					C1835.7,1143.2,1834.8,1132.1,1832.3,1123.3z"/>
				<path class="st2" d="M1757.7,1104.7c14.4-10,30.7,0,30.7,0c19.2,12.6,33.5,17.9,43.9,18.6c2.5,8.8,3.4,19.9-0.9,32.3
					c-21.5-4.6-37-20.2-43.6-28.2c-2.4-2.9-6.7-3.4-9.6-1.1c-3,2.4-5.9,5.6-5.4,9c1,6.7-6.8,8.9-7.3,6.4c-0.6-2.4,2.7-16.9,2.7-16.9
					s-15.6,15.7-21.7,21.7c-6.1,6-13.7,0-13.7,0S1743.3,1114.7,1757.7,1104.7z"/>
				<path class="st7" d="M2012.3,966.3c0,0-56.1-22.5-160.6,63.8c0,0-8.7,18.1,0.8,34.1c9.5,16.1,100.2,94.4,112.7,137.9
					c0,0,54,17.6,109.9-24.1C2075.1,1178,2070.1,1057.1,2012.3,966.3z"/>
				<path class="st2" d="M1901.3,946.2l27.6,33.5c2.7,3.3,3.3,8,1.5,11.8c-3.8,7.8-12.9,19.2-33.1,17.6c-6-0.5-11.3-4.1-13.9-9.5
					l-19.3-40L1901.3,946.2z"/>
				<path class="st7" d="M2055.7,1109.8c6.5-26.5-59.5-85.7-59.5-85.7l16-57.8c0,0,142.6,94.9,106.2,171.2
					c-5.2,10.9-12.1,18.6-20.1,23.7C2086.9,1130.3,2068.6,1116.2,2055.7,1109.8z"/>
				<path class="st2" d="M1955.7,1107.5c0,0,78.3,30.4,97.4,7.5c1.3-1.6,2.1-3.3,2.6-5.2c12.8,6.4,31.1,20.5,42.6,51.4
					c-41.2,26.3-111.5-14.6-130.6-26.7c-3.1-2-6.9-2.7-10.5-1.9c-7.3,1.5-20,3.8-26.9,2.7c-10-1.5-24.4,33.7-40.6,22.9
					C1889.8,1158.2,1903.7,1096.8,1955.7,1107.5z"/>
				<g>
					<path class="st2" d="M1841.1,897c-0.3,1.1,6.5,74.3,6.5,74.3l41.7-4.7l3.9-70.4C1893.3,896.2,1845.8,879,1841.1,897z"/>
					<path class="st5" d="M1882.4,910.8l0.8,37.2c0,0.5,0,0.9-0.2,1.4c-0.7,2.8-3.9,12.4-13.5,8.5c-8.7-3.5-16.7-6.6-22.5-5.5
						c-2.6,0.5-4.5,2.9-4.2,5.6c0.6,6.7,2.3,21.6,5.7,34.4c0.7,2.6,3.3,4.2,5.9,3.7c8-1.4,24.7-4.8,37.5-10.7c1.7-0.8,2.9-2.5,3-4.4
						c0.6-9.3,2.6-37.6,4.4-45.3c1.7-7.3,11.2-10.7,15.4-11.9c1.4-0.4,2.5-1.3,3.1-2.5c2.3-4.4,6-14.7-6.9-20.5
						c-2.7-1.2-3.8-4.4-2.5-7.1c2.6-5.3,4.3-13.6-5.5-19.4c-10-5.9-18.4-1.1-23.2,3c-1.9,1.7-4.7,1.6-6.7,0.1
						c-1.1-0.9-2.7-1.3-4.7-0.4c-2.7,1.3-6-0.1-7-3c-1.9-5.4-6.5-11.5-16.9-10.9c-18.6,1.1-22.9,21.1-19.4,33.5
						c3.5,12.4,23.6,10,34.1,5.1c8-3.7,17.1,2.1,21.1,5.1C1881.6,907.8,1882.4,909.2,1882.4,910.8z"/>
					<path class="st2" d="M1899.6,949.2c0,0-5.2-21.8,3.1-26.1c8.3-4.3,19.4-0.4,15.2,14.6C1912.7,956.2,1899.6,949.2,1899.6,949.2z
						"/>
				</g>
			</g>
			<g>
				<path class="st8" d="M1915.6,1167.4c-0.1,0-0.3,0-0.4,0l-164.2-0.2c-4.1,0-7.3-3.3-7.3-7.4c0-4.1,3.3-7.4,7.4-7.3l164.2,0.2
					c4.1,0,7.3,3.3,7.3,7.4C1922.6,1164,1919.5,1167.2,1915.6,1167.4z"/>
				<path class="st8" d="M1603.4,1018.3h136.8c10.1,0,19.3,5.8,23.6,14.9l63.2,134.1h-170c-6.5,0-12.3-4-14.7-10l-49-124.1
					C1590.4,1026.1,1595.7,1018.3,1603.4,1018.3z"/>
			</g>
			<g>
				<g>
					<path class="st6" d="M1625.6,1519.7c-0.9,0-1.8-0.2-2.7-0.5c-3.5-1.5-5.1-5.4-3.6-8.8l144.7-325.7c1.5-3.4,5.6-5,9.1-3.5
						c3.5,1.5,5.1,5.4,3.6,8.8l-144.7,325.7C1630.8,1518.2,1628.2,1519.7,1625.6,1519.7z"/>
					<path class="st6" d="M1788.6,1519.7c-2.7,0-5.2-1.5-6.3-4l-144.7-325.7c-1.5-3.4,0.1-7.3,3.6-8.8c3.5-1.5,7.6,0.1,9.1,3.5
						l144.7,325.7c1.5,3.4-0.1,7.3-3.6,8.8C1790.5,1519.5,1789.5,1519.7,1788.6,1519.7z"/>
					<path class="st6" d="M2073.6,1519.7c-0.9,0-1.8-0.2-2.7-0.5c-3.5-1.5-5.1-5.4-3.6-8.8l144.7-325.7c1.5-3.4,5.6-5,9.1-3.5
						c3.5,1.5,5.1,5.4,3.6,8.8l-144.7,325.7C2078.8,1518.2,2076.3,1519.7,2073.6,1519.7z"/>
					<path class="st6" d="M2236.7,1519.7c-2.7,0-5.2-1.5-6.3-4l-144.7-325.7c-1.5-3.4,0.1-7.3,3.6-8.8c3.5-1.5,7.6,0.1,9.1,3.5
						l144.7,325.7c1.5,3.4-0.1,7.3-3.6,8.8C2238.5,1519.5,2237.6,1519.7,2236.7,1519.7z"/>
				</g>
				<path class="st6" d="M2253.6,1174.6c0.4-2.1-0.1-4.3-1.4-6c-1.2-1.7-3.1-2.7-5-2.7h-658.5c-2.6,0-4.9,1.5-6.3,3.9
					c-1.4,2.4-1.6,5.4-0.5,8l7.1,17.3c1.6,4,5.2,6.5,9.1,6.5h644.5c3.6,0,6.7-2.9,7.4-6.9L2253.6,1174.6z"/>
			</g>
		</g>
		<g>
			<path class="st7" d="M463.4,1268.3l-288.1,159.8c-12.1,6.7-15.9,22.3-8.3,33.8l1.3,1.9c6.7,10.2,20.5,13,30.7,6.1L474,1285.5
				L463.4,1268.3z"/>
			<linearGradient id="SVGID_1_" gradientUnits="userSpaceOnUse" x1="440.5622" y1="1179.0803" x2="746.1302" y2="1179.0803">
				<stop  offset="0" style="stop-color:#DAE3FE"/>
				<stop  offset="1" style="stop-color:#E9EFFD"/>
			</linearGradient>
			<path class="st13" d="M744.3,1155.1c13,81.9-44.1,158.9-127.4,172.2c-83.4,13.2-161.5-42.4-174.5-124.3
				c-13-81.9,44.1-158.9,127.4-172.2C653.2,1017.6,731.3,1073.3,744.3,1155.1z"/>
			<path class="st7" d="M567.2,1014.2c-92.8,14.7-156.2,100.5-141.8,191.6c14.5,91.1,101.4,153,194.1,138.3
				c92.8-14.7,156.2-100.5,141.8-191.6C746.8,1061.3,659.9,999.4,567.2,1014.2z M615.7,1319.8c-79.1,12.6-153.3-40.3-165.6-118
				c-12.3-77.7,41.8-150.9,121-163.4c79.1-12.6,153.3,40.3,165.6,118C749,1234,694.8,1307.2,615.7,1319.8z"/>
			<path class="st6" d="M441.2,1224.1c-0.5,0-0.9-0.3-1.1-0.8c-1.1-3.8-2.1-7.7-2.9-11.7c-0.1-0.6,0.3-1.2,0.9-1.3
				c0.6-0.1,1.2,0.3,1.3,0.9c0.8,3.9,1.8,7.7,2.9,11.5c0.2,0.6-0.2,1.2-0.8,1.4C441.4,1224.1,441.3,1224.1,441.2,1224.1z
				 M435.1,1177.8C435,1177.8,435,1177.8,435.1,1177.8c-0.7,0-1.1-0.5-1.1-1.2c0.2-10.9,1.6-21.8,4.1-32.4c0,0,0,0,0,0
				c14.9-62.6,66.2-109.6,130.7-119.9c30.1-4.8,60.7-1.1,88.4,10.8c0.6,0.2,0.8,0.9,0.6,1.5c-0.2,0.6-0.9,0.9-1.5,0.6
				c-27.4-11.6-57.5-15.3-87.2-10.6c-63.6,10.1-114.2,56.5-128.9,118.1c0,0,0,0,0,0c-2.5,10.5-3.9,21.2-4.1,32
				C436.2,1177.4,435.7,1177.8,435.1,1177.8z"/>
			<path class="st6" d="M187.6,1467.4c-0.1,0-0.1,0-0.2,0c-12.6-2.2-16.5-8.8-17.5-14c-1.5-7.5,2.1-15.3,9.1-19.4l34.4-20.1
				c0.5-0.3,1.2-0.1,1.6,0.4c0.3,0.5,0.1,1.2-0.4,1.6l-34.4,20.1c-6.1,3.6-9.3,10.4-8,17c1.3,6.5,6.6,10.6,15.7,12.2
				c0.6,0.1,1,0.7,0.9,1.3C188.6,1467,188.1,1467.4,187.6,1467.4z"/>
			<path class="st6" d="M224.5,1409.7c-0.4,0-0.8-0.2-1-0.6c-0.3-0.5-0.1-1.2,0.4-1.6l4.5-2.6c0.5-0.3,1.2-0.1,1.6,0.4
				c0.3,0.5,0.1,1.2-0.4,1.6l-4.5,2.6C224.9,1409.7,224.7,1409.7,224.5,1409.7z"/>
		</g>
	</g>
</g>
</svg>
