<?xml version="1.0" encoding="utf-8"?>
<!-- Generator: Adobe Illustrator 26.0.2, SVG Export Plug-In . SVG Version: 6.00 Build 0)  -->
<svg version="1.1" xmlns="http://www.w3.org/2000/svg" xmlns:xlink="http://www.w3.org/1999/xlink" x="0px" y="0px"
	 viewBox="0 0 2475 1650" style="enable-background:new 0 0 2475 1650;" xml:space="preserve">
<style type="text/css">
	.st0{opacity:0.4;fill:#FFFFFF;}
	.st1{fill:#BBDEF2;}
	.st2{fill:#FFFFFF;}
	.st3{fill:#86BFF2;}
	.st4{opacity:0.5;}
	.st5{fill:#7B8FDD;}
	.st6{fill:#C88BC4;}
	.st7{fill:#D1AAD7;}
	.st8{opacity:0.8;fill:#FFFFFF;}
	.st9{opacity:0.85;}
	.st10{opacity:0.3;}
	.st11{fill:url(#SVGID_1_);}
	.st12{opacity:0.3;fill:#D1AAD7;}
	.st13{fill:#7D97F4;}
	.st14{fill:url(#SVGID_00000062903665003135917500000003200549341472287124_);}
	.st15{fill:url(#SVGID_00000095317263681597264860000010354780095091902911_);}
	.st16{fill:url(#SVGID_00000114038166964133205610000012262520378082879919_);}
	.st17{fill:url(#SVGID_00000060746193932838366240000003094889241054934440_);}
	.st18{fill:url(#SVGID_00000091726060420298028700000005940619697762209943_);}
	.st19{fill:url(#SVGID_00000103267365169863701480000009822325633319730836_);}
	.st20{fill:url(#SVGID_00000166646966926552535010000006411621620309651380_);}
	.st21{fill:url(#SVGID_00000022561383174357854730000007145466441231227058_);}
	.st22{fill:#91B3FA;}
	.st23{fill:url(#SVGID_00000029750501020627683300000012624038239558050212_);}
	.st24{fill:url(#SVGID_00000136392640313065670830000002971001629653969583_);}
	.st25{fill:url(#SVGID_00000062881255920979899250000012370192005039757984_);}
	.st26{fill:url(#SVGID_00000165926507089862003620000014623769724817712026_);}
</style>
<g id="Background">
</g>
<g id="Illustration">
	<g>
		<path class="st0" d="M1296.7,1414.6c0,0,683.6,7.9,874.1-170.9c190.4-178.8,118.7-357.1-27.1-407.6
			c-145.8-50.5-170.7-103-92.2-173.9c78.5-70.8,178.1-216.3,12.7-362.4c-165.4-146.1-354.2,63.8-502.1,35.9
			c-147.9-27.9-89.3-121.8-283.8-56.9c-194.5,64.8-151.6-123.9-307.9-141c-156.3-17.1-140.3,196.3-301.1,115.8
			C508.5,173,377,184.1,307.8,312.1c-69.1,128-39.1,300.3,112.6,403s135.4,95.7,78.7,196.6c-56.7,100.9-107.5,432.8,150.5,480.2
			C907.7,1439.3,1296.7,1414.6,1296.7,1414.6z"/>
		<g>
			<g>
				<g>
					<path class="st1" d="M1751.9,441c55.5,59.3,364.2,417.5,80,767.6c0,0-263.9-183.5-91.6-764.9
						C1741.8,438.7,1748.3,437.2,1751.9,441z"/>
					<path class="st2" d="M1761.7,521.9c0,0,13.6,36.5,31.8,92c4.6,13.9,9.4,28.9,14.4,44.9c5,16,10.2,32.8,15.3,50.3
						c5.2,17.5,10.3,35.6,15.4,54.1c2.5,9.3,5,18.6,7.5,27.9c2.4,9.4,4.9,18.8,7.3,28.2c2.3,9.5,4.7,18.9,6.9,28.3
						c2.2,9.4,4.5,18.8,6.5,28.2c1,4.7,2.1,9.3,3.1,14c1,4.7,1.9,9.3,2.9,13.9c2,9.2,3.7,18.3,5.5,27.3
						c6.9,35.9,12.1,69.6,15.3,98.7c0.9,7.3,1.5,14.3,2.1,20.9c0.3,3.3,0.6,6.6,0.9,9.7c0.2,3.2,0.4,6.2,0.6,9.2
						c0.3,5.9,0.8,11.5,0.9,16.7c0.1,5.2,0.3,9.9,0.4,14.2c0.1,2.1,0.1,4.2,0.2,6.1c0,1.9,0,3.7-0.1,5.4c0,3.3-0.1,6.2-0.1,8.5
						c-0.1,4.6-0.1,7-0.1,7c0,2.4-2,4.3-4.3,4.2c-2.4,0-4.3-2-4.2-4.3l0,0l0-0.2c0,0,0-2.4,0.1-6.9c0-2.3,0.1-5,0.2-8.3
						c0-1.6,0.1-3.4,0.1-5.3c0-1.9-0.1-3.9-0.1-6c-0.1-4.2-0.2-8.9-0.3-14c-0.1-5.1-0.5-10.6-0.8-16.5c-0.2-2.9-0.3-6-0.5-9.1
						c-0.3-3.1-0.5-6.3-0.8-9.6c-0.5-6.6-1.1-13.5-1.9-20.7c-3-28.9-7.8-62.5-14.4-98.3c-1.7-8.9-3.3-18-5.2-27.2
						c-0.9-4.6-1.9-9.2-2.8-13.8c-1-4.6-2-9.3-3-14c-2-9.4-4.1-18.7-6.3-28.2c-2.1-9.4-4.4-18.9-6.7-28.3c-2.3-9.4-4.7-18.8-7-28.2
						c-2.4-9.4-4.9-18.7-7.3-27.9c-5-18.5-9.9-36.6-15-54.1c-5-17.5-10-34.4-14.9-50.4c-4.9-16-9.6-31-14-44.9
						c-17.7-55.5-31-92.1-31-92.1c-0.3-0.9,0.1-2,1.1-2.3C1760.3,520.5,1761.4,520.9,1761.7,521.9z"/>
				</g>
				<g>
					<path class="st3" d="M2034.6,262.4c-3.5-7.2-14.4-5-14.7,3c-3.1,77.5-17.4,280.6-85,402.6c-110,198.7-145.9,487.3-17.8,601.8
						C1917.2,1269.9,2412.1,1051.2,2034.6,262.4z"/>
					<path class="st2" d="M2044.7,369.7c0,0,0.1,0.8,0.3,2.3c0.1,1.6,0.4,4,0.6,7c0.5,6,1.1,14.8,1.7,26.1
						c1.2,22.5,2.5,54.6,2.8,93.2c0.1,19.3,0.1,40.2-0.3,62.3c-0.3,22.1-1.1,45.4-2.1,69.5c-1.2,24.1-2.6,49-4.7,74.3
						c-0.5,6.3-1,12.7-1.5,19c-0.6,6.4-1.2,12.7-1.8,19.1c-1.1,12.8-2.6,25.6-4,38.4c-0.7,6.4-1.5,12.8-2.3,19.2
						c-0.8,6.4-1.6,12.8-2.4,19.1c-1.8,12.7-3.7,25.3-5.6,37.9c-2.1,12.5-4,24.9-6.3,37.2c-1.1,6.1-2.3,12.2-3.4,18.2
						c-0.6,3-1.1,6-1.7,9c-0.6,3-1.2,5.9-1.8,8.9c-4.8,23.7-10,46.4-15.6,67.9c-1.4,5.3-2.8,10.6-4.2,15.8c-0.7,2.6-1.4,5.2-2.1,7.7
						c-0.7,2.5-1.5,5.1-2.2,7.6c-3,10-5.7,19.7-8.7,28.9c-3,9.2-5.9,18-8.7,26.3c-2.9,8.3-5.9,16.1-8.6,23.5
						c-1.4,3.7-2.7,7.2-4,10.7c-1.4,3.4-2.7,6.7-4,9.8c-2.6,6.3-5,12-7.1,17.3c-4.5,10.3-8.4,18.3-10.9,23.8
						c-2.5,5.5-3.9,8.4-3.9,8.4c-0.2,0.5-0.9,0.8-1.4,0.5c-0.5-0.2-0.8-0.9-0.5-1.4l0,0c0,0,1.3-2.9,3.7-8.5c2.3-5.5,6-13.6,10.2-24
						c2-5.2,4.3-11,6.7-17.3c1.2-3.2,2.5-6.4,3.8-9.8c1.2-3.4,2.5-7,3.7-10.7c2.5-7.4,5.4-15.2,8.1-23.5c2.6-8.4,5.4-17.2,8.3-26.3
						c2.8-9.2,5.4-18.9,8.2-28.9c0.7-2.5,1.4-5,2.1-7.6c0.6-2.6,1.3-5.1,1.9-7.7c1.3-5.2,2.6-10.5,4-15.8
						c5.2-21.4,10.3-44.1,15-67.7c0.6-2.9,1.2-5.9,1.8-8.9c0.5-3,1.1-6,1.6-9c1.1-6,2.2-12.1,3.3-18.2c2.2-12.2,4-24.6,6.1-37
						c1.8-12.5,3.6-25.1,5.4-37.8c1.5-12.7,3.4-25.4,4.8-38.2c1.4-12.8,3-25.5,4.1-38.2c0.6-6.4,1.2-12.7,1.8-19
						c0.5-6.3,1.1-12.7,1.6-19c2.1-25.2,3.6-50,4.9-74.1c1.2-24,2.2-47.3,2.8-69.4c0.7-22.1,0.9-42.9,1-62.2c0-19.3,0-36.9-0.3-52.6
						c-0.2-15.7-0.6-29.3-1-40.5c-0.4-11.2-0.8-20.1-1.1-26.1c-0.1-3-0.3-5.2-0.4-6.8c-0.2-1.5-0.2-2.3-0.2-2.3l0-0.1
						c-0.1-0.6,0.4-1.1,1-1.2C2044.1,368.7,2044.7,369.1,2044.7,369.7z"/>
				</g>
				<g>
					<path class="st1" d="M1939.6,1226.4c0,0-21.1-109.2,64.7-242.8c79.6-123.9,278.5-413.8,308-557c1.3-6.3,10.3-6.5,11.7-0.2
						c15.3,67.8,40.2,240.4-40.7,434.8C2178.9,1112,1939.6,1226.4,1939.6,1226.4z"/>
					<path class="st2" d="M2298.9,556.7c0,0,0.3,2.9,0.6,8.3c0.1,2.7,0.2,6,0.2,9.9c0.1,3.9-0.1,8.4-0.4,13.5
						c-0.1,5.1-0.8,10.6-1.2,16.7c-0.5,6.1-1.5,12.6-2.3,19.6c-0.5,3.5-1.2,7.1-1.8,10.7c-0.6,3.7-1.2,7.5-2,11.4
						c-0.8,3.9-1.7,7.8-2.6,11.9c-0.9,4-1.7,8.2-2.9,12.4c-4.3,16.8-9.6,34.8-16.5,53.5c-3.6,9.3-6.8,19-11.2,28.5
						c-2.1,4.8-4.2,9.6-6.3,14.5c-2,4.9-4.4,9.7-6.9,14.6c-9.3,19.6-20.2,39.2-31.8,58.7c-6.1,9.6-12.1,19.4-18.3,29.1
						c-6.4,9.5-12.9,19-19.3,28.5c-6.6,9.5-13.1,18.9-19.7,28.4c-6.6,9.4-13.2,18.7-19.8,27.9c-6.7,9.2-13.3,18.2-19.9,27.2
						c-6.6,8.9-13.2,17.7-19.6,26.4c-13.1,17.2-25.7,33.8-37.7,49.5c-12,15.7-23.3,30.6-33.5,44.5c-10.2,13.9-19.4,26.7-27.2,38.3
						c-3.9,5.8-7.3,11.4-10.6,16.4c-3.1,5.2-5.8,10-8.3,14.3c-4.6,8.9-8.3,15.8-10.2,20.8c-2.1,4.9-3.2,7.6-3.2,7.6l0,0.1
						c-0.2,0.5-0.9,0.8-1.4,0.6c-0.5-0.2-0.8-0.8-0.6-1.4c0,0,1-2.7,3-7.8c1.8-5.1,5.1-12.4,9.5-21.5c2.4-4.4,5-9.4,8-14.7
						c3.2-5.2,6.4-10.9,10.2-16.9c7.6-11.9,16.2-25.1,26.3-39.2c10-14.1,21.1-29.2,32.8-45.1c11.7-15.9,24-32.7,36.8-50.1
						c6.4-8.7,12.8-17.5,19.4-26.5c6.5-9,13-18.1,19.6-27.3c6.5-9.2,13.1-18.5,19.7-27.9c6.5-9.4,13-18.8,19.6-28.3
						c6.4-9.5,12.9-19.1,19.3-28.6c6.2-9.5,12.2-19.2,18.3-28.6c11.7-19.3,22.5-38.6,32-57.8c2.5-4.8,4.9-9.5,7-14.3
						c2.2-4.8,4.3-9.6,6.4-14.3c1.1-2.4,2.1-4.7,3.2-7c1.1-2.3,1.9-4.7,2.9-7c1.9-4.7,3.7-9.3,5.5-13.9c7.2-18.3,12.8-36,17.6-52.5
						c1.3-4.1,2.2-8.2,3.2-12.2c1-4,2-7.9,2.9-11.7c1.7-7.6,3.2-14.9,4.6-21.8c1.1-6.9,2.3-13.3,3.1-19.3c0.7-6,1.6-11.5,1.9-16.5
						c0.2-2.5,0.4-4.9,0.6-7.1c0.2-2.2,0.2-4.3,0.4-6.3c0.3-3.9,0.3-7.2,0.4-9.9c0.1-5.4-0.1-8.3-0.1-8.3c0-0.1,0.1-0.1,0.1-0.1
						C2298.8,556.6,2298.9,556.6,2298.9,556.7z"/>
				</g>
			</g>
			<g>
				<path class="st3" d="M468.3,558.1c-24.3,91.8-143.8,631.8,342.8,835c0,0,170.2-335.3-329.3-838.6
					C477.4,550.1,469.9,552.1,468.3,558.1z"/>
				<path class="st2" d="M506.9,646.3c0,0,6.5,45,19,112c3.1,16.8,6.6,34.9,10.4,54c3.9,19.1,8,39.3,12.6,60.1
					c4.5,20.8,9.4,42.3,14.5,64.1c2.6,10.9,5.3,21.8,7.9,32.8c2.8,11,5.5,22,8.4,33c2.9,11,5.7,22,8.8,32.9c3,10.9,6,21.8,9.1,32.5
					c1.6,5.4,3.1,10.7,4.6,16c1.6,5.3,3.2,10.6,4.8,15.8c3.1,10.5,6.4,20.8,9.7,30.9c6.5,20.3,13.2,39.7,19.8,58.1
					c6.7,18.3,13.3,35.5,19.8,51.2c3.1,7.9,6.4,15.3,9.5,22.4c1.5,3.5,3.1,7,4.5,10.4c1.5,3.3,3.1,6.5,4.5,9.7
					c3,6.2,5.6,12.1,8.3,17.4c2.7,5.3,5.2,10.2,7.5,14.6c1.1,2.2,2.2,4.3,3.2,6.2c1.1,1.9,2.1,3.7,3,5.4c1.9,3.3,3.5,6.2,4.8,8.5
					c2.6,4.6,4,7.1,4,7.1l0.1,0.2c1.2,2.1,0.4,4.7-1.6,5.8c-2.1,1.2-4.7,0.4-5.8-1.6l0,0c0,0-1.4-2.5-4-7.2
					c-1.3-2.3-2.9-5.2-4.8-8.7c-0.9-1.7-2-3.5-3-5.5c-1-2-2.1-4.1-3.2-6.3c-2.3-4.5-4.7-9.4-7.5-14.8c-2.7-5.4-5.3-11.4-8.3-17.7
					c-1.4-3.2-3-6.4-4.5-9.8c-1.5-3.4-3-6.9-4.5-10.5c-3.1-7.2-6.4-14.7-9.4-22.7c-6.4-15.9-13-33.2-19.5-51.7
					c-6.5-18.5-13.1-38.1-19.5-58.4c-3.2-10.2-6.4-20.6-9.5-31.1c-1.6-5.3-3.1-10.6-4.7-15.9c-1.5-5.3-3-10.7-4.5-16.1
					c-3.1-10.8-6-21.7-8.9-32.6c-3-10.9-5.7-22-8.6-33c-2.8-11-5.5-22.1-8.2-33.1c-2.6-11-5.2-22-7.7-32.9
					c-5-21.8-9.7-43.4-14.1-64.3c-4.4-20.9-8.4-41.1-12.2-60.3c-3.7-19.2-7.1-37.4-10.1-54.2c-12-67.2-18.3-112.3-18.3-112.3
					c-0.1-1,0.6-1.9,1.5-2C505.8,644.6,506.7,645.3,506.9,646.3z"/>
			</g>
			<g>
				<path class="st1" d="M262.1,858.1c-1-5.6,6.2-8.9,9.8-4.4c34.2,43.7,127.4,155.6,217.5,198.2
					c146.9,69.4,288.3,221.9,261.8,341.9C751.2,1393.8,372.5,1473.6,262.1,858.1z"/>
				<path class="st2" d="M302.7,923.8c0,0,0.3,0.5,0.8,1.5c0.6,0.9,1.5,2.3,2.6,4.1c2.3,3.6,5.8,8.9,10.3,15.5
					c4.5,6.7,10,14.7,16.4,23.9c6.4,9.2,13.9,19.4,21.9,30.5c8.2,11.1,17,23.1,26.6,35.6c9.6,12.6,19.9,25.6,30.7,39
					c10.8,13.4,22.1,27.2,33.8,40.9c2.9,3.4,5.9,6.9,8.8,10.3c3,3.4,6,6.8,9,10.3c6,6.9,12.2,13.6,18.4,20.5
					c6.1,6.8,12.5,13.4,18.7,20.1c6.3,6.6,12.6,13.2,18.9,19.7c6.4,6.4,12.6,12.8,19,19c6.4,6.1,12.6,12.3,18.9,18.1
					c12.6,11.7,25,22.8,36.9,33c11.9,10.3,23.6,19.6,34.4,28.1c5.5,4.1,10.8,8.1,15.8,11.8c5.1,3.7,9.9,7.1,14.5,10.3
					c2.3,1.6,4.5,3.2,6.6,4.7c2.2,1.4,4.3,2.8,6.3,4.1c4,2.7,7.8,5.1,11.1,7.3c6.8,4.3,12.2,7.4,15.9,9.7c3.7,2.2,5.6,3.4,5.6,3.4
					l0,0c0.5,0.3,0.7,1,0.4,1.5c-0.3,0.5-0.9,0.7-1.4,0.4c0,0-2-1.1-5.8-3.2c-3.8-2.1-9.4-5.1-16.3-9.2c-3.4-2.1-7.2-4.4-11.4-7
					c-2.1-1.3-4.2-2.6-6.5-4c-2.2-1.4-4.5-3-6.8-4.5c-4.7-3.1-9.7-6.4-14.9-10c-5.1-3.7-10.5-7.6-16.1-11.6
					c-11-8.3-22.9-17.5-35.1-27.6c-12.3-10.1-24.8-21.1-37.5-32.8c-6.4-5.8-12.7-12-19.1-18.1c-6.4-6.1-12.7-12.6-19.2-18.9
					c-6.3-6.5-12.7-13.1-19.1-19.7c-6.3-6.7-12.6-13.4-18.7-20.3c-6.1-6.9-12.4-13.7-18.3-20.6c-3-3.5-6-6.9-9-10.4
					c-2.9-3.5-5.9-7-8.8-10.4c-11.7-13.8-23-27.7-33.7-41.2c-10.7-13.6-20.8-26.8-30.2-39.6c-9.5-12.7-18.2-24.9-26.2-36.1
					c-15.9-22.6-28.5-41.9-37.2-55.4c-4.3-6.8-7.6-12.2-9.8-15.9c-1.1-1.8-2-3.4-2.5-4.3c-0.5-1-0.8-1.5-0.8-1.5
					c-0.3-0.5-0.1-1.2,0.4-1.4c0.5-0.3,1.1-0.1,1.4,0.4L302.7,923.8z"/>
			</g>
		</g>
		<g class="st4">
			<path class="st5" d="M547.1,827.8H157.8c-8.3,0-15.1-6.7-15.1-15.1l0,0c0-8.3,6.7-15.1,15.1-15.1h389.3c8.3,0,15.1,6.7,15.1,15.1
				l0,0C562.1,821,555.4,827.8,547.1,827.8z"/>
			<path class="st5" d="M593.8,886.8H204.5c-8.3,0-15.1-6.7-15.1-15.1l0,0c0-8.3,6.7-15.1,15.1-15.1h389.3c8.3,0,15.1,6.7,15.1,15.1
				l0,0C608.9,880,602.1,886.8,593.8,886.8z"/>
			<path class="st5" d="M483.1,1004.8H204.5c-8.3,0-15.1-6.7-15.1-15.1l0,0c0-8.3,6.7-15.1,15.1-15.1h278.6
				c8.3,0,15.1,6.7,15.1,15.1l0,0C498.2,998.1,491.4,1004.8,483.1,1004.8z"/>
			<path class="st5" d="M637.5,945.8H248.2c-8.3,0-15.1-6.7-15.1-15.1l0,0c0-8.3,6.7-15.1,15.1-15.1h389.3c8.3,0,15.1,6.7,15.1,15.1
				l0,0C652.5,939.1,645.8,945.8,637.5,945.8z"/>
		</g>
		<g>
			<path class="st6" d="M1756.9,422.6l-767.7-13c-30.9-0.5-55.7,26-53.9,57.6l26.4,454.4c1.4,24.9,21.5,44.4,45.8,44.6l738,7.3
				c18.2,0.2,33.3-14.5,34-33.2l17.7-474.3C1798,442.6,1779.8,423,1756.9,422.6z"/>
			<path class="st7" d="M1745.1,434.2l-747.7-12.3c-30.1-0.5-54.3,24.7-52.5,54.8L970.7,909c1.4,23.7,20.9,42.2,44.6,42.4l718.7,6.9
				c17.8,0.2,32.4-13.8,33.1-31.6l17.2-451.2C1785.2,453.2,1767.5,434.5,1745.1,434.2z"/>
			<path class="st8" d="M1731.1,449.1l-712-11.8c-28.7-0.5-51.7,23.5-50,52.2l24.5,411.7c1.3,22.5,19.9,40.2,42.5,40.4l684.4,6.6
				c16.9,0.2,30.9-13.2,31.5-30l16.4-429.7C1769.3,467.2,1752.4,449.4,1731.1,449.1z"/>
			<path class="st6" d="M995.7,421.5l750.8,12.4c22.4,0.4,40.2,19.1,39.3,41.5l-1.2,31.8H944.8l-1.8-30.7
				C941.2,446.3,965.5,421,995.7,421.5z"/>
			<g class="st9">
				<path class="st2" d="M1722.9,449.2c0,3.7,3,6.8,6.8,6.8c3.7,0,6.8-3,6.8-6.8c0-3.7-3-6.8-6.8-6.8
					C1726,442.5,1722.9,445.5,1722.9,449.2z"/>
				<path class="st2" d="M1722.9,469c0,3.7,3,6.8,6.8,6.8c3.7,0,6.8-3,6.8-6.8c0-3.7-3-6.8-6.8-6.8
					C1726,462.3,1722.9,465.3,1722.9,469z"/>
				<path class="st2" d="M1722.9,488.8c0,3.7,3,6.8,6.8,6.8c3.7,0,6.8-3,6.8-6.8c0-3.7-3-6.8-6.8-6.8
					C1726,482.1,1722.9,485.1,1722.9,488.8z"/>
			</g>
			<g class="st10">
				<path class="st7" d="M1620.2,698.7h81c11.1,0,19.9,9.3,19.3,20.3l-9.2,188.2c-0.5,10.3-9,18.4-19.3,18.4h-71.8
					c-10.7,0-19.4-8.7-19.4-19.4V718C1600.9,707.3,1609.5,698.7,1620.2,698.7z"/>
				<path class="st7" d="M1425.4,527.9l284.2,4.4c10.9,0.2,19.6,9.4,19,20.3l-4.7,96.6c-0.5,10.3-9,18.4-19.3,18.4h-279.5
					c-10.7,0-19.4-8.7-19.4-19.4v-101C1405.8,536.4,1414.6,527.7,1425.4,527.9z"/>
				<path class="st7" d="M1425.1,698.7h132.4c10.7,0,19.4,8.7,19.4,19.4v188.2c0,10.7-8.7,19.4-19.4,19.4h-132.4
					c-10.7,0-19.4-8.7-19.4-19.4V718C1405.8,707.3,1414.5,698.7,1425.1,698.7z"/>
			</g>
			<g>
				
					<ellipse transform="matrix(0.7071 -0.7071 0.7071 0.7071 -26.9011 1096.2888)" class="st2" cx="1309.9" cy="580.6" rx="48.6" ry="48.6"/>
				
					<ellipse transform="matrix(0.2298 -0.9732 0.9732 0.2298 350.7851 1604.4701)" class="st2" cx="1189.1" cy="580.6" rx="48.6" ry="48.6"/>
				
					<ellipse transform="matrix(0.2298 -0.9732 0.9732 0.2298 256.1689 1488.1003)" class="st2" cx="1068.2" cy="582.2" rx="48.6" ry="48.6"/>
				<g>
					
						<linearGradient id="SVGID_1_" gradientUnits="userSpaceOnUse" x1="-7085.4224" y1="519.375" x2="-7254.9233" y2="680.2358" gradientTransform="matrix(-1 0 0 1 -5841.7437 0)">
						<stop  offset="0" style="stop-color:#E1473D"/>
						<stop  offset="1" style="stop-color:#E9605A"/>
					</linearGradient>
					<path class="st11" d="M1281,570.3c-1.5,3.7-2.3,7.7-2.3,11.9c0,17.2,14,31.2,31.2,31.2c17.2,0,31.2-14,31.2-31.2
						c0-17.2-14-31.2-31.2-31.2c-0.5,0-1.1,0-1.6,0v-7.9c0.5,0,1,0,1.6,0c21.6,0,39.1,17.5,39.1,39.1c0,21.6-17.5,39.1-39.1,39.1
						c-21.6,0-39.1-17.5-39.1-39.1c0-5.3,1.1-10.4,3-15L1281,570.3z"/>
					<path class="st6" d="M1173,608.6c4.8,3,10.5,4.8,16.6,4.8c17.2,0,31.2-14,31.2-31.2c0-17.2-14-31.2-31.2-31.2
						c-0.5,0-1.1,0-1.6,0v-7.9c0.5,0,1,0,1.6,0c21.6,0,39.1,17.5,39.1,39.1c0,21.6-17.5,39.1-39.1,39.1c-7.5,0-14.6-2.1-20.6-5.8
						L1173,608.6z"/>
					<path class="st6" d="M1042.2,599.8c5.6,8.3,15.1,13.7,25.8,13.7c17.2,0,31.2-14,31.2-31.2c0-17.2-14-31.2-31.2-31.2
						c-0.5,0-1.1,0-1.6,0v-7.9c0.5,0,1,0,1.6,0c21.6,0,39.1,17.5,39.1,39.1c0,21.6-17.5,39.1-39.1,39.1c-13.4,0-25.2-6.7-32.2-16.9
						L1042.2,599.8z"/>
				</g>
				<g class="st10">
					<path class="st7" d="M1270.3,649.8h79.2c5,0,9,4,9,9c0,5-4,9-9,9h-79.2c-5,0-9-4-9-9C1261.3,653.9,1265.3,649.8,1270.3,649.8z"
						/>
					<path class="st7" d="M1149.4,649.8h79.2c5,0,9,4,9,9c0,5-4,9-9,9h-79.2c-5,0-9-4-9-9C1140.4,653.9,1144.5,649.8,1149.4,649.8z"
						/>
					<path class="st7" d="M1107.8,667.8h-79.2c-5,0-9-4-9-9c0-5,4-9,9-9h79.2c5,0,9,4,9,9C1116.9,663.8,1112.8,667.8,1107.8,667.8z"
						/>
					<path class="st7" d="M1270.3,677.8h79.2c5,0,9,4,9,9v53c0,5-4,9-9,9h-79.2c-5,0-9-4-9-9v-53
						C1261.3,681.9,1265.3,677.8,1270.3,677.8z"/>
					<path class="st7" d="M1149.4,677.8h79.2c5,0,9,4,9,9v53c0,5-4,9-9,9h-79.2c-5,0-9-4-9-9v-53
						C1140.4,681.9,1144.5,677.8,1149.4,677.8z"/>
					<path class="st7" d="M1028.6,677.8h79.2c5,0,9,4,9,9v53c0,5-4,9-9,9h-79.2c-5,0-9-4-9-9v-53
						C1019.6,681.9,1023.6,677.8,1028.6,677.8z"/>
				</g>
			</g>
			<path class="st3" d="M1561.4,819.8v71.5c0,11.2-9.1,20.2-20.2,20.2h-97.9c-11.5,0-20.8-9.3-20.8-20.8V783.1
				c0-9.1,11.2-13.3,17.2-6.6l18.9,21.1c7.3,8.1,19.6,9.3,28.3,2.6l1.8-1.4c6.7-5.1,16-4.9,22.4,0.5l10.4,8.8
				c8,6.8,19.1,8.4,28.7,4.2l0,0C1555.5,810.2,1561.4,814.1,1561.4,819.8z"/>
			<g>
				
					<rect x="1337.3" y="851.4" transform="matrix(-1 -1.224647e-16 1.224647e-16 -1 2690.9846 1776.9514)" class="st3" width="16.4" height="74.2"/>
				
					<rect x="1309.9" y="876.9" transform="matrix(-1 -1.224647e-16 1.224647e-16 -1 2636.1753 1802.4641)" class="st3" width="16.4" height="48.7"/>
				
					<rect x="1282.5" y="813.8" transform="matrix(-1 -1.224647e-16 1.224647e-16 -1 2581.3655 1739.4106)" class="st3" width="16.4" height="111.8"/>
				
					<rect x="1255.1" y="898.7" transform="matrix(-1 -1.224647e-16 1.224647e-16 -1 2526.5557 1824.3323)" class="st3" width="16.4" height="26.9"/>
				
					<rect x="1227.7" y="828.8" transform="matrix(-1 -1.224647e-16 1.224647e-16 -1 2471.7461 1754.3542)" class="st3" width="16.4" height="96.8"/>
				
					<rect x="1200.3" y="845.5" transform="matrix(-1 -1.224647e-16 1.224647e-16 -1 2416.9363 1771.1198)" class="st3" width="16.4" height="80.1"/>
				
					<rect x="1172.9" y="863.8" transform="matrix(-1 -1.224647e-16 1.224647e-16 -1 2362.1267 1789.3434)" class="st3" width="16.4" height="61.8"/>
				
					<rect x="1145.5" y="791.2" transform="matrix(-1 -1.224647e-16 1.224647e-16 -1 2307.3171 1716.8136)" class="st3" width="16.4" height="134.4"/>
				
					<rect x="1118.1" y="805.4" transform="matrix(-1 -1.224647e-16 1.224647e-16 -1 2252.5076 1731.0281)" class="st3" width="16.4" height="120.2"/>
				
					<rect x="1090.6" y="826.9" transform="matrix(-1 -1.224647e-16 1.224647e-16 -1 2197.6978 1752.5319)" class="st3" width="16.4" height="98.7"/>
				
					<rect x="1063.2" y="901.2" transform="matrix(-1 -1.224647e-16 1.224647e-16 -1 2142.8882 1826.8246)" class="st3" width="16.4" height="24.4"/>
				
					<rect x="1035.8" y="853.9" transform="matrix(-1 -1.224647e-16 1.224647e-16 -1 2088.0786 1779.5026)" class="st3" width="16.4" height="71.7"/>
			</g>
			<path class="st12" d="M1310.8,791.2h72.2c3.2,0,5.7,2.6,5.7,5.7c0,3.2-2.6,5.7-5.7,5.7h-72.2c-3.2,0-5.7-2.6-5.7-5.7
				C1305,793.8,1307.6,791.2,1310.8,791.2z"/>
			<path class="st12" d="M1310.8,773.3h72.2c3.2,0,5.7,2.6,5.7,5.7c0,3.2-2.6,5.7-5.7,5.7h-72.2c-3.2,0-5.7-2.6-5.7-5.7
				C1305,775.8,1307.6,773.3,1310.8,773.3z"/>
			<path class="st12" d="M1180.6,791.2h72.2c3.2,0,5.7,2.6,5.7,5.7c0,3.2-2.6,5.7-5.7,5.7h-72.2c-3.2,0-5.7-2.6-5.7-5.7
				C1174.8,793.8,1177.4,791.2,1180.6,791.2z"/>
			<path class="st12" d="M1180.6,773.3h72.2c3.2,0,5.7,2.6,5.7,5.7c0,3.2-2.6,5.7-5.7,5.7h-72.2c-3.2,0-5.7-2.6-5.7-5.7
				C1174.8,775.8,1177.4,773.3,1180.6,773.3z"/>
		</g>
		<g>
			<g>
				<g>
					<path class="st1" d="M770.2,1419.2l-558.4,0v-111.8l558.4,0C758.2,1307.5,758.2,1419.2,770.2,1419.2z"/>
					<g>
						<path class="st3" d="M211.8,1391.3v-51.1c0-18,11-32.6,24.6-32.6h531.4c10.7,0,19.4-8.7,19.4-19.4c0-3.3-2.6-5.9-5.9-5.9
							H200.5c-13.3,0-34.5,20.9-34.5,46.8v71.4c0,24.4,20.5,44.1,33.1,44.1h579.1c4.9,0,8.9-4,8.9-8.9c0-9-7.3-16.3-16.3-16.3h-538
							C221.2,1419.2,211.8,1406.7,211.8,1391.3z"/>
					</g>
				</g>
				<path class="st2" d="M750.8,1332.5H227.3c-1.2,0-2.1-1-2.1-2.1c0-1.2,1-2.1,2.1-2.1h523.6c1.2,0,2.1,1,2.1,2.1
					C753,1331.6,752,1332.5,750.8,1332.5z"/>
				<path class="st2" d="M750.8,1349.1H227.3c-1.2,0-2.1-1-2.1-2.1s1-2.1,2.1-2.1h523.6c1.2,0,2.1,1,2.1,2.1
					S752,1349.1,750.8,1349.1z"/>
				<path class="st2" d="M750.8,1365.7H227.3c-1.2,0-2.1-1-2.1-2.1c0-1.2,1-2.1,2.1-2.1h523.6c1.2,0,2.1,1,2.1,2.1
					C753,1364.8,752,1365.7,750.8,1365.7z"/>
				<path class="st2" d="M750.8,1382.3H227.3c-1.2,0-2.1-1-2.1-2.1c0-1.2,1-2.1,2.1-2.1h523.6c1.2,0,2.1,1,2.1,2.1
					C753,1381.4,752,1382.3,750.8,1382.3z"/>
				<path class="st2" d="M750.8,1398.9H227.3c-1.2,0-2.1-1-2.1-2.1c0-1.2,1-2.1,2.1-2.1h523.6c1.2,0,2.1,1,2.1,2.1
					C753,1397.9,752,1398.9,750.8,1398.9z"/>
			</g>
		</g>
		<g class="st4">
			<g>
				<path class="st1" d="M2230.2,203.5H1841c-8.3,0-15.1-6.7-15.1-15.1l0,0c0-8.3,6.7-15.1,15.1-15.1h389.3
					c8.3,0,15.1,6.7,15.1,15.1l0,0C2245.3,196.8,2238.6,203.5,2230.2,203.5z"/>
				<path class="st1" d="M2277,262.5h-389.3c-8.3,0-15.1-6.7-15.1-15.1l0,0c0-8.3,6.7-15.1,15.1-15.1H2277c8.3,0,15.1,6.7,15.1,15.1
					l0,0C2292.1,255.8,2285.3,262.5,2277,262.5z"/>
				<path class="st1" d="M2166.3,380.5h-278.6c-8.3,0-15.1-6.7-15.1-15.1l0,0c0-8.3,6.7-15.1,15.1-15.1h278.6
					c8.3,0,15.1,6.7,15.1,15.1l0,0C2181.4,373.8,2174.6,380.5,2166.3,380.5z"/>
				<path class="st1" d="M2320.7,321.5h-389.3c-8.3,0-15.1-6.7-15.1-15.1l0,0c0-8.3,6.7-15.1,15.1-15.1h389.3
					c8.3,0,15.1,6.7,15.1,15.1l0,0C2335.7,314.8,2329,321.5,2320.7,321.5z"/>
			</g>
		</g>
		<g>
			<g>
				<path class="st2" d="M443.3,911.4l-6,2.3c-1,0.4-2.1-0.1-2.5-1.1c-0.4-1,0.1-2.1,1.1-2.5l0,0l6-2.3c1-0.4,2.1,0.1,2.5,1.1
					C444.8,909.9,444.3,911,443.3,911.4z"/>
				<path class="st2" d="M420.1,921.8l-5.6,3.1c-1,0.5-2.2,0.2-2.7-0.8c-0.5-1-0.2-2.2,0.8-2.7l0,0l5.6-3.1c1-0.5,2.2-0.2,2.7,0.8
					C421.4,920.1,421.1,921.3,420.1,921.8z"/>
				<path class="st2" d="M398.5,935.2l-5.2,3.8c-0.9,0.7-2.2,0.5-2.8-0.4c-0.7-0.9-0.5-2.2,0.4-2.8l0,0l5.2-3.8
					c0.9-0.7,2.1-0.5,2.8,0.4C399.6,933.3,399.4,934.5,398.5,935.2z"/>
				<path class="st2" d="M378.7,951.1l-4.7,4.4c-0.8,0.8-2.1,0.7-2.9-0.1c-0.8-0.8-0.7-2.1,0.1-2.9l0,0l4.7-4.4
					c0.8-0.8,2.1-0.7,2.9,0.1C379.6,949,379.5,950.3,378.7,951.1z"/>
				<path class="st2" d="M360.8,969.1l-4.2,4.9c-0.7,0.9-2,1-2.9,0.2c-0.9-0.7-1-2-0.2-2.9l0,0l4.2-4.8c0.7-0.9,2-0.9,2.9-0.2
					C361.5,967,361.6,968.3,360.8,969.1z"/>
				<path class="st2" d="M344.9,989l-3.7,5.3c-0.7,0.9-2,1.2-2.9,0.5c-0.9-0.7-1.2-2-0.5-2.9l0,0l3.7-5.2c0.7-0.9,2-1.2,2.9-0.5
					C345.4,986.8,345.6,988.1,344.9,989z"/>
				<path class="st2" d="M331.1,1010.4l-3.2,5.6c-0.6,1-1.9,1.4-2.9,0.8c-1-0.6-1.4-1.9-0.8-2.9l0,0l3.2-5.6c0.6-1,1.9-1.4,2.9-0.8
					C331.3,1008.1,331.7,1009.4,331.1,1010.4z"/>
				<path class="st2" d="M319.3,1032.9l-2.6,5.9c-0.5,1.1-1.7,1.6-2.8,1.1c-1.1-0.5-1.6-1.7-1.1-2.8l0,0l2.6-5.8
					c0.5-1.1,1.7-1.5,2.8-1.1S319.8,1031.9,319.3,1032.9z"/>
				<path class="st2" d="M309.7,1056.5l-2.1,6.1c-0.4,1.1-1.6,1.7-2.7,1.3s-1.7-1.6-1.3-2.7l0,0l2.1-6.1c0.4-1.1,1.6-1.7,2.7-1.3
					C309.5,1054.2,310.1,1055.4,309.7,1056.5z"/>
				<path class="st2" d="M302.3,1080.9l-1.5,6.2c-0.3,1.2-1.5,1.9-2.6,1.6c-1.2-0.3-1.9-1.5-1.6-2.6l0,0l1.5-6.2
					c0.3-1.2,1.5-1.9,2.6-1.6C301.8,1078.5,302.6,1079.7,302.3,1080.9z"/>
				<path class="st2" d="M297.1,1105.8l-0.9,6.3c-0.2,1.2-1.3,2-2.5,1.9c-1.2-0.2-2-1.3-1.9-2.5l0,0l1-6.3c0.2-1.2,1.3-2,2.5-1.8
					C296.4,1103.4,297.3,1104.6,297.1,1105.8z"/>
				<path class="st2" d="M294.2,1131l-0.3,6.4c-0.1,1.2-1.1,2.2-2.3,2.1c-1.2-0.1-2.2-1.1-2.1-2.3l0,0l0.3-6.4
					c0.1-1.2,1.1-2.2,2.3-2.1C293.4,1128.8,294.3,1129.8,294.2,1131z"/>
				<path class="st2" d="M293.8,1156.5l0.3,6.4c0.1,1.2-0.9,2.3-2.2,2.4c-1.2,0.1-2.3-0.9-2.4-2.2l0,0l-0.3-6.4
					c-0.1-1.2,0.9-2.3,2.2-2.3S293.8,1155.2,293.8,1156.5L293.8,1156.5z"/>
				<path class="st2" d="M295.9,1181.8l0.9,6.4c0.2,1.2-0.7,2.4-2,2.6s-2.4-0.7-2.6-2l0,0l-0.9-6.4c-0.2-1.2,0.7-2.4,1.9-2.6
					C294.5,1179.7,295.7,1180.6,295.9,1181.8z"/>
				<path class="st2" d="M300.2,1206.9l1.4,6.3c0.3,1.2-0.5,2.5-1.7,2.8c-1.2,0.3-2.5-0.5-2.8-1.7l0,0l-1.4-6.3
					c-0.3-1.2,0.5-2.5,1.7-2.8C298.7,1204.9,299.9,1205.7,300.2,1206.9z"/>
				<path class="st2" d="M306.7,1231.5l2,6.1c0.4,1.2-0.3,2.5-1.5,2.9c-1.2,0.4-2.5-0.3-2.9-1.5l0,0l-2-6.1
					c-0.4-1.2,0.3-2.5,1.5-2.9C305,1229.6,306.3,1230.3,306.7,1231.5z"/>
				<path class="st2" d="M315.3,1255.5l2.5,5.9c0.5,1.2-0.1,2.6-1.3,3.1c-1.2,0.5-2.6-0.1-3.1-1.3l0,0l-2.5-5.9
					c-0.5-1.2,0.1-2.6,1.3-3.1C313.4,1253.7,314.8,1254.3,315.3,1255.5z"/>
				<path class="st2" d="M325.8,1278.7l3,5.7c0.6,1.2,0.2,2.6-1,3.2s-2.6,0.2-3.2-1l0,0l-3-5.7c-0.6-1.2-0.1-2.6,1-3.2
					C323.8,1277,325.2,1277.5,325.8,1278.7z"/>
				<path class="st2" d="M338.3,1300.9l3.4,5.4c0.7,1.1,0.4,2.6-0.8,3.3c-1.1,0.7-2.6,0.4-3.3-0.8l0,0l-3.4-5.4
					c-0.7-1.1-0.4-2.6,0.8-3.3C336.1,1299.4,337.6,1299.7,338.3,1300.9z"/>
				<path class="st2" d="M352.5,1322l3.9,5.1c0.8,1.1,0.6,2.6-0.5,3.4c-1.1,0.8-2.6,0.6-3.4-0.5l0,0l-3.8-5.1
					c-0.8-1.1-0.6-2.6,0.5-3.4C350.2,1320.7,351.7,1320.9,352.5,1322z"/>
				<path class="st2" d="M368.4,1341.9l4.3,4.8c0.9,1,0.8,2.6-0.2,3.5c-1,0.9-2.6,0.8-3.5-0.2l0,0l-4.3-4.8c-0.9-1-0.8-2.6,0.2-3.5
					C365.9,1340.7,367.5,1340.8,368.4,1341.9z"/>
				<path class="st2" d="M385.9,1360.3l4.7,4.4c1,0.9,1,2.5,0.1,3.5c-0.9,1-2.5,1-3.5,0.1l0,0l-4.6-4.4c-1-0.9-1-2.5-0.1-3.5
					C383.3,1359.4,384.9,1359.4,385.9,1360.3z"/>
				<path class="st2" d="M404.9,1377.2l5,4c1.1,0.9,1.3,2.4,0.4,3.5c-0.9,1.1-2.4,1.3-3.5,0.4l0,0l-5-4c-1.1-0.9-1.3-2.4-0.4-3.5
					C402.3,1376.5,403.8,1376.4,404.9,1377.2z"/>
				<path class="st2" d="M425.3,1392.4l5.4,3.5c1.2,0.8,1.5,2.3,0.7,3.5c-0.8,1.2-2.3,1.5-3.5,0.7l0,0l-5.4-3.5
					c-1.2-0.8-1.5-2.3-0.7-3.5C422.6,1391.9,424.2,1391.6,425.3,1392.4z"/>
				<path class="st2" d="M447.1,1405.5l5.6,3l0,0c1.2,0.7,1.7,2.2,1.1,3.5c-0.7,1.2-2.2,1.7-3.5,1.1l0,0l-5.7-3
					c-1.2-0.7-1.7-2.2-1.1-3.4C444.3,1405.3,445.8,1404.9,447.1,1405.5L447.1,1405.5z"/>
				<path class="st2" d="M469.9,1416.6l5.9,2.5c1.3,0.5,1.9,2.1,1.4,3.4s-2.1,1.9-3.4,1.4l0,0l-5.9-2.5c-1.3-0.5-1.9-2.1-1.4-3.4
					C467.1,1416.7,468.6,1416.1,469.9,1416.6z"/>
				<path class="st2" d="M493.7,1425.6l6.1,1.9c1.4,0.4,2.1,1.9,1.7,3.3c-0.4,1.4-1.9,2.1-3.3,1.7l0,0l-6.1-1.9
					c-1.4-0.4-2.1-1.9-1.7-3.3C490.9,1425.9,492.3,1425.2,493.7,1425.6z"/>
				<path class="st2" d="M518.2,1432.4l6.3,1.4c1.4,0.3,2.3,1.7,2,3.1c-0.3,1.4-1.7,2.3-3.1,2l0,0l-6.3-1.4c-1.4-0.3-2.3-1.7-2-3.1
					C515.4,1433,516.8,1432.1,518.2,1432.4z"/>
				<path class="st2" d="M543.2,1437.1l6.4,0.8c1.5,0.2,2.5,1.5,2.3,3c-0.2,1.5-1.5,2.5-3,2.3l0,0l-6.4-0.9c-1.5-0.2-2.5-1.5-2.3-3
					C540.4,1437.9,541.7,1436.9,543.2,1437.1z"/>
				<path class="st2" d="M568.5,1439.7l6.4,0.3c1.5,0.1,2.6,1.3,2.5,2.8c-0.1,1.5-1.3,2.6-2.8,2.5h0l-6.4-0.3
					c-1.5-0.1-2.6-1.3-2.5-2.8C565.8,1440.7,567,1439.6,568.5,1439.7z"/>
				<path class="st2" d="M593.9,1440.2l6.4-0.2c1.5,0,2.7,1.1,2.8,2.6c0,1.5-1.1,2.7-2.6,2.8h0l-6.4,0.2c-1.5,0-2.7-1.1-2.8-2.6
					C591.3,1441.5,592.4,1440.2,593.9,1440.2z"/>
				<path class="st2" d="M619.3,1438.6l6.4-0.7c1.5-0.2,2.8,0.9,3,2.4c0.2,1.5-0.9,2.8-2.4,3h0l-6.4,0.7c-1.5,0.2-2.8-0.9-3-2.4
					C616.8,1440.1,617.8,1438.8,619.3,1438.6z"/>
				<path class="st2" d="M644.5,1435.1l6.3-1.2c1.5-0.3,2.9,0.7,3.2,2.2c0.3,1.5-0.7,2.9-2.2,3.2l0,0l-6.3,1.2
					c-1.5,0.3-2.9-0.7-3.2-2.2C642.1,1436.8,643,1435.4,644.5,1435.1z"/>
				<path class="st2" d="M669.4,1429.7l6.2-1.7c1.5-0.4,3,0.5,3.3,1.9c0.4,1.5-0.5,3-1.9,3.3h0l-6.2,1.7c-1.5,0.4-2.9-0.5-3.3-1.9
					C667.1,1431.6,667.9,1430.1,669.4,1429.7z"/>
				<path class="st2" d="M693.8,1422.4l6.1-2.1c1.4-0.5,3,0.2,3.5,1.7c0.5,1.4-0.2,3-1.7,3.5l0,0l-6.1,2.1c-1.4,0.5-3-0.2-3.5-1.7
					C691.6,1424.4,692.3,1422.9,693.8,1422.4z"/>
				<path class="st2" d="M717.5,1413.3l5.9-2.6c1.4-0.6,3,0,3.6,1.4s0,3-1.4,3.6l0,0l-5.9,2.6c-1.4,0.6-3,0-3.6-1.4
					C715.5,1415.5,716.1,1413.9,717.5,1413.3z"/>
				<path class="st2" d="M740.5,1402.4l5.7-3c1.3-0.7,3-0.2,3.7,1.2c0.7,1.3,0.2,3-1.2,3.7l0,0l-5.7,3c-1.3,0.7-3,0.2-3.7-1.2
					C738.7,1404.7,739.2,1403.1,740.5,1402.4z"/>
				<path class="st2" d="M762.8,1390l5.5-3.3c1.3-0.8,3-0.4,3.8,0.9c0.8,1.3,0.4,3-0.9,3.8l0,0l-5.5,3.3c-1.3,0.8-3,0.4-3.8-0.9
					C761.1,1392.5,761.5,1390.8,762.8,1390z"/>
				<path class="st2" d="M784.3,1376.2l5.3-3.7c1.2-0.9,3-0.6,3.8,0.7c0.9,1.3,0.6,3-0.7,3.8l0,0l-5.3,3.7c-1.2,0.9-3,0.6-3.8-0.7
					C782.7,1378.8,783,1377.1,784.3,1376.2z"/>
				<path class="st2" d="M804.9,1361.2l5.1-3.9c1.2-0.9,2.9-0.7,3.9,0.5c0.9,1.2,0.7,2.9-0.5,3.9l0,0l-5.1,3.9
					c-1.2,0.9-2.9,0.7-3.9-0.5C803.5,1363.9,803.7,1362.2,804.9,1361.2z"/>
				<path class="st2" d="M824.8,1345.2l4.9-4.2c1.2-1,2.9-0.9,3.9,0.3c1,1.2,0.9,2.9-0.3,3.9l0,0l-4.9,4.2c-1.2,1-2.9,0.9-3.9-0.3
					C823.5,1348,823.6,1346.2,824.8,1345.2z"/>
				<path class="st2" d="M843.9,1328.3l4.7-4.4c1.1-1,2.9-1,3.9,0.1c1,1.1,1,2.9-0.1,3.9l0,0l-4.7,4.4c-1.1,1-2.9,1-3.9-0.1
					C842.8,1331.1,842.8,1329.4,843.9,1328.3z"/>
				<path class="st2" d="M862.4,1310.7l4.5-4.5c1.1-1.1,2.8-1.1,3.9,0c1.1,1.1,1.1,2.8,0,3.9l0,0l-4.5,4.5c-1.1,1.1-2.8,1.1-3.9,0
					C861.3,1313.5,861.3,1311.8,862.4,1310.7z"/>
				<path class="st2" d="M880.3,1292.4l4.4-4.7c1.1-1.1,2.8-1.2,3.9-0.1c1.1,1.1,1.2,2.8,0.1,3.9l0,0l-4.4,4.7
					c-1.1,1.1-2.8,1.2-3.9,0.1C879.3,1295.3,879.3,1293.5,880.3,1292.4z"/>
				<path class="st2" d="M897.7,1273.6l4.3-4.8c1-1.1,2.8-1.2,3.9-0.2c1.1,1,1.2,2.8,0.2,3.9l0,0l-4.3,4.8c-1,1.1-2.8,1.2-3.9,0.2
					C896.8,1276.5,896.7,1274.8,897.7,1273.6z"/>
				<path class="st2" d="M914.6,1254.4l4.2-4.9c1-1.2,2.8-1.3,3.9-0.3c1.2,1,1.3,2.8,0.3,3.9l0,0l-4.2,4.9c-1,1.2-2.8,1.3-3.9,0.3
					C913.8,1257.4,913.6,1255.6,914.6,1254.4z"/>
				<path class="st2" d="M931.3,1234.9l4.1-4.9c1-1.2,2.8-1.3,3.9-0.4c1.2,1,1.3,2.8,0.4,3.9l0,0l-4.1,4.9c-1,1.2-2.8,1.3-3.9,0.3
					C930.4,1237.9,930.3,1236.1,931.3,1234.9z"/>
				<path class="st2" d="M947.6,1215.2l4.1-5c1-1.2,2.7-1.4,3.9-0.4c1.2,1,1.4,2.7,0.4,3.9l0,0l-4.1,5c-1,1.2-2.7,1.4-3.9,0.4
					C946.8,1218.2,946.6,1216.4,947.6,1215.2z"/>
				<path class="st2" d="M963.8,1195.3l4-5c1-1.2,2.7-1.4,4-0.4c1.2,1,1.4,2.7,0.4,4l0,0l-4,5c-1,1.2-2.7,1.4-4,0.4
					C963,1198.3,962.8,1196.5,963.8,1195.3z"/>
				<path class="st2" d="M979.9,1175.3l4-5c1-1.2,2.7-1.4,4-0.4c1.2,1,1.4,2.7,0.4,4l0,0l-4,5c-1,1.2-2.7,1.4-4,0.4
					S978.9,1176.5,979.9,1175.3z"/>
				<path class="st2" d="M996,1155.3l4-5c1-1.2,2.8-1.4,4-0.4c1.2,1,1.4,2.8,0.4,4l0,0l-4,5c-1,1.2-2.8,1.4-4,0.4
					C995.2,1158.3,995,1156.6,996,1155.3z"/>
				<path class="st2" d="M1012.2,1135.4l4.1-5c1-1.2,2.8-1.4,4-0.4c1.2,1,1.4,2.8,0.4,4l0,0l-4.1,5c-1,1.2-2.8,1.4-4,0.4
					C1011.4,1138.4,1011.2,1136.6,1012.2,1135.4z"/>
				<path class="st2" d="M1028.5,1115.6l4.1-4.9c1-1.2,2.8-1.4,4-0.4c1.2,1,1.4,2.8,0.4,4l0,0l-4.1,4.9c-1,1.2-2.8,1.4-4,0.4
					C1027.7,1118.6,1027.5,1116.8,1028.5,1115.6z"/>
				<path class="st2" d="M1045.2,1096l4.2-4.9c1-1.2,2.8-1.3,4-0.3c1.2,1,1.3,2.8,0.3,4l0,0l-4.2,4.9c-1,1.2-2.8,1.3-4,0.3
					C1044.3,1099,1044.1,1097.2,1045.2,1096z"/>
				<path class="st2" d="M1062.1,1076.6l4.3-4.8c1.1-1.2,2.8-1.3,4-0.2c1.2,1.1,1.3,2.8,0.2,4l0,0l-4.3,4.8c-1.1,1.2-2.8,1.3-4,0.2
					C1061.1,1079.6,1061,1077.8,1062.1,1076.6z"/>
				<path class="st2" d="M1079.5,1057.7l4.4-4.7c1.1-1.1,2.9-1.2,4-0.1c1.1,1.1,1.2,2.9,0.1,4l0,0l-4.4,4.7c-1.1,1.1-2.9,1.2-4,0.1
					C1078.4,1060.6,1078.4,1058.8,1079.5,1057.7z"/>
				<path class="st2" d="M1097.3,1039.1l4.5-4.5c1.1-1.1,2.9-1.1,4,0s1.1,2.9,0,4l0,0l-4.5,4.5c-1.1,1.1-2.9,1.1-4,0
					C1096.2,1042,1096.2,1040.2,1097.3,1039.1z"/>
				<path class="st2" d="M1115.8,1021.1l4.7-4.4c1.2-1.1,3-1,4,0.1c1.1,1.2,1,3-0.1,4l0,0l-4.7,4.4c-1.2,1.1-3,1-4-0.1
					C1114.5,1024,1114.6,1022.2,1115.8,1021.1z"/>
				<path class="st2" d="M1134.9,1003.8l4.9-4.2c1.2-1,3-0.9,4,0.3c1,1.2,0.9,3-0.3,4l0,0l-4.9,4.2c-1.2,1-3,0.9-4-0.3
					S1133.7,1004.9,1134.9,1003.8z"/>
				<path class="st2" d="M1154.7,987.3l5-4c1.2-1,3.1-0.8,4,0.5c1,1.2,0.8,3.1-0.5,4l0,0l-5,4c-1.2,1-3.1,0.8-4-0.5
					C1153.2,990.1,1153.4,988.3,1154.7,987.3z"/>
				<path class="st2" d="M1175.3,971.8l5.2-3.7c1.3-0.9,3.1-0.6,4,0.7c0.9,1.3,0.6,3.1-0.7,4l0,0l-5.2,3.7c-1.3,0.9-3.1,0.6-4-0.7
					C1173.7,974.5,1174,972.7,1175.3,971.8z"/>
				<path class="st2" d="M1196.7,957.3l5.4-3.4c1.3-0.8,3.1-0.4,4,0.9c0.8,1.3,0.4,3.1-0.9,4l0,0l-5.4,3.4c-1.3,0.8-3.1,0.4-4-0.9
					C1194.9,960,1195.3,958.2,1196.7,957.3z"/>
				<path class="st2" d="M1218.8,944.1l5.6-3.1c1.4-0.8,3.2-0.3,3.9,1.1c0.8,1.4,0.3,3.2-1.1,3.9l0,0l-5.6,3.1
					c-1.4,0.8-3.2,0.3-3.9-1.1C1216.9,946.6,1217.4,944.8,1218.8,944.1z"/>
				<path class="st2" d="M1241.6,932l5.8-2.8c1.4-0.7,3.2-0.1,3.9,1.3s0.1,3.2-1.3,3.9l0,0l-5.8,2.8c-1.4,0.7-3.2,0.1-3.9-1.3
					C1239.6,934.4,1240.2,932.7,1241.6,932z"/>
				<path class="st2" d="M1265,921.1l5.9-2.5c1.5-0.6,3.2,0.1,3.8,1.5c0.6,1.5-0.1,3.2-1.5,3.8l0,0l-5.9,2.5
					c-1.5,0.6-3.2-0.1-3.8-1.5C1262.9,923.4,1263.5,921.7,1265,921.1z"/>
				<path class="st2" d="M1289,911.5l6-2.2c1.5-0.6,3.2,0.2,3.7,1.7c0.6,1.5-0.2,3.2-1.7,3.7l0,0l-6,2.2c-1.5,0.6-3.2-0.2-3.7-1.7
					C1286.7,913.7,1287.4,912,1289,911.5z"/>
				<path class="st2" d="M1313.4,903.1l6.1-1.9c1.5-0.5,3.2,0.4,3.6,1.9c0.5,1.5-0.4,3.2-1.9,3.6h0l-6.1,1.9
					c-1.5,0.5-3.2-0.4-3.6-1.9C1311,905.2,1311.8,903.5,1313.4,903.1z"/>
				<path class="st2" d="M1338.2,895.9l6.2-1.6c1.6-0.4,3.1,0.6,3.5,2.1c0.4,1.6-0.6,3.1-2.1,3.5l0,0l-6.2,1.6
					c-1.6,0.4-3.1-0.6-3.5-2.1C1335.6,897.9,1336.6,896.3,1338.2,895.9z"/>
				<path class="st2" d="M1363.3,890.1l6.3-1.3c1.6-0.3,3.1,0.7,3.4,2.3c0.3,1.6-0.7,3.1-2.3,3.4h0l-6.3,1.3
					c-1.6,0.3-3.1-0.7-3.4-2.3C1360.7,891.9,1361.7,890.4,1363.3,890.1z"/>
				<path class="st2" d="M1388.7,885.5l6.3-0.9c1.6-0.2,3.1,0.9,3.3,2.5c0.2,1.6-0.9,3.1-2.5,3.3l0,0l-6.3,0.9
					c-1.6,0.2-3.1-0.9-3.3-2.5C1386,887.2,1387.1,885.7,1388.7,885.5z"/>
				<path class="st2" d="M1414.3,882.2l6.4-0.6c1.6-0.2,3,1,3.2,2.6c0.2,1.6-1,3-2.6,3.2h0l-6.4,0.6c-1.6,0.2-3-1-3.2-2.6
					C1411.5,883.8,1412.7,882.4,1414.3,882.2z"/>
				<path class="st2" d="M1440,880.2l6.4-0.3c1.6-0.1,3,1.2,3.1,2.8c0.1,1.6-1.2,3-2.8,3.1h0l-6.4,0.3c-1.6,0.1-3-1.2-3.1-2.8
					C1437.1,881.7,1438.4,880.3,1440,880.2z"/>
				<path class="st2" d="M1465.8,879.5l6.4,0c1.6,0,2.9,1.3,2.9,3c0,1.6-1.3,2.9-3,2.9h0l-6.4,0c-1.6,0-2.9-1.3-2.9-3
					C1462.9,880.8,1464.2,879.5,1465.8,879.5z"/>
				<path class="st2" d="M1491.6,880.1l6.4,0.4c1.6,0.1,2.9,1.5,2.8,3.1c-0.1,1.6-1.5,2.9-3.1,2.8h0l-6.4-0.4
					c-1.6-0.1-2.9-1.5-2.8-3.1C1488.6,881.3,1490,880,1491.6,880.1z"/>
				<path class="st2" d="M1517.3,882l6.4,0.7c1.6,0.2,2.8,1.6,2.6,3.3c-0.2,1.6-1.6,2.8-3.3,2.6h0l-6.4-0.7
					c-1.6-0.2-2.8-1.6-2.6-3.3C1514.3,883,1515.7,881.9,1517.3,882z"/>
				<path class="st2" d="M1542.9,885.2l6.3,1c1.6,0.3,2.7,1.8,2.5,3.4c-0.3,1.6-1.8,2.7-3.4,2.5h0l-6.3-1c-1.6-0.3-2.7-1.8-2.5-3.4
					C1539.8,886.1,1541.3,885,1542.9,885.2z"/>
				<path class="st2" d="M1568.4,889.8l6.3,1.3c1.6,0.3,2.6,1.9,2.3,3.5c-0.3,1.6-1.9,2.6-3.5,2.3h0l-6.3-1.3
					c-1.6-0.3-2.6-1.9-2.3-3.5C1565.2,890.4,1566.7,889.4,1568.4,889.8z"/>
				<path class="st2" d="M1593.5,895.6l6.2,1.6c1.6,0.4,2.5,2.1,2.1,3.6c-0.4,1.6-2.1,2.5-3.6,2.1h0l-6.2-1.6
					c-1.6-0.4-2.5-2.1-2.1-3.6C1590.3,896.1,1591.9,895.1,1593.5,895.6z"/>
				<path class="st2" d="M1618.3,902.7l6.1,2c1.6,0.5,2.4,2.2,1.9,3.8c-0.5,1.6-2.2,2.4-3.8,1.9l0,0l-6.1-2
					c-1.6-0.5-2.4-2.2-1.9-3.7C1615.1,903,1616.7,902.2,1618.3,902.7z"/>
				<path class="st2" d="M1642.7,911.1l6,2.3c1.5,0.6,2.3,2.3,1.7,3.9c-0.6,1.5-2.3,2.3-3.9,1.7l0,0l-6-2.3
					c-1.5-0.6-2.3-2.3-1.7-3.9C1639.5,911.3,1641.2,910.5,1642.7,911.1z"/>
				<path class="st2" d="M1666.7,920.7l5.9,2.6c1.5,0.7,2.2,2.4,1.5,3.9c-0.7,1.5-2.4,2.2-3.9,1.5l0,0l-5.9-2.6
					c-1.5-0.7-2.2-2.4-1.5-3.9C1663.4,920.7,1665.1,920.1,1666.7,920.7z"/>
				<path class="st2" d="M1690,931.7l5.7,2.9c1.5,0.7,2.1,2.6,1.3,4c-0.8,1.5-2.6,2.1-4,1.3l0,0l-5.7-2.9c-1.5-0.8-2.1-2.6-1.3-4
					S1688.6,930.9,1690,931.7z"/>
				<path class="st2" d="M1712.8,943.8l5.6,3.2c1.4,0.8,1.9,2.7,1.1,4.1c-0.8,1.4-2.7,1.9-4.1,1.1l0,0l-5.6-3.2
					c-1.4-0.8-1.9-2.7-1.1-4.1C1709.6,943.5,1711.4,943,1712.8,943.8z"/>
				<path class="st2" d="M1734.9,957.2l5.4,3.5c1.4,0.9,1.8,2.8,0.9,4.2c-0.9,1.4-2.8,1.8-4.2,0.9l0,0l-5.4-3.5
					c-1.4-0.9-1.8-2.8-0.9-4.2C1731.7,956.7,1733.5,956.3,1734.9,957.2z"/>
				<path class="st2" d="M1756.2,971.7l5.2,3.8c1.4,1,1.7,2.9,0.7,4.2c-1,1.4-2.9,1.7-4.2,0.7l0,0l-5.2-3.8c-1.3-1-1.7-2.9-0.7-4.2
					C1753,971,1754.9,970.7,1756.2,971.7z"/>
				<path class="st2" d="M1776.9,987l5.1,3.9c1.3,1,1.6,2.9,0.6,4.2c-1,1.3-2.9,1.6-4.2,0.6l0,0l-5.1-3.9c-1.3-1-1.6-2.9-0.6-4.2
					C1773.7,986.2,1775.6,986,1776.9,987z"/>
				<path class="st2" d="M1797.3,1002.7l5,4c1.3,1,1.5,2.9,0.5,4.2c-1,1.3-2.9,1.5-4.2,0.5l0,0l-5-4c-1.3-1-1.5-2.9-0.5-4.2
					C1794.1,1001.9,1796,1001.7,1797.3,1002.7z"/>
				<path class="st2" d="M1817.4,1018.6l5.1,4c1.3,1,1.6,2.9,0.5,4.3c-1,1.3-2.9,1.6-4.3,0.5l0,0l-5.1-4c-1.3-1-1.6-2.9-0.5-4.3
					C1814.2,1017.8,1816.1,1017.5,1817.4,1018.6z"/>
				<path class="st2" d="M1837.7,1034.2l5.1,3.9c1.3,1,1.6,2.9,0.6,4.3s-2.9,1.6-4.3,0.6l0,0l-5.1-3.9c-1.3-1-1.6-2.9-0.6-4.3
					S1836.4,1033.2,1837.7,1034.2z"/>
				<path class="st2" d="M1858.2,1049.4l5.2,3.7c1.4,1,1.7,2.9,0.7,4.2c-1,1.4-2.9,1.7-4.2,0.7l0,0l-5.2-3.7c-1.4-1-1.7-2.9-0.7-4.2
					C1855,1048.8,1856.9,1048.5,1858.2,1049.4z"/>
				<path class="st2" d="M1879.3,1063.8l5.4,3.4c1.4,0.9,1.8,2.8,0.9,4.2c-0.9,1.4-2.8,1.8-4.2,0.9l0,0l-5.4-3.4
					c-1.4-0.9-1.8-2.8-0.9-4.2C1876,1063.3,1877.9,1062.9,1879.3,1063.8z"/>
				<path class="st2" d="M1901.1,1077l5.6,3.1c1.5,0.8,2,2.7,1.2,4.1c-0.8,1.5-2.7,2-4.1,1.2l0,0l-5.6-3.1c-1.5-0.8-2-2.7-1.2-4.1
					C1897.8,1076.7,1899.6,1076.2,1901.1,1077z"/>
				<path class="st2" d="M1923.8,1088.4l5.9,2.6c1.5,0.7,2.3,2.5,1.6,4c-0.7,1.6-2.5,2.3-4,1.6l0,0l-5.9-2.6c-1.5-0.7-2.3-2.5-1.6-4
					C1920.4,1088.5,1922.2,1087.7,1923.8,1088.4z"/>
				<path class="st2" d="M1947.4,1097.6l6.1,1.9c1.6,0.5,2.5,2.2,2,3.8c-0.5,1.6-2.2,2.5-3.8,2l0,0l-6.1-1.9c-1.6-0.5-2.5-2.2-2-3.8
					C1944,1098,1945.7,1097.1,1947.4,1097.6z"/>
				<path class="st2" d="M1971.8,1103.8l6.3,1.1c1.7,0.3,2.8,1.9,2.5,3.5c-0.3,1.7-1.9,2.8-3.5,2.5l0,0l-6.3-1.1
					c-1.7-0.3-2.8-1.9-2.5-3.5C1968.6,1104.7,1970.1,1103.5,1971.8,1103.8z"/>
				<path class="st2" d="M1996.8,1106.7l6.4,0.1c1.7,0,3.1,1.4,3,3.1c0,1.7-1.4,3.1-3.1,3h0l-6.4-0.1c-1.7,0-3-1.4-3-3.1
					C1993.7,1108,1995.1,1106.6,1996.8,1106.7z"/>
				<path class="st2" d="M2022,1105.6l6.4-0.9c1.7-0.2,3.2,0.9,3.5,2.6c0.2,1.7-0.9,3.2-2.6,3.5h0l-6.4,0.9
					c-1.7,0.2-3.2-0.9-3.5-2.6S2020.3,1105.9,2022,1105.6z"/>
				<path class="st2" d="M2046.7,1100.7l6.2-1.8c1.6-0.5,3.4,0.5,3.8,2.1c0.5,1.6-0.5,3.4-2.1,3.8h0l-6.2,1.8
					c-1.6,0.5-3.4-0.5-3.8-2.1C2044.1,1102.9,2045,1101.2,2046.7,1100.7z"/>
				<path class="st2" d="M2070.4,1092.4l5.8-2.6c1.6-0.7,3.4,0,4.1,1.5c0.7,1.6,0,3.4-1.5,4.1l0,0l-5.8,2.6c-1.6,0.7-3.4,0-4.1-1.5
					C2068.2,1094.9,2068.9,1093.1,2070.4,1092.4z"/>
				<path class="st2" d="M2092.9,1080.9l5.5-3.4c1.5-0.9,3.4-0.4,4.3,1c0.9,1.5,0.4,3.4-1,4.3l0,0l-5.5,3.3c-1.5,0.9-3.4,0.4-4.3-1
					C2091,1083.7,2091.5,1081.8,2092.9,1080.9z"/>
				<path class="st2" d="M2113.9,1066.7l5-4c1.3-1.1,3.3-0.8,4.4,0.5c1.1,1.3,0.8,3.3-0.5,4.4l0,0l-5,4c-1.3,1.1-3.3,0.8-4.4-0.5
					C2112.3,1069.7,2112.5,1067.8,2113.9,1066.7z"/>
				<path class="st2" d="M2133.1,1050.3l4.6-4.5c1.2-1.2,3.2-1.2,4.4,0.1s1.2,3.2-0.1,4.4l0,0l-4.6,4.5c-1.2,1.2-3.2,1.2-4.4-0.1
					C2131.9,1053.5,2131.9,1051.5,2133.1,1050.3z"/>
				<path class="st2" d="M2150.6,1031.9l4.1-4.9c1.1-1.3,3.1-1.5,4.4-0.4c1.3,1.1,1.5,3.1,0.4,4.4l0,0l-4.1,4.9
					c-1.1,1.3-3.1,1.5-4.4,0.4C2149.7,1035.2,2149.5,1033.2,2150.6,1031.9z"/>
				<path class="st2" d="M2166.1,1011.8l3.6-5.3c1-1.4,2.9-1.8,4.3-0.8c1.4,1,1.8,2.9,0.8,4.3l0,0l-3.6,5.3c-1,1.4-2.9,1.8-4.3,0.8
					C2165.5,1015.2,2165.1,1013.3,2166.1,1011.8z"/>
				<path class="st2" d="M2179.5,990.4l3.1-5.6c0.8-1.5,2.7-2.1,4.2-1.3s2.1,2.7,1.3,4.2l0,0l-3.1,5.6c-0.8,1.5-2.7,2.1-4.2,1.3
					C2179.2,993.8,2178.7,991.9,2179.5,990.4z"/>
				<path class="st2" d="M2190.8,967.7l2.5-5.9c0.7-1.6,2.5-2.3,4.1-1.7c1.6,0.7,2.3,2.5,1.7,4.1l0,0l-2.5,5.9
					c-0.7,1.6-2.5,2.3-4.1,1.7C2190.8,971.1,2190.1,969.3,2190.8,967.7z"/>
				<path class="st2" d="M2199.7,944l1.9-6.1c0.5-1.7,2.3-2.6,3.9-2.1c1.7,0.5,2.6,2.3,2.1,3.9l0,0l-1.9,6.1
					c-0.5,1.7-2.3,2.6-3.9,2.1C2200.1,947.4,2199.2,945.6,2199.7,944z"/>
				<path class="st2" d="M2206.3,919.5l1.3-6.3c0.4-1.7,2-2.8,3.7-2.4c1.7,0.4,2.8,2,2.4,3.7l0,0l-1.3,6.3c-0.4,1.7-2,2.8-3.7,2.4
					C2207,922.8,2205.9,921.2,2206.3,919.5z"/>
				<path class="st2" d="M2210.6,894.5l0.8-6.4c0.2-1.7,1.8-3,3.5-2.7c1.7,0.2,3,1.8,2.8,3.5l0,0l-0.8,6.4c-0.2,1.7-1.8,3-3.5,2.7
					C2211.7,897.7,2210.4,896.2,2210.6,894.5z"/>
				<path class="st2" d="M2212.9,869.2l0.2-6.4c0.1-1.7,1.5-3.1,3.3-3c1.7,0.1,3.1,1.5,3,3.3v0l-0.3,6.4c-0.1,1.7-1.5,3.1-3.3,3
					C2214.2,872.4,2212.8,870.9,2212.9,869.2z"/>
				<path class="st2" d="M2213.1,843.7l-0.2-6.4c-0.1-1.7,1.3-3.2,3-3.3c1.7-0.1,3.2,1.3,3.3,3v0l0.2,6.4c0.1,1.7-1.3,3.2-3,3.3
					C2214.7,846.8,2213.2,845.5,2213.1,843.7z"/>
				<path class="st2" d="M2211.5,818.4l-0.7-6.4c-0.2-1.7,1.1-3.3,2.8-3.5c1.7-0.2,3.3,1.1,3.5,2.8l0,0l0.7,6.4
					c0.2,1.7-1.1,3.3-2.8,3.5C2213.2,821.4,2211.7,820.1,2211.5,818.4z"/>
				<path class="st2" d="M2207.9,793.2l-1.2-6.3c-0.3-1.7,0.8-3.4,2.5-3.7s3.4,0.8,3.7,2.5l0,0l1.2,6.3c0.3,1.7-0.8,3.4-2.5,3.7
					C2209.9,796.1,2208.3,794.9,2207.9,793.2z"/>
				<path class="st2" d="M2202.7,768.3l-1.6-6.2c-0.4-1.7,0.6-3.4,2.3-3.9c1.7-0.4,3.4,0.6,3.9,2.3l0,0l1.6,6.2
					c0.4,1.7-0.6,3.4-2.3,3.9C2204.9,771,2203.1,770,2202.7,768.3z"/>
				<path class="st2" d="M2195.8,743.8l-2-6.1c-0.5-1.7,0.4-3.5,2-4c1.7-0.5,3.5,0.4,4,2l0,0l2,6.1c0.5,1.7-0.4,3.5-2,4
					C2198.1,746.4,2196.4,745.5,2195.8,743.8z"/>
				<path class="st2" d="M2187.3,719.8l-2.4-6c-0.7-1.6,0.1-3.5,1.8-4.1c1.6-0.7,3.5,0.1,4.1,1.8l0,0l2.4,6c0.7,1.6-0.1,3.5-1.8,4.1
					S2188,721.4,2187.3,719.8z"/>
				<path class="st2" d="M2177.4,696.4l-2.7-5.8c-0.8-1.6-0.1-3.5,1.5-4.3c1.6-0.8,3.5-0.1,4.3,1.5l0,0l2.7,5.8
					c0.8,1.6,0.1,3.5-1.5,4.3C2180,698.6,2178.1,698,2177.4,696.4z"/>
				<path class="st2" d="M2165.9,673.6l-3.1-5.6c-0.9-1.5-0.3-3.5,1.3-4.3c1.5-0.9,3.5-0.3,4.3,1.3l0,0l3.1,5.6
					c0.9,1.5,0.3,3.5-1.3,4.3C2168.7,675.7,2166.8,675.2,2165.9,673.6z"/>
				<path class="st2" d="M2153.1,651.7l-3.5-5.4c-1-1.5-0.5-3.5,1-4.4c1.5-1,3.5-0.5,4.4,1l0,0l3.5,5.4c1,1.5,0.5,3.5-1,4.4
					C2156,653.6,2154.1,653.1,2153.1,651.7z"/>
				<path class="st2" d="M2138.9,630.6l-3.8-5.1c-1.1-1.4-0.8-3.4,0.6-4.4c1.4-1.1,3.4-0.8,4.4,0.6l3.9,5.1c1.1,1.4,0.8,3.4-0.6,4.5
					C2141.9,632.3,2139.9,632,2138.9,630.6L2138.9,630.6z"/>
				<path class="st2" d="M2123.1,610.6l-4.2-4.9c-1.1-1.3-1-3.3,0.3-4.4c1.3-1.1,3.3-1,4.4,0.3l4.2,4.9c1.1,1.3,1,3.3-0.3,4.4
					C2126.2,612.1,2124.2,612,2123.1,610.6L2123.1,610.6z"/>
				<path class="st2" d="M2106.2,591.5l-4.4-4.7c-1.2-1.2-1.1-3.2,0.1-4.4c1.2-1.2,3.2-1.1,4.4,0.1l4.4,4.7c1.2,1.2,1.1,3.2-0.1,4.4
					C2109.3,592.9,2107.3,592.8,2106.2,591.5L2106.2,591.5z"/>
				<path class="st2" d="M2088.4,573.1l-4.5-4.5c-1.2-1.2-1.2-3.1,0-4.3c1.2-1.2,3.1-1.2,4.3,0l4.6,4.5c1.2,1.2,1.2,3.1,0,4.3
					C2091.6,574.3,2089.6,574.3,2088.4,573.1L2088.4,573.1z"/>
				<path class="st2" d="M2070.1,555.3l-4.7-4.4c-1.2-1.1-1.3-3-0.1-4.2c1.1-1.2,3-1.3,4.2-0.1l4.7,4.4c1.2,1.1,1.3,3,0.2,4.2
					C2073.2,556.4,2071.3,556.5,2070.1,555.3L2070.1,555.3z"/>
				<path class="st2" d="M2051.3,538l-4.8-4.3c-1.2-1.1-1.3-2.9-0.2-4.2c1.1-1.2,2.9-1.3,4.2-0.2l4.8,4.2c1.2,1.1,1.3,3,0.3,4.2
					C2054.4,539,2052.5,539.1,2051.3,538L2051.3,538z"/>
				<path class="st2" d="M2032,521.2l-4.9-4.2c-1.2-1-1.4-2.9-0.3-4.1c1-1.2,2.8-1.4,4.1-0.3l4.9,4.1c1.2,1,1.4,2.9,0.4,4.1
					C2035.1,522,2033.2,522.2,2032,521.2L2032,521.2z"/>
				<path class="st2" d="M2012.4,504.7l-5-4.1c-1.2-1-1.3-2.7-0.4-3.9c1-1.2,2.7-1.3,3.9-0.4l5,4c1.2,1,1.4,2.7,0.4,3.9
					C2015.4,505.5,2013.6,505.7,2012.4,504.7L2012.4,504.7z"/>
				<path class="st2" d="M1992.5,488.6l-5-4c-1.1-0.9-1.3-2.5-0.4-3.7c0.9-1.1,2.5-1.3,3.7-0.5l5.1,3.9c1.2,0.9,1.4,2.6,0.5,3.7
					C1995.3,489.3,1993.7,489.5,1992.5,488.6L1992.5,488.6z"/>
				<path class="st2" d="M1972.2,472.9l-5.1-3.9c-1.1-0.8-1.3-2.4-0.5-3.5c0.8-1.1,2.4-1.3,3.5-0.5l5.2,3.8c1.1,0.8,1.4,2.4,0.5,3.5
					C1975,473.5,1973.4,473.8,1972.2,472.9L1972.2,472.9z"/>
				<path class="st2" d="M1951.7,457.7l-5.2-3.8c-1.1-0.8-1.3-2.2-0.5-3.3c0.8-1,2.2-1.3,3.3-0.5l5.2,3.7c1.1,0.8,1.3,2.3,0.6,3.3
					C1954.3,458.2,1952.8,458.4,1951.7,457.7L1951.7,457.7z"/>
				<path class="st2" d="M1930.8,442.9l-5.3-3.6c-1-0.7-1.2-2.1-0.6-3.1c0.7-1,2-1.2,3-0.6l5.3,3.6c1,0.7,1.3,2.1,0.6,3.1
					C1933.2,443.3,1931.8,443.6,1930.8,442.9C1930.8,442.9,1930.8,442.9,1930.8,442.9z"/>
				<path class="st2" d="M1909.6,428.5l-5.4-3.5c-0.9-0.6-1.2-1.8-0.6-2.7c0.6-0.9,1.8-1.2,2.7-0.6l5.4,3.4c1,0.6,1.2,1.9,0.6,2.8
					C1911.8,428.8,1910.6,429.1,1909.6,428.5C1909.6,428.5,1909.6,428.5,1909.6,428.5z"/>
				<path class="st2" d="M1888,414.7l-5.5-3.3c-0.8-0.5-1.1-1.6-0.6-2.4c0.5-0.8,1.6-1.1,2.4-0.6l5.5,3.2c0.9,0.5,1.2,1.6,0.7,2.5
					C1890,415,1888.9,415.3,1888,414.7C1888,414.7,1888,414.7,1888,414.7z"/>
				<path class="st2" d="M1865.9,401.7l-5.6-3.1c-0.7-0.4-1-1.3-0.6-2.1c0.4-0.7,1.3-1,2-0.6l5.7,3c0.8,0.4,1.1,1.4,0.7,2.2
					C1867.7,401.9,1866.8,402.2,1865.9,401.7C1866,401.7,1866,401.7,1865.9,401.7z"/>
			</g>
			<g>
				<polygon class="st13" points="1834,328.6 1825.1,363 1805.7,342.2 				"/>
				<path class="st5" d="M1684.5,268.9l71.8,105.5c1.4,2,3.5,3.4,5.9,3.8c2.4,0.4,4.9-0.2,6.8-1.6l103.2-76.1
					c1.2-0.9,1.7-2.4,1.4-3.8c-0.4-1.4-1.6-2.5-3-2.7L1684.5,268.9z"/>
				<polygon class="st3" points="1834,328.6 1684.5,268.9 1817.4,341 1815.3,350.6 				"/>
				<polygon class="st3" points="1807.5,348.2 1825.1,363 1817.4,341 				"/>
			</g>
		</g>
		<g>
			<g>
				<g>
					<g>
						<path class="st5" d="M737.3,619.2l8.2,131.3h-49.2V622.9c0-3.7,2.3-6.9,5.8-8.1c6.5-2.2,17.6-5,28.5-3.1
							C734.3,612.3,737.1,615.4,737.3,619.2z"/>
					</g>
					<g>
						<path class="st3" d="M799,618.6l-5.5,131.8h-46.6l-3.5-133.3c-0.1-3.7,2.2-7,5.8-8c15.2-4.6,30.2-5,45.1,1.8
							C797.2,612.2,799.1,615.3,799,618.6z"/>
						<g>
							<path class="st2" d="M786.5,708.2l-0.4,4.6c-0.1,1.4-1.3,2.4-2.7,2.4l-24.4-1.4c-1.3-0.1-2.3-1.1-2.4-2.4l-0.2-3.2
								c-0.1-1.5,1.1-2.8,2.6-2.8h25C785.4,705.4,786.6,706.7,786.5,708.2z"/>
							<path class="st2" d="M785.5,719.2v1.7c0,1.3-1.1,2.3-2.4,2.3l-23.4-1c-1.2-0.1-2.2-1.1-2.2-2.3v-1.8c0-1.3,1.1-2.3,2.4-2.3
								l23.4,1.1C784.5,717,785.5,718,785.5,719.2z"/>
							<path class="st2" d="M753.5,619.1c0.9-1,2.2-1.6,3.5-1.5l28.5,1.3c2.6,0.1,4.6,2.5,4.5,5.3l-1.5,65.5c-0.1,2.7-2,4.9-4.4,5.1
								l-25.1,1.6c-1.3,0.1-2.5-0.4-3.5-1.4c-0.9-1-1.5-2.3-1.5-3.7l-1.9-68.4C752,621.5,752.5,620.1,753.5,619.1z"/>
						</g>
					</g>
					<g>
						<path class="st2" d="M731,713.2l-0.3,4.6c-0.1,1.4-1.1,2.4-2.3,2.4l-20.8-1.4c-1.1-0.1-2-1.1-2.1-2.4l-0.2-3.2
							c-0.1-1.5,0.9-2.8,2.2-2.8h21.3C730.1,710.4,731.1,711.7,731,713.2z"/>
						<path class="st2" d="M730.1,724.2v1.7c0,1.3-0.9,2.3-2,2.3l-20-1c-1-0.1-1.9-1.1-1.9-2.3v-1.8c0-1.3,0.9-2.3,2-2.3l20,1.1
							C729.3,721.9,730.1,722.9,730.1,724.2z"/>
						<path class="st2" d="M707.9,622.4l16.3-1.9c1.8-0.2,3.5,0.3,4.9,1.5c1.3,1.2,2.1,2.8,2.2,4.6l1.9,63.1
							c0.1,1.7-0.6,3.4-1.8,4.7c-1.2,1.2-2.9,1.9-4.7,1.9l-15.5-0.4c-3.3-0.1-6-2.7-6.2-6l-2.7-60.8
							C702.1,625.7,704.6,622.8,707.9,622.4z"/>
					</g>
				</g>
				<g>
					<g>
						<g>
							<path class="st5" d="M630.3,619.2l8.2,131.3h-49.2V622.9c0-3.7,2.3-6.9,5.8-8.1c6.5-2.2,17.6-5,28.5-3.1
								C627.3,612.3,630.1,615.4,630.3,619.2z"/>
						</g>
					</g>
					<g>
						<path class="st3" d="M691.9,618.6l-5.5,131.8h-46.6l-3.5-133.3c-0.1-3.7,2.2-7,5.8-8c15.2-4.6,30.2-5,45.1,1.8
							C690.2,612.2,692.1,615.3,691.9,618.6z"/>
						<g>
							<path class="st2" d="M679.4,708.2l-0.4,4.6c-0.1,1.4-1.3,2.4-2.7,2.4l-24.4-1.4c-1.3-0.1-2.3-1.1-2.4-2.4l-0.2-3.2
								c-0.1-1.5,1.1-2.8,2.6-2.8h25C678.4,705.4,679.5,706.7,679.4,708.2z"/>
							<path class="st2" d="M678.4,719.2v1.7c0,1.3-1.1,2.3-2.4,2.3l-23.4-1c-1.2-0.1-2.2-1.1-2.2-2.3v-1.8c0-1.3,1.1-2.3,2.4-2.3
								l23.4,1.1C677.5,717,678.4,718,678.4,719.2z"/>
							<path class="st2" d="M646.4,619.1c0.9-1,2.2-1.6,3.5-1.5l28.5,1.3c2.6,0.1,4.6,2.5,4.5,5.3l-1.5,65.5c-0.1,2.7-2,4.9-4.4,5.1
								l-25.1,1.6c-1.3,0.1-2.5-0.4-3.5-1.4c-0.9-1-1.5-2.3-1.5-3.7L645,623C645,621.5,645.5,620.1,646.4,619.1z"/>
						</g>
					</g>
					<g>
						<path class="st2" d="M624,713.2l-0.3,4.6c-0.1,1.4-1.1,2.4-2.3,2.4l-20.8-1.4c-1.1-0.1-2-1.1-2.1-2.4l-0.2-3.2
							c-0.1-1.5,0.9-2.8,2.2-2.8h21.3C623,710.4,624.1,711.7,624,713.2z"/>
						<path class="st2" d="M623.1,724.2v1.7c0,1.3-0.9,2.3-2,2.3l-20-1c-1-0.1-1.9-1.1-1.9-2.3v-1.8c0-1.3,0.9-2.3,2-2.3l20,1.1
							C622.3,721.9,623.1,722.9,623.1,724.2z"/>
						<path class="st2" d="M600.8,622.4l16.3-1.9c1.8-0.2,3.5,0.3,4.9,1.5c1.3,1.2,2.1,2.8,2.2,4.6l1.9,63.1
							c0.1,1.7-0.6,3.4-1.8,4.7c-1.2,1.2-2.9,1.9-4.7,1.9l-15.5-0.4c-3.3-0.1-6-2.7-6.2-6l-2.7-60.8
							C595.1,625.7,597.5,622.8,600.8,622.4z"/>
					</g>
				</g>
			</g>
			<path class="st1" d="M835.1,754.6c0,3.9-3.1,7-7,7H555.5c-3.9,0-7-3.1-7-7v-5.3c0-3.9,3.1-7,7-7h272.6c3.9,0,7,3.1,7,7V754.6z"/>
		</g>
		<g>
			<path class="st6" d="M1421.5,1420.1c15.2,1.3,41.7,3.5,62.5,4.4c12.5,0.6,19.7-0.7,23.9-2.3c0,0.5,0,0.9,0,1.3
				c-0.1,2.2-1.9,3.9-4.1,4.1c-39.4,2.2-70.7,0.8-81.8,0.1c-2.3-0.1-3.7-2.6-2.5-4.6C1420,1422,1420.7,1421.1,1421.5,1420.1z"/>
			<path class="st6" d="M1484,1424.5c-20.8-0.9-47.3-3.1-62.5-4.4c15-18.4,62.5-30.8,62.5-30.8h13.4c9.2,13.3,10.6,26,10.5,32.8
				C1503.7,1423.8,1496.5,1425,1484,1424.5z"/>
			<path class="st2" d="M1499.7,1367.4l-1.3,24.9c-0.1,2.7-2.2,5-4.8,5.3c-2.7,0.4-6.3,0.4-10.1-0.8c-2.3-0.8-4.1-2.8-4.5-5.2
				l-4.3-24.2H1499.7z"/>
			<g>
				
					<linearGradient id="SVGID_00000016069050896968946540000008418957614714969246_" gradientUnits="userSpaceOnUse" x1="-6374.4492" y1="1446.4653" x2="-6340.3784" y2="1446.4653" gradientTransform="matrix(-1 0 0 1 -4707.8828 0)">
					<stop  offset="0" style="stop-color:#53D8FF"/>
					<stop  offset="1" style="stop-color:#3840F7"/>
				</linearGradient>
				<path style="fill:url(#SVGID_00000016069050896968946540000008418957614714969246_);" d="M1655.5,1448.8
					c6.6-1.2,9.6-5.6,10.8-10.4c0,0,0,0.1,0,0.1c1,5-1.3,10.2-5.8,12.6c-5.4,3-11.4,3.5-16,3.2c-5-0.3-9.5-2.9-12-7.2l0-0.1
					C1637.5,1450.4,1644.5,1450.8,1655.5,1448.8z"/>
				<path class="st6" d="M1624.3,1375.1h11.1c16.9-0.4,27.5,45.5,30.9,63.3c-1.3,4.7-4.2,9.2-10.8,10.4c-11,2-18,1.6-23-1.6
					c-9.1-15.5-13.6-38.2-15.8-51.4C1614.2,1380.7,1624.3,1375.1,1624.3,1375.1z"/>
			</g>
			<path class="st2" d="M1634,1352l6.1,24.4c0.8,3-0.7,6.1-3.5,7.5c-3.4,1.8-8.3,3.6-12.7,3.1c-2.1-0.3-3.8-1.7-4.5-3.7l-9-25.7
				L1634,1352z"/>
			<path class="st7" d="M1417.7,1030c0,0,54.9,343.4,54,345.3c0,0,15.2,6.9,31.7,0.9c0,0-5-183.6-16.6-253.9
				c0,0,93.8,164.1,123.5,245.8c0,0,15.5-1.9,28.4-10.3c0,0-100.9-295.3-127.9-334.7L1417.7,1030z"/>
			<path class="st2" d="M1165.6,693.8c0,0,37.1,8.2,59.6,18.6c4.5,2.1,8,5.7,10.1,10.1c6.7,14.8,26.9,51.8,66,69.5
				c-5.6,7.5-14.7,23-18.7,49.2c-23.5-17.5-43.8-46.7-53.5-94.6c0,0-7.4,4-16.7-0.5c-4.9-2.4-10.5-5.7-14.8-8.4
				c-4.2-2.6-7.4-6.7-8.6-11.5c-1.6-6.3-0.7-11.9-0.7-17.9l-19.1-5.9C1169.5,702.4,1163.7,700.3,1165.6,693.8z"/>
			<path class="st1" d="M1282.7,841.2c4-26.1,13-41.7,18.7-49.2c24.3,11,55.9,14.5,96.2,0.5c3.7-1.3,7.6-2,11.5-2.3
				c21.4-1.3,92.1-3.5,150.5,15.8c12.3,4.1,22.3,13.2,27.4,24.9c15.8,36.3,41.4,118.9-29.7,160.6c-5.5-13.6-11.8-24.4-17.1-32.5
				c11.4-19.3,14.8-45.7-5.5-80c-14.8,40-21.8,98.3-23.2,124.1c-0.5,8.5,1,17,4.3,24.8l0.4,0.9c0.7,1.7-0.3,3.6-2.1,4
				c-40,9-81.6,6.5-94,5.5c-2.2-0.2-4.1-1.8-4.6-3.9c-19.5-82-19.5-137.9-14.7-173.2C1382.6,865.4,1327,874.1,1282.7,841.2z"/>
			<path class="st2" d="M1499.4,742.5c0,0,4,42.8,7.6,55.4c0.5,1.9-0.3,3.9-2,4.9c-6,3.5-20.6,9.1-40.4-0.6c-3.2-1.6-5.1-4.9-5-8.5
				l1.7-41.3L1499.4,742.5z"/>
			<g>
				<path class="st2" d="M1460.5,687.8c0,0-12.9,29.7-13.8,45.3c-0.9,15.6-4.2,25.7,13.8,28.9c18,3.1,33.2-5.8,41.5-21.4
					c0,0,12.9-24,10-33.8C1509.1,697,1460.5,687.8,1460.5,687.8z"/>
				<path class="st5" d="M1495.8,729.4l-1-0.5c-1.3-0.6-1.9-2.1-1.2-3.4c2.5-4.9,7.5-16.2,1.1-18.8c-8.3-3.4-41-10.1-48-21.7
					c-6.8-11.2-0.8-25.6,8.3-29.7c0.6-0.3,1.3-0.1,1.6,0.5l0.8,1.4c0.5,1,2,0.8,2.3-0.2v0c0.3-1,1.6-1.2,2.2-0.3
					c2.2,3.5,8,9.1,23.7,12c22.3,4.1,37,13.1,37.3,28.5c0,1,1.1,1.5,1.9,1c1.6-1,4.3-1.5,7.8,1.5c6.1,5.1,3.6,18.5-9.8,29.4
					c-0.6,0.5-0.6,1.5,0.1,2c2.4,1.6,6.1,5.3-3.3,10.4c-9.7,5.2-17,4.8-19.7,4.3c-0.7-0.1-1.1-0.8-1-1.5l3-13.5
					c0.2-0.8-0.4-1.5-1.2-1.5H1495.8z"/>
				<path class="st2" d="M1495.3,732.3c0,0,4.9-19,13.5-13.7c8.5,5.3-4.4,21.3-11.3,22L1495.3,732.3z"/>
			</g>
			<path class="st2" d="M1495.6,1020.8l-58.4-1.3c0,0,50.9-14.4,54.1-10.5c0,0,31.6-20.7,48.9-49.9c5.4,8,11.7,18.9,17.1,32.5
				C1541.8,1000.7,1521.4,1016.5,1495.6,1020.8z"/>
			<path class="st2" d="M1497.3,1010.7c0,0,1.2,23.3-29.3,19.9c-16.6-1.8-43.4-17.3-43.4-17.3S1494.4,1013.1,1497.3,1010.7z"/>
			<g>
				<path class="st5" d="M1485.3,1016.9c-0.1,0-0.2,0-0.3,0l-145.2-0.2c-3.6,0-6.5-2.9-6.5-6.4c0-3.6,2.9-6.5,6.5-6.4l145.2,0.2
					c3.6,0,6.5,2.9,6.5,6.4C1491.5,1013.9,1488.7,1016.7,1485.3,1016.9z"/>
				<path class="st5" d="M1209.2,886.5h120.9c8.9,0,17,5.1,20.8,13.1l55.9,117.3h-150.3c-5.7,0-10.9-3.5-13-8.8l-43.4-108.5
					C1197.7,893.2,1202.4,886.5,1209.2,886.5z"/>
				<path class="st3" d="M1294.4,946.6c2.6,8.1,0.7,15.9-4.3,17.5c-5,1.6-11.2-3.6-13.8-11.7c-2.6-8.1-0.7-15.9,4.3-17.5
					C1285.6,933.3,1291.8,938.5,1294.4,946.6z"/>
			</g>
		</g>
		<g>
			<g>
				<g>
					<g>
						<path class="st7" d="M2185.5,650l8.2,131.3h-49.2V653.6c0-3.7,2.3-6.9,5.8-8.1c6.5-2.2,17.6-5,28.5-3.1
							C2182.5,643.1,2185.3,646.2,2185.5,650z"/>
					</g>
					<g>
						<path class="st6" d="M2247.1,649.3l-5.5,131.8h-46.6l-3.5-133.3c-0.1-3.7,2.2-7,5.8-8c15.2-4.6,30.2-5,45.1,1.8
							C2245.4,643,2247.3,646,2247.1,649.3z"/>
						<g>
							<path class="st2" d="M2234.6,739l-0.4,4.6c-0.1,1.4-1.3,2.4-2.7,2.4l-24.4-1.4c-1.3-0.1-2.3-1.1-2.4-2.4l-0.2-3.2
								c-0.1-1.5,1.1-2.8,2.6-2.8h25C2233.6,736.2,2234.8,737.5,2234.6,739z"/>
							<path class="st2" d="M2233.6,749.9v1.7c0,1.3-1.1,2.3-2.4,2.3l-23.4-1c-1.2-0.1-2.2-1.1-2.2-2.3v-1.8c0-1.3,1.1-2.3,2.4-2.3
								l23.4,1.1C2232.7,747.7,2233.6,748.7,2233.6,749.9z"/>
							<path class="st2" d="M2201.6,649.9c0.9-1,2.2-1.6,3.5-1.5l28.5,1.3c2.6,0.1,4.6,2.5,4.5,5.3l-1.5,65.5
								c-0.1,2.7-2,4.9-4.4,5.1l-25.1,1.6c-1.3,0.1-2.5-0.4-3.5-1.4s-1.5-2.3-1.5-3.7l-1.9-68.4
								C2200.2,652.3,2200.7,650.9,2201.6,649.9z"/>
						</g>
					</g>
					<g>
						<path class="st2" d="M2179.2,743.9l-0.3,4.6c-0.1,1.4-1.1,2.4-2.3,2.4l-20.8-1.4c-1.1-0.1-2-1.1-2.1-2.4l-0.2-3.2
							c-0.1-1.5,0.9-2.8,2.2-2.8h21.3C2178.3,741.2,2179.3,742.4,2179.2,743.9z"/>
						<path class="st2" d="M2178.3,754.9v1.7c0,1.3-0.9,2.3-2,2.3l-20-1c-1-0.1-1.9-1.1-1.9-2.3v-1.8c0-1.3,0.9-2.3,2-2.3l20,1.1
							C2177.5,752.7,2178.3,753.7,2178.3,754.9z"/>
						<path class="st2" d="M2156,653.2l16.3-1.9c1.8-0.2,3.5,0.3,4.9,1.5c1.3,1.2,2.1,2.8,2.2,4.6l1.9,63.1c0.1,1.7-0.6,3.4-1.8,4.7
							c-1.2,1.2-2.9,1.9-4.7,1.9l-15.5-0.4c-3.3-0.1-6-2.7-6.2-6l-2.7-60.8C2150.3,656.4,2152.7,653.6,2156,653.2z"/>
					</g>
				</g>
				<g>
					<g>
						<path class="st7" d="M2078.5,650l8.2,131.3h-49.2V653.6c0-3.7,2.3-6.9,5.8-8.1c6.5-2.2,17.6-5,28.5-3.1
							C2075.4,643.1,2078.2,646.2,2078.5,650z"/>
					</g>
					<g>
						<path class="st6" d="M2140.1,649.3l-5.5,131.8H2088l-3.5-133.3c-0.1-3.7,2.2-7,5.8-8c15.2-4.6,30.2-5,45.1,1.8
							C2138.3,643,2140.2,646,2140.1,649.3z"/>
						<g>
							<path class="st2" d="M2127.6,739l-0.4,4.6c-0.1,1.4-1.3,2.4-2.7,2.4l-24.4-1.4c-1.3-0.1-2.3-1.1-2.4-2.4l-0.2-3.2
								c-0.1-1.5,1.1-2.8,2.6-2.8h25C2126.5,736.2,2127.7,737.5,2127.6,739z"/>
							<path class="st2" d="M2126.6,749.9v1.7c0,1.3-1.1,2.3-2.4,2.3l-23.4-1c-1.2-0.1-2.2-1.1-2.2-2.3v-1.8c0-1.3,1.1-2.3,2.4-2.3
								l23.4,1.1C2125.6,747.7,2126.6,748.7,2126.6,749.9z"/>
							<path class="st2" d="M2094.6,649.9c0.9-1,2.2-1.6,3.5-1.5l28.5,1.3c2.6,0.1,4.6,2.5,4.5,5.3l-1.5,65.5
								c-0.1,2.7-2,4.9-4.4,5.1l-25.1,1.6c-1.3,0.1-2.5-0.4-3.5-1.4c-0.9-1-1.5-2.3-1.5-3.7l-1.9-68.4
								C2093.2,652.3,2093.7,650.9,2094.6,649.9z"/>
						</g>
					</g>
					<g>
						<path class="st2" d="M2072.1,743.9l-0.3,4.6c-0.1,1.4-1.1,2.4-2.3,2.4l-20.8-1.4c-1.1-0.1-2-1.1-2.1-2.4l-0.2-3.2
							c-0.1-1.5,0.9-2.8,2.2-2.8h21.3C2071.2,741.2,2072.2,742.4,2072.1,743.9z"/>
						<path class="st2" d="M2071.3,754.9v1.7c0,1.3-0.9,2.3-2,2.3l-20-1c-1-0.1-1.9-1.1-1.9-2.3v-1.8c0-1.3,0.9-2.3,2-2.3l20,1.1
							C2070.4,752.7,2071.3,753.7,2071.3,754.9z"/>
						<path class="st2" d="M2049,653.2l16.3-1.9c1.8-0.2,3.5,0.3,4.9,1.5c1.3,1.2,2.1,2.8,2.2,4.6l1.9,63.1c0.1,1.7-0.6,3.4-1.8,4.7
							c-1.2,1.2-2.9,1.9-4.7,1.9l-15.5-0.4c-3.3-0.1-6-2.7-6.2-6l-2.7-60.8C2043.2,656.4,2045.7,653.6,2049,653.2z"/>
					</g>
				</g>
			</g>
			<path class="st5" d="M2284.9,784.5c0,3.9-3.1,7-7,7h-272.6c-3.9,0-7-3.1-7-7v-5.3c0-3.9,3.1-7,7-7h272.6c3.9,0,7,3.1,7,7V784.5z"
				/>
		</g>
		<g>
			<g>
				<path class="st7" d="M2019.6,1135.5l178.8,22.3l24-192.4c1.3-10.1-5.9-19.2-16-20.5l-142.4-17.7c-10.1-1.3-19.2,5.9-20.5,16
					L2019.6,1135.5z"/>
				<path class="st6" d="M2205.8,944.8l0.6,0.1c10.1,1.3,17.2,10.4,16,20.5l-23,184.4l-37.1-4.6l23-184.4
					C2186.6,950.7,2195.8,943.5,2205.8,944.8z"/>
			</g>
			<g>
				
					<linearGradient id="SVGID_00000004532171581317847910000018354978256560647312_" gradientUnits="userSpaceOnUse" x1="12975.3135" y1="1428.6145" x2="13011.4141" y2="1201.5272" gradientTransform="matrix(1 0 0 1 -10969.0547 0)">
					<stop  offset="0" style="stop-color:#CB236D"/>
					<stop  offset="1" style="stop-color:#4C246D"/>
				</linearGradient>
				
					<rect x="2010.9" y="1256.3" style="fill:url(#SVGID_00000004532171581317847910000018354978256560647312_);" width="16.7" height="180.6"/>
				
					<linearGradient id="SVGID_00000021814874464802712550000015279241479778138043_" gradientUnits="userSpaceOnUse" x1="12989.3252" y1="1430.0789" x2="13026.7178" y2="1194.8671" gradientTransform="matrix(1 0 0 1 -10969.0547 0)">
					<stop  offset="0" style="stop-color:#CB236D"/>
					<stop  offset="1" style="stop-color:#4C246D"/>
				</linearGradient>
				<path style="fill:url(#SVGID_00000021814874464802712550000015279241479778138043_);" d="M2092.4,1440.4h-146.3v-8.2
					c0-1.5,1.2-2.7,2.7-2.7h140.7c1.6,0,2.9,1.3,2.9,2.9V1440.4z"/>
				
					<linearGradient id="SVGID_00000163032313896802835400000003509499638685170308_" gradientUnits="userSpaceOnUse" x1="12960.2363" y1="1437.1647" x2="12998.6035" y2="1195.8241" gradientTransform="matrix(1 0 0 1 -10969.0547 0)">
					<stop  offset="0" style="stop-color:#FDF53F"/>
					<stop  offset="1" style="stop-color:#D93C65"/>
				</linearGradient>
				<path style="fill:url(#SVGID_00000163032313896802835400000003509499638685170308_);" d="M2120.1,1249.6
					c0,10.5-8.6,19.1-19.1,19.1h-157.3c-10.5,0-19.1-8.6-19.1-19.1v-17.3c0-10.5,8.6-19.1,19.1-19.1H2101c10.5,0,19.1,8.6,19.1,19.1
					V1249.6z"/>
			</g>
			<g>
				
					<linearGradient id="SVGID_00000096051874281348126490000004494102004953463952_" gradientUnits="userSpaceOnUse" x1="-471.1089" y1="1393.3368" x2="-441.7361" y2="1393.3368" gradientTransform="matrix(-1 0 0 1 1470.5714 0)">
					<stop  offset="0" style="stop-color:#FF928E"/>
					<stop  offset="1" style="stop-color:#FEB3B1"/>
				</linearGradient>
				<path style="fill:url(#SVGID_00000096051874281348126490000004494102004953463952_);" d="M1933.4,1376.1l7.8,22.5
					c1.2,3.4,0,7.3-3,9.2c-1.5,1-3.6,1.9-6.5,2.5c-4,0.9-8.2-0.9-10.1-4.6l-9.3-17.6L1933.4,1376.1z"/>
				
					<linearGradient id="SVGID_00000132787470736731924360000018130142342139223203_" gradientUnits="userSpaceOnUse" x1="-511.7556" y1="1315.6177" x2="-386.9341" y2="1140.6708" gradientTransform="matrix(-1 0 0 1 1470.5714 0)">
					<stop  offset="0" style="stop-color:#2B3582"/>
					<stop  offset="0.2305" style="stop-color:#252A70"/>
					<stop  offset="0.7285" style="stop-color:#19164F"/>
					<stop  offset="1" style="stop-color:#150E42"/>
				</linearGradient>
				<path style="fill:url(#SVGID_00000132787470736731924360000018130142342139223203_);" d="M2009.3,1173.2c0,0-98,17-140,55.8
					c-42,38.8,38.6,162.7,38.6,162.7s13.2-0.1,29.2-13.8c0,0-47.8-93.1-6.6-120.3c46.3-30.5,99.7-37.4,99.7-37.4l-19.9-44
					L2009.3,1173.2z"/>
				
					<linearGradient id="SVGID_00000109751496264748675810000006900355594825801372_" gradientUnits="userSpaceOnUse" x1="-492.3489" y1="1420.4434" x2="-464.7817" y2="1420.4434" gradientTransform="matrix(-1 0 0 1 1470.5714 0)">
					<stop  offset="0" style="stop-color:#FF928E"/>
					<stop  offset="1" style="stop-color:#FEB3B1"/>
				</linearGradient>
				<path style="fill:url(#SVGID_00000109751496264748675810000006900355594825801372_);" d="M1962.9,1413.3
					c-0.1,2.9-6,12.8-9.5,18.4c-1.6,2.6-4.5,4.3-7.6,4.3c-2,0-4.2-0.2-6.3-0.8c-3.1-0.9-4.8-4.2-3.9-7.3l6.7-23L1962.9,1413.3z"/>
				
					<linearGradient id="SVGID_00000047039175208330806440000013876101577779085467_" gradientUnits="userSpaceOnUse" x1="-556.7464" y1="1402.7958" x2="-549.8664" y2="1168.8777" gradientTransform="matrix(-1 0 0 1 1470.5714 0)">
					<stop  offset="0" style="stop-color:#09005D"/>
					<stop  offset="1" style="stop-color:#1A0F91"/>
				</linearGradient>
				<path style="fill:url(#SVGID_00000047039175208330806440000013876101577779085467_);" d="M2103.6,1143.8c0,0,21.8,58.2,0,75.9
					c-21.8,17.7-73.7,37.6-85.3,72.8c-11.6,35.2-31.3,103.7-57.6,128c0,0-18.5-1.8-25.4-9.2c0,0,15-102.2,24.9-128.5
					c8.6-22.7,21.2-55.5,45.4-73.8c6.9-5.2,5.7-13.6,2.5-21.6l-5.8-14.7L2103.6,1143.8z"/>
				<path class="st5" d="M1876.7,1098.2c36.5,2.2,25.1-56.1,24.5-58.4l55.4,39.1c0,0-2.9,31.2-49,47.5c-11.6,4.1-22.3,4.3-31.7,2.3
					C1879.9,1117,1879.1,1106.5,1876.7,1098.2z"/>
				<path class="st2" d="M1806.2,1080.6c13.6-9.5,29,0,29,0c18.2,11.9,31.6,16.9,41.5,17.5c2.4,8.3,3.2,18.8-0.8,30.5
					c-20.4-4.4-34.9-19.1-41.3-26.7c-2.3-2.7-6.3-3.2-9.1-1c-2.8,2.2-5.6,5.3-5.1,8.5c1,6.4-6.4,8.4-6.9,6.1c-0.6-2.3,2.5-16,2.5-16
					s-14.7,14.8-20.5,20.5c-5.8,5.7-13,0-13,0S1792.6,1090.1,1806.2,1080.6z"/>
				<path class="st5" d="M2046.8,949.8c0,0-53.1-21.2-151.8,60.3c0,0-8.2,17.1,0.8,32.3c9,15.2,94.8,89.3,106.5,130.3
					c0,0,51.1,16.6,103.9-22.8C2106.2,1149.9,2101.5,1035.6,2046.8,949.8z"/>
				<path class="st2" d="M1941.9,930.8l26.1,31.7c2.6,3.1,3.2,7.5,1.4,11.2c-3.6,7.4-12.2,18.2-31.3,16.7c-5.7-0.4-10.7-3.9-13.2-9
					l-18.3-37.8L1941.9,930.8z"/>
				<path class="st5" d="M2087.9,1085.4c6.2-25.1-56.2-81-56.2-81l15.2-54.6c0,0,134.8,89.7,100.4,161.8
					c-4.9,10.3-11.5,17.6-19,22.4C2117.3,1104.8,2100,1091.4,2087.9,1085.4z"/>
				<path class="st2" d="M1993.4,1083.2c0,0,74,28.7,92,7.1c1.2-1.5,2-3.1,2.5-5c12.1,6,29.4,19.4,40.3,48.6
					c-38.9,24.9-105.4-13.8-123.4-25.2c-3-1.9-6.5-2.5-9.9-1.8c-6.9,1.4-18.9,3.6-25.4,2.6c-9.5-1.5-23,31.9-38.4,21.6
					C1931.1,1131.1,1944.2,1073.2,1993.4,1083.2z"/>
				<g>
					<path class="st2" d="M1898.2,877.8c-0.6,0.8-21.7,67.1-21.7,67.1l38.1,11.2l29.2-59.9C1943.9,896.2,1908.9,863.8,1898.2,877.8z
						"/>
					<path class="st6" d="M1929.1,904.9l-12.9,32.7c-0.2,0.4-0.4,0.8-0.7,1.2c-1.7,2.2-8,9.3-14.9,2.4c-6.3-6.3-12.1-11.9-17.6-13.1
						c-2.5-0.5-5,0.9-5.7,3.3c-1.9,6-6,19.7-7.7,32.1c-0.3,2.5,1.3,4.9,3.8,5.4c7.5,1.7,23.3,4.9,36.6,4.4c1.8-0.1,3.4-1.1,4.2-2.7
						c4-7.9,16.1-31.7,20.5-37.9c4.1-5.8,13.7-5.2,17.8-4.7c1.3,0.2,2.6-0.2,3.7-1c3.6-3,10.6-10.6,1.6-20.4c-1.9-2-1.7-5.2,0.4-7.1
						c4.2-3.7,8.8-10.3,2.3-18.9c-6.5-8.8-15.7-7.8-21.3-5.9c-2.3,0.7-4.7-0.3-5.8-2.4c-0.7-1.2-1.8-2.1-3.9-2
						c-2.8,0.1-5.1-2.3-5-5.2c0.3-5.5-1.4-12.4-10.8-15.7c-16.6-5.9-27.7,10-29.2,22.1c-1.5,12.1,16.9,17.4,27.8,17
						c8.3-0.3,14.2,8.1,16.5,12.2C1929.5,902,1929.6,903.6,1929.1,904.9z"/>
					<path class="st2" d="M1930,944.7c0,0,3.5-20.9,12.3-21.6c8.8-0.7,17,6.8,7.9,18.3C1938.8,955.6,1930,944.7,1930,944.7z"/>
				</g>
			</g>
			<g>
				<path class="st6" d="M1955.5,1139.9c-0.1,0-0.2,0-0.4,0l-155.2-0.2c-3.8,0-6.9-3.1-6.9-7c0-3.8,3.1-7,7-6.9l155.2,0.2
					c3.8,0,6.9,3.1,6.9,7C1962.1,1136.7,1959.2,1139.7,1955.5,1139.9z"/>
				<path class="st6" d="M1660.3,998.9h129.3c9.5,0,18.2,5.5,22.3,14.1l59.8,126.7H1711c-6.1,0-11.7-3.8-13.9-9.5l-46.3-117.3
					C1648.1,1006.3,1653,998.9,1660.3,998.9z"/>
				<path class="st7" d="M1751.4,1063.9c2.8,8.7,0.7,17.2-4.6,18.9s-12-3.9-14.8-12.6c-2.8-8.7-0.7-17.2,4.6-18.9
					C1742,1049.6,1748.6,1055.2,1751.4,1063.9z"/>
			</g>
			<g>
				<g>
					<g>
						<path class="st22" d="M2165.6,1096.2l-86.6,0v-17.3l86.6,0C2163.8,1078.8,2163.8,1096.2,2165.6,1096.2z"/>
						<g>
							<path class="st3" d="M2079.1,1091.8v-7.9c0-2.8,1.7-5.1,3.8-5.1h82.4c1.7,0,3-1.3,3-3c0-0.5-0.4-0.9-0.9-0.9h-90
								c-2.1,0-5.3,3.2-5.3,7.3v11.1c0,3.8,3.2,6.8,5.1,6.8h89.8c0.8,0,1.4-0.6,1.4-1.4c0-1.4-1.1-2.5-2.5-2.5h-83.4
								C2080.5,1096.2,2079.1,1094.2,2079.1,1091.8z"/>
						</g>
					</g>
					
						<linearGradient id="SVGID_00000029023397820331871310000000344153347842264485_" gradientUnits="userSpaceOnUse" x1="2079.3367" y1="1082.3816" x2="2164.7861" y2="1082.3816">
						<stop  offset="0" style="stop-color:#DAE3FE"/>
						<stop  offset="1" style="stop-color:#E9EFFD"/>
					</linearGradient>
					<path style="fill:url(#SVGID_00000029023397820331871310000000344153347842264485_);" d="M2162.6,1084.5h-81.2
						c-1.2,0-2.1-1-2.1-2.1s1-2.1,2.1-2.1h81.2c1.2,0,2.1,1,2.1,2.1S2163.8,1084.5,2162.6,1084.5z"/>
					
						<linearGradient id="SVGID_00000011002079514880649880000016648670845480914620_" gradientUnits="userSpaceOnUse" x1="2079.3367" y1="1084.9543" x2="2164.7861" y2="1084.9543">
						<stop  offset="0" style="stop-color:#DAE3FE"/>
						<stop  offset="1" style="stop-color:#E9EFFD"/>
					</linearGradient>
					<path style="fill:url(#SVGID_00000011002079514880649880000016648670845480914620_);" d="M2162.6,1087.1h-81.2
						c-1.2,0-2.1-1-2.1-2.1s1-2.1,2.1-2.1h81.2c1.2,0,2.1,1,2.1,2.1S2163.8,1087.1,2162.6,1087.1z"/>
					
						<linearGradient id="SVGID_00000079463592345147586740000002864836307160330644_" gradientUnits="userSpaceOnUse" x1="2079.3367" y1="1087.527" x2="2164.7861" y2="1087.527">
						<stop  offset="0" style="stop-color:#DAE3FE"/>
						<stop  offset="1" style="stop-color:#E9EFFD"/>
					</linearGradient>
					<path style="fill:url(#SVGID_00000079463592345147586740000002864836307160330644_);" d="M2162.6,1089.7h-81.2
						c-1.2,0-2.1-1-2.1-2.1c0-1.2,1-2.1,2.1-2.1h81.2c1.2,0,2.1,1,2.1,2.1C2164.8,1088.7,2163.8,1089.7,2162.6,1089.7z"/>
					
						<linearGradient id="SVGID_00000098194210471273077140000009189954753383623607_" gradientUnits="userSpaceOnUse" x1="2079.3367" y1="1090.0975" x2="2164.7861" y2="1090.0975">
						<stop  offset="0" style="stop-color:#DAE3FE"/>
						<stop  offset="1" style="stop-color:#E9EFFD"/>
					</linearGradient>
					<path style="fill:url(#SVGID_00000098194210471273077140000009189954753383623607_);" d="M2162.6,1092.2h-81.2
						c-1.2,0-2.1-1-2.1-2.1c0-1.2,1-2.1,2.1-2.1h81.2c1.2,0,2.1,1,2.1,2.1C2164.8,1091.3,2163.8,1092.2,2162.6,1092.2z"/>
					<path class="st1" d="M2162.6,1094.8h-81.2c-1.2,0-2.1-1-2.1-2.1s1-2.1,2.1-2.1h81.2c1.2,0,2.1,1,2.1,2.1
						S2163.8,1094.8,2162.6,1094.8z"/>
				</g>
				<g>
					<path class="st3" d="M2033.2,1137.6h149.5c1.9,0,3.4-1.5,3.4-3.4v-30.9c0-1.9-1.5-3.4-3.4-3.4h-149.5c-1.9,0-3.4,1.5-3.4,3.4
						v30.9C2029.8,1136,2031.3,1137.6,2033.2,1137.6z"/>
					<path class="st1" d="M2166,1134.3h-13.4c-2,0-3.5-1.6-3.5-3.5v-24.1c0-2,1.6-3.5,3.5-3.5h13.4c2,0,3.5,1.6,3.5,3.5v24.1
						C2169.5,1132.7,2167.9,1134.3,2166,1134.3z M2152.6,1105.2c-0.8,0-1.4,0.6-1.4,1.4v24.1c0,0.8,0.6,1.4,1.4,1.4h13.4
						c0.8,0,1.4-0.6,1.4-1.4v-24.1c0-0.8-0.6-1.4-1.4-1.4H2152.6z"/>
					<path class="st1" d="M2145.4,1134.3h-2.9c-1.7,0-3.1-1.4-3.1-3.1v-25c0-1.7,1.4-3.1,3.1-3.1h2.9c1.7,0,3.1,1.4,3.1,3.1v25
						C2148.5,1132.9,2147.1,1134.3,2145.4,1134.3z M2142.5,1105.2c-0.5,0-0.9,0.4-0.9,0.9v25c0,0.5,0.4,0.9,0.9,0.9h2.9
						c0.5,0,0.9-0.4,0.9-0.9v-25c0-0.5-0.4-0.9-0.9-0.9H2142.5z"/>
				</g>
			</g>
			<g>
				<path class="st3" d="M2269.9,1167.9v242.5v39.2c0,4.9-4.2,9.1-9.1,9.1h-624.3c-4.9,0-10.3-4.2-10.3-9.1v-281.7H2269.9z"/>
				<path class="st1" d="M2049.6,1167.9v281.7c0,4.9-5.5,9.1-10.5,9.1h-412.9v-290.8H2049.6z"/>
				<g>
					<g>
						<path class="st3" d="M2273.8,1146.6c0.4-2-0.1-4.1-1.4-5.7c-1.2-1.6-3.1-2.5-5-2.5h-652.6c-2.5,0-4.9,1.4-6.3,3.7
							c-1.4,2.3-1.5,5.1-0.5,7.6l7.1,16.3c1.6,3.7,5.1,6.1,9,6.1H2263c3.6,0,6.7-2.7,7.4-6.5L2273.8,1146.6z"/>
					</g>
					<path class="st5" d="M2289.7,1137.7c2.6,0,5.1,1.1,6.9,3c1.7,1.9,2.5,4.4,2.2,6.9l-2.4,16.8c-0.6,4.3-4.5,7.8-9,7.8h-218.9
						l-0.3-33.4L2289.7,1137.7z"/>
				</g>
			</g>
		</g>
		<g>
			<path class="st2" d="M1382,705.9c0,0-234.7-116-157.9-201.3c76.8-85.4,219.8-51.3,227.1,38.6C1458.4,633,1284.2,611.9,1382,705.9
				z"/>
			<g>
				<path class="st1" d="M1347.4,528.7h-103.6c-1.2,0-2.1-1-2.1-2.1s1-2.1,2.1-2.1h103.6c1.2,0,2.1,1,2.1,2.1
					S1348.6,528.7,1347.4,528.7z"/>
				<path class="st1" d="M1408.9,528.7h-30.7c-1.2,0-2.1-1-2.1-2.1s1-2.1,2.1-2.1h30.7c1.2,0,2.1,1,2.1,2.1
					S1410.1,528.7,1408.9,528.7z"/>
				<path class="st1" d="M1279.3,549.7h-38.9c-1.2,0-2.1-1-2.1-2.1c0-1.2,1-2.1,2.1-2.1h38.9c1.2,0,2.1,1,2.1,2.1
					C1281.4,548.7,1280.5,549.7,1279.3,549.7z"/>
				<path class="st1" d="M1405.4,549.7h-69.1c-1.2,0-2.1-1-2.1-2.1c0-1.2,1-2.1,2.1-2.1h69.1c1.2,0,2.1,1,2.1,2.1
					C1407.6,548.7,1406.6,549.7,1405.4,549.7z"/>
				<path class="st1" d="M1340.3,570.7h-103.4c-1.2,0-2.1-1-2.1-2.1s1-2.1,2.1-2.1h103.4c1.2,0,2.1,1,2.1,2.1
					S1341.5,570.7,1340.3,570.7z"/>
				<path class="st1" d="M1402,570.7h-35.8c-1.2,0-2.1-1-2.1-2.1s1-2.1,2.1-2.1h35.8c1.2,0,2.1,1,2.1,2.1S1403.1,570.7,1402,570.7z"
					/>
			</g>
		</g>
		<g>
			<g>
				<g>
					<path class="st1" d="M430.9,612.4c-0.5,0-1-0.1-1.6-0.2l-36.3-8.5c-2.8-0.7-4.9-3.1-5.2-6l-2.9-28.6
						c-12.1-6.3-23.2-14.2-32.9-23.7l-28,6.3c-2.8,0.6-5.8-0.6-7.3-3.1L297,517.1c-1.5-2.5-1.3-5.7,0.5-7.9l18.2-22.3
						c-4.1-13-6.3-26.4-6.5-40l-24.3-15.3c-2.5-1.6-3.7-4.5-3-7.3l8.5-36.3c0.7-2.8,3.1-4.9,6-5.2l28.6-2.9
						c6.3-12.1,14.2-23.2,23.7-32.9l-6.3-28c-0.6-2.8,0.6-5.8,3.1-7.3l31.7-19.6c2.5-1.5,5.7-1.3,7.9,0.5l22.3,18.1
						c13-4.1,26.4-6.3,40-6.5l15.3-24.3c1.6-2.5,4.5-3.7,7.3-3l36.3,8.5c2.8,0.7,4.9,3.1,5.2,6l2.9,28.6
						c12.1,6.3,23.2,14.2,32.9,23.7l28-6.3c2.8-0.6,5.8,0.6,7.3,3.1l19.6,31.7c1.5,2.5,1.3,5.7-0.5,7.9l-18.1,22.3
						c4.1,13,6.3,26.4,6.5,40l24.3,15.3c2.5,1.6,3.7,4.5,3,7.3l-8.5,36.3c-0.7,2.8-3.1,4.9-6,5.2l-28.6,2.9
						c-6.3,12.1-14.2,23.2-23.7,32.9l6.3,28c0.6,2.8-0.6,5.8-3.1,7.3l-31.7,19.6c-2.5,1.5-5.7,1.3-7.9-0.5L492,578.4
						c-12.9,4.1-26.4,6.3-40,6.5l-15.3,24.3C435.4,611.2,433.2,612.4,430.9,612.4z M396.2,595.7l33.9,8l17.2-27.2l2.4,0
						c0,0,0.1,0,0.1,0c14.3,0,28.3-2.3,41.8-6.8l2.2-0.8l24.9,20.3l29.6-18.3l-7.1-31.4l1.7-1.7c10.1-10.1,18.4-21.7,24.8-34.5
						l1.1-2.1l32-3.3l8-33.9l-27.2-17.2l0-2.4c0-14.3-2.3-28.4-6.8-41.9l-0.8-2.2l20.3-24.9l-18.3-29.6l-31.4,7.1l-1.7-1.7
						c-10.1-10.1-21.7-18.4-34.5-24.8l-2.1-1.1l-3.3-32l-33.9-8l-17.2,27.2l-2.4,0c0,0-0.1,0-0.1,0c-14.3,0-28.3,2.3-41.8,6.8
						l-2.2,0.8l-24.9-20.3l-29.6,18.3l7.1,31.4l-1.7,1.7c-10.1,10.1-18.4,21.7-24.8,34.5l-1.1,2.1l-32,3.3l-8,33.9l27.2,17.2l0,2.4
						c0,14.3,2.3,28.4,6.8,41.9l0.8,2.2l-20.3,24.9l18.3,29.6l31.4-7.1l1.7,1.7c10.1,10.1,21.7,18.4,34.5,24.8l2.1,1.1L396.2,595.7z
						 M450.5,538.8c-31.6,0-62.4-15.8-80.3-44.6c-3.5-5.7-6.5-11.8-8.7-18.1c-0.8-2.2,0.4-4.7,2.6-5.5c2.2-0.8,4.7,0.4,5.5,2.6
						c2,5.7,4.7,11.2,7.9,16.4c24.9,40.2,77.8,52.6,117.9,27.7c19.5-12.1,33-31,38.3-53.2c5.2-22.3,1.5-45.3-10.6-64.7
						c-12.1-19.5-31-33-53.2-38.3c-22.3-5.2-45.3-1.5-64.7,10.6c-13.2,8.2-23.9,19.8-31,33.5c-1.1,2.1-3.7,2.9-5.8,1.8
						c-2.1-1.1-2.9-3.7-1.8-5.8c7.8-15.1,19.6-27.8,34.1-36.8c44.2-27.4,102.4-13.7,129.7,30.5c13.3,21.4,17.4,46.7,11.6,71.2
						c-5.8,24.5-20.7,45.3-42.1,58.5C484.6,534.2,467.5,538.8,450.5,538.8z"/>
					<path class="st1" d="M449.6,481.9c-9.7,0-18.9-3.7-26-10.5c-14.8-14.3-15.2-38-0.9-52.9c14.3-14.8,38-15.2,52.9-0.9
						c7.2,6.9,11.2,16.3,11.4,26.2c0.2,10-3.6,19.4-10.5,26.6c-6.9,7.2-16.3,11.2-26.2,11.4C450,481.9,449.8,481.9,449.6,481.9z
						 M449.6,415.7c-7.5,0-15.1,2.9-20.7,8.8c-11.1,11.4-10.7,29.7,0.7,40.8l0,0c5.5,5.4,12.9,8.3,20.5,8.1
						c7.7-0.1,14.9-3.2,20.2-8.8c5.4-5.5,8.2-12.8,8.1-20.5c-0.1-7.7-3.2-14.9-8.8-20.2C464.1,418.4,456.8,415.7,449.6,415.7z"/>
					<g>
						<path class="st1" d="M282.4,372c-0.1,0-0.3,0-0.4-0.1c-0.5-0.2-0.8-0.9-0.5-1.4c0.7-1.6,1.5-3.3,2.2-4.9
							c0.3-0.5,0.9-0.8,1.4-0.5c0.5,0.3,0.8,0.9,0.5,1.4c-0.8,1.6-1.5,3.2-2.2,4.8C283.2,371.8,282.8,372,282.4,372z"/>
						<path class="st1" d="M621,382.5c-0.4,0-0.8-0.3-1-0.7c-1.2-3.3-2.6-6.6-4-9.9c-0.2-0.5,0-1.2,0.6-1.4c0.5-0.2,1.2,0,1.4,0.6
							c1.4,3.3,2.8,6.6,4,10c0.2,0.6-0.1,1.2-0.6,1.4C621.3,382.5,621.1,382.5,621,382.5z M612.5,362.9c-0.4,0-0.8-0.2-1-0.6
							c-1.6-3.2-3.3-6.3-5.1-9.3c-0.3-0.5-0.1-1.2,0.4-1.5c0.5-0.3,1.2-0.1,1.5,0.4c1.8,3.1,3.5,6.3,5.2,9.5
							c0.3,0.5,0.1,1.2-0.5,1.4C612.8,362.8,612.6,362.9,612.5,362.9z M289.5,357.6c-0.2,0-0.4,0-0.5-0.1c-0.5-0.3-0.7-0.9-0.4-1.5
							c1.7-3.1,3.6-6.3,5.5-9.3c0.3-0.5,1-0.6,1.5-0.3c0.5,0.3,0.6,1,0.3,1.5c-1.9,3-3.7,6.1-5.4,9.2
							C290.2,357.4,289.9,357.6,289.5,357.6z M601.7,344.4c-0.3,0-0.7-0.2-0.9-0.5c-2-2.9-4-5.9-6.2-8.7c-0.4-0.5-0.3-1.1,0.2-1.5
							c0.5-0.4,1.1-0.3,1.5,0.2c2.2,2.9,4.3,5.8,6.2,8.8c0.3,0.5,0.2,1.2-0.3,1.5C602.1,344.3,601.9,344.4,601.7,344.4z
							 M300.9,339.5c-0.2,0-0.4-0.1-0.6-0.2c-0.5-0.3-0.6-1-0.2-1.5c2.1-2.9,4.3-5.8,6.5-8.6c0.4-0.5,1-0.5,1.5-0.2
							c0.5,0.4,0.5,1,0.2,1.5c-2.2,2.8-4.4,5.6-6.4,8.5C301.6,339.3,301.2,339.5,300.9,339.5z M588.8,327.3c-0.3,0-0.6-0.1-0.8-0.4
							c-2.3-2.7-4.7-5.3-7.1-7.9c-0.4-0.4-0.4-1.1,0-1.5c0.4-0.4,1.1-0.4,1.5,0c2.5,2.6,4.9,5.3,7.2,8c0.4,0.5,0.3,1.1-0.1,1.5
							C589.3,327.2,589,327.3,588.8,327.3z M314.4,322.8c-0.3,0-0.5-0.1-0.7-0.3c-0.4-0.4-0.5-1.1-0.1-1.5c1.3-1.4,2.7-2.9,4-4.3
							c1.1-1.2,2.3-2.3,3.4-3.5c0.4-0.4,1.1-0.4,1.5,0c0.4,0.4,0.4,1.1,0,1.5c-1.1,1.1-2.3,2.3-3.4,3.4c-1.4,1.4-2.7,2.8-4,4.2
							C314.9,322.7,314.6,322.8,314.4,322.8z M574,311.8c-0.3,0-0.5-0.1-0.7-0.3c-2.6-2.4-5.3-4.8-8-7c-0.5-0.4-0.5-1.1-0.1-1.5
							c0.4-0.5,1.1-0.5,1.5-0.1c2.7,2.3,5.5,4.7,8.1,7.1c0.4,0.4,0.5,1.1,0.1,1.5C574.5,311.7,574.2,311.8,574,311.8z M329.6,307.9
							c-0.3,0-0.6-0.1-0.8-0.4c-0.4-0.4-0.3-1.1,0.1-1.5c2.7-2.4,5.5-4.7,8.3-6.8c0.5-0.4,1.1-0.3,1.5,0.2c0.4,0.5,0.3,1.1-0.2,1.5
							c-2.8,2.2-5.6,4.4-8.2,6.8C330.1,307.8,329.9,307.9,329.6,307.9z M557.5,298.2c-0.2,0-0.4-0.1-0.6-0.2c-2.8-2.1-5.8-4.1-8.8-6
							c-0.5-0.3-0.6-1-0.3-1.5c0.3-0.5,1-0.6,1.5-0.3c3,1.9,6,4,8.9,6.1c0.5,0.3,0.6,1,0.2,1.5C558.1,298,557.8,298.2,557.5,298.2z
							 M346.6,294.7c-0.3,0-0.7-0.2-0.9-0.5c-0.3-0.5-0.2-1.2,0.3-1.5c2.9-2,6-4,9.1-5.8c0.5-0.3,1.2-0.1,1.5,0.4
							c0.3,0.5,0.1,1.2-0.4,1.5c-3,1.8-6,3.8-9,5.8C347,294.7,346.8,294.7,346.6,294.7z M539.5,286.6c-0.2,0-0.4,0-0.5-0.1
							c-3.1-1.7-6.2-3.4-9.4-5c-0.5-0.3-0.7-0.9-0.5-1.4s0.9-0.7,1.4-0.5c3.2,1.6,6.4,3.3,9.5,5c0.5,0.3,0.7,0.9,0.4,1.5
							C540.2,286.4,539.9,286.6,539.5,286.6z M364.9,283.7c-0.4,0-0.8-0.2-0.9-0.6c-0.3-0.5-0.1-1.2,0.5-1.4
							c3.2-1.7,6.4-3.2,9.7-4.7c0.5-0.2,1.2,0,1.4,0.5c0.2,0.5,0,1.2-0.5,1.4c-3.2,1.5-6.4,3-9.6,4.7
							C365.3,283.7,365.1,283.7,364.9,283.7z M520.3,277.1c-0.1,0-0.3,0-0.4-0.1c-3.3-1.4-6.6-2.7-9.9-3.8c-0.6-0.2-0.8-0.8-0.7-1.4
							c0.2-0.6,0.8-0.9,1.4-0.7c3.4,1.2,6.8,2.5,10,3.9c0.5,0.2,0.8,0.9,0.6,1.4C521.1,276.9,520.7,277.1,520.3,277.1z M384.4,274.9
							c-0.4,0-0.8-0.3-1-0.7c-0.2-0.6,0.1-1.2,0.6-1.4c3.3-1.3,6.8-2.5,10.2-3.5c0.6-0.2,1.2,0.1,1.3,0.7c0.2,0.6-0.1,1.2-0.7,1.3
							c-3.4,1.1-6.8,2.2-10.1,3.5C384.7,274.9,384.6,274.9,384.4,274.9z M500.1,270c-0.1,0-0.2,0-0.3,0c-3.4-1-6.9-1.9-10.3-2.6
							c-0.6-0.1-0.9-0.7-0.8-1.3c0.1-0.6,0.7-0.9,1.3-0.8c3.5,0.8,7,1.7,10.4,2.7c0.6,0.2,0.9,0.8,0.7,1.3
							C501,269.7,500.6,270,500.1,270z M404.9,268.5c-0.5,0-0.9-0.3-1-0.8c-0.1-0.6,0.2-1.2,0.8-1.3c3.5-0.9,7-1.7,10.5-2.3
							c0.6-0.1,1.1,0.3,1.2,0.9c0.1,0.6-0.3,1.1-0.9,1.2c-3.5,0.7-7,1.4-10.4,2.3C405,268.5,404.9,268.5,404.9,268.5z M479.2,265.3
							c-0.1,0-0.1,0-0.2,0c-3.5-0.6-7-1-10.6-1.4c-0.6-0.1-1-0.6-1-1.2c0.1-0.6,0.6-1,1.2-1c3.5,0.4,7.1,0.8,10.7,1.4
							c0.6,0.1,1,0.6,0.9,1.2C480.2,265,479.8,265.3,479.2,265.3z M425.9,264.5c-0.5,0-1-0.4-1.1-0.9c-0.1-0.6,0.3-1.1,0.9-1.2
							c3.5-0.5,7.2-0.8,10.7-1.1c0.6-0.1,1.1,0.4,1.1,1c0,0.6-0.4,1.1-1,1.1c-3.5,0.3-7.1,0.6-10.6,1.1
							C426,264.5,425.9,264.5,425.9,264.5z M457.9,263.1C457.9,263.1,457.9,263.1,457.9,263.1c-3.6-0.2-7.1-0.2-10.7-0.2
							c0,0,0,0,0,0c-0.6,0-1.1-0.5-1.1-1.1c0-0.6,0.5-1.1,1.1-1.1c3.6,0,7.2,0,10.8,0.2c0.6,0,1,0.5,1,1.1
							C459,262.7,458.5,263.1,457.9,263.1z"/>
						<path class="st1" d="M625.9,397.9c-0.5,0-0.9-0.3-1-0.8c-0.5-1.7-0.9-3.4-1.5-5.1c-0.2-0.6,0.1-1.2,0.7-1.3
							c0.6-0.2,1.2,0.1,1.3,0.7c0.5,1.7,1,3.4,1.5,5.2c0.2,0.6-0.2,1.2-0.8,1.3C626.1,397.8,626,397.9,625.9,397.9z"/>
					</g>
					<g>
						<path class="st1" d="M607.4,537.6c-0.2,0-0.4,0-0.5-0.1c-0.5-0.3-0.7-1-0.4-1.5c0.9-1.5,1.8-3.1,2.6-4.6
							c0.3-0.5,0.9-0.7,1.5-0.4c0.5,0.3,0.7,0.9,0.4,1.5c-0.9,1.6-1.7,3.1-2.6,4.7C608.1,537.4,607.7,537.6,607.4,537.6z"/>
						<path class="st1" d="M450.3,628.2c-0.6,0-1.1-0.5-1.1-1.1c0-0.6,0.5-1.1,1.1-1.1c3.5,0,7-0.1,10.5-0.3c0.6,0,1.1,0.4,1.1,1
							c0,0.6-0.4,1.1-1,1.1C457.4,628,453.8,628.2,450.3,628.2C450.3,628.2,450.3,628.2,450.3,628.2z M439.8,627.9
							C439.7,627.9,439.7,627.9,439.8,627.9c-3.6-0.2-7.1-0.5-10.6-0.9c-0.6-0.1-1-0.6-0.9-1.2c0.1-0.6,0.6-1,1.2-0.9
							c3.4,0.4,7,0.7,10.4,0.9c0.6,0,1,0.5,1,1.1C440.8,627.5,440.3,627.9,439.8,627.9z M471.3,626.9c-0.5,0-1-0.4-1.1-0.9
							c-0.1-0.6,0.3-1.1,0.9-1.2c3.4-0.4,6.9-0.9,10.4-1.5c0.6-0.1,1.1,0.3,1.2,0.9c0.1,0.6-0.3,1.1-0.9,1.2
							c-3.5,0.6-7,1.1-10.5,1.6C471.4,626.9,471.4,626.9,471.3,626.9z M418.8,625.6c-0.1,0-0.1,0-0.2,0c-3.5-0.6-7-1.3-10.4-2.1
							c-0.6-0.1-0.9-0.7-0.8-1.3c0.1-0.6,0.7-0.9,1.3-0.8c3.4,0.8,6.8,1.5,10.3,2.1c0.6,0.1,1,0.7,0.9,1.2
							C419.8,625.2,419.3,625.6,418.8,625.6z M492.1,623.2c-0.5,0-0.9-0.3-1-0.8c-0.1-0.6,0.2-1.2,0.8-1.3c3.4-0.8,6.8-1.7,10.1-2.7
							c0.6-0.2,1.2,0.2,1.3,0.7c0.2,0.6-0.2,1.2-0.7,1.3c-3.4,1-6.8,1.9-10.2,2.8C492.2,623.2,492.1,623.2,492.1,623.2z
							 M398.3,620.9c-0.1,0-0.2,0-0.3,0c-3.4-1-6.8-2.1-10.1-3.3c-0.6-0.2-0.8-0.8-0.6-1.4c0.2-0.6,0.8-0.8,1.4-0.6
							c3.3,1.2,6.6,2.2,10,3.2c0.6,0.2,0.9,0.8,0.7,1.3C399.2,620.6,398.8,620.9,398.3,620.9z M512.2,617.1c-0.4,0-0.8-0.3-1-0.7
							c-0.2-0.6,0.1-1.2,0.6-1.4c3.3-1.2,6.5-2.5,9.7-3.9c0.5-0.2,1.2,0,1.4,0.6c0.2,0.5,0,1.2-0.6,1.4c-3.2,1.4-6.5,2.7-9.9,3.9
							C512.5,617.1,512.4,617.1,512.2,617.1z M378.5,613.8c-0.1,0-0.3,0-0.4-0.1c-3.2-1.4-6.5-2.9-9.6-4.4c-0.5-0.3-0.7-0.9-0.5-1.4
							c0.3-0.5,0.9-0.7,1.4-0.5c3.1,1.5,6.3,3,9.5,4.4c0.5,0.2,0.8,0.9,0.6,1.4C379.3,613.5,378.9,613.8,378.5,613.8z M531.6,608.8
							c-0.4,0-0.8-0.2-1-0.6c-0.3-0.5-0.1-1.2,0.5-1.4c3.1-1.6,6.2-3.2,9.2-5c0.5-0.3,1.2-0.1,1.5,0.4c0.3,0.5,0.1,1.2-0.4,1.5
							c-3,1.8-6.2,3.5-9.3,5C531.9,608.8,531.7,608.8,531.6,608.8z M359.6,604.5c-0.2,0-0.4,0-0.5-0.1c-3.1-1.7-6.1-3.6-9.1-5.5
							c-0.5-0.3-0.6-1-0.3-1.5c0.3-0.5,1-0.6,1.5-0.3c2.9,1.9,5.9,3.7,9,5.4c0.5,0.3,0.7,0.9,0.4,1.5
							C360.3,604.3,359.9,604.5,359.6,604.5z M549.8,598.3c-0.3,0-0.7-0.2-0.9-0.5c-0.3-0.5-0.2-1.2,0.3-1.5c2.9-1.9,5.8-3.9,8.6-6
							c0.5-0.4,1.1-0.3,1.5,0.2c0.4,0.5,0.3,1.1-0.2,1.5c-2.8,2.1-5.7,4.1-8.7,6.1C550.2,598.2,550,598.3,549.8,598.3z M341.9,593
							c-0.2,0-0.4-0.1-0.6-0.2c-2.8-2.1-5.6-4.3-8.4-6.5c-0.5-0.4-0.5-1-0.1-1.5c0.4-0.5,1-0.5,1.5-0.1c2.7,2.2,5.5,4.4,8.3,6.4
							c0.5,0.3,0.6,1,0.2,1.5C342.5,592.9,342.2,593,341.9,593z M566.7,585.7c-0.3,0-0.6-0.1-0.8-0.4c-0.4-0.5-0.3-1.1,0.1-1.5
							c2.7-2.2,5.3-4.6,7.8-7c0.4-0.4,1.1-0.4,1.5,0c0.4,0.4,0.4,1.1,0,1.5c-2.6,2.4-5.2,4.8-7.9,7
							C567.2,585.6,567,585.7,566.7,585.7z M325.6,579.7c-0.3,0-0.5-0.1-0.7-0.3c-1-0.9-2-1.9-3-2.9c-1.5-1.5-3.1-3-4.5-4.5
							c-0.4-0.4-0.4-1.1,0-1.5c0.4-0.4,1.1-0.4,1.5,0c1.5,1.5,3,3,4.5,4.5c1,1,2,1.9,3,2.8c0.4,0.4,0.5,1.1,0.1,1.5
							C326.2,579.5,325.9,579.7,325.6,579.7z M582.1,571.2c-0.3,0-0.5-0.1-0.7-0.3c-0.4-0.4-0.4-1.1,0-1.5c2.4-2.5,4.8-5.2,7-7.8
							c0.4-0.5,1.1-0.5,1.5-0.1c0.5,0.4,0.5,1.1,0.1,1.5c-2.3,2.7-4.6,5.3-7.1,7.9C582.6,571.1,582.4,571.2,582.1,571.2z M311,564.5
							c-0.3,0-0.6-0.1-0.8-0.4c-2.3-2.7-4.5-5.4-6.7-8.2c-0.4-0.5-0.3-1.1,0.2-1.5c0.5-0.4,1.1-0.3,1.5,0.2c2.1,2.8,4.3,5.5,6.6,8.1
							c0.4,0.4,0.3,1.1-0.1,1.5C311.5,564.4,311.3,564.5,311,564.5z M595.7,555.2c-0.2,0-0.4-0.1-0.6-0.2c-0.5-0.4-0.6-1-0.2-1.5
							c2.1-2.8,4.1-5.7,6.1-8.6c0.3-0.5,1-0.6,1.5-0.3c0.5,0.3,0.6,1,0.3,1.5c-1.9,2.9-4,5.8-6.1,8.7
							C596.3,555,596,555.2,595.7,555.2z M298.2,547.7c-0.3,0-0.7-0.2-0.9-0.5c-2-2.9-3.9-5.9-5.7-9c-0.3-0.5-0.1-1.2,0.4-1.5
							c0.5-0.3,1.2-0.1,1.5,0.4c1.8,3,3.7,6,5.6,8.8c0.3,0.5,0.2,1.2-0.3,1.5C298.6,547.7,298.4,547.7,298.2,547.7z M287.4,529.6
							c-0.4,0-0.8-0.2-1-0.6c-1.6-3.1-3.2-6.3-4.6-9.5c-0.2-0.5,0-1.2,0.5-1.4c0.5-0.2,1.2,0,1.4,0.5c1.4,3.2,2.9,6.3,4.6,9.4
							c0.3,0.5,0.1,1.2-0.5,1.4C287.8,529.6,287.6,529.6,287.4,529.6z M278.8,510.4c-0.4,0-0.8-0.3-1-0.7c-1.2-3.3-2.4-6.7-3.5-10
							c-0.2-0.6,0.1-1.2,0.7-1.3c0.6-0.2,1.2,0.1,1.3,0.7c1,3.3,2.2,6.7,3.4,9.9c0.2,0.6-0.1,1.2-0.6,1.4
							C279.1,510.4,279,510.4,278.8,510.4z"/>
						<path class="st1" d="M272.5,490.2c-0.5,0-0.9-0.3-1-0.8c-0.4-1.7-0.8-3.5-1.2-5.2c-0.1-0.6,0.2-1.1,0.8-1.3
							c0.6-0.1,1.1,0.2,1.3,0.8c0.4,1.7,0.8,3.5,1.2,5.2c0.1,0.6-0.2,1.2-0.8,1.3C272.7,490.2,272.6,490.2,272.5,490.2z"/>
					</g>
				</g>
				<g>
					<path class="st1" d="M731.7,560.3c-1.8,0-3.4-1.1-4.1-2.7l-5.1-12.2c-6.1-1.2-12-3.2-17.6-6l-11.5,6.5
						c-1.6,0.9-3.7,0.7-5.1-0.5l-13.5-11.8c-1.4-1.2-1.9-3.3-1.2-5l5-12.2c-3.5-5.2-6.2-10.8-8.2-16.7l-12.7-3.5
						c-1.8-0.5-3.1-2.1-3.3-4l-1.1-17.9c-0.1-1.9,1-3.6,2.7-4.4l12.2-5.1c1.2-6.1,3.2-12,6-17.6l-6.5-11.5c-0.9-1.6-0.7-3.7,0.5-5.1
						l11.8-13.5c1.2-1.4,3.3-1.9,5-1.2l12.2,5c5.2-3.5,10.8-6.2,16.7-8.2l3.5-12.7c0.5-1.8,2.1-3.1,4-3.3l17.9-1.1
						c1.9-0.1,3.6,1,4.4,2.7l5.1,12.2c6.1,1.2,12,3.2,17.6,6l11.5-6.5c1.6-0.9,3.7-0.7,5.1,0.5l13.5,11.8c1.4,1.2,1.9,3.3,1.2,5
						l-5,12.2c3.5,5.2,6.2,10.8,8.2,16.7l12.7,3.5c1.8,0.5,3.1,2.1,3.3,4l1.1,17.9c0.1,1.9-1,3.6-2.7,4.4l-12.2,5.1
						c-1.2,6.1-3.2,12-6,17.6l6.5,11.5c0.9,1.6,0.7,3.7-0.5,5.1l-11.8,13.5c-1.3,1.4-3.3,1.9-5,1.2l-12.2-5
						c-5.2,3.5-10.8,6.2-16.7,8.2l-3.5,12.7c-0.5,1.8-2.1,3.1-4,3.3l-17.9,1.1C731.9,560.3,731.8,560.3,731.7,560.3z M704.8,532.1
						l1.6,0.8c5.9,3.2,12.3,5.4,19,6.5l1.7,0.3l5.9,14.1l15.1-1l4.1-14.8l1.7-0.5c6.5-2,12.5-4.9,18-8.8l1.4-1l14.2,5.8l10-11.3
						l-7.6-13.3l0.8-1.6c3.2-5.9,5.4-12.3,6.5-19l0.3-1.7l14.1-5.9l-1-15.1l-14.8-4.1l-0.5-1.7c-2-6.5-4.9-12.5-8.8-18l-1-1.4
						l5.8-14.1l-11.3-10l-13.3,7.6L765,423c-5.9-3.2-12.3-5.4-19-6.5l-1.7-0.3l-5.9-14.1l-15.1,1l-4.1,14.8l-1.7,0.5
						c-6.5,2-12.5,4.9-18,8.8l-1.4,1l-14.2-5.8l-10,11.3l7.6,13.3l-0.8,1.6c-3.2,5.9-5.4,12.3-6.5,19l-0.3,1.7l-14.1,5.9l1,15.1
						l14.8,4.1l0.5,1.7c2,6.5,4.9,12.5,8.8,18l1,1.4l-5.8,14.2l11.3,10L704.8,532.1z M736,524.3c-10.9,0-21.8-3.8-30.7-11.6
						c-2.5-2.2-4.7-4.6-6.7-7.3c-1.1-1.4-0.8-3.4,0.7-4.5c1.4-1.1,3.4-0.8,4.5,0.7c1.7,2.3,3.6,4.4,5.8,6.3
						c16.6,14.6,41.9,13,56.5-3.6c14.6-16.6,13-41.9-3.6-56.5c-8-7.1-18.3-10.6-29-9.9c-10.7,0.7-20.4,5.5-27.5,13.5
						c-4.8,5.5-8,12.1-9.3,19.2c-0.3,1.7-2,2.9-3.7,2.6c-1.7-0.3-2.9-2-2.6-3.7c1.5-8.2,5.3-15.9,10.8-22.3
						c16.9-19.2,46.3-21.1,65.6-4.2c19.2,16.9,21.1,46.3,4.2,65.6C761.8,519,748.9,524.3,736,524.3z"/>
					<path class="st1" d="M735.6,498.2c-3.2,0-6.3-0.8-9.2-2.2l0,0c-9.9-5.1-13.8-17.3-8.7-27.2c2.5-4.8,6.6-8.4,11.8-10
						c5.1-1.7,10.6-1.2,15.4,1.3c4.8,2.5,8.4,6.6,10,11.8c1.7,5.1,1.2,10.6-1.3,15.4c-2.5,4.8-6.6,8.4-11.8,10
						C739.8,497.8,737.7,498.2,735.6,498.2z M730.3,488.3c2.8,1.4,5.9,1.7,8.9,0.7c3-1,5.4-3,6.8-5.8c1.4-2.8,1.7-5.9,0.7-8.9
						c-1-3-3-5.4-5.8-6.8c-2.8-1.4-5.9-1.7-8.9-0.7c-3,1-5.4,3-6.8,5.8C722.4,478.4,724.6,485.4,730.3,488.3L730.3,488.3z"/>
					<g>
						<path class="st1" d="M640.2,467.5c0,0-0.1,0-0.1,0c-0.6-0.1-1-0.6-0.9-1.2c0.2-1.8,0.5-3.6,0.8-5.3c0.1-0.6,0.6-1,1.2-0.9
							c0.6,0.1,1,0.7,0.9,1.2c-0.3,1.7-0.6,3.5-0.8,5.2C641.2,467.1,640.8,467.5,640.2,467.5z"/>
						<path class="st1" d="M643.5,451.8c-0.1,0-0.2,0-0.3,0c-0.6-0.2-0.9-0.8-0.7-1.3c1-3.5,2.3-6.9,3.7-10.2
							c0.2-0.5,0.9-0.8,1.4-0.6c0.5,0.2,0.8,0.9,0.6,1.4c-1.4,3.3-2.6,6.6-3.6,10C644.4,451.5,643.9,451.8,643.5,451.8z M651.8,432
							c-0.2,0-0.4,0-0.5-0.1c-0.5-0.3-0.7-0.9-0.4-1.5c1.8-3.2,3.7-6.2,5.8-9.2c0.3-0.5,1-0.6,1.5-0.2c0.5,0.3,0.6,1,0.2,1.5
							c-2.1,2.9-4,5.9-5.7,9C652.6,431.8,652.2,432,651.8,432z M807.5,415.1c-0.3,0-0.6-0.1-0.8-0.4c-2.4-2.6-4.9-5.2-7.5-7.5
							c-0.4-0.4-0.5-1.1-0.1-1.5c0.4-0.4,1.1-0.5,1.5-0.1c2.7,2.4,5.3,5,7.7,7.7c0.4,0.4,0.4,1.1-0.1,1.5
							C808,415,807.7,415.1,807.5,415.1z M664.4,414.5c-0.3,0-0.5-0.1-0.7-0.3c-0.4-0.4-0.5-1.1-0.1-1.5c2.4-2.7,5-5.3,7.7-7.7
							c0.4-0.4,1.1-0.3,1.5,0.1c0.4,0.4,0.3,1.1-0.1,1.5c-2.6,2.3-5.2,4.9-7.6,7.5C664.9,414.4,664.7,414.5,664.4,414.5z
							 M791.5,400.8c-0.2,0-0.4-0.1-0.6-0.2c-2.9-2-5.9-4-9-5.7c-0.5-0.3-0.7-0.9-0.4-1.5c0.3-0.5,0.9-0.7,1.5-0.4
							c3.2,1.8,6.3,3.7,9.2,5.8c0.5,0.3,0.6,1,0.3,1.5C792.2,400.6,791.8,400.8,791.5,400.8z M680.5,400.3c-0.3,0-0.7-0.2-0.9-0.5
							c-0.3-0.5-0.2-1.1,0.3-1.5c3-2.1,6.1-4,9.2-5.7c0.5-0.3,1.2-0.1,1.5,0.4c0.3,0.5,0.1,1.2-0.4,1.5c-3.1,1.7-6.1,3.6-9,5.6
							C680.9,400.3,680.7,400.3,680.5,400.3z M772.7,390.3c-0.1,0-0.3,0-0.4-0.1c-3.3-1.4-6.6-2.6-10-3.6c-0.6-0.2-0.9-0.8-0.7-1.3
							c0.2-0.6,0.8-0.9,1.3-0.7c3.5,1,6.9,2.2,10.2,3.6c0.5,0.2,0.8,0.9,0.6,1.4C773.5,390.1,773.1,390.3,772.7,390.3z M699.3,390
							c-0.4,0-0.8-0.3-1-0.7c-0.2-0.5,0-1.2,0.6-1.4c3.3-1.4,6.8-2.6,10.3-3.5c0.6-0.2,1.2,0.2,1.3,0.7c0.2,0.6-0.2,1.2-0.7,1.3
							c-3.4,1-6.8,2.1-10.1,3.5C699.6,390,699.5,390,699.3,390z M752.1,384.3c-0.1,0-0.1,0-0.2,0c-3.5-0.6-7-1-10.6-1.2
							c-0.6,0-1-0.5-1-1.1c0-0.6,0.5-1,1.1-1c3.6,0.2,7.2,0.6,10.8,1.3c0.6,0.1,1,0.7,0.9,1.2C753.1,383.9,752.6,384.3,752.1,384.3z
							 M720,384.2c-0.5,0-1-0.4-1.1-0.9c-0.1-0.6,0.3-1.1,0.9-1.2c3.6-0.6,7.2-1,10.8-1.2c0.6,0,1.1,0.4,1.1,1c0,0.6-0.4,1.1-1,1.1
							c-3.5,0.2-7.1,0.6-10.6,1.2C720.1,384.2,720,384.2,720,384.2z"/>
						<path class="st1" d="M817.2,428c-0.4,0-0.7-0.2-0.9-0.5c-0.9-1.5-1.9-3-2.9-4.4c-0.3-0.5-0.2-1.1,0.3-1.5
							c0.5-0.3,1.2-0.2,1.5,0.3c1,1.5,2,3,3,4.5c0.3,0.5,0.2,1.2-0.3,1.5C817.6,428,817.4,428,817.2,428z"/>
					</g>
					<g>
						<path class="st1" d="M828.6,503.7c-0.1,0-0.2,0-0.3,0c-0.6-0.2-0.9-0.7-0.8-1.3c0.5-1.7,0.9-3.4,1.2-5.1
							c0.1-0.6,0.7-0.9,1.3-0.8c0.6,0.1,1,0.7,0.8,1.3c-0.4,1.8-0.8,3.5-1.2,5.3C829.5,503.4,829,503.7,828.6,503.7z"/>
						<path class="st1" d="M735.6,575.1l-1,0c-0.6,0-1.1-0.5-1.1-1.1c0-0.6,0.4-1,1.1-1.1l0.9,0c3.2,0,6.4-0.2,9.5-0.5
							c0.6,0,1.1,0.4,1.2,1c0.1,0.6-0.4,1.1-1,1.2C742.1,575,738.8,575.1,735.6,575.1z M724.1,574.5c0,0-0.1,0-0.1,0
							c-3.5-0.4-7.1-1.1-10.5-1.9c-0.6-0.1-0.9-0.7-0.8-1.3c0.1-0.6,0.7-0.9,1.3-0.8c3.4,0.8,6.9,1.4,10.3,1.8
							c0.6,0.1,1,0.6,0.9,1.2C725.1,574.1,724.6,574.5,724.1,574.5z M755.7,573c-0.5,0-0.9-0.3-1-0.8c-0.1-0.6,0.2-1.1,0.8-1.3
							c3.4-0.7,6.8-1.6,10.1-2.7c0.6-0.2,1.2,0.1,1.4,0.7c0.2,0.6-0.1,1.2-0.7,1.4c-3.4,1.1-6.9,2.1-10.3,2.8
							C755.8,573,755.7,573,755.7,573z M703.5,569.6c-0.1,0-0.2,0-0.4-0.1c-3.3-1.2-6.7-2.6-9.9-4.1c-0.5-0.3-0.8-0.9-0.5-1.4
							c0.3-0.5,0.9-0.8,1.4-0.5c3.1,1.5,6.4,2.9,9.6,4c0.6,0.2,0.8,0.8,0.6,1.4C704.4,569.3,704,569.6,703.5,569.6z M775.7,566.4
							c-0.4,0-0.8-0.2-1-0.6c-0.2-0.5,0-1.2,0.5-1.4c3.2-1.4,6.3-3.1,9.3-4.9c0.5-0.3,1.2-0.1,1.5,0.4c0.3,0.5,0.1,1.2-0.4,1.5
							c-3,1.8-6.2,3.5-9.5,5C776,566.4,775.9,566.4,775.7,566.4z M684.5,560.4c-0.2,0-0.4-0.1-0.6-0.2c-3-1.9-6-4-8.7-6.2
							c-0.5-0.4-0.5-1-0.2-1.5c0.4-0.5,1-0.5,1.5-0.2c2.7,2.2,5.6,4.2,8.5,6c0.5,0.3,0.7,1,0.3,1.5
							C685.2,560.2,684.9,560.4,684.5,560.4z M793.9,555.5c-0.3,0-0.6-0.1-0.9-0.4c-0.4-0.5-0.3-1.1,0.2-1.5c2.8-2.1,5.5-4.4,8-6.8
							c0.4-0.4,1.1-0.4,1.5,0c0.4,0.4,0.4,1.1,0,1.5c-2.6,2.4-5.3,4.8-8.2,6.9C794.3,555.5,794.1,555.5,793.9,555.5z M668,547.2
							c-0.3,0-0.5-0.1-0.8-0.3c-2.5-2.5-4.9-5.2-7.2-7.9c-0.4-0.5-0.3-1.1,0.2-1.5c0.5-0.4,1.1-0.3,1.5,0.2c2.2,2.7,4.5,5.3,7,7.8
							c0.4,0.4,0.4,1.1,0,1.5C668.5,547.1,668.2,547.2,668,547.2z M809.2,541c-0.2,0-0.5-0.1-0.7-0.3c-0.5-0.4-0.5-1.1-0.1-1.5
							c2.2-2.7,4.4-5.5,6.3-8.4c0.3-0.5,1-0.6,1.5-0.3c0.5,0.3,0.6,1,0.3,1.5c-2,3-4.1,5.8-6.4,8.6C809.8,540.9,809.5,541,809.2,541
							z M820.9,523.4c-0.2,0-0.3,0-0.5-0.1c-0.5-0.3-0.7-0.9-0.5-1.4l0.3-0.5c1.5-2.9,2.9-6,4.1-9c0.2-0.5,0.8-0.8,1.4-0.6
							c0.6,0.2,0.8,0.8,0.6,1.4c-1.2,3.1-2.6,6.2-4.1,9.2l-0.3,0.5C821.7,523.2,821.3,523.4,820.9,523.4z"/>
						<path class="st1" d="M654.7,530.7c-0.4,0-0.7-0.2-0.9-0.5c-1-1.5-1.9-3.1-2.8-4.6c-0.3-0.5-0.1-1.2,0.4-1.5
							c0.5-0.3,1.2-0.1,1.5,0.4c0.9,1.5,1.8,3.1,2.7,4.5c0.3,0.5,0.2,1.2-0.3,1.5C655,530.7,654.8,530.7,654.7,530.7z"/>
					</g>
				</g>
			</g>
		</g>
		<g>
			<g>
				<path class="st5" d="M312,1115.9c-3.6,5.3-17.8,125.5-20.1,169.8c-0.2,3,2.2,5.5,5.3,5.5l0,0c2.6,0,4.8-1.9,5.2-4.4l26.1-167.1
					L312,1115.9z"/>
				<path class="st5" d="M426.6,1115.9c3.6,5.3,17.8,125.5,20.1,169.8c0.2,3-2.2,5.5-5.3,5.5l0,0c-2.6,0-4.8-1.9-5.2-4.4
					l-26.1-167.1L426.6,1115.9z"/>
				<path class="st5" d="M290.4,1106.6l0,1.3c-0.1,9.4,8,17.2,18.2,17.3l120.5,2c10,0.2,18.4-7.1,18.9-16.4l0.1-1.2
					c0.5-9.7-7.7-17.8-18.2-18l-120.6-2.2C299,1089.3,290.5,1097,290.4,1106.6z"/>
			</g>
			<g>
				<g>
					<path class="st5" d="M524.9,1281.4c-21.4,0-30.9-1.8-35.1-3.5c0.8,3.5,4,6.3,7.9,6.3h75.8c2.6,0,4.2-2.4,3.6-4.7
						C568.4,1280.2,550,1281.4,524.9,1281.4z"/>
					<path class="st5" d="M577,1279.5c-0.1-0.4-0.3-0.9-0.6-1.3c-5.8-7.4-17.4-18.9-33.1-18.7c-23.1,0.3-31.2,2.8-49.1,0.1l-4.2,14
						c-0.4,1.4-0.4,2.9-0.1,4.2c4.2,1.7,13.7,3.5,35.1,3.5C550,1281.4,568.4,1280.2,577,1279.5z"/>
				</g>
				<path class="st2" d="M499.3,1244.5l-5.2,17.7c0,0,11.5,5.2,21.7,1l2-15.3L499.3,1244.5z"/>
				<g>
					<path class="st5" d="M656.4,1270.3c-16.7,13.4-25.2,17.9-29.6,19.3c2.8,2.2,7,2.4,10.1-0.1L696,1242c2-1.6,1.7-4.5-0.1-5.8
						C689.6,1242.1,676,1254.5,656.4,1270.3z"/>
					<path class="st5" d="M695.9,1236.2c-0.4-0.3-0.8-0.5-1.3-0.6c-9.1-2.1-25.4-3.8-37.5,6.2c-17.8,14.7-22.5,21.7-38.2,30.9
						l5.5,13.5c0.6,1.4,1.4,2.5,2.5,3.3c4.3-1.4,12.9-5.9,29.6-19.3C676,1254.5,689.6,1242.1,695.9,1236.2z"/>
				</g>
				<path class="st6" d="M388.1,1043c0,0,128.3,10.5,154.6,22.9c26.3,12.4-21.5,186-21.5,186s-7.2,3.4-23.1-1.5
					c0,0,16.3-128.1,4.2-155.9l-138.9-22.7L388.1,1043z"/>
				<path class="st2" d="M606.1,1248.3c1.2,1.1,12.7,24.4,12.7,24.4s12.9-2.8,15.5-10.9l-11.6-21L606.1,1248.3z"/>
				<path class="st6" d="M310.8,1041.9c0,0-4.2,10.1-4,23.4c0.2,18.5,15.1,33.5,33.6,34.4l151.6,6.9c3.2,0.1,5.9,2.4,6.7,5.5
					c3.6,13.8,21,56.1,106.1,140.6c2.3,2.2,5.8,2.6,8.5,0.9l12.1-7.7c1.3-0.8,1.7-2.5,0.9-3.8l-88.3-150.8
					c-4.6-7.7-12.1-13.2-20.8-15.4l-129.2-33L310.8,1041.9z"/>
				<path class="st2" d="M460.2,806.5c0,0-16.2,28.7-32.8,42.6l34.2,19.1c0,0,7.7-30.4,25.3-39.3L460.2,806.5z"/>
				<path class="st7" d="M308.1,1043c0,0,40.9,10,80,0c0,0,54.7-73.5,75.8-93.5c0,0,33.7,53.2,108.8,60.8l4.2-9.4
					c0,0-59.8-27.6-78.2-69.9c-18.4-42.3-25.8-60.4-42.5-71.5c-10.4-6.9-16.7-11.6-19.9-14.1c-1.8-1.4-4.2-1.6-6.1-0.4
					C412.4,855.9,328.8,913.1,308.1,1043z"/>
				<path class="st2" d="M568.2,996.1l8.5-2.3l25.7-5.9c3.1-0.7,6.3-0.2,9,1.5l22.1,13.9l-60.9-0.1L568.2,996.1z"/>
				<g>
					<path class="st2" d="M487,771.8c0,0,13.9,46.3,7.7,62.7c-6.2,16.3-33.6,9.6-54.9-8.9l-7.8-48.6L487,771.8z"/>
					<path class="st5" d="M445.2,803.6c1.1-0.2,1.7-1.4,1.3-2.4c-1.2-3.1-3.5-9.3-3.6-14.4c0,0-3.5-3.4,11.4-3.9
						c14.9-0.6,37-1.6,43.9-12.8c6.7-10.9,1.2-42.8-21.7-22.8c-0.9,0.8-2.2,0.5-2.7-0.5c-2.2-4.5-8.4-14.1-20.3-11.4
						c-11.1,2.5-13.7,9.8-14.3,13.5c-0.2,1.1-1.3,1.8-2.4,1.4c-4.9-2-17.1-5.3-25.4,6.2c-6.8,9.5-4.9,16-2.7,19.4
						c0.7,1.1,0,2.6-1.3,2.7c-3.6,0.4-8.5,2.4-9.7,10.4c-1.6,11.1,10.9,12.5,14.4,12.7c0.6,0,1.1,0.3,1.4,0.8
						c2.3,3.9,13,20.6,27.2,25.2c1.2,0.4,2.5-0.7,2.3-1.9l-2.7-19.6c-0.1-0.9,0.5-1.8,1.4-2L445.2,803.6z"/>
					<path class="st2" d="M447.3,806.7c0,0-13.7-14-16.7-5.1c-3,8.9,11.6,16.1,19.9,14.2L447.3,806.7z"/>
				</g>
			</g>
			<g>
				<g>
					<path class="st6" d="M544.7,1015.2c0.1,0,0.2,0,0.3,0l130.2-0.1c3.2,0,5.8-2.6,5.8-5.8c0-3.2-2.6-5.9-5.8-5.8l-130.2,0.1
						c-3.2,0-5.8,2.6-5.8,5.8C539.1,1012.5,541.6,1015.1,544.7,1015.2z"/>
				</g>
				<g>
					<path class="st6" d="M725.6,887.7c0,0.1-0.1,0.2-0.1,0.3l-54.8,118.1c-1.4,2.9-0.1,6.4,2.8,7.7c2.9,1.4,6.4,0.1,7.7-2.8
						L736,892.9c1.4-2.9,0.1-6.4-2.8-7.7C730.3,883.9,727,885,725.6,887.7z"/>
				</g>
			</g>
			<g>
				<path class="st13" d="M602.6,1021.8c-0.6,2.4-54.9,206.1-68.7,257.7c-1.6,6,2.8,11.8,8.9,11.8l0,0c4.2,0,8-2.9,9-7.1l60.3-244.5
					L602.6,1021.8z"/>
				<path class="st13" d="M632.4,1021.8c0.6,2.4,54.9,206.1,68.7,257.7c1.6,6-2.8,11.8-8.9,11.8l0,0c-4.2,0-8-2.9-9-7.1l-60.3-244.5
					L632.4,1021.8z"/>
				<path class="st13" d="M634.6,1015.1h-33.8v27.2c0,3.9,3.1,7.1,7,7.1h4.6v61c0,3,2.4,5.4,5.3,5.4l0,0c2.9,0,5.3-2.4,5.3-5.4v-61
					h2.4c5.1,0,9.3-4.2,9.3-9.4V1015.1z"/>
				<path class="st5" d="M517.6,1008.6h188.9c2.6,0,4.9,1.8,5.6,4.4l2.6,10.3c0.9,3.7-1.8,7.3-5.6,7.3l-193.8-1.1
					c-3.8,0-6.5-3.6-5.6-7.3l2.3-9.2C512.7,1010.4,515,1008.6,517.6,1008.6z"/>
			</g>
		</g>
		<g>
			<g>
				
					<rect x="841.5" y="1308.3" transform="matrix(-1 -1.224647e-16 1.224647e-16 -1 1695.8992 2755.5806)" class="st5" width="12.9" height="139"/>
				<path class="st5" d="M791.7,1450h112.6v-4.7c0-2-1.6-3.7-3.7-3.7H795.3c-2,0-3.7,1.6-3.7,3.7V1450z"/>
				<path class="st5" d="M775,1303.5c0,7.6,6.2,13.8,13.8,13.8h113.9c7.6,0,13.8-6.2,13.8-13.8V1291c0-7.6-6.2-13.8-13.8-13.8H788.8
					c-7.6,0-13.8,6.2-13.8,13.8V1303.5z"/>
			</g>
			<g>
				<path class="st2" d="M942.8,1215.6c0,0,19.1,3,40.6,17.3c3.4,2.3,5.2,6.2,4.7,10.2c-2.6,20.4-13.1,86.3-48,150.7
					c-1.8,3.4-2.4,7.3-1.6,11.1l6.1,28.2l11.2,10.5h-28.9l-19.3-52.1l8.2-2.6c6.4-2,10.8-7.9,10.9-14.6l1-55.9
					c-0.8-24.9,15.3-42.1,15.3-42.1l-46.2-2.2L942.8,1215.6z"/>
				<path class="st6" d="M967.2,1448.8c2.6,3.4-28.4,8-44,0.5c0,0-21.7-37.8-21.7-57.2c0,0,1.7-4,14.5-3.1c0,0,7.3,44.7,15,49.7
					c7.7,5,21.5,0.5,21.5,0.5S963.3,1443.7,967.2,1448.8z"/>
				<path class="st2" d="M902.7,1277.2c0.2-0.4,49.7-6,49.7-6s-1.6,15.1,3.4,35.8c5.1,20.7,77.7,110.5,77.7,110.5l-7.6,24.2
					c23.6,8.2,46.7,9.5,69.5,4.2l-47.2-28.3c0,0-44.2-150.6-71.3-177.5l-49.6-17.2L902.7,1277.2z"/>
				<path class="st7" d="M791.7,1189.5c0,0-28.5,42.4-30.9,61.8s7.8,27.2,37.7,28.5c29.9,1.3,109.8,1.3,109.8,1.3l68.2-58.3
					c0,0-49.7-17.7-62.6-22.7C901,1195,791.7,1189.5,791.7,1189.5z"/>
				<path class="st6" d="M1028.9,1433.5c0,0-8.2,7.9-2.7,16.8c0,0,65,11.5,82.6,6.3c0,0-3.7-8.4-23.5-17.9l1.5,1.1
					c1.9,1.4,0.8,4.4-1.6,4.3C1072.1,1443.3,1045,1440.9,1028.9,1433.5z"/>
			</g>
			<g>
				<path class="st7" d="M868.8,1183.9c0,0,33.2-31.6,49.6-52.6c8.8-11.3,11.6-26.2,7.5-40c-7.5-25.1-20.7-51.2-21.9-55.2
					c-1.9-6.2-39.1-6-39.1-6s-73.3,47.6-102.1,128.1l32.3,10.1c0,0,19.1-32.1,38-52.5c0,0-32.7,43.2-33.9,60.9L868.8,1183.9z"/>
				<path class="st2" d="M908.4,1001.4c-0.4,1.3-10.1,33.5-10.9,34.2c-0.8,0.7-21.3,1.8-31-4.8l20.9-41.8L908.4,1001.4z"/>
				<path class="st2" d="M945.2,970.2c0,0,5.7,18.2-5.8,43.7c-11.5,25.5-26.2,26.3-34.7,18.9c-8.5-7.5-19.2-20.4-18.2-44.5
					C887.5,964.2,937.1,947.1,945.2,970.2z"/>
				<path class="st5" d="M904.5,988.6c0,0,19.6-34.1,41.3-9.4l0.9,9.4c0,0,23.5-4.2,18.1-25.6c-5.4-21.4-31.2-38.3-57-27.4
					c-25.8,10.9-35.7,25.8-36.3,44.8c-0.6,19,14.1,14,14.1,14s4.1-13.6,11-15.3c6.9-1.8,5.7,8.7,5.7,8.7L904.5,988.6z"/>
				<path class="st2" d="M899,988.4c0,0,10.2-17.5-1.4-19.3c-11.6-1.9-8.7,17-7.1,23.9L899,988.4z"/>
				<path class="st2" d="M936.4,1186.2l-24.4-23.5l-33.8,14.3c0,0-33.6,5.2-52.8,0c-19.2-5.2-19.2-5.2-19.2-5.2l-43.5-13.5
					l-6.8,19.3c-1.7,4.9,0,10.3,4.2,13.3c3.8,2.7,8.2,5.6,11,6.8c5.7,2.5,141.1-1.7,141.1-1.7L936.4,1186.2z"/>
				<path class="st5" d="M906.3,940.3c6,0.4,9.8-6.4,6.6-11.6c-10.2-16.6-31.6-37-71-19.6c-44.4,19.6-68,27.8-77.1,23.4
					c-6-2.9-12.7,2.3-10.8,8.7c1.4,4.7,5,10.1,12.5,15.8C824.5,1000.9,871,937.8,906.3,940.3z"/>
			</g>
			<g>
				<path class="st6" d="M844.1,1197.3c0.1,0,0.2,0,0.3,0l141.5-0.2c3.5,0,6.3-2.8,6.3-6.3c0-3.5-2.9-6.4-6.3-6.3l-141.5,0.2
					c-3.5,0-6.3,2.8-6.3,6.3C838.1,1194.4,840.8,1197.2,844.1,1197.3z"/>
				<path class="st6" d="M1113.2,1068.8H995.3c-8.7,0-16.6,5-20.3,12.9l-54.5,115.5H1067c5.6,0,10.6-3.4,12.7-8.6l42.3-106.9
					C1124.4,1075.5,1119.8,1068.8,1113.2,1068.8z"/>
				<path class="st13" d="M1030.2,1128.1c-2.6,7.9-0.7,15.6,4.2,17.2c4.9,1.6,10.9-3.6,13.5-11.5c2.6-7.9,0.7-15.6-4.2-17.2
					C1038.7,1115,1032.7,1120.1,1030.2,1128.1z"/>
			</g>
			<g>
				<path class="st5" d="M646.3,1202.5c-0.3-1.6,0.1-3.3,1.2-4.5c1.1-1.3,2.8-2,4.5-2h590.6c2.3,0,4.4,1.1,5.7,2.9
					c1.2,1.8,1.4,4.1,0.4,6l-6.4,13c-1.5,3-4.6,4.9-8.1,4.9H656.1c-3.3,0-6-2.2-6.7-5.2L646.3,1202.5z"/>
				<g>
					<path class="st5" d="M1209.5,1476.2c0.7,0,1.4-0.1,2-0.4c2.6-1.2,3.8-4.3,2.7-7l-108.7-258.6c-1.1-2.7-4.2-3.9-6.8-2.8
						c-2.6,1.2-3.8,4.3-2.7,7l108.7,258.6C1205.6,1475,1207.5,1476.2,1209.5,1476.2z"/>
					<path class="st5" d="M1087.1,1476.2c2,0,3.9-1.2,4.8-3.2l108.7-258.6c1.1-2.7-0.1-5.8-2.7-7c-2.6-1.2-5.7,0.1-6.8,2.8
						l-108.7,258.6c-1.1,2.7,0.1,5.8,2.7,7C1085.7,1476,1086.4,1476.2,1087.1,1476.2z"/>
					<path class="st5" d="M781.5,1476.2c0.7,0,1.4-0.1,2-0.4c2.6-1.2,3.8-4.3,2.7-7l-108.7-258.6c-1.1-2.7-4.2-3.9-6.8-2.8
						c-2.6,1.2-3.8,4.3-2.7,7L776.7,1473C777.6,1475,779.5,1476.2,781.5,1476.2z"/>
					<path class="st5" d="M659,1476.2c2,0,3.9-1.2,4.8-3.2l108.7-258.6c1.1-2.7-0.1-5.8-2.7-7c-2.6-1.2-5.7,0.1-6.8,2.8
						l-108.7,258.6c-1.1,2.7,0.1,5.8,2.7,7C657.6,1476,658.3,1476.2,659,1476.2z"/>
				</g>
			</g>
		</g>
	</g>
</g>
</svg>
